<svg width="375" height="120" viewBox="0 0 375 120" fill="none" xmlns="http://www.w3.org/2000/svg">
<mask id="mask0_2040_136440" style="mask-type:alpha" maskUnits="userSpaceOnUse" x="0" y="0" width="375" height="120">
<rect width="375" height="120" rx="24" fill="white"/>
</mask>
<g mask="url(#mask0_2040_136440)">
<path d="Mnan nanL213.208 51.5295C213.099 51.5295 212.993 51.4974 212.903 51.4373C212.813 51.3771 212.743 51.2916 212.702 51.1916C212.66 51.0915 212.65 50.9814 212.671 50.8752C212.692 50.769 212.744 50.6715 212.82 50.5949C212.897 50.5184 212.995 50.4662 213.101 50.4451C213.207 50.424 213.317 50.4348 213.417 50.4762C213.517 50.5177 213.603 50.5879 213.663 50.6779C213.723 50.7679 213.755 50.8738 213.755 50.9821C213.755 51.1271 213.697 51.2661 213.594 51.3687C213.492 51.4713 213.353 51.5291 213.208 51.5295Lnan nanZMnan nanL213.208 50.5625C213.125 50.5625 213.043 50.5871 212.975 50.6332C212.906 50.6793 212.852 50.7448 212.82 50.8215C212.788 50.8982 212.78 50.9825 212.796 51.0639C212.812 51.1453 212.852 51.2201 212.911 51.2787C212.97 51.3374 213.044 51.3774 213.126 51.3936C213.207 51.4097 213.291 51.4014 213.368 51.3697C213.445 51.3379 213.51 51.2841 213.556 51.2152C213.602 51.1462 213.627 51.065 213.627 50.9821C213.627 50.8709 213.582 50.7645 213.504 50.6859C213.425 50.6073 213.319 50.5629 213.208 50.5625Lnan nanZ" fill="#FF942A"/>
<path d="Mnan nanL300.692 67.7307C300.584 67.7307 300.478 67.6986 300.388 67.6384C300.298 67.5783 300.228 67.4928 300.186 67.3927C300.145 67.2927 300.134 67.1826 300.155 67.0764C300.176 66.9702 300.228 66.8727 300.305 66.7961C300.381 66.7195 300.479 66.6674 300.585 66.6463C300.691 66.6251 300.801 66.636 300.901 66.6774C301.001 66.7189 301.087 66.789 301.147 66.8791C301.207 66.9691 301.239 67.0749 301.239 67.1832C301.239 67.3283 301.181 67.4673 301.079 67.5698C300.976 67.6724 300.837 67.7302 300.692 67.7307Lnan nanZMnan nanL300.692 66.7637C300.609 66.7637 300.528 66.7883 300.459 66.8344C300.39 66.8805 300.336 66.946 300.304 67.0227C300.273 67.0993 300.264 67.1837 300.28 67.2651C300.297 67.3465 300.337 67.4212 300.395 67.4799C300.454 67.5386 300.529 67.5785 300.61 67.5947C300.691 67.6109 300.776 67.6026 300.852 67.5708C300.929 67.5391 300.995 67.4853 301.041 67.4163C301.087 67.3473 301.111 67.2662 301.111 67.1832C301.111 67.0721 301.067 66.9656 300.988 66.887C300.91 66.8085 300.803 66.7641 300.692 66.7637Lnan nanZ" fill="#FF942A"/>
<path opacity="0.4" d="M325.167 73.9224C324.256 72.171 321.245 72.0994 320.562 74.1049C319.817 76.2724 322.58 77.4491 324.241 76.6783C325.523 76.0831 325.665 74.8791 325.167 73.9224Z" fill="url(#paint0_linear_2040_136440)"/>
<path opacity="0.2" d="M330.275 109.598C330.276 109.596 330.277 109.594 330.278 109.592C330.378 109.005 329.865 108.381 329.254 108.419C328.995 108.44 328.753 108.557 328.574 108.745C328.396 108.934 328.293 109.182 328.285 109.442C328.287 109.693 328.382 109.933 328.553 110.117C328.723 110.301 328.957 110.414 329.207 110.434C329.456 110.454 329.705 110.379 329.902 110.225C330.099 110.071 330.231 109.85 330.273 109.603C330.273 109.601 330.274 109.6 330.275 109.598Z" fill="url(#paint1_linear_2040_136440)"/>
<g filter="url(#filter0_f_2040_136440)">
<path fill-rule="evenodd" clip-rule="evenodd" d="M190.397 2.79194C201.527 22.6872 242.61 20.4902 271.312 27.3594C292.759 32.4921 305.757 50.4844 329.318 46.4457C358.234 41.4891 387.273 26.2006 396.459 5.90752C405.624 -14.34 386.804 -31.3427 371.83 -47.473C355.924 -64.6061 341.193 -85.6335 310.775 -86.3871C278.915 -87.1765 250.288 -69.2467 227.448 -51.0502C204.157 -32.494 178.843 -17.8617 190.397 2.79194Z" fill="url(#paint2_linear_2040_136440)" fill-opacity="0.6"/>
</g>
<g filter="url(#filter1_f_2040_136440)">
<path fill-rule="evenodd" clip-rule="evenodd" d="M198.023 -18.3708C198.77 4.41374 243.817 14.4795 266.156 33.7662C282.848 48.1777 286.127 70.1301 308.91 77.3664C336.872 86.2473 369.688 86.0076 387.17 72.2022C404.612 58.4278 395.707 34.6802 389.815 13.4734C383.558 -9.05175 380.133 -34.4961 353.461 -49.1389C325.524 -64.4765 291.861 -61.7009 263.214 -56.0305C234.001 -50.248 197.249 -42.0239 198.023 -18.3708Z" fill="url(#paint3_linear_2040_136440)" fill-opacity="0.3"/>
</g>
<g opacity="0.8" filter="url(#filter2_f_2040_136440)">
<path d="M84.0929 14.4069C65.5817 9.62555 39.5576 5.2834 32.9871 -15.8748C28.1368 -31.4867 25.859 -53.5776 3.73145 -40.4937C-9.98321 -32.4087 -19.1927 -14.7197 -24.2787 -0.164914C-38.3467 40.2145 -22.7502 86.0368 8.89494 113.496C39.7605 140.272 89.6976 155.03 124.967 127.844C137.697 118.01 147.718 103.036 149.926 86.9557C155.179 49.4884 115.922 22.6088 84.0929 14.4069Z" fill="url(#paint4_linear_2040_136440)" fill-opacity="0.4"/>
</g>
<path opacity="0.16" d="M44.8343 6.78612C50.4309 8.75681 56.235 10.0376 61.7365 12.2991C70.0417 15.7398 77.2966 21.3026 82.7744 28.4301C85.743 32.3119 89.2356 37.1696 94.0972 36.5796C100.818 35.8092 101.683 27.1633 101.052 21.884C100.128 14.0621 95.1866 7.80638 88.4268 4.03284C80.3394 -0.493143 71.5398 -0.909365 62.4775 -1.00955C59.0447 -1.04692 55.6444 -0.781849 52.2415 -1.39461C48.8696 -2.00515 45.6175 -3.15213 42.6087 -4.7919C38.9486 -6.799 35.8507 -9.55201 32.3402 -11.7708C30.8412 -12.7225 28.2368 -13.591 26.8134 -11.9961C25.0628 -10.0749 26.8888 -6.77146 28.0042 -5.05385C31.7012 0.606617 38.5933 4.59057 44.8343 6.78612Z" fill="url(#paint5_linear_2040_136440)" fill-opacity="0.2"/>
<path opacity="0.3" d="M84.1238 43.4452C84.1276 43.44 84.1302 43.4341 84.1315 43.4279C84.524 41.5813 82.9819 39.541 81.0424 39.5807C80.2199 39.616 79.4391 39.953 78.8491 40.5273C78.2592 41.1017 77.9015 41.8732 77.8444 42.6946C77.8168 43.4883 78.088 44.2634 78.6044 44.8668C79.1207 45.4701 79.8447 45.8578 80.6331 45.9531C81.4215 46.0484 82.217 45.8445 82.8622 45.3816C83.5049 44.9206 83.952 44.2362 84.116 43.4628C84.1173 43.4564 84.12 43.4504 84.1238 43.4452Z" fill="url(#paint6_linear_2040_136440)"/>
<path opacity="0.15" d="M171.715 76.4026C169.573 75.1895 167.59 73.7235 165.382 72.6194C162.042 70.96 158.324 70.2075 154.601 70.4375C152.578 70.5674 150.106 70.7994 148.965 69.118C147.374 66.8061 149.843 64.1784 151.666 62.9363C154.365 61.0929 157.668 60.9329 160.692 62.0182C164.312 63.3137 166.841 65.9523 169.343 68.7593C170.291 69.8227 171.135 70.9585 172.254 71.8557C173.364 72.7438 174.61 73.4482 175.943 73.9422C177.569 74.5397 179.274 74.758 180.925 75.251C181.632 75.4604 182.614 76.0382 182.503 76.9182C182.379 77.9895 180.848 78.319 180.006 78.4384C177.228 78.8254 174.103 77.756 171.715 76.4026Z" fill="url(#paint7_linear_2040_136440)"/>
<path opacity="0.15" d="M2.45362 120.237C4.81218 119.531 7.07191 118.544 9.46957 117.959C13.0957 117.086 16.8876 117.181 20.4655 118.234C22.4091 118.812 24.7669 119.589 26.2536 118.204C28.3199 116.304 26.4989 113.193 24.9983 111.575C22.7784 109.177 19.5933 108.285 16.4043 108.669C12.5863 109.125 9.53285 111.134 6.46845 113.313C5.3078 114.139 4.2319 115.058 2.94077 115.684C1.66062 116.302 0.289619 116.711 -1.12006 116.896C-2.83792 117.116 -4.54932 116.949 -6.2687 117.062C-7.00389 117.108 -8.08962 117.453 -8.17763 118.336C-8.29576 119.408 -6.87661 120.07 -6.08306 120.374C-3.46075 121.37 -0.176008 121.024 2.45362 120.237Z" fill="url(#paint8_linear_2040_136440)"/>
<path opacity="0.3" d="M121.871 70.7079C126.561 70.0362 130.819 66.4826 131.978 61.8779C133.197 57.0113 131.055 51.9749 128.712 47.5491C126.37 43.1234 123.666 38.5537 123.69 33.5415C123.712 27.5109 127.666 22.1834 128.698 16.2598C130.118 8.12557 125.478 -0.464071 118.274 -4.49689C111.07 -8.52969 101.842 -8.19398 94.4873 -4.44114C87.1325 -0.688291 81.6324 6.19342 78.6646 13.8979C75.3492 22.5121 75.1445 32.5894 79.4854 40.7368C81.9133 45.2472 85.6833 48.8913 90.2735 51.1649C93.8702 52.9306 98.2269 53.1233 101.689 55.1379C105.367 57.255 105.932 61.3685 108.269 64.6045C111.31 68.8342 116.621 71.4532 121.871 70.7079Z" fill="url(#paint9_linear_2040_136440)" fill-opacity="0.3"/>
<g style="mix-blend-mode:multiply" opacity="0.4" filter="url(#filter3_f_2040_136440)">
<path d="M91.7191 47.0917C104.759 52.3664 119.564 55.0763 128.674 47.9903C136.158 40.2592 127.981 17.7032 124.957 10.042C116.829 -10.5488 102.52 -3.47354 87.1368 12.3006C62.5852 37.4759 88.3066 45.7114 91.7191 47.0917Z" fill="url(#paint10_linear_2040_136440)" fill-opacity="0.5"/>
</g>
<g opacity="0.4">
<g style="mix-blend-mode:lighten" filter="url(#filter4_f_2040_136440)">
<ellipse cx="134.813" cy="199.739" rx="24.8124" ry="24.8125" transform="rotate(179.993 134.813 199.739)" fill="white"/>
</g>
<g style="mix-blend-mode:lighten" filter="url(#filter5_f_2040_136440)">
<ellipse cx="131.486" cy="113.533" rx="28.1353" ry="28.1353" transform="rotate(179.993 131.486 113.533)" fill="white"/>
</g>
<g filter="url(#filter6_f_2040_136440)">
<ellipse cx="189.042" cy="102.939" rx="33.1665" ry="33.1665" transform="rotate(179.995 189.042 102.939)" fill="url(#paint11_radial_2040_136440)" fill-opacity="0.3"/>
</g>
<g filter="url(#filter7_f_2040_136440)">
<ellipse cx="328.794" cy="125.535" rx="24.044" ry="24.044" transform="rotate(179.995 328.794 125.535)" fill="url(#paint12_radial_2040_136440)" fill-opacity="0.3"/>
</g>
<g filter="url(#filter8_f_2040_136440)">
<ellipse cx="233.298" cy="125.535" rx="24.044" ry="24.044" transform="rotate(179.995 233.298 125.535)" fill="url(#paint13_radial_2040_136440)" fill-opacity="0.3"/>
</g>
</g>
<mask id="mask1_2040_136440" style="mask-type:alpha" maskUnits="userSpaceOnUse" x="3" y="24" width="64" height="64">
<rect x="3" y="24" width="64" height="64" rx="24" fill="#C4C4C4"/>
</mask>
<g mask="url(#mask1_2040_136440)">
<g opacity="0.6">
<circle cx="48.2434" cy="72.3827" r="2.85267" transform="rotate(30 48.2434 72.3827)" fill="#D04A25"/>
<ellipse cx="47.9755" cy="71.9794" rx="2.85734" ry="2.85734" transform="rotate(30 47.9755 71.9794)" fill="#ED6C53"/>
<ellipse cx="47.9755" cy="71.9794" rx="2.85734" ry="2.85734" transform="rotate(30 47.9755 71.9794)" fill="#F3725A"/>
<ellipse cx="47.9755" cy="71.9794" rx="2.85734" ry="2.85734" transform="rotate(30 47.9755 71.9794)" fill="url(#paint14_linear_2040_136440)"/>
<ellipse cx="47.9716" cy="71.973" rx="2.63323" ry="2.63323" transform="rotate(30 47.9716 71.973)" fill="url(#paint15_linear_2040_136440)"/>
<path fill-rule="evenodd" clip-rule="evenodd" d="M46.8053 73.1553C46.9826 73.2577 47.2113 73.3298 47.4655 73.3647C47.4734 73.3658 47.4814 73.3668 47.4894 73.3676C47.4968 73.3684 47.5041 73.3691 47.5114 73.3697L47.5146 73.37L47.5152 73.3701C47.6145 73.3988 47.7218 73.4216 47.8338 73.4364C48.5518 73.5331 49.0169 73.2939 49.2142 73.0343C49.4548 72.7163 49.426 72.2627 49.2939 71.8586C49.2512 71.6315 49.1663 71.4054 49.0649 71.2101C48.9368 70.9624 48.7801 70.7529 48.6207 70.606C48.4618 70.4597 48.2978 70.3733 48.1554 70.3771C48.0188 70.3805 47.8767 70.455 47.7241 70.601C47.599 70.6446 47.468 70.7442 47.3274 70.901C47.1853 71.0593 47.0325 71.277 46.8652 71.5574C46.6905 71.8508 46.5711 72.1045 46.5082 72.3171C46.4455 72.5293 46.4384 72.7027 46.4912 72.8339C46.5394 72.9539 46.6489 73.065 46.8053 73.1553ZM47.7635 73.1663C47.999 73.1979 48.2076 73.1934 48.3889 73.164C48.1771 73.253 47.8927 73.3009 47.5358 73.2615C47.4636 73.24 47.3964 73.2152 47.335 73.1875C47.2709 73.1586 47.2131 73.1265 47.1628 73.0919C47.0642 73.024 46.9953 72.9472 46.9625 72.8662L46.9588 72.8563C47.0009 72.8917 47.0491 72.9256 47.1033 72.9569C47.2806 73.0592 47.5093 73.1314 47.7635 73.1663ZM48.7559 72.8944C48.7476 72.9059 48.7385 72.9171 48.7285 72.9285C48.7194 72.9389 48.7095 72.9494 48.699 72.9601C48.476 73.0571 48.1687 73.1085 47.7781 73.0563C47.5778 73.0294 47.3981 72.9784 47.2524 72.9108C47.1089 72.8442 46.9996 72.7622 46.9358 72.6724C46.9463 72.4405 47.0768 72.1108 47.33 71.6866C47.4898 71.419 47.6357 71.2106 47.7691 71.0595C47.8996 70.9117 48.0171 70.8199 48.1228 70.7803C48.3089 70.9065 48.5093 71.1491 48.6685 71.4575C48.7843 71.6815 48.8779 71.9468 48.9064 72.2034C48.935 72.4601 48.8983 72.7063 48.7559 72.8944ZM48.7675 71.4077C48.6267 71.1356 48.4513 70.9093 48.2757 70.7617C48.3027 70.7655 48.3313 70.7733 48.3614 70.7851C48.3871 70.7951 48.414 70.8082 48.4417 70.8242C48.646 70.9421 48.8688 71.206 49.0375 71.5321C49.0951 71.6427 49.1466 71.7639 49.1875 71.8895C49.2421 72.1852 49.2182 72.4798 49.0548 72.6965C49.0219 72.74 48.9803 72.7831 48.9299 72.8234C49.0258 72.6246 49.0432 72.3907 49.0119 72.1553C48.9773 71.8947 48.883 71.6309 48.7675 71.4077ZM47.7848 70.6976C47.811 70.6903 47.8372 70.6862 47.8622 70.6857C47.8833 70.6851 47.9052 70.6871 47.9279 70.6917C47.9515 70.6965 47.9761 70.7042 48.0015 70.7146C47.8931 70.7743 47.7797 70.8742 47.6591 71.0156C47.5277 71.1696 47.387 71.3734 47.2343 71.6296C47.0473 71.9428 46.924 72.211 46.8654 72.4323C46.8652 72.334 46.8885 72.2159 46.936 72.0782C47.0003 71.8916 47.1083 71.6703 47.2602 71.4155C47.4544 71.0893 47.6285 70.851 47.7848 70.6976ZM48.372 70.5532C48.5177 70.6373 48.6735 70.7966 48.8121 71.0003C48.7425 70.9213 48.671 70.8535 48.5999 70.7991C48.4709 70.7003 48.3416 70.6442 48.2265 70.6478C48.1958 70.6486 48.1663 70.6532 48.1355 70.661C48.0636 70.6183 47.9926 70.5904 47.9253 70.5799C48.0108 70.5198 48.0895 70.4904 48.1606 70.4887C48.2224 70.4865 48.2932 70.5077 48.372 70.5532ZM46.8136 72.6833L46.8166 72.6889C46.8193 72.6938 46.8221 72.6988 46.825 72.7037C46.8248 72.779 46.8364 72.8465 46.8603 72.9061C46.8959 72.9952 46.9655 73.0789 47.0626 73.1533C46.9588 73.1151 46.8682 73.0694 46.794 73.0182C46.6958 72.9505 46.6273 72.8738 46.5947 72.7934C46.551 72.6838 46.5579 72.5306 46.6192 72.3326C46.6802 72.135 46.7946 71.8951 46.9623 71.6139C47.1263 71.3388 47.2757 71.1266 47.4121 70.9747C47.3328 71.0864 47.2503 71.2141 47.1646 71.3586C46.9894 71.6517 46.87 71.9054 46.8072 72.1181C46.7446 72.3304 46.7377 72.5039 46.7905 72.6351L46.7907 72.6354C46.796 72.6478 46.8017 72.6601 46.8079 72.6724L46.8136 72.6833ZM49.1431 72.7637C49.2078 72.6778 49.253 72.5821 49.282 72.4804C49.2753 72.6616 49.2277 72.8303 49.1236 72.967C48.9784 73.1586 48.6587 73.3422 48.1675 73.3473C48.4339 73.291 48.6338 73.179 48.7643 73.0524C48.9356 72.9748 49.0619 72.8707 49.1431 72.7637Z" fill="white"/>
</g>
<g opacity="0.8">
<circle cx="11.5441" cy="52.862" r="4.16514" transform="rotate(30 11.5441 52.862)" fill="#D04A25"/>
<ellipse cx="11.152" cy="52.2737" rx="4.17196" ry="4.17196" transform="rotate(30 11.152 52.2737)" fill="#ED6C53"/>
<ellipse cx="11.152" cy="52.2737" rx="4.17196" ry="4.17196" transform="rotate(30 11.152 52.2737)" fill="#F3725A"/>
<ellipse cx="11.152" cy="52.2737" rx="4.17196" ry="4.17196" transform="rotate(30 11.152 52.2737)" fill="url(#paint16_linear_2040_136440)"/>
<ellipse cx="11.1495" cy="52.2642" rx="3.84474" ry="3.84474" transform="rotate(30 11.1495 52.2642)" fill="url(#paint17_linear_2040_136440)"/>
<path fill-rule="evenodd" clip-rule="evenodd" d="M9.44217 53.9907C9.70104 54.1401 10.0349 54.2455 10.4061 54.2964C10.4176 54.298 10.4293 54.2994 10.441 54.3006C10.4518 54.3018 10.4625 54.3028 10.4731 54.3037L10.4778 54.3042L10.4786 54.3042C10.6236 54.3462 10.7804 54.3795 10.9438 54.4011C11.9922 54.5423 12.6713 54.193 12.9594 53.814C13.3107 53.3497 13.2686 52.6873 13.0757 52.0973C13.0133 51.7658 12.8894 51.4356 12.7414 51.1505C12.5543 50.7889 12.3255 50.483 12.0927 50.2685C11.8608 50.0548 11.6214 49.9287 11.4134 49.9343C11.2139 49.9393 11.0065 50.048 10.7836 50.2611C10.6011 50.3248 10.4098 50.4702 10.2044 50.6991C9.997 50.9303 9.77384 51.2482 9.52967 51.6576C9.27448 52.0859 9.10019 52.4564 9.0084 52.7668C8.91676 53.0767 8.90641 53.3298 8.9835 53.5213C9.05389 53.6966 9.21385 53.8588 9.44217 53.9907ZM10.8412 54.0066C11.1851 54.0528 11.4896 54.0463 11.7544 54.0034C11.4451 54.1333 11.0298 54.2033 10.5087 54.1457C10.4034 54.1144 10.3052 54.0781 10.2156 54.0377C10.1219 53.9955 10.0376 53.9486 9.96419 53.8981C9.82011 53.799 9.71951 53.6868 9.6716 53.5685L9.66629 53.5541C9.72775 53.6058 9.79805 53.6553 9.87719 53.701C10.1361 53.8504 10.4701 53.9558 10.8412 54.0066ZM12.2902 53.6097C12.2781 53.6264 12.2647 53.6429 12.2502 53.6595C12.2369 53.6747 12.2225 53.6901 12.2072 53.7057C11.8815 53.8472 11.4328 53.9223 10.8626 53.8462C10.5701 53.8069 10.3076 53.7323 10.095 53.6337C9.88546 53.5365 9.72584 53.4166 9.63264 53.2856C9.64809 52.947 9.83852 52.4657 10.2082 51.8462C10.4416 51.4555 10.6546 51.1513 10.8493 50.9306C11.0399 50.7147 11.2115 50.5807 11.3659 50.523C11.6375 50.7072 11.9301 51.0614 12.1626 51.5118C12.3316 51.8387 12.4683 52.2261 12.5099 52.6007C12.5516 52.9756 12.4981 53.3351 12.2902 53.6097ZM12.3072 51.439C12.1015 51.0417 11.8455 50.7113 11.589 50.4958C11.6285 50.5014 11.6703 50.5127 11.7142 50.5299C11.7518 50.5446 11.7909 50.5636 11.8315 50.587C12.1297 50.7592 12.455 51.1446 12.7013 51.6206C12.7854 51.7822 12.8607 51.9591 12.9203 52.1424C13.0001 52.5742 12.9652 53.0044 12.7265 53.3208C12.6785 53.3843 12.6178 53.4472 12.5442 53.506C12.6843 53.2158 12.7097 52.8743 12.664 52.5306C12.6135 52.1501 12.4757 51.7648 12.3072 51.439ZM10.8723 50.4021C10.9106 50.3915 10.9488 50.3856 10.9853 50.3848C11.0161 50.3839 11.0481 50.3869 11.0812 50.3936C11.1157 50.4006 11.1516 50.4118 11.1886 50.427C11.0304 50.5141 10.8648 50.6601 10.6888 50.8664C10.4969 51.0913 10.2915 51.389 10.0685 51.7631C9.79545 52.2203 9.61544 52.6118 9.52985 52.9351C9.52965 52.7915 9.56365 52.6191 9.63295 52.4179C9.72683 52.1455 9.88461 51.8225 10.1064 51.4504C10.39 50.9742 10.6441 50.6262 10.8723 50.4021ZM11.7297 50.1913C11.9424 50.3141 12.1698 50.5467 12.3723 50.8442C12.2706 50.7289 12.1662 50.6299 12.0625 50.5504C11.8741 50.4061 11.6853 50.3242 11.5173 50.3295C11.4724 50.3307 11.4293 50.3374 11.3843 50.3488C11.2794 50.2865 11.1758 50.2456 11.0774 50.2304C11.2023 50.1425 11.3171 50.0997 11.421 50.0972C11.5112 50.094 11.6146 50.1249 11.7297 50.1913ZM9.45422 53.3014L9.45863 53.3096C9.46257 53.3168 9.46667 53.3241 9.47087 53.3313C9.47059 53.4412 9.48758 53.5398 9.52238 53.6268C9.57446 53.7569 9.67611 53.8791 9.81775 53.9877C9.66633 53.932 9.53398 53.8652 9.42569 53.7905C9.2823 53.6916 9.18231 53.5796 9.13471 53.4623C9.07084 53.3023 9.08097 53.0785 9.17037 52.7894C9.25954 52.5009 9.42656 52.1507 9.67138 51.7401C9.91085 51.3384 10.129 51.0286 10.3281 50.8068C10.2123 50.9699 10.0918 51.1564 9.96672 51.3673C9.71089 51.7953 9.5366 52.1657 9.44495 52.4762C9.3535 52.7863 9.3435 53.0396 9.42055 53.2311L9.42078 53.2316C9.42858 53.2497 9.43691 53.2677 9.44599 53.2856L9.45422 53.3014ZM12.8555 53.4188C12.95 53.2935 13.016 53.1538 13.0583 53.0052C13.0485 53.2698 12.979 53.5161 12.8271 53.7158C12.6151 53.9954 12.1482 54.2636 11.431 54.271C11.82 54.1887 12.1118 54.0253 12.3024 53.8404C12.5526 53.7271 12.7369 53.5751 12.8555 53.4188Z" fill="white"/>
</g>
<path d="M20.5844 44.309C19.6869 43.2401 19.972 41.6613 20.228 40.9198L25.4659 35.8539L34.325 35.1169L48.5769 41.8823L58.2907 54.7193L56.5481 61.6311C56.5481 61.6311 56.1361 62.3024 55.778 62.6488C55.5993 62.8216 55.2863 63.0533 55.2863 63.0533C54.8045 63.2915 54.5398 63.3624 53.3719 63.2389C52.204 63.1154 50.7802 62.2309 50.2242 61.8525C49.6406 62.118 48.0673 62.5177 46.1845 61.8438C44.3018 61.1698 42.8481 60.0029 42.379 59.4739C41.3097 59.4876 38.3465 59.125 35.0477 57.5647C31.749 56.0044 29.8493 53.0724 29.3217 51.8498C28.7953 51.718 27.3385 51.2721 25.6426 50.1553C23.9466 49.0384 23.394 47.1933 23.3297 46.4104C22.6198 46.0005 21.4818 45.3779 20.5844 44.309Z" fill="#A90D2D"/>
<path d="M20.225 40.9159C19.969 41.6574 19.6392 43.2104 20.5366 44.2793C21.3857 45.2905 22.45 45.9023 23.1635 46.3124C23.2024 46.3348 23.2403 46.3566 23.2771 46.3778C23.5789 45.8081 24.1615 44.9065 25.1798 43.6898C26.7337 41.8332 28.9582 40.0768 29.8762 39.4307L30.3061 38.3881L20.9672 40.1427L20.225 40.9159Z" fill="#A90D2D"/>
<path d="M50.9995 62.3966C50.6578 62.2159 50.3713 62.0403 50.1826 61.9118C49.599 62.1773 47.9612 62.5398 46.0784 61.8658C44.2258 61.2027 42.832 60.0045 42.3409 59.4623C43.3823 57.7605 44.4874 55.2196 45.203 53.574C45.5332 52.8149 45.7804 52.2463 45.9003 52.0386C46.2283 51.4706 47.3044 48.1161 47.8015 46.5099L53.6313 48.6054L56.219 52.0251L50.9995 62.3966Z" fill="#DE96CC"/>
<path d="M50.1778 44.0389L46.458 53.9085L42.9289 60.0212C42.6583 59.7896 42.4518 59.5854 42.3198 59.4365C41.2505 59.4503 38.2872 59.0876 34.9885 57.5274C31.6898 55.9671 29.8098 53.1319 29.2822 51.9093C29.0751 51.8575 28.7209 51.742 28.2642 51.553L38.9499 37.3031L48.5177 41.845L50.1778 44.0389Z" fill="#A90D2D"/>
<path d="M23.0983 46.2756L23.3749 45.1441L32.2988 36.097C34.119 37.6642 37.6036 40.9497 36.9797 41.5533C36.1998 42.3079 33.9321 45.0432 31.9698 47.6968C30.3999 49.8196 29.5222 51.3897 29.2795 51.9093C28.7532 51.7776 27.2765 51.2349 25.5806 50.118C23.8847 49.0012 23.3321 47.1561 23.2678 46.3731C23.2295 46.351 23.1899 46.3283 23.1492 46.3049C23.1324 46.2952 23.1155 46.2855 23.0983 46.2756Z" fill="#DE96CC"/>
<path d="M29.2007 44.7382C30.1009 43.5368 31.3591 42.3413 31.8757 41.8937C32.7301 41.0101 32.9013 41.4531 33.7428 41.939C34.5173 42.3862 33.8765 43.0489 31.7851 45.6279C30.45 47.2744 29.2638 49.2496 28.9012 49.7287C28.5385 50.2077 28.0295 50.3441 27.255 49.897C26.4805 49.4498 26.3068 49.0053 26.7167 48.2954C27.1266 47.5854 28.0755 46.24 29.2007 44.7382Z" fill="#EFACE0"/>
<path d="M50.5748 57.0775C51.1652 55.6972 51.5714 54.0098 51.7008 53.3387C52.0388 52.1569 51.5695 52.2302 50.728 51.7444C49.9535 51.2972 49.6999 52.1835 48.5121 55.2842C47.7538 57.2637 46.6363 59.2785 46.4027 59.8321C46.1692 60.3857 46.3056 60.8948 47.0801 61.3419C47.8546 61.7891 48.3264 61.7172 48.7363 61.0073C49.1462 60.2973 49.8369 58.8029 50.5748 57.0775Z" fill="#EFACE0"/>
<path d="M38.3584 54.0697C39.2368 52.7869 40.9354 49.7057 41.6749 48.3255C43.0398 45.8434 42.8727 45.0584 44.5108 46.6926C45.6823 47.8614 45.64 48.4633 45.1256 49.8014C44.6112 51.1395 41.8437 56.082 41.0985 57.3728C40.3532 58.6637 39.0251 57.9829 37.4288 57.3195C35.8325 56.6561 37.2605 55.6733 38.3584 54.0697Z" fill="#C7243F"/>
<path fill-rule="evenodd" clip-rule="evenodd" d="M27.286 69.5312L35.8364 40.5615L36.4082 40.7302L27.8579 69.7L27.286 69.5312Z" fill="#FFE5E0"/>
<path fill-rule="evenodd" clip-rule="evenodd" d="M28.1078 69.1535L48.8367 47.5592L49.2668 47.9721L28.5379 69.5664L28.1078 69.1535Z" fill="#FFE5E0"/>
<path fill-rule="evenodd" clip-rule="evenodd" d="M28.5738 69.3187L54.6283 55.7905L54.9031 56.3197L28.8485 69.8479L28.5738 69.3187Z" fill="#FFE5E0"/>
<path d="M56.7733 60.6726L27.8339 69.1831L28.0021 69.7551L56.5295 61.3657L56.7733 60.6726Z" fill="#FFE5E0"/>
<path fill-rule="evenodd" clip-rule="evenodd" d="M20.3445 41.2125L27.3466 69.7241L27.9257 69.5819L20.8048 40.5868L20.4824 41.0251L20.3445 41.2125Z" fill="#FFE5E0"/>
<path fill-rule="evenodd" clip-rule="evenodd" d="M26.9556 69.4425L25.6641 39.7818L26.2597 39.7558L27.5512 69.4165L26.9556 69.4425Z" fill="#FFE5E0"/>
<path d="M35.4644 41.5812L43.4567 31.3696L44.1199 31.3067C46.7662 32.183 48.7748 33.4414 50.0254 34.3014C51.0189 34.9845 51.5228 35.3075 51.9818 35.685C52.5654 36.1649 53.0766 36.7329 54.4291 38.2409L51.0844 45.5839L48.8798 49.4024C48.5234 49.1717 48.2125 48.9866 47.9823 48.8702L47.5605 48.1103C47.551 48.0941 47.5409 48.0769 47.5302 48.0587C47.1669 47.4391 46.111 45.6383 42.976 43.8284C39.9139 42.0604 36.9864 41.6324 35.7838 41.8274C35.7048 41.7653 35.5974 41.6811 35.4644 41.5812Z" fill="#FF5D6A"/>
<path d="M49.6836 34.0688C49.8033 34.1489 49.9175 34.2264 50.0259 34.301C51.0194 34.9842 51.5232 35.3071 51.9823 35.6846C52.6049 36.1966 53.145 36.8088 54.7122 38.5556C57.0848 41.2004 58.5373 43.9673 59.1745 48.056L54.7345 57.746C54.2335 57.3042 53.7601 57.0067 53.512 56.8813C53.5355 56.7843 53.5612 56.6851 53.5875 56.5837C53.9093 55.3429 54.3196 53.7607 51.8254 51.6047C50.5552 50.5067 48.7821 49.274 47.9828 48.8698L47.9661 48.8397C51.0339 42.1506 51.0511 41.7021 51.1016 40.3789C51.1094 40.1745 51.1181 39.9492 51.1388 39.6768C51.1672 37.1491 50.3599 35.0938 49.6836 34.0688Z" fill="#FFE3E1"/>
<path d="M54.582 38.4111C54.6245 38.4585 54.6678 38.5068 54.7119 38.5559C57.4346 41.5909 58.9457 44.7868 59.4034 49.9563C59.7695 54.0918 57.6416 59.4667 56.5319 61.6372C56.5437 61.0703 56.3816 59.6916 55.639 58.7121C54.8964 57.7326 53.9115 57.0836 53.5118 56.8816C53.5145 56.8703 53.5173 56.8589 53.5201 56.8476C53.6011 56.6966 53.6914 56.5262 53.7872 56.3455C54.0557 55.8388 54.3675 55.2504 54.6396 54.779C55.534 53.23 57.5004 45.5015 55.9275 41.6674C55.3072 40.1555 54.8732 39.108 54.582 38.4111Z" fill="#FF5E6A"/>
<path d="M35.785 41.827C35.2322 41.3931 33.2977 39.8747 30.8498 39.4941C27.8922 39.0342 26.45 40.1092 25.8886 40.9325C25.8035 40.8311 25.5877 40.6697 25.2104 40.4988L32.0565 31.2368C33.979 30.6079 36.1301 30.2328 38.4801 30.3025C42.288 30.4155 45.3864 31.6206 47.6053 32.8142C45.2293 32.7306 43.8095 33.5848 41.8804 34.7454C41.7799 34.8058 41.6781 34.8671 41.5747 34.9291C39.6005 36.1128 36.9335 39.9371 35.785 41.827Z" fill="#FFE3DE"/>
<path fill-rule="evenodd" clip-rule="evenodd" d="M30.7738 39.4458C31.1517 38.8723 31.7327 38.1207 32.5634 37.285C34.4112 35.4259 37.168 32.8869 40.1949 31.9667C41.9729 31.4262 43.4356 31.3192 44.3312 31.3503C42.6274 30.7609 40.6487 30.3239 38.429 30.2581C36.079 30.1884 33.928 30.5634 32.0054 31.1923L25.1594 40.4544C25.5366 40.6253 25.7524 40.7867 25.8376 40.8881C26.3974 40.0671 27.833 38.9958 30.7738 39.4458Z" fill="#FFF1E3"/>
<path d="M25.8888 40.9325C25.7018 40.7098 24.8844 40.1977 23.1107 39.931C21.4599 39.6827 20.5253 40.4493 20.2008 40.9483C21.0606 39.5009 23.3356 36.4373 25.6301 34.6731C28.5705 32.4121 32.9807 30.1393 38.4802 30.3025C39.8057 30.3418 41.0452 30.5134 42.1915 30.7709C40.2146 30.792 37.0811 31.101 33.6228 33.3499C30.0446 35.6766 26.7186 39.3461 25.8888 40.9325Z" fill="#FF9C82"/>
<path fill-rule="evenodd" clip-rule="evenodd" d="M40.8261 42.7812C39.6734 42.3178 38.6016 42.0381 37.7098 41.8975C38.7316 40.483 40.206 38.616 41.6842 36.9729C43.3431 35.1289 45.1321 34.3653 45.838 34.064C45.8477 34.0598 45.8571 34.0558 45.8663 34.0519C46.5517 33.7591 46.8571 33.6773 47.1053 33.9927C47.2413 34.1656 46.6057 34.824 45.8763 35.5795C45.2752 36.2022 44.6103 36.8908 44.2613 37.428C44.1442 37.6083 44.0215 37.7838 43.8713 37.9987C43.3877 38.6904 42.6192 39.7897 40.8357 42.7651C40.8325 42.7705 40.8293 42.7758 40.8261 42.7812Z" fill="#FF937A"/>
<path fill-rule="evenodd" clip-rule="evenodd" d="M49.2227 33.7656C49.2861 33.9897 49.3204 34.2349 49.3102 34.4996C49.3008 34.7428 49.2953 34.9824 49.2899 35.2214C49.2592 36.5608 49.229 37.8833 48.5183 39.7465C47.783 41.6745 47.1772 42.9002 46.3384 44.5971C46.1497 44.9789 45.9493 45.3845 45.7328 45.8273C46.8179 46.8384 47.3083 47.6748 47.5333 48.0585L47.5635 48.11L47.9854 48.8699C48.2155 48.9863 48.5265 49.1714 48.8829 49.4022L50.2819 46.979L52.7998 40.2307L50.4218 34.5705C50.2997 34.4871 50.169 34.3977 50.0285 34.3011C49.7877 34.1355 49.5188 33.9552 49.2227 33.7656Z" fill="#EC1E3E"/>
<path fill-rule="evenodd" clip-rule="evenodd" d="M50.4751 34.6085C51.5617 35.978 52.7603 37.8904 52.869 39.2133C53.0619 41.5621 53.1703 44.2064 50.6856 50.0006C50.6082 50.1811 50.5284 50.3475 50.4465 50.5006C49.4842 49.7788 48.5165 49.1396 47.9828 48.8698L47.9661 48.8397C51.0339 42.1506 51.0511 41.7021 51.1016 40.3789C51.1094 40.1745 51.1181 39.9492 51.1388 39.6768C51.1672 37.1491 50.3599 35.0938 49.6836 34.0688C49.8033 34.1489 49.9175 34.2264 50.0259 34.301C50.188 34.4125 50.3371 34.5144 50.4751 34.6085Z" fill="#FAD1DC"/>
<path fill-rule="evenodd" clip-rule="evenodd" d="M54.6478 38.5004C56.0514 40.8688 57.7895 44.8833 57.6043 48.7468C57.3721 53.5909 56.4176 56.3652 55.1903 58.1985C54.5239 57.4782 53.7858 57.0004 53.4532 56.8323L53.4615 56.7983C53.5425 56.6473 53.6328 56.4769 53.7286 56.2962C53.9971 55.7895 54.3089 55.201 54.581 54.7297C55.4754 53.1807 57.4418 45.4522 55.8689 41.6181C55.2486 40.1062 54.8146 39.0587 54.5234 38.3618L54.6478 38.5004Z" fill="#EC1F3C"/>
<path fill-rule="evenodd" clip-rule="evenodd" d="M41.9935 30.7271C41.9497 30.7251 41.9043 30.7229 41.8574 30.7207C40.7636 30.6682 38.8507 30.5765 36.675 30.8952C32.6327 31.4873 28.9796 33.9392 26.2701 36.2474C24.3071 37.9197 23.335 39.2936 23.0139 39.9173C23.0465 39.9215 23.0794 39.9261 23.1126 39.931C24.8862 40.1978 25.7036 40.7098 25.8906 40.9325C26.7204 39.3462 30.0464 35.6767 33.6246 33.3499C37.083 31.1011 40.2165 30.7921 42.1934 30.7709C42.1271 30.7561 42.0604 30.7415 41.9935 30.7271Z" fill="#FF5E6A"/>
<ellipse cx="25.5318" cy="74.4457" rx="8.30446" ry="8.30446" transform="rotate(30 25.5318 74.4457)" fill="#D04A25"/>
<ellipse cx="24.7517" cy="73.2723" rx="8.31805" ry="8.31805" transform="rotate(30 24.7517 73.2723)" fill="#ED6C53"/>
<ellipse cx="24.7517" cy="73.2723" rx="8.31805" ry="8.31805" transform="rotate(30 24.7517 73.2723)" fill="#F3725A"/>
<ellipse cx="24.7517" cy="73.2723" rx="8.31805" ry="8.31805" transform="rotate(30 24.7517 73.2723)" fill="url(#paint18_linear_2040_136440)"/>
<ellipse cx="24.7472" cy="73.2537" rx="7.66566" ry="7.66566" transform="rotate(30 24.7472 73.2537)" fill="url(#paint19_linear_2040_136440)"/>
<path fill-rule="evenodd" clip-rule="evenodd" d="M21.338 76.6955C21.8542 76.9935 22.5198 77.2035 23.2598 77.305C23.2829 77.3083 23.3062 77.311 23.3295 77.3135C23.3509 77.3158 23.3724 77.3178 23.3935 77.3196L23.4029 77.3206L23.4045 77.3207C23.6935 77.4043 24.0061 77.4707 24.3319 77.5138C26.4223 77.7952 27.7763 77.099 28.3506 76.3433C29.0511 75.4175 28.9672 74.0969 28.5826 72.9206C28.4582 72.2596 28.2111 71.6012 27.916 71.0328C27.543 70.3117 27.0867 69.7018 26.6227 69.2742C26.1603 68.8481 25.6829 68.5967 25.2683 68.6079C24.8705 68.6178 24.4569 68.8346 24.0126 69.2595C23.6486 69.3865 23.2673 69.6764 22.8578 70.1328C22.4442 70.5937 21.9993 71.2276 21.5125 72.0438C21.0037 72.8978 20.6562 73.6364 20.4732 74.2553C20.2905 74.8732 20.2698 75.3778 20.4235 75.7597C20.5639 76.1092 20.8828 76.4326 21.338 76.6955ZM24.1275 76.7273C24.813 76.8193 25.4201 76.8063 25.9481 76.7208C25.3315 76.98 24.5035 77.1194 23.4645 77.0046C23.2544 76.9422 23.0587 76.8699 22.8801 76.7893C22.6932 76.705 22.5251 76.6116 22.3788 76.511C22.0916 76.3134 21.891 76.0896 21.7955 75.8537L21.7849 75.8251C21.9074 75.9282 22.0476 76.0268 22.2054 76.1179C22.7215 76.4159 23.3874 76.6259 24.1275 76.7273ZM27.0165 75.9359C26.9922 75.9693 26.9656 76.0021 26.9368 76.0351C26.9101 76.0656 26.8814 76.0961 26.8509 76.1273C26.2016 76.4095 25.307 76.5593 24.17 76.4074C23.5868 76.3291 23.0636 76.1804 22.6397 75.9838C22.2218 75.79 21.9036 75.551 21.7178 75.2897C21.7486 74.6147 22.1283 73.6549 22.8654 72.4198C23.3306 71.641 23.7553 71.0343 24.1436 70.5944C24.5236 70.164 24.8656 69.8968 25.1735 69.7816C25.7151 70.1489 26.2985 70.8552 26.762 71.753C27.0991 72.4049 27.3714 73.1773 27.4545 73.9242C27.5377 74.6716 27.431 75.3885 27.0165 75.9359ZM27.0502 71.6079C26.6402 70.8159 26.1298 70.157 25.6184 69.7274C25.6972 69.7386 25.7805 69.7612 25.8679 69.7954C25.9429 69.8247 26.021 69.8627 26.1018 69.9093C26.6965 70.2527 27.345 71.0209 27.8361 71.9701C28.0039 72.2922 28.1539 72.645 28.2727 73.0104C28.4317 73.8713 28.3623 74.7291 27.8864 75.3599C27.7907 75.4865 27.6697 75.612 27.5229 75.7292C27.8021 75.1505 27.8527 74.4697 27.7617 73.7843C27.661 73.0257 27.3863 72.2576 27.0502 71.6079ZM24.1894 69.5407C24.2657 69.5194 24.3419 69.5077 24.4147 69.5062C24.4761 69.5044 24.5399 69.5102 24.6059 69.5237C24.6748 69.5377 24.7463 69.5599 24.8201 69.5903C24.5046 69.764 24.1745 70.055 23.8236 70.4664C23.441 70.9148 23.0314 71.5083 22.5869 72.2541C22.0424 73.1658 21.6835 73.9464 21.5128 74.5908C21.5124 74.3045 21.5802 73.9608 21.7184 73.5598C21.9056 73.0166 22.2202 72.3725 22.6623 71.6307C23.2277 70.6812 23.7345 69.9874 24.1894 69.5407ZM25.8988 69.1203C26.323 69.3652 26.7764 69.8289 27.18 70.422C26.9773 70.1921 26.7692 69.9948 26.5624 69.8363C26.1869 69.5485 25.8104 69.3853 25.4754 69.3959C25.3858 69.3981 25.3 69.4116 25.2103 69.4342C25.0011 69.31 24.7945 69.2286 24.5983 69.1983C24.8473 69.0231 25.0763 68.9377 25.2834 68.9327C25.4632 68.9263 25.6694 68.9879 25.8988 69.1203ZM21.362 75.3213L21.3708 75.3377C21.3787 75.352 21.3869 75.3665 21.3952 75.3809C21.3947 75.5999 21.4286 75.7966 21.498 75.97C21.6018 76.2295 21.8045 76.473 22.0869 76.6896C21.7849 76.5785 21.5211 76.4453 21.3052 76.2964C21.0193 76.0992 20.8199 75.876 20.725 75.642C20.5977 75.323 20.6179 74.8769 20.7961 74.3004C20.9739 73.7251 21.3069 73.027 21.795 72.2083C22.2725 71.4074 22.7074 70.7897 23.1045 70.3475C22.8735 70.6726 22.6333 71.0445 22.3839 71.4651C21.8738 72.3183 21.5263 73.057 21.3436 73.676C21.1612 74.2942 21.1413 74.7992 21.2949 75.181L21.2954 75.1821C21.3109 75.2181 21.3275 75.2539 21.3456 75.2897L21.362 75.3213ZM28.1435 75.5553C28.3319 75.3055 28.4636 75.0269 28.5478 74.7307C28.5284 75.2582 28.3898 75.7493 28.0869 76.1474C27.6642 76.7049 26.7334 77.2397 25.3034 77.2545C26.0789 77.0904 26.6608 76.7646 27.0407 76.3958C27.5395 76.17 27.9071 75.867 28.1435 75.5553Z" fill="white"/>
</g>
<mask id="mask2_2040_136440" style="mask-type:alpha" maskUnits="userSpaceOnUse" x="299" y="42" width="64" height="64">
<rect width="64" height="64" rx="24" transform="matrix(-1 0 0 1 363 42)" fill="#C4C4C4"/>
</mask>
<g mask="url(#mask2_2040_136440)">
<g opacity="0.6">
<ellipse rx="2.6611" ry="2.6611" transform="matrix(-0.866025 0.5 0.5 0.866025 320.503 86.0951)" fill="#D04A25"/>
<ellipse rx="2.66546" ry="2.66546" transform="matrix(-0.866025 0.5 0.5 0.866025 320.751 85.7192)" fill="#ED6C53"/>
<ellipse rx="2.66546" ry="2.66546" transform="matrix(-0.866025 0.5 0.5 0.866025 320.751 85.7192)" fill="#F3725A"/>
<ellipse rx="2.66546" ry="2.66546" transform="matrix(-0.866025 0.5 0.5 0.866025 320.751 85.7192)" fill="url(#paint20_linear_2040_136440)"/>
<ellipse rx="2.4564" ry="2.4564" transform="matrix(-0.866025 0.5 0.5 0.866025 320.753 85.7134)" fill="url(#paint21_linear_2040_136440)"/>
<path fill-rule="evenodd" clip-rule="evenodd" d="M321.843 86.8164C321.678 86.9119 321.465 86.9792 321.228 87.0117C321.22 87.0128 321.213 87.0137 321.205 87.0145C321.198 87.0152 321.192 87.0158 321.185 87.0164L321.182 87.0167L321.181 87.0168C321.089 87.0436 320.989 87.0648 320.884 87.0787C320.214 87.1688 319.78 86.9457 319.596 86.7036C319.372 86.4069 319.399 85.9837 319.522 85.6068C319.562 85.395 319.641 85.184 319.736 85.0019C319.855 84.7708 320.001 84.5754 320.15 84.4383C320.298 84.3018 320.451 84.2212 320.584 84.2248C320.712 84.228 320.844 84.2975 320.986 84.4336C321.103 84.4743 321.225 84.5672 321.356 84.7135C321.489 84.8611 321.632 85.0643 321.788 85.3258C321.951 85.5995 322.062 85.8362 322.121 86.0345C322.179 86.2325 322.186 86.3942 322.137 86.5166C322.092 86.6286 321.989 86.7322 321.843 86.8164ZM320.95 86.8266C320.73 86.8561 320.535 86.852 320.366 86.8245C320.564 86.9076 320.829 86.9523 321.162 86.9155C321.229 86.8955 321.292 86.8723 321.349 86.8465C321.409 86.8195 321.463 86.7896 321.51 86.7573C321.602 86.694 321.666 86.6223 321.697 86.5467L321.7 86.5375C321.661 86.5706 321.616 86.6021 321.566 86.6313C321.4 86.7268 321.187 86.7941 320.95 86.8266ZM320.024 86.573C320.032 86.5837 320.04 86.5942 320.049 86.6048C320.058 86.6146 320.067 86.6244 320.077 86.6344C320.285 86.7248 320.572 86.7728 320.936 86.7241C321.123 86.699 321.291 86.6514 321.426 86.5884C321.56 86.5263 321.662 86.4497 321.722 86.3659C321.712 86.1497 321.59 85.8421 321.354 85.4463C321.205 85.1967 321.069 85.0023 320.944 84.8614C320.823 84.7234 320.713 84.6378 320.614 84.6009C320.441 84.7186 320.254 84.9449 320.105 85.2327C319.997 85.4416 319.91 85.6891 319.884 85.9284C319.857 86.1679 319.891 86.3976 320.024 86.573ZM320.013 85.1862C320.144 84.9324 320.308 84.7212 320.472 84.5835C320.447 84.5871 320.42 84.5944 320.392 84.6054C320.368 84.6148 320.343 84.6269 320.317 84.6419C320.126 84.7519 319.919 84.9981 319.761 85.3022C319.707 85.4054 319.659 85.5185 319.621 85.6356C319.57 85.9114 319.593 86.1863 319.745 86.3884C319.776 86.429 319.815 86.4692 319.862 86.5068C319.772 86.3214 319.756 86.1032 319.785 85.8836C319.817 85.6405 319.905 85.3943 320.013 85.1862ZM320.93 84.5237C320.905 84.5169 320.881 84.5132 320.858 84.5127C320.838 84.5121 320.817 84.514 320.796 84.5183C320.774 84.5228 320.751 84.5299 320.728 84.5396C320.829 84.5953 320.935 84.6885 321.047 84.8204C321.17 84.964 321.301 85.1542 321.443 85.3932C321.618 85.6854 321.733 85.9355 321.787 86.142C321.788 86.0503 321.766 85.9401 321.722 85.8116C321.662 85.6376 321.561 85.4312 321.419 85.1935C321.238 84.8892 321.076 84.6669 320.93 84.5237ZM320.382 84.389C320.246 84.4675 320.101 84.6161 319.971 84.8061C320.036 84.7325 320.103 84.6692 320.169 84.6184C320.29 84.5262 320.41 84.4739 320.518 84.4773C320.546 84.4781 320.574 84.4824 320.603 84.4896C320.67 84.4498 320.736 84.4237 320.799 84.414C320.719 84.3579 320.646 84.3305 320.579 84.3289C320.522 84.3269 320.456 84.3466 320.382 84.389ZM321.836 86.3761L321.833 86.3813C321.83 86.3859 321.828 86.3906 321.825 86.3952C321.825 86.4653 321.814 86.5284 321.792 86.584C321.759 86.6671 321.694 86.7451 321.604 86.8145C321.7 86.7789 321.785 86.7363 321.854 86.6885C321.946 86.6253 322.01 86.5538 322.04 86.4789C322.081 86.3766 322.074 86.2337 322.017 86.0489C321.96 85.8646 321.853 85.6409 321.697 85.3786C321.544 85.1219 321.405 84.924 321.277 84.7823C321.351 84.8864 321.428 85.0056 321.508 85.1404C321.672 85.4138 321.783 85.6505 321.842 85.8489C321.9 86.0469 321.907 86.2088 321.857 86.3311L321.857 86.3315C321.852 86.343 321.847 86.3545 321.841 86.366L321.836 86.3761ZM319.663 86.4511C319.602 86.371 319.56 86.2817 319.533 86.1868C319.539 86.3559 319.584 86.5132 319.681 86.6408C319.816 86.8195 320.115 86.9908 320.573 86.9956C320.324 86.943 320.138 86.8386 320.016 86.7204C319.856 86.648 319.738 86.5509 319.663 86.4511Z" fill="white"/>
</g>
<g opacity="0.8">
<circle r="3.88544" transform="matrix(-0.866025 0.5 0.5 0.866025 354.738 67.8857)" fill="#D04A25"/>
<ellipse rx="3.8918" ry="3.8918" transform="matrix(-0.866025 0.5 0.5 0.866025 355.103 67.3368)" fill="#ED6C53"/>
<ellipse rx="3.8918" ry="3.8918" transform="matrix(-0.866025 0.5 0.5 0.866025 355.103 67.3368)" fill="#F3725A"/>
<ellipse rx="3.8918" ry="3.8918" transform="matrix(-0.866025 0.5 0.5 0.866025 355.103 67.3368)" fill="url(#paint22_linear_2040_136440)"/>
<ellipse rx="3.58656" ry="3.58656" transform="matrix(-0.866025 0.5 0.5 0.866025 355.105 67.328)" fill="url(#paint23_linear_2040_136440)"/>
<path fill-rule="evenodd" clip-rule="evenodd" d="M356.701 68.9384C356.46 69.0778 356.149 69.1761 355.802 69.2236C355.792 69.2251 355.781 69.2264 355.77 69.2275C355.76 69.2286 355.75 69.2296 355.74 69.2304L355.735 69.2309L355.735 69.2309C355.599 69.27 355.453 69.3011 355.301 69.3213C354.323 69.4529 353.689 69.1272 353.421 68.7736C353.093 68.3405 353.132 67.7226 353.312 67.1722C353.37 66.863 353.486 66.5549 353.624 66.289C353.798 65.9516 354.012 65.6662 354.229 65.4662C354.445 65.2668 354.669 65.1492 354.863 65.1544C355.049 65.1591 355.242 65.2605 355.45 65.4593C355.62 65.5187 355.799 65.6544 355.99 65.8679C356.184 66.0835 356.392 66.3801 356.62 66.762C356.858 67.1616 357.021 67.5071 357.106 67.7967C357.192 68.0858 357.201 68.3219 357.129 68.5006C357.064 68.6641 356.914 68.8154 356.701 68.9384ZM355.396 68.9533C355.076 68.9964 354.792 68.9903 354.545 68.9503C354.833 69.0715 355.22 69.1367 355.707 69.083C355.805 69.0538 355.896 69.02 355.98 68.9823C356.067 68.9429 356.146 68.8992 356.215 68.8521C356.349 68.7596 356.443 68.6549 356.487 68.5446L356.492 68.5312C356.435 68.5794 356.37 68.6255 356.296 68.6681C356.054 68.8076 355.743 68.9058 355.396 68.9533ZM354.045 68.583C354.056 68.5986 354.068 68.614 354.082 68.6294C354.094 68.6437 354.108 68.658 354.122 68.6726C354.426 68.8046 354.845 68.8747 355.376 68.8036C355.649 68.767 355.894 68.6974 356.092 68.6054C356.288 68.5147 356.437 68.4029 356.524 68.2807C356.509 67.9649 356.332 67.5158 355.987 66.9379C355.769 66.5735 355.571 66.2897 355.389 66.0839C355.211 65.8825 355.051 65.7575 354.907 65.7036C354.654 65.8754 354.381 66.2059 354.164 66.626C354.006 66.931 353.879 67.2923 353.84 67.6418C353.801 67.9915 353.851 68.3269 354.045 68.583ZM354.029 66.5581C354.221 66.1875 354.46 65.8792 354.699 65.6782C354.662 65.6835 354.623 65.694 354.582 65.71C354.547 65.7238 354.51 65.7415 354.473 65.7633C354.194 65.924 353.891 66.2834 353.661 66.7275C353.583 66.8782 353.513 67.0433 353.457 67.2143C353.383 67.617 353.415 68.0184 353.638 68.3135C353.682 68.3728 353.739 68.4315 353.808 68.4863C353.677 68.2156 353.653 67.897 353.696 67.5763C353.743 67.2214 353.872 66.862 354.029 66.5581ZM355.367 65.5909C355.332 65.5809 355.296 65.5754 355.262 65.5747C355.233 65.5739 355.203 65.5766 355.173 65.5829C355.14 65.5895 355.107 65.5999 355.072 65.6141C355.22 65.6953 355.374 65.8315 355.539 66.024C355.718 66.2338 355.909 66.5114 356.117 66.8604C356.372 67.287 356.54 67.6522 356.62 67.9537C356.62 67.8197 356.588 67.6589 356.524 67.4713C356.436 67.2171 356.289 66.9158 356.082 66.5687C355.817 66.1245 355.58 65.7999 355.367 65.5909ZM354.568 65.3942C354.369 65.5088 354.157 65.7257 353.968 66.0032C354.063 65.8957 354.16 65.8033 354.257 65.7292C354.433 65.5945 354.609 65.5181 354.766 65.5231C354.808 65.5242 354.848 65.5305 354.89 65.5411C354.988 65.483 355.084 65.4449 355.176 65.4307C355.06 65.3487 354.952 65.3088 354.856 65.3064C354.771 65.3034 354.675 65.3322 354.568 65.3942ZM356.69 68.2955L356.686 68.3031C356.682 68.3098 356.679 68.3166 356.675 68.3233C356.675 68.4258 356.659 68.5178 356.627 68.599C356.578 68.7204 356.483 68.8343 356.351 68.9356C356.492 68.8837 356.616 68.8214 356.717 68.7517C356.851 68.6594 356.944 68.555 356.988 68.4455C357.048 68.2962 357.038 68.0875 356.955 67.8178C356.872 67.5487 356.716 67.222 356.488 66.839C356.264 66.4643 356.061 66.1753 355.875 65.9684C355.983 66.1205 356.095 66.2945 356.212 66.4912C356.451 66.8905 356.613 67.236 356.699 67.5257C356.784 67.8149 356.794 68.0512 356.722 68.2298L356.721 68.2303C356.714 68.2472 356.706 68.2639 356.698 68.2807L356.69 68.2955ZM353.517 68.405C353.429 68.2881 353.368 68.1577 353.328 68.0192C353.337 68.2659 353.402 68.4957 353.544 68.682C353.742 68.9428 354.177 69.193 354.846 69.1999C354.483 69.1232 354.211 68.9707 354.033 68.7982C353.8 68.6926 353.628 68.5508 353.517 68.405Z" fill="white"/>
</g>
<path d="M346.296 59.9066C347.134 58.9095 346.868 57.4367 346.629 56.745L341.743 52.0193L333.478 51.3318L320.184 57.6429L311.122 69.6178L312.748 76.0655C312.748 76.0655 313.132 76.6917 313.466 77.0148C313.633 77.1761 313.925 77.3922 313.925 77.3922C314.374 77.6144 314.621 77.6806 315.711 77.5653C316.8 77.4501 318.128 76.625 318.647 76.272C319.191 76.5197 320.659 76.8926 322.415 76.2639C324.172 75.6352 325.528 74.5466 325.965 74.0531C326.963 74.0659 329.727 73.7276 332.804 72.2721C335.881 70.8166 337.654 68.0815 338.146 66.941C338.637 66.8181 339.996 66.4021 341.578 65.3603C343.16 64.3185 343.675 62.5973 343.735 61.8669C344.398 61.4845 345.459 60.9038 346.296 59.9066Z" fill="#A90D2D"/>
<path d="M346.634 56.7415C346.873 57.4332 347.18 58.8819 346.343 59.879C345.551 60.8224 344.558 61.3931 343.893 61.7757C343.856 61.7965 343.821 61.8169 343.787 61.8367C343.505 61.3052 342.962 60.4642 342.012 59.3292C340.562 57.5972 338.487 55.9588 337.631 55.3561L337.23 54.3835L345.941 56.0202L346.634 56.7415Z" fill="#A90D2D"/>
<path d="M317.924 76.78C318.243 76.6113 318.51 76.4475 318.686 76.3277C319.231 76.5754 320.759 76.9135 322.515 76.2848C324.243 75.6662 325.543 74.5485 326.002 74.0427C325.03 72.4551 323.999 70.0848 323.332 68.5498C323.024 67.8416 322.793 67.3112 322.681 67.1175C322.375 66.5877 321.371 63.4584 320.908 61.9601L315.469 63.9149L313.055 67.1049L317.924 76.78Z" fill="#DE96CC"/>
<path d="M318.691 59.6545L322.161 68.8614L325.453 74.5636C325.706 74.3476 325.898 74.1571 326.021 74.0182C327.019 74.031 329.783 73.6928 332.86 72.2372C335.937 70.7817 337.691 68.1369 338.183 66.9965C338.377 66.9481 338.707 66.8404 339.133 66.6641L329.165 53.3711L320.24 57.608L318.691 59.6545Z" fill="#A90D2D"/>
<path d="M343.951 61.7413L343.693 60.6858L335.368 52.2462C333.67 53.7082 330.419 56.773 331.001 57.3361C331.729 58.04 333.844 60.5917 335.675 63.0671C337.139 65.0473 337.958 66.512 338.185 66.9967C338.676 66.8738 340.053 66.3675 341.635 65.3257C343.217 64.2839 343.733 62.5627 343.793 61.8323C343.828 61.8116 343.865 61.7904 343.903 61.7686C343.919 61.7596 343.935 61.7505 343.951 61.7413Z" fill="#DE96CC"/>
<path d="M338.256 60.3072C337.416 59.1864 336.243 58.0712 335.761 57.6537C334.964 56.8294 334.804 57.2427 334.019 57.6959C333.296 58.1131 333.894 58.7313 335.845 61.1371C337.091 62.673 338.197 64.5156 338.535 64.9625C338.874 65.4094 339.349 65.5366 340.071 65.1195C340.794 64.7024 340.956 64.2877 340.573 63.6254C340.191 62.9631 339.306 61.7081 338.256 60.3072Z" fill="#EFACE0"/>
<path d="M318.319 71.8175C317.768 70.5299 317.389 68.9558 317.269 68.3297C316.953 67.2273 317.391 67.2957 318.176 66.8425C318.899 66.4253 319.135 67.2521 320.243 70.1446C320.951 71.9912 321.993 73.8707 322.211 74.3871C322.429 74.9035 322.302 75.3784 321.579 75.7955C320.857 76.2127 320.416 76.1456 320.034 75.4834C319.652 74.8211 319.007 73.427 318.319 71.8175Z" fill="#EFACE0"/>
<path d="M329.716 69.012C328.897 67.8153 327.312 64.9411 326.623 63.6535C325.349 61.3381 325.505 60.6058 323.977 62.1304C322.884 63.2206 322.924 63.7821 323.404 65.0303C323.883 66.2786 326.465 70.8892 327.16 72.0933C327.856 73.2975 329.094 72.6625 330.584 72.0436C332.073 71.4247 330.741 70.5079 329.716 69.012Z" fill="#C7243F"/>
<path fill-rule="evenodd" clip-rule="evenodd" d="M340.041 83.4361L332.065 56.4117L331.532 56.5692L339.508 83.5935L340.041 83.4361Z" fill="#FFE5E0"/>
<path fill-rule="evenodd" clip-rule="evenodd" d="M339.276 83.0833L319.939 62.9391L319.538 63.3243L338.874 83.4684L339.276 83.0833Z" fill="#FFE5E0"/>
<path fill-rule="evenodd" clip-rule="evenodd" d="M338.845 83.2377L314.541 70.6179L314.284 71.1115L338.589 83.7313L338.845 83.2377Z" fill="#FFE5E0"/>
<path d="M312.538 75.1722L339.534 83.1112L339.377 83.6448L312.766 75.8188L312.538 75.1722Z" fill="#FFE5E0"/>
<path fill-rule="evenodd" clip-rule="evenodd" d="M346.512 57.0475L339.988 83.6155L339.447 83.4828L346.083 56.4638L346.373 56.8577L346.512 57.0475Z" fill="#FFE5E0"/>
<path fill-rule="evenodd" clip-rule="evenodd" d="M340.355 83.3529L341.56 55.684L341.004 55.6598L339.799 83.3287L340.355 83.3529Z" fill="#FFE5E0"/>
<path d="M332.412 57.3632L324.957 47.8373L324.338 47.7786C321.87 48.5962 319.996 49.77 318.829 50.5722C317.902 51.2095 317.432 51.5108 317.004 51.8629C316.46 52.3106 315.983 52.8404 314.721 54.2472L317.841 61.0971L319.898 64.6592C320.23 64.4439 320.52 64.2713 320.735 64.1627L321.129 63.4538C321.138 63.4387 321.147 63.4227 321.157 63.4057C321.496 62.8277 322.481 61.1479 325.405 59.4594C328.262 57.8102 330.993 57.411 332.115 57.5928C332.188 57.5349 332.288 57.4563 332.412 57.3632Z" fill="#FF5D6A"/>
<path d="M319.148 50.356C319.037 50.4306 318.93 50.503 318.829 50.5725C317.902 51.2098 317.432 51.5111 317.004 51.8632C316.423 52.3408 315.919 52.9119 314.458 54.5415C312.244 57.0086 310.889 59.5897 310.295 63.4038L314.437 72.4431C314.904 72.031 315.346 71.7534 315.577 71.6365C315.555 71.546 315.531 71.4535 315.507 71.3588C315.207 70.2014 314.824 68.7254 317.15 66.7142C318.335 65.69 319.989 64.54 320.735 64.163L320.751 64.1349C317.889 57.895 317.873 57.4766 317.826 56.2423C317.818 56.0516 317.81 55.8414 317.791 55.5873C317.764 53.2294 318.518 51.312 319.148 50.356Z" fill="#FFE3E1"/>
<path d="M314.578 54.4062C314.538 54.4505 314.498 54.4955 314.457 54.5413C311.917 57.3725 310.508 60.3538 310.081 65.1761C309.739 69.0339 311.724 74.0479 312.759 76.0726C312.748 75.5438 312.899 74.2576 313.592 73.344C314.285 72.4303 315.204 71.8248 315.576 71.6363C315.574 71.6258 315.571 71.6152 315.569 71.6046C315.493 71.4638 315.409 71.3049 315.32 71.1362C315.069 70.6636 314.778 70.1147 314.524 69.675C313.69 68.23 311.856 61.0205 313.323 57.4439C313.902 56.0335 314.306 55.0563 314.578 54.4062Z" fill="#FF5E6A"/>
<path d="M332.115 57.5932C332.63 57.1884 334.435 55.7719 336.719 55.4168C339.478 54.9879 340.823 55.9907 341.347 56.7587C341.426 56.6641 341.627 56.5136 341.979 56.3542L335.593 47.7141C333.799 47.1274 331.793 46.7775 329.601 46.8426C326.048 46.9479 323.158 48.0722 321.088 49.1855C323.305 49.1076 324.629 49.9044 326.429 50.9871C326.522 51.0435 326.617 51.1006 326.714 51.1584C328.555 52.2626 331.043 55.8301 332.115 57.5932Z" fill="#FFE3DE"/>
<path fill-rule="evenodd" clip-rule="evenodd" d="M336.789 55.372C336.437 54.837 335.895 54.1358 335.12 53.3561C333.396 51.6218 330.824 49.2533 328.001 48.3949C326.343 47.891 324.979 47.791 324.144 47.8199C325.733 47.2701 327.578 46.8626 329.649 46.8012C331.841 46.7361 333.848 47.086 335.641 47.6727L342.027 56.3128C341.675 56.4722 341.474 56.6228 341.395 56.7173C340.873 55.9514 339.533 54.9519 336.789 55.372Z" fill="#FFF1E3"/>
<path d="M341.344 56.7585C341.518 56.5508 342.281 56.0731 343.935 55.8243C345.475 55.5927 346.347 56.3078 346.65 56.7734C345.848 55.4231 343.725 52.5653 341.585 50.9195C338.842 48.8104 334.728 46.6902 329.598 46.8424C328.361 46.8791 327.205 47.0392 326.136 47.2793C327.98 47.299 330.903 47.5873 334.129 49.6851C337.467 51.8557 340.57 55.2787 341.344 56.7585Z" fill="#FF9C82"/>
<path fill-rule="evenodd" clip-rule="evenodd" d="M327.408 58.4824C328.483 58.0501 329.483 57.7892 330.315 57.658C329.362 56.3385 327.987 54.5969 326.608 53.0642C325.06 51.3441 323.391 50.6317 322.733 50.3506C322.724 50.3468 322.715 50.3431 322.706 50.3394C322.067 50.0663 321.782 49.99 321.551 50.2842C321.424 50.4454 322.017 51.0596 322.697 51.7645C323.258 52.3453 323.878 52.9877 324.204 53.4888C324.313 53.6569 324.427 53.8207 324.567 54.0212C325.019 54.6664 325.735 55.6919 327.399 58.4675C327.402 58.4725 327.405 58.4775 327.408 58.4824Z" fill="#FF937A"/>
<path fill-rule="evenodd" clip-rule="evenodd" d="M319.578 50.0742C319.519 50.2829 319.487 50.5113 319.497 50.7579C319.506 50.9848 319.511 51.2082 319.516 51.4312C319.544 52.6806 319.573 53.9143 320.235 55.6525C320.921 57.451 321.486 58.5943 322.269 60.1773C322.445 60.5337 322.632 60.9124 322.834 61.3258C321.823 62.2685 321.366 63.0482 321.156 63.406L321.128 63.4541L320.734 64.163C320.52 64.2715 320.23 64.4442 319.897 64.6595L318.587 62.3905L316.241 56.1041L318.459 50.8253C318.574 50.7471 318.696 50.6632 318.828 50.5725C319.052 50.4184 319.303 50.2506 319.578 50.0742Z" fill="#EC1E3E"/>
<path fill-rule="evenodd" clip-rule="evenodd" d="M318.407 50.8612C317.394 52.1386 316.277 53.9215 316.176 55.1549C315.996 57.3461 315.895 59.8128 318.213 65.2179C318.285 65.3865 318.359 65.542 318.436 65.685C319.334 65.0114 320.237 64.4148 320.735 64.163L320.751 64.1349C317.889 57.895 317.873 57.4766 317.826 56.2423L317.826 56.2423C317.818 56.0516 317.81 55.8414 317.791 55.5873C317.764 53.2294 318.518 51.312 319.148 50.356C319.037 50.4306 318.93 50.503 318.829 50.5725C318.677 50.6773 318.537 50.7729 318.407 50.8612Z" fill="#FAD1DC"/>
<path fill-rule="evenodd" clip-rule="evenodd" d="M314.514 54.493C313.205 56.7027 311.585 60.4457 311.758 64.0479C311.974 68.5673 312.865 71.1554 314.01 72.8656C314.632 72.1933 315.321 71.7474 315.631 71.5904L315.623 71.5587C315.548 71.4179 315.464 71.259 315.374 71.0903C315.124 70.6177 314.833 70.0688 314.579 69.6291C313.745 68.1841 311.91 60.9746 313.378 57.398C313.956 55.9876 314.361 55.0104 314.633 54.3604L314.514 54.493Z" fill="#EC1F3C"/>
<path fill-rule="evenodd" clip-rule="evenodd" d="M326.324 47.2384C326.364 47.2365 326.406 47.2345 326.449 47.2325C327.469 47.1836 329.253 47.098 331.283 47.3953C335.054 47.9477 338.462 50.2349 340.989 52.3881C342.821 53.9483 343.728 55.2301 344.027 55.8118C343.997 55.8156 343.967 55.8198 343.937 55.8244C342.282 56.0732 341.52 56.5509 341.345 56.7586C340.571 55.2788 337.468 51.8558 334.131 49.6852C330.904 47.5874 327.981 47.2991 326.137 47.2794C326.199 47.2655 326.262 47.2518 326.324 47.2384Z" fill="#FF5E6A"/>
<ellipse rx="7.74679" ry="7.74679" transform="matrix(-0.866025 0.5 0.5 0.866025 341.684 88.0203)" fill="#D04A25"/>
<ellipse rx="7.75947" ry="7.75946" transform="matrix(-0.866025 0.5 0.5 0.866025 342.41 86.9258)" fill="#ED6C53"/>
<ellipse rx="7.75947" ry="7.75946" transform="matrix(-0.866025 0.5 0.5 0.866025 342.41 86.9258)" fill="#F3725A"/>
<ellipse rx="7.75947" ry="7.75946" transform="matrix(-0.866025 0.5 0.5 0.866025 342.41 86.9258)" fill="url(#paint24_linear_2040_136440)"/>
<circle r="7.15088" transform="matrix(-0.866025 0.5 0.5 0.866025 342.418 86.9084)" fill="url(#paint25_linear_2040_136440)"/>
<path fill-rule="evenodd" clip-rule="evenodd" d="M345.594 90.1192C345.113 90.3972 344.492 90.5931 343.802 90.6878C343.78 90.6909 343.758 90.6934 343.737 90.6957C343.717 90.6978 343.697 90.6997 343.677 90.7015L343.668 90.7023L343.667 90.7024C343.397 90.7804 343.105 90.8424 342.802 90.8826C340.852 91.1451 339.589 90.4956 339.053 89.7907C338.399 88.9271 338.478 87.6952 338.836 86.5978C338.952 85.9812 339.183 85.367 339.458 84.8368C339.806 84.1642 340.232 83.5952 340.665 83.1963C341.096 82.7988 341.541 82.5642 341.928 82.5748C342.299 82.584 342.685 82.7862 343.099 83.1826C343.439 83.301 343.795 83.5715 344.177 83.9972C344.562 84.4272 344.978 85.0185 345.432 85.7799C345.906 86.5765 346.23 87.2655 346.401 87.8429C346.572 88.4193 346.591 88.89 346.447 89.2463C346.317 89.5723 346.019 89.874 345.594 90.1192ZM342.992 90.1489C342.353 90.2348 341.786 90.2226 341.294 90.1428C341.869 90.3846 342.642 90.5146 343.611 90.4076C343.807 90.3493 343.989 90.2819 344.156 90.2067C344.33 90.1281 344.487 90.041 344.624 89.9471C344.891 89.7628 345.079 89.554 345.168 89.334L345.178 89.3073C345.063 89.4035 344.933 89.4954 344.785 89.5804C344.304 89.8584 343.683 90.0543 342.992 90.1489ZM340.297 89.4107C340.32 89.4418 340.345 89.4724 340.372 89.5032C340.397 89.5316 340.423 89.5601 340.452 89.5892C341.057 89.8524 341.892 89.9921 342.953 89.8505C343.497 89.7774 343.985 89.6387 344.38 89.4553C344.77 89.2745 345.067 89.0516 345.24 88.8078C345.211 88.1782 344.857 87.2829 344.17 86.1307C343.736 85.4041 343.339 84.8382 342.977 84.4278C342.623 84.0263 342.304 83.777 342.017 83.6696C341.511 84.0123 340.967 84.6711 340.535 85.5087C340.22 86.1168 339.966 86.8373 339.889 87.5341C339.811 88.2312 339.911 88.9 340.297 89.4107ZM340.266 85.3733C340.648 84.6345 341.124 84.0198 341.601 83.619C341.528 83.6295 341.45 83.6506 341.369 83.6825C341.299 83.7099 341.226 83.7452 341.151 83.7888C340.596 84.1091 339.991 84.8257 339.533 85.7112C339.376 86.0116 339.236 86.3408 339.125 86.6816C338.977 87.4847 339.042 88.2849 339.486 88.8733C339.575 88.9914 339.688 89.1085 339.825 89.2179C339.564 88.678 339.517 88.0429 339.602 87.4035C339.696 86.6959 339.952 85.9794 340.266 85.3733ZM342.934 83.4449C342.863 83.425 342.792 83.4141 342.724 83.4127C342.667 83.411 342.608 83.4165 342.546 83.429C342.482 83.4421 342.415 83.4628 342.346 83.4912C342.64 83.6532 342.948 83.9247 343.276 84.3084C343.633 84.7267 344.015 85.2803 344.429 85.9761C344.937 86.8265 345.272 87.5547 345.431 88.1559C345.432 87.8888 345.368 87.5682 345.24 87.1941C345.065 86.6874 344.771 86.0866 344.359 85.3946C343.832 84.5088 343.359 83.8616 342.934 83.4449ZM341.34 83.0527C340.944 83.2812 340.521 83.7137 340.145 84.267C340.334 84.0526 340.528 83.8685 340.721 83.7206C341.071 83.4522 341.422 83.2999 341.735 83.3098C341.818 83.3119 341.898 83.3245 341.982 83.3456C342.177 83.2297 342.37 83.1538 342.553 83.1255C342.321 82.962 342.107 82.8824 341.914 82.8777C341.746 82.8718 341.554 82.9292 341.34 83.0527ZM345.572 88.8373L345.564 88.8526C345.556 88.866 345.549 88.8795 345.541 88.8929C345.542 89.0972 345.51 89.2807 345.445 89.4425C345.348 89.6845 345.159 89.9117 344.896 90.1137C345.177 90.0101 345.424 89.8859 345.625 89.7469C345.892 89.5629 346.078 89.3547 346.166 89.1365C346.285 88.8389 346.266 88.4227 346.1 87.885C345.934 87.3483 345.623 86.697 345.168 85.9334C344.723 85.1863 344.317 84.6101 343.947 84.1975C344.162 84.5008 344.386 84.8477 344.619 85.2401C345.095 86.036 345.419 86.725 345.589 87.3025C345.759 87.8792 345.778 88.3502 345.635 88.7065L345.634 88.7074C345.62 88.7411 345.604 88.7745 345.587 88.8078L345.572 88.8373ZM339.246 89.0556C339.07 88.8226 338.947 88.5626 338.869 88.2864C338.887 88.7784 339.016 89.2366 339.299 89.608C339.693 90.128 340.561 90.6268 341.895 90.6407C341.172 90.4876 340.629 90.1837 340.275 89.8396C339.809 89.629 339.466 89.3464 339.246 89.0556Z" fill="white"/>
</g>
</g>
<defs>
<filter id="filter0_f_2040_136440" x="157.508" y="-116.412" width="271.367" height="193.443" filterUnits="userSpaceOnUse" color-interpolation-filters="sRGB">
<feFlood flood-opacity="0" result="BackgroundImageFix"/>
<feBlend mode="normal" in="SourceGraphic" in2="BackgroundImageFix" result="shape"/>
<feGaussianBlur stdDeviation="15" result="effect1_foregroundBlur_2040_136440"/>
</filter>
<filter id="filter1_f_2040_136440" x="178.012" y="-80.54" width="239.379" height="183.953" filterUnits="userSpaceOnUse" color-interpolation-filters="sRGB">
<feFlood flood-opacity="0" result="BackgroundImageFix"/>
<feBlend mode="normal" in="SourceGraphic" in2="BackgroundImageFix" result="shape"/>
<feGaussianBlur stdDeviation="10" result="effect1_foregroundBlur_2040_136440"/>
</filter>
<filter id="filter2_f_2040_136440" x="-79.4805" y="-94.4692" width="279.883" height="286.78" filterUnits="userSpaceOnUse" color-interpolation-filters="sRGB">
<feFlood flood-opacity="0" result="BackgroundImageFix"/>
<feBlend mode="normal" in="SourceGraphic" in2="BackgroundImageFix" result="shape"/>
<feGaussianBlur stdDeviation="25" result="effect1_foregroundBlur_2040_136440"/>
</filter>
<filter id="filter3_f_2040_136440" x="56.6328" y="-22.6855" width="95.1094" height="94.958" filterUnits="userSpaceOnUse" color-interpolation-filters="sRGB">
<feFlood flood-opacity="0" result="BackgroundImageFix"/>
<feBlend mode="normal" in="SourceGraphic" in2="BackgroundImageFix" result="shape"/>
<feGaussianBlur stdDeviation="10" result="effect1_foregroundBlur_2040_136440"/>
</filter>
<filter id="filter4_f_2040_136440" x="-90" y="-25.0732" width="449.625" height="449.625" filterUnits="userSpaceOnUse" color-interpolation-filters="sRGB">
<feFlood flood-opacity="0" result="BackgroundImageFix"/>
<feBlend mode="normal" in="SourceGraphic" in2="BackgroundImageFix" result="shape"/>
<feGaussianBlur stdDeviation="100" result="effect1_foregroundBlur_2040_136440"/>
</filter>
<filter id="filter5_f_2040_136440" x="-96.6484" y="-114.602" width="456.27" height="456.271" filterUnits="userSpaceOnUse" color-interpolation-filters="sRGB">
<feFlood flood-opacity="0" result="BackgroundImageFix"/>
<feBlend mode="normal" in="SourceGraphic" in2="BackgroundImageFix" result="shape"/>
<feGaussianBlur stdDeviation="100" result="effect1_foregroundBlur_2040_136440"/>
</filter>
<filter id="filter6_f_2040_136440" x="-44.125" y="-130.228" width="466.332" height="466.333" filterUnits="userSpaceOnUse" color-interpolation-filters="sRGB">
<feFlood flood-opacity="0" result="BackgroundImageFix"/>
<feBlend mode="normal" in="SourceGraphic" in2="BackgroundImageFix" result="shape"/>
<feGaussianBlur stdDeviation="100" result="effect1_foregroundBlur_2040_136440"/>
</filter>
<filter id="filter7_f_2040_136440" x="104.75" y="-98.5093" width="448.086" height="448.088" filterUnits="userSpaceOnUse" color-interpolation-filters="sRGB">
<feFlood flood-opacity="0" result="BackgroundImageFix"/>
<feBlend mode="normal" in="SourceGraphic" in2="BackgroundImageFix" result="shape"/>
<feGaussianBlur stdDeviation="100" result="effect1_foregroundBlur_2040_136440"/>
</filter>
<filter id="filter8_f_2040_136440" x="9.25391" y="-98.5093" width="448.086" height="448.088" filterUnits="userSpaceOnUse" color-interpolation-filters="sRGB">
<feFlood flood-opacity="0" result="BackgroundImageFix"/>
<feBlend mode="normal" in="SourceGraphic" in2="BackgroundImageFix" result="shape"/>
<feGaussianBlur stdDeviation="100" result="effect1_foregroundBlur_2040_136440"/>
</filter>
<linearGradient id="paint0_linear_2040_136440" x1="961.51" y1="264.039" x2="1059.05" y2="92.8995" gradientUnits="userSpaceOnUse">
<stop stop-color="#FFC8DF"/>
<stop offset="0.14" stop-color="#EE1E73"/>
<stop offset="0.35" stop-color="#F13378"/>
<stop offset="0.6" stop-color="#F65481"/>
<stop offset="0.88" stop-color="#FC838D"/>
<stop offset="0.98" stop-color="#FF9692"/>
<stop offset="1" stop-color="#FF9692"/>
</linearGradient>
<linearGradient id="paint1_linear_2040_136440" x1="706.735" y1="408.917" x2="726.974" y2="435.495" gradientUnits="userSpaceOnUse">
<stop stop-color="#FF4994"/>
<stop offset="0.11" stop-color="#F84998"/>
<stop offset="0.27" stop-color="#E348A4"/>
<stop offset="0.46" stop-color="#C247B7"/>
<stop offset="0.68" stop-color="#9345D1"/>
<stop offset="0.92" stop-color="#5843F3"/>
<stop offset="1" stop-color="#4242FF"/>
</linearGradient>
<linearGradient id="paint2_linear_2040_136440" x1="342.264" y1="66.706" x2="307.796" y2="-103.376" gradientUnits="userSpaceOnUse">
<stop offset="0.0847348" stop-color="#FF3434"/>
<stop offset="0.21528" stop-color="#FF9534"/>
<stop offset="0.354167" stop-color="white" stop-opacity="0.32"/>
<stop offset="0.510417" stop-color="#FCC63C"/>
</linearGradient>
<linearGradient id="paint3_linear_2040_136440" x1="311.102" y1="101.309" x2="358.619" y2="-65.5976" gradientUnits="userSpaceOnUse">
<stop offset="0.0885417" stop-color="#FFFCEC"/>
<stop offset="0.75" stop-color="#FB9600"/>
</linearGradient>
<linearGradient id="paint4_linear_2040_136440" x1="69.7017" y1="-8.15269" x2="8.80345" y2="145.086" gradientUnits="userSpaceOnUse">
<stop offset="0.0817428" stop-color="white"/>
<stop offset="0.21271" stop-color="#FFE4CB" stop-opacity="0.94"/>
<stop offset="0.464763" stop-color="#FEC2C5"/>
<stop offset="0.740474" stop-color="#FFB580"/>
<stop offset="1" stop-color="#FFA592"/>
</linearGradient>
<linearGradient id="paint5_linear_2040_136440" x1="56.0189" y1="-34.1413" x2="76.465" y2="74.376" gradientUnits="userSpaceOnUse">
<stop stop-color="#ED1771"/>
<stop offset="0.14" stop-color="#EE1E73"/>
<stop offset="0.35" stop-color="#FFE9F1"/>
<stop offset="0.6" stop-color="#F65481"/>
<stop offset="0.88" stop-color="#FC838D"/>
<stop offset="0.98" stop-color="#FF9692"/>
</linearGradient>
<linearGradient id="paint6_linear_2040_136440" x1="1237.14" y1="1039.44" x2="1297.77" y2="1126.18" gradientUnits="userSpaceOnUse">
<stop stop-color="#FFCC49"/>
<stop offset="0.11" stop-color="#F84998"/>
<stop offset="0.27" stop-color="#E348A4"/>
<stop offset="0.46" stop-color="#C247B7"/>
<stop offset="0.68" stop-color="#9345D1"/>
<stop offset="0.92" stop-color="#5843F3"/>
<stop offset="1" stop-color="#4242FF"/>
</linearGradient>
<linearGradient id="paint7_linear_2040_136440" x1="157.049" y1="63.9771" x2="181.28" y2="77.1501" gradientUnits="userSpaceOnUse">
<stop stop-color="#D2CACE"/>
<stop offset="1" stop-color="#D2CACE" stop-opacity="0"/>
</linearGradient>
<linearGradient id="paint8_linear_2040_136440" x1="19.5184" y1="111.39" x2="-7.03816" y2="118.832" gradientUnits="userSpaceOnUse">
<stop stop-color="#D2CACE"/>
<stop offset="1" stop-color="#D2CACE" stop-opacity="0"/>
</linearGradient>
<linearGradient id="paint9_linear_2040_136440" x1="81.2507" y1="25.9136" x2="152.487" y2="39.2083" gradientUnits="userSpaceOnUse">
<stop offset="0.149019" stop-color="#EBEBEB"/>
<stop offset="1" stop-color="#ABF0FF"/>
</linearGradient>
<linearGradient id="paint10_linear_2040_136440" x1="99.5579" y1="-0.239936" x2="71.2349" y2="56.1421" gradientUnits="userSpaceOnUse">
<stop stop-color="#FFCD82"/>
<stop offset="1" stop-color="#FE6767"/>
</linearGradient>
<radialGradient id="paint11_radial_2040_136440" cx="0" cy="0" r="1" gradientUnits="userSpaceOnUse" gradientTransform="translate(191.772 84.9499) rotate(93.0558) scale(51.2284)">
<stop stop-color="#E0FFFF"/>
<stop offset="1" stop-color="#F6F9F5"/>
<stop offset="1" stop-color="#CEFFFC"/>
</radialGradient>
<radialGradient id="paint12_radial_2040_136440" cx="0" cy="0" r="1" gradientUnits="userSpaceOnUse" gradientTransform="translate(330.773 112.494) rotate(93.0558) scale(37.1378)">
<stop stop-color="#FC7E38" stop-opacity="0.69"/>
<stop offset="1" stop-color="#F9F8F5"/>
</radialGradient>
<radialGradient id="paint13_radial_2040_136440" cx="0" cy="0" r="1" gradientUnits="userSpaceOnUse" gradientTransform="translate(235.277 112.494) rotate(93.0558) scale(37.1378)">
<stop stop-color="#CCFF00" stop-opacity="0.69"/>
<stop offset="0.864583" stop-color="#F9F8F5"/>
</radialGradient>
<linearGradient id="paint14_linear_2040_136440" x1="45.3742" y1="72.7793" x2="50.8235" y2="71.4993" gradientUnits="userSpaceOnUse">
<stop stop-color="#FF6C2E"/>
<stop offset="1" stop-color="#F3725A" stop-opacity="0"/>
</linearGradient>
<linearGradient id="paint15_linear_2040_136440" x1="49.7271" y1="70.5101" x2="45.3384" y2="73.8382" gradientUnits="userSpaceOnUse">
<stop stop-color="#FFA756"/>
<stop offset="1" stop-color="#F8765E" stop-opacity="0"/>
</linearGradient>
<linearGradient id="paint16_linear_2040_136440" x1="7.35388" y1="53.4417" x2="15.3104" y2="51.5727" gradientUnits="userSpaceOnUse">
<stop stop-color="#FF6C2E"/>
<stop offset="1" stop-color="#F3725A" stop-opacity="0"/>
</linearGradient>
<linearGradient id="paint17_linear_2040_136440" x1="13.7126" y1="50.1283" x2="7.30472" y2="54.9876" gradientUnits="userSpaceOnUse">
<stop stop-color="#FFA756"/>
<stop offset="1" stop-color="#F8765E" stop-opacity="0"/>
</linearGradient>
<linearGradient id="paint18_linear_2040_136440" x1="17.1789" y1="75.601" x2="33.0425" y2="71.8747" gradientUnits="userSpaceOnUse">
<stop stop-color="#FF6C2E"/>
<stop offset="1" stop-color="#F3725A" stop-opacity="0"/>
</linearGradient>
<linearGradient id="paint19_linear_2040_136440" x1="29.8577" y1="68.995" x2="17.0816" y2="78.6835" gradientUnits="userSpaceOnUse">
<stop stop-color="#FFA756"/>
<stop offset="1" stop-color="#F8765E" stop-opacity="0"/>
</linearGradient>
<linearGradient id="paint20_linear_2040_136440" x1="0.238817" y1="3.41167" x2="5.3222" y2="2.21759" gradientUnits="userSpaceOnUse">
<stop stop-color="#FF6C2E"/>
<stop offset="1" stop-color="#F3725A" stop-opacity="0"/>
</linearGradient>
<linearGradient id="paint21_linear_2040_136440" x1="4.094" y1="1.09173" x2="-4.97923e-07" y2="4.19635" gradientUnits="userSpaceOnUse">
<stop stop-color="#FFA756"/>
<stop offset="1" stop-color="#F8765E" stop-opacity="0"/>
</linearGradient>
<linearGradient id="paint22_linear_2040_136440" x1="0.348693" y1="4.98133" x2="7.77087" y2="3.23787" gradientUnits="userSpaceOnUse">
<stop stop-color="#FF6C2E"/>
<stop offset="1" stop-color="#F3725A" stop-opacity="0"/>
</linearGradient>
<linearGradient id="paint23_linear_2040_136440" x1="5.97759" y1="1.59402" x2="-4.60012e-07" y2="6.12703" gradientUnits="userSpaceOnUse">
<stop stop-color="#FFA756"/>
<stop offset="1" stop-color="#F8765E" stop-opacity="0"/>
</linearGradient>
<linearGradient id="paint24_linear_2040_136440" x1="0.695225" y1="9.93178" x2="15.4936" y2="6.45565" gradientUnits="userSpaceOnUse">
<stop stop-color="#FF6C2E"/>
<stop offset="1" stop-color="#F3725A" stop-opacity="0"/>
</linearGradient>
<linearGradient id="paint25_linear_2040_136440" x1="11.9181" y1="3.17817" x2="2.39875e-07" y2="12.2161" gradientUnits="userSpaceOnUse">
<stop stop-color="#FFA756"/>
<stop offset="1" stop-color="#F8765E" stop-opacity="0"/>
</linearGradient>
</defs>
</svg>
