<svg width="375" height="3954" viewBox="0 0 375 3954" fill="none" xmlns="http://www.w3.org/2000/svg">
<mask id="mask0_2976_69183" style="mask-type:alpha" maskUnits="userSpaceOnUse" x="0" y="0" width="375" height="3954">
<rect width="375" height="3954" fill="#3B3C24"/>
</mask>
<g mask="url(#mask0_2976_69183)">
<g opacity="0.3" filter="url(#filter0_f_2976_69183)">
<path fill-rule="evenodd" clip-rule="evenodd" d="M368.333 370.012C328.446 371.902 287.676 377.258 260.321 412.322C226.431 455.762 199.938 513.317 210.358 572.506C221.766 637.301 260.651 699.16 313.513 714.457C361.798 728.43 408.307 685.238 439.404 638.788C460.434 607.378 436.325 562.6 442.045 522.471C448.265 478.843 491.715 440.687 473.124 402.236C453.815 362.299 406.065 368.223 368.333 370.012Z" fill="url(#paint0_linear_2976_69183)"/>
</g>
<g opacity="0.8" filter="url(#filter1_f_2976_69183)">
<path d="M389.028 485.495C385.442 482.003 382.254 478.043 378.503 474.753C372.821 469.799 366.076 466.603 358.942 465.485C355.063 464.888 350.297 464.314 348.786 460.262C346.666 454.679 352.35 450.178 356.279 448.333C362.096 445.592 368.41 446.677 373.712 450.279C380.064 454.583 383.833 461.262 387.486 468.285C388.869 470.946 390.029 473.715 391.801 476.098C393.56 478.457 395.645 480.486 397.978 482.107C400.824 484.073 403.967 485.27 406.902 487.026C408.157 487.774 409.793 489.421 409.244 491.237C408.597 493.452 405.572 493.49 403.934 493.381C398.527 493.003 393.026 489.391 389.028 485.495Z" fill="white"/>
</g>
<g opacity="0.3" filter="url(#filter2_f_2976_69183)">
<path d="M235.769 509.331C185.096 509.81 115.485 517.301 84.1775 461.716C61.0711 420.703 40.117 359.158 -7.58765 413.589C-37.1717 447.256 -48.6458 504.987 -51.7062 550.581C-60.0894 677.04 11.2133 796.375 111.041 850.81C208.405 903.882 346.378 907.918 418.082 803.019C443.948 765.098 459.356 714.522 454.003 666.762C441.809 555.396 322.887 508.453 235.769 509.331Z" fill="url(#paint1_linear_2976_69183)" fill-opacity="0.4"/>
</g>
<g opacity="0.8" filter="url(#filter3_f_2976_69183)">
<path d="M190.453 581.633C139.779 582.112 70.1687 589.603 38.8611 534.017C15.7547 493.005 -5.19936 431.46 -52.9041 485.891C-82.4881 519.558 -93.9622 577.289 -97.0226 622.883C-105.406 749.342 -34.1031 868.676 65.725 923.111C163.089 976.184 301.062 980.219 372.765 875.321C398.631 837.4 414.039 786.823 408.687 739.064C396.493 627.698 277.571 580.755 190.453 581.633Z" fill="white"/>
</g>
<g opacity="0.8" filter="url(#filter4_f_2976_69183)">
<path d="M263.876 369.942C327.7 347.443 412.849 307.701 472.93 366.049C517.269 409.096 566.476 479.619 606.613 388.648C631.536 332.346 624.695 252.752 611.712 192.483C575.57 25.3657 441.418 -98.1322 295.221 -125.406C152.64 -151.982 -23.1098 -97.6247 -74.9082 68.9576C-93.5638 129.154 -94.3346 201.196 -69.9259 260.632C-13.3724 399.351 154.171 408.694 263.876 369.942Z" fill="white"/>
</g>
<g filter="url(#filter5_f_2976_69183)">
<path d="M347.628 569.922C344.376 570.011 340.985 570.89 339.704 573.508C338.826 576.113 342.634 580.628 343.979 582.136C347.596 586.188 349.982 583.038 351.797 577.711C354.693 569.21 348.479 569.899 347.628 569.922Z" fill="white" fill-opacity="0.5"/>
</g>
<g opacity="0.1" filter="url(#filter6_f_2976_69183)">
<path d="M112.358 487.223C114.966 489.397 118.12 491.045 120.572 489.868C122.699 488.424 122.191 482.243 121.963 480.127C121.35 474.441 117.735 475.275 113.37 478.215C106.404 482.908 111.676 486.654 112.358 487.223Z" fill="#FF3B2F" fill-opacity="0.4"/>
</g>
<g filter="url(#filter7_f_2976_69183)">
<path d="M131.324 454.906C131.322 433.575 146.775 416.281 165.84 416.278C184.905 416.275 200.362 433.565 200.365 454.896C200.367 476.227 184.914 493.522 165.849 493.524C146.784 493.527 131.327 476.237 131.324 454.906Z" fill="url(#paint2_radial_2976_69183)" fill-opacity="0.4"/>
</g>
<g opacity="0.7">
<g style="mix-blend-mode:multiply" filter="url(#filter8_f_2976_69183)">
<path d="M211.778 176.522C219.525 168.564 225.869 158.757 223.226 150.661C219.627 143.561 200.376 144.017 193.765 144.346C175.997 145.23 177.115 156.992 184.425 171.56C196.092 194.812 209.751 178.604 211.778 176.522Z" fill="url(#paint3_linear_2976_69183)" fill-opacity="0.2"/>
</g>
<g style="mix-blend-mode:multiply" opacity="0.3" filter="url(#filter9_f_2976_69183)">
<path d="M188.922 182.879C197.455 184.608 206.879 184.632 211.972 179.466C216.003 174.093 209.102 161.619 206.605 157.408C199.892 146.092 191.565 151.805 183.271 162.781C170.033 180.298 186.689 182.426 188.922 182.879Z" fill="url(#paint4_linear_2976_69183)"/>
</g>
</g>
<g opacity="0.5">
<g style="mix-blend-mode:multiply" filter="url(#filter10_f_2976_69183)">
<path d="M339.039 394.845C351.307 378.491 360.518 359.075 353.589 344.864C345.148 332.695 309.755 337.971 297.646 340.098C265.098 345.816 270.147 367.089 287.328 392.072C314.749 431.944 335.828 399.125 339.039 394.845Z" fill="url(#paint5_linear_2976_69183)" fill-opacity="0.2"/>
</g>
<g style="mix-blend-mode:multiply" opacity="0.3" filter="url(#filter11_f_2976_69183)">
<path d="M298.536 411.815C314.669 412.914 332.018 410.685 340.112 400.028C346.198 389.248 330.407 368.142 324.767 361.058C309.61 342.02 295.701 354.458 283.155 376.493C263.133 411.66 294.315 411.527 298.536 411.815Z" fill="url(#paint6_linear_2976_69183)"/>
</g>
</g>
<g style="mix-blend-mode:lighten" filter="url(#filter12_f_2976_69183)">
<ellipse rx="52.9582" ry="59.252" transform="matrix(-1 0.000140357 -0.000112123 -1 87.8047 268.998)" fill="url(#paint7_linear_2976_69183)"/>
</g>
<g opacity="0.1" filter="url(#filter13_f_2976_69183)">
<ellipse rx="164.96" ry="184.565" transform="matrix(-1 0.000140357 -0.000112123 -1 84.7653 237.059)" fill="url(#paint8_radial_2976_69183)" fill-opacity="0.5"/>
</g>
<g filter="url(#filter14_f_2976_69183)">
<path d="M83.0845 1154.42C83.0801 1115.01 111.63 1083.06 146.853 1083.05C182.075 1083.05 210.632 1114.99 210.637 1154.4C210.641 1193.81 182.091 1225.76 146.869 1225.76C111.646 1225.77 83.089 1193.83 83.0845 1154.42Z" fill="url(#paint9_radial_2976_69183)"/>
</g>
<g filter="url(#filter15_f_2976_69183)">
<path d="M234.118 1315.7C268.14 1305.5 303.111 1328.09 312.227 1366.15C321.344 1404.22 301.153 1443.35 267.131 1453.55C233.108 1463.75 198.137 1441.16 189.021 1403.09C179.905 1365.03 200.095 1325.9 234.118 1315.7Z" fill="url(#paint10_radial_2976_69183)"/>
</g>
<g filter="url(#filter16_f_2976_69183)">
<path d="M147.392 1295.66C169.128 1289.15 191.47 1303.58 197.294 1327.9C203.118 1352.22 190.219 1377.21 168.483 1383.73C146.747 1390.25 124.406 1375.81 118.581 1351.5C112.757 1327.18 125.656 1302.18 147.392 1295.66Z" fill="url(#paint11_radial_2976_69183)"/>
</g>
<rect opacity="0.2" width="375" height="3954" fill="url(#paint12_radial_2976_69183)"/>
</g>
<defs>
<filter id="filter0_f_2976_69183" x="-272.877" y="-112.307" width="1231.53" height="1310.37" filterUnits="userSpaceOnUse" color-interpolation-filters="sRGB">
<feFlood flood-opacity="0" result="BackgroundImageFix"/>
<feBlend mode="normal" in="SourceGraphic" in2="BackgroundImageFix" result="shape"/>
<feGaussianBlur stdDeviation="240.469" result="effect1_foregroundBlur_2976_69183"/>
</filter>
<filter id="filter1_f_2976_69183" x="338.326" y="436.794" width="81.0264" height="66.6196" filterUnits="userSpaceOnUse" color-interpolation-filters="sRGB">
<feFlood flood-opacity="0" result="BackgroundImageFix"/>
<feBlend mode="normal" in="SourceGraphic" in2="BackgroundImageFix" result="shape"/>
<feGaussianBlur stdDeviation="5" result="effect1_foregroundBlur_2976_69183"/>
</filter>
<filter id="filter2_f_2976_69183" x="-82.375" y="362.147" width="567.437" height="555.163" filterUnits="userSpaceOnUse" color-interpolation-filters="sRGB">
<feFlood flood-opacity="0" result="BackgroundImageFix"/>
<feBlend mode="normal" in="SourceGraphic" in2="BackgroundImageFix" result="shape"/>
<feGaussianBlur stdDeviation="15" result="effect1_foregroundBlur_2976_69183"/>
</filter>
<filter id="filter3_f_2976_69183" x="-112.12" y="450.021" width="536.293" height="524.019" filterUnits="userSpaceOnUse" color-interpolation-filters="sRGB">
<feFlood flood-opacity="0" result="BackgroundImageFix"/>
<feBlend mode="normal" in="SourceGraphic" in2="BackgroundImageFix" result="shape"/>
<feGaussianBlur stdDeviation="7.21408" result="effect1_foregroundBlur_2976_69183"/>
</filter>
<filter id="filter4_f_2976_69183" x="-103.033" y="-146.247" width="740.846" height="593.605" filterUnits="userSpaceOnUse" color-interpolation-filters="sRGB">
<feFlood flood-opacity="0" result="BackgroundImageFix"/>
<feBlend mode="normal" in="SourceGraphic" in2="BackgroundImageFix" result="shape"/>
<feGaussianBlur stdDeviation="7.21408" result="effect1_foregroundBlur_2976_69183"/>
</filter>
<filter id="filter5_f_2976_69183" x="329.573" y="559.9" width="32.9873" height="34.0781" filterUnits="userSpaceOnUse" color-interpolation-filters="sRGB">
<feFlood flood-opacity="0" result="BackgroundImageFix"/>
<feBlend mode="normal" in="SourceGraphic" in2="BackgroundImageFix" result="shape"/>
<feGaussianBlur stdDeviation="5" result="effect1_foregroundBlur_2976_69183"/>
</filter>
<filter id="filter6_f_2976_69183" x="99.8057" y="465.923" width="32.3789" height="34.3369" filterUnits="userSpaceOnUse" color-interpolation-filters="sRGB">
<feFlood flood-opacity="0" result="BackgroundImageFix"/>
<feBlend mode="normal" in="SourceGraphic" in2="BackgroundImageFix" result="shape"/>
<feGaussianBlur stdDeviation="5" result="effect1_foregroundBlur_2976_69183"/>
</filter>
<filter id="filter7_f_2976_69183" x="-68.6758" y="216.278" width="469.041" height="477.247" filterUnits="userSpaceOnUse" color-interpolation-filters="sRGB">
<feFlood flood-opacity="0" result="BackgroundImageFix"/>
<feBlend mode="normal" in="SourceGraphic" in2="BackgroundImageFix" result="shape"/>
<feGaussianBlur stdDeviation="100" result="effect1_foregroundBlur_2976_69183"/>
</filter>
<filter id="filter8_f_2976_69183" x="159.431" y="124.192" width="84.4053" height="79.7622" filterUnits="userSpaceOnUse" color-interpolation-filters="sRGB">
<feFlood flood-opacity="0" result="BackgroundImageFix"/>
<feBlend mode="normal" in="SourceGraphic" in2="BackgroundImageFix" result="shape"/>
<feGaussianBlur stdDeviation="10" result="effect1_foregroundBlur_2976_69183"/>
</filter>
<filter id="filter9_f_2976_69183" x="168.209" y="141.239" width="55" height="52.6826" filterUnits="userSpaceOnUse" color-interpolation-filters="sRGB">
<feFlood flood-opacity="0" result="BackgroundImageFix"/>
<feBlend mode="normal" in="SourceGraphic" in2="BackgroundImageFix" result="shape"/>
<feGaussianBlur stdDeviation="5" result="effect1_foregroundBlur_2976_69183"/>
</filter>
<filter id="filter10_f_2976_69183" x="253.786" y="317.118" width="122.184" height="114.485" filterUnits="userSpaceOnUse" color-interpolation-filters="sRGB">
<feFlood flood-opacity="0" result="BackgroundImageFix"/>
<feBlend mode="normal" in="SourceGraphic" in2="BackgroundImageFix" result="shape"/>
<feGaussianBlur stdDeviation="10" result="effect1_foregroundBlur_2976_69183"/>
</filter>
<filter id="filter11_f_2976_69183" x="266.507" y="341.694" width="84.9775" height="80.3735" filterUnits="userSpaceOnUse" color-interpolation-filters="sRGB">
<feFlood flood-opacity="0" result="BackgroundImageFix"/>
<feBlend mode="normal" in="SourceGraphic" in2="BackgroundImageFix" result="shape"/>
<feGaussianBlur stdDeviation="5" result="effect1_foregroundBlur_2976_69183"/>
</filter>
<filter id="filter12_f_2976_69183" x="-165.153" y="9.74561" width="505.916" height="518.504" filterUnits="userSpaceOnUse" color-interpolation-filters="sRGB">
<feFlood flood-opacity="0" result="BackgroundImageFix"/>
<feBlend mode="normal" in="SourceGraphic" in2="BackgroundImageFix" result="shape"/>
<feGaussianBlur stdDeviation="100" result="effect1_foregroundBlur_2976_69183"/>
</filter>
<filter id="filter13_f_2976_69183" x="-280.194" y="-147.506" width="729.92" height="769.129" filterUnits="userSpaceOnUse" color-interpolation-filters="sRGB">
<feFlood flood-opacity="0" result="BackgroundImageFix"/>
<feBlend mode="normal" in="SourceGraphic" in2="BackgroundImageFix" result="shape"/>
<feGaussianBlur stdDeviation="100" result="effect1_foregroundBlur_2976_69183"/>
</filter>
<filter id="filter14_f_2976_69183" x="-116.915" y="883.051" width="527.552" height="542.712" filterUnits="userSpaceOnUse" color-interpolation-filters="sRGB">
<feFlood flood-opacity="0" result="BackgroundImageFix"/>
<feBlend mode="normal" in="SourceGraphic" in2="BackgroundImageFix" result="shape"/>
<feGaussianBlur stdDeviation="100" result="effect1_foregroundBlur_2976_69183"/>
</filter>
<filter id="filter15_f_2976_69183" x="-13.168" y="1113.25" width="527.584" height="542.747" filterUnits="userSpaceOnUse" color-interpolation-filters="sRGB">
<feFlood flood-opacity="0" result="BackgroundImageFix"/>
<feBlend mode="normal" in="SourceGraphic" in2="BackgroundImageFix" result="shape"/>
<feGaussianBlur stdDeviation="100" result="effect1_foregroundBlur_2976_69183"/>
</filter>
<filter id="filter16_f_2976_69183" x="-82.8174" y="1094.1" width="481.51" height="491.196" filterUnits="userSpaceOnUse" color-interpolation-filters="sRGB">
<feFlood flood-opacity="0" result="BackgroundImageFix"/>
<feBlend mode="normal" in="SourceGraphic" in2="BackgroundImageFix" result="shape"/>
<feGaussianBlur stdDeviation="100" result="effect1_foregroundBlur_2976_69183"/>
</filter>
<linearGradient id="paint0_linear_2976_69183" x1="530.084" y1="545.241" x2="290.516" y2="435.668" gradientUnits="userSpaceOnUse">
<stop stop-color="#FDFFEE"/>
<stop offset="0.494792" stop-color="#FFFAE4"/>
<stop offset="0.666667" stop-color="#FFDEC0"/>
</linearGradient>
<linearGradient id="paint1_linear_2976_69183" x1="-46.9491" y1="484.827" x2="521.036" y2="589.006" gradientUnits="userSpaceOnUse">
<stop offset="0.052865" stop-color="#FF7020"/>
<stop offset="0.145833" stop-color="#F8D249"/>
<stop offset="0.328125" stop-color="#80FF00"/>
<stop offset="0.411458" stop-color="#00FF85"/>
<stop offset="0.526042" stop-color="#00D1FF"/>
<stop offset="0.630208" stop-color="#3D48FC"/>
<stop offset="0.796875" stop-color="#F90540"/>
</linearGradient>
<radialGradient id="paint2_radial_2976_69183" cx="0" cy="0" r="1" gradientUnits="userSpaceOnUse" gradientTransform="translate(211.382 412.285) rotate(-116.67) scale(39.3619 36.9655)">
<stop stop-color="#F3F9FF"/>
<stop offset="1" stop-color="#75CCF1" stop-opacity="0.49"/>
</radialGradient>
<linearGradient id="paint3_linear_2976_69183" x1="178.67" y1="159.843" x2="224.069" y2="169.17" gradientUnits="userSpaceOnUse">
<stop stop-color="#FFD875"/>
<stop offset="1" stop-color="#F3FF6F" stop-opacity="0"/>
</linearGradient>
<linearGradient id="paint4_linear_2976_69183" x1="189.984" y1="154.035" x2="179.317" y2="191.111" gradientUnits="userSpaceOnUse">
<stop stop-color="#FFCD82"/>
<stop offset="1" stop-color="#FE6767"/>
</linearGradient>
<linearGradient id="paint5_linear_2976_69183" x1="273.737" y1="371.951" x2="359.899" y2="377.688" gradientUnits="userSpaceOnUse">
<stop stop-color="#FFD875"/>
<stop offset="1" stop-color="#F3FF6F" stop-opacity="0"/>
</linearGradient>
<linearGradient id="paint6_linear_2976_69183" x1="293.343" y1="358.909" x2="282.906" y2="429.16" gradientUnits="userSpaceOnUse">
<stop stop-color="#FFCD82"/>
<stop offset="1" stop-color="#FE6767"/>
</linearGradient>
<linearGradient id="paint7_linear_2976_69183" x1="52.9582" y1="0" x2="52.6992" y2="162.661" gradientUnits="userSpaceOnUse">
<stop stop-color="white"/>
<stop offset="1" stop-color="white" stop-opacity="0"/>
</linearGradient>
<radialGradient id="paint8_radial_2976_69183" cx="0" cy="0" r="1" gradientUnits="userSpaceOnUse" gradientTransform="translate(159.037 156.182) rotate(-121.425) scale(341.923 326.524)">
<stop stop-color="#FF6B00"/>
<stop offset="1" stop-color="#FF6B00" stop-opacity="0"/>
</radialGradient>
<radialGradient id="paint9_radial_2976_69183" cx="0" cy="0" r="1" gradientUnits="userSpaceOnUse" gradientTransform="translate(195.083 1116.54) rotate(-135.858) scale(253.736 256.191)">
<stop stop-color="#FA7A42"/>
<stop offset="1" stop-color="#FFA857" stop-opacity="0.59"/>
</radialGradient>
<radialGradient id="paint10_radial_2976_69183" cx="0" cy="0" r="1" gradientUnits="userSpaceOnUse" gradientTransform="translate(270.138 1434.86) rotate(-53.7296) scale(244.865 238.142)">
<stop stop-color="#FA57D6" stop-opacity="0.78"/>
<stop offset="1" stop-color="#FFA857" stop-opacity="0.59"/>
</radialGradient>
<radialGradient id="paint11_radial_2976_69183" cx="0" cy="0" r="1" gradientUnits="userSpaceOnUse" gradientTransform="translate(145.463 1324.35) rotate(-176.135) scale(226.979 253.722)">
<stop stop-color="#57FAC9"/>
<stop offset="1" stop-color="#57D3FA" stop-opacity="0.21"/>
</radialGradient>
<radialGradient id="paint12_radial_2976_69183" cx="0" cy="0" r="1" gradientUnits="userSpaceOnUse" gradientTransform="translate(154.297 314.699) rotate(85.8086) scale(3731.12 564.956)">
<stop offset="0.119453" stop-color="#FEE8DC"/>
<stop offset="0.333794" stop-color="#FFE3BA"/>
<stop offset="0.651042" stop-color="#FC6B4C"/>
<stop offset="0.765625" stop-color="#FF2E00"/>
<stop offset="0.963542" stop-color="#C40000"/>
<stop offset="1" stop-color="#C40000"/>
</radialGradient>
</defs>
</svg>
