<svg width="106" height="84" viewBox="0 0 106 84" fill="none" xmlns="http://www.w3.org/2000/svg">
<path d="M7 9H98V79.7533C98 80.9941 97.0015 82 95.7698 82H9.23018C7.99849 82 7 80.9941 7 79.7533V9Z" fill="white"/>
<path opacity="0.7" fill-rule="evenodd" clip-rule="evenodd" d="M8.08675 34H33.8153C38.2587 34 41.6383 37.0525 41.6383 41.4959V53.2478C41.6383 57.5019 38.217 61.0391 34.0562 61.3326C34.0572 61.3524 33.7072 61.3524 33.7072 61.3524V69L25.8633 61.7589H8.08675C3.64335 61.7589 0 57.6912 0 53.2478V41.4959C0 37.0525 3.64335 34 8.08675 34ZM5.94411 40.9404C5.94411 40.6642 6.16797 40.4404 6.44411 40.4404H33.2116C33.4877 40.4404 33.7116 40.6642 33.7116 40.9404C33.7116 41.2165 33.4877 41.4404 33.2116 41.4404H6.44411C6.16797 41.4404 5.94411 41.2165 5.94411 40.9404ZM6.44411 49.28C6.16797 49.28 5.94411 49.5038 5.94411 49.78C5.94411 50.0561 6.16797 50.28 6.44411 50.28H22.3063C22.5825 50.28 22.8063 50.0561 22.8063 49.78C22.8063 49.5038 22.5825 49.28 22.3063 49.28H6.44411Z" fill="url(#paint0_linear_3148_21332)"/>
<path opacity="0.9" fill-rule="evenodd" clip-rule="evenodd" d="M96.4611 19.8711H65.7352C60.4287 19.8711 56 24.3017 56 29.6072V43.6424C56 48.9489 59.7037 53.6905 65.2593 53.6905V62.4544L75.2306 54.1304H96.4611C101.768 54.1304 106 48.9479 106 43.6424V29.6072C106 24.3017 101.768 19.8711 96.4611 19.8711ZM64.295 28.2034C64.295 27.9272 64.5189 27.7034 64.795 27.7034H96.2765C96.5527 27.7034 96.7765 27.9272 96.7765 28.2034C96.7765 28.4795 96.5527 28.7034 96.2765 28.7034H64.795C64.5189 28.7034 64.295 28.4795 64.295 28.2034ZM64.795 35.8824C64.5189 35.8824 64.295 36.1062 64.295 36.3824C64.295 36.6585 64.5189 36.8824 64.795 36.8824H80.5358C80.8119 36.8824 81.0358 36.6585 81.0358 36.3824C81.0358 36.1062 80.8119 35.8824 80.5358 35.8824H64.795Z" fill="url(#paint1_linear_3148_21332)"/>
<path opacity="0.6" fill-rule="evenodd" clip-rule="evenodd" d="M5.98438 9.20599V4.96295V4.83907C5.98438 2.21134 8.13175 0.0639648 10.7595 0.0639648H10.8834H94.118H94.2397C96.8589 0.0639648 99.0009 2.19752 99.0147 4.81367C99.0162 4.86326 99.017 4.91302 99.017 4.96295V9.20599C99.017 9.22187 99.0163 9.23759 99.0148 9.25309V17.1445C99.0148 17.4207 98.7909 17.6445 98.5148 17.6445C98.2387 17.6445 98.0148 17.4207 98.0148 17.1445V9.70599H6.98438V32.1268C6.98438 32.4029 6.76052 32.6268 6.48438 32.6268C6.20823 32.6268 5.98438 32.4029 5.98438 32.1268V9.20599ZM99.0148 57.4806C99.0148 57.2044 98.7909 56.9806 98.5148 56.9806C98.2387 56.9806 98.0148 57.2044 98.0148 57.4806V78.4004C98.0148 80.4758 96.3151 82.1755 94.2397 82.1755H10.7595C8.68404 82.1755 6.98438 80.4758 6.98438 78.4004V63.2423C6.98438 62.9661 6.76052 62.7423 6.48438 62.7423C6.20823 62.7423 5.98438 62.9661 5.98438 63.2423V78.4004C5.98438 81.0281 8.13175 83.1755 10.7595 83.1755H94.2397C96.8674 83.1755 99.0148 81.0281 99.0148 78.4004V57.4806ZM13.0649 4.72856C13.0649 5.26614 12.6291 5.70194 12.0915 5.70194C11.554 5.70194 11.1182 5.26614 11.1182 4.72856C11.1182 4.19098 11.554 3.75519 12.0915 3.75519C12.6291 3.75519 13.0649 4.19098 13.0649 4.72856ZM15.98 5.70194C16.5176 5.70194 16.9533 5.26614 16.9533 4.72856C16.9533 4.19098 16.5176 3.75519 15.98 3.75519C15.4424 3.75519 15.0066 4.19098 15.0066 4.72856C15.0066 5.26614 15.4424 5.70194 15.98 5.70194ZM20.8422 4.72856C20.8422 5.26614 20.4064 5.70194 19.8689 5.70194C19.3313 5.70194 18.8955 5.26614 18.8955 4.72856C18.8955 4.19098 19.3313 3.75519 19.8689 3.75519C20.4064 3.75519 20.8422 4.19098 20.8422 4.72856Z" fill="url(#paint2_linear_3148_21332)"/>
<path opacity="0.1" fill-rule="evenodd" clip-rule="evenodd" d="M78.9309 30.2212H15.3044C14.1017 30.2212 13.1172 29.465 13.1172 28.5414V24.901C13.1172 23.9773 14.1017 23.2212 15.3044 23.2212H78.93C80.1326 23.2212 81.1172 23.9773 81.1172 24.901V28.5414C81.1172 29.465 80.1335 30.2212 78.9309 30.2212ZM78.9309 41.2212H15.3044C14.1017 41.2212 13.1172 40.465 13.1172 39.5414V35.901C13.1172 34.9773 14.1017 34.2212 15.3044 34.2212H78.93C80.1326 34.2212 81.1172 34.9767 81.1172 35.901V39.5414C81.1172 40.4657 80.1335 41.2212 78.9309 41.2212ZM15.3044 52.2212H78.9309C80.1335 52.2212 81.1172 51.4657 81.1172 50.5414V46.901C81.1172 45.9767 80.1326 45.2212 78.93 45.2212H15.3044C14.1017 45.2212 13.1172 45.9773 13.1172 46.901V50.5414C13.1172 51.465 14.1017 52.2212 15.3044 52.2212Z" fill="url(#paint3_linear_3148_21332)"/>
<defs>
<linearGradient id="paint0_linear_3148_21332" x1="1.53567e-06" y1="19.9091" x2="34.8567" y2="92.1824" gradientUnits="userSpaceOnUse">
<stop stop-color="#DD1C84"/>
<stop offset="0.5087" stop-color="#EA8855"/>
<stop offset="0.678731" stop-color="#F1A839"/>
<stop offset="0.771199" stop-color="#FF932F"/>
</linearGradient>
<linearGradient id="paint1_linear_3148_21332" x1="56" y1="2.72715" x2="98.7544" y2="90.221" gradientUnits="userSpaceOnUse">
<stop stop-color="#DD1C84"/>
<stop offset="0.5087" stop-color="#EA8855"/>
<stop offset="0.678731" stop-color="#F1A839"/>
<stop offset="0.771199" stop-color="#FF932F"/>
</linearGradient>
<linearGradient id="paint2_linear_3148_21332" x1="5.98438" y1="-33.3965" x2="91.8544" y2="134.129" gradientUnits="userSpaceOnUse">
<stop stop-color="#DD1C84"/>
<stop offset="0.5087" stop-color="#EA8855"/>
<stop offset="0.678731" stop-color="#F1A839"/>
<stop offset="0.771199" stop-color="#FF932F"/>
</linearGradient>
<linearGradient id="paint3_linear_3148_21332" x1="13.1172" y1="11.5459" x2="30.1584" y2="81.1888" gradientUnits="userSpaceOnUse">
<stop stop-color="#DD1C84"/>
<stop offset="0.5087" stop-color="#EA8855"/>
<stop offset="0.678731" stop-color="#F1A839"/>
<stop offset="0.771199" stop-color="#FF932F"/>
</linearGradient>
</defs>
</svg>
