<svg width="73" height="86" viewBox="0 0 73 86" fill="none" xmlns="http://www.w3.org/2000/svg">
<g opacity="0.8">
<path d="M0 10.0195H73V83.8823C73 84.9868 72.1046 85.8823 71 85.8823H2C0.895432 85.8823 0 84.9868 0 83.8823V10.0195Z" fill="white"/>
<path opacity="0.8" fill-rule="evenodd" clip-rule="evenodd" d="M72 11.0719H1V83.8824C1 84.4346 1.44772 84.8824 2 84.8824H71C71.5523 84.8824 72 84.4346 72 83.8824V11.0719ZM0 11.0719V2C0 2 0 2 0 2C0 1.8236 0.0228363 1.65254 0.0657138 1.48961C0.224206 0.887338 0.656527 0.396137 1.22151 0.15717C1.46079 0.0559643 1.72386 0 2 0H70.3367H71C72.1046 0 73 0.895431 73 2V83.8824C73 84.9869 72.1046 85.8824 71 85.8824H2C0.895432 85.8824 0 84.9869 0 83.8824V11.0719Z" fill="url(#paint0_linear_3148_20502)"/>
</g>
<path fill-rule="evenodd" clip-rule="evenodd" d="M23.2344 80.1562C32.1141 80.1562 39.3125 72.9578 39.3125 64.0781C39.3125 55.1984 32.1141 48 23.2344 48C14.3547 48 7.15625 55.1984 7.15625 64.0781C7.15625 72.9578 14.3547 80.1562 23.2344 80.1562ZM20.4072 69.7693L31.4113 58.243C31.7781 57.8588 32.5118 57.8588 32.6952 58.243C33.062 58.6272 33.062 59.2035 32.8786 59.7799L21.3242 71.8824C20.9574 72.2666 20.4072 72.2666 20.0404 71.8824L15.0885 66.6956C14.7217 66.3114 14.7217 65.9272 14.7217 65.543C14.9051 65.1588 15.2719 64.9667 15.6387 64.9667C15.8221 64.9667 16.1889 65.1588 16.3723 65.3509L20.4072 69.7693Z" fill="url(#paint1_linear_3148_20502)"/>
<path d="M47.5969 79.9365L49.6045 74.594L54.9547 72.6183C55.0191 72.5946 55.0756 72.5577 55.1218 72.5114C55.2089 72.4243 55.26 72.3041 55.2577 72.1758C55.2544 71.9788 55.127 71.8053 54.94 71.7435L43.6314 67.9961C43.4656 67.941 43.2828 67.9839 43.159 68.1072L43.1578 68.1083C43.0346 68.2315 42.9909 68.4132 43.0447 68.579L46.7217 79.9161C46.7825 80.1037 46.9551 80.2321 47.1521 80.2367C47.3487 80.2412 47.5277 80.1205 47.5969 79.9365Z" fill="url(#paint2_linear_3148_20502)"/>
<path opacity="0.2" fill-rule="evenodd" clip-rule="evenodd" d="M9.15625 20C8.05168 20 7.15625 20.8954 7.15625 22V28C7.15625 29.1046 8.05168 30 9.15625 30H63.8425C64.9471 30 65.8425 29.1046 65.8425 28V22C65.8425 20.8954 64.9471 20 63.8425 20H9.15625ZM9.15625 35C8.05168 35 7.15625 35.8954 7.15625 37V43C7.15625 44.1046 8.05168 45 9.15625 45H63.8425C64.9471 45 65.8425 44.1046 65.8425 43V37C65.8425 35.8954 64.9471 35 63.8425 35H9.15625Z" fill="url(#paint3_linear_3148_20502)"/>
<defs>
<linearGradient id="paint0_linear_3148_20502" x1="2.69233e-06" y1="-34.576" x2="101.367" y2="115.593" gradientUnits="userSpaceOnUse">
<stop stop-color="#DD1C84"/>
<stop offset="0.5087" stop-color="#EA8855"/>
<stop offset="0.678731" stop-color="#F1A839"/>
<stop offset="0.771199" stop-color="#FF932F"/>
</linearGradient>
<linearGradient id="paint1_linear_3148_20502" x1="7.15625" y1="35.054" x2="42.486" y2="96.6293" gradientUnits="userSpaceOnUse">
<stop stop-color="#DD1C84"/>
<stop offset="0.5087" stop-color="#EA8855"/>
<stop offset="0.678731" stop-color="#F1A839"/>
<stop offset="0.771199" stop-color="#FF932F"/>
</linearGradient>
<linearGradient id="paint2_linear_3148_20502" x1="35.7053" y1="68.9714" x2="60.3988" y2="75.7742" gradientUnits="userSpaceOnUse">
<stop stop-color="#DD1C84"/>
<stop offset="0.5087" stop-color="#EA8855"/>
<stop offset="0.678731" stop-color="#F1A839"/>
<stop offset="0.771199" stop-color="#FF932F"/>
</linearGradient>
<linearGradient id="paint3_linear_3148_20502" x1="7.15625" y1="9.93506" x2="21.8323" y2="69.9796" gradientUnits="userSpaceOnUse">
<stop stop-color="#DD1C84"/>
<stop offset="0.5087" stop-color="#EA8855"/>
<stop offset="0.678731" stop-color="#F1A839"/>
<stop offset="0.771199" stop-color="#FF932F"/>
</linearGradient>
</defs>
</svg>
