<svg width="92" height="86" viewBox="0 0 92 86" fill="none" xmlns="http://www.w3.org/2000/svg">
<path d="M7.31641 15.4902H84.6822V59.8993C84.6822 64.3176 81.1004 67.8993 76.6822 67.8993H15.3164C10.8981 67.8993 7.31641 64.3176 7.31641 59.8993V15.4902Z" fill="white"/>
<path opacity="0.2" fill-rule="evenodd" clip-rule="evenodd" d="M86.1655 26.9622C84.322 27.1807 83.0048 28.8522 83.2233 30.6956C83.289 31.2496 83.4859 31.7562 83.7793 32.1877L72.4493 42.6317C71.7593 42.0331 70.8291 41.7163 69.8505 41.8322C69.2783 41.9001 68.7567 42.1079 68.3161 42.4175L63.0213 36.6736C63.5828 35.991 63.8758 35.0894 63.7636 34.1424C63.5451 32.299 61.8736 30.9818 60.0301 31.2003C58.1867 31.4188 56.8695 33.0903 57.088 34.9337C57.1462 35.4246 57.3074 35.8783 57.5476 36.2755L46.1137 46.8155C45.4346 46.2688 44.5445 45.9852 43.6104 46.0959C41.767 46.3144 40.4497 47.9859 40.6682 49.8293C40.8867 51.6727 42.5582 52.9899 44.4016 52.7714C46.245 52.5529 47.5623 50.8814 47.3438 49.038C47.2784 48.4862 47.0827 47.9815 46.7912 47.551L58.1876 37.0456C58.881 37.6641 59.8261 37.9938 60.8214 37.8758C61.3605 37.8119 61.8547 37.6237 62.2786 37.3433L67.5922 43.1076C67.069 43.7808 66.8001 44.6521 66.9083 45.5657C67.1268 47.4091 68.7983 48.7263 70.6418 48.5078C72.4852 48.2893 73.8024 46.6178 73.5839 44.7744C73.5237 44.2668 73.3534 43.799 73.0996 43.3923L84.4582 32.922C85.1367 33.4661 86.0248 33.7482 86.9567 33.6377C88.8001 33.4192 90.1174 31.7477 89.8989 29.9043C89.6804 28.0609 88.0089 26.7437 86.1655 26.9622Z" fill="url(#paint0_linear_3148_21269)"/>
<path opacity="0.8" fill-rule="evenodd" clip-rule="evenodd" d="M37.8682 0.0161133C36.8755 0.0161133 36.0793 0.792088 35.5749 1.50334C35.3094 1.87783 35.093 2.27771 34.9389 2.64035C34.865 2.81442 34.8009 2.99039 34.7534 3.15815H3.94288C2.84451 3.15815 1.85666 3.51625 1.13861 4.18301C0.416871 4.85321 0 5.80607 0 6.92586V7.92738C0 9.02912 0.402709 10.2237 1.07411 11.1493C1.74404 12.0728 2.73814 12.7987 3.94288 12.7987H6.40835V58.8892C6.40835 64.3332 10.8606 68.7847 16.3038 68.7847H45.42L45.4121 79.166C43.7563 79.4078 42.4848 80.8337 42.4848 82.5567C42.4848 84.4492 44.019 85.9835 45.9116 85.9835C47.8041 85.9835 49.3384 84.4492 49.3384 82.5567C49.3384 80.8341 48.0674 79.4084 46.4121 79.1662L46.42 68.7847H75.5209C80.965 68.7847 85.4164 64.3324 85.4164 58.8892V30.4208C85.4164 30.1447 85.1925 29.9208 84.9164 29.9208C84.6402 29.9208 84.4164 30.1447 84.4164 30.4208V58.8892C84.4164 63.7802 80.4126 67.7847 75.5209 67.7847H45.9467C45.9381 67.7842 45.9295 67.784 45.9208 67.784C45.9119 67.784 45.903 67.7842 45.8941 67.7847H16.3038C11.4129 67.7847 7.40835 63.7809 7.40835 58.8892V17.3104H84.4157V21.9742C84.4157 22.2504 84.6396 22.4742 84.9157 22.4742C85.1919 22.4742 85.4157 22.2504 85.4157 21.9742V12.7987H87.4636C88.6713 12.7987 89.6483 12.0695 90.3 11.1434C90.9527 10.216 91.3335 9.02313 91.3335 7.92738V6.92586C91.3335 5.81402 90.9405 4.86161 90.2369 4.18818C89.5356 3.517 88.5629 3.15815 87.4636 3.15815H56.6531C56.6056 2.99039 56.5415 2.81442 56.4676 2.64035C56.3135 2.27771 56.0971 1.87783 55.8316 1.50334C55.3272 0.792087 54.531 0.0161133 53.5383 0.0161133H37.8682ZM39.6964 4.05082C39.4115 4.05082 39.1415 4.09772 38.901 4.18799C38.5908 4.3879 38.3838 4.73647 38.3838 5.12993V5.51404C38.3838 6.12866 38.8889 6.63376 39.5035 6.63376H52.1604C52.7758 6.63376 53.2809 6.12788 53.2809 5.51404V5.12993C53.2809 4.73626 53.0733 4.38732 52.7623 4.18744C52.5223 4.09753 52.2527 4.05082 51.9684 4.05082H39.6964ZM45.9116 80.1299C44.5713 80.1299 43.4848 81.2164 43.4848 82.5567C43.4848 83.897 44.5713 84.9835 45.9116 84.9835C47.2519 84.9835 48.3384 83.897 48.3384 82.5567C48.3384 81.2164 47.2519 80.1299 45.9116 80.1299Z" fill="url(#paint1_linear_3148_21269)"/>
<path fill-rule="evenodd" clip-rule="evenodd" d="M85.0777 21.4468C82.4535 21.7579 80.5784 24.1373 80.8894 26.7615C80.9918 27.6255 81.3185 28.4084 81.8044 29.0587L64.5087 45.0017C63.5126 44.0536 62.1173 43.5399 60.6449 43.7144C59.7537 43.82 58.9489 44.1642 58.2867 44.6756L50.0564 35.7472C50.9472 34.7585 51.4232 33.4053 51.2543 31.9799C50.9432 29.3558 48.5638 27.4806 45.9396 27.7917C43.3155 28.1027 41.4403 30.4822 41.7514 33.1063C41.8427 33.8766 42.1122 34.5824 42.5139 35.1873L25.0766 51.2613C24.0917 50.3944 22.7564 49.9339 21.3509 50.1005C18.7267 50.4115 16.8516 52.7909 17.1626 55.4151C17.4737 58.0392 19.8531 59.9144 22.4773 59.6034C25.1014 59.2923 26.9766 56.9129 26.6655 54.2887C26.5634 53.4269 26.2382 52.6459 25.7544 51.9966L43.1522 35.959C44.1513 36.9379 45.5688 37.472 47.066 37.2946C47.9081 37.1948 48.673 36.882 49.3133 36.4165L57.5632 45.3661C56.7314 46.3445 56.2935 47.6531 56.4566 49.029C56.7677 51.6532 59.1471 53.5283 61.7713 53.2173C64.3954 52.9062 66.2706 50.5268 65.9595 47.9026C65.8653 47.1075 65.5811 46.3811 65.1578 45.7635L82.4831 29.7931C83.4676 30.6572 84.8008 31.116 86.204 30.9497C88.8282 30.6387 90.7034 28.2592 90.3923 25.6351C90.0813 23.0109 87.7018 21.1358 85.0777 21.4468Z" fill="url(#paint2_linear_3148_21269)"/>
<path opacity="0.2" fill-rule="evenodd" clip-rule="evenodd" d="M17 24C15.8954 24 15 24.8954 15 26C15 27.1046 15.8954 28 17 28H35C36.1046 28 37 27.1046 37 26C37 24.8954 36.1046 24 35 24H17ZM17 29.9999C15.8954 29.9999 15 30.8954 15 31.9999C15 33.1045 15.8954 33.9999 17 33.9999H35C36.1046 33.9999 37 33.1045 37 31.9999C37 30.8954 36.1046 29.9999 35 29.9999H17Z" fill="url(#paint3_linear_3148_21269)"/>
<defs>
<linearGradient id="paint0_linear_3148_21269" x1="40.6445" y1="16.5287" x2="58.8113" y2="76.8715" gradientUnits="userSpaceOnUse">
<stop stop-color="#DD1C84"/>
<stop offset="0.5087" stop-color="#EA8855"/>
<stop offset="0.678731" stop-color="#F1A839"/>
<stop offset="0.771199" stop-color="#FF932F"/>
</linearGradient>
<linearGradient id="paint1_linear_3148_21269" x1="3.36849e-06" y1="-34.5941" x2="91.4864" y2="134.808" gradientUnits="userSpaceOnUse">
<stop stop-color="#DD1C84"/>
<stop offset="0.5087" stop-color="#EA8855"/>
<stop offset="0.678731" stop-color="#F1A839"/>
<stop offset="0.771199" stop-color="#FF932F"/>
</linearGradient>
<linearGradient id="paint2_linear_3148_21269" x1="17.1289" y1="6.02421" x2="43.8475" y2="95.3199" gradientUnits="userSpaceOnUse">
<stop stop-color="#DD1C84"/>
<stop offset="0.5087" stop-color="#EA8855"/>
<stop offset="0.678731" stop-color="#F1A839"/>
<stop offset="0.771199" stop-color="#FF932F"/>
</linearGradient>
<linearGradient id="paint3_linear_3148_21269" x1="15" y1="19.974" x2="21.2154" y2="43.8057" gradientUnits="userSpaceOnUse">
<stop stop-color="#DD1C84"/>
<stop offset="0.5087" stop-color="#EA8855"/>
<stop offset="0.678731" stop-color="#F1A839"/>
<stop offset="0.771199" stop-color="#FF932F"/>
</linearGradient>
</defs>
</svg>
