<svg width="132" height="132" viewBox="0 0 132 132" fill="none" xmlns="http://www.w3.org/2000/svg">
<path d="M65.556 131.112C101.762 131.112 131.112 101.762 131.112 65.556C131.112 29.3504 101.762 0 65.556 0C29.3504 0 0 29.3504 0 65.556C0 101.762 29.3504 131.112 65.556 131.112Z" fill="#ED6C53"/>
<path d="M65.556 131.112C101.762 131.112 131.112 101.762 131.112 65.556C131.112 29.3504 101.762 0 65.556 0C29.3504 0 0 29.3504 0 65.556C0 101.762 29.3504 131.112 65.556 131.112Z" fill="#F3725A"/>
<path d="M65.556 131.112C101.762 131.112 131.112 101.762 131.112 65.556C131.112 29.3504 101.762 0 65.556 0C29.3504 0 0 29.3504 0 65.556C0 101.762 29.3504 131.112 65.556 131.112Z" fill="url(#paint0_linear_3_17)"/>
<path d="M65.4486 125.863C98.8145 125.863 125.863 98.8145 125.863 65.4486C125.863 32.0826 98.8145 5.03418 65.4486 5.03418C32.0826 5.03418 5.03418 32.0826 5.03418 65.4486C5.03418 98.8145 32.0826 125.863 65.4486 125.863Z" fill="url(#paint1_linear_3_17)"/>
<path fill-rule="evenodd" clip-rule="evenodd" d="M55.7508 102.369C60.4478 102.369 65.819 101.179 71.2696 98.9557C71.4402 98.8874 71.6099 98.8143 71.7787 98.739C71.9339 98.6703 72.0883 98.5994 72.2399 98.5289L72.3076 98.4981L72.3184 98.4928C74.6209 97.9246 77.0163 97.1459 79.4099 96.1562C94.7861 89.8399 101.284 79.7521 102.226 72.3315C103.359 63.2523 97.5823 54.5695 90.322 48.0558C86.8678 44.0346 82.587 40.5146 78.3331 37.7984C72.9457 34.3467 67.4283 31.9815 62.5761 30.8919C57.741 29.8058 53.4917 29.9705 50.7064 31.6812C48.0303 33.3161 46.0618 36.4256 44.7034 41.0766C42.7195 43.3775 41.2592 46.8591 40.2627 51.5877C39.2564 56.363 38.7175 62.4428 38.611 69.932C38.5036 77.7657 39.0425 84.1763 40.2321 89.1215C41.4198 94.0589 43.2674 97.5842 45.8217 99.5855C48.1566 101.418 51.608 102.369 55.7508 102.369ZM74.9151 91.5942C79.9569 89.5206 84.0491 87.0396 87.3155 84.3754C84.1285 88.5736 79.0263 92.7882 71.4826 96.099C69.803 96.5007 68.1819 96.7786 66.6458 96.9323C65.0383 97.0935 63.5229 97.1186 62.1275 97.0081C59.3882 96.7914 57.1372 96.0541 55.5559 94.8208L55.3709 94.6671C56.6137 94.8882 57.9585 95.0085 59.3945 95.0085C64.0915 95.0085 69.4645 93.818 74.9151 91.5942ZM91.5152 74.8081C91.4809 75.1314 91.4285 75.4604 91.3617 75.7991C91.2995 76.1123 91.2246 76.4338 91.1388 76.7672C87.8192 81.2513 82.3036 85.7989 73.9449 89.2427C69.6558 91.0062 65.4986 92.0536 61.8306 92.3821C58.2149 92.7054 55.101 92.3284 52.8031 91.2771C50.3535 86.5489 49.163 78.5021 49.3273 67.1674C49.4329 60.0182 49.941 54.2039 50.858 49.6714C51.7552 45.2361 53.0368 42.0645 54.684 40.0654C59.8287 40.438 66.5934 42.9595 73.295 47.2613C78.1644 50.3827 83.0671 54.5809 86.5772 59.3518C90.09 64.1248 92.1867 69.4383 91.5152 74.8081ZM74.6904 45.1353C68.7704 41.3453 62.6907 38.8594 57.5072 37.942C58.0894 37.7081 58.7465 37.5342 59.4785 37.4232C60.1057 37.328 60.7881 37.2791 61.5237 37.2791C66.9355 37.2791 74.3889 39.9671 81.4813 44.5107C83.8957 46.0479 86.3101 47.8647 88.5611 49.8903C93.0387 55.1394 95.945 61.2681 95.1823 67.4484C95.028 68.69 94.6967 70.0232 94.157 71.4018C93.7824 66.3517 91.4448 61.5051 88.1224 57.1861C84.4463 52.4052 79.5444 48.2452 74.6904 45.1353ZM47.0185 42.2988C47.4553 41.8531 47.9292 41.473 48.4202 41.1757C48.8317 40.9216 49.2902 40.7102 49.7939 40.5415C50.3192 40.3657 50.895 40.2358 51.5187 40.1521C50.0493 42.5812 48.9437 45.8682 48.1693 50.0589C47.3245 54.6267 46.8678 60.2917 46.773 67.1335C46.6493 75.5018 47.2757 82.2441 48.6503 87.3149C47.5194 85.3624 46.6277 82.7493 45.9905 79.4675C45.1276 75.0226 44.7368 69.3872 44.8316 62.5815C44.9489 53.8732 45.6737 47.1406 47.0185 42.2988ZM57.0289 32.6937C60.8892 32.6937 65.8109 34.0719 70.9032 36.5295C68.6134 35.7596 66.4156 35.2324 64.3794 34.9655C60.6825 34.4815 57.4693 34.8506 55.2246 36.2432C54.6226 36.6114 54.0901 37.0417 53.5666 37.5496C51.6496 37.5262 49.9184 37.7848 48.4599 38.3507C49.469 36.1736 50.6956 34.6889 52.0891 33.8384C53.2913 33.0862 54.9412 32.6937 57.0289 32.6937ZM50.4997 92.8948L50.6242 92.9719C50.7344 93.0388 50.8472 93.1053 50.9609 93.1705C51.8202 94.6676 52.8265 95.8766 53.9836 96.787C55.7147 98.1488 58.0578 99.0125 60.8386 99.3776C58.3403 99.8093 56.0144 99.9401 53.9538 99.774C51.2254 99.5547 48.9852 98.8169 47.4156 97.5943C45.2892 95.9184 43.669 92.7939 42.6139 88.157C41.5606 83.5302 41.0823 77.4525 41.1879 69.9417C41.2908 62.5939 41.8251 56.6642 42.7926 52.081C42.4975 55.2099 42.3233 58.6951 42.2782 62.5485C42.159 70.3822 42.6979 76.7928 43.8902 81.738C45.0816 86.6758 46.9354 90.2011 49.4888 92.202L49.496 92.2073C49.7442 92.3923 49.9988 92.5711 50.2632 92.7437L50.4997 92.8948ZM97.7077 67.769C98.0092 65.3215 97.8097 62.9008 97.2176 60.548C99.1636 64.2244 100.153 68.1227 99.6545 72.0334C98.9659 77.5045 94.7202 84.822 85.0185 90.5583C89.6649 86.382 92.3528 81.8653 93.4927 77.8511C96.0073 74.3448 97.3223 70.8279 97.7077 67.769Z" fill="white"/>
<defs>
<linearGradient id="paint0_linear_3_17" x1="5.87362" y1="83.9089" x2="130.898" y2="54.5408" gradientUnits="userSpaceOnUse">
<stop stop-color="#FF6C2E"/>
<stop offset="1" stop-color="#F3725A" stop-opacity="0"/>
</linearGradient>
<linearGradient id="paint1_linear_3_17" x1="105.725" y1="31.885" x2="5.03415" y2="108.242" gradientUnits="userSpaceOnUse">
<stop stop-color="#FFA756"/>
<stop offset="1" stop-color="#F8765E" stop-opacity="0"/>
</linearGradient>
</defs>
</svg>
