<svg width="62" height="62" viewBox="0 0 62 62" fill="none" xmlns="http://www.w3.org/2000/svg">
<path fill-rule="evenodd" clip-rule="evenodd" d="M30.0924 9.22335C30.2786 8.53671 30.9018 8.06 31.6132 8.06H36.4193C36.8691 8.06 37.2974 8.25216 37.5964 8.58808C37.8954 8.92401 38.0366 9.37169 37.9845 9.81838C37.9019 10.5267 38.0231 10.8861 38.1176 11.0554C38.207 11.2155 38.3521 11.3499 38.6141 11.4572C39.225 11.7074 40.1754 11.6789 40.9273 11.4937C41.572 11.3348 42.2471 11.5972 42.6154 12.1496L44.8215 15.4588C45.0609 15.8179 45.1425 16.2595 45.0473 16.6805C44.9521 17.1015 44.6883 17.465 44.3176 17.6862C43.5931 18.1183 43.3059 18.4891 43.1934 18.714C43.0936 18.9134 43.0796 19.0966 43.1327 19.3141C43.2665 19.8631 43.8188 20.5228 44.4305 20.9628C45.0854 21.4339 45.2788 22.3234 44.8785 23.0238L42.6724 26.8845C42.269 27.5905 41.3946 27.8736 40.6539 27.538C39.8216 27.1609 39.3203 27.1335 39.059 27.1716C38.8337 27.2044 38.6823 27.2984 38.542 27.4675C38.1758 27.9088 37.9725 28.7904 37.9945 29.6056C38.006 30.0308 37.8452 30.4425 37.5485 30.7473C37.2519 31.0521 36.8446 31.224 36.4193 31.224H31.6132C31.1917 31.224 30.7877 31.0551 30.4917 30.7551C30.1956 30.4551 30.032 30.049 30.0376 29.6275C30.051 28.6078 29.8706 28.0339 29.6994 27.728C29.5462 27.454 29.3668 27.3293 29.1657 27.2574C28.6436 27.0706 27.7937 27.2002 27.0748 27.5328C26.349 27.8686 25.4868 27.6075 25.0692 26.9255L22.7055 23.0648C22.4777 22.6927 22.4144 22.2427 22.5306 21.8221C22.6469 21.4015 22.9324 21.048 23.3191 20.8457C24.1837 20.3935 24.5828 19.9796 24.7597 19.6996C24.9177 19.4496 24.9375 19.2501 24.9069 19.0609C24.8263 18.5634 24.3286 17.9163 23.6815 17.5081C22.957 17.0511 22.7303 16.0991 23.171 15.3645L25.0619 12.213C25.4382 11.5858 26.1967 11.3 26.8934 11.5229C27.8689 11.8351 28.4871 11.5707 28.9749 11.1253C29.5472 10.6028 29.9361 9.79961 30.0924 9.22335ZM32.7057 11.2116C32.355 11.9684 31.8312 12.785 31.0999 13.4527C30.1252 14.3427 28.7975 14.9397 27.1924 14.7877L26.5684 15.8277C27.2481 16.5315 27.8402 17.4607 28.0179 18.5567C28.1677 19.4817 28.0054 20.463 27.4239 21.3832C27.1135 21.8745 26.701 22.3217 26.1946 22.728L27.0989 24.205C28.0393 23.978 29.1601 23.9081 30.2276 24.2901C31.1145 24.6075 31.9091 25.2225 32.45 26.1896C32.757 26.7385 32.9644 27.3679 33.0797 28.0724H34.9704C35.1326 27.188 35.4718 26.232 36.1167 25.4549C36.6999 24.7521 37.5275 24.2099 38.6046 24.0529C39.2364 23.9609 39.899 24.0092 40.5872 24.1814L41.5081 22.5698C40.8928 21.9151 40.3147 21.0616 40.0707 20.0605C39.8618 19.2032 39.904 18.245 40.3749 17.3037C40.617 16.8198 40.9541 16.3769 41.3762 15.9724L40.5592 14.7469C39.6013 14.8455 38.4561 14.7982 37.4195 14.3736C36.6316 14.0508 35.8677 13.4908 35.3657 12.5914C35.1298 12.1689 34.9715 11.7068 34.8851 11.2116H32.7057Z" fill="#FF6C3E"/>
<path d="M37.0471 19.2403C37.0471 20.9809 35.6361 22.3919 33.8955 22.3919C32.1549 22.3919 30.7439 20.9809 30.7439 19.2403C30.7439 17.4998 32.1549 16.0888 33.8955 16.0888C35.6361 16.0888 37.0471 17.4998 37.0471 19.2403Z" fill="#FF6C3E"/>
<path fill-rule="evenodd" clip-rule="evenodd" d="M47.7709 31.9288C49.803 30.2761 52.7703 30.4899 54.5444 32.417C56.4694 34.5079 56.2453 37.7859 54.0538 39.5955L39.8004 51.365C38.2098 52.6784 36.1697 53.3105 34.1194 53.1381C31.0629 52.881 26.9268 52.546 23.9732 52.3067C22.9376 52.2228 22.0473 52.1507 21.4 52.0979C19.8157 51.9686 18.201 52.6875 16.9689 53.5566C15.6008 54.5217 13.377 54.5275 12.1898 52.8655L6.78577 45.2998C6.103 44.3439 5.97985 43.0358 6.61583 41.9506C7.60525 40.2625 9.1593 38.0529 11.0522 36.2282C12.9026 34.4444 15.3179 32.7956 18.0183 32.7216C20.9988 32.6399 22.9102 33.0025 24.7571 33.3528C24.8029 33.3615 24.8486 33.3702 24.8943 33.3788C26.7223 33.7252 28.5464 34.0569 31.5743 33.9821C34.0694 33.9205 36.0217 34.2106 37.4225 34.9778C38.9637 35.8219 39.6866 37.1588 39.8026 38.6669C40.0563 41.9648 36.9435 44.0666 33.9769 44.0666H26.8071C25.9368 44.0666 25.2313 43.3611 25.2313 42.4908C25.2313 41.6206 25.9368 40.9151 26.8071 40.9151H33.9769C35.8533 40.9151 36.7218 39.7077 36.6603 38.9086C36.6188 38.3681 36.4356 38.0306 35.9086 37.742C35.2412 37.3764 33.9631 37.0756 31.6521 37.1327C28.2981 37.2155 26.2221 36.8381 24.3076 36.4753C24.2681 36.4678 24.2286 36.4603 24.1893 36.4529C22.3842 36.1106 20.7443 35.7996 18.1046 35.872C16.5985 35.9132 14.9106 36.8862 13.2394 38.4972C11.6298 40.0488 10.2575 41.9795 9.36639 43.4905L14.7543 51.0336L14.7546 51.0341C14.7555 51.0353 14.7565 51.0369 14.7634 51.0406C14.7737 51.0463 14.7998 51.0575 14.8447 51.0623C14.9442 51.0729 15.0631 51.0442 15.1523 50.9813C16.6653 49.914 19.0207 48.7416 21.6564 48.9568C22.3004 49.0093 23.1877 49.0812 24.2208 49.1649C27.1748 49.4042 31.3214 49.74 34.3836 49.9976C35.6185 50.1015 36.8422 49.7205 37.7937 48.9348L52.0472 37.1654C52.8451 36.5065 52.9267 35.3129 52.2258 34.5515C51.5798 33.8499 50.4994 33.772 49.7594 34.3738L46.3168 37.1738C45.6416 37.723 44.6491 37.6208 44.1 36.9456C43.5509 36.2705 43.6531 35.278 44.3282 34.7289L47.7709 31.9288Z" fill="#FF6C3E"/>
</svg>
