<svg width="62" height="62" viewBox="0 0 62 62" fill="none" xmlns="http://www.w3.org/2000/svg">
<mask id="mask0_1534_19925" style="mask-type:alpha" maskUnits="userSpaceOnUse" x="4" y="3" width="53" height="57">
<path fill-rule="evenodd" clip-rule="evenodd" d="M56.2654 3.41003H4.65039V59.675H56.2654V53.6425C54.3888 55.3671 51.885 56.42 49.1354 56.42C43.3143 56.42 38.5954 51.7011 38.5954 45.88C38.5954 40.059 43.3143 35.34 49.1354 35.34C51.885 35.34 54.3888 36.3929 56.2654 38.1176V3.41003Z" fill="#D9D9D9"/>
</mask>
<g mask="url(#mask0_1534_19925)">
<path fill-rule="evenodd" clip-rule="evenodd" d="M14.0385 9.43878C13.916 9.43878 13.8167 9.53808 13.8167 9.66057V9.70493C13.8167 11.7629 12.1484 13.4311 10.0905 13.4311C9.99246 13.4311 9.91302 13.5106 9.91302 13.6086V46.4346C9.91302 47.8066 11.0252 48.9188 12.3972 48.9188H29.7948C29.7891 48.8604 29.7861 48.8012 29.7861 48.7413V13.6529C29.7861 13.5304 29.6868 13.4311 29.5643 13.4311C27.4819 13.4311 25.7937 11.743 25.7937 9.66057C25.7937 9.53808 25.6944 9.43878 25.5719 9.43878H14.0385ZM29.3425 9.66057C29.3425 9.78307 29.4418 9.88237 29.5643 9.88237C31.6467 9.88237 33.3348 11.5705 33.3348 13.6529V48.7413C33.3348 48.8012 33.3319 48.8604 33.3261 48.9188H47.3525C48.3324 48.9188 49.1268 49.7132 49.1268 50.6931C49.1268 51.6731 48.3324 52.4675 47.3525 52.4675H12.3972C9.06528 52.4675 6.36426 49.7665 6.36426 46.4346V13.6086C6.36426 11.5506 8.03253 9.88237 10.0905 9.88237C10.1885 9.88237 10.2679 9.80293 10.2679 9.70493V9.66057C10.2679 7.57815 11.956 5.89001 14.0385 5.89001H25.5719C27.6544 5.89001 29.3425 7.57815 29.3425 9.66057Z" fill="#FF6C3E"/>
<path fill-rule="evenodd" clip-rule="evenodd" d="M30.5846 25.3979C30.5846 24.4179 31.379 23.6235 32.3589 23.6235H43.0052C46.3371 23.6235 49.0381 26.3245 49.0381 29.6564V49.6285C49.0381 50.6085 48.2437 51.4029 47.2637 51.4029C46.2838 51.4029 45.4894 50.6085 45.4894 49.6285V29.6564C45.4894 28.2844 44.3772 27.1723 43.0052 27.1723H32.3589C31.379 27.1723 30.5846 26.3778 30.5846 25.3979Z" fill="#FF6C3E"/>
<path d="M16.9218 44.0392C16.9218 42.3733 18.2723 41.0228 19.9383 41.0228C21.6042 41.0228 22.9547 42.3733 22.9547 44.0392V50.427H16.9218V44.0392Z" fill="#FF6C3E"/>
<path fill-rule="evenodd" clip-rule="evenodd" d="M11.8648 18.2189C11.8648 17.2389 12.6593 16.4445 13.6392 16.4445H25.9712C26.9511 16.4445 27.7455 17.2389 27.7455 18.2189C27.7455 19.1988 26.9511 19.9932 25.9712 19.9932H13.6392C12.6593 19.9932 11.8648 19.1988 11.8648 18.2189Z" fill="#FF6C3E"/>
<path fill-rule="evenodd" clip-rule="evenodd" d="M11.8648 24.9615C11.8648 23.9815 12.6593 23.1871 13.6392 23.1871H25.9712C26.9511 23.1871 27.7455 23.9815 27.7455 24.9615C27.7455 25.9415 26.9511 26.7359 25.9712 26.7359H13.6392C12.6593 26.7359 11.8648 25.9415 11.8648 24.9615Z" fill="#FF6C3E"/>
<path fill-rule="evenodd" clip-rule="evenodd" d="M11.8648 31.7042C11.8648 30.7242 12.6593 29.9298 13.6392 29.9298H25.9712C26.9511 29.9298 27.7455 30.7242 27.7455 31.7042C27.7455 32.6841 26.9511 33.4785 25.9712 33.4785H13.6392C12.6593 33.4785 11.8648 32.6841 11.8648 31.7042Z" fill="#FF6C3E"/>
</g>
<path fill-rule="evenodd" clip-rule="evenodd" d="M48.3599 53.5571C52.7711 53.5571 56.347 49.9811 56.347 45.57C56.347 41.1589 52.7711 37.5829 48.3599 37.5829C43.9488 37.5829 40.3729 41.1589 40.3729 45.57C40.3729 49.9811 43.9488 53.5571 48.3599 53.5571ZM48.3599 56.885C54.609 56.885 59.6749 51.8191 59.6749 45.57C59.6749 39.3209 54.609 34.255 48.3599 34.255C42.1108 34.255 37.0449 39.3209 37.0449 45.57C37.0449 51.8191 42.1108 56.885 48.3599 56.885Z" fill="#FF6C3E"/>
<path fill-rule="evenodd" clip-rule="evenodd" d="M54.0562 42.2579C54.6908 42.9226 54.6664 43.9759 54.0016 44.6104L48.4239 49.9351C47.7809 50.549 46.7689 50.549 46.1259 49.9351L43.051 46.9997C42.3863 46.3652 42.3618 45.3119 42.9964 44.6471C43.631 43.9824 44.6843 43.958 45.349 44.5925L47.2749 46.4311L51.7037 42.2033C52.3684 41.5687 53.4217 41.5931 54.0562 42.2579Z" fill="#FF6C3E"/>
</svg>
