<svg width="62" height="62" viewBox="0 0 62 62" fill="none" xmlns="http://www.w3.org/2000/svg">
<path d="M29.0662 16.2208C28.6258 14.8463 26.7083 14.8463 26.2679 16.2208L25.4277 18.8433H22.7085C21.2834 18.8433 20.6909 20.6926 21.8438 21.5421L24.0437 23.1628L23.2034 25.7853C22.763 27.1598 24.3143 28.3027 25.4673 27.4533L27.6671 25.8325L29.8669 27.4533C31.0199 28.3027 32.5712 27.1598 32.1308 25.7853L31.2905 23.1628L33.4903 21.5421C34.6433 20.6926 34.0507 18.8433 32.6256 18.8433H29.9065L29.0662 16.2208Z" fill="#FF6C3E"/>
<path d="M18.9871 33.945C18.9871 33.0889 19.681 32.395 20.5371 32.395H34.4096C35.2656 32.395 35.9596 33.0889 35.9596 33.945C35.9596 34.801 35.2656 35.495 34.4096 35.495H20.5371C19.681 35.495 18.9871 34.801 18.9871 33.945Z" fill="#FF6C3E"/>
<path d="M25.1871 37.665C24.331 37.665 23.6371 38.3589 23.6371 39.215C23.6371 40.071 24.331 40.7649 25.1871 40.7649H29.7596C30.6156 40.7649 31.3096 40.071 31.3096 39.215C31.3096 38.3589 30.6156 37.665 29.7596 37.665H25.1871Z" fill="#FF6C3E"/>
<path fill-rule="evenodd" clip-rule="evenodd" d="M16.1128 6.19995C13.2022 6.19995 10.8428 8.55941 10.8428 11.47V43.7933C10.8428 46.7038 13.2022 49.0633 16.1128 49.0633H21.8935V50.9949C21.8935 53.9055 24.2529 56.2649 27.1635 56.2649H46.0413C48.9519 56.2649 51.3113 53.9055 51.3113 50.9949V24.2654C51.3113 21.3548 48.9519 18.9954 46.0413 18.9954H44.4082V11.47C44.4082 8.55941 42.0487 6.19995 39.1382 6.19995H16.1128ZM44.4082 22.0954V43.7933C44.4082 46.7038 42.0487 49.0633 39.1382 49.0633H24.9935V50.9949C24.9935 52.1934 25.965 53.1649 27.1635 53.1649H46.0413C47.2398 53.1649 48.2113 52.1934 48.2113 50.9949V24.2654C48.2113 23.0669 47.2398 22.0954 46.0413 22.0954H44.4082ZM13.9428 11.47C13.9428 10.2715 14.9143 9.29995 16.1128 9.29995H33.9886V11.2177C33.9886 14.1282 36.3481 16.4877 39.2586 16.4877H41.3082V43.7933C41.3082 44.9917 40.3367 45.9633 39.1382 45.9633H16.1128C14.9143 45.9633 13.9428 44.9917 13.9428 43.7933V11.47ZM37.0886 11.2177V9.29995H39.1382C40.3367 9.29995 41.3082 10.2715 41.3082 11.47V13.3877H39.2586C38.0602 13.3877 37.0886 12.4161 37.0886 11.2177Z" fill="#FF6C3E"/>
</svg>
