<svg width="62" height="62" viewBox="0 0 62 62" fill="none" xmlns="http://www.w3.org/2000/svg">
<path fill-rule="evenodd" clip-rule="evenodd" d="M14.2343 28.3279C13.9127 28.8841 13.3115 29.2583 12.6229 29.2583H5.88984C5.0338 29.2583 4.33984 28.5644 4.33984 27.7083C4.33984 26.8523 5.0338 26.1583 5.88984 26.1583H11.3829V25.556C11.3829 23.8925 13.3996 23.0656 14.5675 24.2502L18.5591 28.2992C19.273 29.0234 19.273 30.1867 18.5591 30.9108L14.5675 34.9598C13.3996 36.1444 11.3829 35.3175 11.3829 33.654V33.115H5.88984C5.0338 33.115 4.33984 32.421 4.33984 31.565C4.33984 30.7089 5.0338 30.015 5.88984 30.015H12.6229C13.2951 30.015 13.884 30.3715 14.2108 30.9059L15.4933 29.605L14.2343 28.3279Z" fill="#FF6C3E"/>
<path fill-rule="evenodd" clip-rule="evenodd" d="M47.3004 28.3279C47.6219 28.8841 48.2232 29.2583 48.9118 29.2583H55.6448C56.5009 29.2583 57.1948 28.5644 57.1948 27.7083C57.1948 26.8523 56.5009 26.1583 55.6448 26.1583H50.1518V25.556C50.1518 23.8925 48.135 23.0656 46.9672 24.2502L42.9756 28.2992C42.2617 29.0234 42.2617 30.1867 42.9756 30.9108L46.9672 34.9598C48.1351 36.1444 50.1518 35.3175 50.1518 33.654V33.115H55.6448C56.5009 33.115 57.1948 32.421 57.1948 31.565C57.1948 30.7089 56.5009 30.015 55.6448 30.015H48.9118C48.2396 30.015 47.6506 30.3715 47.3238 30.9059L46.0414 29.605L47.3004 28.3279Z" fill="#FF6C3E"/>
<path fill-rule="evenodd" clip-rule="evenodd" d="M32.1179 20.6539L25.209 30.4349L30.8718 32.5756C32.0276 33.0125 32.5858 34.3249 32.0989 35.4605L29.1705 42.2902L37.0307 31.2169L30.8846 28.8935C29.7081 28.4487 29.1549 27.1002 29.6802 25.9574L32.1179 20.6539ZM35.397 10.6386C36.9193 8.48345 40.243 10.3995 39.1411 12.7968L32.9132 26.3463L39.2536 28.7431C40.5833 29.2458 41.0786 30.8698 40.2558 32.029L26.6446 51.2043C25.1388 53.3257 21.8556 51.484 22.8807 49.0931L28.8669 35.1318L22.9887 32.9096C21.661 32.4077 21.1647 30.7872 21.9836 29.6279L35.397 10.6386Z" fill="#FF6C3E"/>
<path fill-rule="evenodd" clip-rule="evenodd" d="M47.7398 56.73C51.8488 56.73 55.1798 53.399 55.1798 49.29C55.1798 45.181 51.8488 41.85 47.7398 41.85C43.6308 41.85 40.2998 45.181 40.2998 49.29C40.2998 53.399 43.6308 56.73 47.7398 56.73ZM47.7398 59.83C53.5609 59.83 58.2798 55.1111 58.2798 49.29C58.2798 43.4689 53.5609 38.75 47.7398 38.75C41.9188 38.75 37.1998 43.4689 37.1998 49.29C37.1998 55.1111 41.9188 59.83 47.7398 59.83Z" fill="#FF6C3E"/>
<path fill-rule="evenodd" clip-rule="evenodd" d="M51.496 45.7397C52.0871 46.3589 52.0644 47.3401 51.4452 47.9312L46.2495 52.8912C45.6303 53.4823 44.6491 53.4595 44.058 52.8403C43.4669 52.2211 43.4897 51.24 44.1089 50.6489L49.3046 45.6889C49.9238 45.0978 50.9049 45.1205 51.496 45.7397Z" fill="#FF6C3E"/>
<path fill-rule="evenodd" clip-rule="evenodd" d="M44.058 45.7397C43.4669 46.3589 43.4897 47.3401 44.1089 47.9312L49.3046 52.8912C49.9237 53.4823 50.9049 53.4595 51.496 52.8403C52.0871 52.2211 52.0643 51.24 51.4451 50.6489L46.2494 45.6889C45.6302 45.0978 44.6491 45.1205 44.058 45.7397Z" fill="#FF6C3E"/>
</svg>
