<svg width="62" height="62" viewBox="0 0 62 62" fill="none" xmlns="http://www.w3.org/2000/svg">
<path fill-rule="evenodd" clip-rule="evenodd" d="M29.6047 34.1C33.7137 34.1 37.0447 30.769 37.0447 26.66C37.0447 22.551 33.7137 19.22 29.6047 19.22C25.4957 19.22 22.1647 22.551 22.1647 26.66C22.1647 30.769 25.4957 34.1 29.6047 34.1ZM29.6047 37.2C35.4258 37.2 40.1447 32.4811 40.1447 26.66C40.1447 20.8389 35.4258 16.12 29.6047 16.12C23.7836 16.12 19.0647 20.8389 19.0647 26.66C19.0647 32.4811 23.7836 37.2 29.6047 37.2Z" fill="#FF6C3E"/>
<path fill-rule="evenodd" clip-rule="evenodd" d="M42.2508 38.7376L41.9598 39.0186C41.7135 39.2565 41.7066 39.649 41.9445 39.8953L48.7913 46.9854C49.0292 47.2317 49.4217 47.2386 49.668 47.0007L49.959 46.7197C50.2054 46.4818 50.2122 46.0893 49.9743 45.843L43.1275 38.7529C42.8896 38.5066 42.4971 38.4997 42.2508 38.7376ZM39.8063 36.7887C38.3285 38.2158 38.2874 40.5708 39.7145 42.0487L46.5614 49.1389C47.9886 50.6168 50.3436 50.6579 51.8215 49.2307L52.1125 48.9497C53.5904 47.5225 53.6315 45.1675 52.2043 43.6896L45.3574 36.5994C43.9303 35.1216 41.5752 35.0805 40.0974 36.5076L39.8063 36.7887Z" fill="#FF6C3E"/>
<path fill-rule="evenodd" clip-rule="evenodd" d="M39.2812 38.2185L34.0887 33.026L36.2807 30.834L41.4732 36.0265L39.2812 38.2185Z" fill="#FF6C3E"/>
<path fill-rule="evenodd" clip-rule="evenodd" d="M34.9109 23.5747C35.502 24.1939 35.4792 25.1751 34.86 25.7662L29.6643 30.7262C29.0653 31.298 28.1227 31.298 27.5237 30.7262L24.6594 27.9918C24.0402 27.4007 24.0175 26.4196 24.6086 25.8004C25.1997 25.1812 26.1808 25.1584 26.8 25.7495L28.594 27.4621L32.7194 23.5239C33.3386 22.9328 34.3198 22.9555 34.9109 23.5747Z" fill="#FF6C3E"/>
<path fill-rule="evenodd" clip-rule="evenodd" d="M11.4697 11.16C11.4697 8.24947 13.8292 5.89001 16.7397 5.89001H45.1047C48.0153 5.89001 50.3747 8.24947 50.3747 11.16V29.76C50.3747 30.6161 49.6808 31.31 48.8247 31.31C47.9687 31.31 47.2747 30.6161 47.2747 29.76V11.16C47.2747 9.96156 46.3032 8.99001 45.1047 8.99001H16.7397C15.5413 8.99001 14.5697 9.96156 14.5697 11.16V50.4525C14.5697 51.651 15.5413 52.6225 16.7397 52.6225H42.6247C43.4808 52.6225 44.1747 53.3165 44.1747 54.1725C44.1747 55.0286 43.4808 55.7225 42.6247 55.7225H16.7397C13.8292 55.7225 11.4697 53.3631 11.4697 50.4525V11.16Z" fill="#FF6C3E"/>
<path fill-rule="evenodd" clip-rule="evenodd" d="M38.6722 12.1675V7.51751H41.7722V12.1675C41.7722 13.366 42.7438 14.3375 43.9422 14.3375H48.6697V17.4375H43.9422C41.0317 17.4375 38.6722 15.0781 38.6722 12.1675Z" fill="#FF6C3E"/>
</svg>
