<svg width="62" height="62" viewBox="0 0 62 62" fill="none" xmlns="http://www.w3.org/2000/svg">
<path fill-rule="evenodd" clip-rule="evenodd" d="M47.7709 31.7738C49.803 30.121 52.7703 30.3349 54.5444 32.2619C56.4694 34.3528 56.2453 37.6309 54.0538 39.4405L39.8004 51.2099C38.2098 52.5234 36.1697 53.1555 34.1194 52.983C31.0629 52.7259 26.9268 52.3909 23.9732 52.1517C22.9376 52.0678 22.0473 51.9957 21.4 51.9428C19.8157 51.8135 18.201 52.5324 16.9689 53.4016C15.6008 54.3666 13.377 54.3724 12.1898 52.7104L6.78577 45.1448C6.103 44.1889 5.97985 42.8807 6.61583 41.7956C7.60525 40.1074 9.1593 37.8979 11.0522 36.0732C12.9026 34.2894 15.3179 32.6405 18.0183 32.5665C20.9988 32.4849 22.9102 32.8474 24.7571 33.1978C24.8029 33.2065 24.8486 33.2151 24.8943 33.2238C26.7223 33.5702 28.5464 33.9018 31.5743 33.8271C34.0694 33.7654 36.0217 34.0556 37.4225 34.8228C38.9637 35.6669 39.6866 37.0038 39.8026 38.5119C40.0563 41.8098 36.9435 43.9116 33.9769 43.9116H26.8071C25.9368 43.9116 25.2313 43.2061 25.2313 42.3358C25.2313 41.4655 25.9368 40.76 26.8071 40.76H33.9769C35.8533 40.76 36.7218 39.5527 36.6603 38.7536C36.6188 38.2131 36.4356 37.8755 35.9086 37.5869C35.2412 37.2214 33.9631 36.9206 31.6521 36.9777C28.2981 37.0605 26.2221 36.683 24.3076 36.3203C24.2681 36.3128 24.2286 36.3053 24.1893 36.2978C22.3842 35.9556 20.7443 35.6446 18.1046 35.7169C16.5985 35.7582 14.9106 36.7312 13.2394 38.3422C11.6298 39.8938 10.2575 41.8245 9.36639 43.3355L14.7543 50.8786L14.7546 50.879C14.7555 50.8803 14.7565 50.8818 14.7634 50.8856C14.7737 50.8913 14.7998 50.9025 14.8447 50.9073C14.9442 50.9178 15.0631 50.8892 15.1523 50.8263C16.6653 49.759 19.0207 48.5866 21.6564 48.8017C22.3004 48.8543 23.1877 48.9262 24.2208 49.0098C27.1748 49.2491 31.3214 49.585 34.3836 49.8426C35.6185 49.9464 36.8422 49.5655 37.7937 48.7798L52.0472 37.0103C52.8451 36.3514 52.9267 35.1578 52.2258 34.3965C51.5798 33.6948 50.4994 33.617 49.7594 34.2188L46.3168 37.0188C45.6416 37.5679 44.6492 37.4658 44.1 36.7906C43.5509 36.1154 43.6531 35.1229 44.3282 34.5738L47.7709 31.7738Z" fill="#FF6C3E"/>
<path fill-rule="evenodd" clip-rule="evenodd" d="M25.9886 9.9091C26.9891 8.54427 28.6445 7.56996 31.0289 7.56996C33.1184 7.56996 34.6437 8.552 35.6406 9.6982C36.6017 10.8033 37.1184 12.1009 37.3152 13.0154C37.5196 13.9644 36.9123 14.8986 35.9589 15.102C35.0054 15.3054 34.0669 14.7009 33.8626 13.7518C33.7684 13.3142 33.4798 12.5838 32.971 11.9987C32.498 11.4548 31.8888 11.0848 31.0289 11.0848C29.7264 11.0848 29.1502 11.5591 28.8409 11.981C28.4629 12.4966 28.3313 13.1651 28.3313 13.5768C28.3313 14.2782 28.4605 14.7001 28.7385 15.0333C29.0416 15.3966 29.7406 15.9143 31.4312 16.3082C34.0497 16.9182 35.6414 18.0768 36.5149 19.4644C37.3548 20.7984 37.3545 22.0833 37.3544 22.5439L37.3544 22.5585C37.3544 23.0808 37.2682 24.5917 36.4448 26.0342C35.5419 27.6161 33.8326 28.9516 31.0289 28.9516C29.3239 28.9516 27.9202 28.2693 26.9094 27.4389C25.9279 26.6325 25.2042 25.595 24.8909 24.6595C24.5825 23.7387 25.0825 22.7434 26.0075 22.4365C26.9325 22.1296 27.9323 22.6272 28.2407 23.548C28.3155 23.7714 28.6105 24.2791 29.1571 24.7282C29.6745 25.1533 30.3082 25.4368 31.0289 25.4368C32.4941 25.4368 33.0649 24.8408 33.3747 24.2979C33.7641 23.6157 33.8234 22.8088 33.8234 22.5585C33.8234 22.2334 33.814 21.7932 33.5229 21.3308C33.2564 20.9075 32.568 20.1828 30.6265 19.7305C28.5383 19.244 27.0058 18.4579 26.022 17.2788C25.0132 16.0695 24.8003 14.7103 24.8003 13.5768C24.8003 12.6363 25.0568 11.1801 25.9886 9.9091Z" fill="#FF6C3E"/>
<path fill-rule="evenodd" clip-rule="evenodd" d="M31.1258 5.73499C32.1009 5.73499 32.8913 6.5218 32.8913 7.49238V7.68553C32.8913 8.65612 32.1009 9.44293 31.1258 9.44293C30.1508 9.44293 29.3603 8.65612 29.3603 7.68553V7.49238C29.3603 6.5218 30.1508 5.73499 31.1258 5.73499Z" fill="#FF6C3E"/>
<path fill-rule="evenodd" clip-rule="evenodd" d="M31.1258 25.63C32.1009 25.63 32.8913 26.4168 32.8913 27.3874V28.9326C32.8913 29.9032 32.1009 30.69 31.1258 30.69C30.1508 30.69 29.3603 29.9032 29.3603 28.9326V27.3874C29.3603 26.4168 30.1508 25.63 31.1258 25.63Z" fill="#FF6C3E"/>
</svg>
