<svg width="62" height="62" viewBox="0 0 62 62" fill="none" xmlns="http://www.w3.org/2000/svg">
<path fill-rule="evenodd" clip-rule="evenodd" d="M36.5029 43.7875C36.5029 42.9315 37.1968 42.2375 38.0529 42.2375H54.7154C55.5714 42.2375 56.2654 42.9315 56.2654 43.7875C56.2654 44.6435 55.5714 45.3375 54.7154 45.3375H38.0529C37.1968 45.3375 36.5029 44.6435 36.5029 43.7875Z" fill="#FF6C3E"/>
<path fill-rule="evenodd" clip-rule="evenodd" d="M11.5479 11.315C11.5479 8.40446 13.9073 6.045 16.8179 6.045H45.1829C48.0934 6.045 50.4529 8.40446 50.4529 11.315V29.915C50.4529 30.771 49.7589 31.465 48.9029 31.465C48.0468 31.465 47.3529 30.771 47.3529 29.915V11.315C47.3529 10.1165 46.3813 9.145 45.1829 9.145H16.8179C15.6194 9.145 14.6479 10.1165 14.6479 11.315V50.6075C14.6479 51.806 15.6194 52.7775 16.8179 52.7775H42.7029C43.5589 52.7775 44.2529 53.4715 44.2529 54.3275C44.2529 55.1835 43.5589 55.8775 42.7029 55.8775H16.8179C13.9073 55.8775 11.5479 53.518 11.5479 50.6075V11.315Z" fill="#FF6C3E"/>
<path fill-rule="evenodd" clip-rule="evenodd" d="M38.7504 12.3225V7.6725H41.8504V12.3225C41.8504 13.521 42.8219 14.4925 44.0204 14.4925H48.7479V17.5925H44.0204C41.1098 17.5925 38.7504 15.233 38.7504 12.3225Z" fill="#FF6C3E"/>
<path fill-rule="evenodd" clip-rule="evenodd" d="M47.4358 35.9328C48.0501 35.3365 49.0314 35.3512 49.6276 35.9654L57.1921 43.7588L49.6208 51.4615C49.0207 52.072 48.0393 52.0805 47.4288 51.4804C46.8183 50.8803 46.8099 49.899 47.4099 49.2885L52.8587 43.7452L47.4031 38.1246C46.8069 37.5103 46.8215 36.529 47.4358 35.9328Z" fill="#FF6C3E"/>
</svg>
