<svg width="62" height="62" viewBox="0 0 62 62" fill="none" xmlns="http://www.w3.org/2000/svg">
<path d="M29.8873 2.68733C30.2375 1.58437 31.7623 1.58436 32.1125 2.68733L32.7806 4.79178L34.9428 4.79178C36.076 4.79178 36.5472 6.27582 35.6304 6.95749L33.8812 8.25811L34.5493 10.3626C34.8995 11.4655 33.666 12.3827 32.7491 11.701L30.9999 10.4004L29.2506 11.701C28.3338 12.3827 27.1003 11.4655 27.4504 10.3626L28.1186 8.25811L26.3693 6.95749C25.4525 6.27582 25.9237 4.79178 27.057 4.79178L29.2192 4.79178L29.8873 2.68733Z" fill="#FF6C3E"/>
<path fill-rule="evenodd" clip-rule="evenodd" d="M39.3747 45.5395C36.4354 43.8955 33.2758 43.3769 31.3282 43.4L31.3191 43.4001H31.3099C20.7614 43.4001 16.8401 50.6906 16.1692 54.1571C16.0065 54.9976 15.1933 55.547 14.3529 55.3844C13.5124 55.2217 12.963 54.4085 13.1256 53.5681C14.0045 49.0274 18.916 40.3043 31.3009 40.3001C33.7194 40.2732 37.4212 40.8948 40.888 42.834C44.401 44.7989 47.6907 48.1333 49.0846 53.471C49.3009 54.2992 48.8048 55.146 47.9765 55.3623C47.1483 55.5786 46.3015 55.0825 46.0852 54.2543C44.9371 49.8579 42.2723 47.1602 39.3747 45.5395Z" fill="#FF6C3E"/>
<path fill-rule="evenodd" clip-rule="evenodd" d="M31.0774 22.4751C27.7816 22.4751 25.1099 25.1468 25.1099 28.4426C25.1099 31.7384 27.7816 34.4101 31.0774 34.4101C34.3732 34.4101 37.0449 31.7384 37.0449 28.4426C37.0449 25.1468 34.3732 22.4751 31.0774 22.4751ZM22.0099 28.4426C22.0099 23.4348 26.0696 19.3751 31.0774 19.3751C36.0852 19.3751 40.1449 23.4348 40.1449 28.4426C40.1449 33.4504 36.0852 37.5101 31.0774 37.5101C26.0696 37.5101 22.0099 33.4504 22.0099 28.4426Z" fill="#FF6C3E"/>
<path fill-rule="evenodd" clip-rule="evenodd" d="M16.4117 42.9807C9.23669 42.9807 6.61465 47.9158 6.17166 50.2047C6.00899 51.0451 5.19581 51.5946 4.35536 51.4319C3.51492 51.2692 2.96547 50.456 3.12814 49.6156C3.77926 46.2515 7.3937 39.8807 16.4117 39.8807C17.2677 39.8807 17.9617 40.5747 17.9617 41.4307C17.9617 42.2868 17.2677 42.9807 16.4117 42.9807Z" fill="#FF6C3E"/>
<path fill-rule="evenodd" clip-rule="evenodd" d="M16.2475 28.2101C14.1729 28.2101 12.491 29.8919 12.491 31.9666C12.491 34.0412 14.1729 35.723 16.2475 35.723C17.1035 35.723 17.7975 36.417 17.7975 37.273C17.7975 38.1291 17.1035 38.823 16.2475 38.823C12.4608 38.823 9.39104 35.7533 9.39104 31.9666C9.39104 28.1799 12.4608 25.1101 16.2475 25.1101C17.1799 25.1101 18.0725 25.2971 18.8869 25.637C19.6769 25.9667 20.05 26.8744 19.7203 27.6644C19.3906 28.4544 18.4829 28.8275 17.6929 28.4978C17.25 28.313 16.7627 28.2101 16.2475 28.2101Z" fill="#FF6C3E"/>
<path fill-rule="evenodd" clip-rule="evenodd" d="M51.3319 44.4329C49.3354 43.3161 47.1855 42.9652 45.88 42.9806C45.024 42.9907 44.3219 42.305 44.3118 41.4491C44.3016 40.5931 44.9873 39.891 45.8433 39.8808C47.6196 39.8598 50.3167 40.313 52.8452 41.7273C55.4155 43.165 57.8295 45.6123 58.8496 49.5185C59.0659 50.3468 58.5698 51.1935 57.7415 51.4098C56.9133 51.6261 56.0665 51.13 55.8502 50.3018C55.0759 47.3369 53.2868 45.5263 51.3319 44.4329Z" fill="#FF6C3E"/>
<path fill-rule="evenodd" clip-rule="evenodd" d="M45.6975 28.2101C45.2387 28.2101 44.8025 28.2916 44.4002 28.4397C43.5968 28.7353 42.7059 28.3237 42.4103 27.5204C42.1146 26.717 42.5262 25.8261 43.3296 25.5304C44.0697 25.2581 44.8681 25.1101 45.6975 25.1101C49.4842 25.1101 52.554 28.1799 52.554 31.9666C52.554 35.7533 49.4842 38.823 45.6975 38.823C44.8415 38.823 44.1475 38.1291 44.1475 37.273C44.1475 36.417 44.8415 35.723 45.6975 35.723C47.7721 35.723 49.454 34.0412 49.454 31.9666C49.454 29.8919 47.7721 28.2101 45.6975 28.2101Z" fill="#FF6C3E"/>
</svg>
