<svg width="561" height="220" viewBox="0 0 561 220" fill="none" xmlns="http://www.w3.org/2000/svg">
<g filter="url(#filter0_d_1716:25253)">
<mask id="mask0_1716:25253" style="mask-type:alpha" maskUnits="userSpaceOnUse" x="10" y="9" width="541" height="132">
<path d="M31.775 16.175C36.585 16.175 40.7883 17.15 44.385 19.1C48.025 21.0067 50.82 23.6933 52.77 27.16C54.72 30.6267 55.695 34.5917 55.695 39.055C55.695 43.475 54.6983 47.4183 52.705 50.885C50.755 54.3517 47.96 57.0817 44.32 59.075C40.7233 61.025 36.5417 62 31.775 62H13.64V16.175H31.775ZM30.8 50.755C34.5267 50.755 37.4517 49.7367 39.575 47.7C41.6983 45.6633 42.76 42.7817 42.76 39.055C42.76 35.285 41.6983 32.3817 39.575 30.345C37.4517 28.265 34.5267 27.225 30.8 27.225H26.38V50.755H30.8ZM96.2779 43.345C96.2779 44.3417 96.2129 45.3383 96.0829 46.335H71.9679C72.0979 48.3283 72.6395 49.8233 73.5929 50.82C74.5895 51.7733 75.8462 52.25 77.3629 52.25C79.4862 52.25 81.0029 51.2967 81.9129 49.39H95.4979C94.9345 51.9033 93.8295 54.1567 92.1829 56.15C90.5795 58.1 88.5429 59.6383 86.0729 60.765C83.6029 61.8917 80.8729 62.455 77.8829 62.455C74.2862 62.455 71.0795 61.6967 68.2629 60.18C65.4895 58.6633 63.3012 56.4967 61.6979 53.68C60.1379 50.8633 59.3579 47.5483 59.3579 43.735C59.3579 39.9217 60.1379 36.6283 61.6979 33.855C63.2579 31.0383 65.4245 28.8717 68.1979 27.355C71.0145 25.8383 74.2429 25.08 77.8829 25.08C81.4795 25.08 84.6645 25.8167 87.4379 27.29C90.2112 28.7633 92.3779 30.8867 93.9379 33.66C95.4979 36.39 96.2779 39.6183 96.2779 43.345ZM83.2779 40.16C83.2779 38.6 82.7579 37.3867 81.7179 36.52C80.6779 35.61 79.3779 35.155 77.8179 35.155C76.2579 35.155 74.9795 35.5883 73.9829 36.455C72.9862 37.2783 72.3362 38.5133 72.0329 40.16H83.2779ZM117.027 62.455C113.733 62.455 110.787 61.9133 108.187 60.83C105.63 59.7033 103.593 58.1867 102.077 56.28C100.603 54.33 99.7799 52.1417 99.6066 49.715H111.957C112.13 50.885 112.672 51.795 113.582 52.445C114.492 53.095 115.618 53.42 116.962 53.42C118.002 53.42 118.825 53.2033 119.432 52.77C120.038 52.3367 120.342 51.7733 120.342 51.08C120.342 50.17 119.843 49.4983 118.847 49.065C117.85 48.6317 116.203 48.155 113.907 47.635C111.307 47.115 109.14 46.53 107.407 45.88C105.673 45.23 104.157 44.1683 102.857 42.695C101.6 41.2217 100.972 39.2283 100.972 36.715C100.972 34.5483 101.557 32.5983 102.727 30.865C103.897 29.0883 105.608 27.68 107.862 26.64C110.158 25.6 112.91 25.08 116.117 25.08C120.883 25.08 124.632 26.25 127.362 28.59C130.092 30.93 131.673 34.0067 132.107 37.82H120.602C120.385 36.65 119.865 35.7617 119.042 35.155C118.262 34.505 117.2 34.18 115.857 34.18C114.817 34.18 114.015 34.375 113.452 34.765C112.932 35.155 112.672 35.6967 112.672 36.39C112.672 37.2567 113.17 37.9283 114.167 38.405C115.163 38.8383 116.767 39.2933 118.977 39.77C121.62 40.3333 123.808 40.9617 125.542 41.655C127.318 42.3483 128.857 43.475 130.157 45.035C131.5 46.5517 132.172 48.6317 132.172 51.275C132.172 53.3983 131.543 55.305 130.287 56.995C129.073 58.685 127.318 60.0283 125.022 61.025C122.768 61.9783 120.103 62.455 117.027 62.455ZM186.08 25.21C190.673 25.21 194.27 26.5967 196.87 29.37C199.513 32.1433 200.835 35.935 200.835 40.745V62H188.095V42.435C188.095 40.485 187.553 38.9683 186.47 37.885C185.387 36.8017 183.913 36.26 182.05 36.26C180.187 36.26 178.713 36.8017 177.63 37.885C176.547 38.9683 176.005 40.485 176.005 42.435V62H163.265V42.435C163.265 40.485 162.723 38.9683 161.64 37.885C160.6 36.8017 159.148 36.26 157.285 36.26C155.378 36.26 153.883 36.8017 152.8 37.885C151.717 38.9683 151.175 40.485 151.175 42.435V62H138.435V25.535H151.175V30.345C152.302 28.785 153.753 27.55 155.53 26.64C157.35 25.6867 159.43 25.21 161.77 25.21C164.457 25.21 166.84 25.795 168.92 26.965C171.043 28.135 172.712 29.7817 173.925 31.905C175.225 29.9117 176.937 28.3083 179.06 27.095C181.183 25.8383 183.523 25.21 186.08 25.21ZM224.78 62.455C221.14 62.455 217.868 61.6967 214.965 60.18C212.105 58.6633 209.851 56.4967 208.205 53.68C206.558 50.8633 205.735 47.5483 205.735 43.735C205.735 39.965 206.558 36.6717 208.205 33.855C209.895 31.0383 212.17 28.8717 215.03 27.355C217.933 25.8383 221.205 25.08 224.845 25.08C228.485 25.08 231.735 25.8383 234.595 27.355C237.498 28.8717 239.773 31.0383 241.42 33.855C243.11 36.6717 243.955 39.965 243.955 43.735C243.955 47.505 243.11 50.82 241.42 53.68C239.773 56.4967 237.498 58.6633 234.595 60.18C231.691 61.6967 228.42 62.455 224.78 62.455ZM224.78 51.405C226.556 51.405 228.03 50.755 229.2 49.455C230.413 48.1117 231.02 46.205 231.02 43.735C231.02 41.265 230.413 39.38 229.2 38.08C228.03 36.78 226.578 36.13 224.845 36.13C223.111 36.13 221.66 36.78 220.49 38.08C219.32 39.38 218.735 41.265 218.735 43.735C218.735 46.2483 219.298 48.155 220.425 49.455C221.551 50.755 223.003 51.405 224.78 51.405ZM264.673 62.455C261.38 62.455 258.433 61.9133 255.833 60.83C253.276 59.7033 251.24 58.1867 249.723 56.28C248.25 54.33 247.426 52.1417 247.253 49.715H259.603C259.776 50.885 260.318 51.795 261.228 52.445C262.138 53.095 263.265 53.42 264.608 53.42C265.648 53.42 266.471 53.2033 267.078 52.77C267.685 52.3367 267.988 51.7733 267.988 51.08C267.988 50.17 267.49 49.4983 266.493 49.065C265.496 48.6317 263.85 48.155 261.553 47.635C258.953 47.115 256.786 46.53 255.053 45.88C253.32 45.23 251.803 44.1683 250.503 42.695C249.246 41.2217 248.618 39.2283 248.618 36.715C248.618 34.5483 249.203 32.5983 250.373 30.865C251.543 29.0883 253.255 27.68 255.508 26.64C257.805 25.6 260.556 25.08 263.763 25.08C268.53 25.08 272.278 26.25 275.008 28.59C277.738 30.93 279.32 34.0067 279.753 37.82H268.248C268.031 36.65 267.511 35.7617 266.688 35.155C265.908 34.505 264.846 34.18 263.503 34.18C262.463 34.18 261.661 34.375 261.098 34.765C260.578 35.155 260.318 35.6967 260.318 36.39C260.318 37.2567 260.816 37.9283 261.813 38.405C262.81 38.8383 264.413 39.2933 266.623 39.77C269.266 40.3333 271.455 40.9617 273.188 41.655C274.965 42.3483 276.503 43.475 277.803 45.035C279.146 46.5517 279.818 48.6317 279.818 51.275C279.818 53.3983 279.19 55.305 277.933 56.995C276.72 58.685 274.965 60.0283 272.668 61.025C270.415 61.9783 267.75 62.455 264.673 62.455ZM327.513 54.525H311.263L308.793 62H295.403L312.108 16.175H326.798L343.438 62H329.983L327.513 54.525ZM324.328 44.775L319.388 29.955L314.513 44.775H324.328ZM354.025 22.155C351.772 22.155 349.952 21.5483 348.565 20.335C347.222 19.0783 346.55 17.5183 346.55 15.655C346.55 13.7483 347.222 12.1667 348.565 10.91C349.952 9.65333 351.772 9.025 354.025 9.025C356.235 9.025 358.012 9.65333 359.355 10.91C360.742 12.1667 361.435 13.7483 361.435 15.655C361.435 17.5183 360.742 19.0783 359.355 20.335C358.012 21.5483 356.235 22.155 354.025 22.155ZM360.33 25.535V62H347.59V25.535H360.33ZM380.325 31.97C381.755 29.89 383.489 28.2433 385.525 27.03C387.562 25.8167 389.75 25.21 392.09 25.21V38.795H388.515C385.742 38.795 383.684 39.3367 382.34 40.42C380.997 41.5033 380.325 43.3883 380.325 46.075V62H367.585V25.535H380.325V31.97ZM394.578 43.735C394.578 39.965 395.249 36.6717 396.593 33.855C397.979 31.0383 399.864 28.8717 402.248 27.355C404.631 25.8383 407.274 25.08 410.178 25.08C412.518 25.08 414.598 25.5783 416.418 26.575C418.281 27.5283 419.733 28.85 420.773 30.54V13.9H433.578V62H420.773V56.93C419.776 58.62 418.368 59.9633 416.548 60.96C414.728 61.9567 412.583 62.455 410.113 62.455C407.209 62.455 404.566 61.6967 402.183 60.18C399.843 58.6633 397.979 56.4967 396.593 53.68C395.249 50.82 394.578 47.505 394.578 43.735ZM420.838 43.735C420.838 41.395 420.188 39.5533 418.888 38.21C417.631 36.8667 416.071 36.195 414.208 36.195C412.301 36.195 410.719 36.8667 409.463 38.21C408.206 39.51 407.578 41.3517 407.578 43.735C407.578 46.075 408.206 47.9383 409.463 49.325C410.719 50.6683 412.301 51.34 414.208 51.34C416.071 51.34 417.631 50.6683 418.888 49.325C420.188 47.9817 420.838 46.1183 420.838 43.735ZM453.577 31.97C455.007 29.89 456.741 28.2433 458.777 27.03C460.814 25.8167 463.002 25.21 465.342 25.21V38.795H461.767C458.994 38.795 456.936 39.3367 455.592 40.42C454.249 41.5033 453.577 43.3883 453.577 46.075V62H440.837V25.535H453.577V31.97ZM486.875 62.455C483.235 62.455 479.963 61.6967 477.06 60.18C474.2 58.6633 471.946 56.4967 470.3 53.68C468.653 50.8633 467.83 47.5483 467.83 43.735C467.83 39.965 468.653 36.6717 470.3 33.855C471.99 31.0383 474.265 28.8717 477.125 27.355C480.028 25.8383 483.3 25.08 486.94 25.08C490.58 25.08 493.83 25.8383 496.69 27.355C499.593 28.8717 501.868 31.0383 503.515 33.855C505.205 36.6717 506.05 39.965 506.05 43.735C506.05 47.505 505.205 50.82 503.515 53.68C501.868 56.4967 499.593 58.6633 496.69 60.18C493.786 61.6967 490.515 62.455 486.875 62.455ZM486.875 51.405C488.651 51.405 490.125 50.755 491.295 49.455C492.508 48.1117 493.115 46.205 493.115 43.735C493.115 41.265 492.508 39.38 491.295 38.08C490.125 36.78 488.673 36.13 486.94 36.13C485.206 36.13 483.755 36.78 482.585 38.08C481.415 39.38 480.83 41.265 480.83 43.735C480.83 46.2483 481.393 48.155 482.52 49.455C483.646 50.755 485.098 51.405 486.875 51.405ZM523.973 30.605C524.969 28.915 526.378 27.5717 528.198 26.575C530.018 25.5783 532.163 25.08 534.633 25.08C537.536 25.08 540.158 25.8383 542.498 27.355C544.881 28.8717 546.744 31.0383 548.088 33.855C549.474 36.6717 550.168 39.965 550.168 43.735C550.168 47.505 549.474 50.82 548.088 53.68C546.744 56.4967 544.881 58.6633 542.498 60.18C540.158 61.6967 537.536 62.455 534.633 62.455C532.163 62.455 530.018 61.9567 528.198 60.96C526.421 59.9633 525.013 58.62 523.973 56.93V79.42H511.233V25.535H523.973V30.605ZM537.233 43.735C537.233 41.3517 536.583 39.51 535.283 38.21C534.026 36.8667 532.466 36.195 530.603 36.195C528.739 36.195 527.158 36.8667 525.858 38.21C524.601 39.5533 523.973 41.395 523.973 43.735C523.973 46.1183 524.601 47.9817 525.858 49.325C527.158 50.6683 528.739 51.34 530.603 51.34C532.466 51.34 534.026 50.6683 535.283 49.325C536.583 47.9383 537.233 46.075 537.233 43.735ZM58.23 94.175L42.435 140H26.12L10.26 94.175H23.91L34.31 127.26L44.645 94.175H58.23ZM97.0396 121.345C97.0396 122.342 96.9746 123.338 96.8446 124.335H72.7296C72.8596 126.328 73.4012 127.823 74.3546 128.82C75.3512 129.773 76.6079 130.25 78.1246 130.25C80.2479 130.25 81.7646 129.297 82.6746 127.39H96.2596C95.6962 129.903 94.5912 132.157 92.9446 134.15C91.3412 136.1 89.3046 137.638 86.8346 138.765C84.3646 139.892 81.6346 140.455 78.6446 140.455C75.0479 140.455 71.8412 139.697 69.0246 138.18C66.2512 136.663 64.0629 134.497 62.4596 131.68C60.8996 128.863 60.1196 125.548 60.1196 121.735C60.1196 117.922 60.8996 114.628 62.4596 111.855C64.0196 109.038 66.1862 106.872 68.9596 105.355C71.7762 103.838 75.0046 103.08 78.6446 103.08C82.2412 103.08 85.4262 103.817 88.1996 105.29C90.9729 106.763 93.1396 108.887 94.6996 111.66C96.2596 114.39 97.0396 117.618 97.0396 121.345ZM84.0396 118.16C84.0396 116.6 83.5196 115.387 82.4796 114.52C81.4396 113.61 80.1396 113.155 78.5796 113.155C77.0196 113.155 75.7412 113.588 74.7446 114.455C73.7479 115.278 73.0979 116.513 72.7946 118.16H84.0396ZM114.993 109.97C116.423 107.89 118.157 106.243 120.193 105.03C122.23 103.817 124.418 103.21 126.758 103.21V116.795H123.183C120.41 116.795 118.352 117.337 117.008 118.42C115.665 119.503 114.993 121.388 114.993 124.075V140H102.253V103.535H114.993V109.97ZM137.761 100.155C135.507 100.155 133.687 99.5483 132.301 98.335C130.957 97.0783 130.286 95.5183 130.286 93.655C130.286 91.7483 130.957 90.1667 132.301 88.91C133.687 87.6533 135.507 87.025 137.761 87.025C139.971 87.025 141.747 87.6533 143.091 88.91C144.477 90.1667 145.171 91.7483 145.171 93.655C145.171 95.5183 144.477 97.0783 143.091 98.335C141.747 99.5483 139.971 100.155 137.761 100.155ZM144.066 103.535V140H131.326V103.535H144.066ZM171.016 114.13H165.296V140H152.491V114.13H148.526V103.535H152.491V103.21C152.491 98.53 153.856 94.955 156.586 92.485C159.359 89.9717 163.324 88.715 168.481 88.715C169.521 88.715 170.322 88.7367 170.886 88.78V99.635C170.539 99.5917 170.062 99.57 169.456 99.57C168.069 99.57 167.051 99.895 166.401 100.545C165.751 101.152 165.382 102.148 165.296 103.535H171.016V114.13ZM182.004 100.155C179.75 100.155 177.93 99.5483 176.544 98.335C175.2 97.0783 174.529 95.5183 174.529 93.655C174.529 91.7483 175.2 90.1667 176.544 88.91C177.93 87.6533 179.75 87.025 182.004 87.025C184.214 87.025 185.99 87.6533 187.334 88.91C188.72 90.1667 189.414 91.7483 189.414 93.655C189.414 95.5183 188.72 97.0783 187.334 98.335C185.99 99.5483 184.214 100.155 182.004 100.155ZM188.309 103.535V140H175.569V103.535H188.309ZM230.404 121.345C230.404 122.342 230.339 123.338 230.209 124.335H206.094C206.224 126.328 206.765 127.823 207.719 128.82C208.715 129.773 209.972 130.25 211.489 130.25C213.612 130.25 215.129 129.297 216.039 127.39H229.624C229.06 129.903 227.955 132.157 226.309 134.15C224.705 136.1 222.669 137.638 220.199 138.765C217.729 139.892 214.999 140.455 212.009 140.455C208.412 140.455 205.205 139.697 202.389 138.18C199.615 136.663 197.427 134.497 195.824 131.68C194.264 128.863 193.484 125.548 193.484 121.735C193.484 117.922 194.264 114.628 195.824 111.855C197.384 109.038 199.55 106.872 202.324 105.355C205.14 103.838 208.369 103.08 212.009 103.08C215.605 103.08 218.79 103.817 221.564 105.29C224.337 106.763 226.504 108.887 228.064 111.66C229.624 114.39 230.404 117.618 230.404 121.345ZM217.404 118.16C217.404 116.6 216.884 115.387 215.844 114.52C214.804 113.61 213.504 113.155 211.944 113.155C210.384 113.155 209.105 113.588 208.109 114.455C207.112 115.278 206.462 116.513 206.159 118.16H217.404ZM248.358 109.97C249.788 107.89 251.521 106.243 253.558 105.03C255.594 103.817 257.783 103.21 260.123 103.21V116.795H256.548C253.774 116.795 251.716 117.337 250.373 118.42C249.029 119.503 248.358 121.388 248.358 124.075V140H235.618V103.535H248.358V109.97Z" fill="white"/>
</mask>
<g mask="url(#mask0_1716:25253)">
<g filter="url(#filter1_f_1716:25253)">
<path d="M-7 -14.1025H894V155.128H-7V-14.1025Z" fill="url(#paint0_angular_1716:25253)"/>
</g>
</g>
</g>
<defs>
<filter id="filter0_d_1716:25253" x="0.259766" y="3.0249" width="559.908" height="151.43" filterUnits="userSpaceOnUse" color-interpolation-filters="sRGB">
<feFlood flood-opacity="0" result="BackgroundImageFix"/>
<feColorMatrix in="SourceAlpha" type="matrix" values="0 0 0 0 0 0 0 0 0 0 0 0 0 0 0 0 0 0 127 0" result="hardAlpha"/>
<feOffset dy="4"/>
<feGaussianBlur stdDeviation="5"/>
<feColorMatrix type="matrix" values="0 0 0 0 0 0 0 0 0 0 0 0 0 0 0 0 0 0 0.07 0"/>
<feBlend mode="normal" in2="BackgroundImageFix" result="effect1_dropShadow_1716:25253"/>
<feBlend mode="normal" in="SourceGraphic" in2="effect1_dropShadow_1716:25253" result="shape"/>
</filter>
<filter id="filter1_f_1716:25253" x="-37" y="-44.1025" width="961" height="229.231" filterUnits="userSpaceOnUse" color-interpolation-filters="sRGB">
<feFlood flood-opacity="0" result="BackgroundImageFix"/>
<feBlend mode="normal" in="SourceGraphic" in2="BackgroundImageFix" result="shape"/>
<feGaussianBlur stdDeviation="15" result="effect1_foregroundBlur_1716:25253"/>
</filter>
<radialGradient id="paint0_angular_1716:25253" cx="0" cy="0" r="1" gradientUnits="userSpaceOnUse" gradientTransform="translate(424.508 53.7757) rotate(-90.9089) scale(95.7855 509.891)">
<stop offset="0.113234" stop-color="#FF9E75"/>
<stop offset="0.348958" stop-color="#FF4E02"/>
<stop offset="0.505208" stop-color="#FFB800"/>
<stop offset="0.875" stop-color="#FF3E9A"/>
</radialGradient>
</defs>
</svg>
