<svg viewBox="0 0 651 700" fill="none" xmlns="http://www.w3.org/2000/svg">
<g opacity="0.6">
<ellipse cx="461.361" cy="501.659" rx="28.9216" ry="28.9216" transform="rotate(30 461.361 501.659)" fill="#D04A25"/>
<ellipse cx="458.638" cy="497.572" rx="28.9689" ry="28.9689" transform="rotate(30 458.638 497.572)" fill="#ED6C53"/>
<ellipse cx="458.638" cy="497.572" rx="28.9689" ry="28.9689" transform="rotate(30 458.638 497.572)" fill="#F3725A"/>
<ellipse cx="458.638" cy="497.572" rx="28.9689" ry="28.9689" transform="rotate(30 458.638 497.572)" fill="url(#paint0_linear_1723:23199)"/>
<ellipse cx="458.62" cy="497.508" rx="26.6969" ry="26.6969" transform="rotate(30 458.62 497.508)" fill="url(#paint1_linear_1723:23199)"/>
<path fill-rule="evenodd" clip-rule="evenodd" d="M446.751 509.494C448.549 510.531 450.867 511.263 453.444 511.616C453.525 511.628 453.606 511.637 453.687 511.646C453.762 511.654 453.836 511.661 453.91 511.667L453.943 511.671L453.948 511.671C454.955 511.962 456.043 512.193 457.178 512.344C464.458 513.324 469.173 510.899 471.174 508.267C473.613 505.043 473.321 500.444 471.982 496.347C471.548 494.045 470.688 491.752 469.66 489.773C468.361 487.261 466.772 485.137 465.156 483.648C463.546 482.164 461.883 481.288 460.439 481.327C459.054 481.362 457.613 482.117 456.066 483.597C454.798 484.039 453.47 485.049 452.044 486.638C450.604 488.243 449.054 490.451 447.359 493.293C445.587 496.267 444.377 498.84 443.739 500.995C443.103 503.147 443.031 504.904 443.566 506.235C444.055 507.452 445.166 508.578 446.751 509.494ZM456.466 509.605C458.854 509.925 460.968 509.88 462.806 509.582C460.659 510.484 457.775 510.97 454.157 510.57C453.425 510.353 452.744 510.101 452.122 509.82C451.471 509.527 450.886 509.202 450.376 508.851C449.376 508.163 448.677 507.383 448.344 506.562L448.308 506.462C448.734 506.822 449.222 507.165 449.772 507.482C451.569 508.52 453.889 509.251 456.466 509.605ZM466.528 506.848C466.443 506.965 466.35 507.079 466.25 507.194C466.157 507.3 466.057 507.406 465.951 507.515C463.689 508.498 460.574 509.019 456.614 508.49C454.583 508.218 452.761 507.7 451.284 507.015C449.829 506.34 448.721 505.508 448.074 504.598C448.181 502.247 449.503 498.904 452.071 494.603C453.691 491.89 455.17 489.778 456.522 488.246C457.845 486.747 459.037 485.816 460.109 485.415C461.995 486.694 464.027 489.154 465.641 492.281C466.815 494.551 467.764 497.241 468.053 499.842C468.343 502.445 467.971 504.942 466.528 506.848ZM466.645 491.775C465.217 489.017 463.439 486.722 461.658 485.226C461.933 485.265 462.223 485.344 462.527 485.463C462.788 485.565 463.06 485.697 463.342 485.86C465.413 487.056 467.671 489.731 469.382 493.037C469.966 494.159 470.489 495.387 470.903 496.66C471.456 499.658 471.214 502.646 469.557 504.842C469.224 505.283 468.802 505.72 468.291 506.129C469.264 504.113 469.44 501.742 469.123 499.355C468.772 496.713 467.815 494.038 466.645 491.775ZM456.682 484.576C456.947 484.502 457.213 484.461 457.466 484.456C457.68 484.449 457.902 484.47 458.132 484.517C458.372 484.565 458.621 484.643 458.878 484.749C457.779 485.354 456.63 486.367 455.408 487.8C454.075 489.361 452.649 491.428 451.101 494.026C449.204 497.201 447.954 499.919 447.36 502.164C447.359 501.167 447.595 499.97 448.076 498.573C448.728 496.681 449.823 494.438 451.363 491.855C453.332 488.548 455.097 486.132 456.682 484.576ZM462.635 483.112C464.112 483.965 465.691 485.58 467.097 487.645C466.391 486.845 465.666 486.157 464.946 485.605C463.638 484.603 462.327 484.035 461.16 484.072C460.848 484.079 460.55 484.127 460.237 484.205C459.509 483.773 458.789 483.489 458.106 483.383C458.973 482.773 459.77 482.476 460.492 482.459C461.118 482.436 461.836 482.651 462.635 483.112ZM446.835 504.708L446.866 504.765C446.893 504.815 446.921 504.865 446.951 504.915C446.949 505.678 447.067 506.363 447.308 506.967C447.67 507.871 448.376 508.719 449.359 509.473C448.308 509.086 447.389 508.622 446.637 508.104C445.641 507.417 444.947 506.64 444.616 505.825C444.173 504.714 444.243 503.16 444.864 501.152C445.483 499.149 446.643 496.717 448.343 493.866C450.006 491.077 451.52 488.926 452.903 487.386C452.099 488.518 451.262 489.813 450.394 491.278C448.617 494.25 447.407 496.822 446.771 498.978C446.136 501.131 446.066 502.889 446.601 504.219L446.603 504.223C446.657 504.349 446.715 504.473 446.778 504.598L446.835 504.708ZM470.453 505.523C471.109 504.653 471.567 503.682 471.861 502.651C471.793 504.488 471.31 506.198 470.255 507.585C468.783 509.527 465.542 511.389 460.561 511.44C463.262 510.869 465.289 509.734 466.612 508.45C468.349 507.664 469.629 506.608 470.453 505.523Z" fill="white"/>
</g>
<g opacity="0.8">
<ellipse cx="89.311" cy="303.746" rx="42.228" ry="42.228" transform="rotate(30 89.311 303.746)" fill="#D04A25"/>
<ellipse cx="85.3343" cy="297.779" rx="42.2971" ry="42.2971" transform="rotate(30 85.3343 297.779)" fill="#ED6C53"/>
<ellipse cx="85.3343" cy="297.779" rx="42.2971" ry="42.2971" transform="rotate(30 85.3343 297.779)" fill="#F3725A"/>
<ellipse cx="85.3343" cy="297.779" rx="42.2971" ry="42.2971" transform="rotate(30 85.3343 297.779)" fill="url(#paint2_linear_1723:23199)"/>
<ellipse cx="85.3095" cy="297.684" rx="38.9797" ry="38.9797" transform="rotate(30 85.3095 297.684)" fill="url(#paint3_linear_1723:23199)"/>
<path fill-rule="evenodd" clip-rule="evenodd" d="M67.9799 315.186C70.6044 316.701 73.9894 317.769 77.7522 318.285C77.8696 318.302 77.988 318.316 78.1066 318.328C78.2155 318.34 78.3246 318.35 78.4321 318.359L78.4798 318.364L78.4876 318.365C79.9574 318.79 81.5471 319.128 83.2038 319.347C93.8332 320.778 100.718 317.237 103.639 313.395C107.2 308.687 106.774 301.972 104.818 295.99C104.186 292.629 102.929 289.281 101.429 286.391C99.5318 282.724 97.2119 279.623 94.8521 277.449C92.5009 275.282 90.0734 274.003 87.9652 274.061C85.9424 274.111 83.8394 275.213 81.5799 277.374C79.7291 278.019 77.79 279.494 75.7077 281.814C73.6049 284.158 71.3425 287.381 68.8669 291.532C66.2797 295.874 64.5127 299.63 63.5821 302.777C62.653 305.919 62.5481 308.485 63.3296 310.427C64.0432 312.204 65.665 313.849 67.9799 315.186ZM82.164 315.348C85.6501 315.815 88.7371 315.749 91.4218 315.314C88.2866 316.632 84.076 317.341 78.7928 316.757C77.7247 316.44 76.7293 316.072 75.8213 315.663C74.8711 315.234 74.0163 314.759 73.2723 314.247C71.8115 313.243 70.7916 312.104 70.3059 310.905L70.2521 310.76C70.8752 311.284 71.5879 311.785 72.3902 312.248C75.0147 313.764 78.401 314.832 82.164 315.348ZM96.8548 311.323C96.7313 311.493 96.5959 311.66 96.4494 311.828C96.3135 311.983 96.1679 312.138 96.0125 312.297C92.711 313.731 88.162 314.493 82.3805 313.721C79.415 313.322 76.7542 312.566 74.5987 311.567C72.4741 310.581 70.8558 309.366 69.9109 308.037C70.0675 304.605 71.9982 299.725 75.7466 293.444C78.112 289.483 80.2716 286.399 82.2462 284.162C84.1783 281.973 85.9176 280.614 87.483 280.029C90.2374 281.896 93.2039 285.488 95.5607 290.053C97.2745 293.368 98.6597 297.296 99.0819 301.094C99.5049 304.894 98.9623 308.54 96.8548 311.323ZM97.0262 289.316C94.941 285.288 92.3458 281.938 89.7455 279.753C90.1462 279.81 90.5695 279.925 91.0143 280.099C91.3955 280.248 91.7925 280.441 92.2036 280.678C95.2275 282.424 98.525 286.331 101.022 291.157C101.875 292.795 102.638 294.589 103.243 296.447C104.051 300.825 103.698 305.187 101.278 308.394C100.791 309.038 100.176 309.676 99.4298 310.272C100.85 307.33 101.107 303.867 100.644 300.382C100.132 296.525 98.7352 292.619 97.0262 289.316ZM82.4792 278.804C82.8671 278.695 83.2545 278.636 83.6247 278.628C83.9367 278.619 84.2611 278.649 84.5969 278.717C84.9471 278.788 85.3108 278.901 85.6863 279.056C84.0817 279.939 82.4035 281.419 80.6188 283.511C78.6732 285.791 76.5905 288.809 74.3303 292.601C71.5616 297.237 69.7365 301.207 68.8687 304.483C68.8667 303.028 69.2114 301.28 69.9141 299.241C70.8659 296.478 72.4655 293.204 74.714 289.431C77.5889 284.603 80.1658 281.075 82.4792 278.804ZM91.1713 276.666C93.3283 277.911 95.6338 280.269 97.6863 283.285C96.6552 282.116 95.5973 281.113 94.5456 280.307C92.6361 278.844 90.7216 278.013 89.0181 278.067C88.5629 278.079 88.1265 278.147 87.6702 278.262C86.6066 277.631 85.5559 277.217 84.5583 277.063C85.8245 276.172 86.9888 275.738 88.0419 275.712C88.9563 275.68 90.0048 275.993 91.1713 276.666ZM68.102 308.198L68.1467 308.281C68.1867 308.354 68.2282 308.428 68.2708 308.501C68.2679 309.614 68.4402 310.615 68.7931 311.497C69.321 312.816 70.3516 314.054 71.7876 315.156C70.2524 314.591 68.9106 313.914 67.8128 313.156C66.359 312.153 65.3452 311.018 64.8627 309.829C64.2151 308.206 64.3178 305.938 65.2242 303.007C66.1282 300.081 67.8216 296.531 70.3036 292.368C72.7315 288.296 74.943 285.155 76.9622 282.906C75.7879 284.559 74.5662 286.451 73.2979 288.589C70.7042 292.928 68.9372 296.684 68.008 299.832C67.0808 302.975 66.9794 305.543 67.7607 307.485L67.763 307.49C67.842 307.673 67.9265 307.855 68.0186 308.037L68.102 308.198ZM102.586 309.388C103.544 308.118 104.213 306.701 104.641 305.195C104.543 307.877 103.838 310.374 102.298 312.399C100.148 315.234 95.4151 317.953 88.1436 318.028C92.0872 317.194 95.0461 315.537 96.9781 313.662C99.5143 312.514 101.384 310.973 102.586 309.388Z" fill="white"/>
</g>
<path d="M180.974 217.029C171.876 206.192 174.766 190.185 177.361 182.668L230.465 131.308L320.283 123.835L464.775 192.426L563.258 322.573L545.59 392.647C545.59 392.647 541.413 399.454 537.783 402.965C535.971 404.718 532.797 407.067 532.797 407.067C527.913 409.482 525.23 410.201 513.389 408.948C501.548 407.696 487.113 398.729 481.476 394.892C475.559 397.584 459.609 401.637 440.52 394.804C421.432 387.971 406.694 376.14 401.938 370.777C391.097 370.916 361.054 367.239 327.61 351.42C294.167 335.601 274.906 305.876 269.557 293.481C264.221 292.145 249.451 287.624 232.257 276.301C215.062 264.978 209.46 246.271 208.808 238.333C201.61 234.178 190.073 227.866 180.974 217.029Z" fill="#A90D2D"/>
<path d="M177.295 182.63C174.7 190.148 171.356 205.892 180.455 216.73C189.063 226.982 199.853 233.184 207.087 237.342C207.482 237.569 207.866 237.79 208.239 238.005C211.299 232.23 217.206 223.089 227.529 210.754C243.283 191.93 265.836 174.123 275.144 167.573L279.502 157.002L184.82 174.791L177.295 182.63Z" fill="#A90D2D"/>
<path d="M489.308 400.414C485.843 398.581 482.939 396.801 481.026 395.499C475.109 398.19 458.504 401.865 439.416 395.032C420.633 388.309 406.502 376.161 401.524 370.664C412.082 353.41 423.285 327.649 430.54 310.966C433.888 303.269 436.395 297.505 437.61 295.399C440.935 289.641 451.845 255.632 456.885 239.347L515.991 260.592L542.226 295.263L489.308 400.414Z" fill="#DE96CC"/>
<path d="M480.955 214.293L443.243 314.356L407.463 376.328C404.72 373.981 402.626 371.911 401.287 370.401C390.447 370.541 360.404 366.864 326.96 351.045C293.516 335.226 274.456 306.482 269.107 294.087C267.007 293.561 263.417 292.391 258.786 290.475L367.122 146.003L464.124 192.05L480.955 214.293Z" fill="#A90D2D"/>
<path d="M206.44 236.97L209.245 225.499L299.719 133.774C318.173 149.664 353.501 182.973 347.176 189.093C339.269 196.743 316.278 224.476 296.383 251.379C280.467 272.901 271.568 288.819 269.108 294.087C263.772 292.751 248.801 287.249 231.607 275.926C214.413 264.603 208.81 245.896 208.159 237.959C207.77 237.734 207.369 237.504 206.957 237.267C206.786 237.169 206.614 237.07 206.44 236.97Z" fill="#DE96CC"/>
<path d="M268.33 221.386C277.456 209.205 290.213 197.084 295.45 192.547C304.112 183.588 305.848 188.08 314.379 193.006C322.232 197.54 315.735 204.258 294.532 230.406C280.995 247.098 268.97 267.124 265.293 271.981C261.617 276.838 256.456 278.221 248.603 273.687C240.751 269.154 238.99 264.647 243.146 257.449C247.302 250.251 256.922 236.611 268.33 221.386Z" fill="#EFACE0"/>
<path d="M485.009 346.485C490.995 332.491 495.113 315.384 496.424 308.579C499.852 296.598 495.094 297.341 486.562 292.415C478.71 287.882 476.139 296.867 464.097 328.304C456.409 348.373 445.079 368.8 442.711 374.413C440.343 380.025 441.726 385.186 449.578 389.72C457.43 394.253 462.213 393.525 466.369 386.327C470.525 379.129 477.527 363.977 485.009 346.485Z" fill="#EFACE0"/>
<path d="M361.161 315.988C370.066 302.981 387.288 271.743 394.785 257.75C408.623 232.585 406.929 224.626 423.537 241.195C435.414 253.044 434.985 259.147 429.77 272.713C424.555 286.279 396.497 336.388 388.941 349.476C381.385 362.563 367.92 355.661 351.736 348.935C335.553 342.209 350.03 332.245 361.161 315.988Z" fill="#C7243F"/>
<path fill-rule="evenodd" clip-rule="evenodd" d="M248.94 472.751L335.627 179.043L341.424 180.754L254.737 474.462L248.94 472.751Z" fill="#FFE5E0"/>
<path fill-rule="evenodd" clip-rule="evenodd" d="M257.26 468.923L467.418 249.991L471.779 254.177L261.62 473.109L257.26 468.923Z" fill="#FFE5E0"/>
<path fill-rule="evenodd" clip-rule="evenodd" d="M261.975 470.601L526.127 333.446L528.912 338.811L264.76 475.966L261.975 470.601Z" fill="#FFE5E0"/>
<path d="M547.86 382.94L254.459 469.223L256.165 475.022L545.388 389.968L547.86 382.94Z" fill="#FFE5E0"/>
<path fill-rule="evenodd" clip-rule="evenodd" d="M177.695 182.091L249.558 474.706L255.428 473.264L182.523 176.409L181.794 176.502L179.89 178.893L177.695 182.091Z" fill="#FFE5E0"/>
<path fill-rule="evenodd" clip-rule="evenodd" d="M245.547 471.85L232.454 171.137L238.493 170.874L251.586 471.587L245.547 471.85Z" fill="#FFE5E0"/>
<path d="M331.86 189.383L412.889 85.8535L419.613 85.2159C446.443 94.1007 466.807 106.859 479.486 115.577C489.558 122.503 494.666 125.778 499.321 129.605C505.237 134.47 510.419 140.229 524.132 155.518L490.222 229.965L467.871 268.678C464.258 266.339 461.105 264.462 458.772 263.282L454.495 255.578C454.399 255.414 454.296 255.24 454.188 255.055C450.505 248.773 439.8 230.516 408.016 212.166C376.971 194.242 347.29 189.903 335.098 191.879C334.297 191.25 333.208 190.396 331.86 189.383Z" fill="#FF5D6A"/>
<path d="M476.016 113.223C477.23 114.035 478.387 114.821 479.486 115.577C489.558 122.503 494.667 125.778 499.321 129.605C505.633 134.795 511.109 141.002 526.998 158.712C551.053 185.526 565.779 213.578 572.239 255.031L527.224 353.273C522.145 348.793 517.345 345.777 514.83 344.505C515.068 343.522 515.329 342.517 515.596 341.488C518.858 328.909 523.017 312.867 497.73 291.009C484.852 279.877 466.876 267.379 458.772 263.282L458.603 262.977C489.706 195.16 489.88 190.612 490.392 177.197C490.472 175.125 490.559 172.841 490.77 170.079C491.057 144.452 482.872 123.614 476.016 113.223Z" fill="#FFE3E1"/>
<path d="M525.681 157.244C526.112 157.725 526.55 158.214 526.997 158.712C554.602 189.482 569.921 221.883 574.561 274.294C578.273 316.222 556.7 370.715 545.449 392.72C545.569 386.972 543.925 372.995 536.397 363.064C528.868 353.134 518.882 346.554 514.83 344.505C514.858 344.391 514.886 344.276 514.914 344.161C515.735 342.63 516.651 340.903 517.622 339.07C520.344 333.933 523.506 327.967 526.265 323.189C535.332 307.484 555.268 229.129 539.321 190.258C533.033 174.929 528.633 164.309 525.681 157.244Z" fill="#FF5E6A"/>
<path d="M335.099 191.879C329.494 187.48 309.882 172.085 285.064 168.226C255.078 163.564 240.456 174.463 234.765 182.81C233.902 181.782 231.714 180.146 227.889 178.413L297.297 84.5104C316.789 78.1345 338.597 74.3318 362.422 75.0386C401.029 76.1839 432.442 88.4023 454.938 100.503C430.849 99.6553 416.455 108.315 396.896 120.083C395.878 120.695 394.846 121.316 393.797 121.945C373.782 133.945 346.743 172.718 335.099 191.879Z" fill="#FFE3DE"/>
<path fill-rule="evenodd" clip-rule="evenodd" d="M284.311 167.737C288.142 161.923 294.032 154.303 302.454 145.83C321.188 126.982 349.138 101.24 379.826 91.9109C397.846 86.433 412.672 85.3469 421.753 85.6618C404.477 79.685 384.416 75.2542 361.91 74.5865C338.085 73.8797 316.276 77.6824 296.785 84.0583L227.377 177.961C231.201 179.694 233.389 181.33 234.252 182.358C239.928 174.033 254.487 163.17 284.311 167.737Z" fill="#FFF1E3"/>
<path d="M234.764 182.81C232.868 180.552 224.581 175.36 206.599 172.656C189.862 170.139 180.387 177.911 177.097 182.971C185.814 168.296 208.879 137.236 232.141 119.349C261.953 96.427 306.665 73.3841 362.422 75.0381C375.86 75.4368 388.426 77.1771 400.049 79.787C380.006 80.0013 348.237 83.1343 313.175 105.934C276.897 129.524 243.177 166.727 234.764 182.81Z" fill="#FF9C82"/>
<path fill-rule="evenodd" clip-rule="evenodd" d="M386.223 201.548C374.536 196.85 363.67 194.014 354.629 192.588C364.988 178.247 379.936 159.32 394.922 142.662C411.741 123.967 429.879 116.225 437.035 113.17C437.133 113.128 437.229 113.087 437.322 113.048C444.271 110.079 447.367 109.25 449.883 112.447C451.263 114.2 444.818 120.876 437.423 128.536C431.329 134.849 424.589 141.83 421.05 147.277C419.863 149.104 418.619 150.884 417.095 153.062C412.193 160.075 404.402 171.22 386.32 201.386C386.287 201.44 386.255 201.494 386.223 201.548Z" fill="#FF937A"/>
<path fill-rule="evenodd" clip-rule="evenodd" d="M471.329 110.157C471.971 112.427 472.318 114.911 472.215 117.593C472.12 120.059 472.064 122.487 472.009 124.91C471.698 138.489 471.391 151.898 464.187 170.788C456.732 190.335 450.59 202.761 442.086 219.965C440.172 223.837 438.139 227.952 435.944 232.443C446.938 242.69 451.908 251.166 454.188 255.055C454.296 255.24 454.398 255.414 454.495 255.578L458.772 263.282C461.105 264.462 464.257 266.338 467.871 268.678L482.091 244.049L507.594 175.696L483.488 118.318C482.245 117.47 480.916 116.56 479.486 115.577C477.048 113.901 474.326 112.075 471.329 110.157Z" fill="#EC1E3E"/>
<path fill-rule="evenodd" clip-rule="evenodd" d="M484.057 118.706C495.07 132.589 507.216 151.97 508.317 165.378C510.273 189.192 511.372 216.001 486.18 274.745C485.395 276.576 484.585 278.265 483.754 279.819C473.996 272.5 464.183 266.018 458.772 263.282L458.603 262.977C489.706 195.16 489.88 190.612 490.392 177.197C490.471 175.125 490.559 172.841 490.77 170.079C491.057 144.452 482.872 123.614 476.016 113.223C477.23 114.035 478.387 114.821 479.486 115.577C481.136 116.712 482.653 117.748 484.057 118.706Z" fill="#FAD1DC"/>
<path fill-rule="evenodd" clip-rule="evenodd" d="M526.381 158.176C540.609 182.191 558.216 222.877 556.339 262.031C553.985 311.147 544.306 339.275 531.861 357.861C525.105 350.557 517.619 345.711 514.246 344.006C514.255 343.968 514.264 343.93 514.273 343.893C514.292 343.816 514.311 343.738 514.33 343.661C515.151 342.131 516.066 340.405 517.037 338.573L517.038 338.571C519.76 333.434 522.922 327.468 525.681 322.689C534.748 306.985 554.684 228.63 538.737 189.758C532.449 174.43 528.049 163.81 525.097 156.745L526.381 158.176Z" fill="#EC1F3C"/>
<path fill-rule="evenodd" clip-rule="evenodd" d="M398.029 79.3439C397.588 79.3231 397.132 79.3012 396.66 79.2787C385.571 78.7471 366.177 77.8175 344.119 81.0486C303.136 87.0517 266.1 111.91 238.629 135.312C218.727 152.266 208.872 166.196 205.617 172.519C205.941 172.56 206.269 172.606 206.599 172.656C224.581 175.36 232.868 180.551 234.764 182.809C243.177 166.726 276.897 129.523 313.174 105.934C348.237 83.1339 380.006 80.0008 400.048 79.7866C399.378 79.6361 398.705 79.4885 398.029 79.3439Z" fill="#FF5E6A"/>
<ellipse cx="231.142" cy="522.575" rx="84.1942" ry="84.1942" transform="rotate(30 231.142 522.575)" fill="#D04A25"/>
<circle cx="223.213" cy="510.679" r="84.332" transform="rotate(30 223.213 510.679)" fill="#ED6C53"/>
<circle cx="223.213" cy="510.679" r="84.332" transform="rotate(30 223.213 510.679)" fill="#F3725A"/>
<circle cx="223.213" cy="510.679" r="84.332" transform="rotate(30 223.213 510.679)" fill="url(#paint4_linear_1723:23199)"/>
<ellipse cx="223.163" cy="510.49" rx="77.7177" ry="77.7178" transform="rotate(30 223.163 510.49)" fill="url(#paint5_linear_1723:23199)"/>
<path fill-rule="evenodd" clip-rule="evenodd" d="M188.612 545.384C193.845 548.405 200.594 550.534 208.096 551.563C208.33 551.597 208.566 551.625 208.803 551.649C209.02 551.673 209.237 551.693 209.452 551.712L209.547 551.721L209.562 551.722C212.493 552.57 215.662 553.243 218.966 553.68C240.158 556.534 253.886 549.474 259.708 541.814C266.81 532.427 265.96 519.039 262.061 507.112C260.799 500.41 258.294 493.735 255.302 487.973C251.52 480.663 246.895 474.479 242.19 470.144C237.502 465.824 232.662 463.274 228.459 463.389C224.426 463.489 220.233 465.687 215.728 469.995C212.038 471.282 208.171 474.221 204.02 478.848C199.827 483.521 195.316 489.948 190.381 498.223C185.222 506.881 181.699 514.369 179.844 520.644C177.991 526.908 177.782 532.024 179.34 535.897C180.763 539.44 183.997 542.719 188.612 545.384ZM216.892 545.707C223.843 546.64 229.998 546.508 235.35 545.641C229.1 548.268 220.705 549.681 210.171 548.518C208.041 547.885 206.057 547.152 204.246 546.335C202.352 545.481 200.647 544.534 199.164 543.513C196.252 541.51 194.218 539.241 193.25 536.85L193.142 536.559C194.385 537.605 195.806 538.604 197.405 539.528C202.638 542.549 209.39 544.678 216.892 545.707ZM246.183 537.683C245.937 538.021 245.667 538.354 245.375 538.689C245.104 538.998 244.813 539.308 244.503 539.624C237.921 542.484 228.851 544.003 217.324 542.463C211.411 541.669 206.106 540.162 201.809 538.169C197.573 536.203 194.346 533.78 192.462 531.131C192.774 524.288 196.624 514.558 204.097 502.036C208.813 494.139 213.119 487.988 217.056 483.528C220.909 479.164 224.376 476.455 227.497 475.288C232.989 479.012 238.904 486.172 243.603 495.275C247.02 501.885 249.781 509.715 250.623 517.288C251.467 524.865 250.385 532.133 246.183 537.683ZM246.525 493.804C242.367 485.774 237.193 479.094 232.008 474.738C232.807 474.852 233.651 475.081 234.538 475.428C235.298 475.725 236.09 476.11 236.909 476.583C242.938 480.064 249.513 487.853 254.492 497.476C256.193 500.742 257.714 504.319 258.919 508.023C260.531 516.751 259.827 525.448 255.002 531.843C254.032 533.127 252.805 534.399 251.317 535.588C254.148 529.721 254.661 522.818 253.738 515.869C252.717 508.178 249.932 500.391 246.525 493.804ZM217.521 472.845C218.294 472.63 219.067 472.511 219.805 472.496C220.427 472.477 221.074 472.537 221.743 472.673C222.441 472.815 223.166 473.04 223.915 473.348C220.716 475.109 217.37 478.06 213.812 482.231C209.932 486.776 205.78 492.794 201.274 500.355C195.753 509.598 192.114 517.512 190.384 524.046C190.38 521.143 191.067 517.658 192.468 513.593C194.366 508.086 197.555 501.556 202.038 494.035C207.77 484.409 212.908 477.374 217.521 472.845ZM234.851 468.583C239.152 471.066 243.748 475.767 247.841 481.781C245.785 479.45 243.676 477.449 241.579 475.842C237.772 472.925 233.955 471.27 230.558 471.377C229.651 471.4 228.78 471.537 227.871 471.766C225.75 470.507 223.655 469.682 221.666 469.374C224.191 467.598 226.512 466.733 228.612 466.681C230.435 466.617 232.525 467.241 234.851 468.583ZM188.856 531.452L188.945 531.618C189.024 531.763 189.107 531.91 189.192 532.056C189.186 534.276 189.53 536.27 190.233 538.029C191.286 540.659 193.341 543.129 196.204 545.324C193.143 544.198 190.468 542.848 188.279 541.337C185.38 539.338 183.359 537.075 182.397 534.704C181.106 531.469 181.311 526.946 183.118 521.101C184.92 515.269 188.296 508.191 193.245 499.891C198.086 491.771 202.495 485.509 206.521 481.025C204.18 484.321 201.744 488.092 199.215 492.356C194.044 501.006 190.521 508.495 188.668 514.771C186.819 521.038 186.617 526.158 188.175 530.03L188.18 530.04C188.337 530.406 188.506 530.769 188.689 531.131L188.856 531.452ZM257.609 533.824C259.519 531.292 260.854 528.467 261.708 525.465C261.511 530.812 260.106 535.791 257.035 539.827C252.749 545.48 243.313 550.901 228.815 551.051C236.677 549.387 242.577 546.084 246.429 542.345C251.485 540.057 255.213 536.984 257.609 533.824Z" fill="white"/>
<defs>
<linearGradient id="paint0_linear_1723:23199" x1="432.264" y1="505.682" x2="487.512" y2="492.705" gradientUnits="userSpaceOnUse">
<stop stop-color="#FF6C2E"/>
<stop offset="1" stop-color="#F3725A" stop-opacity="0"/>
</linearGradient>
<linearGradient id="paint1_linear_1723:23199" x1="476.418" y1="482.676" x2="431.924" y2="516.418" gradientUnits="userSpaceOnUse">
<stop stop-color="#FFA756"/>
<stop offset="1" stop-color="#F8765E" stop-opacity="0"/>
</linearGradient>
<linearGradient id="paint2_linear_1723:23199" x1="46.8269" y1="309.62" x2="127.493" y2="290.672" gradientUnits="userSpaceOnUse">
<stop stop-color="#FF6C2E"/>
<stop offset="1" stop-color="#F3725A" stop-opacity="0"/>
</linearGradient>
<linearGradient id="paint3_linear_1723:23199" x1="111.296" y1="276.029" x2="46.3299" y2="325.295" gradientUnits="userSpaceOnUse">
<stop stop-color="#FFA756"/>
<stop offset="1" stop-color="#F8765E" stop-opacity="0"/>
</linearGradient>
<linearGradient id="paint4_linear_1723:23199" x1="146.437" y1="534.288" x2="307.27" y2="496.509" gradientUnits="userSpaceOnUse">
<stop stop-color="#FF6C2E"/>
<stop offset="1" stop-color="#F3725A" stop-opacity="0"/>
</linearGradient>
<linearGradient id="paint5_linear_1723:23199" x1="274.975" y1="467.314" x2="145.446" y2="565.54" gradientUnits="userSpaceOnUse">
<stop stop-color="#FFA756"/>
<stop offset="1" stop-color="#F8765E" stop-opacity="0"/>
</linearGradient>
</defs>
</svg>
