<svg width="328" height="95" viewBox="0 0 328 95" fill="none" xmlns="http://www.w3.org/2000/svg">
<g filter="url(#filter0_d_1726:23204)">
<mask id="mask0_1726:23204" style="mask-type:alpha" maskUnits="userSpaceOnUse" x="10" y="6" width="300" height="75">
<path d="M22.06 10.62C24.724 10.62 27.052 11.16 29.044 12.24C31.06 13.296 32.608 14.784 33.688 16.704C34.768 18.624 35.308 20.82 35.308 23.292C35.308 25.74 34.756 27.924 33.652 29.844C32.572 31.764 31.024 33.276 29.008 34.38C27.016 35.46 24.7 36 22.06 36H12.016V10.62H22.06ZM21.52 29.772C23.584 29.772 25.204 29.208 26.38 28.08C27.556 26.952 28.144 25.356 28.144 23.292C28.144 21.204 27.556 19.596 26.38 18.468C25.204 17.316 23.584 16.74 21.52 16.74H19.072V29.772H21.52ZM57.7847 25.668C57.7847 26.22 57.7487 26.772 57.6767 27.324H44.3207C44.3927 28.428 44.6927 29.256 45.2207 29.808C45.7727 30.336 46.4687 30.6 47.3087 30.6C48.4847 30.6 49.3247 30.072 49.8287 29.016H57.3527C57.0407 30.408 56.4287 31.656 55.5167 32.76C54.6287 33.84 53.5007 34.692 52.1327 35.316C50.7647 35.94 49.2527 36.252 47.5967 36.252C45.6047 36.252 43.8287 35.832 42.2687 34.992C40.7327 34.152 39.5207 32.952 38.6327 31.392C37.7687 29.832 37.3367 27.996 37.3367 25.884C37.3367 23.772 37.7687 21.948 38.6327 20.412C39.4967 18.852 40.6967 17.652 42.2327 16.812C43.7927 15.972 45.5807 15.552 47.5967 15.552C49.5887 15.552 51.3527 15.96 52.8887 16.776C54.4247 17.592 55.6247 18.768 56.4887 20.304C57.3527 21.816 57.7847 23.604 57.7847 25.668ZM50.5847 23.904C50.5847 23.04 50.2967 22.368 49.7207 21.888C49.1447 21.384 48.4247 21.132 47.5607 21.132C46.6967 21.132 45.9887 21.372 45.4367 21.852C44.8847 22.308 44.5247 22.992 44.3567 23.904H50.5847ZM69.2763 36.252C67.4523 36.252 65.8203 35.952 64.3803 35.352C62.9643 34.728 61.8363 33.888 60.9963 32.832C60.1803 31.752 59.7243 30.54 59.6283 29.196H66.4683C66.5643 29.844 66.8643 30.348 67.3683 30.708C67.8723 31.068 68.4963 31.248 69.2402 31.248C69.8163 31.248 70.2723 31.128 70.6083 30.888C70.9443 30.648 71.1123 30.336 71.1123 29.952C71.1123 29.448 70.8363 29.076 70.2843 28.836C69.7323 28.596 68.8203 28.332 67.5483 28.044C66.1083 27.756 64.9083 27.432 63.9482 27.072C62.9883 26.712 62.1483 26.124 61.4283 25.308C60.7323 24.492 60.3843 23.388 60.3843 21.996C60.3843 20.796 60.7083 19.716 61.3563 18.756C62.0043 17.772 62.9523 16.992 64.2003 16.416C65.4723 15.84 66.9963 15.552 68.7723 15.552C71.4123 15.552 73.4883 16.2 75.0003 17.496C76.5123 18.792 77.3883 20.496 77.6283 22.608H71.2563C71.1363 21.96 70.8483 21.468 70.3923 21.132C69.9603 20.772 69.3723 20.592 68.6283 20.592C68.0523 20.592 67.6083 20.7 67.2963 20.916C67.0083 21.132 66.8643 21.432 66.8643 21.816C66.8643 22.296 67.1403 22.668 67.6923 22.932C68.2443 23.172 69.1323 23.424 70.3563 23.688C71.8203 24 73.0323 24.348 73.9923 24.732C74.9763 25.116 75.8283 25.74 76.5483 26.604C77.2923 27.444 77.6642 28.596 77.6642 30.06C77.6642 31.236 77.3163 32.292 76.6203 33.228C75.9483 34.164 74.9763 34.908 73.7043 35.46C72.4563 35.988 70.9803 36.252 69.2763 36.252ZM107.521 15.624C110.065 15.624 112.057 16.392 113.497 17.928C114.961 19.464 115.693 21.564 115.693 24.228V36H108.637V25.164C108.637 24.084 108.337 23.244 107.737 22.644C107.137 22.044 106.321 21.744 105.289 21.744C104.257 21.744 103.441 22.044 102.841 22.644C102.241 23.244 101.941 24.084 101.941 25.164V36H94.8852V25.164C94.8852 24.084 94.5852 23.244 93.9852 22.644C93.4092 22.044 92.6052 21.744 91.5732 21.744C90.5172 21.744 89.6892 22.044 89.0892 22.644C88.4892 23.244 88.1892 24.084 88.1892 25.164V36H81.1332V15.804H88.1892V18.468C88.8132 17.604 89.6172 16.92 90.6012 16.416C91.6092 15.888 92.7612 15.624 94.0572 15.624C95.5452 15.624 96.8652 15.948 98.0172 16.596C99.1932 17.244 100.117 18.156 100.789 19.332C101.509 18.228 102.457 17.34 103.633 16.668C104.809 15.972 106.105 15.624 107.521 15.624ZM128.955 36.252C126.939 36.252 125.127 35.832 123.519 34.992C121.935 34.152 120.687 32.952 119.775 31.392C118.863 29.832 118.407 27.996 118.407 25.884C118.407 23.796 118.863 21.972 119.775 20.412C120.711 18.852 121.971 17.652 123.555 16.812C125.163 15.972 126.975 15.552 128.991 15.552C131.007 15.552 132.807 15.972 134.391 16.812C135.999 17.652 137.259 18.852 138.171 20.412C139.107 21.972 139.575 23.796 139.575 25.884C139.575 27.972 139.107 29.808 138.171 31.392C137.259 32.952 135.999 34.152 134.391 34.992C132.783 35.832 130.971 36.252 128.955 36.252ZM128.955 30.132C129.939 30.132 130.755 29.772 131.403 29.052C132.075 28.308 132.411 27.252 132.411 25.884C132.411 24.516 132.075 23.472 131.403 22.752C130.755 22.032 129.951 21.672 128.991 21.672C128.031 21.672 127.227 22.032 126.579 22.752C125.931 23.472 125.607 24.516 125.607 25.884C125.607 27.276 125.919 28.332 126.543 29.052C127.167 29.772 127.971 30.132 128.955 30.132ZM151.05 36.252C149.226 36.252 147.594 35.952 146.154 35.352C144.738 34.728 143.61 33.888 142.77 32.832C141.954 31.752 141.498 30.54 141.402 29.196H148.242C148.338 29.844 148.638 30.348 149.142 30.708C149.646 31.068 150.27 31.248 151.014 31.248C151.59 31.248 152.046 31.128 152.382 30.888C152.718 30.648 152.886 30.336 152.886 29.952C152.886 29.448 152.61 29.076 152.058 28.836C151.506 28.596 150.594 28.332 149.322 28.044C147.882 27.756 146.682 27.432 145.722 27.072C144.762 26.712 143.922 26.124 143.202 25.308C142.506 24.492 142.158 23.388 142.158 21.996C142.158 20.796 142.482 19.716 143.13 18.756C143.778 17.772 144.726 16.992 145.974 16.416C147.246 15.84 148.77 15.552 150.546 15.552C153.186 15.552 155.262 16.2 156.774 17.496C158.286 18.792 159.162 20.496 159.402 22.608H153.03C152.91 21.96 152.622 21.468 152.166 21.132C151.734 20.772 151.146 20.592 150.402 20.592C149.826 20.592 149.382 20.7 149.07 20.916C148.782 21.132 148.638 21.432 148.638 21.816C148.638 22.296 148.914 22.668 149.466 22.932C150.018 23.172 150.906 23.424 152.13 23.688C153.594 24 154.806 24.348 155.766 24.732C156.75 25.116 157.602 25.74 158.322 26.604C159.066 27.444 159.438 28.596 159.438 30.06C159.438 31.236 159.09 32.292 158.394 33.228C157.722 34.164 156.75 34.908 155.478 35.46C154.23 35.988 152.754 36.252 151.05 36.252ZM185.853 31.86H176.853L175.485 36H168.069L177.321 10.62H185.457L194.673 36H187.221L185.853 31.86ZM184.089 26.46L181.353 18.252L178.653 26.46H184.089ZM200.537 13.932C199.289 13.932 198.281 13.596 197.513 12.924C196.769 12.228 196.397 11.364 196.397 10.332C196.397 9.276 196.769 8.4 197.513 7.704C198.281 7.008 199.289 6.66 200.537 6.66C201.761 6.66 202.745 7.008 203.489 7.704C204.257 8.4 204.641 9.276 204.641 10.332C204.641 11.364 204.257 12.228 203.489 12.924C202.745 13.596 201.761 13.932 200.537 13.932ZM204.029 15.804V36H196.973V15.804H204.029ZM215.103 19.368C215.895 18.216 216.855 17.304 217.983 16.632C219.111 15.96 220.323 15.624 221.619 15.624V23.148H219.639C218.103 23.148 216.963 23.448 216.219 24.048C215.475 24.648 215.103 25.692 215.103 27.18V36H208.047V15.804H215.103V19.368ZM222.997 25.884C222.997 23.796 223.369 21.972 224.113 20.412C224.881 18.852 225.925 17.652 227.245 16.812C228.565 15.972 230.029 15.552 231.637 15.552C232.933 15.552 234.085 15.828 235.093 16.38C236.125 16.908 236.929 17.64 237.505 18.576V9.36H244.597V36H237.505V33.192C236.953 34.128 236.173 34.872 235.165 35.424C234.157 35.976 232.969 36.252 231.601 36.252C229.993 36.252 228.529 35.832 227.209 34.992C225.913 34.152 224.881 32.952 224.113 31.392C223.369 29.808 222.997 27.972 222.997 25.884ZM237.541 25.884C237.541 24.588 237.181 23.568 236.461 22.824C235.765 22.08 234.901 21.708 233.869 21.708C232.813 21.708 231.937 22.08 231.241 22.824C230.545 23.544 230.197 24.564 230.197 25.884C230.197 27.18 230.545 28.212 231.241 28.98C231.937 29.724 232.813 30.096 233.869 30.096C234.901 30.096 235.765 29.724 236.461 28.98C237.181 28.236 237.541 27.204 237.541 25.884ZM255.674 19.368C256.466 18.216 257.426 17.304 258.554 16.632C259.682 15.96 260.894 15.624 262.19 15.624V23.148H260.21C258.674 23.148 257.534 23.448 256.79 24.048C256.046 24.648 255.674 25.692 255.674 27.18V36H248.618V15.804H255.674V19.368ZM274.115 36.252C272.099 36.252 270.287 35.832 268.679 34.992C267.095 34.152 265.847 32.952 264.935 31.392C264.023 29.832 263.567 27.996 263.567 25.884C263.567 23.796 264.023 21.972 264.935 20.412C265.871 18.852 267.131 17.652 268.715 16.812C270.323 15.972 272.135 15.552 274.151 15.552C276.167 15.552 277.967 15.972 279.551 16.812C281.159 17.652 282.419 18.852 283.331 20.412C284.267 21.972 284.735 23.796 284.735 25.884C284.735 27.972 284.267 29.808 283.331 31.392C282.419 32.952 281.159 34.152 279.551 34.992C277.943 35.832 276.131 36.252 274.115 36.252ZM274.115 30.132C275.099 30.132 275.915 29.772 276.563 29.052C277.235 28.308 277.571 27.252 277.571 25.884C277.571 24.516 277.235 23.472 276.563 22.752C275.915 22.032 275.111 21.672 274.151 21.672C273.191 21.672 272.387 22.032 271.739 22.752C271.091 23.472 270.767 24.516 270.767 25.884C270.767 27.276 271.079 28.332 271.703 29.052C272.327 29.772 273.131 30.132 274.115 30.132ZM294.662 18.612C295.214 17.676 295.994 16.932 297.002 16.38C298.01 15.828 299.198 15.552 300.566 15.552C302.174 15.552 303.626 15.972 304.922 16.812C306.242 17.652 307.274 18.852 308.018 20.412C308.786 21.972 309.17 23.796 309.17 25.884C309.17 27.972 308.786 29.808 308.018 31.392C307.274 32.952 306.242 34.152 304.922 34.992C303.626 35.832 302.174 36.252 300.566 36.252C299.198 36.252 298.01 35.976 297.002 35.424C296.018 34.872 295.238 34.128 294.662 33.192V45.648H287.606V15.804H294.662V18.612ZM302.006 25.884C302.006 24.564 301.646 23.544 300.926 22.824C300.23 22.08 299.366 21.708 298.334 21.708C297.302 21.708 296.426 22.08 295.706 22.824C295.01 23.568 294.662 24.588 294.662 25.884C294.662 27.204 295.01 28.236 295.706 28.98C296.426 29.724 297.302 30.096 298.334 30.096C299.366 30.096 300.23 29.724 300.926 28.98C301.646 28.212 302.006 27.18 302.006 25.884ZM36.712 54.62L27.964 80H18.928L10.144 54.62H17.704L23.464 72.944L29.188 54.62H36.712ZM58.2065 69.668C58.2065 70.22 58.1705 70.772 58.0985 71.324H44.7425C44.8145 72.428 45.1145 73.256 45.6425 73.808C46.1945 74.336 46.8905 74.6 47.7305 74.6C48.9065 74.6 49.7465 74.072 50.2505 73.016H57.7745C57.4625 74.408 56.8505 75.656 55.9385 76.76C55.0505 77.84 53.9225 78.692 52.5545 79.316C51.1865 79.94 49.6745 80.252 48.0185 80.252C46.0265 80.252 44.2505 79.832 42.6905 78.992C41.1545 78.152 39.9425 76.952 39.0545 75.392C38.1905 73.832 37.7585 71.996 37.7585 69.884C37.7585 67.772 38.1905 65.948 39.0545 64.412C39.9185 62.852 41.1185 61.652 42.6545 60.812C44.2145 59.972 46.0025 59.552 48.0185 59.552C50.0105 59.552 51.7745 59.96 53.3105 60.776C54.8465 61.592 56.0465 62.768 56.9105 64.304C57.7745 65.816 58.2065 67.604 58.2065 69.668ZM51.0065 67.904C51.0065 67.04 50.7185 66.368 50.1425 65.888C49.5665 65.384 48.8465 65.132 47.9825 65.132C47.1185 65.132 46.4105 65.372 45.8585 65.852C45.3065 66.308 44.9465 66.992 44.7785 67.904H51.0065ZM68.1501 63.368C68.9421 62.216 69.9021 61.304 71.0301 60.632C72.1581 59.96 73.3701 59.624 74.6661 59.624V67.148H72.6861C71.1501 67.148 70.0101 67.448 69.2661 68.048C68.5221 68.648 68.1501 69.692 68.1501 71.18V80H61.0941V59.804H68.1501V63.368ZM80.7597 57.932C79.5117 57.932 78.5037 57.596 77.7357 56.924C76.9917 56.228 76.6197 55.364 76.6197 54.332C76.6197 53.276 76.9917 52.4 77.7357 51.704C78.5037 51.008 79.5117 50.66 80.7597 50.66C81.9837 50.66 82.9677 51.008 83.7117 51.704C84.4797 52.4 84.8637 53.276 84.8637 54.332C84.8637 55.364 84.4797 56.228 83.7117 56.924C82.9677 57.596 81.9837 57.932 80.7597 57.932ZM84.2517 59.804V80H77.1957V59.804H84.2517ZM99.1779 65.672H96.0099V80H88.9179V65.672H86.7219V59.804H88.9179V59.624C88.9179 57.032 89.6739 55.052 91.1859 53.684C92.7219 52.292 94.9179 51.596 97.7739 51.596C98.3499 51.596 98.7939 51.608 99.1059 51.632V57.644C98.9139 57.62 98.6499 57.608 98.3139 57.608C97.5459 57.608 96.9819 57.788 96.6219 58.148C96.2619 58.484 96.0579 59.036 96.0099 59.804H99.1779V65.672ZM105.264 57.932C104.016 57.932 103.008 57.596 102.24 56.924C101.496 56.228 101.124 55.364 101.124 54.332C101.124 53.276 101.496 52.4 102.24 51.704C103.008 51.008 104.016 50.66 105.264 50.66C106.488 50.66 107.472 51.008 108.216 51.704C108.984 52.4 109.368 53.276 109.368 54.332C109.368 55.364 108.984 56.228 108.216 56.924C107.472 57.596 106.488 57.932 105.264 57.932ZM108.756 59.804V80H101.7V59.804H108.756ZM132.07 69.668C132.07 70.22 132.034 70.772 131.962 71.324H118.606C118.678 72.428 118.978 73.256 119.506 73.808C120.058 74.336 120.754 74.6 121.594 74.6C122.77 74.6 123.61 74.072 124.114 73.016H131.638C131.326 74.408 130.714 75.656 129.802 76.76C128.914 77.84 127.786 78.692 126.418 79.316C125.05 79.94 123.538 80.252 121.882 80.252C119.89 80.252 118.114 79.832 116.554 78.992C115.018 78.152 113.806 76.952 112.918 75.392C112.054 73.832 111.622 71.996 111.622 69.884C111.622 67.772 112.054 65.948 112.918 64.412C113.782 62.852 114.982 61.652 116.518 60.812C118.078 59.972 119.866 59.552 121.882 59.552C123.874 59.552 125.638 59.96 127.174 60.776C128.71 61.592 129.91 62.768 130.774 64.304C131.638 65.816 132.07 67.604 132.07 69.668ZM124.87 67.904C124.87 67.04 124.582 66.368 124.006 65.888C123.43 65.384 122.71 65.132 121.846 65.132C120.982 65.132 120.274 65.372 119.722 65.852C119.17 66.308 118.81 66.992 118.642 67.904H124.87ZM142.013 63.368C142.805 62.216 143.765 61.304 144.893 60.632C146.021 59.96 147.233 59.624 148.529 59.624V67.148H146.549C145.013 67.148 143.873 67.448 143.129 68.048C142.385 68.648 142.013 69.692 142.013 71.18V80H134.957V59.804H142.013V63.368Z" fill="white"/>
</mask>
<g mask="url(#mask0_1726:23204)">
<g filter="url(#filter1_f_1726:23204)">
<path d="M1 -17.4048H324V162.261H1V-17.4048Z" fill="url(#paint0_angular_1726:23204)"/>
</g>
</g>
</g>
<defs>
<filter id="filter0_d_1726:23204" x="0.143555" y="0.660156" width="319.026" height="93.5918" filterUnits="userSpaceOnUse" color-interpolation-filters="sRGB">
<feFlood flood-opacity="0" result="BackgroundImageFix"/>
<feColorMatrix in="SourceAlpha" type="matrix" values="0 0 0 0 0 0 0 0 0 0 0 0 0 0 0 0 0 0 127 0" result="hardAlpha"/>
<feOffset dy="4"/>
<feGaussianBlur stdDeviation="5"/>
<feColorMatrix type="matrix" values="0 0 0 0 0 0 0 0 0 0 0 0 0 0 0 0 0 0 0.07 0"/>
<feBlend mode="normal" in2="BackgroundImageFix" result="effect1_dropShadow_1726:23204"/>
<feBlend mode="normal" in="SourceGraphic" in2="effect1_dropShadow_1726:23204" result="shape"/>
</filter>
<filter id="filter1_f_1726:23204" x="-29" y="-47.4048" width="383" height="239.666" filterUnits="userSpaceOnUse" color-interpolation-filters="sRGB">
<feFlood flood-opacity="0" result="BackgroundImageFix"/>
<feBlend mode="normal" in="SourceGraphic" in2="BackgroundImageFix" result="shape"/>
<feGaussianBlur stdDeviation="15" result="effect1_foregroundBlur_1726:23204"/>
</filter>
<radialGradient id="paint0_angular_1726:23204" cx="0" cy="0" r="1" gradientUnits="userSpaceOnUse" gradientTransform="translate(155.691 54.6589) rotate(-90.3069) scale(101.68 182.811)">
<stop offset="0.113234" stop-color="#FF9E75"/>
<stop offset="0.348958" stop-color="#FF4E02"/>
<stop offset="0.505208" stop-color="#FFB800"/>
<stop offset="0.875" stop-color="#FF3E9A"/>
</radialGradient>
</defs>
</svg>
