<svg width="28" height="28" viewBox="0 0 28 28" fill="none" xmlns="http://www.w3.org/2000/svg">
<path d="M13.838 27.6761C6.19569 27.6761 0 21.4804 0 13.838C0 6.19569 6.19569 0 13.838 0C21.4804 0 27.6761 6.19569 27.6761 13.838C27.6733 21.4804 21.4776 27.6761 13.838 27.6761Z" fill="#4520E6"/>
<path d="M18.4473 11.3263C18.4473 10.3463 17.9669 9.47886 17.2285 8.94631L19.2214 6.95337L18.0301 6.95886L16.4461 8.54278C16.1524 8.44396 15.8395 8.3918 15.5128 8.3918H10.061V16.1138L16.6246 9.55023C17.2148 9.92082 17.6101 10.5796 17.6101 11.3291C17.6101 12.4847 16.6685 13.4263 15.5128 13.4263H15.3399L8.03516 20.731H9.22104L10.654 19.2981H15.5128C17.1324 19.2981 18.4473 17.9804 18.4473 16.3636C18.4473 15.2957 17.8736 14.3624 17.0199 13.8491C17.8736 13.3302 18.4473 12.3942 18.4473 11.3263ZM10.8983 14.0879V9.22906H15.5128C15.5924 9.22906 15.6693 9.23455 15.7461 9.24278L10.8983 14.0879ZM17.6101 16.3581C17.6101 17.5138 16.6685 18.4553 15.5128 18.4553H11.4912L15.6693 14.2773C16.7508 14.3596 17.6101 15.2573 17.6101 16.3581Z" fill="white"/>
</svg>
