<svg viewBox="0 0 98 66" fill="none" xmlns="http://www.w3.org/2000/svg">
<path d="M61.147 3.37599L62.9156 8.88008L65.1264 6.47061V2.30258L60.9882 0.658203L57.5643 3.41025L61.147 3.37599Z" fill="#DC001A"/>
<path d="M61.8275 11.8619L59.7527 5.37573H54.152L55.6032 9.95486H48.3926V41.8831L67.02 26.3073L61.8275 11.8619ZM53.7665 21.8994V18.919L57.9274 17.2404L58.5396 19.1245L53.7665 21.8994Z" fill="#DC001A"/>
<path d="M35.6373 3.37599L33.8686 8.88008L31.6578 6.47061V2.30258L35.796 0.658203L39.2199 3.41025L35.6373 3.37599Z" fill="#F6504B"/>
<path d="M41.1918 9.95486L42.643 5.37573H37.0537L34.9789 11.8619L29.7864 26.3187L48.3911 41.8831V9.95486H41.1918ZM43.0285 21.8994L38.2554 19.1245L38.8677 17.2404L43.0285 18.919V21.8994Z" fill="#F6504B"/>
<path d="M0 53.189H5.28091C6.30776 53.1373 7.31993 53.455 8.14874 54.0756C8.8602 54.6444 9.27094 55.5161 9.23426 56.4322C9.2416 56.9862 9.08757 57.5329 8.77952 57.9983C8.47147 58.4711 8.03872 58.8405 7.53997 59.0843C8.15608 59.3133 8.70617 59.7049 9.11691 60.222C9.50564 60.7243 9.71101 61.3375 9.70368 61.9728C9.73302 62.9554 9.30761 63.8862 8.55215 64.5068C7.67933 65.179 6.60114 65.5188 5.50829 65.4597H0.00733477L0 53.189ZM5.1709 54.7478H1.82632V58.3899H5.1709C5.75766 58.4194 6.3371 58.2495 6.80651 57.9023C7.53997 57.2744 7.62065 56.1662 6.99721 55.4349C6.93853 55.3684 6.87252 55.3019 6.80651 55.2428C6.32976 54.8956 5.75766 54.7183 5.1709 54.7478ZM5.36159 63.901C6.01437 63.9379 6.65248 63.7385 7.17324 63.3469C7.97271 62.6746 8.08273 61.4779 7.41528 60.6726C7.34194 60.584 7.26126 60.5027 7.17324 60.4288C6.65248 60.0299 6.01437 59.8378 5.36159 59.8674H1.82632V63.901H5.36159Z" fill="#F6504B"/>
<path d="M12.0436 65.4594V53.1887H13.8699V65.4594H12.0436Z" fill="#F6504B"/>
<path d="M28.6932 59.4819C28.7006 60.3167 28.5466 61.1515 28.2312 61.9272C27.9378 62.6512 27.5124 63.316 26.9696 63.8849C26.4269 64.439 25.7741 64.8822 25.0626 65.1851C24.3072 65.5028 23.5003 65.6653 22.6862 65.6579C21.8281 65.6653 20.9846 65.4954 20.1924 65.1703C18.6668 64.5498 17.4566 63.3382 16.8185 61.8164C15.821 59.4302 16.3491 56.6746 18.1608 54.8425C18.7402 54.2663 19.4223 53.8083 20.1704 53.5054C20.9626 53.173 21.8061 53.0104 22.6642 53.0178C23.603 53.0104 24.5345 53.2025 25.4 53.5793C26.2288 53.9339 26.9769 54.4658 27.5784 55.1454L26.3242 56.3496C25.8694 55.8251 25.312 55.4114 24.6812 55.1307C24.0504 54.8499 23.361 54.7022 22.6715 54.7022C22.0628 54.6948 21.4613 54.8204 20.9039 55.0494C20.3685 55.271 19.8844 55.6035 19.4736 56.0245C19.0702 56.4456 18.7475 56.948 18.5348 57.4947C18.3074 58.0783 18.1901 58.6988 18.1974 59.3268C18.1901 59.9547 18.3074 60.5753 18.5495 61.1589C18.7695 61.7056 19.0922 62.2079 19.4957 62.629C19.8991 63.0501 20.3905 63.3825 20.9259 63.6115C21.4907 63.8553 22.0994 63.9735 22.7082 63.9735C23.7204 63.9957 24.7032 63.6485 25.466 62.9836C26.2141 62.3483 26.6836 61.447 26.7789 60.4718H22.7155V58.854H28.6932V59.4819Z" fill="#F6504B"/>
<path d="M35.147 65.4597V53.189H39.4524C40.3252 53.1816 41.1907 53.3367 42.0048 53.6544C42.7603 53.9425 43.4497 54.3784 44.0438 54.9324C44.6233 55.4791 45.0854 56.1514 45.3934 56.8901C45.7235 57.6658 45.8848 58.5006 45.8775 59.3428C45.8848 60.1776 45.7161 61.0124 45.3934 61.7807C45.078 62.512 44.6233 63.1695 44.0512 63.7162C43.4644 64.2703 42.7676 64.7061 42.0122 64.9943C41.198 65.3119 40.3252 65.4671 39.4524 65.4597H35.147ZM39.4744 54.8364H36.966V63.8123H39.4744C40.0832 63.8123 40.6846 63.7014 41.2494 63.4724C41.7848 63.2582 42.2762 62.9331 42.6869 62.5268C43.0903 62.1205 43.4131 61.6403 43.6331 61.1084C43.8678 60.5543 43.9852 59.9486 43.9852 59.3502C43.9925 58.737 43.8678 58.1312 43.6331 57.5698C43.4131 57.0305 43.0903 56.5429 42.6869 56.1366C42.2835 55.7155 41.7921 55.3905 41.2567 55.1762C40.6919 54.9472 40.0832 54.8364 39.4744 54.8364Z" fill="#F6504B"/>
<path d="M48.2458 65.4594V53.1887H50.0722V65.4594H48.2458Z" fill="#F6504B"/>
<path d="M52.7571 65.4586V53.1953H58.3974C59.4536 53.151 60.4878 53.513 61.2799 54.2222C62.0133 54.9018 62.4168 55.8696 62.3874 56.8743C62.4168 57.8716 62.0133 58.832 61.2726 59.5042C60.4804 60.1987 59.4536 60.568 58.3974 60.5237H54.5834V65.466L52.7571 65.4586ZM58.2067 54.8058H54.5834V58.9576H58.2067C58.8228 58.9871 59.4316 58.7877 59.9083 58.3887C60.3337 58.0046 60.5684 57.4505 60.5464 56.8743C60.5684 56.2981 60.3337 55.744 59.9083 55.3672C59.4316 54.9683 58.8228 54.7688 58.2067 54.8058Z" fill="#F6504B"/>
<path d="M64.4565 65.4586V53.1953H70.0968C71.153 53.151 72.1872 53.513 72.9793 54.2222C73.7128 54.9018 74.1162 55.8696 74.0869 56.8743C74.1162 57.8716 73.7128 58.832 72.972 59.5042C72.1799 60.1987 71.153 60.568 70.0968 60.5237H66.2829V65.466L64.4565 65.4586ZM69.9135 54.8058H66.2902V58.9576H69.9135C70.5296 58.9871 71.1384 58.7877 71.6151 58.3887C72.0405 58.0046 72.2752 57.4505 72.2532 56.8743C72.2752 56.2981 72.0405 55.744 71.6151 55.3672C71.131 54.9683 70.5296 54.7688 69.9135 54.8058Z" fill="#F6504B"/>
<path d="M76.2074 65.4594V53.1887H85.1923V54.7992H78.0337V58.4782H82.7352V60.0517H78.0337V63.8342H85.2583V65.4446L76.2074 65.4594Z" fill="#F6504B"/>
<path d="M87.62 65.4599V53.1892H93.1576C94.2285 53.1375 95.2773 53.4995 96.0915 54.1939C97.397 55.4276 97.5877 57.4518 96.5389 58.9071C96.0695 59.5055 95.4313 59.9488 94.7126 60.1778L97.4264 65.4525H95.4093L92.8862 60.4216H89.4536V65.4525L87.62 65.4599ZM93.0036 54.8071H89.4463V58.9071H92.9963C93.6197 58.9367 94.2285 58.7372 94.7126 58.3383C95.5267 57.5922 95.5854 56.3289 94.8519 55.5015C94.8079 55.4572 94.7639 55.4055 94.7126 55.3611C94.2285 54.977 93.6197 54.7775 93.0036 54.8071Z" fill="#F6504B"/>
</svg>
