<svg viewBox="0 0 106 94" fill="none" xmlns="http://www.w3.org/2000/svg">
<path d="M24 29.7848C24 14.9921 35.9915 3 50.7848 3C65.5774 3 77.5699 14.9928 77.5699 29.7848C77.5699 46.0671 64.4721 48.7464 61.999 66.5152C61.9643 66.7645 61.7512 66.9593 61.4994 66.9593H40.0706C39.8188 66.9593 39.6056 66.7644 39.571 66.515C37.1031 48.7495 24 46.0701 24 29.7848Z" fill="white"/>
<path opacity="0.09" fill-rule="evenodd" clip-rule="evenodd" d="M55.5312 9.69123C57.3268 10.9762 57.7543 13.1295 56.4861 14.5007C55.2179 15.872 52.7342 15.942 50.9386 14.657C49.143 13.3721 48.7155 11.2188 49.9837 9.84751C51.2519 8.47625 53.7356 8.40628 55.5312 9.69123ZM38.0436 14.3035C37.3401 13.6 35.2864 14.5131 33.4565 16.343C31.6267 18.1728 30.7136 20.2265 31.4171 20.9301C32.1206 21.6336 34.1743 20.7205 36.0042 18.8906C37.8341 17.0608 38.7471 15.007 38.0436 14.3035ZM43.2582 41.1855C46.9936 39.543 48.4918 34.7322 46.6046 30.4402C44.7174 26.1483 40.1593 24.0005 36.4239 25.6431C32.6885 27.2856 31.1903 32.0964 33.0775 36.3883C34.9647 40.6803 39.5228 42.828 43.2582 41.1855ZM33.5035 41.9225C33.8437 41.4433 33.6726 40.8152 33.1212 40.5195C32.5698 40.2239 31.847 40.3726 31.5067 40.8518C31.1665 41.331 31.3377 41.9591 31.8891 42.2547C32.4405 42.5504 33.1633 42.4016 33.5035 41.9225ZM70.1052 17.3404C70.4728 17.5375 70.5869 17.9562 70.3601 18.2757C70.1333 18.5951 69.6514 18.6943 69.2838 18.4972C68.9162 18.3001 68.8021 17.8813 69.0289 17.5619C69.2557 17.2425 69.7376 17.1433 70.1052 17.3404ZM65.5507 50.0176C65.7775 49.6981 65.6634 49.2794 65.2958 49.0823C64.9282 48.8852 64.4464 48.9844 64.2195 49.3038C63.9927 49.6233 64.1069 50.042 64.4745 50.2391C64.8421 50.4362 65.3239 50.337 65.5507 50.0176ZM48.8213 44.3142C49.9011 44.3214 50.7724 44.7836 50.7675 45.3467C50.7625 45.9097 49.8831 46.3603 48.8033 46.3531C47.7235 46.3458 46.8521 45.8836 46.8571 45.3206C46.8621 44.7576 47.7415 44.307 48.8213 44.3142Z" fill="url(#paint0_linear_3059_46871)"/>
<path fill-rule="evenodd" clip-rule="evenodd" d="M70.5588 40.1606C72.4473 38.0473 73.6751 35.2965 73.881 32.2293C74.3657 25.0084 69.003 18.7684 61.9031 18.2918C54.8032 17.8153 48.6547 23.2826 48.17 30.5035C47.6854 37.7244 53.048 43.9644 60.1479 44.441C63.3825 44.6581 66.4197 43.6415 68.8137 41.7874C68.8284 41.8096 68.8446 41.8311 68.8623 41.8518L74.4059 48.3023C74.6323 48.5657 75.0262 48.5921 75.2857 48.3614L76.1425 47.5995C76.402 47.3687 76.4289 46.9681 76.2025 46.7047L70.6589 40.2542C70.6284 40.2187 70.5947 40.1874 70.5588 40.1606ZM60.2489 42.9372C53.9656 42.5154 49.2197 36.9931 49.6487 30.6028C50.0776 24.2124 55.5189 19.3739 61.8021 19.7957C68.0854 20.2174 72.8313 25.7397 72.4024 32.13C71.9734 38.5204 66.5321 43.3589 60.2489 42.9372Z" fill="url(#paint1_linear_3059_46871)"/>
<path opacity="0.2" d="M72.9828 32.3421C72.5315 39.065 66.8071 44.1553 60.1968 43.7116C53.5866 43.268 48.5938 37.4583 49.045 30.7354C49.4963 24.0125 55.2207 18.9222 61.831 19.3659C68.4412 19.8096 73.434 25.6192 72.9828 32.3421Z" fill="url(#paint2_linear_3059_46871)"/>
<path d="M66.9411 28.6297L68.9781 25.8472C69.0535 25.7442 69.0853 25.6196 69.0674 25.4968C69.0497 25.3738 68.9833 25.2612 68.881 25.1794C68.7787 25.0978 68.6472 25.0528 68.5111 25.0528L56.7282 25.0528L56.7282 24.5418C56.7282 24.3592 56.6213 24.1904 56.4477 24.0992C56.2741 24.008 56.0602 24.008 55.8865 24.0992C55.7129 24.1904 55.606 24.3592 55.606 24.5418L55.606 39.8717C55.606 40.0543 55.7129 40.223 55.8865 40.3143C56.0602 40.4055 56.2741 40.4055 56.4477 40.3143C56.6213 40.2231 56.7282 40.0543 56.7282 39.8717L56.7282 32.2067L68.5111 32.2067C68.6472 32.2067 68.7787 32.1617 68.881 32.0801C68.9833 31.9983 69.0497 31.8857 69.0674 31.7627C69.0853 31.6399 69.0535 31.5153 68.9781 31.4123L66.9411 28.6297Z" fill="url(#paint3_linear_3059_46871)"/>
<path fill-rule="evenodd" clip-rule="evenodd" d="M55.7703 23.8778C56.0168 23.7484 56.3176 23.7484 56.564 23.8779L56.564 23.8779C56.8123 24.0084 56.9782 24.2581 56.9782 24.5418L56.9782 24.8028L68.5111 24.8028C68.7015 24.8028 68.8885 24.8656 69.0369 24.984L69.0371 24.9841C69.1857 25.1029 69.2874 25.2712 69.3148 25.461L69.0674 25.4968L69.3148 25.4607C69.3148 25.4608 69.3148 25.4609 69.3148 25.461C69.3424 25.6508 69.2925 25.8408 69.1799 25.9948L69.1798 25.9949L67.2509 28.6297L67.1428 28.4821L66.9411 28.6297L67.1428 28.7774L67.2509 28.6297L69.1798 31.2646L69.1799 31.2647C69.2925 31.4187 69.3424 31.6087 69.3148 31.7985L69.0675 31.7628L69.3148 31.7988C69.3148 31.7987 69.3148 31.7986 69.3148 31.7985M56.9782 32.4567L56.9782 39.8717C56.9782 40.1554 56.8123 40.4051 56.564 40.5356L56.4477 40.3143L56.564 40.5356C56.3176 40.6651 56.0167 40.6651 55.7703 40.5356L55.7702 40.5356C55.5219 40.4051 55.356 40.1554 55.356 39.8717L55.356 24.5418C55.356 24.2581 55.5219 24.0084 55.7702 23.8779L55.7703 23.8778M56.0027 24.3205C55.9039 24.3725 55.856 24.4603 55.856 24.5418L55.856 39.8717C55.856 39.9532 55.9038 40.0409 56.0027 40.093C56.1037 40.146 56.2306 40.146 56.3314 40.093C56.4303 40.041 56.4782 39.9532 56.4782 39.8717L56.4782 32.2067L56.7282 31.9567L68.5111 31.9567C68.593 31.9567 68.6689 31.9295 68.7251 31.8847C68.7809 31.84 68.8119 31.783 68.82 31.727L68.82 31.7267C68.8282 31.671 68.8144 31.6119 68.7763 31.5599L66.7393 28.7774L66.7393 28.4821L68.7763 25.6996C68.7763 25.6996 68.7763 25.6996 68.7764 25.6995C68.8144 25.6475 68.8281 25.5885 68.82 25.5328L68.82 25.5325C68.8119 25.4764 68.7809 25.4194 68.7249 25.3747L68.881 25.1794L68.7251 25.3748C68.6689 25.33 68.593 25.3028 68.5111 25.3028L56.7282 25.3028L56.4782 25.0528L56.4782 24.5418C56.4782 24.4603 56.4303 24.3725 56.3314 24.3205M56.0028 24.3205C56.1038 24.2675 56.2307 24.2676 56.3314 24.3205Z" fill="url(#paint4_linear_3059_46871)"/>
<path opacity="0.7" d="M50.7848 3C35.9915 3 24 14.9921 24 29.7848C24 46.0701 37.1031 48.7495 39.571 66.515C39.6056 66.7644 39.8188 66.9593 40.0706 66.9593H61.4994C61.7512 66.9593 61.9643 66.7645 61.999 66.5152C64.4721 48.7464 77.5699 46.0671 77.5699 29.7848C77.5699 14.9928 65.5777 3 50.7851 3H50.7848ZM50.7848 4.01156C65.0188 4.01156 76.5572 15.5513 76.5572 29.784C76.5572 45.4826 63.6716 48.3747 61.1171 65.5086C61.0802 65.7558 60.868 65.9477 60.6181 65.9477H40.9506C40.7006 65.9477 40.4884 65.7558 40.4516 65.5086C37.897 48.3747 25.0114 45.4842 25.0114 29.784C25.0114 15.5512 36.5499 4.01156 50.7838 4.01156H50.7848Z" fill="url(#paint5_linear_3059_46871)"/>
<path opacity="0.8" fill-rule="evenodd" clip-rule="evenodd" d="M39.3901 68.8023C39.3901 68.5814 39.5692 68.4023 39.7901 68.4023H61.425C61.6459 68.4023 61.825 68.5814 61.825 68.8023V70.888C61.825 71.1089 61.6459 71.288 61.425 71.288H39.7901C39.5692 71.288 39.3901 71.1089 39.3901 70.888V68.8023ZM39.3902 72.8424C39.3902 72.6215 39.5693 72.4424 39.7902 72.4424H61.425C61.646 72.4424 61.825 72.6215 61.825 72.8424V74.928C61.825 75.1489 61.646 75.328 61.425 75.328H39.7902C39.5693 75.328 39.3902 75.1489 39.3902 74.928V72.8424ZM44.3902 87.3614C46.6346 89.7164 48.8839 90.9638 51.1399 90.9993C53.3971 91.0348 55.6481 89.8564 57.8944 87.3595L58.0729 87.1608H44.1995L44.3908 87.3613L44.3902 87.3614ZM39.3902 76.9825C39.3902 76.7063 39.614 76.4825 39.8902 76.4825L61.3254 76.4825C61.6015 76.4825 61.8254 76.7064 61.8254 76.9825V80.2102C61.8254 80.2524 61.82 80.2945 61.8094 80.3354L61.7782 80.4561C61.7677 80.4966 61.7522 80.5357 61.7319 80.5723C61.1552 81.615 60.5737 82.5715 59.9899 83.4442C59.4299 84.2807 58.8456 85.0607 58.2052 85.829C58.1111 85.9419 57.9713 86.0064 57.8243 86.0064H43.6691C43.5272 86.0064 43.3919 85.9463 43.2978 85.8401C42.6125 85.0667 41.9827 84.2792 41.3742 83.4368C40.7426 82.5622 40.1175 81.6137 39.4983 80.5926C39.4748 80.5538 39.4567 80.512 39.4445 80.4684L39.4086 80.3398C39.3964 80.296 39.3902 80.2507 39.3902 80.2052V76.9825Z" fill="url(#paint6_linear_3059_46871)"/>
<defs>
<linearGradient id="paint0_linear_3059_46871" x1="31.1797" y1="-7.96407" x2="78.1087" y2="69.3571" gradientUnits="userSpaceOnUse">
<stop stop-color="#DD1C84"/>
<stop offset="0.5087" stop-color="#EA8855"/>
<stop offset="0.678731" stop-color="#F1A839"/>
<stop offset="0.771199" stop-color="#FF932F"/>
</linearGradient>
<linearGradient id="paint1_linear_3059_46871" x1="49.8374" y1="5.66274" x2="78.2245" y2="63.7323" gradientUnits="userSpaceOnUse">
<stop stop-color="#DD1C84"/>
<stop offset="0.5087" stop-color="#EA8855"/>
<stop offset="0.678731" stop-color="#F1A839"/>
<stop offset="0.771199" stop-color="#FF932F"/>
</linearGradient>
<linearGradient id="paint2_linear_3059_46871" x1="50.52" y1="8.76095" x2="74.3919" y2="56.7972" gradientUnits="userSpaceOnUse">
<stop stop-color="#DD1C84"/>
<stop offset="0.5087" stop-color="#EA8855"/>
<stop offset="0.678731" stop-color="#F1A839"/>
<stop offset="0.771199" stop-color="#FF932F"/>
</linearGradient>
<linearGradient id="paint3_linear_3059_46871" x1="55.606" y1="17.4475" x2="75.1274" y2="45.4668" gradientUnits="userSpaceOnUse">
<stop stop-color="#DD1C84"/>
<stop offset="0.5087" stop-color="#EA8855"/>
<stop offset="0.678731" stop-color="#F1A839"/>
<stop offset="0.771199" stop-color="#FF932F"/>
</linearGradient>
<linearGradient id="paint4_linear_3059_46871" x1="55.356" y1="16.9962" x2="75.4298" y2="45.9916" gradientUnits="userSpaceOnUse">
<stop stop-color="#DD1C84"/>
<stop offset="0.5087" stop-color="#EA8855"/>
<stop offset="0.678731" stop-color="#F1A839"/>
<stop offset="0.771199" stop-color="#FF932F"/>
</linearGradient>
<linearGradient id="paint5_linear_3059_46871" x1="24" y1="-22.7498" x2="99.9012" y2="88.0482" gradientUnits="userSpaceOnUse">
<stop stop-color="#DD1C84"/>
<stop offset="0.5087" stop-color="#EA8855"/>
<stop offset="0.678731" stop-color="#F1A839"/>
<stop offset="0.771199" stop-color="#FF932F"/>
</linearGradient>
<linearGradient id="paint6_linear_3059_46871" x1="39.3901" y1="59.3045" x2="64.3082" y2="102.421" gradientUnits="userSpaceOnUse">
<stop stop-color="#DD1C84"/>
<stop offset="0.5087" stop-color="#EA8855"/>
<stop offset="0.678731" stop-color="#F1A839"/>
<stop offset="0.771199" stop-color="#FF932F"/>
</linearGradient>
</defs>
</svg>
