<svg viewBox="0 0 106 94" fill="none" xmlns="http://www.w3.org/2000/svg">
<g clip-path="url(#clip0_3059_46004)">
<path d="M3 10.2197H102.633V86.9355C102.633 89.1446 100.843 90.9355 98.6335 90.9355H7C4.79086 90.9355 3 89.1446 3 86.9355V10.2197Z" fill="white"/>
<path opacity="0.7" fill-rule="evenodd" clip-rule="evenodd" d="M101.466 13.0085H4.23193V36.799V36.9743V86.3676C4.23193 88.6015 6.06126 90.4309 8.29522 90.4309H97.4026C99.6366 90.4309 101.466 88.6015 101.466 86.3676V65.9302V64.0376V13.0085ZM3.23193 12.5085V7.97945V7.84722C3.23193 5.06097 5.50897 2.78394 8.29522 2.78394H8.42745H97.2728H97.4026C100.18 2.78394 102.451 5.04628 102.466 7.82022C102.467 7.87311 102.468 7.92619 102.468 7.97945V12.5085C102.468 12.5156 102.468 12.5228 102.468 12.5298C102.467 12.539 102.467 12.5482 102.466 12.5573V64.0376V65.9302V86.3676C102.466 89.1538 100.189 91.4309 97.4026 91.4309H8.29522C5.50897 91.4309 3.23193 89.1538 3.23193 86.3676V36.9743V36.799V12.5085ZM10.7563 7.72811C10.7563 8.30193 10.2912 8.7671 9.71734 8.7671C9.14352 8.7671 8.67835 8.30193 8.67835 7.72811C8.67835 7.15429 9.14352 6.68912 9.71734 6.68912C10.2912 6.68912 10.7563 7.15429 10.7563 7.72811ZM13.868 8.7671C14.4418 8.7671 14.907 8.30193 14.907 7.72811C14.907 7.15429 14.4418 6.68912 13.868 6.68912C13.2942 6.68912 12.829 7.15429 12.829 7.72811C12.829 8.30193 13.2942 8.7671 13.868 8.7671ZM19.0597 7.72811C19.0597 8.30193 18.5945 8.7671 18.0207 8.7671C17.4468 8.7671 16.9817 8.30193 16.9817 7.72811C16.9817 7.15429 17.4468 6.68912 18.0207 6.68912C18.5945 6.68912 19.0597 7.15429 19.0597 7.72811Z" fill="url(#paint0_linear_3059_46004)"/>
<g opacity="0.2">
<path d="M77.5442 67.3814C77.4242 67.2648 77.2633 67.1995 77.096 67.1995L72.5586 67.1995L72.5583 71.373C72.5633 71.7281 72.2796 72.0202 71.9245 72.0256C71.5617 72.0313 71.2662 71.7358 71.2712 71.3732L71.2712 67.1995L67.3775 67.1995L67.3777 71.373C67.3826 71.7281 67.099 72.0202 66.7439 72.0256C66.381 72.0313 66.0856 71.7358 66.0905 71.3732L66.0905 67.1995L62.1968 67.1995L62.1968 71.3732C62.2018 71.7283 61.9181 72.0205 61.563 72.0259C61.2002 72.0316 60.9047 71.7361 60.9097 71.3735L60.9097 67.1998L57.0159 67.1998L57.0159 71.3735C57.0209 71.7286 56.7372 72.0207 56.3821 72.0261C56.0193 72.0318 55.7238 71.7363 55.7288 71.3737L55.7288 67.2H51.835V71.3737C51.84 71.7288 51.5563 72.021 51.2012 72.0264C50.8384 72.032 50.5429 71.7366 50.5479 71.374L50.5479 67.2003L46.6542 67.2003L46.6542 71.374C46.6591 71.7291 46.3754 72.0212 46.0203 72.0266C45.6575 72.0323 45.3618 71.7366 45.3668 71.374L45.3668 67.2003L41.473 67.2003L41.473 71.374C41.478 71.7291 41.1941 72.0215 40.839 72.0269C40.4764 72.0323 40.1807 71.7371 40.1859 71.3742L40.1859 67.2005L36.2921 67.2005L36.2921 71.3742C36.2971 71.7293 36.0134 72.0215 35.6583 72.0269C35.2955 72.0325 34.9998 71.7368 35.0047 71.3742L35.0047 67.2005L31.111 67.2005L31.111 71.3742C31.116 71.7293 30.8323 72.0215 30.4772 72.0269C30.1144 72.0326 29.8189 71.7371 29.8239 71.3745L29.8239 67.2003L25.2864 67.2003C24.9311 67.2003 24.6429 67.488 24.6429 67.8433L24.6429 80.1854C24.6432 80.5405 24.9313 80.8287 25.2864 80.8289L77.0967 80.8289C77.4518 80.8287 77.74 80.5405 77.7402 80.1854L77.7402 67.8433C77.7402 67.6694 77.6688 67.5027 77.5442 67.3814Z" fill="url(#paint1_linear_3059_46004)"/>
</g>
<path fill-rule="evenodd" clip-rule="evenodd" d="M80.4035 28.9626L89.5473 28.9626L89.5451 28.962C90.1934 28.962 90.719 29.4877 90.719 30.136L90.719 39.2793C90.719 39.9276 90.1934 40.4532 89.5451 40.4532L80.4013 40.4532C79.753 40.4532 79.2274 39.9276 79.2274 39.2793L79.2274 35.8813L65.5672 35.8813C73.2 39.7685 78.8788 46.9187 80.8225 55.4435C83.989 55.6648 86.5054 58.2838 86.5054 61.5046C86.5054 64.87 83.7672 67.6082 80.4012 67.6082C77.0358 67.6082 74.2976 64.87 74.2976 61.5046C74.2976 58.8134 76.0603 56.5493 78.4827 55.7399C76.2581 46.3537 69.089 38.8217 59.8127 36.1323C59.052 39.7596 55.83 42.4921 51.9798 42.4921C48.1251 42.4921 44.8996 39.7533 44.1435 36.1196C33.7881 38.9419 27.5149 44.6459 25.4765 53.0962C25.77 53.1942 26.0539 53.3136 26.3261 53.4526C27.6904 54.0462 28.7939 55.2061 29.2707 56.7209C29.5235 57.3856 29.662 58.1065 29.662 58.8609C29.662 62.2269 26.9238 64.9651 23.5584 64.9651C20.1925 64.9651 17.4543 62.2269 17.4543 58.8609C17.4543 55.6395 19.9707 53.0205 23.1371 52.7998C24.909 45.1576 29.9103 39.4031 37.789 35.8819L24.7324 35.8819L24.7324 39.2799C24.7324 39.9282 24.2067 40.4538 23.5584 40.4538L14.4147 40.4538C13.7664 40.4538 13.2407 39.9282 13.2407 39.2799L13.2407 30.1365C13.2407 29.4882 13.7664 28.9626 14.4147 28.9626L23.5584 28.9626C24.2067 28.9626 24.7324 29.4882 24.7324 30.1365L24.7324 33.5339L44.0392 33.5339C44.5126 29.5689 47.8906 26.4834 51.981 26.4834C56.0714 26.4834 59.4493 29.5689 59.9228 33.5339L79.2296 33.5339L79.2296 30.1365C79.2296 29.4882 79.7552 28.9626 80.4035 28.9626ZM15.5892 38.1059L22.3851 38.1059L22.3851 31.3105L15.5892 31.3105L15.5892 38.1059ZM81.5766 38.1058L88.3725 38.1058L88.3725 31.3103L81.5766 31.3103L81.5766 38.1058Z" fill="url(#paint2_linear_3059_46004)"/>
<path opacity="0.8" d="M55.0954 74.1899L58.2636 65.7594L66.7063 62.6417C66.8078 62.6044 66.897 62.546 66.97 62.473C67.1074 62.3356 67.1879 62.146 67.1844 61.9434C67.1791 61.6325 66.9781 61.3587 66.6831 61.2612L48.8378 55.3477C48.5762 55.2608 48.2877 55.3285 48.0922 55.523L48.0905 55.5248C47.896 55.7192 47.827 56.0059 47.9119 56.2676L53.7144 74.1579C53.8104 74.4539 54.0826 74.6564 54.3935 74.6638C54.7037 74.6708 54.9863 74.4804 55.0954 74.1899Z" fill="url(#paint3_linear_3059_46004)"/>
</g>
<defs>
<linearGradient id="paint0_linear_3059_46004" x1="3.23194" y1="-32.9051" x2="94.817" y2="145.784" gradientUnits="userSpaceOnUse">
<stop stop-color="#DD1C84"/>
<stop offset="0.5087" stop-color="#EA8855"/>
<stop offset="0.678731" stop-color="#F1A839"/>
<stop offset="0.771199" stop-color="#FF932F"/>
</linearGradient>
<linearGradient id="paint1_linear_3059_46004" x1="64.4714" y1="27.7486" x2="37.5485" y2="127.153" gradientUnits="userSpaceOnUse">
<stop stop-color="#DD1C84"/>
<stop offset="0.5087" stop-color="#EA8855"/>
<stop offset="0.678731" stop-color="#F1A839"/>
<stop offset="0.771199" stop-color="#FF932F"/>
</linearGradient>
<linearGradient id="paint2_linear_3059_46004" x1="115.851" y1="1.74109" x2="26.2852" y2="127.185" gradientUnits="userSpaceOnUse">
<stop stop-color="#DD1C84"/>
<stop offset="0.5087" stop-color="#EA8855"/>
<stop offset="0.678731" stop-color="#F1A839"/>
<stop offset="0.771199" stop-color="#FF932F"/>
</linearGradient>
<linearGradient id="paint3_linear_3059_46004" x1="36.3302" y1="56.8868" x2="75.2972" y2="67.6218" gradientUnits="userSpaceOnUse">
<stop stop-color="#DD1C84"/>
<stop offset="0.5087" stop-color="#EA8855"/>
<stop offset="0.678731" stop-color="#F1A839"/>
<stop offset="0.771199" stop-color="#FF932F"/>
</linearGradient>
<clipPath id="clip0_3059_46004">
<rect width="106" height="94" fill="white"/>
</clipPath>
</defs>
</svg>
