<svg viewBox="0 0 106 94" fill="none" xmlns="http://www.w3.org/2000/svg">
<g clip-path="url(#clip0_3059_46002)">
<path d="M8.47021 11.6284H97.9089V79.5905C97.9089 81.7997 96.118 83.5905 93.9089 83.5905H12.4702C10.2611 83.5905 8.47021 81.7997 8.47021 79.5905V11.6284Z" fill="white"/>
<path d="M45.4071 45.4671L28.8777 24.4442L42.4994 -19.1527L100.417 72.8202L55.0129 69.1136L45.4071 45.4671Z" fill="url(#paint0_linear_3059_46002)"/>
<path d="M51.3556 41.802C57.9601 54.8905 59.4236 67.4639 54.6245 69.8855C49.8254 72.3072 40.581 63.66 33.9765 50.5715C27.3721 37.4831 25.9085 24.9097 30.7076 22.488C35.5067 20.0664 44.7511 28.7136 51.3556 41.802Z" fill="url(#paint1_linear_3059_46002)"/>
<path opacity="0.3" fill-rule="evenodd" clip-rule="evenodd" d="M30.0418 22.8242C30.1172 22.7917 30.1944 22.7646 30.2729 22.743C26.0042 25.6967 27.5781 37.8911 33.9753 50.5688C40.3898 63.2808 49.2947 71.8034 54.1984 70.0643C54.1022 70.1422 53.9976 70.2102 53.8862 70.2667C53.6394 70.4036 53.3619 70.4754 53.0797 70.4755L17.8648 71.3963C17.5313 71.404 17.2025 71.3172 16.9162 71.146C16.7168 71.0268 16.5437 70.87 16.4059 70.6853L27.1477 91.0711C27.6626 92.0483 27.2878 93.258 26.3106 93.7729L24.7886 94.5749C23.8113 95.0898 22.6017 94.715 22.0868 93.7378L11.2578 73.1865C7.31484 73.7661 3.27317 71.8107 1.37722 68.0579C-1.46783 62.4266 0.79091 55.5551 6.42226 52.71L7.09358 52.3709L16.0109 70.0214C16.0425 70.06 16.0728 70.1001 16.1018 70.1416L7.47719 53.0498C7.32777 52.7516 7.26567 52.4172 7.29806 52.0852C7.33044 51.7532 7.45599 51.4371 7.66024 51.1734L29.3223 23.394C29.5078 23.1441 29.756 22.9476 30.0418 22.8242Z" fill="url(#paint2_linear_3059_46002)"/>
<path opacity="0.8" fill-rule="evenodd" clip-rule="evenodd" d="M7.56984 12.3623L7.57 47.6095C7.57 47.8857 7.79386 48.1095 8.07001 48.1095C8.34615 48.1095 8.57 47.8857 8.57 47.6095L8.56985 12.8579H97.0761V20.0787C97.0761 20.3548 97.2999 20.5787 97.5761 20.5787C97.8522 20.5787 98.0761 20.3548 98.0761 20.0787V12.4043L98.0773 12.388C98.0779 12.378 98.0782 12.368 98.0782 12.3579V8.23122C98.0782 8.18258 98.0775 8.13411 98.076 8.08582C98.0625 5.53394 95.9731 3.45288 93.4182 3.45288H93.2999H12.3482H12.2277C9.66445 3.45288 7.56982 5.5475 7.56982 8.11073V8.22894V8.23122V12.3579L7.56984 12.3623ZM98.0761 38.357C98.0761 38.0809 97.8522 37.857 97.5761 37.857C97.2999 37.857 97.0761 38.0809 97.0761 38.357V79.6542C97.0761 81.6651 95.4292 83.312 93.4182 83.312H26.4609C26.1848 83.312 25.9609 83.5359 25.9609 83.812C25.9609 84.0882 26.1848 84.312 26.4609 84.312H93.4182C95.9815 84.312 98.0761 82.2174 98.0761 79.6542V38.357ZM8.56982 75.8539C8.56982 75.5778 8.34597 75.3539 8.06982 75.3539C7.79368 75.3539 7.56982 75.5778 7.56982 75.8539V79.6542C7.56982 82.2174 9.66445 84.312 12.2277 84.312C12.5038 84.312 12.7277 84.0882 12.7277 83.812C12.7277 83.5359 12.5038 83.312 12.2277 83.312C10.2167 83.312 8.56982 81.6651 8.56982 79.6542V75.8539ZM14.47 8.00356C14.47 8.5264 14.0462 8.95024 13.5233 8.95024C13.0005 8.95024 12.5767 8.5264 12.5767 8.00356C12.5767 7.48072 13.0005 7.05688 13.5233 7.05688C14.0462 7.05688 14.47 7.48072 14.47 8.00356ZM17.305 8.95015C17.8278 8.95015 18.2517 8.52631 18.2517 8.00347C18.2517 7.48064 17.8278 7.0568 17.305 7.0568C16.7822 7.0568 16.3583 7.48064 16.3583 8.00347C16.3583 8.52631 16.7822 8.95015 17.305 8.95015ZM22.034 8.00347C22.034 8.52631 21.6102 8.95015 21.0873 8.95015C20.5645 8.95015 20.1406 8.52631 20.1406 8.00347C20.1406 7.48064 20.5645 7.0568 21.0873 7.0568C21.6102 7.0568 22.034 7.48064 22.034 8.00347Z" fill="url(#paint3_linear_3059_46002)"/>
<path opacity="0.3" fill-rule="evenodd" clip-rule="evenodd" d="M83.5386 39.2395L83.7397 42.9166L87.3747 42.3273C87.4111 42.3247 87.4475 42.3177 87.4841 42.3107C87.5026 42.3071 87.5213 42.3035 87.5399 42.3005C88.5438 42.1377 89.3125 41.1828 89.2569 40.1673C89.2101 39.3102 88.5908 38.684 87.795 38.6076C87.7015 38.5986 87.6056 38.5972 87.5078 38.604C87.4603 38.6072 87.4123 38.6124 87.364 38.6196C87.3556 38.6208 87.3473 38.6221 87.3389 38.6235L87.317 38.6271C87.2822 38.6332 87.2477 38.6402 87.2135 38.6481C87.2003 38.6512 87.1736 38.6502 87.1736 38.6502C87.1736 38.6502 87.167 38.6244 87.1672 38.6109C87.1676 38.5757 87.1671 38.5405 87.1656 38.5052L87.1645 38.4831L87.1629 38.4577C87.1596 38.409 87.1544 38.361 87.1474 38.3139C87.1331 38.2169 87.1113 38.1235 87.0825 38.0341C86.8378 37.2731 86.0938 36.8019 85.2464 36.9393C84.2426 37.102 83.4739 38.057 83.5294 39.0724C83.5304 39.0894 83.5309 39.1064 83.5313 39.1234L83.5314 39.1289C83.5324 39.1662 83.5333 39.2035 83.5386 39.2395ZM57.5435 52.7635L59.6965 46.4684C59.7121 46.4045 59.7357 46.3417 59.7593 46.2786L59.7631 46.2686C59.7738 46.24 59.7846 46.2112 59.7944 46.1822C60.389 44.4439 62.3232 43.3649 64.1148 43.772C65.6271 44.1157 66.5543 45.4088 66.4488 46.8491C66.4364 47.0184 66.4097 47.1897 66.3681 47.3618C66.3478 47.4455 66.324 47.5294 66.2966 47.6132C66.2919 47.6277 66.2869 47.6422 66.282 47.6568L66.2722 47.6851L66.269 47.6945C66.2475 47.7546 66.2245 47.814 66.2 47.8725C66.1905 47.8951 66.1842 47.9429 66.1842 47.9429C66.1842 47.9429 66.2282 47.9626 66.2524 47.9664C66.315 47.9763 66.3776 47.9879 66.44 48.0013C66.4531 48.0041 66.4661 48.007 66.479 48.01C66.4941 48.0133 66.5089 48.0168 66.5238 48.0205C66.6095 48.0411 66.6934 48.065 66.7753 48.0917C66.9436 48.1466 67.1034 48.2139 67.2539 48.2923C68.5349 48.9592 69.1483 50.4274 68.6462 51.8947C68.0517 53.6332 66.1175 54.7122 64.3259 54.305C64.2963 54.2982 64.2663 54.2923 64.2365 54.2864L64.2258 54.2843C64.1597 54.2713 64.0936 54.2583 64.031 54.238L57.5435 52.7635ZM79.9187 57.4767L81.059 53.9752C81.0671 53.9397 81.0796 53.9048 81.0922 53.8697L81.0942 53.8641C81.0999 53.8481 81.1056 53.8321 81.1108 53.816C81.4257 52.8491 82.4874 52.2361 83.4823 52.4469C84.3221 52.6248 84.8457 53.3328 84.7991 54.1308C84.7936 54.2246 84.7803 54.3197 84.7586 54.4152C84.7481 54.4617 84.7356 54.5083 84.7211 54.555L84.7134 54.5792L84.7064 54.6002C84.6951 54.6336 84.6828 54.6667 84.6697 54.6993C84.6647 54.7119 84.6616 54.7383 84.6616 54.7383C84.6616 54.7383 84.6861 54.7489 84.6995 54.7508C84.7342 54.7558 84.769 54.7617 84.8036 54.7686L84.8253 54.7731C84.8336 54.7748 84.8419 54.7766 84.8502 54.7785C84.8978 54.7892 84.9444 54.8018 84.9899 54.8159C85.0835 54.8449 85.1725 54.8808 85.2564 54.923C85.9709 55.2816 86.3223 56.0892 86.0564 56.9054C85.7415 57.8723 84.6798 58.4853 83.685 58.2745C83.6685 58.271 83.652 58.268 83.6355 58.265L83.6294 58.2639C83.5927 58.2572 83.556 58.2506 83.5212 58.2399L79.9187 57.4767Z" fill="url(#paint4_linear_3059_46002)"/>
<path opacity="0.3" fill-rule="evenodd" clip-rule="evenodd" d="M64.0845 26.9006L69.5282 37.0013L78.9955 30.519C79.0946 30.4635 79.1879 30.3955 79.2819 30.327L79.2976 30.3156C79.34 30.2848 79.3825 30.2538 79.4258 30.2242C82.0403 28.4341 82.9411 24.7221 81.4378 21.9328C80.1691 19.5783 77.5924 18.6341 75.2475 19.4739C74.9719 19.5725 74.6995 19.6959 74.4328 19.8445C74.415 19.8545 74.3972 19.8645 74.3794 19.8747C74.3792 19.8748 74.3795 19.8746 74.3794 19.8747C74.3052 19.9171 74.2311 19.9617 74.1579 20.008C74.1575 20.0083 74.1572 20.0085 74.1568 20.0087C74.1204 20.0317 74.0842 20.0553 74.0481 20.0793C74.026 20.0938 74.0042 20.1086 73.9823 20.1237C73.9633 20.1366 73.9444 20.1496 73.9256 20.1629C73.8356 20.2262 73.7475 20.2919 73.6616 20.3595C73.6284 20.3856 73.552 20.4182 73.552 20.4182C73.552 20.4182 73.499 20.3542 73.4815 20.3158C73.4361 20.2161 73.3879 20.1174 73.3369 20.0199C73.3342 20.0148 73.3315 20.0097 73.3288 20.0046C73.3208 19.9894 73.3127 19.9743 73.3045 19.9592C73.292 19.9361 73.2792 19.9125 73.2665 19.8897C73.2455 19.8519 73.2242 19.8146 73.2025 19.7776C73.2013 19.7756 73.2002 19.7736 73.199 19.7716C73.156 19.6984 73.1116 19.6266 73.066 19.5563C73.0659 19.5562 73.0661 19.5564 73.066 19.5563C73.0548 19.5391 73.0434 19.5216 73.032 19.5046C72.8631 19.2503 72.6775 19.0158 72.4778 18.8018C70.7788 16.9807 68.0561 16.6389 65.849 18.1501C63.2346 19.9402 62.3339 23.6522 63.837 26.4414C63.8622 26.4879 63.886 26.5351 63.9096 26.5823C63.9123 26.5876 63.915 26.5929 63.9177 26.5982C63.9698 26.7021 64.0219 26.806 64.0845 26.9006ZM72.4524 20.4864C72.4489 20.4797 72.4459 20.4741 72.4432 20.4691C72.4365 20.4564 72.4321 20.4482 72.4269 20.4386L72.4244 20.4341C72.4112 20.4097 72.4019 20.3925 72.393 20.3764C72.3315 20.2661 72.2668 20.1598 72.1992 20.0582C72.0604 19.8492 71.9086 19.6575 71.7467 19.484C70.3897 18.0296 68.2189 17.7394 66.414 18.9752C64.2214 20.4765 63.4568 23.6279 64.7173 25.967L63.837 26.4414L64.7162 25.9649C64.7493 26.0259 64.7802 26.0875 64.8031 26.1331C64.8058 26.1386 64.8085 26.1438 64.811 26.1487L64.8115 26.1498C64.8687 26.2639 64.8945 26.3126 64.9186 26.3491L64.9435 26.3866L69.8809 35.5478L78.4677 29.6684L78.507 29.6464C78.5451 29.6251 78.5904 29.5936 78.6935 29.5185L78.6945 29.5177L78.7092 29.507C78.7502 29.4772 78.8048 29.4374 78.8608 29.3991C81.0535 27.8978 81.8182 24.7465 80.5575 22.4073C79.52 20.4819 77.4576 19.7446 75.5847 20.4153C75.3614 20.4953 75.1389 20.5958 74.9199 20.7179M72.4524 20.4864C72.4944 20.5668 72.534 20.6481 72.5713 20.7299C72.6267 20.8517 72.7003 20.9505 72.7184 20.9748C72.7191 20.9758 72.7197 20.9766 72.7202 20.9773C72.736 20.9986 72.7502 21.0168 72.7604 21.0296L72.7737 21.0462L72.7785 21.052L72.7803 21.0543L72.7811 21.0552C72.7812 21.0553 72.7818 21.0561 73.552 20.4182L72.7818 21.0561L73.2577 21.6307L73.9441 21.3381L73.552 20.4182C73.9441 21.3381 73.944 21.3382 73.9441 21.3381L73.9451 21.3377L73.9463 21.3372L73.949 21.3361L73.9559 21.3331L73.9753 21.3244C73.9902 21.3177 74.0111 21.3081 74.035 21.2963C74.0358 21.2959 74.0367 21.2955 74.0378 21.295C74.065 21.2817 74.1751 21.2279 74.28 21.1454C74.352 21.0887 74.4257 21.0338 74.501 20.9809L74.503 20.9794C74.5162 20.9701 74.5294 20.961 74.5426 20.952L74.5506 20.9465C74.5676 20.9348 74.583 20.9244 74.5975 20.9148L74.6022 20.9117C74.7064 20.8424 74.8127 20.7777 74.9199 20.7179" fill="url(#paint5_linear_3059_46002)"/>
<path d="M42.2521 41.1905C41.9152 41.2666 41.5874 41.3785 41.2744 41.5244C41.0264 41.6377 40.8336 41.8449 40.7384 42.1004C40.6432 42.3559 40.6534 42.6388 40.7668 42.8868L44.1859 50.3666C44.2993 50.6145 44.5065 50.8073 44.762 50.9025C45.0175 50.9977 45.3003 50.9875 45.5483 50.8742C45.8634 50.7328 46.1626 50.5582 46.4405 50.3533C47.3992 49.6556 48.0873 48.6479 48.3881 47.501C48.6888 46.3541 48.5839 45.1385 48.0909 44.0602C47.598 42.9818 46.7474 42.107 45.6833 41.584C44.6192 41.061 43.407 40.922 42.2521 41.1905V41.1905Z" fill="white"/>
<path opacity="0.2" fill-rule="evenodd" clip-rule="evenodd" d="M95.1184 29.3348L96.4674 31.9876L98.9621 30.3647L98.9828 30.3537C98.9847 30.3526 98.9886 30.35 98.995 30.3456C99.0014 30.3413 99.0051 30.3387 99.0111 30.3351C99.0171 30.3316 99.0199 30.3292 99.0262 30.3244C99.039 30.3155 99.056 30.3038 99.075 30.2916C99.3324 30.1247 99.524 29.8559 99.6077 29.5444C99.6914 29.2329 99.6604 28.9042 99.5213 28.6306C99.3823 28.3571 99.1467 28.161 98.8664 28.0857C98.5861 28.0103 98.284 28.0617 98.0266 28.2286C97.9966 28.2483 97.9677 28.269 97.94 28.2906L97.3449 28.7126L97.0405 28.0496C97.0275 28.0166 97.0128 27.9842 96.9964 27.9526C96.857 27.6794 96.6211 27.4838 96.3406 27.409C96.0602 27.3341 95.7582 27.3861 95.501 27.5536C95.2439 27.721 95.0527 27.9901 94.9695 28.3017C94.8862 28.6133 94.9178 28.9418 95.0573 29.2151C95.0675 29.2351 95.0765 29.2538 95.0831 29.2678C95.0865 29.2747 95.0888 29.2799 95.0907 29.2847L95.0994 29.3018L95.1059 29.3149L95.1184 29.3348ZM96.2234 32.8983L94.5992 29.7055C94.5807 29.6749 94.5639 29.643 94.5488 29.6099C94.5411 29.5931 94.5334 29.5762 94.5249 29.5603C94.3147 29.15 94.2617 28.6581 94.3768 28.1873C94.4918 27.7164 94.7662 27.3028 95.1426 27.0325C95.5191 26.7623 95.9687 26.6563 96.3977 26.7365C96.8268 26.8168 97.2023 27.0772 97.446 27.4634C97.471 27.5028 97.4944 27.5436 97.5163 27.5858C97.5202 27.5931 97.5238 27.6004 97.5276 27.6078L97.5373 27.6269C97.5525 27.6578 97.5668 27.689 97.5802 27.7204C97.5866 27.7319 97.5939 27.7426 97.6022 27.7526C97.6141 27.7479 97.6258 27.742 97.6368 27.7349C97.6642 27.7145 97.6922 27.6948 97.7207 27.6756L97.7387 27.6637C97.7456 27.6592 97.7526 27.6547 97.7596 27.6504C97.7997 27.625 97.8404 27.6017 97.8815 27.5795C98.2856 27.3675 98.7406 27.3302 99.152 27.4753C99.5634 27.6205 99.8994 27.937 100.09 28.3589C100.281 28.7809 100.312 29.2759 100.176 29.741C100.041 30.2061 99.7496 30.6055 99.3629 30.8561C99.3468 30.8666 99.3324 30.8766 99.3174 30.8871C99.288 30.9082 99.2576 30.9276 99.2264 30.9449L96.2234 32.8983Z" fill="url(#paint6_linear_3059_46002)"/>
</g>
<defs>
<linearGradient id="paint0_linear_3059_46002" x1="35.484" y1="45.1815" x2="75.7618" y2="23.61" gradientUnits="userSpaceOnUse">
<stop stop-color="#EFB797" stop-opacity="0.2"/>
<stop offset="1" stop-color="#FFE3D3" stop-opacity="0"/>
</linearGradient>
<linearGradient id="paint1_linear_3059_46002" x1="12.3892" y1="7.7907" x2="84.7809" y2="15.1505" gradientUnits="userSpaceOnUse">
<stop stop-color="#DD1C84"/>
<stop offset="0.5087" stop-color="#EA8855"/>
<stop offset="0.678731" stop-color="#F1A839"/>
<stop offset="0.771199" stop-color="#FF932F"/>
</linearGradient>
<linearGradient id="paint2_linear_3059_46002" x1="-22.189" y1="21.3555" x2="90.084" y2="75.6243" gradientUnits="userSpaceOnUse">
<stop stop-color="#DD1C84"/>
<stop offset="0.5087" stop-color="#EA8855"/>
<stop offset="0.678731" stop-color="#F1A839"/>
<stop offset="0.771199" stop-color="#FF932F"/>
</linearGradient>
<linearGradient id="paint3_linear_3059_46002" x1="7.56983" y1="-29.1008" x2="91.1144" y2="133.883" gradientUnits="userSpaceOnUse">
<stop stop-color="#DD1C84"/>
<stop offset="0.5087" stop-color="#EA8855"/>
<stop offset="0.678731" stop-color="#F1A839"/>
<stop offset="0.771199" stop-color="#FF932F"/>
</linearGradient>
<linearGradient id="paint4_linear_3059_46002" x1="57.5435" y1="28.2997" x2="75.8826" y2="75.6698" gradientUnits="userSpaceOnUse">
<stop stop-color="#DD1C84"/>
<stop offset="0.5087" stop-color="#EA8855"/>
<stop offset="0.678731" stop-color="#F1A839"/>
<stop offset="0.771199" stop-color="#FF932F"/>
</linearGradient>
<linearGradient id="paint5_linear_3059_46002" x1="66.5463" y1="8.53879" x2="78.3879" y2="49.2825" gradientUnits="userSpaceOnUse">
<stop stop-color="#DD1C84"/>
<stop offset="0.5087" stop-color="#EA8855"/>
<stop offset="0.678731" stop-color="#F1A839"/>
<stop offset="0.771199" stop-color="#FF932F"/>
</linearGradient>
<linearGradient id="paint6_linear_3059_46002" x1="95.5008" y1="23.9901" x2="98.8926" y2="36.8001" gradientUnits="userSpaceOnUse">
<stop stop-color="#DD1C84"/>
<stop offset="0.5087" stop-color="#EA8855"/>
<stop offset="0.678731" stop-color="#F1A839"/>
<stop offset="0.771199" stop-color="#FF932F"/>
</linearGradient>
<clipPath id="clip0_3059_46002">
<rect width="106" height="94" fill="white"/>
</clipPath>
</defs>
</svg>
