<svg viewBox="0 0 106 94" fill="none" xmlns="http://www.w3.org/2000/svg">
<path d="M3 12.6431H99.5154V85.8554C99.5154 88.0646 97.7246 89.8554 95.5154 89.8554H7C4.79086 89.8554 3 88.0646 3 85.8554V12.6431Z" fill="white"/>
<path opacity="0.8" fill-rule="evenodd" clip-rule="evenodd" d="M3.12891 13.5375V9.10029V8.97074C3.12891 6.2354 5.36431 4 8.09965 4H8.2292H95.2728H95.4C98.1265 4 100.356 6.22086 100.371 8.94403C100.372 8.99593 100.373 9.04802 100.373 9.10029V13.5375C100.373 13.5538 100.372 13.5699 100.371 13.5858V48.032C100.371 48.3081 100.147 48.532 99.8708 48.532C99.5947 48.532 99.3708 48.3081 99.3708 48.032V14.0375H4.12891V48.032C4.12891 48.3081 3.90505 48.532 3.62891 48.532C3.35276 48.532 3.12891 48.3081 3.12891 48.032V13.5375ZM100.371 64.0211C100.371 63.745 100.147 63.5211 99.8708 63.5211C99.5947 63.5211 99.3708 63.745 99.3708 64.0211V85.8983C99.3708 88.0813 97.5831 89.869 95.4 89.869H8.09965C5.91659 89.869 4.12891 88.0813 4.12891 85.8983V65.7266C4.12891 65.4504 3.90505 65.2266 3.62891 65.2266C3.35276 65.2266 3.12891 65.4504 3.12891 65.7266V85.8983C3.12891 88.6336 5.36431 90.869 8.09965 90.869H95.4C98.1354 90.869 100.371 88.6336 100.371 85.8983V64.0211ZM10.5109 8.85523C10.5109 9.41741 10.0551 9.87315 9.49294 9.87315C8.93076 9.87315 8.47503 9.41741 8.47503 8.85523C8.47503 8.29305 8.93076 7.83731 9.49294 7.83731C10.0551 7.83731 10.5109 8.29305 10.5109 8.85523ZM13.5602 9.87315C14.1224 9.87315 14.5781 9.41741 14.5781 8.85523C14.5781 8.29305 14.1224 7.83731 13.5602 7.83731C12.998 7.83731 12.5423 8.29305 12.5423 8.85523C12.5423 9.41741 12.998 9.87315 13.5602 9.87315ZM18.6444 8.85523C18.6444 9.41741 18.1886 9.87315 17.6264 9.87315C17.0643 9.87315 16.6085 9.41741 16.6085 8.85523C16.6085 8.29305 17.0643 7.83731 17.6264 7.83731C18.1886 7.83731 18.6444 8.29305 18.6444 8.85523Z" fill="url(#paint0_linear_3059_46317)"/>
<path d="M90.1396 51.9055C90.1396 72.5308 73.4195 89.2509 52.7941 89.2509C32.1688 89.2509 15.4487 72.5308 15.4487 51.9055C15.4487 31.2802 32.1688 14.5601 52.7941 14.5601C73.4195 14.5601 90.1396 31.2802 90.1396 51.9055Z" fill="white"/>
<path opacity="0.8" fill-rule="evenodd" clip-rule="evenodd" d="M52.357 86.2216C71.2324 86.2216 86.5339 70.9201 86.5339 52.0448C86.5339 33.1694 71.2324 17.8679 52.357 17.8679C33.4817 17.8679 18.1802 33.1694 18.1802 52.0448C18.1802 70.9201 33.4817 86.2216 52.357 86.2216ZM52.357 87.2216C71.7847 87.2216 87.5339 71.4724 87.5339 52.0448C87.5339 32.6171 71.7847 16.8679 52.357 16.8679C32.9294 16.8679 17.1802 32.6171 17.1802 52.0448C17.1802 71.4724 32.9294 87.2216 52.357 87.2216Z" fill="url(#paint1_linear_3059_46317)"/>
<g opacity="0.4">
<path fill-rule="evenodd" clip-rule="evenodd" d="M52.2212 16.9099C52.3765 16.999 52.4722 17.1644 52.4722 17.3435V17.511C58.5571 21.3269 63.67 27.0219 66.991 33.8527C67.3219 33.7515 67.6467 33.6471 67.9649 33.5395C72.3284 32.0647 75.3763 30.0352 76.59 27.8199C76.7226 27.5777 77.0265 27.4889 77.2687 27.6216C77.5109 27.7543 77.5997 28.0582 77.467 28.3004C76.0671 30.8555 72.7133 32.9902 68.2851 34.4868C68.002 34.5825 67.714 34.6758 67.4214 34.7665C69.7045 39.7721 71.0336 45.3531 71.0998 51.2294H86.4096C86.6857 51.2294 86.9096 51.4533 86.9096 51.7294C86.9096 52.0056 86.6857 52.2294 86.4096 52.2294H71.0988C71.0257 57.7762 69.8269 63.0589 67.7632 67.8415C67.9331 67.8958 68.1014 67.9511 68.2681 68.0072C72.6903 69.4958 76.0454 71.6189 77.4648 74.1606C77.5994 74.4017 77.5131 74.7063 77.272 74.8409C77.0309 74.9756 76.7263 74.8893 76.5917 74.6482C75.3591 72.441 72.306 70.4216 67.949 68.9549C67.7528 68.8889 67.5542 68.824 67.3532 68.7604C64.0477 75.9316 58.782 81.9114 52.4722 85.8697V86.0355C52.4722 86.2146 52.3765 86.38 52.2212 86.4692C52.0659 86.5583 51.8748 86.5576 51.7201 86.4673L51.6027 86.3985L51.4838 86.4682C51.2454 86.6075 50.9392 86.5271 50.7999 86.2886C50.7255 86.1611 50.7138 86.0143 50.7555 85.8839C44.5137 81.9762 39.2926 76.0919 35.9764 69.0323C31.7132 70.5015 28.7352 72.5044 27.539 74.6879C27.4063 74.93 27.1024 75.0188 26.8602 74.8861C26.618 74.7535 26.5293 74.4496 26.662 74.2074C28.0318 71.707 31.2727 69.6093 35.5605 68.118C33.4234 63.2633 32.1797 57.8838 32.1051 52.2294H17.6548C17.3786 52.2294 17.1548 52.0056 17.1548 51.7294C17.1548 51.4533 17.3786 51.2294 17.6548 51.2294H32.1041C32.1713 45.2544 33.5451 39.5842 35.8998 34.5136L35.8608 34.5006C31.4387 33.0119 28.0835 30.8888 26.6642 28.3471C26.5295 28.106 26.6158 27.8015 26.8569 27.6668C27.098 27.5322 27.4026 27.6185 27.5373 27.8596C28.7698 30.0668 31.823 32.0862 36.1799 33.5528C36.2316 33.5702 36.2834 33.5875 36.3355 33.6048C39.6637 26.8755 44.7351 21.2658 50.7551 17.4956C50.7139 17.3656 50.7257 17.2194 50.7999 17.0923C50.9391 16.8539 51.2453 16.7734 51.4838 16.9126L51.6012 16.9815L51.7201 16.9117C51.8747 16.8214 52.0658 16.8207 52.2212 16.9099ZM33.1052 52.2294C33.1802 57.7748 34.4081 63.0482 36.5141 67.8018C40.7088 66.4761 45.8764 65.6762 51.4722 65.6223V52.2294H33.1052ZM51.4722 51.2294H33.1042C33.1719 45.3592 34.5326 39.7916 36.8601 34.8206C40.9931 36.0796 46.0307 36.8354 51.4722 36.8857V51.2294ZM52.4722 52.2294V65.6207C57.7801 65.654 62.7103 66.3587 66.8005 67.5477C68.8387 62.8602 70.0251 57.6758 70.0987 52.2294H52.4722ZM70.0997 51.2294H52.4722V36.8869C57.6317 36.8524 62.4334 36.1838 66.4526 35.0528C68.7136 39.9643 70.033 45.4499 70.0997 51.2294ZM51.4722 66.6224C46.0163 66.6757 40.997 67.4495 36.9339 68.7181C40.2042 75.6251 45.344 81.3677 51.4722 85.1521V66.6224ZM66.3861 68.4689C62.4251 67.3334 57.6407 66.6537 52.4722 66.6207V84.6827C58.3449 80.8529 63.2524 75.2055 66.3861 68.4689ZM51.4722 35.8856C46.181 35.836 41.2993 35.1086 37.3009 33.9092C40.5826 27.3378 45.5693 21.8736 51.4722 18.2272V35.8856ZM66.0165 34.1362C62.1305 35.2114 57.4823 35.8529 52.4722 35.8869V18.6979C58.1197 22.3795 62.8736 27.7412 66.0165 34.1362Z" fill="url(#paint2_linear_3059_46317)"/>
</g>
<path opacity="0.4" fill-rule="evenodd" clip-rule="evenodd" d="M88.8514 50.2033C92.9481 50.8963 96.246 51.7046 98.5421 52.5846C99.761 53.0519 100.661 53.5257 101.245 53.9882C101.838 54.4585 102.006 54.8349 102.006 55.1042C102.006 55.3734 101.838 55.7498 101.245 56.2201C100.661 56.6826 99.761 57.1564 98.5421 57.6237C96.212 58.5168 92.85 59.336 88.6686 60.0358C88.6046 60.4742 88.5332 60.9102 88.4547 61.3435C92.8627 60.6234 96.4676 59.7632 98.9914 58.7958C100.263 58.3085 101.297 57.7803 102.024 57.2041C102.742 56.6357 103.262 55.9365 103.262 55.1042C103.262 54.2718 102.742 53.5726 102.024 53.0042C101.297 52.428 100.263 51.8998 98.9914 51.4125C96.5124 50.4623 92.9905 49.6155 88.6889 48.9033C88.7503 49.3343 88.8045 49.7677 88.8514 50.2033ZM16.0246 49.2787C12.6822 49.9069 9.90733 50.6241 7.85051 51.4125C6.57914 51.8998 5.54516 52.428 4.8178 53.0042C4.10037 53.5726 3.58008 54.2718 3.58008 55.1042C3.58008 55.9365 4.10037 56.6357 4.8178 57.2041C5.54516 57.7803 6.57914 58.3085 7.85051 58.7958C9.95231 59.6014 12.8039 60.3327 16.2447 60.9707C16.17 60.5348 16.1027 60.0963 16.0428 59.6554C12.8404 59.0453 10.2198 58.3596 8.2998 57.6237C7.08085 57.1564 6.18112 56.6826 5.59735 56.2201C5.00365 55.7498 4.8354 55.3734 4.8354 55.1042C4.8354 54.8349 5.00365 54.4585 5.59735 53.9882C6.18112 53.5257 7.08085 53.0519 8.2998 52.5846C10.186 51.8617 12.7484 51.1871 15.8743 50.5851C15.9172 50.1474 15.9673 49.7119 16.0246 49.2787Z" fill="url(#paint3_linear_3059_46317)"/>
<path d="M53.1743 57.428H64.7461V61.2852H53.1743V57.428Z" fill="white"/>
<path fill-rule="evenodd" clip-rule="evenodd" d="M59.3808 52.2859C57.3935 52.2859 55.4876 53.0761 54.0824 54.4827C52.6771 55.8893 51.8877 57.7971 51.8877 59.7863V63.6114C51.8877 63.9832 51.9608 64.3515 52.1029 64.695C52.2451 65.0385 52.4534 65.3507 52.7161 65.6136C52.9788 65.8766 53.2906 66.0852 53.6338 66.2275C53.977 66.3698 54.3448 66.443 54.7163 66.443H58.5379C60.5252 66.443 62.4311 65.6528 63.8363 64.2462C65.2416 62.8396 66.031 60.9318 66.031 58.9426C66.031 58.0684 65.859 57.2028 65.5248 56.3952C65.1906 55.5875 64.7007 54.8537 64.0832 54.2356C63.4657 53.6175 62.7326 53.1271 61.9257 52.7926C61.1189 52.4581 60.2541 52.2859 59.3808 52.2859Z" fill="url(#paint4_linear_3059_46317)"/>
<path d="M55.4155 60.2215C55.4155 59.7346 55.8103 59.3398 56.2972 59.3398H61.587C62.0739 59.3398 62.4687 59.7346 62.4687 60.2215V60.2215C62.4687 60.7084 62.0739 61.1031 61.587 61.1031H56.2972C55.8103 61.1031 55.4155 60.7084 55.4155 60.2215V60.2215Z" fill="white"/>
<path d="M55.4155 56.6946C55.4155 56.2077 55.8103 55.813 56.2972 55.813H58.0605C58.5474 55.813 58.9421 56.2077 58.9421 56.6946V56.6946C58.9421 57.1815 58.5474 57.5763 58.0605 57.5763H56.2972C55.8103 57.5763 55.4155 57.1815 55.4155 56.6946V56.6946Z" fill="white"/>
<path d="M42.3364 30.9849H24.7556V36.8451H42.3364V30.9849Z" fill="white"/>
<path fill-rule="evenodd" clip-rule="evenodd" d="M40.9547 26.5085C38.8198 24.3715 35.9242 23.1709 32.9049 23.1709C31.5781 23.1709 30.2642 23.4325 29.0384 23.9407C27.8126 24.449 26.6988 25.1939 25.7606 26.133C24.8224 27.0722 24.0782 28.1871 23.5704 29.4141C23.0627 30.6411 22.8013 31.9562 22.8013 33.2843C22.8013 36.3065 24.0007 39.205 26.1357 41.342C28.2706 43.479 31.1663 44.6796 34.1855 44.6796H39.9916C40.556 44.6796 41.1148 44.5683 41.6362 44.3521C42.1577 44.1359 42.6314 43.819 43.0305 43.4195C43.4296 43.0201 43.7461 42.5458 43.962 42.0239C44.178 41.5019 44.2891 40.9425 44.2891 40.3776V34.5662C44.2891 31.544 43.0897 28.6455 40.9547 26.5085ZM37.5917 33.8881C38.3315 33.8881 38.9312 34.4878 38.9312 35.2276C38.9312 35.9674 38.3315 36.5671 37.5917 36.5671H29.5549C28.8152 36.5671 28.2155 35.9674 28.2155 35.2276C28.2155 34.4878 28.8152 33.8881 29.5549 33.8881H37.5917Z" fill="url(#paint5_linear_3059_46317)"/>
<path d="M77.5996 32.5859H84.9707V35.043H77.5996V32.5859Z" fill="white"/>
<path fill-rule="evenodd" clip-rule="evenodd" d="M78.1778 30.7092C79.0729 29.8132 80.2869 29.3098 81.5528 29.3098C82.1091 29.3098 82.6599 29.4195 83.1739 29.6326C83.6878 29.8457 84.1548 30.158 84.5482 30.5517C84.9415 30.9455 85.2535 31.4129 85.4664 31.9274C85.6793 32.4418 85.7889 32.9932 85.7889 33.55C85.7889 34.8171 85.286 36.0324 84.3909 36.9284C83.4958 37.8243 82.2817 38.3277 81.0159 38.3277H78.5816C78.3449 38.3277 78.1106 38.281 77.892 38.1904C77.6734 38.0998 77.4748 37.9669 77.3075 37.7994C77.1401 37.6319 77.0074 37.4331 76.9169 37.2142C76.8264 36.9954 76.7798 36.7609 76.7798 36.524V34.0875C76.7798 32.8204 77.2827 31.6051 78.1778 30.7092ZM79.5884 33.8022C79.2782 33.8022 79.0268 34.0536 79.0268 34.3638C79.0268 34.674 79.2782 34.9254 79.5884 34.9254H82.9579C83.2681 34.9254 83.5195 34.674 83.5195 34.3638C83.5195 34.0536 83.2681 33.8022 82.9579 33.8022H79.5884Z" fill="url(#paint6_linear_3059_46317)"/>
<path d="M40.2408 79.4904C40.8254 79.4904 41.3315 79.2821 41.7451 78.871C42.1586 78.46 42.3684 77.9571 42.3684 77.3761C42.3684 76.7954 42.1587 76.2924 41.7451 75.8813C41.3314 75.4703 40.8253 75.262 40.2408 75.262C39.6562 75.262 39.1502 75.4703 38.7366 75.8813C38.323 76.2923 38.1133 76.7953 38.1133 77.3761C38.1133 77.9571 38.323 78.4601 38.7366 78.8711C39.1503 79.282 39.6564 79.4904 40.2408 79.4904Z" fill="url(#paint7_linear_3059_46317)"/>
<path d="M43.893 81.3519C43.8811 81.2196 43.8571 81.0752 43.8217 80.9228C43.786 80.7693 43.7401 80.6241 43.685 80.4914C43.6281 80.3543 43.5508 80.2189 43.4552 80.0891C43.356 79.9544 43.2395 79.8371 43.1088 79.7406C42.972 79.6396 42.8046 79.5584 42.6111 79.4992C42.4182 79.4403 42.2044 79.4105 41.9757 79.4105C41.8859 79.4105 41.799 79.4389 41.6313 79.5232C41.5281 79.5751 41.4073 79.6352 41.2725 79.7017C41.1573 79.7584 41.0012 79.8115 40.8083 79.8596C40.6202 79.9066 40.4291 79.9304 40.2405 79.9304C40.0521 79.9304 39.861 79.9066 39.6728 79.8596C39.4801 79.8115 39.3239 79.7584 39.2089 79.7018C39.0754 79.6359 38.9546 79.5758 38.8498 79.5231C38.6822 79.4388 38.5953 79.4104 38.5055 79.4104C38.2768 79.4104 38.063 79.4403 37.8702 79.4993C37.6768 79.5584 37.5093 79.6395 37.3724 79.7406C37.2417 79.8372 37.1252 79.9544 37.0261 80.0891C36.9306 80.2189 36.8532 80.3542 36.7963 80.4915C36.7414 80.6242 36.6954 80.7693 36.6597 80.9228C36.6242 81.075 36.6003 81.2194 36.5884 81.352C36.5767 81.4817 36.5708 81.6167 36.5708 81.753C36.5708 82.1075 36.7168 82.3945 37.0047 82.6061C37.289 82.8149 37.6652 82.9208 38.1227 82.9208H42.3589C42.8163 82.9208 43.1925 82.8149 43.4769 82.6061C43.7648 82.3946 43.9108 82.1076 43.9108 81.753C43.9107 81.6162 43.9048 81.4812 43.893 81.3519Z" fill="url(#paint8_linear_3059_46317)"/>
<g opacity="0.6">
<path d="M76.9707 45.4303C77.611 45.4303 78.1654 45.2021 78.6185 44.7518C79.0715 44.3016 79.3013 43.7507 79.3013 43.1143C79.3013 42.4781 79.0716 41.9271 78.6185 41.4767C78.1654 41.0266 77.611 40.7983 76.9707 40.7983C76.3303 40.7983 75.776 41.0266 75.3229 41.4768C74.8699 41.927 74.6401 42.478 74.6401 43.1143C74.6401 43.7507 74.8699 44.3016 75.3229 44.7519C75.7761 45.202 76.3305 45.4303 76.9707 45.4303Z" fill="url(#paint9_linear_3059_46317)"/>
<path d="M80.9711 47.4695C80.9581 47.3246 80.9318 47.1665 80.8931 46.9995C80.8539 46.8313 80.8036 46.6723 80.7433 46.5269C80.6809 46.3767 80.5963 46.2284 80.4915 46.0862C80.3829 45.9387 80.2553 45.8102 80.1121 45.7045C79.9623 45.5938 79.7789 45.5049 79.5669 45.44C79.3555 45.3755 79.1214 45.3428 78.8708 45.3428C78.7725 45.3428 78.6773 45.374 78.4936 45.4663C78.3805 45.5232 78.2482 45.5891 78.1006 45.6619C77.9743 45.724 77.8033 45.7821 77.5921 45.8348C77.386 45.8863 77.1767 45.9124 76.9701 45.9124C76.7637 45.9124 76.5544 45.8863 76.3482 45.8348C76.1371 45.7822 75.966 45.724 75.84 45.6619C75.6938 45.5898 75.5614 45.524 75.4466 45.4663C75.263 45.3739 75.1679 45.3428 75.0695 45.3428C74.8189 45.3428 74.5848 45.3755 74.3736 45.4401C74.1617 45.5049 73.9782 45.5938 73.8283 45.7045C73.6851 45.8103 73.5575 45.9387 73.4489 46.0862C73.3443 46.2284 73.2596 46.3767 73.1972 46.527C73.137 46.6723 73.0867 46.8313 73.0475 46.9995C73.0087 47.1663 72.9825 47.3244 72.9695 47.4697C72.9567 47.6118 72.9502 47.7596 72.9502 47.909C72.9502 48.2973 73.1101 48.6116 73.4255 48.8434C73.7369 49.0722 74.149 49.1882 74.6502 49.1882H79.2906C79.7917 49.1882 80.2037 49.0722 80.5153 48.8434C80.8307 48.6118 80.9906 48.2973 80.9906 47.9089C80.9905 47.759 80.984 47.6112 80.9711 47.4695Z" fill="url(#paint10_linear_3059_46317)"/>
</g>
<g opacity="0.2">
<path d="M67.7895 75.414C68.3398 75.414 68.8162 75.2179 69.2056 74.8309C69.5949 74.444 69.7923 73.9706 69.7923 73.4236C69.7923 72.8769 69.595 72.4034 69.2055 72.0163C68.8161 71.6295 68.3397 71.4333 67.7895 71.4333C67.2391 71.4333 66.7627 71.6295 66.3734 72.0164C65.9841 72.4033 65.7866 72.8768 65.7866 73.4236C65.7866 73.9706 65.9841 74.444 66.3734 74.831C66.7629 75.2178 67.2393 75.414 67.7895 75.414Z" fill="url(#paint11_linear_3059_46317)"/>
<path d="M71.2276 77.1666C71.2164 77.042 71.1937 76.9061 71.1604 76.7627C71.1268 76.6181 71.0836 76.4814 71.0317 76.3565C70.9782 76.2274 70.9054 76.0999 70.8154 75.9778C70.7221 75.851 70.6124 75.7405 70.4893 75.6497C70.3606 75.5546 70.203 75.4782 70.0207 75.4225C69.8391 75.367 69.6379 75.3389 69.4226 75.3389C69.3381 75.3389 69.2563 75.3657 69.0984 75.445C69.0012 75.494 68.8875 75.5505 68.7606 75.6131C68.6522 75.6665 68.5052 75.7165 68.3236 75.7617C68.1465 75.806 67.9667 75.8284 67.7891 75.8284C67.6117 75.8284 67.4319 75.806 67.2546 75.7617C67.0733 75.7165 66.9262 75.6665 66.8179 75.6132C66.6923 75.5512 66.5785 75.4946 66.4799 75.445C66.3221 75.3656 66.2403 75.3389 66.1558 75.3389C65.9405 75.3389 65.7393 75.367 65.5577 75.4225C65.3756 75.4782 65.218 75.5546 65.0891 75.6497C64.966 75.7406 64.8563 75.851 64.7631 75.9778C64.6732 76.0999 64.6004 76.2274 64.5468 76.3566C64.495 76.4815 64.4517 76.6181 64.4181 76.7627C64.3848 76.9059 64.3622 77.0419 64.351 77.1667C64.34 77.2888 64.3345 77.4158 64.3345 77.5442C64.3345 77.8779 64.4719 78.1481 64.7429 78.3473C65.0106 78.5439 65.3647 78.6436 65.7954 78.6436H69.7833C70.214 78.6436 70.5681 78.5439 70.8358 78.3473C71.1069 78.1482 71.2443 77.878 71.2443 77.5442C71.2442 77.4154 71.2386 77.2883 71.2276 77.1666Z" fill="url(#paint12_linear_3059_46317)"/>
</g>
<defs>
<linearGradient id="paint0_linear_3059_46317" x1="3.12891" y1="-30.9732" x2="92.8782" y2="144.131" gradientUnits="userSpaceOnUse">
<stop stop-color="#DD1C84"/>
<stop offset="0.5087" stop-color="#EA8855"/>
<stop offset="0.678731" stop-color="#F1A839"/>
<stop offset="0.771199" stop-color="#FF932F"/>
</linearGradient>
<linearGradient id="paint1_linear_3059_46317" x1="17.1802" y1="-11.4563" x2="94.477" y2="123.263" gradientUnits="userSpaceOnUse">
<stop stop-color="#DD1C84"/>
<stop offset="0.5087" stop-color="#EA8855"/>
<stop offset="0.678731" stop-color="#F1A839"/>
<stop offset="0.771199" stop-color="#FF932F"/>
</linearGradient>
<linearGradient id="paint2_linear_3059_46317" x1="17.1548" y1="-11.2147" x2="93.6916" y2="122.298" gradientUnits="userSpaceOnUse">
<stop stop-color="#DD1C84"/>
<stop offset="0.5087" stop-color="#EA8855"/>
<stop offset="0.678731" stop-color="#F1A839"/>
<stop offset="0.771199" stop-color="#FF932F"/>
</linearGradient>
<linearGradient id="paint3_linear_3059_46317" x1="3.58008" y1="43.8949" x2="5.8358" y2="75.3971" gradientUnits="userSpaceOnUse">
<stop stop-color="#DD1C84"/>
<stop offset="0.5087" stop-color="#EA8855"/>
<stop offset="0.678731" stop-color="#F1A839"/>
<stop offset="0.771199" stop-color="#FF932F"/>
</linearGradient>
<linearGradient id="paint4_linear_3059_46317" x1="51.8877" y1="46.5863" x2="67.4496" y2="73.6823" gradientUnits="userSpaceOnUse">
<stop stop-color="#DD1C84"/>
<stop offset="0.5087" stop-color="#EA8855"/>
<stop offset="0.678731" stop-color="#F1A839"/>
<stop offset="0.771199" stop-color="#FF932F"/>
</linearGradient>
<linearGradient id="paint5_linear_3059_46317" x1="44.2891" y1="14.5115" x2="20.646" y2="55.6782" gradientUnits="userSpaceOnUse">
<stop stop-color="#DD1C84"/>
<stop offset="0.5087" stop-color="#EA8855"/>
<stop offset="0.678731" stop-color="#F1A839"/>
<stop offset="0.771199" stop-color="#FF932F"/>
</linearGradient>
<linearGradient id="paint6_linear_3059_46317" x1="76.7798" y1="25.6792" x2="86.6925" y2="42.939" gradientUnits="userSpaceOnUse">
<stop stop-color="#DD1C84"/>
<stop offset="0.5087" stop-color="#EA8855"/>
<stop offset="0.678731" stop-color="#F1A839"/>
<stop offset="0.771199" stop-color="#FF932F"/>
</linearGradient>
<linearGradient id="paint7_linear_3059_46317" x1="38.1133" y1="73.5596" x2="42.7443" y2="81.6817" gradientUnits="userSpaceOnUse">
<stop stop-color="#DD1C84"/>
<stop offset="0.5087" stop-color="#EA8855"/>
<stop offset="0.678731" stop-color="#F1A839"/>
<stop offset="0.771199" stop-color="#FF932F"/>
</linearGradient>
<linearGradient id="paint8_linear_3059_46317" x1="36.5708" y1="77.9971" x2="38.851" y2="86.3064" gradientUnits="userSpaceOnUse">
<stop stop-color="#DD1C84"/>
<stop offset="0.5087" stop-color="#EA8855"/>
<stop offset="0.678731" stop-color="#F1A839"/>
<stop offset="0.771199" stop-color="#FF932F"/>
</linearGradient>
<linearGradient id="paint9_linear_3059_46317" x1="74.6401" y1="38.9335" x2="79.7131" y2="47.8307" gradientUnits="userSpaceOnUse">
<stop stop-color="#DD1C84"/>
<stop offset="0.5087" stop-color="#EA8855"/>
<stop offset="0.678731" stop-color="#F1A839"/>
<stop offset="0.771199" stop-color="#FF932F"/>
</linearGradient>
<linearGradient id="paint10_linear_3059_46317" x1="72.9502" y1="43.7946" x2="75.4479" y2="52.8968" gradientUnits="userSpaceOnUse">
<stop stop-color="#DD1C84"/>
<stop offset="0.5087" stop-color="#EA8855"/>
<stop offset="0.678731" stop-color="#F1A839"/>
<stop offset="0.771199" stop-color="#FF932F"/>
</linearGradient>
<linearGradient id="paint11_linear_3059_46317" x1="65.7866" y1="69.8307" x2="70.1463" y2="77.4768" gradientUnits="userSpaceOnUse">
<stop stop-color="#DD1C84"/>
<stop offset="0.5087" stop-color="#EA8855"/>
<stop offset="0.678731" stop-color="#F1A839"/>
<stop offset="0.771199" stop-color="#FF932F"/>
</linearGradient>
<linearGradient id="paint12_linear_3059_46317" x1="64.3345" y1="74.0084" x2="66.481" y2="81.8307" gradientUnits="userSpaceOnUse">
<stop stop-color="#DD1C84"/>
<stop offset="0.5087" stop-color="#EA8855"/>
<stop offset="0.678731" stop-color="#F1A839"/>
<stop offset="0.771199" stop-color="#FF932F"/>
</linearGradient>
</defs>
</svg>
