<svg viewBox="0 0 106 94" fill="none" xmlns="http://www.w3.org/2000/svg">
<path d="M6 9.9436C6 6.62989 8.68629 3.9436 12 3.9436H96.0487C99.3624 3.9436 102.049 6.6299 102.049 9.9436V70.9406C102.049 74.2543 99.3624 76.9406 96.0487 76.9406H12C8.6863 76.9406 6 74.2543 6 70.9406V9.9436Z" fill="white"/>
<path opacity="0.1" d="M6 9C6 5.68629 8.68629 3 12 3H96.3857C99.6994 3 102.386 5.68629 102.386 9V71.1428C102.386 74.4566 99.6994 77.1428 96.3857 77.1428H12C8.68629 77.1428 6 74.4566 6 71.1428V9Z" fill="white"/>
<path opacity="0.1" d="M65.2689 76.4019C65.2689 76.4019 63.4921 87.8876 72.2379 87.8876C61.58 87.8876 54.7471 87.8876 54.7471 87.8876H55.8399C55.8399 87.8876 49.2814 87.8876 38.6226 87.8876C47.3675 87.8876 45.4544 76.5213 45.4544 76.5213" fill="url(#paint0_linear_3059_46288)"/>
<path opacity="0.1" d="M10.1455 12.2549C10.1455 11.1503 11.0409 10.2549 12.1455 10.2549H96.24C97.3445 10.2549 98.24 11.1503 98.24 12.2549V58.0023C98.24 59.1069 97.3445 60.0023 96.24 60.0023H12.1455C11.0409 60.0023 10.1455 59.1069 10.1455 58.0023V12.2549Z" fill="url(#paint1_linear_3059_46288)"/>
<path opacity="0.7" fill-rule="evenodd" clip-rule="evenodd" d="M16.3276 15.4368C15.7754 15.4368 15.3276 15.8845 15.3276 16.4368V53.8202C15.3276 54.3725 15.7754 54.8202 16.3276 54.8202H47.6407C48.1929 54.8202 48.6407 54.3725 48.6407 53.8202V16.4368C48.6407 15.8845 48.1929 15.4368 47.6407 15.4368H16.3276ZM52.9717 15.4368C52.4194 15.4368 51.9717 15.8845 51.9717 16.4368V26.8736C51.9717 27.4259 52.4194 27.8736 52.9717 27.8736H92.0577C92.61 27.8736 93.0577 27.4259 93.0577 26.8736V16.4368C93.0577 15.8845 92.61 15.4368 92.0577 15.4368H52.9717ZM51.9717 31.9829C51.9717 31.4306 52.4194 30.9829 52.9717 30.9829H92.0577C92.61 30.9829 93.0577 31.4306 93.0577 31.9829V39.2742H73.2207C71.0116 39.2742 69.2207 41.065 69.2207 43.2742V54.8202H52.9717C52.4194 54.8202 51.9717 54.3725 51.9717 53.8202V31.9829Z" fill="url(#paint2_linear_3059_46288)"/>
<path opacity="0.8" fill-rule="evenodd" clip-rule="evenodd" d="M12 4H96.3857C99.1471 4 101.386 6.23858 101.386 9V39.2742H102.386V9C102.386 5.68629 99.6994 3 96.3857 3H12C8.68629 3 6 5.68629 6 9V71.1428C6 74.4566 8.68629 77.1428 12 77.1428H44.8851C44.8864 77.1597 44.8886 77.1765 44.8917 77.1932L44.8917 77.1935L44.8918 77.1939L44.8926 77.1982L44.8961 77.2182C44.8992 77.2364 44.9038 77.2645 44.9097 77.3017C44.9213 77.376 44.9377 77.4869 44.9556 77.6289C44.9914 77.9133 45.0335 78.3217 45.0574 78.8125C45.1055 79.7977 45.0798 81.0976 44.7942 82.3871C44.5082 83.6783 43.9698 84.9235 43.0203 85.8431C42.0821 86.752 40.697 87.3873 38.6226 87.3873C38.3464 87.3873 38.1226 87.6112 38.1226 87.8873C38.1226 88.1635 38.3464 88.3873 38.6226 88.3873H38.685H38.7473H38.8095H38.8716H38.9337H38.9956H39.0574H39.1192H39.1808H39.2424H39.3039H39.3652H39.4265H39.4877H39.5488H39.6097H39.6706H39.7314H39.7921H39.8527H39.9132H39.9736H40.034H40.0942H40.1543H40.2143H40.2743H40.3341H40.3938H40.4535H40.513H40.5724H40.6318H40.691H40.7502H40.8092H40.8682H40.9271H40.9858H41.0445H41.103H41.1615H41.2199H41.2781H41.3363H41.3944H41.4524H41.5102H41.568H41.6257H41.6833H41.7407H41.7981H41.8554H41.9126H41.9696H42.0266H42.0835H42.1403H42.1969H42.2535H42.31H42.3664H42.4226H42.4788H42.5349H42.5908H42.6467H42.7025H42.7582H42.8137H42.8692H42.9245H42.9798H43.035H43.09H43.145H43.1998H43.2546H43.3092H43.3638H43.4182H43.4725H43.5268H43.5809H43.6349H43.6889H43.7427H43.7964H43.85H43.9035H43.9569H44.0102H44.0634H44.1165H44.1695H44.2224H44.2752H44.3279H44.3804H44.4329H44.4853H44.5375H44.5897H44.6417H44.6937H44.7455H44.7972H44.8489H44.9004H44.9518H45.0031H45.0543H45.1054H45.1564H45.2073H45.258H45.3087H45.3593H45.4097H45.4601H45.5103H45.5604H45.6105H45.6604H45.7102H45.7599H45.8095H45.859H45.9084H45.9576H46.0068H46.0558H46.1048H46.1536H46.2024H46.251H46.2995H46.3479H46.3962H46.4444H46.4924H46.5404H46.5883H46.636H46.6836H46.7312H46.7786H46.8259H46.8731H46.9202H46.9671H47.014H47.0608H47.1074H47.1539H47.2004H47.2467H47.2929H47.339H47.3849H47.4308H47.4766H47.5222H47.5677H47.6131H47.6584H47.7036H47.7487H47.7937H47.8385H47.8833H47.9279H47.9724H48.0168H48.0611H48.1053H48.1494H48.1933H48.2372H48.2809H48.3245H48.368H48.4114H48.4546H48.4978H48.5408H48.5838H48.6266H48.6693H48.7119H48.7543H48.7967H48.8389H48.881H48.923H48.9649H49.0067H49.0484H49.0899H49.1313H49.1726H49.2138H49.2549H49.2959H49.3367H49.3775H49.4181H49.4586H49.499H49.5392H49.5794H49.6194H49.6593H49.6991H49.7388H49.7784H49.8178H49.8571H49.8963H49.9354H49.9744H50.0132H50.052H50.0906H50.1291H50.1675H50.2057H50.2439H50.2819H50.3198H50.3576H50.3952H50.4328H50.4702H50.5075H50.5447H50.5818H50.6187H50.6555H50.6922H50.7288H50.7653H50.8016H50.8379H50.874H50.9099H50.9458H50.9815H51.0172H51.0527H51.088H51.1233H51.1584H51.1934H51.2283H51.2631H51.2977H51.3323H51.3666H51.4009H51.4351H51.4691H51.503H51.5368H51.5705H51.604H51.6374H51.6707H51.7039H51.7369H51.7699H51.8027H51.8354H51.8679H51.9003H51.9326H51.9648H51.9969H52.0288H52.0606H52.0923H52.1238H52.1553H52.1866H52.2178H52.2488H52.2798H52.3106H52.3412H52.3718H52.4022H52.4325H52.4627H52.4927H52.5227H52.5525H52.5821H52.6117H52.6411H52.6704H52.6996H52.7286H52.7575H52.7863H52.8149H52.8435H52.8719H52.9001H52.9283H52.9563H52.9842H53.012H53.0396H53.0671H53.0945H53.1217H53.1488H53.1758H53.2027H53.2294H53.256H53.2825H53.3088H53.335H53.3611H53.3871H53.4129H53.4386H53.4642H53.4896H53.5149H53.5401H53.5651H53.59H53.6148H53.6395H53.664H53.6884H53.7127H53.7368H53.7608H53.7846H53.8084H53.832H53.8554H53.8788H53.902H53.9251H53.948H53.9708H53.9935H54.016H54.0385H54.0607H54.0829H54.1049H54.1268H54.1485H54.1701H54.1916H54.213H54.2342H54.2553H54.2762H54.297H54.3177H54.3382H54.3587H54.3789H54.3991H54.4191H54.4389H54.4587H54.4783H54.4977H54.5171H54.5363H54.5553H54.5743H54.593H54.6117H54.6302H54.6486H54.6668H54.685H54.7029H54.7208H54.7385H54.7471H54.7472H54.7475H54.7478H54.7484H54.7491H54.75H54.751H54.7521H54.7535H54.7549H54.756H54.7566H54.7584H54.7603H54.7624H54.7647H54.7671H54.7696H54.7723H54.7735H54.7752H54.7782H54.7814H54.7847H54.7882H54.7908H54.7919H54.7957H54.7996H54.8037H54.808H54.8124H54.8169H54.8216H54.8249H54.8265H54.8315H54.8367H54.8418H54.842H54.8474H54.8531H54.8585H54.8588H54.8647H54.8708H54.8751H54.877H54.8834H54.8899H54.8916H54.8966H54.9034H54.9079H54.9104H54.9175H54.9241H54.9248H54.9323H54.9398H54.9402H54.9476H54.9554H54.9561H54.9635H54.9716H54.9719H54.98H54.9875H54.9884H54.997H55.003H55.0058H55.0147H55.0184H55.0238H55.033H55.0336H55.0424H55.0487H55.0519H55.0616H55.0637H55.0714H55.0785H55.0813H55.0914H55.0931H55.1017H55.1077H55.1121H55.1221H55.1226H55.1333H55.1363H55.1441H55.1504H55.1551H55.1644H55.1663H55.1775H55.1782H55.189H55.1919H55.2005H55.2055H55.2122H55.2189H55.2241H55.2322H55.2361H55.2453H55.2483H55.2583H55.2606H55.2712H55.273H55.2839H55.2856H55.2964H55.2983H55.3089H55.3112H55.3212H55.3242H55.3333H55.3374H55.3453H55.3507H55.3572H55.3642H55.3689H55.3778H55.3805H55.3915H55.392H55.4033H55.4054H55.4144H55.4195H55.4254H55.4336H55.4363H55.4471H55.448H55.4577H55.4624H55.4681H55.477H55.4784H55.4886H55.4918H55.4986H55.5067H55.5085H55.5182H55.5217H55.5278H55.5369H55.5373H55.5466H55.5522H55.5558H55.5648H55.5677H55.5737H55.5824H55.5833H55.591H55.5991H55.5994H55.6077H55.6149H55.6159H55.6239H55.631H55.6318H55.6395H55.6472H55.6546H55.6618H55.6635H55.669H55.676H55.6799H55.6829H55.6896H55.6962H55.6965H55.7026H55.7089H55.7133H55.715H55.721H55.7268H55.7302H55.7325H55.7381H55.7435H55.7472H55.7487H55.7539H55.7588H55.7636H55.7644H55.7683H55.7729H55.7772H55.7815H55.7817H55.7856H55.7895H55.7933H55.7969H55.7991H55.8004H55.8038H55.807H55.81H55.8129H55.8157H55.8167H55.8183H55.8208H55.8231H55.8252H55.8273H55.8291H55.8308H55.8324H55.8338H55.8344H55.8351H55.8362H55.8372H55.838H55.8387H55.8392H55.8396H55.8398H55.8399H55.8523H55.8703H55.8885H55.9067H55.9252H55.9437H55.9625H55.9813H56.0003H56.0194H56.0387H56.0581H56.0776H56.0973H56.1171H56.1371H56.1572H56.1774H56.1978H56.2183H56.2389H56.2597H56.2806H56.3017H56.3229H56.3442H56.3657H56.3873H56.409H56.4309H56.4529H56.4751H56.4974H56.5198H56.5423H56.565H56.5879H56.6108H56.6339H56.6572H56.6805H56.704H56.7277H56.7514H56.7753H56.7994H56.8236H56.8479H56.8723H56.8969H56.9216H56.9464H56.9714H56.9965H57.0218H57.0471H57.0727H57.0983H57.1241H57.15H57.176H57.2022H57.2285H57.2549H57.2815H57.3082H57.335H57.362H57.3891H57.4163H57.4436H57.4711H57.4987H57.5265H57.5544H57.5824H57.6105H57.6388H57.6672H57.6957H57.7243H57.7531H57.782H57.8111H57.8402H57.8695H57.899H57.9285H57.9582H57.988H58.018H58.048H58.0782H58.1086H58.139H58.1696H58.2003H58.2311H58.2621H58.2932H58.3244H58.3557H58.3872H58.4188H58.4505H58.4824H58.5144H58.5465H58.5787H58.611H58.6435H58.6761H58.7088H58.7417H58.7747H58.8078H58.841H58.8743H58.9078H58.9414H58.9751H59.009H59.043H59.077H59.1113H59.1456H59.1801H59.2147H59.2494H59.2842H59.3192H59.3542H59.3895H59.4248H59.4602H59.4958H59.5315H59.5673H59.6032H59.6393H59.6755H59.7118H59.7482H59.7847H59.8214H59.8582H59.8951H59.9321H59.9692H60.0065H60.0439H60.0814H60.119H60.1568H60.1946H60.2326H60.2707H60.3089H60.3473H60.3857H60.4243H60.463H60.5018H60.5408H60.5798H60.619H60.6583H60.6977H60.7372H60.7768H60.8166H60.8565H60.8965H60.9366H60.9768H61.0171H61.0576H61.0982H61.1389H61.1797H61.2206H61.2617H61.3028H61.3441H61.3855H61.427H61.4686H61.5103H61.5522H61.5941H61.6362H61.6784H61.7207H61.7631H61.8057H61.8483H61.8911H61.934H61.9769H62.0201H62.0633H62.1066H62.15H62.1936H62.2373H62.2811H62.325H62.369H62.4131H62.4573H62.5017H62.5461H62.5907H62.6354H62.6801H62.725H62.7701H62.8152H62.8604H62.9058H62.9512H62.9968H63.0425H63.0883H63.1342H63.1802H63.2263H63.2725H63.3188H63.3653H63.4118H63.4585H63.5053H63.5522H63.5992H63.6463H63.6935H63.7408H63.7882H63.8358H63.8834H63.9311H63.979H64.027H64.075H64.1232H64.1715H64.2199H64.2684H64.317H64.3657H64.4145H64.4635H64.5125H64.5616H64.6109H64.6602H64.7097H64.7593H64.8089H64.8587H64.9086H64.9586H65.0087H65.0588H65.1091H65.1596H65.2101H65.2607H65.3114H65.3622H65.4131H65.4642H65.5153H65.5665H65.6179H65.6693H65.7208H65.7725H65.8242H65.8761H65.928H65.9801H66.0322H66.0845H66.1369H66.1893H66.2419H66.2946H66.3473H66.4002H66.4532H66.5063H66.5594H66.6127H66.6661H66.7196H66.7731H66.8268H66.8806H66.9344H66.9884H67.0425H67.0967H67.1509H67.2053H67.2598H67.3144H67.369H67.4238H67.4787H67.5336H67.5887H67.6439H67.6991H67.7545H67.8099H67.8655H67.9211H67.9769H68.0327H68.0887H68.1447H68.2009H68.2571H68.3134H68.3698H68.4264H68.483H68.5397H68.5965H68.6534H68.7104H68.7675H68.8247H68.882H68.9394H68.9968H69.0544H69.1121H69.1699H69.2277H69.2857H69.3437H69.4018H69.4343C69.2958 87.9818 69.2207 87.5469 69.2207 87.0944V86.802C68.6526 86.5446 68.1744 86.2146 67.7705 85.837C66.7814 84.9123 66.1952 83.6622 65.8609 82.37C65.527 81.0792 65.453 79.7788 65.4644 78.7939C65.4702 78.3032 65.497 77.8949 65.5223 77.6107C65.5349 77.4687 65.5471 77.3579 65.556 77.2836C65.5604 77.2465 65.5641 77.2184 65.5665 77.2002L65.5692 77.1803L65.5698 77.1761L65.5699 77.1757L65.5699 77.1756C65.5715 77.1647 65.5727 77.1537 65.5736 77.1428H69.2207V76.1428H12C9.23858 76.1428 7 73.9043 7 71.1428V9C7 6.23858 9.23858 4 12 4ZM53.9517 70.4696C53.9517 69.5173 54.7236 68.7454 55.6759 68.7454C56.6282 68.7454 57.4002 69.5173 57.4002 70.4696C57.4002 71.4219 56.6282 72.1939 55.6759 72.1939C54.7236 72.1939 53.9517 71.4219 53.9517 70.4696ZM55.6759 67.7454C54.1714 67.7454 52.9517 68.9651 52.9517 70.4696C52.9517 71.9742 54.1714 73.1939 55.6759 73.1939C57.1805 73.1939 58.4002 71.9742 58.4002 70.4696C58.4002 68.9651 57.1805 67.7454 55.6759 67.7454ZM45.9599 77.603C45.9953 77.9003 46.0335 78.2974 46.0562 78.7637C46.1069 79.8005 46.0821 81.1967 45.7705 82.6033C45.4594 84.0081 44.8542 85.459 43.7161 86.5614C43.3979 86.8696 43.0416 87.1471 42.6439 87.3873H42.6467H42.7025H42.7582H42.8137H42.8692H42.9245H42.9798H43.035H43.09H43.145H43.1998H43.2546H43.3092H43.3638H43.4182H43.4725H43.5268H43.5809H43.6349H43.6889H43.7427H43.7964H43.85H43.9035H43.9569H44.0102H44.0634H44.1165H44.1695H44.2224H44.2752H44.3279H44.3804H44.4329H44.4853H44.5375H44.5897H44.6417H44.6937H44.7455H44.7972H44.8489H44.9004H44.9518H45.0031H45.0543H45.1054H45.1564H45.2073H45.258H45.3087H45.3593H45.4097H45.4601H45.5103H45.5604H45.6105H45.6604H45.7102H45.7599H45.8095H45.859H45.9084H45.9576H46.0068H46.0558H46.1048H46.1536H46.2024H46.251H46.2995H46.3479H46.3962H46.4444H46.4924H46.5404H46.5883H46.636H46.6836H46.7312H46.7786H46.8259H46.8731H46.9202H46.9671H47.014H47.0608H47.1074H47.1539H47.2004H47.2467H47.2929H47.339H47.3849H47.4308H47.4766H47.5222H47.5677H47.6131H47.6584H47.7036H47.7487H47.7937H47.8385H47.8833H47.9279H47.9724H48.0168H48.0611H48.1053H48.1494H48.1933H48.2372H48.2809H48.3245H48.368H48.4114H48.4546H48.4978H48.5408H48.5838H48.6266H48.6693H48.7119H48.7543H48.7967H48.8389H48.881H48.923H48.9649H49.0067H49.0484H49.0899H49.1313H49.1726H49.2138H49.2549H49.2959H49.3367H49.3775H49.4181H49.4586H49.499H49.5392H49.5794H49.6194H49.6593H49.6991H49.7388H49.7784H49.8178H49.8571H49.8963H49.9354H49.9744H50.0132H50.052H50.0906H50.1291H50.1675H50.2057H50.2439H50.2819H50.3198H50.3576H50.3952H50.4328H50.4702H50.5075H50.5447H50.5818H50.6187H50.6555H50.6922H50.7288H50.7653H50.8016H50.8379H50.874H50.9099H50.9458H50.9815H51.0172H51.0527H51.088H51.1233H51.1584H51.1934H51.2283H51.2631H51.2977H51.3323H51.3666H51.4009H51.4351H51.4691H51.503H51.5368H51.5705H51.604H51.6374H51.6707H51.7039H51.7369H51.7699H51.8027H51.8354H51.8679H51.9003H51.9326H51.9648H51.9969H52.0288H52.0606H52.0923H52.1238H52.1553H52.1866H52.2178H52.2488H52.2798H52.3106H52.3412H52.3718H52.4022H52.4325H52.4627H52.4927H52.5227H52.5525H52.5821H52.6117H52.6411H52.6704H52.6996H52.7286H52.7575H52.7863H52.8149H52.8435H52.8719H52.9001H52.9283H52.9563H52.9842H53.012H53.0396H53.0671H53.0945H53.1217H53.1488H53.1758H53.2027H53.2294H53.256H53.2825H53.3088H53.335H53.3611H53.3871H53.4129H53.4386H53.4642H53.4896H53.5149H53.5401H53.5651H53.59H53.6148H53.6395H53.664H53.6884H53.7127H53.7368H53.7608H53.7846H53.8084H53.832H53.8554H53.8788H53.902H53.9251H53.948H53.9708H53.9935H54.016H54.0385H54.0607H54.0829H54.1049H54.1268H54.1485H54.1701H54.1916H54.213H54.2342H54.2553H54.2762H54.297H54.3177H54.3382H54.3587H54.3789H54.3991H54.4191H54.4389H54.4587H54.4783H54.4977H54.5171H54.5363H54.5553H54.5743H54.593H54.6117H54.6302H54.6486H54.6668H54.685H54.7029H54.7208H54.7385H54.7471H54.7472H54.7475H54.7478H54.7484H54.7491H54.75H54.751H54.7521H54.7535H54.7549H54.756H54.7566H54.7584H54.7603H54.7624H54.7647H54.7671H54.7696H54.7723H54.7735H54.7752H54.7782H54.7814H54.7847H54.7882H54.7908H54.7919H54.7957H54.7996H54.8037H54.8079H54.8124H54.8169H54.8216H54.8249H54.8265H54.8315H54.8367H54.8418H54.842H54.8474H54.8531H54.8585H54.8588H54.8647H54.8708H54.8751H54.877H54.8834H54.8899H54.8916H54.8966H54.9034H54.9079H54.9104H54.9175H54.9241H54.9248H54.9323H54.9398H54.9402H54.9476H54.9554H54.9561H54.9635H54.9716H54.9719H54.98H54.9875H54.9884H54.997H55.003H55.0058H55.0147H55.0184H55.0238H55.033H55.0336H55.0424H55.0487H55.0519H55.0616H55.0637H55.0714H55.0785H55.0813H55.0914H55.0931H55.1017H55.1077H55.1121H55.1221H55.1226H55.1333H55.1363H55.1441H55.1504H55.1551H55.1644H55.1663H55.1775H55.1782H55.189H55.1919H55.2005H55.2055H55.2122H55.2189H55.2241H55.2322H55.2361H55.2453H55.2483H55.2583H55.2606H55.2712H55.273H55.2839H55.2856H55.2964H55.2983H55.3089H55.3112H55.3212H55.3242H55.3333H55.3374H55.3453H55.3507H55.3572H55.3642H55.3689H55.3778H55.3805H55.3915H55.392H55.4033H55.4054H55.4144H55.4195H55.4254H55.4336H55.4363H55.4471H55.448H55.4577H55.4624H55.4681H55.477H55.4784H55.4886H55.4918H55.4986H55.5067H55.5085H55.5182H55.5217H55.5278H55.5369H55.5373H55.5466H55.5522H55.5558H55.5648H55.5677H55.5737H55.5824H55.5833H55.591H55.5991H55.5994H55.6077H55.6149H55.6159H55.6239H55.631H55.6318H55.6395H55.6471H55.6546H55.6618H55.6635H55.669H55.676H55.6799H55.6829H55.6896H55.6962H55.6965H55.7026H55.7089H55.7133H55.715H55.721H55.7268H55.7302H55.7325H55.7381H55.7435H55.7472H55.7487H55.7539H55.7588H55.7636H55.7644H55.7683H55.7729H55.7772H55.7815H55.7817H55.7856H55.7895H55.7933H55.7969H55.7991H55.8004H55.8038H55.807H55.81H55.8129H55.8157H55.8167H55.8183H55.8208H55.8231H55.8252H55.8273H55.8291H55.8308H55.8324H55.8338H55.8344H55.8351H55.8362H55.8372H55.838H55.8387H55.8392H55.8396H55.8398H55.8399H55.8523H55.8703H55.8885H55.9067H55.9252H55.9437H55.9625H55.9813H56.0003H56.0194H56.0387H56.0581H56.0776H56.0973H56.1171H56.1371H56.1572H56.1774H56.1978H56.2183H56.2389H56.2597H56.2806H56.3017H56.3229H56.3442H56.3657H56.3873H56.409H56.4309H56.4529H56.4751H56.4974H56.5198H56.5423H56.565H56.5879H56.6108H56.6339H56.6572H56.6805H56.704H56.7277H56.7514H56.7753H56.7994H56.8236H56.8479H56.8723H56.8969H56.9216H56.9464H56.9714H56.9965H57.0218H57.0471H57.0727H57.0983H57.1241H57.15H57.176H57.2022H57.2285H57.2549H57.2815H57.3082H57.335H57.362H57.3891H57.4163H57.4436H57.4711H57.4987H57.5265H57.5544H57.5824H57.6105H57.6388H57.6672H57.6957H57.7243H57.7531H57.782H57.8111H57.8402H57.8695H57.899H57.9285H57.9582H57.988H58.018H58.048H58.0782H58.1086H58.139H58.1696H58.2003H58.2311H58.2621H58.2932H58.3244H58.3557H58.3872H58.4188H58.4505H58.4824H58.5144H58.5465H58.5787H58.611H58.6435H58.6761H58.7088H58.7417H58.7747H58.8078H58.841H58.8743H58.9078H58.9414H58.9751H59.009H59.043H59.077H59.1113H59.1456H59.1801H59.2147H59.2494H59.2842H59.3192H59.3542H59.3895H59.4248H59.4602H59.4958H59.5315H59.5673H59.6032H59.6393H59.6755H59.7118H59.7482H59.7847H59.8214H59.8582H59.8951H59.9321H59.9692H60.0065H60.0439H60.0814H60.119H60.1568H60.1946H60.2326H60.2707H60.3089H60.3473H60.3857H60.4243H60.463H60.5018H60.5408H60.5798H60.619H60.6583H60.6977H60.7372H60.7768H60.8166H60.8565H60.8965H60.9366H60.9768H61.0171H61.0576H61.0982H61.1389H61.1797H61.2206H61.2617H61.3028H61.3441H61.3855H61.427H61.4686H61.5103H61.5522H61.5941H61.6362H61.6784H61.7207H61.7631H61.8057H61.8483H61.8911H61.934H61.9769H62.0201H62.0633H62.1066H62.15H62.1936H62.2373H62.2811H62.325H62.369H62.4131H62.4573H62.5017H62.5461H62.5907H62.6354H62.6801H62.725H62.7701H62.8152H62.8604H62.9058H62.9512H62.9968H63.0425H63.0883H63.1342H63.1802H63.2263H63.2725H63.3188H63.3653H63.4118H63.4585H63.5053H63.5522H63.5992H63.6463H63.6935H63.7408H63.7882H63.8358H63.8834H63.9311H63.979H64.027H64.075H64.1232H64.1715H64.2199H64.2684H64.317H64.3657H64.4145H64.4635H64.5125H64.5616H64.6109H64.6602H64.7097H64.7593H64.8089H64.8587H64.9086H64.9586H65.0087H65.0588H65.1091H65.1596H65.2101H65.2607H65.3114H65.3622H65.4131H65.4642H65.5153H65.5665H65.6179H65.6693H65.7208H65.7725H65.8242H65.8761H65.928H65.9801H66.0322H66.0845H66.1369H66.1893H66.2419H66.2946H66.3473H66.4002H66.4532H66.5063H66.5594H66.6127H66.6661H66.7196H66.7731H66.8268H66.8806H66.9344H66.9884H67.0425H67.0967H67.1509H67.2053H67.2598H67.3144H67.369H67.4238H67.4787H67.5336H67.5887H67.6439H67.6991H67.7545H67.8099H67.8655H67.9211H67.9769H68.0327H68.0887H68.1447H68.1816C67.7781 87.1486 67.4145 86.8731 67.0876 86.5675C65.9138 85.4702 65.256 84.0243 64.8928 82.6204C64.5292 81.2151 64.4524 79.8194 64.4645 78.7823C64.47 78.3063 64.4944 77.9023 64.5192 77.603H45.9599Z" fill="url(#paint3_linear_3059_46288)"/>
<path d="M73.1572 47.3999C73.1572 45.1908 74.9481 43.3999 77.1572 43.3999H101.381C103.59 43.3999 105.381 45.1908 105.381 47.3999V84.7995C105.381 87.0086 103.59 88.7995 101.381 88.7995H77.1572C74.9481 88.7995 73.1572 87.0086 73.1572 84.7995V47.3999Z" fill="white"/>
<path fill-rule="evenodd" clip-rule="evenodd" d="M100.719 49.9316H77.4106C76.8584 49.9316 76.4106 50.3794 76.4106 50.9316V73.3699C76.4106 73.9222 76.8584 74.3699 77.4106 74.3699H100.719C101.271 74.3699 101.719 73.9222 101.719 73.3699V50.9316C101.719 50.3794 101.271 49.9316 100.719 49.9316ZM100.719 77.1899H77.4106C76.8584 77.1899 76.4106 77.6377 76.4106 78.1899V79.9497C76.4106 80.502 76.8584 80.9497 77.4106 80.9497H100.719C101.271 80.9497 101.719 80.502 101.719 79.9497V78.1899C101.719 77.6377 101.271 77.1899 100.719 77.1899Z" fill="url(#paint4_linear_3059_46288)"/>
<path opacity="0.6" fill-rule="evenodd" clip-rule="evenodd" d="M101.681 43.3655C103.185 43.3655 104.418 44.5983 104.418 46.1023V85.424C104.418 86.9281 103.185 88.1609 101.681 88.1609H76.0845C74.5805 88.1609 73.3477 86.9281 73.3477 85.424V46.1023C73.3477 44.5983 74.5805 43.3655 76.0845 43.3655H101.681ZM105.418 46.1023C105.418 44.046 103.737 42.3655 101.681 42.3655H76.0845C74.0282 42.3655 72.3477 44.046 72.3477 46.1023V85.424C72.3477 87.4804 74.0282 89.1609 76.0845 89.1609H101.681C103.737 89.1609 105.418 87.4804 105.418 85.424V46.1023ZM88.7459 83.8979C89.2875 83.8979 89.7267 84.3371 89.7267 84.8788C89.7267 85.4205 89.2875 85.8596 88.7459 85.8596C88.2042 85.8596 87.765 85.4205 87.765 84.8788C87.765 84.3371 88.2042 83.8979 88.7459 83.8979ZM90.7267 84.8788C90.7267 83.7848 89.8398 82.8979 88.7459 82.8979C87.6519 82.8979 86.765 83.7848 86.765 84.8788C86.765 85.9728 87.6519 86.8596 88.7459 86.8596C89.8398 86.8596 90.7267 85.9728 90.7267 84.8788ZM86.1813 46.0663C86.1813 45.7717 86.42 45.533 86.7146 45.533H90.9812C91.2758 45.533 91.5146 45.7717 91.5146 46.0663C91.5146 46.3608 91.2758 46.5996 90.9812 46.5996H86.7146C86.42 46.5996 86.1813 46.3608 86.1813 46.0663Z" fill="url(#paint5_linear_3059_46288)"/>
<defs>
<linearGradient id="paint0_linear_3059_46288" x1="38.6226" y1="71.7777" x2="44.1416" y2="99.9299" gradientUnits="userSpaceOnUse">
<stop stop-color="#DD1C84"/>
<stop offset="0.5087" stop-color="#EA8855"/>
<stop offset="0.678731" stop-color="#F1A839"/>
<stop offset="0.771199" stop-color="#FF932F"/>
</linearGradient>
<linearGradient id="paint1_linear_3059_46288" x1="10.1455" y1="-9.77331" x2="47.2738" y2="104.817" gradientUnits="userSpaceOnUse">
<stop stop-color="#DD1C84"/>
<stop offset="0.5087" stop-color="#EA8855"/>
<stop offset="0.678731" stop-color="#F1A839"/>
<stop offset="0.771199" stop-color="#FF932F"/>
</linearGradient>
<linearGradient id="paint2_linear_3059_46288" x1="15.3276" y1="-0.418914" x2="42.1979" y2="92.0111" gradientUnits="userSpaceOnUse">
<stop stop-color="#DD1C84"/>
<stop offset="0.5087" stop-color="#EA8855"/>
<stop offset="0.678731" stop-color="#F1A839"/>
<stop offset="0.771199" stop-color="#FF932F"/>
</linearGradient>
<linearGradient id="paint3_linear_3059_46288" x1="6" y1="-31.3767" x2="93.7881" y2="141.335" gradientUnits="userSpaceOnUse">
<stop stop-color="#DD1C84"/>
<stop offset="0.5087" stop-color="#EA8855"/>
<stop offset="0.678731" stop-color="#F1A839"/>
<stop offset="0.771199" stop-color="#FF932F"/>
</linearGradient>
<linearGradient id="paint4_linear_3059_46288" x1="76.4106" y1="37.4439" x2="113.559" y2="90.2704" gradientUnits="userSpaceOnUse">
<stop stop-color="#DD1C84"/>
<stop offset="0.5087" stop-color="#EA8855"/>
<stop offset="0.678731" stop-color="#F1A839"/>
<stop offset="0.771199" stop-color="#FF932F"/>
</linearGradient>
<linearGradient id="paint5_linear_3059_46288" x1="72.3477" y1="23.5258" x2="130.631" y2="95.3122" gradientUnits="userSpaceOnUse">
<stop stop-color="#DD1C84"/>
<stop offset="0.5087" stop-color="#EA8855"/>
<stop offset="0.678731" stop-color="#F1A839"/>
<stop offset="0.771199" stop-color="#FF932F"/>
</linearGradient>
</defs>
</svg>
