<svg viewBox="0 0 106 94" fill="none" xmlns="http://www.w3.org/2000/svg">
<path d="M3 9.97267C3 6.65896 5.68629 3.97266 9 3.97266H96.6503C99.9641 3.97266 102.65 6.65895 102.65 9.97266V73.2188C102.65 76.5325 99.9641 79.2188 96.6503 79.2188H9C5.68629 79.2188 3 76.5326 3 73.2188V9.97267Z" fill="white"/>
<path opacity="0.1" d="M3 9.00001C3 5.6863 5.68629 3 9 3H97C100.314 3 103 5.68629 103 9V73.4273C103 76.741 100.314 79.4273 97 79.4273H9C5.68629 79.4273 3 76.741 3 73.4273V9.00001Z" fill="white"/>
<path opacity="0.1" d="M64.4912 78.6636C64.4912 78.6636 62.6478 90.5032 71.7216 90.5032C60.664 90.5032 53.5749 90.5032 53.5749 90.5032H54.7087C54.7087 90.5032 47.9043 90.5032 36.8457 90.5032C45.9185 90.5032 43.9338 78.7867 43.9338 78.7867" fill="url(#paint0_linear_3059_46005)"/>
<path opacity="0.8" fill-rule="evenodd" clip-rule="evenodd" d="M97 4H9C6.23858 4 4 6.23858 4 9.00001V73.4273C4 76.1888 6.23858 78.4273 9 78.4273H43.5861C43.6781 78.3383 43.8014 78.2874 43.9308 78.2867L64.4882 78.1635C64.6348 78.1626 64.7743 78.2261 64.87 78.3372C64.8941 78.3651 64.9148 78.3954 64.9319 78.4273H97C99.7614 78.4273 102 76.1888 102 73.4273V9C102 6.23858 99.7614 4 97 4ZM64.9078 79.4273H97C100.314 79.4273 103 76.741 103 73.4273V9C103 5.68629 100.314 3 97 3H9C5.68629 3 3 5.6863 3 9.00001V73.4273C3 76.741 5.68629 79.4273 9 79.4273H43.5135C43.5467 79.7321 43.5827 80.1471 43.6025 80.6375C43.6458 81.7112 43.6103 83.1299 43.3035 84.5385C42.9961 85.9499 42.4248 87.3134 41.4259 88.3203C40.4398 89.3142 38.9952 90.0031 36.8457 90.0031C36.5696 90.0031 36.3457 90.227 36.3457 90.5031C36.3457 90.7793 36.5696 91.0031 36.8457 91.0031H36.9104H36.9751H37.0397H37.1041H37.1685H37.2327H37.2969H37.3609H37.4249H37.4888H37.5525H37.6162H37.6798H37.7433H37.8066H37.8699H37.9331H37.9962H38.0591H38.122H38.1848H38.2475H38.31H38.3725H38.4349H38.4972H38.5593H38.6214H38.6834H38.7453H38.807H38.8687H38.9303H38.9918H39.0531H39.1144H39.1756H39.2366H39.2976H39.3584H39.4192H39.4799H39.5404H39.6009H39.6612H39.7215H39.7816H39.8417H39.9016H39.9614H40.0212H40.0808H40.1403H40.1997H40.2591H40.3183H40.3774H40.4364H40.4953H40.5541H40.6128H40.6714H40.7299H40.7883H40.8466H40.9047H40.9628H41.0208H41.0786H41.1364H41.194H41.2516H41.309H41.3663H41.4236H41.4807H41.5377H41.5946H41.6514H41.7081H41.7647H41.8212H41.8775H41.9338H41.99H42.046H42.102H42.1578H42.2136H42.2692H42.3247H42.3801H42.4354H42.4906H42.5457H42.6007H42.6555H42.7103H42.7649H42.8195H42.8739H42.9282H42.9825H43.0366H43.0906H43.1445H43.1982H43.2519H43.3055H43.3589H43.4123H43.4655H43.5186H43.5716H43.6245H43.6773H43.73H43.7826H43.835H43.8874H43.9396H43.9917H44.0437H44.0956H44.1474H44.1991H44.2507H44.3021H44.3535H44.4047H44.4558H44.5068H44.5577H44.6085H44.6592H44.7097H44.7602H44.8105H44.8607H44.9108H44.9608H45.0107H45.0605H45.1101H45.1596H45.2091H45.2584H45.3076H45.3566H45.4056H45.4545H45.5032H45.5518H45.6003H45.6487H45.697H45.7452H45.7932H45.8411H45.889H45.9367H45.9842H46.0317H46.0791H46.1263H46.1734H46.2204H46.2673H46.3141H46.3607H46.4073H46.4537H46.5H46.5462H46.5922H46.6382H46.684H46.7298H46.7754H46.8208H46.8662H46.9114H46.9566H47.0016H47.0465H47.0912H47.1359H47.1804H47.2248H47.2691H47.3133H47.3574H47.4013H47.4451H47.4888H47.5324H47.5759H47.6192H47.6625H47.7056H47.7485H47.7914H47.8341H47.8768H47.9193H47.9616H48.0039H48.046H48.0881H48.13H48.1717H48.2134H48.2549H48.2963H48.3376H48.3788H48.4198H48.4607H48.5015H48.5422H48.5828H48.6232H48.6635H48.7037H48.7438H48.7837H48.8235H48.8632H48.9028H48.9422H48.9816H49.0208H49.0598H49.0988H49.1376H49.1763H49.2149H49.2534H49.2917H49.3299H49.368H49.4059H49.4438H49.4815H49.5191H49.5565H49.5938H49.631H49.6681H49.7051H49.7419H49.7786H49.8152H49.8516H49.888H49.9242H49.9602H49.9962H50.032H50.0677H50.1032H50.1387H50.174H50.2092H50.2442H50.2791H50.3139H50.3486H50.3832H50.4176H50.4519H50.486H50.5201H50.554H50.5877H50.6214H50.6549H50.6883H50.7215H50.7547H50.7877H50.8205H50.8533H50.8859H50.9184H50.9507H50.9829H51.015H51.047H51.0788H51.1105H51.1421H51.1735H51.2048H51.236H51.267H51.298H51.3287H51.3594H51.3899H51.4203H51.4506H51.4807H51.5107H51.5405H51.5703H51.5999H51.6293H51.6587H51.6879H51.7169H51.7459H51.7747H51.8033H51.8319H51.8603H51.8885H51.9167H51.9447H51.9726H52.0003H52.0279H52.0554H52.0827H52.1099H52.1369H52.1639H52.1907H52.2173H52.2439H52.2702H52.2965H52.3226H52.3486H52.3744H52.4002H52.4257H52.4512H52.4765H52.5016H52.5267H52.5516H52.5763H52.601H52.6255H52.6498H52.674H52.6981H52.722H52.7458H52.7695H52.793H52.8164H52.8397H52.8628H52.8858H52.9086H52.9313H52.9539H52.9763H52.9986H53.0207H53.0427H53.0646H53.0863H53.1079H53.1294H53.1507H53.1719H53.1929H53.2138H53.2346H53.2552H53.2757H53.296H53.3162H53.3362H53.3562H53.3759H53.3956H53.4151H53.4344H53.4536H53.4727H53.4916H53.5104H53.5291H53.5476H53.5659H53.5749H53.575H53.5753H53.5757H53.5762H53.577H53.5778H53.5789H53.5801H53.5815H53.583H53.5842H53.5847H53.5866H53.5886H53.5908H53.5931H53.5956H53.5983H53.6011H53.6022H53.6041H53.6072H53.6105H53.6139H53.6176H53.6202H53.6213H53.6253H53.6294H53.6336H53.638H53.6426H53.6473H53.6522H53.6556H53.6572H53.6624H53.6678H53.6731H53.6733H53.679H53.6848H53.6905H53.6908H53.6969H53.7032H53.7077H53.7097H53.7163H53.7231H53.7248H53.73H53.7371H53.7418H53.7443H53.7517H53.7586H53.7593H53.767H53.7748H53.7752H53.7829H53.791H53.7917H53.7994H53.8078H53.8081H53.8165H53.8243H53.8253H53.8342H53.8404H53.8433H53.8526H53.8564H53.862H53.8715H53.8722H53.8812H53.8878H53.8911H53.9011H53.9033H53.9113H53.9187H53.9216H53.9321H53.9339H53.9428H53.949H53.9535H53.9639H53.9645H53.9756H53.9787H53.9868H53.9933H53.9982H54.0078H54.0098H54.0215H54.0222H54.0333H54.0364H54.0453H54.0505H54.0575H54.0644H54.0698H54.0781H54.0822H54.0918H54.0949H54.1053H54.1076H54.1186H54.1205H54.1318H54.1336H54.1448H54.1468H54.1577H54.1602H54.1705H54.1737H54.1831H54.1873H54.1955H54.2011H54.2079H54.2151H54.22H54.2292H54.2321H54.2435H54.2439H54.2557H54.2579H54.2672H54.2725H54.2787H54.2872H54.29H54.3011H54.302H54.3121H54.317H54.3229H54.3322H54.3336H54.3442H54.3475H54.3546H54.363H54.3648H54.3749H54.3786H54.3849H54.3943H54.3947H54.4044H54.4102H54.4139H54.4232H54.4263H54.4324H54.4415H54.4424H54.4504H54.4588H54.4592H54.4678H54.4753H54.4763H54.4846H54.4919H54.4928H54.5008H54.5087H54.5164H54.5239H54.5256H54.5314H54.5386H54.5427H54.5457H54.5527H54.5595H54.5599H54.5662H54.5727H54.5773H54.5791H54.5853H54.5914H54.5948H54.5973H54.603H54.6086H54.6125H54.6141H54.6194H54.6246H54.6296H54.6303H54.6344H54.6391H54.6436H54.648H54.6482H54.6523H54.6564H54.6603H54.6641H54.6664H54.6677H54.6712H54.6745H54.6777H54.6807H54.6836H54.6846H54.6863H54.6888H54.6912H54.6935H54.6956H54.6975H54.6993H54.7009H54.7024H54.703H54.7037H54.7049H54.7059H54.7067H54.7074H54.708H54.7084H54.7086H54.7087H54.7215H54.7402H54.759H54.778H54.7971H54.8164H54.8358H54.8554H54.8751H54.8949H54.9149H54.935H54.9553H54.9757H54.9963H55.017H55.0378H55.0588H55.08H55.1012H55.1227H55.1442H55.1659H55.1878H55.2098H55.2319H55.2542H55.2766H55.2991H55.3218H55.3447H55.3677H55.3908H55.414H55.4374H55.461H55.4847H55.5085H55.5325H55.5566H55.5808H55.6052H55.6297H55.6544H55.6792H55.7041H55.7292H55.7544H55.7798H55.8053H55.8309H55.8567H55.8826H55.9087H55.9349H55.9612H55.9877H56.0143H56.041H56.0679H56.0949H56.122H56.1493H56.1768H56.2043H56.232H56.2598H56.2878H56.3159H56.3442H56.3725H56.4011H56.4297H56.4585H56.4874H56.5165H56.5457H56.575H56.6044H56.634H56.6638H56.6936H56.7236H56.7538H56.784H56.8144H56.845H56.8756H56.9064H56.9373H56.9684H56.9996H57.0309H57.0624H57.094H57.1257H57.1576H57.1896H57.2217H57.2539H57.2863H57.3189H57.3515H57.3843H57.4172H57.4502H57.4834H57.5167H57.5501H57.5837H57.6174H57.6512H57.6852H57.7193H57.7535H57.7878H57.8223H57.8569H57.8916H57.9265H57.9615H57.9966H58.0318H58.0672H58.1027H58.1383H58.1741H58.21H58.246H58.2821H58.3184H58.3548H58.3913H58.428H58.4647H58.5016H58.5387H58.5758H58.6131H58.6505H58.6881H58.7257H58.7635H58.8014H58.8395H58.8776H58.9159H58.9543H58.9929H59.0315H59.0703H59.1092H59.1482H59.1874H59.2267H59.2661H59.3056H59.3453H59.3851H59.425H59.465H59.5051H59.5454H59.5858H59.6263H59.667H59.7077H59.7486H59.7896H59.8307H59.872H59.9134H59.9548H59.9965H60.0382H60.0801H60.122H60.1641H60.2063H60.2487H60.2911H60.3337H60.3764H60.4192H60.4622H60.5052H60.5484H60.5917H60.6351H60.6787H60.7223H60.7661H60.81H60.854H60.8981H60.9424H60.9868H61.0312H61.0758H61.1206H61.1654H61.2104H61.2554H61.3006H61.3459H61.3914H61.4369H61.4826H61.5283H61.5742H61.6202H61.6663H61.7126H61.7589H61.8054H61.852H61.8987H61.9455H61.9924H62.0395H62.0867H62.1339H62.1813H62.2288H62.2764H62.3242H62.372H62.42H62.4681H62.5163H62.5646H62.613H62.6615H62.7101H62.7589H62.8078H62.8567H62.9058H62.955H63.0043H63.0538H63.1033H63.153H63.2027H63.2526H63.3026H63.3527H63.4029H63.4532H63.5037H63.5542H63.6048H63.6556H63.7065H63.7575H63.8086H63.8598H63.9111H63.9625H64.014H64.0657H64.1174H64.1693H64.2212H64.2733H64.3255H64.3778H64.4302H64.4827H64.5353H64.588H64.6409H64.6938H64.7469H64.8H64.8533H64.9066H64.9601H65.0137H65.0674H65.1212H65.1751H65.2291H65.2832H65.3374H65.3918H65.4462H65.5007H65.5554H65.6101H65.665H65.7199H65.775H65.8302H65.8854H65.9408H65.9963H66.0519H66.1076H66.1633H66.2192H66.2752H66.3313H66.3876H66.4439H66.5003H66.5568H66.6134H66.6701H66.7269H66.7839H66.8409H66.898H66.9553H67.0126H67.07H67.1276H67.1852H67.2429H67.3008H67.3587H67.4167H67.4749H67.5331H67.5915H67.6499H67.7085H67.7671H67.8258H67.8847H67.9436H68.0027H68.0618H68.121H68.1804H68.2398H68.2993H68.359H68.4187H68.4785H68.5385H68.5985H68.6586H68.7188H68.7792H68.8396H68.9001H68.9607H69.0214H69.0822H69.1431H69.2041H69.2652H69.3264H69.3877H69.4491H69.5105H69.5721H69.6338H69.6955H69.7574H69.8194H69.8814H69.9436H70.0058H70.0681H70.1306H70.1931H70.2557H70.3184H70.3812H70.4441H70.5071H70.5702H70.6334H70.6967H70.76H70.8235H70.887H70.9507H71.0144H71.0782H71.1422H71.2062H71.2703H71.3345H71.3988H71.4632H71.5276H71.5922H71.6568H71.7216C71.9977 91.0031 72.2216 90.7793 72.2216 90.5031C72.2216 90.227 71.9977 90.0031 71.7216 90.0031C69.5735 90.0031 68.1191 89.3075 67.1185 88.3007C66.1049 87.2809 65.5161 85.9002 65.1912 84.4724C64.8671 83.0475 64.8144 81.6129 64.8447 80.5274C64.8568 80.0949 64.882 79.7204 64.9078 79.4273ZM44.5191 79.4273H63.9042C63.8796 79.7232 63.8567 80.0865 63.8451 80.4995C63.8134 81.6339 63.867 83.1592 64.2162 84.6942C64.5647 86.2263 65.2164 87.8055 66.4092 89.0056C66.7845 89.3832 67.2094 89.7193 67.6888 90.0031H67.6499H67.5915H67.5331H67.4749H67.4167H67.3587H67.3008H67.2429H67.1852H67.1276H67.07H67.0126H66.9553H66.898H66.8409H66.7839H66.7269H66.6701H66.6134H66.5568H66.5003H66.4439H66.3876H66.3313H66.2752H66.2192H66.1633H66.1076H66.0519H65.9963H65.9408H65.8854H65.8302H65.775H65.7199H65.665H65.6101H65.5554H65.5007H65.4462H65.3918H65.3374H65.2832H65.2291H65.1751H65.1212H65.0674H65.0137H64.9601H64.9066H64.8533H64.8H64.7469H64.6938H64.6409H64.588H64.5353H64.4827H64.4302H64.3778H64.3255H64.2733H64.2212H64.1693H64.1174H64.0657H64.014H63.9625H63.9111H63.8598H63.8086H63.7575H63.7065H63.6556H63.6048H63.5542H63.5037H63.4532H63.4029H63.3527H63.3026H63.2526H63.2027H63.153H63.1033H63.0538H63.0043H62.955H62.9058H62.8567H62.8078H62.7589H62.7101H62.6615H62.613H62.5646H62.5163H62.4681H62.42H62.372H62.3242H62.2764H62.2288H62.1813H62.1339H62.0867H62.0395H61.9924H61.9455H61.8987H61.852H61.8054H61.7589H61.7126H61.6663H61.6202H61.5742H61.5283H61.4826H61.4369H61.3914H61.3459H61.3006H61.2554H61.2104H61.1654H61.1206H61.0758H61.0312H60.9868H60.9424H60.8981H60.854H60.81H60.7661H60.7223H60.6787H60.6351H60.5917H60.5484H60.5052H60.4622H60.4192H60.3764H60.3337H60.2911H60.2487H60.2063H60.1641H60.122H60.0801H60.0382H59.9965H59.9548H59.9134H59.872H59.8307H59.7896H59.7486H59.7077H59.667H59.6263H59.5858H59.5454H59.5051H59.465H59.425H59.3851H59.3453H59.3056H59.2661H59.2267H59.1874H59.1482H59.1092H59.0703H59.0315H58.9929H58.9543H58.9159H58.8776H58.8395H58.8014H58.7635H58.7257H58.6881H58.6505H58.6131H58.5758H58.5387H58.5016H58.4647H58.428H58.3913H58.3548H58.3184H58.2821H58.246H58.21H58.1741H58.1383H58.1027H58.0672H58.0318H57.9966H57.9615H57.9265H57.8916H57.8569H57.8223H57.7878H57.7535H57.7193H57.6852H57.6512H57.6174H57.5837H57.5501H57.5167H57.4834H57.4502H57.4172H57.3843H57.3515H57.3189H57.2863H57.2539H57.2217H57.1896H57.1576H57.1257H57.094H57.0624H57.0309H56.9996H56.9684H56.9373H56.9064H56.8756H56.845H56.8144H56.784H56.7538H56.7236H56.6936H56.6638H56.634H56.6044H56.575H56.5457H56.5165H56.4874H56.4585H56.4297H56.4011H56.3725H56.3442H56.3159H56.2878H56.2598H56.232H56.2043H56.1768H56.1493H56.122H56.0949H56.0679H56.041H56.0143H55.9877H55.9612H55.9349H55.9087H55.8826H55.8567H55.8309H55.8053H55.7798H55.7544H55.7292H55.7041H55.6792H55.6544H55.6297H55.6052H55.5808H55.5566H55.5325H55.5085H55.4847H55.461H55.4374H55.414H55.3908H55.3677H55.3447H55.3218H55.2991H55.2766H55.2542H55.2319H55.2098H55.1878H55.1659H55.1442H55.1227H55.1012H55.08H55.0588H55.0378H55.017H54.9963H54.9757H54.9553H54.935H54.9149H54.8949H54.8751H54.8554H54.8358H54.8164H54.7971H54.778H54.759H54.7402H54.7215H54.7087H54.7086H54.7084H54.708H54.7074H54.7067H54.7059H54.7049H54.7037H54.703H54.7024H54.7009H54.6993H54.6975H54.6956H54.6935H54.6912H54.6888H54.6863H54.6846H54.6836H54.6807H54.6777H54.6745H54.6712H54.6677H54.6664H54.6641H54.6603H54.6564H54.6523H54.6482H54.648H54.6436H54.6391H54.6344H54.6303H54.6296H54.6246H54.6194H54.6141H54.6125H54.6086H54.603H54.5973H54.5948H54.5914H54.5853H54.5791H54.5773H54.5727H54.5662H54.5599H54.5595H54.5527H54.5457H54.5427H54.5386H54.5314H54.5256H54.5239H54.5164H54.5087H54.5008H54.4928H54.4919H54.4846H54.4763H54.4753H54.4678H54.4592H54.4588H54.4504H54.4424H54.4415H54.4324H54.4263H54.4232H54.4139H54.4102H54.4044H54.3947H54.3943H54.3849H54.3786H54.3749H54.3648H54.363H54.3546H54.3475H54.3442H54.3336H54.3322H54.3229H54.317H54.3121H54.302H54.3011H54.29H54.2872H54.2787H54.2725H54.2672H54.2579H54.2557H54.2439H54.2435H54.2321H54.2292H54.22H54.2151H54.2079H54.2011H54.1955H54.1873H54.1831H54.1737H54.1705H54.1602H54.1577H54.1468H54.1448H54.1336H54.1318H54.1205H54.1186H54.1076H54.1053H54.0949H54.0918H54.0822H54.0781H54.0698H54.0644H54.0575H54.0505H54.0453H54.0364H54.0333H54.0222H54.0215H54.0098H54.0078H53.9982H53.9933H53.9868H53.9787H53.9756H53.9645H53.9639H53.9535H53.949H53.9428H53.9339H53.9321H53.9216H53.9187H53.9113H53.9033H53.9011H53.8911H53.8878H53.8812H53.8722H53.8715H53.862H53.8564H53.8526H53.8433H53.8404H53.8342H53.8253H53.8243H53.8165H53.8081H53.8078H53.7994H53.7917H53.791H53.7829H53.7752H53.7748H53.767H53.7593H53.7586H53.7517H53.7443H53.7418H53.7371H53.73H53.7248H53.7231H53.7163H53.7097H53.7077H53.7032H53.6969H53.6908H53.6905H53.6848H53.679H53.6733H53.6731H53.6678H53.6624H53.6572H53.6556H53.6522H53.6473H53.6426H53.638H53.6336H53.6294H53.6253H53.6213H53.6202H53.6176H53.6139H53.6105H53.6072H53.6041H53.6022H53.6011H53.5983H53.5956H53.5931H53.5908H53.5886H53.5866H53.5847H53.5842H53.583H53.5815H53.5801H53.5789H53.5778H53.577H53.5762H53.5757H53.5753H53.575H53.5749H53.5659H53.5476H53.5291H53.5104H53.4916H53.4727H53.4536H53.4344H53.4151H53.3956H53.3759H53.3562H53.3362H53.3162H53.296H53.2757H53.2552H53.2346H53.2138H53.1929H53.1719H53.1507H53.1294H53.1079H53.0863H53.0646H53.0427H53.0207H52.9986H52.9763H52.9539H52.9313H52.9086H52.8858H52.8628H52.8397H52.8164H52.793H52.7695H52.7458H52.722H52.6981H52.674H52.6498H52.6255H52.601H52.5763H52.5516H52.5267H52.5016H52.4765H52.4512H52.4257H52.4002H52.3744H52.3486H52.3226H52.2965H52.2702H52.2439H52.2173H52.1907H52.1639H52.1369H52.1099H52.0827H52.0554H52.0279H52.0003H51.9726H51.9447H51.9167H51.8885H51.8603H51.8319H51.8033H51.7747H51.7459H51.7169H51.6879H51.6587H51.6293H51.5999H51.5703H51.5405H51.5107H51.4807H51.4506H51.4203H51.3899H51.3594H51.3287H51.298H51.267H51.236H51.2048H51.1735H51.1421H51.1105H51.0788H51.047H51.015H50.9829H50.9507H50.9184H50.8859H50.8533H50.8205H50.7877H50.7547H50.7215H50.6883H50.6549H50.6214H50.5877H50.554H50.5201H50.486H50.4519H50.4176H50.3832H50.3486H50.3139H50.2791H50.2442H50.2092H50.174H50.1387H50.1032H50.0677H50.032H49.9962H49.9602H49.9242H49.888H49.8516H49.8152H49.7786H49.7419H49.7051H49.6681H49.631H49.5938H49.5565H49.5191H49.4815H49.4438H49.4059H49.368H49.3299H49.2917H49.2534H49.2149H49.1763H49.1376H49.0988H49.0598H49.0208H48.9816H48.9422H48.9028H48.8632H48.8235H48.7837H48.7438H48.7037H48.6635H48.6232H48.5828H48.5422H48.5015H48.4607H48.4198H48.3788H48.3376H48.2963H48.2549H48.2134H48.1717H48.13H48.0881H48.046H48.0039H47.9616H47.9193H47.8768H47.8341H47.7914H47.7485H47.7056H47.6625H47.6192H47.5759H47.5324H47.4888H47.4451H47.4013H47.3574H47.3133H47.2691H47.2248H47.1804H47.1359H47.0912H47.0465H47.0016H46.9566H46.9114H46.8662H46.8208H46.7754H46.7298H46.684H46.6382H46.5922H46.5462H46.5H46.4537H46.4073H46.3607H46.3141H46.2673H46.2204H46.1734H46.1263H46.0791H46.0317H45.9842H45.9367H45.889H45.8411H45.7932H45.7452H45.697H45.6487H45.6003H45.5518H45.5032H45.4545H45.4056H45.3566H45.3076H45.2584H45.2091H45.1596H45.1101H45.0605H45.0107H44.9608H44.9108H44.8607H44.8105H44.7602H44.7097H44.6592H44.6085H44.5577H44.5068H44.4558H44.4047H44.3535H44.3021H44.2507H44.1991H44.1474H44.0956H44.0437H43.9917H43.9396H43.8874H43.835H43.7826H43.73H43.6773H43.6245H43.5716H43.5186H43.4655H43.4123H43.3589H43.3055H43.2519H43.1982H43.1445H43.0906H43.0366H42.9825H42.9282H42.8739H42.8195H42.7649H42.7103H42.6555H42.6007H42.5457H42.4906H42.4354H42.3801H42.3247H42.2692H42.2136H42.1578H42.102H42.046H41.99H41.9338H41.8775H41.8212H41.7647H41.7081H41.6514H41.5946H41.5377H41.4807H41.4236H41.3663H41.309H41.2516H41.194H41.1364H41.0786H41.0208H40.9628H40.9047H40.8834C41.3528 89.7241 41.7687 89.3945 42.1358 89.0246C43.3164 87.8346 43.9501 86.269 44.2806 84.7513C44.6117 83.2308 44.647 81.7203 44.6017 80.5972C44.5831 80.1364 44.5508 79.738 44.5191 79.4273ZM54.5387 70.7559C53.5372 70.7559 52.731 71.5616 52.731 72.5487C52.731 73.5358 53.5372 74.3415 54.5387 74.3415C55.5401 74.3415 56.3463 73.5358 56.3463 72.5487C56.3463 71.5616 55.5401 70.7559 54.5387 70.7559ZM51.731 72.5487C51.731 71.0032 52.9911 69.7559 54.5387 69.7559C56.0862 69.7559 57.3463 71.0032 57.3463 72.5487C57.3463 74.0942 56.0862 75.3415 54.5387 75.3415C52.9911 75.3415 51.731 74.0942 51.731 72.5487Z" fill="url(#paint1_linear_3059_46005)"/>
<path opacity="0.2" fill-rule="evenodd" clip-rule="evenodd" d="M12.6929 10.6423C11.5883 10.6423 10.6929 11.5378 10.6929 12.6423V65.1986C10.6929 66.3031 11.5883 67.1986 12.6929 67.1986H93.3082C94.4128 67.1986 95.3082 66.3031 95.3082 65.1986V12.6423C95.3082 11.5378 94.4128 10.6423 93.3082 10.6423H12.6929ZM44.3385 19.9357C44.5639 19.0987 44.0605 18.2328 43.2191 18.0088L43.2191 18.0098C42.3815 17.7869 41.5051 18.2897 41.2807 19.122L36.3806 37.2917C36.1552 38.1275 36.6575 38.9935 37.4989 39.2175C38.3375 39.4405 39.2139 38.9387 39.4383 38.1054L44.3385 19.9357ZM33.3747 21.4589C33.9916 20.847 33.9916 19.8466 33.3747 19.2347C32.7588 18.6228 31.753 18.6228 31.136 19.2347L22.8483 27.4702C22.1899 28.1227 22.1899 29.0988 22.8483 29.7513L31.136 37.9868C31.753 38.5987 32.7588 38.5987 33.3747 37.9868C34.0951 37.1993 33.998 36.3803 33.3747 35.7626L26.1764 28.6107L33.3747 21.4589ZM47.3483 19.2347C46.7313 19.8466 46.7313 20.847 47.3483 21.4589L54.5465 28.6107L47.3483 35.7626C46.725 36.3803 46.6279 37.1993 47.3483 37.9868C47.9642 38.5987 48.97 38.5987 49.5869 37.9868L57.8747 29.7513C58.5331 29.0988 58.5331 28.1227 57.8747 27.4702L49.5869 19.2347C48.97 18.6228 47.9642 18.6228 47.3483 19.2347Z" fill="url(#paint2_linear_3059_46005)"/>
<path d="M98.2747 56.4804C98.509 56.4804 98.699 56.2904 98.699 56.0561V46.941C98.699 46.7067 98.509 46.5167 98.2747 46.5167H94.311C94.1201 46.5167 93.9531 46.3889 93.8992 46.2057C93.5106 44.8847 92.9778 43.6237 92.3186 42.4405C92.2245 42.2717 92.2522 42.0604 92.3896 41.9245L95.1833 39.1604C95.3512 38.9943 95.3511 38.7232 95.1832 38.5571L88.6615 32.107C88.4962 31.9435 88.23 31.9436 88.0647 32.1071L85.2593 34.8828C85.1243 35.0163 84.9173 35.0435 84.7506 34.9528C83.5492 34.2994 82.2721 33.772 80.9312 33.3855C80.7469 33.3324 80.6182 33.1649 80.6182 32.9732V29.0647C80.6182 28.8303 80.4282 28.6404 80.1939 28.6404H70.9675C70.7332 28.6404 70.5432 28.8303 70.5432 29.0647V32.9732C70.5432 33.1649 70.4145 33.3324 70.2302 33.3855C68.8893 33.772 67.6121 34.2994 66.4108 34.9528C66.244 35.0435 66.037 35.0163 65.9021 34.8828L63.0967 32.1071C62.9314 31.9436 62.6652 31.9435 62.4999 32.107L55.9781 38.5571C55.8102 38.7232 55.8102 38.9943 55.9781 39.1604L58.7724 41.9251C58.9095 42.0607 58.9374 42.2715 58.8439 42.4402C58.1879 43.6238 57.6548 44.8853 57.2627 46.2068C57.2085 46.3895 57.0418 46.5167 56.8513 46.5167H52.8867C52.6524 46.5167 52.4624 46.7067 52.4624 46.941L52.4624 56.0561C52.4624 56.2904 52.6524 56.4804 52.8867 56.4804H56.8503C57.0413 56.4804 57.2083 56.6082 57.2622 56.7914C57.6508 58.1124 58.1836 59.3734 58.8428 60.5566C58.9369 60.7254 58.9092 60.9367 58.7718 61.0726L55.9781 63.8367C55.8102 64.0028 55.8102 64.2739 55.9781 64.44L62.4999 70.89C62.6652 71.0536 62.9314 71.0535 63.0967 70.89L65.9021 68.1143C66.037 67.9808 66.244 67.9536 66.4108 68.0443C67.6121 68.6977 68.8893 69.2251 70.2302 69.6116C70.4145 69.6647 70.5432 69.8322 70.5432 70.0239V73.9324C70.5432 74.1668 70.7332 74.3567 70.9675 74.3567H80.1939C80.4282 74.3567 80.6182 74.1668 80.6182 73.9324V70.0239C80.6182 69.8322 80.7469 69.6647 80.9312 69.6116C82.2721 69.2251 83.5492 68.6977 84.7506 68.0443C84.9173 67.9536 85.1243 67.9808 85.2593 68.1143L88.0647 70.89C88.23 71.0535 88.4962 71.0536 88.6615 70.89L95.1832 64.44C95.3511 64.2739 95.3512 64.0028 95.1833 63.8367L92.389 61.072C92.2519 60.9364 92.224 60.7256 92.3175 60.5569C92.9735 59.3733 93.5065 58.1118 93.8987 56.7903C93.9529 56.6076 94.1196 56.4804 94.3101 56.4804H98.2747ZM75.5807 62.0549C69.6811 62.0549 64.8999 57.3277 64.8999 51.4985C64.8999 45.6694 69.6811 40.9422 75.5807 40.9422C81.4803 40.9422 86.2614 45.6694 86.2614 51.4985C86.2567 57.3277 81.4756 62.0549 75.5807 62.0549Z" fill="url(#paint3_linear_3059_46005)"/>
<path fill-rule="evenodd" clip-rule="evenodd" d="M75.4695 37.2131C67.5283 37.2131 61.0907 43.6092 61.0907 51.4992C61.0907 59.3892 67.5283 65.7853 75.4695 65.7853C83.4107 65.7853 89.8483 59.3892 89.8483 51.4992C89.8483 43.6092 83.4107 37.2131 75.4695 37.2131ZM60.4517 51.4992C60.4517 43.2585 67.1754 36.5781 75.4695 36.5781C83.7636 36.5781 90.4874 43.2585 90.4874 51.4992C90.4874 59.7399 83.7636 66.4202 75.4695 66.4202C67.1754 66.4202 60.4517 59.7399 60.4517 51.4992Z" fill="white"/>
<path fill-rule="evenodd" clip-rule="evenodd" d="M62.9209 51.4993C62.9209 44.6134 68.5393 39.0312 75.4699 39.0312C82.4005 39.0312 88.0188 44.6134 88.0188 51.4993C88.0188 58.3853 82.4005 63.9674 75.4699 63.9674C68.5393 63.9674 62.9209 58.3853 62.9209 51.4993Z" fill="white"/>
<defs>
<linearGradient id="paint0_linear_3059_46005" x1="36.8457" y1="73.897" x2="42.5008" y2="102.93" gradientUnits="userSpaceOnUse">
<stop stop-color="#DD1C84"/>
<stop offset="0.5087" stop-color="#EA8855"/>
<stop offset="0.678731" stop-color="#F1A839"/>
<stop offset="0.771199" stop-color="#FF932F"/>
</linearGradient>
<linearGradient id="paint1_linear_3059_46005" x1="3" y1="-32.4298" x2="93.1228" y2="146.056" gradientUnits="userSpaceOnUse">
<stop stop-color="#DD1C84"/>
<stop offset="0.5087" stop-color="#EA8855"/>
<stop offset="0.678731" stop-color="#F1A839"/>
<stop offset="0.771199" stop-color="#FF932F"/>
</linearGradient>
<linearGradient id="paint2_linear_3059_46005" x1="10.6929" y1="-12.1271" x2="58.8198" y2="113.367" gradientUnits="userSpaceOnUse">
<stop stop-color="#DD1C84"/>
<stop offset="0.5087" stop-color="#EA8855"/>
<stop offset="0.678731" stop-color="#F1A839"/>
<stop offset="0.771199" stop-color="#FF932F"/>
</linearGradient>
<linearGradient id="paint3_linear_3059_46005" x1="52.4624" y1="10.2351" x2="102.402" y2="98.2642" gradientUnits="userSpaceOnUse">
<stop stop-color="#DD1C84"/>
<stop offset="0.5087" stop-color="#EA8855"/>
<stop offset="0.678731" stop-color="#F1A839"/>
<stop offset="0.771199" stop-color="#FF932F"/>
</linearGradient>
</defs>
</svg>
