<svg width="346" height="300" viewBox="0 0 346 300" fill="none" xmlns="http://www.w3.org/2000/svg">
<mask id="mask0" mask-type="alpha" maskUnits="userSpaceOnUse" x="0" y="0" width="500" height="300">
<rect width="500" height="300" rx="24" fill="white"/>
</mask>
<g mask="url(#mask0)">
<g opacity="0.1">
<ellipse opacity="0.2" cx="349.809" cy="141.883" rx="39.2897" ry="14.8048" fill="url(#paint0_linear)"/>
<ellipse opacity="0.4" cx="349.809" cy="132.772" rx="39.2897" ry="14.8048" fill="url(#paint1_linear)"/>
<ellipse opacity="0.8" cx="349.809" cy="124.801" rx="39.2897" ry="14.8048" fill="url(#paint2_linear)"/>
<ellipse opacity="0.2" cx="239.342" cy="166.937" rx="105.342" ry="39.8591" fill="url(#paint3_linear)"/>
<ellipse opacity="0.4" cx="239.342" cy="144.16" rx="105.342" ry="39.8591" fill="url(#paint4_linear)"/>
<ellipse opacity="0.8" cx="239.342" cy="121.384" rx="105.342" ry="39.8591" fill="url(#paint5_linear)"/>
<ellipse opacity="0.8" cx="239.342" cy="67.8591" rx="105.342" ry="39.8591" fill="url(#paint6_linear)"/>
<ellipse opacity="0.2" cx="326.458" cy="209.074" rx="51.2474" ry="19.3601" fill="url(#paint7_linear)"/>
<ellipse opacity="0.4" cx="326.458" cy="197.686" rx="51.2474" ry="19.3601" fill="url(#paint8_linear)"/>
<ellipse opacity="0.8" cx="326.458" cy="186.867" rx="51.2474" ry="19.9296" fill="url(#paint9_linear)"/>
</g>
</g>
<ellipse opacity="0.2" cx="236.386" cy="215.337" rx="25.9871" ry="9.75" fill="url(#paint10_linear)"/>
<ellipse opacity="0.4" cx="236.386" cy="209.337" rx="25.9871" ry="9.75" fill="url(#paint11_linear)"/>
<ellipse opacity="0.8" cx="236.386" cy="204.087" rx="25.9871" ry="9.75" fill="url(#paint12_linear)"/>
<ellipse opacity="0.2" cx="163.32" cy="231.837" rx="69.6755" ry="26.25" fill="url(#paint13_linear)"/>
<ellipse opacity="0.4" cx="163.32" cy="216.837" rx="69.6755" ry="26.25" fill="url(#paint14_linear)"/>
<ellipse opacity="0.8" cx="163.32" cy="201.837" rx="69.6755" ry="26.25" fill="url(#paint15_linear)" fill-opacity="0.8"/>
<ellipse opacity="0.8" cx="163.32" cy="166.587" rx="69.6755" ry="26.25" fill="url(#paint16_linear)"/>
<ellipse opacity="0.2" cx="220.943" cy="259.587" rx="33.8962" ry="12.75" fill="url(#paint17_linear)"/>
<ellipse opacity="0.4" cx="220.943" cy="252.087" rx="33.8962" ry="12.75" fill="url(#paint18_linear)"/>
<ellipse opacity="0.8" cx="220.943" cy="244.962" rx="33.8962" ry="13.125" fill="url(#paint19_linear)"/>
<path opacity="0.5" d="M77.7815 159.146H77.6266H77.5497H77.4727H77.3728L77.2729 159.14L77.1729 159.133L77.073 159.125L60.7243 157.655L60.5374 157.634L60.3556 157.609L60.1787 157.579L60.0088 157.545L59.8439 157.507L59.683 157.465L59.5271 157.419L59.3762 157.368C59.3276 157.351 59.2796 157.333 59.2323 157.314C59.185 157.295 59.1394 157.276 59.0954 157.256C59.0508 157.236 59.0075 157.215 58.9655 157.194C58.9235 157.173 58.8826 157.151 58.8426 157.129C58.8026 157.106 58.7637 157.083 58.7257 157.06C58.6877 157.037 58.6514 157.013 58.6168 156.988C58.5821 156.963 58.5488 156.938 58.5168 156.913C58.4848 156.888 58.4542 156.862 58.4249 156.835C58.3956 156.809 58.3679 156.782 58.3419 156.755C58.316 156.728 58.291 156.7 58.267 156.672C58.2437 156.644 58.2217 156.616 58.201 156.587C58.1804 156.558 58.1614 156.529 58.1441 156.5C58.1268 156.471 58.1111 156.442 58.0971 156.412C58.0831 156.382 58.0705 156.352 58.0591 156.322C58.0478 156.292 58.0382 156.262 58.0302 156.231C58.0222 156.2 58.0158 156.17 58.0112 156.139C58.0063 156.108 58.0029 156.077 58.0012 156.046C57.9996 156.015 57.9996 155.983 58.0012 155.952C58.0012 155.921 58.0042 155.889 58.0102 155.858C58.0162 155.827 58.0222 155.795 58.0282 155.763C58.0362 155.731 58.0458 155.698 58.0571 155.663C58.0685 155.628 58.0811 155.595 58.0951 155.563C58.1091 155.531 58.1248 155.499 58.1421 155.468C58.1594 155.437 58.1781 155.405 58.198 155.374C58.218 155.343 58.2397 155.312 58.263 155.281C58.2863 155.25 58.311 155.22 58.337 155.189C58.3629 155.158 58.3906 155.128 58.4199 155.098C58.4492 155.068 58.4795 155.038 58.5108 155.008C58.5421 154.979 58.5755 154.95 58.6108 154.921C58.6461 154.892 58.6817 154.864 58.7177 154.836C58.7543 154.808 58.7923 154.78 58.8316 154.753C58.8709 154.726 58.9112 154.699 58.9525 154.672C58.9945 154.645 59.0378 154.619 59.0824 154.593C59.1271 154.567 59.1724 154.542 59.2183 154.517C59.265 154.492 59.3123 154.468 59.3602 154.444L59.5071 154.375L59.662 154.308L59.8229 154.244L59.9888 154.183L60.1597 154.126L60.3246 154.082L60.5035 154.033L60.6863 153.988L60.8732 153.947L61.0611 153.91L61.2509 153.878L61.4418 153.85L61.6327 153.827L61.8245 153.808L62.0234 153.794L62.2173 153.784L62.4111 153.778H62.558H62.7149H62.8708L63.0247 153.785L63.1756 153.795L70.1978 154.416C69.9313 154.168 69.6771 153.917 69.4353 153.663C69.1935 153.409 68.9603 153.153 68.7358 152.895C68.5146 152.637 68.3044 152.377 68.1052 152.114C67.906 151.851 67.7188 151.588 67.5436 151.323C67.369 151.056 67.2052 150.79 67.0519 150.523C66.8987 150.256 66.7571 149.986 66.6272 149.713C66.494 149.442 66.3751 149.169 66.2705 148.896C66.1659 148.623 66.0699 148.349 65.9827 148.074C65.8981 147.799 65.8248 147.523 65.7628 147.246C65.7009 146.969 65.6499 146.69 65.6099 146.411C65.5706 146.132 65.5423 145.853 65.525 145.573C65.5077 145.293 65.502 145.014 65.508 144.735C65.5133 144.455 65.5303 144.174 65.559 143.892C65.5876 143.61 65.6273 143.328 65.6779 143.047C65.7285 142.766 65.7901 142.485 65.8628 142.204C65.9354 141.923 66.019 141.644 66.1136 141.365C66.2082 141.087 66.3138 140.809 66.4304 140.531C66.5469 140.253 66.6745 139.976 66.8131 139.7C66.951 139.424 67.0996 139.149 67.2588 138.876C67.418 138.603 67.5872 138.331 67.7664 138.061C67.9443 137.794 68.1332 137.528 68.333 137.261C68.5329 136.994 68.7421 136.73 68.9606 136.468C69.1798 136.205 69.4083 135.944 69.6461 135.685C69.884 135.426 70.1315 135.169 70.3886 134.916C70.6445 134.663 70.9109 134.411 71.1881 134.16C71.4652 133.909 71.75 133.661 72.0425 133.416C72.3363 133.17 72.6391 132.927 72.9509 132.686C73.2626 132.445 73.5824 132.207 73.9102 131.972C74.2386 131.737 74.5764 131.503 74.9235 131.272C75.2706 131.041 75.626 130.815 75.9898 130.594C76.3528 130.369 76.7239 130.147 77.103 129.928C77.4821 129.709 77.8678 129.494 78.2602 129.282C78.6533 129.07 79.053 128.861 79.4594 128.655C79.8657 128.449 80.2828 128.245 80.7105 128.043C81.1329 127.843 81.5616 127.648 81.9966 127.458C82.4316 127.268 82.871 127.08 83.3147 126.894C83.7584 126.712 84.2088 126.533 84.6658 126.357C85.1228 126.181 85.5858 126.009 86.0548 125.842C86.5212 125.674 86.9952 125.51 87.4768 125.35C87.9585 125.19 88.4418 125.034 88.9268 124.883C89.4138 124.732 89.9068 124.584 90.4058 124.441C90.9048 124.298 91.4078 124.158 91.9148 124.023C92.4217 123.89 92.9327 123.759 93.4477 123.63C93.9627 123.501 94.4803 123.38 95.0006 123.267C95.5243 123.149 96.0522 123.035 96.5845 122.925C97.1168 122.815 97.6521 122.71 98.1904 122.61C98.7287 122.509 99.2697 122.413 99.8133 122.322C100.357 122.231 100.902 122.144 101.447 122.062C101.993 121.981 102.542 121.904 103.095 121.831C103.648 121.758 104.202 121.692 104.757 121.631C105.313 121.564 105.869 121.506 106.428 121.455C106.986 121.404 107.544 121.353 108.102 121.302C108.656 121.258 109.212 121.219 109.77 121.184C110.329 121.149 110.887 121.119 111.444 121.094C112.003 121.069 112.562 121.048 113.12 121.032C113.678 121.016 114.234 121.005 114.787 121H115.058H115.33H115.872C116.339 121 116.803 121.003 117.265 121.01C117.728 121.017 118.192 121.027 118.657 121.04C119.124 121.053 119.586 121.07 120.044 121.09C120.503 121.11 120.962 121.133 121.421 121.16C121.97 121.192 122.517 121.229 123.063 121.271C123.61 121.313 124.153 121.36 124.695 121.411C125.237 121.462 125.775 121.518 126.31 121.579C126.845 121.64 127.376 121.706 127.904 121.779L128.078 121.794L128.244 121.823L128.407 121.855L128.564 121.894L128.717 121.933L128.865 121.976L129.007 122.022L129.143 122.071L129.273 122.123L129.397 122.178C129.438 122.197 129.477 122.216 129.516 122.237C129.554 122.258 129.592 122.278 129.629 122.299C129.665 122.32 129.701 122.342 129.735 122.364C129.769 122.386 129.802 122.408 129.835 122.431C129.866 122.454 129.896 122.477 129.925 122.5C129.953 122.523 129.98 122.547 130.006 122.571C130.032 122.595 130.057 122.619 130.08 122.644C130.104 122.669 130.126 122.694 130.146 122.719C130.167 122.744 130.186 122.77 130.204 122.796C130.222 122.822 130.239 122.848 130.254 122.875C130.269 122.901 130.282 122.927 130.294 122.954C130.306 122.981 130.317 123.007 130.325 123.034C130.334 123.061 130.342 123.088 130.348 123.115C130.354 123.142 130.359 123.169 130.362 123.196C130.365 123.223 130.367 123.251 130.367 123.278C130.369 123.305 130.369 123.333 130.367 123.36C130.365 123.388 130.361 123.416 130.355 123.443C130.35 123.471 130.343 123.499 130.334 123.526C130.326 123.553 130.316 123.581 130.304 123.608C130.293 123.635 130.28 123.663 130.265 123.69C130.251 123.717 130.235 123.745 130.217 123.772C130.2 123.799 130.181 123.826 130.16 123.853L130.129 123.893L130.095 123.933L130.059 123.972L130.021 124.011L129.981 124.05L129.94 124.088L129.896 124.126L129.851 124.163L129.802 124.201L129.752 124.238L129.701 124.273L129.65 124.307L129.596 124.341L129.54 124.375L129.481 124.409L129.419 124.443L129.358 124.475L129.295 124.507L129.229 124.538L129.161 124.569L129.092 124.599L129.022 124.628L128.951 124.656L128.88 124.683L128.804 124.71L128.728 124.736L128.652 124.761L128.576 124.784L128.498 124.807L128.419 124.83L128.337 124.852L128.254 124.873L128.169 124.893L128.078 124.904L127.993 124.922L127.909 124.939L127.825 124.955L127.739 124.97L127.651 124.984L127.564 124.994L127.476 125.006L127.387 125.017L127.297 125.027L127.206 125.036L127.112 125.045L127.021 125.052L126.931 125.058L126.843 125.063H126.753H126.662H126.57H126.262H126.188H126.114H126.02H125.929L125.841 125.057L125.755 125.05L125.668 125.042L125.58 125.035L125.492 125.025L125.405 125.014C124.963 124.955 124.518 124.9 124.071 124.849C123.623 124.798 123.172 124.75 122.718 124.707C122.265 124.664 121.811 124.624 121.354 124.589C120.898 124.554 120.441 124.522 119.983 124.494C119.599 124.471 119.212 124.451 118.823 124.434C118.434 124.417 118.044 124.403 117.652 124.394C117.261 124.383 116.869 124.374 116.476 124.368C116.083 124.362 115.69 124.359 115.297 124.358H114.646H114.429C113.963 124.363 113.497 124.372 113.03 124.385C112.564 124.398 112.097 124.415 111.631 124.436C111.165 124.457 110.698 124.482 110.232 124.511C109.766 124.54 109.299 124.573 108.833 124.611C108.367 124.648 107.9 124.689 107.434 124.734C106.968 124.779 106.501 124.828 106.035 124.882C105.569 124.935 105.105 124.992 104.644 125.053C104.183 125.114 103.723 125.178 103.265 125.247C102.809 125.314 102.354 125.386 101.9 125.464C101.446 125.542 100.993 125.622 100.544 125.705C100.093 125.79 99.6458 125.878 99.2007 125.969C98.7557 126.06 98.3137 126.156 97.8746 126.256C97.4389 126.355 97.0059 126.457 96.5755 126.563C96.1452 126.669 95.7155 126.779 95.2864 126.894C94.8627 127.007 94.4427 127.124 94.0263 127.244C93.6099 127.364 93.1989 127.487 92.7932 127.614C92.3861 127.741 91.9827 127.871 91.583 128.005C91.1833 128.139 90.7879 128.276 90.3968 128.417C90.0057 128.558 89.6197 128.701 89.2386 128.848C88.8575 128.995 88.4821 129.144 88.1124 129.297C87.74 129.45 87.3736 129.607 87.0131 129.768C86.6527 129.929 86.2956 130.092 85.9419 130.258C85.5901 130.425 85.2444 130.594 84.9046 130.765C84.5648 130.936 84.2317 131.111 83.9053 131.288C83.5782 131.465 83.2567 131.646 82.941 131.829C82.6252 132.012 82.3164 132.198 82.0146 132.386C81.7128 132.574 81.418 132.764 81.1302 132.957C80.8424 133.15 80.5623 133.344 80.2898 133.54C80.018 133.736 79.7515 133.936 79.4903 134.14C79.2292 134.344 78.978 134.547 78.7369 134.749C78.493 134.954 78.2569 135.161 78.0284 135.37C77.7998 135.579 77.5797 135.789 77.3678 136C77.1553 136.211 76.9508 136.425 76.7542 136.64C76.5577 136.855 76.3685 137.072 76.1866 137.291C76.0054 137.51 75.8325 137.73 75.668 137.951C75.5034 138.172 75.3475 138.395 75.2003 138.618C75.0524 138.843 74.9128 139.068 74.7816 139.295C74.6503 139.522 74.5281 139.75 74.4148 139.98C74.3009 140.209 74.1963 140.439 74.1011 140.67C74.0058 140.901 73.9192 141.132 73.8412 141.363C73.7633 141.594 73.6947 141.828 73.6354 142.063C73.5761 142.298 73.5258 142.532 73.4845 142.763C73.4432 142.996 73.4099 143.23 73.3846 143.463C73.3592 143.696 73.3459 143.93 73.3446 144.163C73.3406 144.395 73.3459 144.628 73.3606 144.863C73.3752 145.098 73.3992 145.329 73.4325 145.557C73.4658 145.788 73.5085 146.019 73.5604 146.248C73.6124 146.477 73.6737 146.706 73.7443 146.933C73.8149 147.16 73.8949 147.387 73.9841 147.614C74.0734 147.841 74.1733 148.066 74.2839 148.29C74.3919 148.515 74.5091 148.738 74.6357 148.96C74.7623 149.182 74.8975 149.402 75.0414 149.621C75.1873 149.841 75.3422 150.06 75.5061 150.277C75.67 150.494 75.8435 150.71 76.0267 150.923C76.2093 151.137 76.4008 151.349 76.6013 151.558C76.8019 151.767 77.0107 151.974 77.2279 152.179L79.3015 148.754C79.3201 148.723 79.3404 148.693 79.3624 148.662C79.3844 148.631 79.4077 148.601 79.4324 148.571C79.457 148.541 79.483 148.511 79.5103 148.482C79.5376 148.453 79.5666 148.424 79.5973 148.395C79.6272 148.366 79.6586 148.338 79.6912 148.31C79.7238 148.282 79.7572 148.254 79.7911 148.226C79.8264 148.199 79.8634 148.171 79.9021 148.144C79.9407 148.117 79.9803 148.09 80.021 148.064C80.0616 148.038 80.1036 148.012 80.1469 147.987C80.1902 147.962 80.2345 147.937 80.2798 147.913C80.3251 147.889 80.3714 147.865 80.4187 147.842C80.466 147.819 80.5143 147.796 80.5636 147.774L80.7145 147.709L80.8724 147.647L81.0363 147.588L81.2062 147.532L81.381 147.48L81.5589 147.432L81.7398 147.388L81.9227 147.349L82.1085 147.314L82.2964 147.283L82.4853 147.257L82.6751 147.235L82.869 147.217L83.0619 147.204L83.2537 147.195H83.4436H83.5365H83.7044L83.8723 147.2L84.0392 147.209L84.2051 147.221L84.389 147.239L84.5708 147.262L84.7497 147.289L84.9256 147.321L85.0925 147.356L85.2554 147.396L85.4142 147.44L85.5681 147.488L85.715 147.54C85.763 147.558 85.81 147.576 85.8559 147.595C85.9019 147.614 85.9465 147.633 85.9899 147.654C86.0332 147.674 86.0755 147.695 86.1168 147.716C86.1581 147.737 86.1987 147.759 86.2387 147.782C86.278 147.805 86.316 147.828 86.3526 147.851C86.3892 147.874 86.4246 147.898 86.4585 147.923C86.4925 147.948 86.5258 147.973 86.5585 147.998C86.5911 148.023 86.6207 148.049 86.6474 148.076C86.676 148.103 86.703 148.129 86.7283 148.156C86.7537 148.183 86.7776 148.21 86.8003 148.239C86.8229 148.267 86.8439 148.295 86.8632 148.324C86.8826 148.353 86.9006 148.381 86.9172 148.41C86.9332 148.439 86.9479 148.468 86.9612 148.498C86.9745 148.528 86.9862 148.558 86.9962 148.587C87.0159 148.646 87.0299 148.706 87.0381 148.768C87.0445 148.829 87.0445 148.891 87.0381 148.952C87.0357 148.983 87.0317 149.014 87.0261 149.044C87.0208 149.075 87.0138 149.106 87.0052 149.137C86.9965 149.168 86.9862 149.2 86.9742 149.231C86.9622 149.262 86.9485 149.294 86.9332 149.325C86.9179 149.356 86.9012 149.388 86.8832 149.419L82.1085 157.519L82.0806 157.566L82.0496 157.613L82.0156 157.661L81.9786 157.709L81.9406 157.756L81.8997 157.802L81.8567 157.848L81.8117 157.893L81.7638 157.939L81.7138 157.984L81.6628 158.028L81.6109 158.07L81.5559 158.113L81.498 158.156L81.438 158.198L81.376 158.24L81.3131 158.28L81.2481 158.32L81.1812 158.36L81.1112 158.399L81.0393 158.438L80.9663 158.475L80.8924 158.511L80.8184 158.546L80.7395 158.581L80.6605 158.615L80.5806 158.648L80.5006 158.679L80.4167 158.711L80.3318 158.742L80.2458 158.771L80.1599 158.799L80.0719 158.826L79.983 158.853L79.8921 158.879L79.8111 158.894L79.7192 158.918L79.6262 158.94L79.5323 158.961L79.4384 158.981L79.3424 158.994L79.2425 159.012L79.1426 159.029L79.0426 159.045L78.9427 159.06L78.8428 159.074L78.7429 159.086L78.6429 159.097L78.543 159.107L78.4431 159.116L78.3431 159.124L78.2432 159.13L78.1433 159.135H78.0433H77.9434H77.8435H77.7585L77.7815 159.146Z" fill="url(#paint20_linear)"/>
<path opacity="0.5" d="M259.601 233.82H259.792L259.983 233.84H260.143L260.303 233.832L260.462 233.821C261.141 233.766 261.816 233.704 262.488 233.635C263.159 233.566 263.828 233.489 264.494 233.405C265.159 233.321 265.819 233.23 266.475 233.132C267.13 233.034 267.779 232.929 268.421 232.817C269.06 232.708 269.695 232.59 270.325 232.462C270.955 232.334 271.58 232.201 272.198 232.062C272.816 231.923 273.428 231.778 274.033 231.626C274.637 231.474 275.234 231.316 275.823 231.151C276.414 230.987 276.995 230.816 277.568 230.638C278.141 230.46 278.707 230.276 279.267 230.086C279.827 229.895 280.378 229.699 280.921 229.498C281.463 229.297 281.996 229.089 282.52 228.876C283.045 228.665 283.562 228.444 284.072 228.215C284.581 227.986 285.081 227.752 285.571 227.515C286.06 227.278 286.54 227.035 287.009 226.788C287.478 226.541 287.936 226.289 288.383 226.032C288.83 225.775 289.266 225.513 289.693 225.246C290.119 224.979 290.535 224.707 290.94 224.43C291.345 224.153 291.738 223.873 292.12 223.588C292.502 223.303 292.871 223.015 293.228 222.723C293.585 222.432 293.929 222.136 294.263 221.837C294.596 221.538 294.917 221.235 295.227 220.929C295.537 220.622 295.834 220.313 296.118 220.002C296.403 219.691 296.675 219.377 296.934 219.06C297.194 218.743 297.442 218.423 297.678 218.099C297.915 217.775 298.139 217.449 298.35 217.12C298.564 216.792 298.763 216.461 298.949 216.128C299.135 215.795 299.308 215.461 299.469 215.128C299.63 214.79 299.779 214.45 299.915 214.109C300.051 213.768 300.174 213.424 300.284 213.079C300.396 212.734 300.494 212.388 300.578 212.041C300.663 211.694 300.735 211.347 300.794 210.999C300.853 210.651 300.9 210.302 300.933 209.952C300.966 209.602 300.987 209.252 300.995 208.901C301.004 208.55 300.999 208.2 300.982 207.849C300.965 207.498 300.935 207.149 300.893 206.8C300.851 206.453 300.797 206.106 300.73 205.759C300.663 205.412 300.585 205.066 300.493 204.719C300.402 204.372 300.299 204.027 300.184 203.683C300.07 203.339 299.943 202.996 299.805 202.655C299.667 202.317 299.517 201.977 299.354 201.635C299.191 201.293 299.018 200.955 298.832 200.622C298.647 200.287 298.451 199.953 298.243 199.622C298.035 199.291 297.816 198.961 297.587 198.634C297.357 198.305 297.116 197.979 296.863 197.654C296.61 197.329 296.345 197.007 296.07 196.686C295.795 196.365 295.51 196.048 295.214 195.733C294.918 195.418 294.612 195.107 294.297 194.798C293.981 194.49 293.655 194.184 293.318 193.881C292.982 193.578 292.635 193.278 292.279 192.981C291.92 192.685 291.553 192.392 291.18 192.103C290.806 191.814 290.424 191.529 290.032 191.248C289.641 190.967 289.241 190.691 288.833 190.42C288.426 190.149 288.009 189.88 287.584 189.613C287.158 189.348 286.725 189.087 286.285 188.83C285.845 188.573 285.397 188.321 284.942 188.073C284.488 187.826 284.025 187.583 283.554 187.343C283.083 187.103 282.605 186.868 282.119 186.637C281.633 186.406 281.141 186.18 280.643 185.958C280.145 185.736 279.64 185.519 279.13 185.308C278.62 185.097 278.101 184.889 277.574 184.686C277.047 184.483 276.514 184.284 275.975 184.091C275.437 183.898 274.893 183.709 274.343 183.526C273.794 183.343 273.24 183.165 272.681 182.992L279.823 182.066L280.008 182.037L280.19 182.004L280.368 181.966L280.541 181.923L280.706 181.877C280.76 181.861 280.813 181.844 280.866 181.827C280.918 181.809 280.97 181.791 281.021 181.772C281.071 181.753 281.121 181.734 281.17 181.713C281.218 181.693 281.265 181.672 281.311 181.651C281.356 181.63 281.401 181.608 281.444 181.585C281.488 181.562 281.53 181.538 281.571 181.515C281.613 181.492 281.653 181.467 281.691 181.442C281.733 181.417 281.77 181.392 281.803 181.366C281.836 181.34 281.87 181.313 281.903 181.286C281.939 181.259 281.972 181.231 282.003 181.203C282.034 181.175 282.063 181.146 282.091 181.117C282.118 181.088 282.144 181.058 282.169 181.028C282.194 180.998 282.217 180.968 282.238 180.937C282.26 180.907 282.28 180.876 282.298 180.845C282.316 180.814 282.332 180.782 282.348 180.751C282.362 180.722 282.376 180.691 282.388 180.656C282.4 180.621 282.41 180.588 282.419 180.556C282.425 180.523 282.432 180.49 282.44 180.456C282.448 180.422 282.452 180.389 282.452 180.356C282.453 180.323 282.453 180.289 282.452 180.256C282.45 180.223 282.448 180.189 282.444 180.156C282.439 180.123 282.433 180.09 282.427 180.056C282.42 180.022 282.411 179.989 282.401 179.956C282.391 179.923 282.379 179.889 282.365 179.856C282.351 179.823 282.335 179.789 282.319 179.756C282.301 179.723 282.283 179.69 282.263 179.656C282.243 179.622 282.221 179.589 282.198 179.556C282.175 179.525 282.151 179.491 282.125 179.456C282.099 179.421 282.071 179.387 282.042 179.356C282.013 179.325 281.982 179.293 281.95 179.262C281.918 179.231 281.885 179.2 281.85 179.17C281.816 179.14 281.78 179.11 281.742 179.081C281.705 179.052 281.666 179.023 281.626 178.994C281.586 178.965 281.545 178.937 281.503 178.91C281.461 178.883 281.418 178.856 281.374 178.83C281.329 178.803 281.283 178.777 281.237 178.751C281.19 178.725 281.142 178.7 281.093 178.675C281.044 178.651 280.994 178.627 280.943 178.603C280.891 178.579 280.839 178.556 280.787 178.534L280.625 178.469L280.457 178.407L280.283 178.349L280.103 178.294L279.921 178.244L279.736 178.198L279.546 178.157L279.353 178.12L279.161 178.088L278.966 178.06L278.766 178.037L278.566 178.019L278.403 178.008L278.238 178H278.073H277.908H277.777L277.577 178.006L277.377 178.016L277.184 178.031L276.995 178.051L260.607 180.157L260.514 180.169L260.42 180.183L260.326 180.198L260.231 180.215L260.139 180.233L260.048 180.252L259.959 180.272L259.872 180.293L259.783 180.316L259.697 180.34L259.614 180.364L259.535 180.389L259.457 180.414L259.379 180.441L259.3 180.47L259.219 180.501L259.144 180.532L259.07 180.564L258.998 180.597L258.928 180.631L258.858 180.666L258.791 180.702L258.727 180.738L258.666 180.774L258.607 180.811L258.549 180.849L258.514 180.879L258.458 180.92L258.405 180.962L258.354 181.004L258.306 181.046L258.261 181.088L258.218 181.131L258.177 181.175L258.138 181.221L258.1 181.267L258.066 181.313L258.034 181.36L258.004 181.407L257.977 181.455L257.952 181.504L257.929 181.553L257.909 181.602C257.903 181.618 257.897 181.634 257.892 181.65C257.887 181.666 257.882 181.682 257.877 181.699C257.872 181.716 257.868 181.733 257.864 181.749C257.86 181.765 257.862 181.782 257.854 181.799C257.846 181.816 257.851 181.833 257.846 181.85C257.841 181.867 257.841 181.883 257.841 181.9V181.9V181.951V182.002V182.054C257.841 182.071 257.839 182.088 257.841 182.105C257.843 182.122 257.848 182.139 257.848 182.156L257.858 182.207L257.87 182.258C257.874 182.275 257.878 182.292 257.884 182.309C257.889 182.326 257.895 182.343 257.901 182.36C257.907 182.377 257.913 182.394 257.92 182.411L257.942 182.462L257.966 182.512L257.993 182.562L258.022 182.612L258.054 182.662L263.779 191.401C263.802 191.434 263.827 191.468 263.853 191.501C263.879 191.534 263.906 191.568 263.936 191.601C263.964 191.633 263.994 191.666 264.026 191.701C264.058 191.736 264.092 191.769 264.126 191.801C264.162 191.834 264.198 191.865 264.235 191.896C264.273 191.927 264.312 191.957 264.352 191.988C264.392 192.019 264.434 192.049 264.477 192.078C264.52 192.107 264.565 192.136 264.61 192.165C264.656 192.193 264.703 192.221 264.751 192.249C264.799 192.277 264.848 192.304 264.899 192.33C264.949 192.357 265.001 192.382 265.054 192.407C265.106 192.432 265.16 192.456 265.215 192.48C265.27 192.504 265.326 192.527 265.384 192.55C265.441 192.573 265.499 192.595 265.558 192.616C265.618 192.637 265.678 192.658 265.738 192.678C265.799 192.698 265.861 192.717 265.923 192.735L266.112 192.788L266.306 192.836L266.506 192.88L266.706 192.919L266.905 192.952L267.105 192.98L267.305 193.003L267.505 193.021L267.662 193.031L267.819 193.038H267.975H268.13H268.329L268.529 193.03L268.729 193.017L268.929 192.999L269.129 192.975L269.322 192.947L269.513 192.913L269.7 192.874L269.882 192.83C269.942 192.815 270 192.799 270.058 192.782C270.116 192.765 270.173 192.747 270.228 192.729C270.283 192.711 270.338 192.692 270.391 192.672C270.444 192.652 270.496 192.632 270.547 192.611C270.598 192.59 270.648 192.568 270.696 192.546C270.744 192.524 270.791 192.501 270.838 192.477C270.884 192.454 270.929 192.429 270.973 192.404C271.017 192.379 271.059 192.353 271.101 192.327C271.143 192.3 271.183 192.273 271.221 192.245C271.26 192.217 271.297 192.189 271.333 192.16C271.367 192.132 271.401 192.103 271.433 192.073C271.466 192.043 271.497 192.013 271.526 191.983C271.556 191.956 271.585 191.925 271.611 191.89C271.638 191.855 271.663 191.822 271.686 191.79C271.709 191.757 271.731 191.723 271.751 191.69C271.771 191.657 271.789 191.623 271.806 191.59C271.823 191.556 271.838 191.523 271.851 191.49C271.864 191.457 271.876 191.424 271.886 191.39C271.896 191.355 271.904 191.321 271.911 191.29C271.918 191.259 271.923 191.225 271.926 191.19C271.93 191.155 271.932 191.121 271.932 191.09V190.99C271.929 190.955 271.924 190.92 271.917 190.884C271.91 190.848 271.902 190.812 271.892 190.777C271.881 190.741 271.869 190.705 271.856 190.67C271.843 190.635 271.828 190.599 271.811 190.564C271.794 190.53 271.776 190.497 271.756 190.464C271.736 190.431 271.715 190.398 271.692 190.364L269.15 186.598C269.613 186.745 270.073 186.897 270.53 187.054C270.987 187.211 271.439 187.371 271.885 187.536C272.331 187.7 272.773 187.869 273.209 188.042C273.645 188.215 274.075 188.392 274.498 188.572C274.919 188.751 275.336 188.935 275.749 189.123C276.163 189.311 276.57 189.503 276.97 189.698C277.371 189.895 277.766 190.095 278.155 190.298C278.544 190.501 278.925 190.708 279.3 190.917C279.675 191.126 280.044 191.339 280.406 191.556C280.769 191.773 281.124 191.994 281.473 192.217C281.822 192.44 282.164 192.667 282.499 192.898C282.833 193.129 283.16 193.363 283.478 193.598C283.797 193.834 284.11 194.074 284.416 194.317C284.723 194.56 285.021 194.806 285.311 195.055C285.599 195.304 285.881 195.555 286.157 195.81C286.434 196.065 286.7 196.321 286.957 196.58C287.212 196.835 287.46 197.096 287.699 197.363C287.938 197.63 288.169 197.896 288.391 198.163C288.612 198.431 288.825 198.701 289.029 198.973C289.233 199.245 289.427 199.518 289.612 199.793C289.796 200.066 289.97 200.342 290.135 200.62C290.301 200.898 290.457 201.177 290.603 201.457C290.75 201.737 290.887 202.018 291.014 202.301C291.141 202.584 291.258 202.866 291.366 203.149C291.472 203.432 291.569 203.717 291.657 204.004C291.746 204.291 291.824 204.578 291.89 204.865C291.957 205.152 292.015 205.44 292.063 205.729C292.111 206.018 292.148 206.306 292.175 206.593C292.202 206.882 292.218 207.172 292.225 207.463C292.232 207.754 292.228 208.045 292.213 208.335C292.198 208.626 292.173 208.916 292.138 209.205C292.103 209.494 292.057 209.783 292 210.07C291.945 210.357 291.878 210.644 291.8 210.931C291.722 211.218 291.634 211.503 291.535 211.788C291.437 212.073 291.328 212.356 291.208 212.638C291.088 212.92 290.958 213.2 290.818 213.478C290.679 213.754 290.528 214.029 290.367 214.304C290.206 214.579 290.035 214.851 289.854 215.121C289.673 215.388 289.482 215.654 289.28 215.921C289.078 216.188 288.867 216.451 288.646 216.711C288.426 216.971 288.195 217.229 287.953 217.486C287.711 217.743 287.46 217.996 287.198 218.247C286.937 218.498 286.666 218.745 286.386 218.99C286.106 219.235 285.816 219.476 285.519 219.713C285.219 219.952 284.909 220.189 284.588 220.422C284.268 220.655 283.939 220.885 283.601 221.111C283.263 221.337 282.915 221.559 282.56 221.778C282.204 221.997 281.84 222.211 281.468 222.42C281.097 222.63 280.715 222.836 280.322 223.039C279.929 223.242 279.529 223.44 279.123 223.633C278.717 223.826 278.302 224.015 277.88 224.2C277.458 224.385 277.029 224.564 276.595 224.738C276.162 224.911 275.722 225.079 275.274 225.244C274.825 225.409 274.37 225.568 273.907 225.723C273.444 225.877 272.974 226.027 272.499 226.173C272.023 226.319 271.542 226.459 271.055 226.592C270.569 226.725 270.076 226.854 269.577 226.978C269.077 227.102 268.572 227.22 268.063 227.333C267.553 227.446 267.038 227.554 266.519 227.656C265.999 227.758 265.476 227.854 264.95 227.945C264.424 228.034 263.891 228.12 263.351 228.201C262.811 228.282 262.268 228.356 261.721 228.423C261.175 228.492 260.624 228.554 260.07 228.61C259.516 228.666 258.96 228.716 258.403 228.761L258.295 228.77L258.188 228.781L258.082 228.793L257.974 228.807L257.874 228.822L257.774 228.839L257.674 228.857L257.569 228.877L257.462 228.9L257.362 228.923L257.262 228.947L257.17 228.971L257.07 228.998L256.975 229.026L256.881 229.056L256.789 229.087L256.699 229.119L256.61 229.153L256.523 229.188L256.438 229.224L256.352 229.262L256.27 229.301L256.191 229.34L256.116 229.38L256.041 229.421L255.967 229.464L255.895 229.508L255.825 229.554L255.756 229.602L255.69 229.65L255.627 229.698L255.568 229.746L255.511 229.794L255.455 229.844L255.4 229.896L255.346 229.951L255.298 230.004L255.253 230.058L255.209 230.113L255.167 230.169L255.128 230.226L255.091 230.283L255.057 230.341L255.026 230.398L254.998 230.456C254.988 230.475 254.98 230.495 254.972 230.515C254.964 230.535 254.956 230.555 254.949 230.575C254.941 230.595 254.934 230.615 254.928 230.636C254.921 230.657 254.915 230.678 254.91 230.698C254.904 230.718 254.899 230.738 254.895 230.759C254.893 230.78 254.889 230.8 254.883 230.82C254.877 230.84 254.874 230.86 254.874 230.88C254.869 230.901 254.867 230.921 254.867 230.942V231.004V231.066V231.128C254.862 231.148 254.862 231.168 254.867 231.188C254.871 231.208 254.874 231.228 254.874 231.249C254.876 231.27 254.88 231.291 254.884 231.312C254.888 231.333 254.892 231.355 254.897 231.377C254.901 231.398 254.906 231.419 254.912 231.44C254.917 231.461 254.923 231.482 254.93 231.503C254.936 231.524 254.943 231.544 254.951 231.565C254.958 231.586 254.966 231.606 254.974 231.626C254.99 231.668 255.009 231.71 255.029 231.751C255.049 231.792 255.07 231.833 255.094 231.874C255.118 231.915 255.143 231.955 255.17 231.995C255.196 232.035 255.225 232.074 255.255 232.113C255.288 232.152 255.319 232.19 255.349 232.228C255.379 232.266 255.413 232.304 255.449 232.342C255.486 232.379 255.524 232.417 255.564 232.454C255.604 232.491 255.646 232.528 255.689 232.564C255.731 232.601 255.775 232.636 255.821 232.669C255.867 232.702 255.914 232.736 255.963 232.769C256.011 232.8 256.061 232.834 256.113 232.869C256.165 232.904 256.218 232.938 256.272 232.969C256.326 233 256.381 233.03 256.438 233.06C256.494 233.09 256.552 233.119 256.612 233.148C256.674 233.176 256.734 233.204 256.793 233.231C256.853 233.258 256.916 233.285 256.982 233.31C257.044 233.335 257.108 233.36 257.174 233.383C257.241 233.406 257.307 233.429 257.374 233.451C257.438 233.473 257.505 233.494 257.574 233.514C257.643 233.534 257.713 233.553 257.784 233.572C257.854 233.59 257.924 233.607 257.996 233.624C258.067 233.641 258.139 233.656 258.21 233.67C258.282 233.685 258.355 233.698 258.427 233.71C258.5 233.722 258.573 233.733 258.645 233.744C258.718 233.755 258.792 233.764 258.866 233.772C258.94 233.78 259.014 233.787 259.089 233.794C259.163 233.798 259.238 233.803 259.313 233.81C259.387 233.817 259.462 233.82 259.537 233.82H259.601Z" fill="url(#paint21_linear)"/>
<defs>
<linearGradient id="paint0_linear" x1="310.52" y1="115.157" x2="326.086" y2="187.156" gradientUnits="userSpaceOnUse">
<stop stop-color="#DD1C84"/>
<stop offset="0.5087" stop-color="#EA8855"/>
<stop offset="0.678731" stop-color="#F1A839"/>
<stop offset="0.771199" stop-color="#FF932F"/>
</linearGradient>
<linearGradient id="paint1_linear" x1="310.52" y1="106.047" x2="326.086" y2="178.046" gradientUnits="userSpaceOnUse">
<stop stop-color="#DD1C84"/>
<stop offset="0.5087" stop-color="#EA8855"/>
<stop offset="0.678731" stop-color="#F1A839"/>
<stop offset="0.771199" stop-color="#FF932F"/>
</linearGradient>
<linearGradient id="paint2_linear" x1="310.52" y1="98.0751" x2="326.086" y2="170.074" gradientUnits="userSpaceOnUse">
<stop stop-color="#DD1C84"/>
<stop offset="0.5087" stop-color="#EA8855"/>
<stop offset="0.678731" stop-color="#F1A839"/>
<stop offset="0.771199" stop-color="#FF932F"/>
</linearGradient>
<linearGradient id="paint3_linear" x1="134" y1="94.9838" x2="176.068" y2="288.755" gradientUnits="userSpaceOnUse">
<stop stop-color="#DD1C84"/>
<stop offset="0.5087" stop-color="#EA8855"/>
<stop offset="0.678731" stop-color="#F1A839"/>
<stop offset="0.771199" stop-color="#FF932F"/>
</linearGradient>
<linearGradient id="paint4_linear" x1="134" y1="72.2069" x2="176.068" y2="265.978" gradientUnits="userSpaceOnUse">
<stop stop-color="#DD1C84"/>
<stop offset="0.5087" stop-color="#EA8855"/>
<stop offset="0.678731" stop-color="#F1A839"/>
<stop offset="0.771199" stop-color="#FF932F"/>
</linearGradient>
<linearGradient id="paint5_linear" x1="134" y1="49.4301" x2="176.068" y2="243.201" gradientUnits="userSpaceOnUse">
<stop stop-color="#DD1C84"/>
<stop offset="0.5087" stop-color="#EA8855"/>
<stop offset="0.678731" stop-color="#F1A839"/>
<stop offset="0.771199" stop-color="#FF932F"/>
</linearGradient>
<linearGradient id="paint6_linear" x1="134" y1="-4.09435" x2="176.068" y2="189.677" gradientUnits="userSpaceOnUse">
<stop stop-color="#DD1C84"/>
<stop offset="0.5087" stop-color="#EA8855"/>
<stop offset="0.678731" stop-color="#F1A839"/>
<stop offset="0.771199" stop-color="#FF932F"/>
</linearGradient>
<linearGradient id="paint7_linear" x1="275.211" y1="174.125" x2="295.614" y2="268.256" gradientUnits="userSpaceOnUse">
<stop stop-color="#DD1C84"/>
<stop offset="0.5087" stop-color="#EA8855"/>
<stop offset="0.678731" stop-color="#F1A839"/>
<stop offset="0.771199" stop-color="#FF932F"/>
</linearGradient>
<linearGradient id="paint8_linear" x1="275.211" y1="162.737" x2="295.614" y2="256.868" gradientUnits="userSpaceOnUse">
<stop stop-color="#DD1C84"/>
<stop offset="0.5087" stop-color="#EA8855"/>
<stop offset="0.678731" stop-color="#F1A839"/>
<stop offset="0.771199" stop-color="#FF932F"/>
</linearGradient>
<linearGradient id="paint9_linear" x1="275.211" y1="150.89" x2="296.774" y2="247.531" gradientUnits="userSpaceOnUse">
<stop stop-color="#DD1C84"/>
<stop offset="0.5087" stop-color="#EA8855"/>
<stop offset="0.678731" stop-color="#F1A839"/>
<stop offset="0.771199" stop-color="#FF932F"/>
</linearGradient>
<linearGradient id="paint10_linear" x1="210.398" y1="197.736" x2="220.61" y2="245.171" gradientUnits="userSpaceOnUse">
<stop stop-color="#DD1C84"/>
<stop offset="0.5087" stop-color="#EA8855"/>
<stop offset="0.678731" stop-color="#F1A839"/>
<stop offset="0.771199" stop-color="#FF932F"/>
</linearGradient>
<linearGradient id="paint11_linear" x1="210.398" y1="191.736" x2="220.61" y2="239.171" gradientUnits="userSpaceOnUse">
<stop stop-color="#DD1C84"/>
<stop offset="0.5087" stop-color="#EA8855"/>
<stop offset="0.678731" stop-color="#F1A839"/>
<stop offset="0.771199" stop-color="#FF932F"/>
</linearGradient>
<linearGradient id="paint12_linear" x1="210.398" y1="186.486" x2="220.61" y2="233.921" gradientUnits="userSpaceOnUse">
<stop stop-color="#DD1C84"/>
<stop offset="0.5087" stop-color="#EA8855"/>
<stop offset="0.678731" stop-color="#F1A839"/>
<stop offset="0.771199" stop-color="#FF932F"/>
</linearGradient>
<linearGradient id="paint13_linear" x1="93.6445" y1="184.451" x2="121.24" y2="312.112" gradientUnits="userSpaceOnUse">
<stop stop-color="#DD1C84"/>
<stop offset="0.5087" stop-color="#EA8855"/>
<stop offset="0.678731" stop-color="#F1A839"/>
<stop offset="0.771199" stop-color="#FF932F"/>
</linearGradient>
<linearGradient id="paint14_linear" x1="93.6445" y1="169.451" x2="121.24" y2="297.112" gradientUnits="userSpaceOnUse">
<stop stop-color="#DD1C84"/>
<stop offset="0.5087" stop-color="#EA8855"/>
<stop offset="0.678731" stop-color="#F1A839"/>
<stop offset="0.771199" stop-color="#FF932F"/>
</linearGradient>
<linearGradient id="paint15_linear" x1="93.6445" y1="154.451" x2="121.24" y2="282.112" gradientUnits="userSpaceOnUse">
<stop stop-color="#DD1C84"/>
<stop offset="0.5087" stop-color="#EA8855"/>
<stop offset="0.678731" stop-color="#F1A839"/>
<stop offset="0.771199" stop-color="#FF932F"/>
</linearGradient>
<linearGradient id="paint16_linear" x1="93.6445" y1="119.201" x2="121.24" y2="246.862" gradientUnits="userSpaceOnUse">
<stop stop-color="#DD1C84"/>
<stop offset="0.5087" stop-color="#EA8855"/>
<stop offset="0.678731" stop-color="#F1A839"/>
<stop offset="0.771199" stop-color="#FF932F"/>
</linearGradient>
<linearGradient id="paint17_linear" x1="187.047" y1="236.571" x2="200.431" y2="298.586" gradientUnits="userSpaceOnUse">
<stop stop-color="#DD1C84"/>
<stop offset="0.5087" stop-color="#EA8855"/>
<stop offset="0.678731" stop-color="#F1A839"/>
<stop offset="0.771199" stop-color="#FF932F"/>
</linearGradient>
<linearGradient id="paint18_linear" x1="187.047" y1="229.071" x2="200.431" y2="291.086" gradientUnits="userSpaceOnUse">
<stop stop-color="#DD1C84"/>
<stop offset="0.5087" stop-color="#EA8855"/>
<stop offset="0.678731" stop-color="#F1A839"/>
<stop offset="0.771199" stop-color="#FF932F"/>
</linearGradient>
<linearGradient id="paint19_linear" x1="187.047" y1="221.269" x2="201.192" y2="284.939" gradientUnits="userSpaceOnUse">
<stop stop-color="#DD1C84"/>
<stop offset="0.5087" stop-color="#EA8855"/>
<stop offset="0.678731" stop-color="#F1A839"/>
<stop offset="0.771199" stop-color="#FF932F"/>
</linearGradient>
<linearGradient id="paint20_linear" x1="-18.9469" y1="190" x2="133.627" y2="243.429" gradientUnits="userSpaceOnUse">
<stop stop-color="#DD1C84"/>
<stop offset="0.28125" stop-color="#EA8855"/>
<stop offset="0.525048" stop-color="#F1A839"/>
<stop offset="0.665387" stop-color="white"/>
</linearGradient>
<linearGradient id="paint21_linear" x1="254.863" y1="166" x2="232.692" y2="202.813" gradientUnits="userSpaceOnUse">
<stop stop-color="#EA8855"/>
<stop offset="0.411458" stop-color="#F1A839"/>
<stop offset="0.744792" stop-color="#FFEBD8"/>
<stop offset="1" stop-color="white"/>
</linearGradient>
</defs>
</svg>
