<svg width="401" height="245" viewBox="0 0 401 245" fill="none" xmlns="http://www.w3.org/2000/svg">
<g opacity="0.1">
<ellipse opacity="0.2" cx="291.809" cy="113.883" rx="39.2897" ry="14.8048" fill="url(#paint0_linear)"/>
<ellipse opacity="0.4" cx="291.809" cy="104.772" rx="39.2897" ry="14.8048" fill="url(#paint1_linear)"/>
<ellipse opacity="0.8" cx="291.809" cy="96.8007" rx="39.2897" ry="14.8048" fill="url(#paint2_linear)"/>
<ellipse opacity="0.2" cx="181.342" cy="138.937" rx="105.342" ry="39.8591" fill="url(#paint3_linear)"/>
<ellipse opacity="0.4" cx="181.342" cy="116.16" rx="105.342" ry="39.8591" fill="url(#paint4_linear)"/>
<ellipse opacity="0.8" cx="181.342" cy="93.3835" rx="105.342" ry="39.8591" fill="url(#paint5_linear)"/>
<ellipse opacity="0.8" cx="181.342" cy="39.8591" rx="105.342" ry="39.8591" fill="url(#paint6_linear)"/>
<ellipse opacity="0.2" cx="268.458" cy="181.074" rx="51.2474" ry="19.3601" fill="url(#paint7_linear)"/>
<ellipse opacity="0.4" cx="268.458" cy="169.686" rx="51.2474" ry="19.3601" fill="url(#paint8_linear)"/>
<ellipse opacity="0.8" cx="268.458" cy="158.867" rx="51.2474" ry="19.9296" fill="url(#paint9_linear)"/>
</g>
<ellipse opacity="0.2" cx="178.386" cy="187.337" rx="25.9871" ry="9.75" fill="url(#paint10_linear)"/>
<ellipse opacity="0.4" cx="178.386" cy="181.337" rx="25.9871" ry="9.75" fill="url(#paint11_linear)"/>
<ellipse opacity="0.8" cx="178.386" cy="176.087" rx="25.9871" ry="9.75" fill="url(#paint12_linear)"/>
<ellipse opacity="0.2" cx="105.32" cy="203.837" rx="69.6755" ry="26.25" fill="url(#paint13_linear)"/>
<ellipse opacity="0.4" cx="105.32" cy="188.837" rx="69.6755" ry="26.25" fill="url(#paint14_linear)"/>
<ellipse opacity="0.8" cx="105.32" cy="173.837" rx="69.6755" ry="26.25" fill="url(#paint15_linear)" fill-opacity="0.8"/>
<ellipse opacity="0.8" cx="105.32" cy="138.587" rx="69.6755" ry="26.25" fill="url(#paint16_linear)"/>
<ellipse opacity="0.2" cx="162.943" cy="231.587" rx="33.8962" ry="12.75" fill="url(#paint17_linear)"/>
<ellipse opacity="0.4" cx="162.943" cy="224.087" rx="33.8962" ry="12.75" fill="url(#paint18_linear)"/>
<ellipse opacity="0.8" cx="162.943" cy="216.962" rx="33.8962" ry="13.125" fill="url(#paint19_linear)"/>
<path opacity="0.5" d="M19.7815 131.146H19.6266H19.5497H19.4727H19.3728L19.2729 131.14L19.1729 131.133L19.073 131.125L2.7243 129.655L2.53743 129.634L2.35556 129.609L2.17868 129.579L2.0088 129.545L1.84391 129.507L1.68302 129.465L1.52713 129.419L1.37623 129.368C1.3276 129.351 1.27963 129.333 1.23233 129.314C1.18503 129.295 1.1394 129.276 1.09543 129.256C1.05079 129.236 1.00749 129.215 0.965517 129.194C0.923546 129.173 0.882575 129.151 0.842602 129.129C0.80263 129.106 0.763656 129.083 0.725682 129.06C0.687709 129.037 0.651401 129.013 0.616758 128.988C0.582116 128.963 0.548805 128.938 0.516827 128.913C0.484849 128.888 0.454205 128.862 0.424892 128.835C0.395578 128.809 0.367931 128.782 0.341949 128.755C0.315967 128.728 0.290983 128.7 0.267 128.672C0.243682 128.644 0.221698 128.616 0.201045 128.587C0.180393 128.558 0.161407 128.529 0.144085 128.5C0.126764 128.471 0.111107 128.442 0.0971169 128.412C0.0831266 128.382 0.0704685 128.352 0.059143 128.322C0.0478175 128.292 0.0381582 128.262 0.0301637 128.231C0.0221692 128.2 0.0158393 128.17 0.0111758 128.139C0.00626252 128.108 0.0029269 128.077 0.00118248 128.046C-0.00039416 128.015 -0.00039416 127.983 0.00118248 127.952C0.00118248 127.921 0.00418119 127.889 0.010177 127.858C0.0161729 127.827 0.0221684 127.795 0.0281643 127.763C0.0361588 127.731 0.04582 127.698 0.0571455 127.663C0.068471 127.628 0.0811271 127.595 0.0951175 127.563C0.109108 127.531 0.124765 127.499 0.142086 127.468C0.159407 127.437 0.178061 127.405 0.198047 127.374C0.218033 127.343 0.239685 127.312 0.263003 127.281C0.28632 127.25 0.310969 127.22 0.336951 127.189C0.362933 127.158 0.390581 127.128 0.419894 127.098C0.449207 127.068 0.479519 127.038 0.510831 127.008C0.542142 126.979 0.575453 126.95 0.610762 126.921C0.646071 126.892 0.681713 126.864 0.717689 126.836C0.75433 126.808 0.792304 126.78 0.83161 126.753C0.870916 126.726 0.911222 126.699 0.952527 126.672C0.994498 126.645 1.0378 126.619 1.08244 126.593C1.12707 126.567 1.17237 126.542 1.21834 126.517C1.26498 126.492 1.31228 126.468 1.36024 126.444L1.50714 126.375L1.66204 126.308L1.82292 126.244L1.98881 126.183L2.15969 126.126L2.32458 126.082L2.50346 126.033L2.68633 125.988L2.8732 125.947L3.06107 125.91L3.25094 125.878L3.44181 125.85L3.63268 125.827L3.82454 125.808L4.02341 125.794L4.21727 125.784L4.41114 125.778H4.55804H4.71493H4.87082L5.02471 125.785L5.17561 125.795L12.1978 126.416C11.9313 126.168 11.6771 125.917 11.4353 125.663C11.1935 125.409 10.9603 125.153 10.7358 124.895C10.5146 124.637 10.3044 124.377 10.1052 124.114C9.90601 123.851 9.71881 123.588 9.54359 123.323C9.36905 123.056 9.20516 122.79 9.05193 122.523C8.89871 122.256 8.75714 121.986 8.62722 121.713C8.49398 121.442 8.37507 121.169 8.27047 120.896C8.16588 120.623 8.06994 120.349 7.98267 120.074C7.89806 119.799 7.82478 119.523 7.76282 119.246C7.70087 118.969 7.6499 118.69 7.60993 118.411C7.57062 118.132 7.54231 117.853 7.52499 117.573C7.50767 117.293 7.502 117.014 7.508 116.735C7.51333 116.455 7.53032 116.174 7.55896 115.892C7.58761 115.61 7.62725 115.328 7.67788 115.047C7.72851 114.766 7.79014 114.485 7.86275 114.204C7.93537 113.923 8.01898 113.644 8.11358 113.365C8.20818 113.087 8.31378 112.809 8.43036 112.531C8.54695 112.253 8.67453 111.976 8.8131 111.7C8.951 111.424 9.09957 111.149 9.25879 110.876C9.41801 110.603 9.58723 110.331 9.76644 110.061C9.94432 109.794 10.1332 109.528 10.333 109.261C10.5329 108.994 10.7421 108.73 10.9606 108.468C11.1798 108.205 11.4083 107.944 11.6461 107.685C11.884 107.426 12.1315 107.169 12.3886 106.916C12.6445 106.663 12.9109 106.411 13.1881 106.16C13.4652 105.909 13.75 105.661 14.0425 105.416C14.3363 105.17 14.6391 104.927 14.9509 104.686C15.2626 104.445 15.5824 104.207 15.9102 103.972C16.2386 103.737 16.5764 103.503 16.9235 103.272C17.2706 103.041 17.626 102.815 17.9898 102.594C18.3528 102.369 18.7239 102.147 19.103 101.928C19.4821 101.709 19.8678 101.494 20.2602 101.282C20.6533 101.07 21.053 100.861 21.4594 100.655C21.8657 100.449 22.2828 100.245 22.7105 100.043C23.1329 99.843 23.5616 99.648 23.9966 99.458C24.4316 99.268 24.871 99.08 25.3147 98.894C25.7584 98.712 26.2088 98.533 26.6658 98.357C27.1228 98.181 27.5858 98.0093 28.0548 97.842C28.5212 97.674 28.9952 97.51 29.4768 97.35C29.9585 97.19 30.4418 97.0343 30.9268 96.883C31.4138 96.7317 31.9068 96.5843 32.4058 96.441C32.9048 96.2977 33.4078 96.1583 33.9148 96.023C34.4217 95.8897 34.9327 95.7587 35.4477 95.63C35.9627 95.5013 36.4803 95.3803 37.0006 95.267C37.5243 95.149 38.0522 95.035 38.5845 94.925C39.1168 94.815 39.6521 94.71 40.1904 94.61C40.7287 94.5093 41.2697 94.4133 41.8133 94.322C42.3569 94.2307 42.9016 94.144 43.4472 94.062C43.9928 93.9807 44.5421 93.9037 45.095 93.831C45.648 93.7583 46.2019 93.6917 46.7569 93.631C47.3125 93.5643 47.8695 93.5057 48.4277 93.455C48.986 93.4043 49.544 93.3533 50.1016 93.302C50.6559 93.258 51.2122 93.2187 51.7704 93.184C52.3287 93.1493 52.8867 93.1193 53.4443 93.094C54.0032 93.0687 54.5618 93.048 55.1201 93.032C55.6784 93.016 56.234 93.0053 56.787 93H57.0578H57.3296H57.8722C58.3386 93 58.8029 93.0033 59.2653 93.01C59.7276 93.0167 60.1916 93.0267 60.6573 93.04C61.1236 93.0533 61.586 93.07 62.0443 93.09C62.5027 93.11 62.9617 93.1333 63.4214 93.16C63.9697 93.192 64.517 93.229 65.0632 93.271C65.6095 93.313 66.1535 93.3597 66.6951 93.411C67.2368 93.4623 67.775 93.5183 68.31 93.579C68.845 93.6397 69.3763 93.7063 69.9039 93.779L70.0778 93.794L70.2437 93.823L70.4066 93.855L70.5645 93.894L70.7173 93.933L70.8652 93.976L71.0071 94.022L71.1431 94.071L71.273 94.123L71.3969 94.178C71.4375 94.1967 71.4772 94.2163 71.5158 94.237C71.5544 94.2577 71.5921 94.2783 71.6287 94.299C71.6654 94.3203 71.7007 94.342 71.7346 94.364C71.7686 94.386 71.8019 94.4083 71.8346 94.431C71.8659 94.4537 71.8959 94.4767 71.9245 94.5C71.9532 94.5233 71.9805 94.547 72.0065 94.571C72.0324 94.595 72.0571 94.6193 72.0804 94.644C72.1037 94.6687 72.1257 94.6937 72.1464 94.719C72.167 94.7443 72.1863 94.77 72.2043 94.796C72.2223 94.822 72.239 94.8483 72.2543 94.875C72.2689 94.901 72.2823 94.9273 72.2943 94.954C72.3062 94.9807 72.3166 95.0073 72.3252 95.034C72.3343 95.0606 72.342 95.0876 72.3482 95.115C72.3543 95.1417 72.359 95.1688 72.3622 95.196C72.3654 95.2232 72.3671 95.2506 72.3672 95.278C72.3687 95.3053 72.3687 95.3327 72.3672 95.36C72.3647 95.3879 72.3607 95.4156 72.3552 95.443C72.3496 95.471 72.3426 95.4987 72.3342 95.526C72.3256 95.5533 72.3156 95.5807 72.3043 95.608C72.2929 95.6353 72.2799 95.6627 72.2653 95.69C72.2506 95.7173 72.2346 95.7447 72.2173 95.772C72.2 95.7993 72.181 95.8263 72.1604 95.853L72.1294 95.893L72.0954 95.933L72.0594 95.972L72.0214 96.011L71.9815 96.05L71.9395 96.088L71.8955 96.126L71.8506 96.163L71.8016 96.201L71.7516 96.238L71.7007 96.273L71.6497 96.307L71.5957 96.341L71.5398 96.375L71.4808 96.409L71.4189 96.443L71.3579 96.475L71.2949 96.507L71.229 96.538L71.161 96.569L71.0921 96.599L71.0221 96.628L70.9512 96.656L70.8802 96.683L70.8043 96.71L70.7283 96.736L70.6524 96.761L70.5764 96.784L70.4985 96.807L70.4185 96.83L70.3366 96.852L70.2537 96.873L70.1687 96.893L70.0778 96.904L69.9928 96.922L69.9089 96.939L69.825 96.955L69.739 96.97L69.6511 96.984L69.5641 96.994L69.4762 97.006L69.3873 97.017L69.2973 97.027L69.2064 97.036L69.1125 97.045L69.0205 97.052L68.9306 97.058L68.8426 97.063H68.7527H68.6618H68.5698H68.262H68.1881H68.1141H68.0202H67.9293L67.8413 97.057L67.7554 97.05L67.6684 97.042L67.5795 97.035L67.4916 97.025L67.4046 97.014C66.9629 96.9553 66.5182 96.9003 66.0706 96.849C65.6229 96.7977 65.1722 96.7503 64.7185 96.707C64.2655 96.6637 63.8108 96.6243 63.3544 96.589C62.8981 96.5537 62.4411 96.522 61.9834 96.494C61.599 96.4713 61.2122 96.4513 60.8232 96.434C60.4341 96.4167 60.0437 96.4033 59.652 96.394C59.2609 96.3827 58.8689 96.374 58.4758 96.368C58.0827 96.362 57.6897 96.3587 57.2966 96.358H56.6461H56.4292C55.9629 96.3627 55.4965 96.3717 55.0302 96.385C54.5638 96.3983 54.0975 96.4153 53.6311 96.436C53.1648 96.4573 52.6985 96.4823 52.2321 96.511C51.7658 96.5397 51.2994 96.573 50.8331 96.611C50.3667 96.6483 49.9004 96.6893 49.434 96.734C48.9677 96.7787 48.5014 96.828 48.035 96.882C47.5687 96.9353 47.105 96.9923 46.644 97.053C46.183 97.1137 45.7233 97.1783 45.2649 97.247C44.8092 97.3137 44.3542 97.386 43.8999 97.464C43.4455 97.542 42.9935 97.6223 42.5438 97.705C42.0934 97.7897 41.6458 97.8777 41.2007 97.969C40.7557 98.0603 40.3137 98.156 39.8746 98.256C39.4389 98.3547 39.0059 98.457 38.5755 98.563C38.1452 98.669 37.7155 98.7793 37.2864 98.894C36.8627 99.0073 36.4427 99.124 36.0263 99.244C35.6099 99.364 35.1989 99.4873 34.7932 99.614C34.3861 99.7407 33.9827 99.871 33.583 100.005C33.1833 100.139 32.7879 100.276 32.3968 100.417C32.0057 100.558 31.6197 100.701 31.2386 100.848C30.8575 100.995 30.4821 101.144 30.1124 101.297C29.74 101.45 29.3736 101.607 29.0131 101.768C28.6527 101.929 28.2956 102.092 27.9419 102.258C27.5901 102.425 27.2444 102.594 26.9046 102.765C26.5648 102.936 26.2317 103.111 25.9053 103.288C25.5782 103.465 25.2567 103.646 24.941 103.829C24.6252 104.012 24.3164 104.198 24.0146 104.386C23.7128 104.574 23.418 104.764 23.1302 104.957C22.8424 105.15 22.5623 105.344 22.2898 105.54C22.018 105.736 21.7515 105.936 21.4903 106.14C21.2292 106.344 20.978 106.547 20.7369 106.749C20.493 106.954 20.2569 107.161 20.0284 107.37C19.7998 107.579 19.5797 107.789 19.3678 108C19.1553 108.211 18.9508 108.425 18.7542 108.64C18.5577 108.855 18.3685 109.072 18.1866 109.291C18.0054 109.51 17.8325 109.73 17.668 109.951C17.5034 110.172 17.3475 110.395 17.2003 110.618C17.0524 110.843 16.9128 111.068 16.7816 111.295C16.6504 111.522 16.5281 111.75 16.4148 111.98C16.3009 112.209 16.1963 112.439 16.1011 112.67C16.0058 112.901 15.9192 113.132 15.8412 113.363C15.7633 113.594 15.6947 113.828 15.6354 114.063C15.5761 114.298 15.5258 114.532 15.4845 114.763C15.4432 114.996 15.4099 115.23 15.3846 115.463C15.3592 115.696 15.3459 115.93 15.3446 116.163C15.3406 116.395 15.3459 116.628 15.3606 116.863C15.3752 117.098 15.3992 117.329 15.4325 117.557C15.4658 117.788 15.5085 118.019 15.5604 118.248C15.6124 118.477 15.6737 118.706 15.7443 118.933C15.8149 119.16 15.8949 119.387 15.9841 119.614C16.0734 119.841 16.1733 120.066 16.2839 120.29C16.3919 120.515 16.5091 120.738 16.6357 120.96C16.7623 121.182 16.8975 121.402 17.0414 121.621C17.1873 121.841 17.3422 122.06 17.5061 122.277C17.67 122.494 17.8435 122.71 18.0267 122.923C18.2093 123.137 18.4008 123.349 18.6013 123.558C18.8019 123.767 19.0107 123.974 19.2279 124.179L21.3015 120.754C21.3201 120.723 21.3404 120.693 21.3624 120.662C21.3844 120.631 21.4077 120.601 21.4324 120.571C21.457 120.541 21.483 120.511 21.5103 120.482C21.5376 120.453 21.5666 120.424 21.5973 120.395C21.6272 120.366 21.6586 120.338 21.6912 120.31C21.7238 120.282 21.7572 120.254 21.7911 120.226C21.8264 120.199 21.8634 120.171 21.9021 120.144C21.9407 120.117 21.9803 120.09 22.021 120.064C22.0616 120.038 22.1036 120.012 22.1469 119.987C22.1902 119.962 22.2345 119.937 22.2798 119.913C22.3251 119.889 22.3714 119.865 22.4187 119.842C22.466 119.819 22.5143 119.796 22.5636 119.774L22.7145 119.709L22.8724 119.647L23.0363 119.588L23.2062 119.532L23.381 119.48L23.5589 119.432L23.7398 119.388L23.9227 119.349L24.1085 119.314L24.2964 119.283L24.4853 119.257L24.6751 119.235L24.869 119.217L25.0619 119.204L25.2537 119.195H25.4436H25.5365H25.7044L25.8723 119.2L26.0392 119.209L26.2051 119.221L26.389 119.239L26.5708 119.262L26.7497 119.289L26.9256 119.321L27.0925 119.356L27.2554 119.396L27.4142 119.44L27.5681 119.488L27.715 119.54C27.763 119.558 27.81 119.576 27.8559 119.595C27.9019 119.614 27.9465 119.633 27.9899 119.654C28.0332 119.674 28.0755 119.695 28.1168 119.716C28.1581 119.737 28.1987 119.759 28.2387 119.782C28.278 119.805 28.316 119.828 28.3526 119.851C28.3892 119.874 28.4246 119.898 28.4585 119.923C28.4925 119.948 28.5258 119.973 28.5585 119.998C28.5911 120.023 28.6208 120.049 28.6474 120.076C28.676 120.103 28.703 120.129 28.7283 120.156C28.7537 120.183 28.7776 120.21 28.8003 120.239C28.8229 120.267 28.8439 120.295 28.8632 120.324C28.8826 120.353 28.9006 120.381 28.9172 120.41C28.9332 120.439 28.9479 120.468 28.9612 120.498C28.9745 120.528 28.9862 120.558 28.9962 120.587C29.0159 120.646 29.0299 120.706 29.0381 120.768C29.0445 120.829 29.0445 120.891 29.0381 120.952C29.0357 120.983 29.0317 121.014 29.0261 121.044C29.0208 121.075 29.0138 121.106 29.0052 121.137C28.9965 121.168 28.9862 121.2 28.9742 121.231C28.9622 121.262 28.9485 121.294 28.9332 121.325C28.9179 121.356 28.9012 121.388 28.8832 121.419L24.1085 129.519L24.0806 129.566L24.0496 129.613L24.0156 129.661L23.9786 129.709L23.9406 129.756L23.8997 129.802L23.8567 129.848L23.8117 129.893L23.7638 129.939L23.7138 129.984L23.6628 130.028L23.6109 130.07L23.5559 130.113L23.498 130.156L23.438 130.198L23.376 130.24L23.3131 130.28L23.2481 130.32L23.1812 130.36L23.1112 130.399L23.0393 130.438L22.9663 130.475L22.8924 130.511L22.8184 130.546L22.7395 130.581L22.6605 130.615L22.5806 130.648L22.5006 130.679L22.4167 130.711L22.3318 130.742L22.2458 130.771L22.1599 130.799L22.0719 130.826L21.983 130.853L21.8921 130.879L21.8111 130.894L21.7192 130.918L21.6262 130.94L21.5323 130.961L21.4384 130.981L21.3424 130.994L21.2425 131.012L21.1426 131.029L21.0427 131.045L20.9427 131.06L20.8428 131.074L20.7429 131.086L20.6429 131.097L20.543 131.107L20.4431 131.116L20.3431 131.124L20.2432 131.13L20.1433 131.135H20.0433H19.9434H19.8435H19.7585L19.7815 131.146Z" fill="url(#paint20_linear)"/>
<path opacity="0.5" d="M201.601 205.82H201.792L201.983 205.84H202.143L202.303 205.832L202.462 205.821C203.141 205.766 203.816 205.704 204.488 205.635C205.159 205.566 205.828 205.489 206.494 205.405C207.159 205.321 207.819 205.23 208.475 205.132C209.13 205.034 209.779 204.929 210.421 204.817C211.06 204.708 211.695 204.59 212.325 204.462C212.955 204.334 213.58 204.201 214.198 204.062C214.816 203.923 215.428 203.778 216.033 203.626C216.637 203.474 217.234 203.316 217.823 203.151C218.414 202.987 218.995 202.816 219.568 202.638C220.141 202.46 220.707 202.276 221.267 202.086C221.827 201.895 222.378 201.699 222.921 201.498C223.463 201.297 223.996 201.089 224.52 200.876C225.045 200.665 225.562 200.444 226.072 200.215C226.581 199.986 227.081 199.752 227.571 199.515C228.06 199.278 228.54 199.035 229.009 198.788C229.478 198.541 229.936 198.289 230.383 198.032C230.83 197.775 231.266 197.513 231.693 197.246C232.119 196.979 232.535 196.707 232.94 196.43C233.345 196.153 233.738 195.873 234.12 195.588C234.502 195.303 234.871 195.015 235.228 194.723C235.585 194.432 235.929 194.136 236.263 193.837C236.596 193.538 236.917 193.235 237.227 192.929C237.537 192.622 237.834 192.313 238.118 192.002C238.403 191.691 238.675 191.377 238.934 191.06C239.194 190.743 239.442 190.423 239.678 190.099C239.915 189.775 240.139 189.449 240.35 189.12C240.564 188.792 240.763 188.461 240.949 188.128C241.135 187.795 241.308 187.461 241.469 187.128C241.63 186.79 241.779 186.45 241.915 186.109C242.051 185.768 242.174 185.424 242.284 185.079C242.396 184.734 242.494 184.388 242.578 184.041C242.663 183.694 242.735 183.347 242.794 182.999C242.853 182.651 242.9 182.302 242.933 181.952C242.966 181.602 242.987 181.252 242.995 180.901C243.004 180.55 242.999 180.2 242.982 179.849C242.965 179.498 242.935 179.149 242.893 178.8C242.851 178.453 242.797 178.106 242.73 177.759C242.663 177.412 242.585 177.066 242.493 176.719C242.402 176.372 242.299 176.027 242.184 175.683C242.07 175.339 241.943 174.996 241.805 174.655C241.667 174.317 241.517 173.977 241.354 173.635C241.191 173.293 241.018 172.955 240.832 172.622C240.647 172.287 240.451 171.953 240.243 171.622C240.035 171.291 239.816 170.961 239.587 170.634C239.357 170.305 239.116 169.979 238.863 169.654C238.61 169.329 238.345 169.007 238.07 168.686C237.795 168.365 237.51 168.048 237.214 167.733C236.918 167.418 236.612 167.107 236.297 166.798C235.981 166.49 235.655 166.184 235.318 165.881C234.982 165.578 234.635 165.278 234.279 164.981C233.92 164.685 233.553 164.392 233.18 164.103C232.806 163.814 232.424 163.529 232.032 163.248C231.641 162.967 231.241 162.691 230.833 162.42C230.426 162.149 230.009 161.88 229.584 161.613C229.158 161.348 228.725 161.087 228.285 160.83C227.845 160.573 227.397 160.321 226.942 160.073C226.488 159.826 226.025 159.583 225.554 159.343C225.083 159.103 224.605 158.868 224.119 158.637C223.633 158.406 223.141 158.18 222.643 157.958C222.145 157.736 221.64 157.519 221.13 157.308C220.62 157.097 220.101 156.889 219.574 156.686C219.047 156.483 218.514 156.284 217.975 156.091C217.437 155.898 216.893 155.709 216.343 155.526C215.794 155.343 215.24 155.165 214.681 154.992L221.823 154.066L222.008 154.037L222.19 154.004L222.368 153.966L222.541 153.923L222.706 153.877C222.76 153.861 222.813 153.844 222.866 153.827C222.918 153.809 222.97 153.791 223.021 153.772C223.071 153.753 223.121 153.734 223.17 153.713C223.218 153.693 223.265 153.672 223.311 153.651C223.356 153.63 223.401 153.608 223.444 153.585C223.488 153.562 223.53 153.538 223.571 153.515C223.613 153.492 223.653 153.467 223.691 153.442C223.733 153.417 223.77 153.392 223.803 153.366C223.836 153.34 223.87 153.313 223.903 153.286C223.939 153.259 223.972 153.231 224.003 153.203C224.034 153.175 224.063 153.146 224.091 153.117C224.118 153.088 224.144 153.058 224.169 153.028C224.194 152.998 224.217 152.968 224.238 152.937C224.26 152.907 224.28 152.876 224.298 152.845C224.316 152.814 224.332 152.782 224.348 152.751C224.362 152.722 224.376 152.691 224.388 152.656C224.4 152.621 224.41 152.588 224.419 152.556C224.425 152.523 224.432 152.49 224.44 152.456C224.448 152.422 224.452 152.389 224.452 152.356C224.453 152.323 224.453 152.289 224.452 152.256C224.45 152.223 224.448 152.189 224.444 152.156C224.439 152.123 224.433 152.09 224.427 152.056C224.42 152.022 224.411 151.989 224.401 151.956C224.391 151.923 224.379 151.889 224.365 151.856C224.351 151.823 224.335 151.789 224.319 151.756C224.301 151.723 224.283 151.69 224.263 151.656C224.243 151.622 224.221 151.589 224.198 151.556C224.175 151.525 224.151 151.491 224.125 151.456C224.099 151.421 224.071 151.387 224.042 151.356C224.013 151.325 223.982 151.293 223.95 151.262C223.918 151.231 223.885 151.2 223.85 151.17C223.816 151.14 223.78 151.11 223.742 151.081C223.705 151.052 223.666 151.023 223.626 150.994C223.586 150.965 223.545 150.937 223.503 150.91C223.461 150.883 223.418 150.856 223.374 150.83C223.329 150.803 223.283 150.777 223.237 150.751C223.19 150.725 223.142 150.7 223.093 150.675C223.044 150.651 222.994 150.627 222.943 150.603C222.891 150.579 222.839 150.556 222.787 150.534L222.625 150.469L222.457 150.407L222.283 150.349L222.103 150.294L221.921 150.244L221.736 150.198L221.546 150.157L221.353 150.12L221.161 150.088L220.966 150.06L220.766 150.037L220.566 150.019L220.403 150.008L220.238 150H220.073H219.908H219.777L219.577 150.006L219.377 150.016L219.184 150.031L218.995 150.051L202.607 152.157L202.514 152.169L202.42 152.183L202.326 152.198L202.231 152.215L202.139 152.233L202.048 152.252L201.959 152.272L201.872 152.293L201.783 152.316L201.697 152.34L201.614 152.364L201.535 152.389L201.457 152.414L201.379 152.441L201.3 152.47L201.219 152.501L201.144 152.532L201.07 152.564L200.998 152.597L200.928 152.631L200.858 152.666L200.791 152.702L200.727 152.738L200.666 152.774L200.607 152.811L200.549 152.849L200.514 152.879L200.458 152.92L200.405 152.962L200.354 153.004L200.306 153.046L200.261 153.088L200.218 153.131L200.177 153.175L200.138 153.221L200.1 153.267L200.066 153.313L200.034 153.36L200.004 153.407L199.977 153.455L199.952 153.504L199.929 153.553L199.909 153.602C199.903 153.618 199.897 153.634 199.892 153.65C199.887 153.666 199.882 153.682 199.877 153.699C199.872 153.716 199.868 153.733 199.864 153.749C199.86 153.765 199.862 153.782 199.854 153.799C199.846 153.816 199.851 153.833 199.846 153.85C199.841 153.867 199.841 153.883 199.841 153.9V153.9V153.951V154.002V154.054C199.841 154.071 199.839 154.088 199.841 154.105C199.843 154.122 199.848 154.139 199.848 154.156L199.858 154.207L199.87 154.258C199.874 154.275 199.878 154.292 199.884 154.309C199.889 154.326 199.895 154.343 199.901 154.36C199.907 154.377 199.913 154.394 199.92 154.411L199.942 154.462L199.966 154.512L199.993 154.562L200.022 154.612L200.054 154.662L205.779 163.401C205.802 163.434 205.827 163.468 205.853 163.501C205.879 163.534 205.906 163.568 205.936 163.601C205.964 163.633 205.994 163.666 206.026 163.701C206.058 163.736 206.092 163.769 206.126 163.801C206.162 163.834 206.198 163.865 206.235 163.896C206.273 163.927 206.312 163.957 206.352 163.988C206.392 164.019 206.434 164.049 206.477 164.078C206.52 164.107 206.565 164.136 206.61 164.165C206.656 164.193 206.703 164.221 206.751 164.249C206.799 164.277 206.848 164.304 206.899 164.33C206.949 164.357 207.001 164.382 207.054 164.407C207.106 164.432 207.16 164.456 207.215 164.48C207.27 164.504 207.326 164.527 207.384 164.55C207.441 164.573 207.499 164.595 207.558 164.616C207.618 164.637 207.678 164.658 207.738 164.678C207.799 164.698 207.861 164.717 207.923 164.735L208.112 164.788L208.306 164.836L208.506 164.88L208.706 164.919L208.905 164.952L209.105 164.98L209.305 165.003L209.505 165.021L209.662 165.031L209.819 165.038H209.975H210.13H210.329L210.529 165.03L210.729 165.017L210.929 164.999L211.129 164.975L211.322 164.947L211.513 164.913L211.7 164.874L211.882 164.83C211.942 164.815 212 164.799 212.058 164.782C212.116 164.765 212.173 164.747 212.228 164.729C212.283 164.711 212.338 164.692 212.391 164.672C212.444 164.652 212.496 164.632 212.547 164.611C212.598 164.59 212.648 164.568 212.696 164.546C212.744 164.524 212.791 164.501 212.838 164.477C212.884 164.454 212.929 164.429 212.973 164.404C213.017 164.379 213.059 164.353 213.101 164.327C213.143 164.3 213.183 164.273 213.221 164.245C213.26 164.217 213.297 164.189 213.333 164.16C213.367 164.132 213.401 164.103 213.433 164.073C213.466 164.043 213.497 164.013 213.526 163.983C213.556 163.956 213.585 163.925 213.611 163.89C213.638 163.855 213.663 163.822 213.686 163.79C213.709 163.757 213.731 163.723 213.751 163.69C213.771 163.657 213.789 163.623 213.806 163.59C213.823 163.556 213.838 163.523 213.851 163.49C213.864 163.457 213.876 163.424 213.886 163.39C213.896 163.355 213.904 163.321 213.911 163.29C213.918 163.259 213.923 163.225 213.926 163.19C213.93 163.155 213.932 163.121 213.932 163.09V162.99C213.929 162.955 213.924 162.92 213.917 162.884C213.91 162.848 213.902 162.812 213.892 162.777C213.881 162.741 213.869 162.705 213.856 162.67C213.843 162.635 213.828 162.599 213.811 162.564C213.794 162.53 213.776 162.497 213.756 162.464C213.736 162.431 213.715 162.398 213.692 162.364L211.15 158.598C211.613 158.745 212.073 158.897 212.53 159.054C212.987 159.211 213.439 159.371 213.885 159.536C214.331 159.7 214.773 159.869 215.209 160.042C215.645 160.215 216.075 160.392 216.498 160.572C216.919 160.751 217.336 160.935 217.749 161.123C218.163 161.311 218.57 161.503 218.97 161.698C219.371 161.895 219.766 162.095 220.155 162.298C220.544 162.501 220.925 162.708 221.3 162.917C221.675 163.126 222.044 163.339 222.406 163.556C222.769 163.773 223.124 163.994 223.473 164.217C223.822 164.44 224.164 164.667 224.499 164.898C224.833 165.129 225.16 165.363 225.478 165.598C225.797 165.834 226.11 166.074 226.416 166.317C226.723 166.56 227.021 166.806 227.311 167.055C227.599 167.304 227.881 167.555 228.157 167.81C228.434 168.065 228.7 168.321 228.957 168.58C229.212 168.835 229.46 169.096 229.699 169.363C229.938 169.63 230.169 169.896 230.391 170.163C230.612 170.431 230.825 170.701 231.029 170.973C231.233 171.245 231.427 171.518 231.612 171.793C231.796 172.066 231.97 172.342 232.135 172.62C232.301 172.898 232.457 173.177 232.603 173.457C232.75 173.737 232.887 174.018 233.014 174.301C233.141 174.584 233.258 174.866 233.366 175.149C233.472 175.432 233.569 175.717 233.657 176.004C233.746 176.291 233.824 176.578 233.89 176.865C233.957 177.152 234.015 177.44 234.063 177.729C234.111 178.018 234.148 178.306 234.175 178.593C234.202 178.882 234.218 179.172 234.225 179.463C234.232 179.754 234.228 180.045 234.213 180.335C234.198 180.626 234.173 180.916 234.138 181.205C234.103 181.494 234.057 181.783 234 182.07C233.945 182.357 233.878 182.644 233.8 182.931C233.722 183.218 233.634 183.503 233.535 183.788C233.437 184.073 233.328 184.356 233.208 184.638C233.088 184.92 232.958 185.2 232.818 185.478C232.679 185.754 232.528 186.029 232.367 186.304C232.206 186.579 232.035 186.851 231.854 187.121C231.673 187.388 231.482 187.654 231.28 187.921C231.078 188.188 230.867 188.451 230.646 188.711C230.426 188.971 230.195 189.229 229.953 189.486C229.711 189.743 229.46 189.996 229.198 190.247C228.937 190.498 228.666 190.745 228.386 190.99C228.106 191.235 227.816 191.476 227.519 191.713C227.219 191.952 226.909 192.189 226.588 192.422C226.268 192.655 225.939 192.885 225.601 193.111C225.263 193.337 224.915 193.559 224.56 193.778C224.204 193.997 223.84 194.211 223.468 194.42C223.097 194.63 222.715 194.836 222.322 195.039C221.929 195.242 221.529 195.44 221.123 195.633C220.717 195.826 220.302 196.015 219.88 196.2C219.458 196.385 219.029 196.564 218.595 196.738C218.162 196.911 217.722 197.079 217.274 197.244C216.825 197.409 216.37 197.568 215.907 197.723C215.444 197.877 214.974 198.027 214.499 198.173C214.023 198.319 213.542 198.459 213.055 198.592C212.569 198.725 212.076 198.854 211.577 198.978C211.077 199.102 210.572 199.22 210.063 199.333C209.553 199.446 209.038 199.554 208.519 199.656C207.999 199.758 207.476 199.854 206.95 199.945C206.424 200.034 205.891 200.12 205.351 200.201C204.811 200.282 204.268 200.356 203.721 200.423C203.175 200.492 202.624 200.554 202.07 200.61C201.516 200.666 200.96 200.716 200.403 200.761L200.295 200.77L200.188 200.781L200.082 200.793L199.974 200.807L199.874 200.822L199.774 200.839L199.674 200.857L199.569 200.877L199.462 200.9L199.362 200.923L199.262 200.947L199.17 200.971L199.07 200.998L198.975 201.026L198.881 201.056L198.789 201.087L198.699 201.119L198.61 201.153L198.523 201.188L198.438 201.224L198.352 201.262L198.27 201.301L198.191 201.34L198.116 201.38L198.041 201.421L197.967 201.464L197.895 201.508L197.825 201.554L197.756 201.602L197.69 201.65L197.627 201.698L197.568 201.746L197.511 201.794L197.455 201.844L197.4 201.896L197.346 201.951L197.298 202.004L197.253 202.058L197.209 202.113L197.167 202.169L197.128 202.226L197.091 202.283L197.057 202.341L197.026 202.398L196.998 202.456C196.988 202.475 196.98 202.495 196.972 202.515C196.964 202.535 196.956 202.555 196.949 202.575C196.941 202.595 196.934 202.615 196.928 202.636C196.921 202.657 196.915 202.678 196.91 202.698C196.904 202.718 196.899 202.738 196.895 202.759C196.893 202.78 196.889 202.8 196.883 202.82C196.877 202.84 196.874 202.86 196.874 202.88C196.869 202.901 196.867 202.921 196.867 202.942V203.004V203.066V203.128C196.862 203.148 196.862 203.168 196.867 203.188C196.871 203.208 196.874 203.228 196.874 203.249C196.876 203.27 196.88 203.291 196.884 203.312C196.888 203.333 196.892 203.355 196.897 203.377C196.901 203.398 196.906 203.419 196.912 203.44C196.917 203.461 196.923 203.482 196.93 203.503C196.936 203.524 196.943 203.544 196.951 203.565C196.958 203.586 196.966 203.606 196.974 203.626C196.99 203.668 197.009 203.71 197.029 203.751C197.049 203.792 197.07 203.833 197.094 203.874C197.118 203.915 197.143 203.955 197.17 203.995C197.196 204.035 197.225 204.074 197.255 204.113C197.288 204.152 197.319 204.19 197.349 204.228C197.379 204.266 197.413 204.304 197.449 204.342C197.486 204.379 197.524 204.417 197.564 204.454C197.604 204.491 197.646 204.528 197.689 204.564C197.731 204.601 197.775 204.636 197.821 204.669C197.867 204.702 197.914 204.736 197.963 204.769C198.011 204.8 198.061 204.834 198.113 204.869C198.165 204.904 198.218 204.938 198.272 204.969C198.326 205 198.381 205.03 198.438 205.06C198.494 205.09 198.552 205.119 198.612 205.148C198.674 205.176 198.734 205.204 198.793 205.231C198.853 205.258 198.916 205.285 198.982 205.31C199.044 205.335 199.108 205.36 199.174 205.383C199.241 205.406 199.307 205.429 199.374 205.451C199.438 205.473 199.505 205.494 199.574 205.514C199.643 205.534 199.713 205.553 199.784 205.572C199.854 205.59 199.924 205.607 199.996 205.624C200.067 205.641 200.139 205.656 200.21 205.67C200.282 205.685 200.355 205.698 200.427 205.71C200.5 205.722 200.573 205.733 200.645 205.744C200.718 205.755 200.792 205.764 200.866 205.772C200.94 205.78 201.014 205.787 201.089 205.794C201.163 205.798 201.238 205.803 201.313 205.81C201.387 205.817 201.462 205.82 201.537 205.82H201.601Z" fill="url(#paint21_linear)"/>
<defs>
<linearGradient id="paint0_linear" x1="252.52" y1="87.1574" x2="268.086" y2="159.156" gradientUnits="userSpaceOnUse">
<stop stop-color="#DD1C84"/>
<stop offset="0.5087" stop-color="#EA8855"/>
<stop offset="0.678731" stop-color="#F1A839"/>
<stop offset="0.771199" stop-color="#FF932F"/>
</linearGradient>
<linearGradient id="paint1_linear" x1="252.52" y1="78.0468" x2="268.086" y2="150.046" gradientUnits="userSpaceOnUse">
<stop stop-color="#DD1C84"/>
<stop offset="0.5087" stop-color="#EA8855"/>
<stop offset="0.678731" stop-color="#F1A839"/>
<stop offset="0.771199" stop-color="#FF932F"/>
</linearGradient>
<linearGradient id="paint2_linear" x1="252.52" y1="70.0751" x2="268.086" y2="142.074" gradientUnits="userSpaceOnUse">
<stop stop-color="#DD1C84"/>
<stop offset="0.5087" stop-color="#EA8855"/>
<stop offset="0.678731" stop-color="#F1A839"/>
<stop offset="0.771199" stop-color="#FF932F"/>
</linearGradient>
<linearGradient id="paint3_linear" x1="76" y1="66.9838" x2="118.068" y2="260.755" gradientUnits="userSpaceOnUse">
<stop stop-color="#DD1C84"/>
<stop offset="0.5087" stop-color="#EA8855"/>
<stop offset="0.678731" stop-color="#F1A839"/>
<stop offset="0.771199" stop-color="#FF932F"/>
</linearGradient>
<linearGradient id="paint4_linear" x1="76" y1="44.2069" x2="118.068" y2="237.978" gradientUnits="userSpaceOnUse">
<stop stop-color="#DD1C84"/>
<stop offset="0.5087" stop-color="#EA8855"/>
<stop offset="0.678731" stop-color="#F1A839"/>
<stop offset="0.771199" stop-color="#FF932F"/>
</linearGradient>
<linearGradient id="paint5_linear" x1="76" y1="21.4301" x2="118.068" y2="215.201" gradientUnits="userSpaceOnUse">
<stop stop-color="#DD1C84"/>
<stop offset="0.5087" stop-color="#EA8855"/>
<stop offset="0.678731" stop-color="#F1A839"/>
<stop offset="0.771199" stop-color="#FF932F"/>
</linearGradient>
<linearGradient id="paint6_linear" x1="76" y1="-32.0944" x2="118.068" y2="161.677" gradientUnits="userSpaceOnUse">
<stop stop-color="#DD1C84"/>
<stop offset="0.5087" stop-color="#EA8855"/>
<stop offset="0.678731" stop-color="#F1A839"/>
<stop offset="0.771199" stop-color="#FF932F"/>
</linearGradient>
<linearGradient id="paint7_linear" x1="217.211" y1="146.125" x2="237.614" y2="240.256" gradientUnits="userSpaceOnUse">
<stop stop-color="#DD1C84"/>
<stop offset="0.5087" stop-color="#EA8855"/>
<stop offset="0.678731" stop-color="#F1A839"/>
<stop offset="0.771199" stop-color="#FF932F"/>
</linearGradient>
<linearGradient id="paint8_linear" x1="217.211" y1="134.737" x2="237.614" y2="228.868" gradientUnits="userSpaceOnUse">
<stop stop-color="#DD1C84"/>
<stop offset="0.5087" stop-color="#EA8855"/>
<stop offset="0.678731" stop-color="#F1A839"/>
<stop offset="0.771199" stop-color="#FF932F"/>
</linearGradient>
<linearGradient id="paint9_linear" x1="217.211" y1="122.89" x2="238.774" y2="219.531" gradientUnits="userSpaceOnUse">
<stop stop-color="#DD1C84"/>
<stop offset="0.5087" stop-color="#EA8855"/>
<stop offset="0.678731" stop-color="#F1A839"/>
<stop offset="0.771199" stop-color="#FF932F"/>
</linearGradient>
<linearGradient id="paint10_linear" x1="152.398" y1="169.736" x2="162.61" y2="217.171" gradientUnits="userSpaceOnUse">
<stop stop-color="#DD1C84"/>
<stop offset="0.5087" stop-color="#EA8855"/>
<stop offset="0.678731" stop-color="#F1A839"/>
<stop offset="0.771199" stop-color="#FF932F"/>
</linearGradient>
<linearGradient id="paint11_linear" x1="152.398" y1="163.736" x2="162.61" y2="211.171" gradientUnits="userSpaceOnUse">
<stop stop-color="#DD1C84"/>
<stop offset="0.5087" stop-color="#EA8855"/>
<stop offset="0.678731" stop-color="#F1A839"/>
<stop offset="0.771199" stop-color="#FF932F"/>
</linearGradient>
<linearGradient id="paint12_linear" x1="152.398" y1="158.486" x2="162.61" y2="205.921" gradientUnits="userSpaceOnUse">
<stop stop-color="#DD1C84"/>
<stop offset="0.5087" stop-color="#EA8855"/>
<stop offset="0.678731" stop-color="#F1A839"/>
<stop offset="0.771199" stop-color="#FF932F"/>
</linearGradient>
<linearGradient id="paint13_linear" x1="35.6445" y1="156.451" x2="63.2403" y2="284.112" gradientUnits="userSpaceOnUse">
<stop stop-color="#DD1C84"/>
<stop offset="0.5087" stop-color="#EA8855"/>
<stop offset="0.678731" stop-color="#F1A839"/>
<stop offset="0.771199" stop-color="#FF932F"/>
</linearGradient>
<linearGradient id="paint14_linear" x1="35.6445" y1="141.451" x2="63.2403" y2="269.112" gradientUnits="userSpaceOnUse">
<stop stop-color="#DD1C84"/>
<stop offset="0.5087" stop-color="#EA8855"/>
<stop offset="0.678731" stop-color="#F1A839"/>
<stop offset="0.771199" stop-color="#FF932F"/>
</linearGradient>
<linearGradient id="paint15_linear" x1="35.6445" y1="126.451" x2="63.2403" y2="254.112" gradientUnits="userSpaceOnUse">
<stop stop-color="#DD1C84"/>
<stop offset="0.5087" stop-color="#EA8855"/>
<stop offset="0.678731" stop-color="#F1A839"/>
<stop offset="0.771199" stop-color="#FF932F"/>
</linearGradient>
<linearGradient id="paint16_linear" x1="35.6445" y1="91.2005" x2="63.2403" y2="218.862" gradientUnits="userSpaceOnUse">
<stop stop-color="#DD1C84"/>
<stop offset="0.5087" stop-color="#EA8855"/>
<stop offset="0.678731" stop-color="#F1A839"/>
<stop offset="0.771199" stop-color="#FF932F"/>
</linearGradient>
<linearGradient id="paint17_linear" x1="129.047" y1="208.571" x2="142.431" y2="270.586" gradientUnits="userSpaceOnUse">
<stop stop-color="#DD1C84"/>
<stop offset="0.5087" stop-color="#EA8855"/>
<stop offset="0.678731" stop-color="#F1A839"/>
<stop offset="0.771199" stop-color="#FF932F"/>
</linearGradient>
<linearGradient id="paint18_linear" x1="129.047" y1="201.071" x2="142.431" y2="263.086" gradientUnits="userSpaceOnUse">
<stop stop-color="#DD1C84"/>
<stop offset="0.5087" stop-color="#EA8855"/>
<stop offset="0.678731" stop-color="#F1A839"/>
<stop offset="0.771199" stop-color="#FF932F"/>
</linearGradient>
<linearGradient id="paint19_linear" x1="129.047" y1="193.269" x2="143.192" y2="256.939" gradientUnits="userSpaceOnUse">
<stop stop-color="#DD1C84"/>
<stop offset="0.5087" stop-color="#EA8855"/>
<stop offset="0.678731" stop-color="#F1A839"/>
<stop offset="0.771199" stop-color="#FF932F"/>
</linearGradient>
<linearGradient id="paint20_linear" x1="-76.9469" y1="162" x2="75.6275" y2="215.429" gradientUnits="userSpaceOnUse">
<stop stop-color="#DD1C84"/>
<stop offset="0.28125" stop-color="#EA8855"/>
<stop offset="0.525048" stop-color="#F1A839"/>
<stop offset="0.665387" stop-color="white"/>
</linearGradient>
<linearGradient id="paint21_linear" x1="196.863" y1="138" x2="174.692" y2="174.813" gradientUnits="userSpaceOnUse">
<stop stop-color="#EA8855"/>
<stop offset="0.411458" stop-color="#F1A839"/>
<stop offset="0.744792" stop-color="#FFEBD8"/>
<stop offset="1" stop-color="white"/>
</linearGradient>
</defs>
</svg>
