<svg width="28" height="28" viewBox="0 0 28 28" fill="none" xmlns="http://www.w3.org/2000/svg">
<path d="M14 28C21.732 28 28 21.732 28 14C28 6.26801 21.732 0 14 0C6.26801 0 0 6.26801 0 14C0 21.732 6.26801 28 14 28Z" fill="#103F68"/>
<path d="M13.9825 4.39087L22.3125 9.18849V18.8135L13.9921 23.6251L13.9247 23.6085L5.6875 18.8135V9.18849L13.9247 4.39087H13.9825ZM13.9554 5.38662L6.5625 9.69162V18.3104L13.9545 22.6145L14.8575 22.0921L21.4375 18.3077V9.69337L14.8575 5.88712L13.9554 5.38662ZM7.70788 14.6704L9.89625 13.0341L11.8309 14.2696V16.4921L13.2948 17.9026L13.2939 18.5641L11.8834 19.8854H10.6925L7.70875 14.6704H7.70788ZM14.623 18.5659L14.6204 17.9009L16.079 16.4921V14.2696L17.9926 13.0184L20.1766 14.6712L17.2078 19.8705H16.0318L14.623 18.5659ZM12.5493 14.2696L11.837 12.405H16.0702L15.372 14.2696L15.5785 16.3539L13.9449 16.3574L12.3305 16.36L12.5493 14.2696ZM13.9449 11.894L9.92162 11.8922L10.6698 8.54974H17.2008L17.9883 11.8966L13.9449 11.894Z" fill="white"/>
</svg>
