<svg height="53" viewBox="0 0 190 53" fill="none" xmlns="http://www.w3.org/2000/svg">
<path fill-rule="evenodd" clip-rule="evenodd" d="M29.8198 5.58823C33.0439 7.59425 36.2861 10.1933 38.8978 13.1588C44.4095 17.9732 48.7323 24.3401 47.8858 30.9513C47.1833 36.3413 42.3201 43.7549 30.6844 48.4123C28.8652 49.145 27.0459 49.7206 25.2988 50.1392L25.2973 50.1399C25.0276 50.2618 24.758 50.3837 24.4883 50.4881C20.3635 52.1278 16.3108 53 12.7805 53C9.66444 53 7.10673 52.3023 5.39559 50.994C1.64911 48.1332 -0.152067 40.8069 0.0100401 29.2069C0.172148 18.1127 1.64912 11.24 4.62109 7.92567C5.64777 4.47183 7.12472 2.2216 9.08802 1.05288C13.1407 -1.37179 21.6604 0.494689 29.8198 5.58823ZM11.6277 47.1041C11.8979 47.4006 12.1681 47.6448 12.4562 47.8716C14.9779 49.7904 19.553 50.1044 24.8485 48.8659C31.711 45.9353 35.9618 42.0454 38.2494 38.3299C35.5656 40.8069 31.9632 43.1444 27.2621 45.0283C23.1373 46.668 19.0846 47.5402 15.5543 47.5402C14.1133 47.5402 12.7985 47.3832 11.6277 47.1041ZM10.3308 45.2376C13.9693 46.9122 20.1654 46.4063 26.7398 43.7723C33.17 41.1907 37.4208 37.7717 39.9785 34.3876C40.1226 33.8469 40.2307 33.341 40.2847 32.8526C41.3294 24.7065 33.7464 16.8219 26.2895 12.1645C21.102 8.91997 15.8425 7.01859 11.8438 6.77438C9.16007 9.82702 7.77314 16.5254 7.61103 27.1486C7.48494 35.6262 8.40357 41.6791 10.3308 45.2376ZM41.7797 31.492C42.5002 30.0616 42.9144 28.6662 43.0765 27.3928C43.6709 22.7004 41.4014 18.0779 37.9612 14.1531C36.232 12.6355 34.3768 11.2748 32.5216 10.1236C27.1 6.73949 21.3722 4.71605 17.1754 4.71605C15.5543 4.71605 14.2394 5.01259 13.2668 5.58823L13.2308 5.60566C17.3015 6.14642 22.2367 8.03033 27.0459 11.0306C34.3948 15.6183 41.8697 23.2935 41.7797 31.492ZM10.0967 6.79184C8.88988 6.87906 7.8632 7.15814 7.05266 7.64656C6.63839 7.89078 6.24214 8.20476 5.8819 8.57108C4.8372 12.1994 4.27883 17.2406 4.18877 23.7471C4.04467 33.8644 5.37758 40.5453 8.15142 43.6328C6.7645 39.7777 6.11606 34.2655 6.22413 27.1311C6.36822 16.9963 7.61104 10.3852 10.0967 6.79184ZM11.2314 5.44868C11.6457 5.04747 12.06 4.71604 12.5283 4.43694C15.7885 2.46581 22.0026 3.32055 28.595 6.42552C23.3175 3.21589 17.8058 1.31455 13.7531 1.31455C12.132 1.31455 10.8172 1.61108 9.84455 2.20416C8.58371 2.95424 7.52101 4.31485 6.69246 6.30342C7.89926 5.6929 9.44826 5.41379 11.2314 5.44868ZM8.18742 45.5167C4.44094 42.6559 2.62175 35.3296 2.80187 23.7296C2.85591 19.2989 3.1441 15.5311 3.64843 12.3912C2.26151 16.0893 1.52304 21.6538 1.41497 29.2069C1.25286 40.3708 2.87389 47.3308 6.26013 49.9299C8.76379 51.8313 13.3208 52.1627 18.5983 50.9242C15.6624 50.8545 13.2488 50.1741 11.6097 48.9182C10.7451 48.2553 9.98864 47.3657 9.34021 46.2493C8.92594 46.0226 8.54766 45.7784 8.18742 45.5167ZM44.4455 27.5672C44.1573 29.8 43.1666 32.3816 41.2574 34.9633C40.2487 38.4695 37.5649 42.5338 32.6477 46.0749C41.9058 41.6442 45.8864 35.3994 46.4808 30.7943C46.9672 27.0788 45.6343 23.3982 43.3287 20.0664C44.3194 22.4737 44.7697 25.003 44.4455 27.5672ZM118.024 21.0439C118.403 21.2881 118.655 21.4625 118.799 21.6021L120.654 18.3576C119.717 17.7471 118.601 17.2063 117.322 16.7528C116.043 16.2992 114.638 16.0725 113.125 16.0725C112.044 16.0725 111.018 16.212 110.063 16.4911C109.108 16.7877 108.28 17.1889 107.559 17.7296C106.857 18.2704 106.299 18.9332 105.884 19.7531C105.47 20.5729 105.272 21.4975 105.272 22.5441C105.272 23.329 105.398 24.0093 105.65 24.585C105.902 25.1432 106.281 25.649 106.785 26.0851C107.289 26.5212 107.92 26.905 108.676 27.2189C109.433 27.5504 110.333 27.8295 111.36 28.1086C112.206 28.3354 112.981 28.5447 113.665 28.7366C114.35 28.9459 114.944 29.1552 115.431 29.382C115.917 29.6262 116.277 29.8878 116.547 30.2018C116.817 30.5158 116.944 30.8821 116.944 31.3356C116.944 32.7486 115.791 33.4463 113.485 33.4463C112.657 33.4463 111.846 33.3417 111.054 33.1498C110.261 32.9579 109.541 32.7137 108.892 32.4346C108.244 32.1555 107.685 31.8764 107.217 31.5973C106.731 31.3182 106.407 31.0915 106.226 30.917L104.371 34.3708C105.632 35.2256 107.037 35.871 108.622 36.342C110.189 36.813 111.792 37.0397 113.413 37.0397C114.476 37.0397 115.485 36.9351 116.439 36.7083C117.412 36.4815 118.258 36.1326 118.997 35.6442C119.735 35.1558 120.33 34.5278 120.762 33.7429C121.194 32.9579 121.411 32.016 121.411 30.917C121.411 29.9751 121.248 29.1901 120.924 28.5272C120.6 27.8644 120.132 27.3236 119.537 26.8526C118.943 26.3817 118.222 25.9979 117.358 25.6839C116.493 25.3699 115.539 25.0908 114.494 24.8117C114.248 24.7482 114.01 24.6878 113.781 24.6297L113.779 24.6291L113.778 24.629C113.254 24.496 112.776 24.3748 112.351 24.2535C111.738 24.0791 111.234 23.8872 110.82 23.6779C110.423 23.4686 110.117 23.2244 109.901 22.9453C109.685 22.6662 109.577 22.2999 109.577 21.8812C109.577 21.1486 109.865 20.5729 110.423 20.1717C110.982 19.7705 111.846 19.5612 112.999 19.5612C113.647 19.5612 114.278 19.631 114.908 19.788C115.539 19.945 116.115 20.1368 116.655 20.3636C117.196 20.5904 117.646 20.8171 118.024 21.0439ZM101.273 33.2892V36.8128H86.305V16.2119H101.003V19.718H90.5018V24.672H99.5799V27.934H90.5018V33.2892H101.273ZM79.0103 26.4866C79.0103 25.5098 78.8662 24.5853 78.578 23.7654C78.2898 22.9281 77.8756 22.2129 77.3352 21.6199C76.7948 21.0268 76.1104 20.5558 75.3179 20.2244C74.5253 19.8929 73.6067 19.736 72.598 19.736H68.9596V33.3071H72.598C73.6247 33.3071 74.5433 33.1327 75.3539 32.7838C76.1464 32.4349 76.8128 31.9639 77.3532 31.3534C77.8935 30.7429 78.2898 30.0277 78.578 29.1904C78.8662 28.3531 79.0103 27.446 79.0103 26.4866ZM64.7809 36.8133V16.2123H72.6161C74.3812 16.2123 75.9122 16.474 77.2451 17.0322C78.578 17.5729 79.6767 18.3056 80.5773 19.2301C81.4599 20.1546 82.1264 21.2536 82.5767 22.492C83.027 23.7305 83.2431 25.0737 83.2431 26.4866C83.2431 28.0566 82.9909 29.4695 82.5046 30.7429C82.0003 32.0163 81.2978 33.0978 80.3612 33.9874C79.4246 34.877 78.3079 35.5748 77.011 36.0806C75.6961 36.569 74.2372 36.8133 72.6161 36.8133H64.7809ZM142.629 36.8128V23.1719L137.081 33.3241H134.793L129.246 23.1719V36.8128H125.049V16.2119H129.552L135.928 27.934L142.358 16.2119H146.825V36.8128H142.629ZM154.841 29.0854C154.553 28.2481 154.408 27.3934 154.408 26.5038C154.408 25.649 154.535 24.8117 154.823 23.9919C155.093 23.172 155.489 22.4394 156.012 21.794C156.552 21.1486 157.2 20.6253 157.993 20.2241C158.785 19.8229 159.686 19.631 160.695 19.631C161.667 19.631 162.55 19.8054 163.324 20.1892C164.117 20.5555 164.765 21.0614 165.306 21.7068C165.846 22.3348 166.26 23.0674 166.549 23.9047C166.837 24.742 166.981 25.5967 166.981 26.4863C166.981 27.3411 166.837 28.1784 166.567 28.9982C166.296 29.8181 165.9 30.5507 165.36 31.2136C164.819 31.8764 164.153 32.3997 163.378 32.8009C162.604 33.2021 161.703 33.394 160.695 33.394C159.704 33.394 158.821 33.2021 158.047 32.8184C157.254 32.4346 156.606 31.9287 156.066 31.2833C155.525 30.6553 155.129 29.9227 154.841 29.0854ZM156.372 36.0629C157.651 36.656 159.074 36.9525 160.659 36.9525C162.172 36.9525 163.577 36.656 164.891 36.1152C166.17 35.5396 167.287 34.772 168.224 33.8126C169.142 32.8532 169.881 31.7543 170.403 30.4984C170.925 29.2599 171.196 27.9516 171.196 26.5735C171.196 25.2653 170.944 23.9919 170.439 22.7359C169.935 21.48 169.232 20.3636 168.314 19.3693C167.395 18.3925 166.296 17.5901 165.018 16.9795C163.721 16.369 162.298 16.0725 160.749 16.0725C159.236 16.0725 157.831 16.3516 156.534 16.9272C155.237 17.5029 154.12 18.2704 153.184 19.2298C152.247 20.1892 151.509 21.3056 150.968 22.5615C150.428 23.8174 150.158 25.1257 150.158 26.5038C150.158 27.812 150.41 29.1029 150.914 30.3588C151.419 31.6147 152.139 32.7311 153.058 33.708C153.976 34.6848 155.093 35.4698 156.372 36.0629ZM187.388 21.6021C187.244 21.4625 186.992 21.2881 186.614 21.0439C186.236 20.8171 185.785 20.5904 185.245 20.3636C184.705 20.1368 184.128 19.945 183.498 19.788C182.867 19.631 182.237 19.5612 181.588 19.5612C180.436 19.5612 179.571 19.7705 179.013 20.1717C178.454 20.5729 178.166 21.1486 178.166 21.8812C178.166 22.2999 178.274 22.6662 178.49 22.9453C178.707 23.2244 179.013 23.4686 179.409 23.6779C179.823 23.8872 180.328 24.0791 180.94 24.2535C181.366 24.3748 181.843 24.496 182.367 24.6289L182.368 24.629C182.597 24.6873 182.836 24.7479 183.083 24.8117C184.128 25.0908 185.083 25.3699 185.947 25.6839C186.812 25.9979 187.532 26.3817 188.127 26.8526C188.721 27.3236 189.189 27.8644 189.514 28.5272C189.838 29.1901 190 29.9751 190 30.917C190 32.016 189.784 32.9579 189.352 33.7429C188.919 34.5278 188.325 35.1558 187.586 35.6442C186.848 36.1326 186.001 36.4815 185.029 36.7083C184.074 36.9351 183.065 37.0397 182.003 37.0397C180.382 37.0397 178.779 36.813 177.212 36.342C175.626 35.871 174.222 35.2256 172.961 34.3708L174.816 30.917C174.996 31.0915 175.32 31.3182 175.807 31.5973C176.275 31.8764 176.833 32.1555 177.482 32.4346C178.13 32.7137 178.851 32.9579 179.643 33.1498C180.436 33.3417 181.246 33.4463 182.075 33.4463C184.38 33.4463 185.533 32.7486 185.533 31.3356C185.533 30.8821 185.407 30.5158 185.137 30.2018C184.867 29.8878 184.506 29.6262 184.02 29.382C183.534 29.1552 182.939 28.9459 182.255 28.7366C181.57 28.5447 180.796 28.3354 179.949 28.1086C178.923 27.8295 178.022 27.5504 177.266 27.2189C176.509 26.905 175.879 26.5212 175.374 26.0851C174.87 25.649 174.492 25.1432 174.24 24.585C173.987 24.0093 173.861 23.329 173.861 22.5441C173.861 21.4975 174.059 20.5729 174.474 19.7531C174.888 18.9332 175.446 18.2704 176.149 17.7296C176.869 17.1889 177.698 16.7877 178.652 16.4911C179.607 16.212 180.634 16.0725 181.714 16.0725C183.227 16.0725 184.632 16.2992 185.911 16.7528C187.19 17.2063 188.307 17.7471 189.244 18.3576L187.388 21.6021Z" fill="#ED6C53"/>
</svg>
