<svg viewBox="0 0 36 37" fill="none" xmlns="http://www.w3.org/2000/svg">
<path fill-rule="evenodd" clip-rule="evenodd" d="M18 36.0017C27.9411 36.0017 36 27.9425 36 18.0009C36 8.05926 27.9411 0 18 0C8.05887 0 0 8.05926 0 18.0009C0 27.9425 8.05887 36.0017 18 36.0017ZM21.5926 7.97021C23.2172 8.26105 24.7971 8.77436 26.2905 9.49659C28.8684 13.4743 30.1482 17.9617 29.6757 23.1351C27.9398 24.4913 25.9886 25.5247 23.9097 26.189C23.4424 25.5256 23.0295 24.8229 22.6754 24.0884C23.354 23.8224 24.0065 23.4929 24.6224 23.1092C24.4619 22.9845 24.3025 22.8538 24.1465 22.7197C20.4437 24.5308 16.3731 24.5308 12.6259 22.7197C12.4722 22.8538 12.3127 22.9845 12.1499 23.1092C12.7685 23.4941 13.4189 23.8214 14.0936 24.0872C13.7389 24.8214 13.326 25.524 12.8593 26.1879C10.782 25.5232 8.83214 24.4906 7.09669 23.1363C6.69362 18.6725 7.49977 14.144 10.4727 9.50012C11.9669 8.77604 13.5481 8.26153 15.1741 7.97021C15.399 8.38919 15.6023 8.82012 15.7833 9.26122C17.509 8.98937 19.2645 8.98937 20.9902 9.26122C21.1542 8.85756 21.3899 8.34798 21.5926 7.97021ZM12.5564 17.984C12.5564 19.3056 13.4787 20.3907 14.6037 20.3907C15.748 20.3907 16.6521 19.3056 16.6509 17.984C16.6703 16.6601 15.748 15.575 14.6037 15.575C13.4593 15.575 12.5564 16.6624 12.5564 17.984ZM20.1215 17.984C20.1215 19.3056 21.0437 20.3907 22.1687 20.3907C23.313 20.3907 24.216 19.3056 24.216 17.984C24.2353 16.6601 23.313 15.575 22.1687 15.575C21.0244 15.575 20.1215 16.6624 20.1215 17.984Z" fill="#ED6C53"/>
</svg>
