<svg viewBox="0 0 573 162" fill="none" xmlns="http://www.w3.org/2000/svg">
<g filter="url(#filter0_d_1626:26434)">
<mask id="mask0_1626:26434" style="mask-type:alpha" maskUnits="userSpaceOnUse" x="10" y="6" width="484" height="139">
<path d="M33.61 59.455C29.32 59.455 25.3767 58.4583 21.78 56.465C18.1833 54.4283 15.3233 51.6333 13.2 48.08C11.12 44.4833 10.08 40.4317 10.08 35.925C10.08 31.4183 11.12 27.3883 13.2 23.835C15.3233 20.2383 18.1833 17.4433 21.78 15.45C25.3767 13.4567 29.32 12.46 33.61 12.46C37.9433 12.46 41.8867 13.4567 45.44 15.45C49.0367 17.4433 51.875 20.2383 53.955 23.835C56.035 27.3883 57.075 31.4183 57.075 35.925C57.075 40.4317 56.035 44.4833 53.955 48.08C51.875 51.6333 49.0367 54.4283 45.44 56.465C41.8433 58.4583 37.9 59.455 33.61 59.455ZM33.61 47.625C36.86 47.625 39.4167 46.5633 41.28 44.44C43.1867 42.3167 44.14 39.4783 44.14 35.925C44.14 32.285 43.1867 29.425 41.28 27.345C39.4167 25.2217 36.86 24.16 33.61 24.16C30.3167 24.16 27.7383 25.2217 25.875 27.345C24.0117 29.425 23.08 32.285 23.08 35.925C23.08 39.5217 24.0117 42.3817 25.875 44.505C27.7383 46.585 30.3167 47.625 33.61 47.625ZM86.6571 22.21C90.8604 22.21 94.1971 23.6183 96.6671 26.435C99.1371 29.2083 100.372 32.9783 100.372 37.745V59H87.6321V39.435C87.6321 37.355 87.0904 35.73 86.0071 34.56C84.9238 33.3467 83.4721 32.74 81.6521 32.74C79.7454 32.74 78.2504 33.3467 77.1671 34.56C76.0838 35.73 75.5421 37.355 75.5421 39.435V59H62.8021V22.535H75.5421V27.735C76.6688 26.0883 78.1854 24.7667 80.0921 23.77C81.9988 22.73 84.1871 22.21 86.6571 22.21ZM142.203 40.345C142.203 41.3417 142.138 42.3383 142.008 43.335H117.893C118.023 45.3283 118.564 46.8233 119.518 47.82C120.514 48.7733 121.771 49.25 123.288 49.25C125.411 49.25 126.928 48.2967 127.838 46.39H141.423C140.859 48.9033 139.754 51.1567 138.108 53.15C136.504 55.1 134.468 56.6383 131.998 57.765C129.528 58.8917 126.798 59.455 123.808 59.455C120.211 59.455 117.004 58.6967 114.188 57.18C111.414 55.6633 109.226 53.4967 107.623 50.68C106.063 47.8633 105.283 44.5483 105.283 40.735C105.283 36.9217 106.063 33.6283 107.623 30.855C109.183 28.0383 111.349 25.8717 114.123 24.355C116.939 22.8383 120.168 22.08 123.808 22.08C127.404 22.08 130.589 22.8167 133.363 24.29C136.136 25.7633 138.303 27.8867 139.863 30.66C141.423 33.39 142.203 36.6183 142.203 40.345ZM129.203 37.16C129.203 35.6 128.683 34.3867 127.643 33.52C126.603 32.61 125.303 32.155 123.743 32.155C122.183 32.155 120.904 32.5883 119.908 33.455C118.911 34.2783 118.261 35.5133 117.958 37.16H129.203ZM196.063 28.45C196.063 31.2233 195.413 33.7583 194.113 36.055C192.856 38.3083 190.928 40.1283 188.328 41.515C185.771 42.8583 182.629 43.53 178.903 43.53H172.598V59H159.858V13.175H178.903C182.586 13.175 185.706 13.825 188.263 15.125C190.863 16.425 192.813 18.2233 194.113 20.52C195.413 22.8167 196.063 25.46 196.063 28.45ZM177.668 33.39C181.264 33.39 183.063 31.7433 183.063 28.45C183.063 25.1133 181.264 23.445 177.668 23.445H172.598V33.39H177.668ZM213.921 28.97C215.351 26.89 217.084 25.2433 219.121 24.03C221.158 22.8167 223.346 22.21 225.686 22.21V35.795H222.111C219.338 35.795 217.279 36.3367 215.936 37.42C214.593 38.5033 213.921 40.3883 213.921 43.075V59H201.181V22.535H213.921V28.97ZM247.218 59.455C243.578 59.455 240.307 58.6967 237.403 57.18C234.543 55.6633 232.29 53.4967 230.643 50.68C228.997 47.8633 228.173 44.5483 228.173 40.735C228.173 36.965 228.997 33.6717 230.643 30.855C232.333 28.0383 234.608 25.8717 237.468 24.355C240.372 22.8383 243.643 22.08 247.283 22.08C250.923 22.08 254.173 22.8383 257.033 24.355C259.937 25.8717 262.212 28.0383 263.858 30.855C265.548 33.6717 266.393 36.965 266.393 40.735C266.393 44.505 265.548 47.82 263.858 50.68C262.212 53.4967 259.937 55.6633 257.033 57.18C254.13 58.6967 250.858 59.455 247.218 59.455ZM247.218 48.405C248.995 48.405 250.468 47.755 251.638 46.455C252.852 45.1117 253.458 43.205 253.458 40.735C253.458 38.265 252.852 36.38 251.638 35.08C250.468 33.78 249.017 33.13 247.283 33.13C245.55 33.13 244.098 33.78 242.928 35.08C241.758 36.38 241.173 38.265 241.173 40.735C241.173 43.2483 241.737 45.155 242.863 46.455C243.99 47.755 245.442 48.405 247.218 48.405ZM291.272 33.13H285.552V59H272.747V33.13H268.782V22.535H272.747V22.21C272.747 17.53 274.112 13.955 276.842 11.485C279.615 8.97167 283.58 7.715 288.737 7.715C289.777 7.715 290.578 7.73666 291.142 7.78V18.635C290.795 18.5917 290.318 18.57 289.712 18.57C288.325 18.57 287.307 18.895 286.657 19.545C286.007 20.1517 285.638 21.1483 285.552 22.535H291.272V33.13ZM302.26 19.155C300.006 19.155 298.186 18.5483 296.8 17.335C295.456 16.0783 294.785 14.5183 294.785 12.655C294.785 10.7483 295.456 9.16667 296.8 7.91C298.186 6.65333 300.006 6.025 302.26 6.025C304.47 6.025 306.246 6.65333 307.59 7.91C308.976 9.16667 309.67 10.7483 309.67 12.655C309.67 14.5183 308.976 16.0783 307.59 17.335C306.246 18.5483 304.47 19.155 302.26 19.155ZM308.565 22.535V59H295.825V22.535H308.565ZM328.56 10.9V59H315.82V10.9H328.56ZM370.655 40.345C370.655 41.3417 370.59 42.3383 370.46 43.335H346.345C346.475 45.3283 347.016 46.8233 347.97 47.82C348.966 48.7733 350.223 49.25 351.74 49.25C353.863 49.25 355.38 48.2967 356.29 46.39H369.875C369.311 48.9033 368.206 51.1567 366.56 53.15C364.956 55.1 362.92 56.6383 360.45 57.765C357.98 58.8917 355.25 59.455 352.26 59.455C348.663 59.455 345.456 58.6967 342.64 57.18C339.866 55.6633 337.678 53.4967 336.075 50.68C334.515 47.8633 333.735 44.5483 333.735 40.735C333.735 36.9217 334.515 33.6283 336.075 30.855C337.635 28.0383 339.801 25.8717 342.575 24.355C345.391 22.8383 348.62 22.08 352.26 22.08C355.856 22.08 359.041 22.8167 361.815 24.29C364.588 25.7633 366.755 27.8867 368.315 30.66C369.875 33.39 370.655 36.6183 370.655 40.345ZM357.655 37.16C357.655 35.6 357.135 34.3867 356.095 33.52C355.055 32.61 353.755 32.155 352.195 32.155C350.635 32.155 349.356 32.5883 348.36 33.455C347.363 34.2783 346.713 35.5133 346.41 37.16H357.655ZM42.71 81.175V91.315H24.38V99.375H37.9V109.06H24.38V127H11.64V81.175H42.71ZM65.0405 127.455C61.4005 127.455 58.1289 126.697 55.2255 125.18C52.3655 123.663 50.1122 121.497 48.4655 118.68C46.8189 115.863 45.9955 112.548 45.9955 108.735C45.9955 104.965 46.8189 101.672 48.4655 98.855C50.1555 96.0383 52.4305 93.8717 55.2905 92.355C58.1939 90.8383 61.4655 90.08 65.1055 90.08C68.7455 90.08 71.9955 90.8383 74.8555 92.355C77.7589 93.8717 80.0339 96.0383 81.6805 98.855C83.3705 101.672 84.2156 104.965 84.2156 108.735C84.2156 112.505 83.3705 115.82 81.6805 118.68C80.0339 121.497 77.7589 123.663 74.8555 125.18C71.9522 126.697 68.6805 127.455 65.0405 127.455ZM65.0405 116.405C66.8172 116.405 68.2905 115.755 69.4605 114.455C70.6739 113.112 71.2805 111.205 71.2805 108.735C71.2805 106.265 70.6739 104.38 69.4605 103.08C68.2905 101.78 66.8389 101.13 65.1055 101.13C63.3722 101.13 61.9205 101.78 60.7505 103.08C59.5805 104.38 58.9955 106.265 58.9955 108.735C58.9955 111.248 59.5589 113.155 60.6855 114.455C61.8122 115.755 63.2639 116.405 65.0405 116.405ZM102.139 96.97C103.569 94.89 105.302 93.2433 107.339 92.03C109.375 90.8167 111.564 90.21 113.904 90.21V103.795H110.329C107.555 103.795 105.497 104.337 104.154 105.42C102.81 106.503 102.139 108.388 102.139 111.075V127H89.3988V90.535H102.139V96.97ZM143.652 91.38V98.855H158.277V108.54H143.652V116.795H160.227V127H130.912V81.175H160.227V91.38H143.652ZM184.008 114.975L190.833 90.535H204.418L191.873 127H176.013L163.468 90.535H177.053L184.008 114.975ZM243.575 108.345C243.575 109.342 243.51 110.338 243.38 111.335H219.265C219.395 113.328 219.936 114.823 220.89 115.82C221.886 116.773 223.143 117.25 224.66 117.25C226.783 117.25 228.3 116.297 229.21 114.39H242.795C242.231 116.903 241.126 119.157 239.48 121.15C237.876 123.1 235.84 124.638 233.37 125.765C230.9 126.892 228.17 127.455 225.18 127.455C221.583 127.455 218.376 126.697 215.56 125.18C212.786 123.663 210.598 121.497 208.995 118.68C207.435 115.863 206.655 112.548 206.655 108.735C206.655 104.922 207.435 101.628 208.995 98.855C210.555 96.0383 212.721 93.8717 215.495 92.355C218.311 90.8383 221.54 90.08 225.18 90.08C228.776 90.08 231.961 90.8167 234.735 92.29C237.508 93.7633 239.675 95.8867 241.235 98.66C242.795 101.39 243.575 104.618 243.575 108.345ZM230.575 105.16C230.575 103.6 230.055 102.387 229.015 101.52C227.975 100.61 226.675 100.155 225.115 100.155C223.555 100.155 222.276 100.588 221.28 101.455C220.283 102.278 219.633 103.513 219.33 105.16H230.575ZM261.528 96.97C262.958 94.89 264.692 93.2433 266.728 92.03C268.765 90.8167 270.953 90.21 273.293 90.21V103.795H269.718C266.945 103.795 264.887 104.337 263.543 105.42C262.2 106.503 261.528 108.388 261.528 111.075V127H248.788V90.535H261.528V96.97ZM317.121 90.535L293.981 144.355H280.136L288.846 125.44L273.896 90.535H288.066L295.736 111.205L303.146 90.535H317.121ZM341.968 116.145V127H336.443C327.127 127 322.468 122.385 322.468 113.155V101.13H317.983V90.535H322.468V81.695H335.273V90.535H341.903V101.13H335.273V113.35C335.273 114.347 335.49 115.062 335.923 115.495C336.4 115.928 337.18 116.145 338.263 116.145H341.968ZM371.797 90.21C375.957 90.21 379.25 91.6183 381.677 94.435C384.147 97.2083 385.382 100.978 385.382 105.745V127H372.642V107.435C372.642 105.355 372.1 103.73 371.017 102.56C369.934 101.347 368.482 100.74 366.662 100.74C364.755 100.74 363.26 101.347 362.177 102.56C361.094 103.73 360.552 105.355 360.552 107.435V127H347.812V78.9H360.552V95.735C361.679 94.0883 363.195 92.7667 365.102 91.77C367.052 90.73 369.284 90.21 371.797 90.21ZM398.807 87.155C396.554 87.155 394.734 86.5483 393.347 85.335C392.004 84.0783 391.332 82.5183 391.332 80.655C391.332 78.7483 392.004 77.1667 393.347 75.91C394.734 74.6533 396.554 74.025 398.807 74.025C401.017 74.025 402.794 74.6533 404.137 75.91C405.524 77.1667 406.217 78.7483 406.217 80.655C406.217 82.5183 405.524 84.0783 404.137 85.335C402.794 86.5483 401.017 87.155 398.807 87.155ZM405.112 90.535V127H392.372V90.535H405.112ZM436.223 90.21C440.426 90.21 443.763 91.6183 446.233 94.435C448.703 97.2083 449.938 100.978 449.938 105.745V127H437.198V107.435C437.198 105.355 436.656 103.73 435.573 102.56C434.489 101.347 433.038 100.74 431.218 100.74C429.311 100.74 427.816 101.347 426.733 102.56C425.649 103.73 425.108 105.355 425.108 107.435V127H412.368V90.535H425.108V95.735C426.234 94.0883 427.751 92.7667 429.658 91.77C431.564 90.73 433.753 90.21 436.223 90.21ZM470.383 90.08C472.853 90.08 474.998 90.5783 476.818 91.575C478.681 92.5717 480.111 93.915 481.108 95.605V90.535H493.848V126.61C493.848 130.033 493.198 133.11 491.898 135.84C490.598 138.613 488.561 140.823 485.788 142.47C483.058 144.117 479.591 144.94 475.388 144.94C469.755 144.94 465.248 143.618 461.868 140.975C458.488 138.332 456.56 134.735 456.083 130.185H468.628C468.888 131.355 469.538 132.265 470.578 132.915C471.618 133.565 472.961 133.89 474.608 133.89C478.941 133.89 481.108 131.463 481.108 126.61V121.93C480.111 123.62 478.681 124.963 476.818 125.96C474.998 126.957 472.853 127.455 470.383 127.455C467.48 127.455 464.836 126.697 462.453 125.18C460.113 123.663 458.25 121.497 456.863 118.68C455.52 115.82 454.848 112.505 454.848 108.735C454.848 104.965 455.52 101.672 456.863 98.855C458.25 96.0383 460.113 93.8717 462.453 92.355C464.836 90.8383 467.48 90.08 470.383 90.08ZM481.108 108.735C481.108 106.395 480.458 104.553 479.158 103.21C477.901 101.867 476.341 101.195 474.478 101.195C472.571 101.195 470.99 101.867 469.733 103.21C468.476 104.51 467.848 106.352 467.848 108.735C467.848 111.075 468.476 112.938 469.733 114.325C470.99 115.668 472.571 116.34 474.478 116.34C476.341 116.34 477.901 115.668 479.158 114.325C480.458 112.982 481.108 111.118 481.108 108.735Z" fill="white"/>
</mask>
<g mask="url(#mask0_1626:26434)">
<g filter="url(#filter1_f_1626:26434)">
<path d="M-9 -8.48145H584V147.24H-9V-8.48145Z" fill="url(#paint0_angular_1626:26434)"/>
</g>
</g>
</g>
<defs>
<filter id="filter0_d_1626:26434" x="0.0800781" y="0.0253906" width="503.768" height="158.915" filterUnits="userSpaceOnUse" color-interpolation-filters="sRGB">
<feFlood flood-opacity="0" result="BackgroundImageFix"/>
<feColorMatrix in="SourceAlpha" type="matrix" values="0 0 0 0 0 0 0 0 0 0 0 0 0 0 0 0 0 0 127 0" result="hardAlpha"/>
<feOffset dy="4"/>
<feGaussianBlur stdDeviation="5"/>
<feColorMatrix type="matrix" values="0 0 0 0 0 0 0 0 0 0 0 0 0 0 0 0 0 0 0.07 0"/>
<feBlend mode="normal" in2="BackgroundImageFix" result="effect1_dropShadow_1626:26434"/>
<feBlend mode="normal" in="SourceGraphic" in2="effect1_dropShadow_1626:26434" result="shape"/>
</filter>
<filter id="filter1_f_1626:26434" x="-39" y="-38.4814" width="653" height="215.722" filterUnits="userSpaceOnUse" color-interpolation-filters="sRGB">
<feFlood flood-opacity="0" result="BackgroundImageFix"/>
<feBlend mode="normal" in="SourceGraphic" in2="BackgroundImageFix" result="shape"/>
<feGaussianBlur stdDeviation="15" result="effect1_foregroundBlur_1626:26434"/>
</filter>
<radialGradient id="paint0_angular_1626:26434" cx="0" cy="0" r="1" gradientUnits="userSpaceOnUse" gradientTransform="translate(275 53.9785) rotate(-90.6501) scale(88.134 335.609)">
<stop offset="0.113234" stop-color="#FF9E75"/>
<stop offset="0.348958" stop-color="#FF4E02"/>
<stop offset="0.505208" stop-color="#FFB800"/>
<stop offset="0.875" stop-color="#FF3E9A"/>
</radialGradient>
</defs>
</svg>
