<svg width="186" height="56" viewBox="0 0 186 56" fill="none" xmlns="http://www.w3.org/2000/svg">
<rect width="186" height="56" rx="6.38456" fill="#ED6C53"/>
<path fill-rule="evenodd" clip-rule="evenodd" d="M39.2775 40.5308C37.0224 41.4598 34.8001 41.9569 32.8568 41.9569C31.1427 41.9569 29.7147 41.5596 28.7486 40.794C27.6918 39.9577 26.9274 38.4846 26.436 36.4214C25.9438 34.355 25.7209 31.6762 25.7653 28.4028C25.8094 25.2733 26.0323 22.7328 26.4487 20.7373C26.8609 18.7614 27.4652 17.3066 28.286 16.3451C28.848 14.4016 29.6624 13.1023 30.7697 12.4191C31.9221 11.7043 33.6802 11.6354 35.6806 12.0893C37.6882 12.5446 39.971 13.5329 42.2 14.9753C43.96 16.1103 45.7312 17.5812 47.1603 19.2615C50.1642 21.9833 52.5541 25.6116 52.0855 29.4055C51.6956 32.5063 49.0073 36.7216 42.6455 39.361C41.6552 39.7745 40.6641 40.0999 39.7115 40.3374L39.707 40.3396L39.679 40.3524C39.6162 40.3819 39.5524 40.4115 39.4881 40.4402C39.4183 40.4717 39.3481 40.5023 39.2775 40.5308ZM45.9164 34.4382C44.5649 35.5515 42.8718 36.5882 40.7858 37.4547C38.5307 38.3839 36.3076 38.8814 34.3643 38.8814C33.7702 38.8814 33.2138 38.8311 32.6995 38.7387L32.7761 38.803C33.4303 39.3183 34.3617 39.6264 35.495 39.7169C36.0724 39.7631 36.6994 39.7526 37.3644 39.6853C38 39.6211 38.6707 39.5049 39.3657 39.3371C42.4868 37.9536 44.5978 36.1925 45.9164 34.4382ZM47.5905 30.8545C47.6181 30.7129 47.6398 30.5754 47.654 30.4404C47.9318 28.1965 47.0643 25.9762 45.6109 23.9817C44.1586 21.9881 42.1302 20.2338 40.1155 18.9295C37.3428 17.1319 34.5439 16.0783 32.4154 15.9226C31.7338 16.7579 31.2036 18.0832 30.8324 19.9366C30.453 21.8306 30.2427 24.2601 30.199 27.2476C30.1311 31.9839 30.6236 35.3464 31.6371 37.3222C32.5879 37.7615 33.8762 37.919 35.3722 37.7839C36.8898 37.6466 38.6098 37.209 40.3844 36.472C43.8427 35.033 46.1248 33.1327 47.4982 31.259C47.5337 31.1197 47.5647 30.9853 47.5905 30.8545ZM33.5835 15.0353C35.7281 15.4186 38.2435 16.4574 40.6928 18.0411C42.7011 19.3406 44.7292 21.0789 46.2502 23.0767C47.6248 24.8815 48.592 26.9067 48.747 29.017C48.9703 28.4409 49.1073 27.8838 49.1712 27.365C49.4867 24.7825 48.2843 22.2215 46.4317 20.028C45.5004 19.1816 44.5014 18.4224 43.5025 17.7801C40.5681 15.8815 37.4843 14.7583 35.2452 14.7583C34.9409 14.7583 34.6586 14.7787 34.399 14.8185C34.0962 14.8649 33.8243 14.9376 33.5835 15.0353ZM29.8238 16.3865C29.6206 16.5108 29.4246 16.6696 29.2438 16.8558C28.6874 18.879 28.3875 21.6924 28.339 25.3313C28.2998 28.1751 28.4615 30.53 28.8185 32.3874C29.0821 33.7587 29.4511 34.8506 29.919 35.6665C29.3502 33.5476 29.0911 30.7302 29.1422 27.2334C29.1814 24.3744 29.3704 22.0073 29.7199 20.0985C30.0403 18.3473 30.4978 16.9738 31.1057 15.9588C30.8477 15.9938 30.6094 16.0481 30.3921 16.1215C30.1837 16.192 29.994 16.2803 29.8238 16.3865ZM39.1259 14.445C37.019 13.4181 34.9827 12.8422 33.3855 12.8422C32.5218 12.8422 31.8392 13.0062 31.3417 13.3205C30.7652 13.6759 30.2577 14.2963 29.8402 15.2061C30.4436 14.9696 31.1599 14.8615 31.9531 14.8713C32.1696 14.6591 32.39 14.4793 32.639 14.3254C33.5678 13.7435 34.8972 13.5892 36.4268 13.7915C37.2692 13.903 38.1785 14.1233 39.1259 14.445ZM30.7357 38.0304L30.6841 37.9981L30.5863 37.935C30.4769 37.8629 30.3716 37.7882 30.2689 37.7109L30.2659 37.7086C29.2095 36.8725 28.4424 35.3994 27.9495 33.3361C27.4562 31.2697 27.2333 28.5909 27.2826 25.3175C27.3012 23.7073 27.3733 22.2509 27.4954 20.9435C27.0951 22.8586 26.874 25.3364 26.8314 28.4069C26.7878 31.5454 26.9857 34.085 27.4215 36.0184C27.858 37.956 28.5283 39.2616 29.4081 39.9619C30.0575 40.4728 30.9844 40.7811 32.1133 40.8727C32.9658 40.9421 33.9281 40.8875 34.9618 40.7071C33.8112 40.5545 32.8418 40.1936 32.1256 39.6245C31.6468 39.2441 31.2305 38.7389 30.875 38.1134C30.8279 38.0861 30.7812 38.0583 30.7357 38.0304ZM50.0133 24.4815C50.2583 25.4647 50.3408 26.4762 50.2161 27.499C50.0566 28.7771 49.5125 30.2467 48.4721 31.7119C48.0005 33.3893 46.8884 35.2767 44.966 37.0218C48.98 34.6248 50.7366 31.5671 51.0215 29.2809C51.2277 27.6467 50.8184 26.0178 50.0133 24.4815ZM99.0557 17.9699C99.3247 18.1494 99.504 18.2776 99.6065 18.3802L100.926 15.9954C100.26 15.5466 99.4656 15.1491 98.5561 14.8158C97.6466 14.4824 96.6475 14.3157 95.5714 14.3157C94.8029 14.3157 94.0727 14.4183 93.3938 14.6235C92.7149 14.8414 92.1257 15.1363 91.6133 15.5338C91.1137 15.9312 90.7166 16.4185 90.422 17.0211C90.1274 17.6237 89.9864 18.3033 89.9864 19.0726C89.9864 19.6495 90.0761 20.1496 90.2554 20.5727C90.4348 20.983 90.7038 21.3548 91.0625 21.6754C91.4211 21.9959 91.8695 22.278 92.4075 22.5088C92.9455 22.7524 93.5859 22.9575 94.3161 23.1627C94.9181 23.3294 95.469 23.4832 95.9557 23.6243C96.4425 23.7781 96.8652 23.932 97.2111 24.0987C97.5569 24.2782 97.8131 24.4705 98.0053 24.7013C98.1974 24.9321 98.2871 25.2013 98.2871 25.5347C98.2871 26.5732 97.4673 27.0861 95.8277 27.0861C95.2384 27.0861 94.662 27.0092 94.0983 26.8681C93.5347 26.7271 93.0223 26.5476 92.5612 26.3424C92.1 26.1373 91.7029 25.9322 91.3699 25.727C91.024 25.5219 90.7934 25.3552 90.6653 25.227L89.3459 27.7656C90.2426 28.3939 91.2418 28.8683 92.369 29.2145C93.4835 29.5607 94.6235 29.7274 95.7764 29.7274C96.5322 29.7274 97.2495 29.6504 97.9284 29.4837C98.6201 29.3171 99.2222 29.0606 99.7474 28.7016C100.273 28.3426 100.695 27.881 101.003 27.3041C101.31 26.7271 101.464 26.0347 101.464 25.227C101.464 24.5346 101.349 23.9576 101.118 23.4704C100.887 22.9832 100.554 22.5857 100.132 22.2395C99.709 21.8933 99.1966 21.6113 98.5817 21.3805C97.9669 21.1497 97.288 20.9445 96.545 20.7394C96.3694 20.6925 96.1997 20.648 96.0363 20.6052L96.0359 20.6051C95.6632 20.5073 95.3234 20.4182 95.0206 20.3291C94.5851 20.2009 94.2264 20.0598 93.9318 19.906C93.65 19.7521 93.4322 19.5726 93.2785 19.3675C93.1248 19.1623 93.0479 18.8931 93.0479 18.5853C93.0479 18.0468 93.2529 17.6237 93.65 17.3288C94.0471 17.0339 94.662 16.8801 95.4818 16.8801C95.9429 16.8801 96.3913 16.9313 96.8396 17.0467C97.2879 17.1621 97.6978 17.3032 98.0821 17.4699C98.4664 17.6365 98.7867 17.8032 99.0557 17.9699ZM71.3095 21.9697C71.3095 21.2517 71.2071 20.5722 71.0021 19.9695C70.7972 19.3541 70.5025 18.8284 70.1183 18.3925C69.734 17.9565 69.2472 17.6104 68.6836 17.3667C68.1199 17.1231 67.4666 17.0077 66.7493 17.0077H64.1618V26.983H66.7493C67.4795 26.983 68.1327 26.8548 68.7092 26.5983C69.2728 26.3419 69.7467 25.9957 70.131 25.547C70.5153 25.0982 70.7972 24.5725 71.0021 23.9571C71.2071 23.3416 71.3095 22.6749 71.3095 21.9697ZM61.1899 29.5601V14.4178H66.7621C68.0175 14.4178 69.1063 14.6101 70.0542 15.0204C71.0021 15.4179 71.7835 15.9564 72.424 16.6359C73.0517 17.3154 73.5256 18.1232 73.8459 19.0336C74.1661 19.9439 74.3198 20.9312 74.3198 21.9697C74.3198 23.1237 74.1405 24.1622 73.7946 25.0982C73.4359 26.0342 72.9364 26.8291 72.2703 27.483C71.6042 28.1369 70.81 28.6498 69.8877 29.0216C68.9526 29.3806 67.915 29.5601 66.7621 29.5601H61.1899ZM87.1432 26.9706V29.5605H76.4984V14.4182H86.9511V16.9953H79.4831V20.6367H85.9391V23.0343H79.4831V26.9706H87.1432ZM116.553 29.5605V19.534L112.607 26.9962H110.98L107.035 19.534V29.5605H104.05V14.4182H107.253L111.787 23.0343L116.361 14.4182H119.537V29.5605H116.553ZM125.237 23.8807C125.032 23.2653 124.93 22.637 124.93 21.9831C124.93 21.3548 125.019 20.7394 125.224 20.1368C125.417 19.5341 125.698 18.9956 126.07 18.5212C126.454 18.0468 126.915 17.6622 127.479 17.3673C128.043 17.0724 128.683 16.9314 129.4 16.9314C130.092 16.9314 130.72 17.0596 131.271 17.3416C131.834 17.6109 132.295 17.9827 132.68 18.4571C133.064 18.9187 133.359 19.4572 133.564 20.0727C133.768 20.6881 133.871 21.3164 133.871 21.9703C133.871 22.5985 133.768 23.214 133.576 23.8166C133.384 24.4192 133.102 24.9577 132.718 25.4449C132.334 25.9322 131.86 26.3168 131.309 26.6117C130.758 26.9066 130.118 27.0476 129.4 27.0476C128.696 27.0476 128.068 26.9066 127.517 26.6245C126.954 26.3424 126.493 25.9706 126.108 25.4962C125.724 25.0346 125.442 24.4961 125.237 23.8807ZM126.326 29.0094C127.236 29.4453 128.247 29.6633 129.375 29.6633C130.451 29.6633 131.45 29.4453 132.385 29.0478C133.294 28.6247 134.089 28.0605 134.755 27.3553C135.408 26.6502 135.933 25.8424 136.305 24.9192C136.676 24.0089 136.868 23.0473 136.868 22.0344C136.868 21.0727 136.689 20.1368 136.33 19.2136C135.972 18.2904 135.472 17.4699 134.819 16.739C134.166 16.021 133.384 15.4312 132.475 14.9825C131.552 14.5337 130.54 14.3157 129.439 14.3157C128.363 14.3157 127.364 14.5209 126.441 14.944C125.519 15.3671 124.725 15.9312 124.059 16.6364C123.393 17.3416 122.867 18.1622 122.483 19.0854C122.099 20.0085 121.907 20.9702 121.907 21.9831C121.907 22.9447 122.086 23.8935 122.445 24.8167C122.803 25.7398 123.316 26.5604 123.969 27.2784C124.622 27.9964 125.417 28.5734 126.326 29.0094ZM148.384 18.3802C148.281 18.2776 148.102 18.1494 147.833 17.9699C147.564 17.8032 147.244 17.6365 146.859 17.4699C146.475 17.3032 146.065 17.1621 145.617 17.0467C145.168 16.9313 144.72 16.8801 144.259 16.8801C143.439 16.8801 142.824 17.0339 142.427 17.3288C142.03 17.6237 141.825 18.0468 141.825 18.5853C141.825 18.8931 141.902 19.1623 142.056 19.3675C142.209 19.5726 142.427 19.7521 142.709 19.906C143.004 20.0598 143.362 20.2009 143.798 20.3291C144.101 20.4182 144.44 20.5073 144.813 20.605L144.813 20.605C144.977 20.6479 145.146 20.6925 145.322 20.7394C146.065 20.9445 146.744 21.1497 147.359 21.3805C147.974 21.6113 148.486 21.8933 148.909 22.2395C149.332 22.5857 149.665 22.9832 149.895 23.4704C150.126 23.9576 150.241 24.5346 150.241 25.227C150.241 26.0347 150.087 26.7271 149.78 27.3041C149.473 27.881 149.05 28.3426 148.525 28.7016C147.999 29.0606 147.397 29.3171 146.706 29.4837C146.027 29.6504 145.309 29.7274 144.554 29.7274C143.401 29.7274 142.261 29.5607 141.146 29.2145C140.019 28.8683 139.02 28.3939 138.123 27.7656L139.443 25.227C139.571 25.3552 139.801 25.5219 140.147 25.727C140.48 25.9322 140.877 26.1373 141.338 26.3424C141.8 26.5476 142.312 26.7271 142.876 26.8681C143.439 27.0092 144.016 27.0861 144.605 27.0861C146.244 27.0861 147.064 26.5732 147.064 25.5347C147.064 25.2013 146.975 24.9321 146.783 24.7013C146.59 24.4705 146.334 24.2782 145.988 24.0987C145.642 23.932 145.22 23.7781 144.733 23.6243C144.246 23.4832 143.695 23.3294 143.093 23.1627C142.363 22.9575 141.723 22.7524 141.185 22.5088C140.647 22.278 140.198 21.9959 139.84 21.6754C139.481 21.3548 139.212 20.983 139.033 20.5727C138.853 20.1496 138.764 19.6495 138.764 19.0726C138.764 18.3033 138.905 17.6237 139.199 17.0211C139.494 16.4185 139.891 15.9312 140.39 15.5338C140.903 15.1363 141.492 14.8414 142.171 14.6235C142.85 14.4183 143.58 14.3157 144.349 14.3157C145.425 14.3157 146.424 14.4824 147.333 14.8158C148.243 15.1491 149.037 15.5466 149.703 15.9954L148.384 18.3802Z" fill="white"/>
<path d="M63.4663 34.298C64.1194 34.298 64.6837 34.4212 65.1592 34.6675C65.6404 34.9082 66.007 35.2548 66.2591 35.7073C66.5169 36.1599 66.6458 36.6927 66.6458 37.3057C66.6458 37.9187 66.5169 38.4515 66.2591 38.904C66.007 39.3509 65.6404 39.6946 65.1592 39.9352C64.6837 40.1701 64.1194 40.2875 63.4663 40.2875H61.6016V34.298H63.4663ZM63.4663 39.6431C64.2397 39.6431 64.8298 39.4397 65.2365 39.0329C65.6433 38.6205 65.8466 38.0447 65.8466 37.3057C65.8466 36.5609 65.6404 35.9795 65.2279 35.5612C64.8212 35.143 64.234 34.9339 63.4663 34.9339H62.3835V39.6431H63.4663Z" fill="white"/>
<path d="M72.0083 37.7525C72.0083 37.9015 71.9997 38.059 71.9825 38.2252H68.2186C68.2473 38.6892 68.4048 39.053 68.6913 39.3165C68.9834 39.5743 69.3358 39.7032 69.7482 39.7032C70.0863 39.7032 70.367 39.6259 70.5904 39.4712C70.8195 39.3108 70.98 39.0988 71.0716 38.8353H71.9138C71.7877 39.2879 71.5356 39.6574 71.1575 39.9438C70.7794 40.2245 70.3097 40.3649 69.7482 40.3649C69.3014 40.3649 68.9004 40.2646 68.5452 40.0641C68.1957 39.8636 67.9207 39.58 67.7202 39.2134C67.5197 38.841 67.4195 38.4113 67.4195 37.9244C67.4195 37.4374 67.5169 37.0106 67.7116 36.644C67.9064 36.2774 68.1785 35.9966 68.528 35.8019C68.8832 35.6014 69.2899 35.5011 69.7482 35.5011C70.1951 35.5011 70.5904 35.5985 70.9341 35.7933C71.2779 35.988 71.5414 36.2573 71.7247 36.601C71.9138 36.939 72.0083 37.3229 72.0083 37.7525ZM71.2005 37.5893C71.2005 37.2914 71.1346 37.0364 71.0029 36.8245C70.8711 36.6068 70.6906 36.4435 70.4615 36.3346C70.2381 36.2201 69.9889 36.1628 69.7139 36.1628C69.3186 36.1628 68.9806 36.2888 68.6999 36.5409C68.4249 36.793 68.2673 37.1424 68.2272 37.5893H71.2005Z" fill="white"/>
<path d="M74.7419 40.3649C74.381 40.3649 74.0573 40.3047 73.7709 40.1844C73.4845 40.0584 73.2582 39.8865 73.092 39.6688C72.9259 39.4454 72.8342 39.1905 72.8171 38.904H73.6248C73.6477 39.1389 73.7566 39.3308 73.9514 39.4798C74.1519 39.6287 74.4125 39.7032 74.7334 39.7032C75.0313 39.7032 75.2661 39.6373 75.438 39.5056C75.6099 39.3738 75.6958 39.2077 75.6958 39.0071C75.6958 38.8009 75.6041 38.6491 75.4208 38.5517C75.2375 38.4486 74.9539 38.3483 74.5701 38.2509C74.2206 38.1593 73.9342 38.0676 73.7108 37.976C73.4931 37.8786 73.304 37.7382 73.1436 37.5549C72.9889 37.3658 72.9116 37.1195 72.9116 36.8159C72.9116 36.5753 72.9832 36.3547 73.1264 36.1542C73.2696 35.9537 73.473 35.7961 73.7365 35.6816C74.0001 35.5612 74.3008 35.5011 74.6388 35.5011C75.1602 35.5011 75.5812 35.6329 75.902 35.8964C76.2229 36.1599 76.3947 36.5208 76.4176 36.9791H75.6356C75.6185 36.7328 75.5182 36.5352 75.3349 36.3862C75.1573 36.2373 74.9167 36.1628 74.613 36.1628C74.3323 36.1628 74.1089 36.2229 73.9428 36.3432C73.7766 36.4635 73.6936 36.6211 73.6936 36.8159C73.6936 36.9705 73.7423 37.0994 73.8397 37.2026C73.9428 37.3 74.0688 37.3802 74.2178 37.4432C74.3724 37.5005 74.5844 37.5663 74.8537 37.6408C75.1917 37.7325 75.4666 37.8241 75.6786 37.9158C75.8906 38.0017 76.071 38.1335 76.22 38.3111C76.3747 38.4887 76.4549 38.7207 76.4606 39.0071C76.4606 39.2649 76.389 39.497 76.2458 39.7032C76.1025 39.9094 75.8992 40.0727 75.6356 40.193C75.3778 40.3076 75.0799 40.3649 74.7419 40.3649Z" fill="white"/>
<path d="M83.2618 35.4925C83.6285 35.4925 83.955 35.5698 84.2415 35.7245C84.5279 35.8735 84.7542 36.0998 84.9203 36.4034C85.0865 36.707 85.1695 37.0765 85.1695 37.5119V40.2875H84.3961V37.6236C84.3961 37.1539 84.2787 36.7958 84.0438 36.5495C83.8147 36.2974 83.5024 36.1714 83.1072 36.1714C82.7004 36.1714 82.3767 36.3031 82.1361 36.5667C81.8955 36.8245 81.7752 37.1997 81.7752 37.6924V40.2875H81.0018V37.6236C81.0018 37.1539 80.8844 36.7958 80.6495 36.5495C80.4203 36.2974 80.1081 36.1714 79.7128 36.1714C79.3061 36.1714 78.9824 36.3031 78.7418 36.5667C78.5012 36.8245 78.3809 37.1997 78.3809 37.6924V40.2875H77.5989V35.5784H78.3809V36.2573C78.5355 36.011 78.7418 35.8219 78.9996 35.6901C79.2631 35.5584 79.5524 35.4925 79.8675 35.4925C80.2628 35.4925 80.6122 35.5813 80.9159 35.7589C81.2195 35.9365 81.4458 36.1972 81.5947 36.5409C81.7265 36.2086 81.9442 35.9508 82.2478 35.7675C82.5515 35.5842 82.8895 35.4925 83.2618 35.4925Z" fill="white"/>
<path d="M88.5405 40.3649C88.0993 40.3649 87.6983 40.2646 87.3374 40.0641C86.9822 39.8636 86.7015 39.58 86.4953 39.2134C86.2947 38.841 86.1945 38.4113 86.1945 37.9244C86.1945 37.4432 86.2976 37.0192 86.5038 36.6526C86.7158 36.2802 87.0023 35.9966 87.3632 35.8019C87.7241 35.6014 88.128 35.5011 88.5748 35.5011C89.0217 35.5011 89.4256 35.6014 89.7865 35.8019C90.1474 35.9966 90.431 36.2774 90.6372 36.644C90.8492 37.0106 90.9552 37.4374 90.9552 37.9244C90.9552 38.4113 90.8463 38.841 90.6286 39.2134C90.4166 39.58 90.1273 39.8636 89.7607 40.0641C89.394 40.2646 88.9873 40.3649 88.5405 40.3649ZM88.5405 39.6774C88.8212 39.6774 89.0847 39.6115 89.331 39.4798C89.5774 39.348 89.775 39.1504 89.924 38.8868C90.0786 38.6233 90.156 38.3025 90.156 37.9244C90.156 37.5463 90.0815 37.2255 89.9326 36.962C89.7836 36.6984 89.5888 36.5036 89.3482 36.3776C89.1076 36.2458 88.8469 36.18 88.5662 36.18C88.2798 36.18 88.0163 36.2458 87.7757 36.3776C87.5408 36.5036 87.3517 36.6984 87.2085 36.962C87.0653 37.2255 86.9937 37.5463 86.9937 37.9244C86.9937 38.3082 87.0624 38.6319 87.1999 38.8954C87.3431 39.159 87.5322 39.3566 87.7671 39.4884C88.0019 39.6144 88.2597 39.6774 88.5405 39.6774Z" fill="white"/>
<path d="M93.6848 40.3649C93.3239 40.3649 93.0002 40.3047 92.7138 40.1844C92.4273 40.0584 92.201 39.8865 92.0349 39.6688C91.8688 39.4454 91.7771 39.1905 91.7599 38.904H92.5677C92.5906 39.1389 92.6994 39.3308 92.8942 39.4798C93.0947 39.6287 93.3554 39.7032 93.6762 39.7032C93.9741 39.7032 94.209 39.6373 94.3809 39.5056C94.5527 39.3738 94.6386 39.2077 94.6386 39.0071C94.6386 38.8009 94.547 38.6491 94.3637 38.5517C94.1803 38.4486 93.8968 38.3483 93.5129 38.2509C93.1635 38.1593 92.877 38.0676 92.6536 37.976C92.4359 37.8786 92.2469 37.7382 92.0864 37.5549C91.9318 37.3658 91.8544 37.1195 91.8544 36.8159C91.8544 36.5753 91.926 36.3547 92.0693 36.1542C92.2125 35.9537 92.4159 35.7961 92.6794 35.6816C92.9429 35.5612 93.2437 35.5011 93.5817 35.5011C94.103 35.5011 94.5241 35.6329 94.8449 35.8964C95.1657 36.1599 95.3376 36.5208 95.3605 36.9791H94.5785C94.5613 36.7328 94.4611 36.5352 94.2777 36.3862C94.1001 36.2373 93.8595 36.1628 93.5559 36.1628C93.2752 36.1628 93.0518 36.2229 92.8856 36.3432C92.7195 36.4635 92.6364 36.6211 92.6364 36.8159C92.6364 36.9705 92.6851 37.0994 92.7825 37.2026C92.8856 37.3 93.0117 37.3802 93.1606 37.4432C93.3153 37.5005 93.5273 37.5663 93.7965 37.6408C94.1345 37.7325 94.4095 37.8241 94.6215 37.9158C94.8334 38.0017 95.0139 38.1335 95.1628 38.3111C95.3175 38.4887 95.3977 38.7207 95.4035 39.0071C95.4035 39.2649 95.3318 39.497 95.1886 39.7032C95.0454 39.9094 94.842 40.0727 94.5785 40.193C94.3207 40.3076 94.0228 40.3649 93.6848 40.3649Z" fill="white"/>
<path d="M102.872 36.0511C102.872 36.5495 102.7 36.9648 102.356 37.2971C102.018 37.6236 101.499 37.7869 100.801 37.7869H99.6491V40.2875H98.8671V34.298H100.801C101.477 34.298 101.989 34.4613 102.339 34.7879C102.694 35.1144 102.872 35.5355 102.872 36.0511ZM100.801 37.1424C101.236 37.1424 101.557 37.0479 101.763 36.8588C101.969 36.6698 102.072 36.4005 102.072 36.0511C102.072 35.312 101.648 34.9425 100.801 34.9425H99.6491V37.1424H100.801Z" fill="white"/>
<path d="M104.66 36.3432C104.797 36.074 104.992 35.8649 105.244 35.7159C105.502 35.567 105.814 35.4925 106.181 35.4925V36.3003H105.975C105.098 36.3003 104.66 36.7758 104.66 37.7268V40.2875H103.878V35.5784H104.66V36.3432Z" fill="white"/>
<path d="M109.172 40.3649C108.731 40.3649 108.33 40.2646 107.969 40.0641C107.613 39.8636 107.333 39.58 107.126 39.2134C106.926 38.841 106.826 38.4113 106.826 37.9244C106.826 37.4432 106.929 37.0192 107.135 36.6526C107.347 36.2802 107.633 35.9966 107.994 35.8019C108.355 35.6014 108.759 35.5011 109.206 35.5011C109.653 35.5011 110.057 35.6014 110.418 35.8019C110.779 35.9966 111.062 36.2774 111.268 36.644C111.48 37.0106 111.586 37.4374 111.586 37.9244C111.586 38.4113 111.478 38.841 111.26 39.2134C111.048 39.58 110.759 39.8636 110.392 40.0641C110.025 40.2646 109.619 40.3649 109.172 40.3649ZM109.172 39.6774C109.452 39.6774 109.716 39.6115 109.962 39.4798C110.209 39.348 110.406 39.1504 110.555 38.8868C110.71 38.6233 110.787 38.3025 110.787 37.9244C110.787 37.5463 110.713 37.2255 110.564 36.962C110.415 36.6984 110.22 36.5036 109.979 36.3776C109.739 36.2458 109.478 36.18 109.197 36.18C108.911 36.18 108.647 36.2458 108.407 36.3776C108.172 36.5036 107.983 36.6984 107.84 36.962C107.696 37.2255 107.625 37.5463 107.625 37.9244C107.625 38.3082 107.694 38.6319 107.831 38.8954C107.974 39.159 108.163 39.3566 108.398 39.4884C108.633 39.6144 108.891 39.6774 109.172 39.6774Z" fill="white"/>
<path d="M114.565 36.2229H113.577V40.2875H112.795V36.2229H112.185V35.5784H112.795V35.2433C112.795 34.7162 112.93 34.3324 113.199 34.0918C113.474 33.8455 113.912 33.7223 114.514 33.7223V34.3754C114.17 34.3754 113.926 34.4441 113.783 34.5816C113.646 34.7134 113.577 34.9339 113.577 35.2433V35.5784H114.565V36.2229Z" fill="white"/>
<path d="M115.915 34.8136C115.766 34.8136 115.64 34.7621 115.537 34.659C115.434 34.5558 115.382 34.4298 115.382 34.2809C115.382 34.1319 115.434 34.0059 115.537 33.9027C115.64 33.7996 115.766 33.7481 115.915 33.7481C116.058 33.7481 116.179 33.7996 116.276 33.9027C116.379 34.0059 116.431 34.1319 116.431 34.2809C116.431 34.4298 116.379 34.5558 116.276 34.659C116.179 34.7621 116.058 34.8136 115.915 34.8136ZM116.293 35.5784V40.2875H115.511V35.5784H116.293Z" fill="white"/>
<path d="M118.442 33.9285V40.2875H117.66V33.9285H118.442Z" fill="white"/>
<path d="M124.106 37.7525C124.106 37.9015 124.098 38.059 124.08 38.2252H120.317C120.345 38.6892 120.503 39.053 120.789 39.3165C121.081 39.5743 121.434 39.7032 121.846 39.7032C122.184 39.7032 122.465 39.6259 122.688 39.4712C122.918 39.3108 123.078 39.0988 123.17 38.8353H124.012C123.886 39.2879 123.634 39.6574 123.256 39.9438C122.877 40.2245 122.408 40.3649 121.846 40.3649C121.399 40.3649 120.998 40.2646 120.643 40.0641C120.294 39.8636 120.019 39.58 119.818 39.2134C119.618 38.841 119.517 38.4113 119.517 37.9244C119.517 37.4374 119.615 37.0106 119.81 36.644C120.004 36.2774 120.277 35.9966 120.626 35.8019C120.981 35.6014 121.388 35.5011 121.846 35.5011C122.293 35.5011 122.688 35.5985 123.032 35.7933C123.376 35.988 123.639 36.2573 123.823 36.601C124.012 36.939 124.106 37.3229 124.106 37.7525ZM123.298 37.5893C123.298 37.2914 123.233 37.0364 123.101 36.8245C122.969 36.6068 122.789 36.4435 122.559 36.3346C122.336 36.2201 122.087 36.1628 121.812 36.1628C121.417 36.1628 121.079 36.2888 120.798 36.5409C120.523 36.793 120.365 37.1424 120.325 37.5893H123.298Z" fill="white"/>
<path d="M133.574 34.341V40.2875H132.792V35.8534L130.815 40.2875H130.265L128.28 35.8448V40.2875H127.498V34.341H128.34L130.54 39.2564L132.74 34.341H133.574Z" fill="white"/>
<path d="M134.642 37.9158C134.642 37.4346 134.739 37.0135 134.934 36.6526C135.129 36.2859 135.395 36.0024 135.733 35.8019C136.077 35.6014 136.458 35.5011 136.876 35.5011C137.289 35.5011 137.647 35.5899 137.95 35.7675C138.254 35.9451 138.48 36.1685 138.629 36.4378V35.5784H139.42V40.2875H138.629V39.411C138.475 39.686 138.243 39.9152 137.933 40.0985C137.63 40.2761 137.274 40.3649 136.868 40.3649C136.449 40.3649 136.071 40.2618 135.733 40.0555C135.395 39.8493 135.129 39.56 134.934 39.1876C134.739 38.8152 134.642 38.3913 134.642 37.9158ZM138.629 37.9244C138.629 37.5692 138.558 37.2599 138.414 36.9963C138.271 36.7328 138.076 36.5323 137.83 36.3948C137.589 36.2516 137.323 36.18 137.031 36.18C136.739 36.18 136.472 36.2487 136.232 36.3862C135.991 36.5237 135.799 36.7242 135.656 36.9877C135.513 37.2513 135.441 37.5606 135.441 37.9158C135.441 38.2767 135.513 38.5918 135.656 38.8611C135.799 39.1246 135.991 39.328 136.232 39.4712C136.472 39.6087 136.739 39.6774 137.031 39.6774C137.323 39.6774 137.589 39.6087 137.83 39.4712C138.076 39.328 138.271 39.1246 138.414 38.8611C138.558 38.5918 138.629 38.2796 138.629 37.9244Z" fill="white"/>
<path d="M143.07 35.4925C143.643 35.4925 144.107 35.6672 144.462 36.0167C144.817 36.3604 144.995 36.8588 144.995 37.5119V40.2875H144.222V37.6236C144.222 37.1539 144.104 36.7958 143.869 36.5495C143.634 36.2974 143.314 36.1714 142.907 36.1714C142.494 36.1714 142.165 36.3003 141.919 36.5581C141.678 36.8159 141.558 37.1911 141.558 37.6838V40.2875H140.776V35.5784H141.558V36.2487C141.712 36.0081 141.921 35.8219 142.185 35.6901C142.454 35.5584 142.749 35.4925 143.07 35.4925Z" fill="white"/>
<path d="M148.249 35.5011C148.656 35.5011 149.011 35.5899 149.314 35.7675C149.624 35.9451 149.853 36.1685 150.002 36.4378V35.5784H150.792V40.3907C150.792 40.8203 150.701 41.2013 150.517 41.5336C150.334 41.8716 150.071 42.1351 149.727 42.3242C149.389 42.5132 148.994 42.6077 148.541 42.6077C147.922 42.6077 147.407 42.4616 146.994 42.1695C146.582 41.8773 146.338 41.4791 146.264 40.975H147.037C147.123 41.2615 147.301 41.4906 147.57 41.6625C147.839 41.8401 148.163 41.9289 148.541 41.9289C148.971 41.9289 149.32 41.7942 149.589 41.525C149.864 41.2557 150.002 40.8776 150.002 40.3907V39.4024C149.847 39.6774 149.618 39.9066 149.314 40.0899C149.011 40.2732 148.656 40.3649 148.249 40.3649C147.831 40.3649 147.45 40.2618 147.106 40.0555C146.768 39.8493 146.502 39.56 146.307 39.1876C146.112 38.8152 146.015 38.3913 146.015 37.9158C146.015 37.4346 146.112 37.0135 146.307 36.6526C146.502 36.2859 146.768 36.0024 147.106 35.8019C147.45 35.6014 147.831 35.5011 148.249 35.5011ZM150.002 37.9244C150.002 37.5692 149.93 37.2599 149.787 36.9963C149.644 36.7328 149.449 36.5323 149.203 36.3948C148.962 36.2516 148.696 36.18 148.404 36.18C148.111 36.18 147.845 36.2487 147.604 36.3862C147.364 36.5237 147.172 36.7242 147.029 36.9877C146.885 37.2513 146.814 37.5606 146.814 37.9158C146.814 38.2767 146.885 38.5918 147.029 38.8611C147.172 39.1246 147.364 39.328 147.604 39.4712C147.845 39.6087 148.111 39.6774 148.404 39.6774C148.696 39.6774 148.962 39.6087 149.203 39.4712C149.449 39.328 149.644 39.1246 149.787 38.8611C149.93 38.5918 150.002 38.2796 150.002 37.9244Z" fill="white"/>
<path d="M156.445 37.7525C156.445 37.9015 156.436 38.059 156.419 38.2252H152.655C152.684 38.6892 152.841 39.053 153.128 39.3165C153.42 39.5743 153.772 39.7032 154.185 39.7032C154.523 39.7032 154.804 39.6259 155.027 39.4712C155.256 39.3108 155.417 39.0988 155.508 38.8353H156.35C156.224 39.2879 155.972 39.6574 155.594 39.9438C155.216 40.2245 154.746 40.3649 154.185 40.3649C153.738 40.3649 153.337 40.2646 152.982 40.0641C152.632 39.8636 152.357 39.58 152.157 39.2134C151.956 38.841 151.856 38.4113 151.856 37.9244C151.856 37.4374 151.954 37.0106 152.148 36.644C152.343 36.2774 152.615 35.9966 152.965 35.8019C153.32 35.6014 153.727 35.5011 154.185 35.5011C154.632 35.5011 155.027 35.5985 155.371 35.7933C155.714 35.988 155.978 36.2573 156.161 36.601C156.35 36.939 156.445 37.3229 156.445 37.7525ZM155.637 37.5893C155.637 37.2914 155.571 37.0364 155.44 36.8245C155.308 36.6068 155.127 36.4435 154.898 36.3346C154.675 36.2201 154.425 36.1628 154.151 36.1628C153.755 36.1628 153.417 36.2888 153.137 36.5409C152.862 36.793 152.704 37.1424 152.664 37.5893H155.637Z" fill="white"/>
<path d="M158.293 36.3432C158.431 36.074 158.626 35.8649 158.878 35.7159C159.136 35.567 159.448 35.4925 159.814 35.4925V36.3003H159.608C158.732 36.3003 158.293 36.7758 158.293 37.7268V40.2875H157.511V35.5784H158.293V36.3432Z" fill="white"/>
</svg>
