<svg viewBox="0 0 210 369" fill="none" xmlns="http://www.w3.org/2000/svg">
<path d="M69.9158 103.494C69.4257 108.845 70.2543 114.817 73.595 117.48C76.9924 119.478 83.5152 113.301 85.8303 111.418C92.0525 106.357 87.3799 99.1925 79.7763 96.8881C69.6385 93.8157 70.044 102.094 69.9158 103.494Z" fill="white" fill-opacity="0.5"/>
<path d="M77.5128 98.3939C73.1807 96.4729 66.4058 97.9521 64.2474 99.9044C61.9231 103.22 66.6555 111.343 68.1836 113.989C71.5068 119.742 77.1765 120.008 79.9236 112.761C84.3551 101.069 78.9626 99.0368 77.5128 98.3939Z" fill="white" fill-opacity="0.3"/>
<path d="M71.8268 107.65V105.844H75.2008V116.05H73.1848V107.65H71.8268ZM83.997 107.538H79.461V109.932C79.657 109.689 79.937 109.493 80.301 109.344C80.665 109.185 81.0524 109.106 81.463 109.106C82.2097 109.106 82.821 109.269 83.297 109.596C83.773 109.923 84.1184 110.343 84.333 110.856C84.5477 111.36 84.655 111.901 84.655 112.48C84.655 113.553 84.347 114.417 83.731 115.07C83.1244 115.723 82.2564 116.05 81.127 116.05C80.063 116.05 79.2137 115.784 78.579 115.252C77.9444 114.72 77.585 114.025 77.501 113.166H79.405C79.489 113.539 79.6757 113.838 79.965 114.062C80.2637 114.286 80.6417 114.398 81.099 114.398C81.6497 114.398 82.065 114.225 82.345 113.88C82.625 113.535 82.765 113.077 82.765 112.508C82.765 111.929 82.6204 111.491 82.331 111.192C82.051 110.884 81.6357 110.73 81.085 110.73C80.693 110.73 80.3664 110.828 80.105 111.024C79.8437 111.22 79.657 111.481 79.545 111.808H77.669V105.816H83.997V107.538ZM100.361 106.278V116.05H98.4007V109.694L95.7827 116.05H94.2987L91.6667 109.694V116.05H89.7067V106.278H91.9327L95.0407 113.544L98.1487 106.278H100.361ZM112.953 106.278V116.05H110.993V109.694L108.375 116.05H106.891L104.259 109.694V116.05H102.299V106.278H104.525L107.633 113.544L110.741 106.278H112.953Z" fill="black"/>
<path d="M73.3148 126.686V131.978C73.3148 132.722 73.4948 133.274 73.8548 133.634C74.2228 133.994 74.7308 134.174 75.3788 134.174C76.0188 134.174 76.5188 133.994 76.8788 133.634C77.2468 133.274 77.4308 132.722 77.4308 131.978V126.686H78.5228V131.966C78.5228 132.662 78.3828 133.25 78.1028 133.73C77.8228 134.202 77.4428 134.554 76.9628 134.786C76.4908 135.018 75.9588 135.134 75.3668 135.134C74.7748 135.134 74.2388 135.018 73.7588 134.786C73.2868 134.554 72.9108 134.202 72.6308 133.73C72.3588 133.25 72.2228 132.662 72.2228 131.966V126.686H73.3148ZM82.6724 135.158C82.1684 135.158 81.7164 135.074 81.3164 134.906C80.9164 134.73 80.6004 134.49 80.3684 134.186C80.1364 133.874 80.0084 133.518 79.9844 133.118H81.1124C81.1444 133.446 81.2964 133.714 81.5684 133.922C81.8484 134.13 82.2124 134.234 82.6604 134.234C83.0764 134.234 83.4044 134.142 83.6444 133.958C83.8844 133.774 84.0044 133.542 84.0044 133.262C84.0044 132.974 83.8764 132.762 83.6204 132.626C83.3644 132.482 82.9684 132.342 82.4324 132.206C81.9444 132.078 81.5444 131.95 81.2324 131.822C80.9284 131.686 80.6644 131.49 80.4404 131.234C80.2244 130.97 80.1164 130.626 80.1164 130.202C80.1164 129.866 80.2164 129.558 80.4164 129.278C80.6164 128.998 80.9004 128.778 81.2684 128.618C81.6364 128.45 82.0564 128.366 82.5284 128.366C83.2564 128.366 83.8444 128.55 84.2924 128.918C84.7404 129.286 84.9804 129.79 85.0124 130.43H83.9204C83.8964 130.086 83.7564 129.81 83.5004 129.602C83.2524 129.394 82.9164 129.29 82.4924 129.29C82.1004 129.29 81.7884 129.374 81.5564 129.542C81.3244 129.71 81.2084 129.93 81.2084 130.202C81.2084 130.418 81.2764 130.598 81.4124 130.742C81.5564 130.878 81.7324 130.99 81.9404 131.078C82.1564 131.158 82.4524 131.25 82.8284 131.354C83.3004 131.482 83.6844 131.61 83.9804 131.738C84.2764 131.858 84.5284 132.042 84.7364 132.29C84.9524 132.538 85.0644 132.862 85.0724 133.262C85.0724 133.622 84.9724 133.946 84.7724 134.234C84.5724 134.522 84.2884 134.75 83.9204 134.918C83.5604 135.078 83.1444 135.158 82.6724 135.158ZM92.6139 131.51C92.6139 131.718 92.6019 131.938 92.5779 132.17H87.3219C87.3619 132.818 87.5819 133.326 87.9819 133.694C88.3899 134.054 88.8819 134.234 89.4579 134.234C89.9299 134.234 90.3219 134.126 90.6339 133.91C90.9539 133.686 91.1779 133.39 91.3059 133.022H92.4819C92.3059 133.654 91.9539 134.17 91.4259 134.57C90.8979 134.962 90.2419 135.158 89.4579 135.158C88.8339 135.158 88.2739 135.018 87.7779 134.738C87.2899 134.458 86.9059 134.062 86.6259 133.55C86.3459 133.03 86.2059 132.43 86.2059 131.75C86.2059 131.07 86.3419 130.474 86.6139 129.962C86.8859 129.45 87.2659 129.058 87.7539 128.786C88.2499 128.506 88.8179 128.366 89.4579 128.366C90.0819 128.366 90.6339 128.502 91.1139 128.774C91.5939 129.046 91.9619 129.422 92.2179 129.902C92.4819 130.374 92.6139 130.91 92.6139 131.51ZM91.4859 131.282C91.4859 130.866 91.3939 130.51 91.2099 130.214C91.0259 129.91 90.7739 129.682 90.4539 129.53C90.1419 129.37 89.7939 129.29 89.4099 129.29C88.8579 129.29 88.3859 129.466 87.9939 129.818C87.6099 130.17 87.3899 130.658 87.3339 131.282H91.4859ZM95.1473 129.542C95.3393 129.166 95.6113 128.874 95.9633 128.666C96.3233 128.458 96.7593 128.354 97.2713 128.354V129.482H96.9833C95.7593 129.482 95.1473 130.146 95.1473 131.474V135.05H94.0553V128.474H95.1473V129.542ZM106.675 133.19H103.027L102.355 135.05H101.203L104.227 126.734H105.487L108.499 135.05H107.347L106.675 133.19ZM106.363 132.302L104.851 128.078L103.339 132.302H106.363ZM109.409 131.75C109.409 131.07 109.545 130.478 109.817 129.974C110.089 129.462 110.465 129.066 110.945 128.786C111.433 128.506 111.989 128.366 112.613 128.366C113.421 128.366 114.085 128.562 114.605 128.954C115.133 129.346 115.481 129.89 115.649 130.586H114.473C114.361 130.186 114.141 129.87 113.813 129.638C113.493 129.406 113.093 129.29 112.613 129.29C111.989 129.29 111.485 129.506 111.101 129.938C110.717 130.362 110.525 130.966 110.525 131.75C110.525 132.542 110.717 133.154 111.101 133.586C111.485 134.018 111.989 134.234 112.613 134.234C113.093 134.234 113.493 134.122 113.813 133.898C114.133 133.674 114.353 133.354 114.473 132.938H115.649C115.473 133.61 115.121 134.15 114.593 134.558C114.065 134.958 113.405 135.158 112.613 135.158C111.989 135.158 111.433 135.018 110.945 134.738C110.465 134.458 110.089 134.062 109.817 133.55C109.545 133.038 109.409 132.438 109.409 131.75ZM116.698 131.738C116.698 131.066 116.834 130.478 117.106 129.974C117.378 129.462 117.75 129.066 118.222 128.786C118.702 128.506 119.238 128.366 119.83 128.366C120.398 128.366 120.894 128.494 121.318 128.75C121.75 128.998 122.066 129.306 122.266 129.674V128.474H123.37V138.17H122.266V133.838C122.058 134.206 121.738 134.518 121.306 134.774C120.874 135.03 120.37 135.158 119.794 135.158C119.218 135.158 118.694 135.014 118.222 134.726C117.75 134.438 117.378 134.034 117.106 133.514C116.834 132.994 116.698 132.402 116.698 131.738ZM122.266 131.75C122.266 131.254 122.166 130.822 121.966 130.454C121.766 130.086 121.494 129.806 121.15 129.614C120.814 129.414 120.442 129.314 120.034 129.314C119.626 129.314 119.254 129.41 118.918 129.602C118.582 129.794 118.314 130.074 118.114 130.442C117.914 130.81 117.814 131.242 117.814 131.738C117.814 132.242 117.914 132.682 118.114 133.058C118.314 133.426 118.582 133.71 118.918 133.91C119.254 134.102 119.626 134.198 120.034 134.198C120.442 134.198 120.814 134.102 121.15 133.91C121.494 133.71 121.766 133.426 121.966 133.058C122.166 132.682 122.266 132.246 122.266 131.75ZM131.048 128.474V135.05H129.956V134.078C129.748 134.414 129.456 134.678 129.08 134.87C128.712 135.054 128.304 135.146 127.856 135.146C127.344 135.146 126.884 135.042 126.476 134.834C126.068 134.618 125.744 134.298 125.504 133.874C125.272 133.45 125.156 132.934 125.156 132.326V128.474H126.236V132.182C126.236 132.83 126.4 133.33 126.728 133.682C127.056 134.026 127.504 134.198 128.072 134.198C128.656 134.198 129.116 134.018 129.452 133.658C129.788 133.298 129.956 132.774 129.956 132.086V128.474H131.048ZM133.455 127.406C133.247 127.406 133.071 127.334 132.927 127.19C132.783 127.046 132.711 126.87 132.711 126.662C132.711 126.454 132.783 126.278 132.927 126.134C133.071 125.99 133.247 125.918 133.455 125.918C133.655 125.918 133.823 125.99 133.959 126.134C134.103 126.278 134.175 126.454 134.175 126.662C134.175 126.87 134.103 127.046 133.959 127.19C133.823 127.334 133.655 127.406 133.455 127.406ZM133.983 128.474V135.05H132.891V128.474H133.983ZM138.172 135.158C137.668 135.158 137.216 135.074 136.816 134.906C136.416 134.73 136.1 134.49 135.868 134.186C135.636 133.874 135.508 133.518 135.484 133.118H136.612C136.644 133.446 136.796 133.714 137.068 133.922C137.348 134.13 137.712 134.234 138.16 134.234C138.576 134.234 138.904 134.142 139.144 133.958C139.384 133.774 139.504 133.542 139.504 133.262C139.504 132.974 139.376 132.762 139.12 132.626C138.864 132.482 138.468 132.342 137.932 132.206C137.444 132.078 137.044 131.95 136.732 131.822C136.428 131.686 136.164 131.49 135.94 131.234C135.724 130.97 135.616 130.626 135.616 130.202C135.616 129.866 135.716 129.558 135.916 129.278C136.116 128.998 136.4 128.778 136.768 128.618C137.136 128.45 137.556 128.366 138.028 128.366C138.756 128.366 139.344 128.55 139.792 128.918C140.24 129.286 140.48 129.79 140.512 130.43H139.42C139.396 130.086 139.256 129.81 139 129.602C138.752 129.394 138.416 129.29 137.992 129.29C137.6 129.29 137.288 129.374 137.056 129.542C136.824 129.71 136.708 129.93 136.708 130.202C136.708 130.418 136.776 130.598 136.912 130.742C137.056 130.878 137.232 130.99 137.44 131.078C137.656 131.158 137.952 131.25 138.328 131.354C138.8 131.482 139.184 131.61 139.48 131.738C139.776 131.858 140.028 132.042 140.236 132.29C140.452 132.538 140.564 132.862 140.572 133.262C140.572 133.622 140.472 133.946 140.272 134.234C140.072 134.522 139.788 134.75 139.42 134.918C139.06 135.078 138.644 135.158 138.172 135.158ZM142.678 127.406C142.47 127.406 142.294 127.334 142.15 127.19C142.006 127.046 141.934 126.87 141.934 126.662C141.934 126.454 142.006 126.278 142.15 126.134C142.294 125.99 142.47 125.918 142.678 125.918C142.878 125.918 143.046 125.99 143.182 126.134C143.326 126.278 143.398 126.454 143.398 126.662C143.398 126.87 143.326 127.046 143.182 127.19C143.046 127.334 142.878 127.406 142.678 127.406ZM143.206 128.474V135.05H142.114V128.474H143.206ZM146.399 129.374V133.25C146.399 133.57 146.467 133.798 146.603 133.934C146.739 134.062 146.975 134.126 147.311 134.126H148.115V135.05H147.131C146.523 135.05 146.067 134.91 145.763 134.63C145.459 134.35 145.307 133.89 145.307 133.25V129.374H144.455V128.474H145.307V126.818H146.399V128.474H148.115V129.374H146.399ZM150.002 127.406C149.794 127.406 149.618 127.334 149.474 127.19C149.33 127.046 149.258 126.87 149.258 126.662C149.258 126.454 149.33 126.278 149.474 126.134C149.618 125.99 149.794 125.918 150.002 125.918C150.202 125.918 150.37 125.99 150.506 126.134C150.65 126.278 150.722 126.454 150.722 126.662C150.722 126.87 150.65 127.046 150.506 127.19C150.37 127.334 150.202 127.406 150.002 127.406ZM150.53 128.474V135.05H149.438V128.474H150.53ZM155.259 135.158C154.643 135.158 154.083 135.018 153.579 134.738C153.083 134.458 152.691 134.062 152.403 133.55C152.123 133.03 151.983 132.43 151.983 131.75C151.983 131.078 152.127 130.486 152.415 129.974C152.711 129.454 153.111 129.058 153.615 128.786C154.119 128.506 154.683 128.366 155.307 128.366C155.931 128.366 156.495 128.506 156.999 128.786C157.503 129.058 157.899 129.45 158.187 129.962C158.483 130.474 158.631 131.07 158.631 131.75C158.631 132.43 158.479 133.03 158.175 133.55C157.879 134.062 157.475 134.458 156.963 134.738C156.451 135.018 155.883 135.158 155.259 135.158ZM155.259 134.198C155.651 134.198 156.019 134.106 156.363 133.922C156.707 133.738 156.983 133.462 157.191 133.094C157.407 132.726 157.515 132.278 157.515 131.75C157.515 131.222 157.411 130.774 157.203 130.406C156.995 130.038 156.723 129.766 156.387 129.59C156.051 129.406 155.687 129.314 155.295 129.314C154.895 129.314 154.527 129.406 154.191 129.59C153.863 129.766 153.599 130.038 153.399 130.406C153.199 130.774 153.099 131.222 153.099 131.75C153.099 132.286 153.195 132.738 153.387 133.106C153.587 133.474 153.851 133.75 154.179 133.934C154.507 134.11 154.867 134.198 155.259 134.198ZM163.271 128.354C164.071 128.354 164.719 128.598 165.215 129.086C165.711 129.566 165.959 130.262 165.959 131.174V135.05H164.879V131.33C164.879 130.674 164.715 130.174 164.387 129.83C164.059 129.478 163.611 129.302 163.043 129.302C162.467 129.302 162.007 129.482 161.663 129.842C161.327 130.202 161.159 130.726 161.159 131.414V135.05H160.067V128.474H161.159V129.41C161.375 129.074 161.667 128.814 162.035 128.63C162.411 128.446 162.823 128.354 163.271 128.354ZM175.67 126.686V127.574H172.034V130.394H174.986V131.282H172.034V135.05H170.942V126.686H175.67ZM182.821 128.474V135.05H181.729V134.078C181.521 134.414 181.229 134.678 180.853 134.87C180.485 135.054 180.077 135.146 179.629 135.146C179.117 135.146 178.657 135.042 178.249 134.834C177.841 134.618 177.517 134.298 177.277 133.874C177.045 133.45 176.929 132.934 176.929 132.326V128.474H178.009V132.182C178.009 132.83 178.173 133.33 178.501 133.682C178.829 134.026 179.277 134.198 179.845 134.198C180.429 134.198 180.889 134.018 181.225 133.658C181.561 133.298 181.729 132.774 181.729 132.086V128.474H182.821ZM187.869 128.354C188.669 128.354 189.317 128.598 189.813 129.086C190.309 129.566 190.557 130.262 190.557 131.174V135.05H189.477V131.33C189.477 130.674 189.313 130.174 188.985 129.83C188.657 129.478 188.209 129.302 187.641 129.302C187.065 129.302 186.605 129.482 186.261 129.842C185.925 130.202 185.757 130.726 185.757 131.414V135.05H184.665V128.474H185.757V129.41C185.973 129.074 186.265 128.814 186.633 128.63C187.009 128.446 187.421 128.354 187.869 128.354ZM191.933 131.738C191.933 131.066 192.069 130.478 192.341 129.974C192.613 129.462 192.985 129.066 193.457 128.786C193.937 128.506 194.473 128.366 195.065 128.366C195.577 128.366 196.053 128.486 196.493 128.726C196.933 128.958 197.269 129.266 197.501 129.65V126.17H198.605V135.05H197.501V133.814C197.285 134.206 196.965 134.53 196.541 134.786C196.117 135.034 195.621 135.158 195.053 135.158C194.469 135.158 193.937 135.014 193.457 134.726C192.985 134.438 192.613 134.034 192.341 133.514C192.069 132.994 191.933 132.402 191.933 131.738ZM197.501 131.75C197.501 131.254 197.401 130.822 197.201 130.454C197.001 130.086 196.729 129.806 196.385 129.614C196.049 129.414 195.677 129.314 195.269 129.314C194.861 129.314 194.489 129.41 194.153 129.602C193.817 129.794 193.549 130.074 193.349 130.442C193.149 130.81 193.049 131.242 193.049 131.738C193.049 132.242 193.149 132.682 193.349 133.058C193.549 133.426 193.817 133.71 194.153 133.91C194.489 134.102 194.861 134.198 195.269 134.198C195.677 134.198 196.049 134.102 196.385 133.91C196.729 133.71 197.001 133.426 197.201 133.058C197.401 132.682 197.501 132.246 197.501 131.75Z" fill="black"/>
<path d="M54 159.74L71.5 144.054H200" stroke="#FED9B2" stroke-linecap="round"/>
<path d="M69.9502 198.324C69.458 203.675 70.2901 209.647 73.6445 212.31C77.0559 214.308 83.6056 208.131 85.9303 206.248C92.1781 201.187 87.4862 194.023 79.8513 191.718C69.6717 188.646 70.0789 196.924 69.9502 198.324Z" fill="white" fill-opacity="0.5"/>
<path d="M77.5788 193.391C73.2288 191.47 66.4261 192.949 64.2587 194.901C61.9249 198.217 66.6767 206.34 68.2111 208.986C71.5481 214.738 77.2411 215.005 79.9995 207.757C84.4492 196.066 79.0345 194.034 77.5788 193.391Z" fill="white" fill-opacity="0.3"/>
<path d="M71.4536 200.842V199.294H74.3456V208.042H72.6176V200.842H71.4536ZM76.5333 206.146C77.3013 205.506 77.9133 204.974 78.3693 204.55C78.8253 204.118 79.2053 203.67 79.5093 203.206C79.8133 202.742 79.9653 202.286 79.9653 201.838C79.9653 201.43 79.8693 201.11 79.6773 200.878C79.4853 200.646 79.1893 200.53 78.7893 200.53C78.3893 200.53 78.0813 200.666 77.8653 200.938C77.6493 201.202 77.5373 201.566 77.5293 202.03H75.8973C75.9293 201.07 76.2133 200.342 76.7493 199.846C77.2933 199.35 77.9813 199.102 78.8133 199.102C79.7253 199.102 80.4253 199.346 80.9133 199.834C81.4013 200.314 81.6453 200.95 81.6453 201.742C81.6453 202.366 81.4773 202.962 81.1413 203.53C80.8053 204.098 80.4213 204.594 79.9893 205.018C79.5573 205.434 78.9933 205.938 78.2973 206.53H81.8373V207.922H75.9093V206.674L76.5333 206.146ZM83.8319 208.126C83.5279 208.126 83.2759 208.034 83.0759 207.85C82.8839 207.658 82.7879 207.422 82.7879 207.142C82.7879 206.862 82.8839 206.63 83.0759 206.446C83.2759 206.254 83.5279 206.158 83.8319 206.158C84.1279 206.158 84.3719 206.254 84.5639 206.446C84.7559 206.63 84.8519 206.862 84.8519 207.142C84.8519 207.422 84.7559 207.658 84.5639 207.85C84.3719 208.034 84.1279 208.126 83.8319 208.126ZM91.8931 200.746H88.0051V202.798C88.1731 202.59 88.4131 202.422 88.7251 202.294C89.0371 202.158 89.3691 202.09 89.7211 202.09C90.3611 202.09 90.8851 202.23 91.2931 202.51C91.7011 202.79 91.9971 203.15 92.1811 203.59C92.3651 204.022 92.4571 204.486 92.4571 204.982C92.4571 205.902 92.1931 206.642 91.6651 207.202C91.1451 207.762 90.4011 208.042 89.4331 208.042C88.5211 208.042 87.7931 207.814 87.2491 207.358C86.7051 206.902 86.3971 206.306 86.3251 205.57H87.9571C88.0291 205.89 88.1891 206.146 88.4371 206.338C88.6931 206.53 89.0171 206.626 89.4091 206.626C89.8811 206.626 90.2371 206.478 90.4771 206.182C90.7171 205.886 90.8371 205.494 90.8371 205.006C90.8371 204.51 90.7131 204.134 90.4651 203.878C90.2251 203.614 89.8691 203.482 89.3971 203.482C89.0611 203.482 88.7811 203.566 88.5571 203.734C88.3331 203.902 88.1731 204.126 88.0771 204.406H86.4691V199.27H91.8931V200.746ZM105.919 199.666V208.042H104.239V202.594L101.995 208.042H100.723L98.4671 202.594V208.042H96.7871V199.666H98.6951L101.359 205.894L104.023 199.666H105.919ZM116.712 199.666V208.042H115.032V202.594L112.788 208.042H111.516L109.26 202.594V208.042H107.58V199.666H109.488L112.152 205.894L114.816 199.666H116.712Z" fill="black"/>
<path d="M74.5496 220.678C75.4616 220.678 76.2496 220.85 76.9136 221.194C77.5856 221.53 78.0976 222.014 78.4496 222.646C78.8096 223.278 78.9896 224.022 78.9896 224.878C78.9896 225.734 78.8096 226.478 78.4496 227.11C78.0976 227.734 77.5856 228.214 76.9136 228.55C76.2496 228.878 75.4616 229.042 74.5496 229.042H71.9456V220.678H74.5496ZM74.5496 228.142C75.6296 228.142 76.4536 227.858 77.0216 227.29C77.5896 226.714 77.8736 225.91 77.8736 224.878C77.8736 223.838 77.5856 223.026 77.0096 222.442C76.4416 221.858 75.6216 221.566 74.5496 221.566H73.0376V228.142H74.5496ZM86.43 225.502C86.43 225.71 86.418 225.93 86.394 226.162H81.138C81.178 226.81 81.398 227.318 81.798 227.686C82.206 228.046 82.698 228.226 83.274 228.226C83.746 228.226 84.138 228.118 84.45 227.902C84.77 227.678 84.994 227.382 85.122 227.014H86.298C86.122 227.646 85.77 228.162 85.242 228.562C84.714 228.954 84.058 229.15 83.274 229.15C82.65 229.15 82.09 229.01 81.594 228.73C81.106 228.45 80.722 228.054 80.442 227.542C80.162 227.022 80.022 226.422 80.022 225.742C80.022 225.062 80.158 224.466 80.43 223.954C80.702 223.442 81.082 223.05 81.57 222.778C82.066 222.498 82.634 222.358 83.274 222.358C83.898 222.358 84.45 222.494 84.93 222.766C85.41 223.038 85.778 223.414 86.034 223.894C86.298 224.366 86.43 224.902 86.43 225.502ZM85.302 225.274C85.302 224.858 85.21 224.502 85.026 224.206C84.842 223.902 84.59 223.674 84.27 223.522C83.958 223.362 83.61 223.282 83.226 223.282C82.674 223.282 82.202 223.458 81.81 223.81C81.426 224.162 81.206 224.65 81.15 225.274H85.302ZM90.1994 229.15C89.6954 229.15 89.2434 229.066 88.8434 228.898C88.4434 228.722 88.1274 228.482 87.8954 228.178C87.6634 227.866 87.5354 227.51 87.5114 227.11H88.6394C88.6714 227.438 88.8234 227.706 89.0954 227.914C89.3754 228.122 89.7394 228.226 90.1874 228.226C90.6034 228.226 90.9314 228.134 91.1714 227.95C91.4114 227.766 91.5314 227.534 91.5314 227.254C91.5314 226.966 91.4034 226.754 91.1474 226.618C90.8914 226.474 90.4954 226.334 89.9594 226.198C89.4714 226.07 89.0714 225.942 88.7594 225.814C88.4554 225.678 88.1914 225.482 87.9674 225.226C87.7514 224.962 87.6434 224.618 87.6434 224.194C87.6434 223.858 87.7434 223.55 87.9434 223.27C88.1434 222.99 88.4274 222.77 88.7954 222.61C89.1634 222.442 89.5834 222.358 90.0554 222.358C90.7834 222.358 91.3714 222.542 91.8194 222.91C92.2674 223.278 92.5074 223.782 92.5394 224.422H91.4474C91.4234 224.078 91.2834 223.802 91.0274 223.594C90.7794 223.386 90.4434 223.282 90.0194 223.282C89.6274 223.282 89.3154 223.366 89.0834 223.534C88.8514 223.702 88.7354 223.922 88.7354 224.194C88.7354 224.41 88.8034 224.59 88.9394 224.734C89.0834 224.87 89.2594 224.982 89.4674 225.07C89.6834 225.15 89.9794 225.242 90.3554 225.346C90.8274 225.474 91.2114 225.602 91.5074 225.73C91.8034 225.85 92.0554 226.034 92.2634 226.282C92.4794 226.53 92.5914 226.854 92.5994 227.254C92.5994 227.614 92.4994 227.938 92.2994 228.226C92.0994 228.514 91.8154 228.742 91.4474 228.91C91.0874 229.07 90.6714 229.15 90.1994 229.15ZM102.049 222.346C102.561 222.346 103.017 222.454 103.417 222.67C103.817 222.878 104.133 223.194 104.365 223.618C104.597 224.042 104.713 224.558 104.713 225.166V229.042H103.633V225.322C103.633 224.666 103.469 224.166 103.141 223.822C102.821 223.47 102.385 223.294 101.833 223.294C101.265 223.294 100.813 223.478 100.477 223.846C100.141 224.206 99.9729 224.73 99.9729 225.418V229.042H98.8929V225.322C98.8929 224.666 98.7289 224.166 98.4009 223.822C98.0809 223.47 97.6449 223.294 97.0929 223.294C96.5249 223.294 96.0729 223.478 95.7369 223.846C95.4009 224.206 95.2329 224.73 95.2329 225.418V229.042H94.1409V222.466H95.2329V223.414C95.4489 223.07 95.7369 222.806 96.0969 222.622C96.4649 222.438 96.8689 222.346 97.3089 222.346C97.8609 222.346 98.3489 222.47 98.7729 222.718C99.1969 222.966 99.5129 223.33 99.7209 223.81C99.9049 223.346 100.209 222.986 100.633 222.73C101.057 222.474 101.529 222.346 102.049 222.346ZM109.372 229.15C108.756 229.15 108.196 229.01 107.692 228.73C107.196 228.45 106.804 228.054 106.516 227.542C106.236 227.022 106.096 226.422 106.096 225.742C106.096 225.07 106.24 224.478 106.528 223.966C106.824 223.446 107.224 223.05 107.728 222.778C108.232 222.498 108.796 222.358 109.42 222.358C110.044 222.358 110.608 222.498 111.112 222.778C111.616 223.05 112.012 223.442 112.3 223.954C112.596 224.466 112.744 225.062 112.744 225.742C112.744 226.422 112.592 227.022 112.288 227.542C111.992 228.054 111.588 228.45 111.076 228.73C110.564 229.01 109.996 229.15 109.372 229.15ZM109.372 228.19C109.764 228.19 110.132 228.098 110.476 227.914C110.82 227.73 111.096 227.454 111.304 227.086C111.52 226.718 111.628 226.27 111.628 225.742C111.628 225.214 111.524 224.766 111.316 224.398C111.108 224.03 110.836 223.758 110.5 223.582C110.164 223.398 109.8 223.306 109.408 223.306C109.008 223.306 108.64 223.398 108.304 223.582C107.976 223.758 107.712 224.03 107.512 224.398C107.312 224.766 107.212 225.214 107.212 225.742C107.212 226.278 107.308 226.73 107.5 227.098C107.7 227.466 107.964 227.742 108.292 227.926C108.62 228.102 108.98 228.19 109.372 228.19ZM116.508 229.15C116.004 229.15 115.552 229.066 115.152 228.898C114.752 228.722 114.436 228.482 114.204 228.178C113.972 227.866 113.844 227.51 113.82 227.11H114.948C114.98 227.438 115.132 227.706 115.404 227.914C115.684 228.122 116.048 228.226 116.496 228.226C116.912 228.226 117.24 228.134 117.48 227.95C117.72 227.766 117.84 227.534 117.84 227.254C117.84 226.966 117.712 226.754 117.456 226.618C117.2 226.474 116.804 226.334 116.268 226.198C115.78 226.07 115.38 225.942 115.068 225.814C114.764 225.678 114.5 225.482 114.276 225.226C114.06 224.962 113.952 224.618 113.952 224.194C113.952 223.858 114.052 223.55 114.252 223.27C114.452 222.99 114.736 222.77 115.104 222.61C115.472 222.442 115.892 222.358 116.364 222.358C117.092 222.358 117.68 222.542 118.128 222.91C118.576 223.278 118.816 223.782 118.848 224.422H117.756C117.732 224.078 117.592 223.802 117.336 223.594C117.088 223.386 116.752 223.282 116.328 223.282C115.936 223.282 115.624 223.366 115.392 223.534C115.16 223.702 115.044 223.922 115.044 224.194C115.044 224.41 115.112 224.59 115.248 224.734C115.392 224.87 115.568 224.982 115.776 225.07C115.992 225.15 116.288 225.242 116.664 225.346C117.136 225.474 117.52 225.602 117.816 225.73C118.112 225.85 118.364 226.034 118.572 226.282C118.788 226.53 118.9 226.854 118.908 227.254C118.908 227.614 118.808 227.938 118.608 228.226C118.408 228.514 118.124 228.742 117.756 228.91C117.396 229.07 116.98 229.15 116.508 229.15ZM128.377 220.678V221.566H124.741V224.386H127.693V225.274H124.741V229.042H123.649V220.678H128.377ZM132.564 229.15C131.948 229.15 131.388 229.01 130.884 228.73C130.388 228.45 129.996 228.054 129.708 227.542C129.428 227.022 129.288 226.422 129.288 225.742C129.288 225.07 129.432 224.478 129.72 223.966C130.016 223.446 130.416 223.05 130.92 222.778C131.424 222.498 131.988 222.358 132.612 222.358C133.236 222.358 133.8 222.498 134.304 222.778C134.808 223.05 135.204 223.442 135.492 223.954C135.788 224.466 135.936 225.062 135.936 225.742C135.936 226.422 135.784 227.022 135.48 227.542C135.184 228.054 134.78 228.45 134.268 228.73C133.756 229.01 133.188 229.15 132.564 229.15ZM132.564 228.19C132.956 228.19 133.324 228.098 133.668 227.914C134.012 227.73 134.288 227.454 134.496 227.086C134.712 226.718 134.82 226.27 134.82 225.742C134.82 225.214 134.716 224.766 134.508 224.398C134.3 224.03 134.028 223.758 133.692 223.582C133.356 223.398 132.992 223.306 132.6 223.306C132.2 223.306 131.832 223.398 131.496 223.582C131.168 223.758 130.904 224.03 130.704 224.398C130.504 224.766 130.404 225.214 130.404 225.742C130.404 226.278 130.5 226.73 130.692 227.098C130.892 227.466 131.156 227.742 131.484 227.926C131.812 228.102 132.172 228.19 132.564 228.19ZM143.203 222.466V229.042H142.111V228.07C141.903 228.406 141.611 228.67 141.235 228.862C140.867 229.046 140.459 229.138 140.011 229.138C139.499 229.138 139.039 229.034 138.631 228.826C138.223 228.61 137.899 228.29 137.659 227.866C137.427 227.442 137.311 226.926 137.311 226.318V222.466H138.391V226.174C138.391 226.822 138.555 227.322 138.883 227.674C139.211 228.018 139.659 228.19 140.227 228.19C140.811 228.19 141.271 228.01 141.607 227.65C141.943 227.29 142.111 226.766 142.111 226.078V222.466H143.203ZM148.251 222.346C149.051 222.346 149.699 222.59 150.195 223.078C150.691 223.558 150.939 224.254 150.939 225.166V229.042H149.859V225.322C149.859 224.666 149.695 224.166 149.367 223.822C149.039 223.47 148.591 223.294 148.023 223.294C147.447 223.294 146.987 223.474 146.643 223.834C146.307 224.194 146.139 224.718 146.139 225.406V229.042H145.047V222.466H146.139V223.402C146.355 223.066 146.647 222.806 147.015 222.622C147.391 222.438 147.803 222.346 148.251 222.346ZM152.315 225.73C152.315 225.058 152.451 224.47 152.723 223.966C152.995 223.454 153.367 223.058 153.839 222.778C154.319 222.498 154.855 222.358 155.447 222.358C155.959 222.358 156.435 222.478 156.875 222.718C157.315 222.95 157.651 223.258 157.883 223.642V220.162H158.987V229.042H157.883V227.806C157.667 228.198 157.347 228.522 156.923 228.778C156.499 229.026 156.003 229.15 155.435 229.15C154.851 229.15 154.319 229.006 153.839 228.718C153.367 228.43 152.995 228.026 152.723 227.506C152.451 226.986 152.315 226.394 152.315 225.73ZM157.883 225.742C157.883 225.246 157.783 224.814 157.583 224.446C157.383 224.078 157.111 223.798 156.767 223.606C156.431 223.406 156.059 223.306 155.651 223.306C155.243 223.306 154.871 223.402 154.535 223.594C154.199 223.786 153.931 224.066 153.731 224.434C153.531 224.802 153.431 225.234 153.431 225.73C153.431 226.234 153.531 226.674 153.731 227.05C153.931 227.418 154.199 227.702 154.535 227.902C154.871 228.094 155.243 228.19 155.651 228.19C156.059 228.19 156.431 228.094 156.767 227.902C157.111 227.702 157.383 227.418 157.583 227.05C157.783 226.674 157.883 226.238 157.883 225.742ZM160.424 225.73C160.424 225.058 160.56 224.47 160.832 223.966C161.104 223.454 161.476 223.058 161.948 222.778C162.428 222.498 162.96 222.358 163.544 222.358C164.12 222.358 164.62 222.482 165.044 222.73C165.468 222.978 165.784 223.29 165.992 223.666V222.466H167.096V229.042H165.992V227.818C165.776 228.202 165.452 228.522 165.02 228.778C164.596 229.026 164.1 229.15 163.532 229.15C162.948 229.15 162.42 229.006 161.948 228.718C161.476 228.43 161.104 228.026 160.832 227.506C160.56 226.986 160.424 226.394 160.424 225.73ZM165.992 225.742C165.992 225.246 165.892 224.814 165.692 224.446C165.492 224.078 165.22 223.798 164.876 223.606C164.54 223.406 164.168 223.306 163.76 223.306C163.352 223.306 162.98 223.402 162.644 223.594C162.308 223.786 162.04 224.066 161.84 224.434C161.64 224.802 161.54 225.234 161.54 225.73C161.54 226.234 161.64 226.674 161.84 227.05C162.04 227.418 162.308 227.702 162.644 227.902C162.98 228.094 163.352 228.19 163.76 228.19C164.168 228.19 164.54 228.094 164.876 227.902C165.22 227.702 165.492 227.418 165.692 227.05C165.892 226.674 165.992 226.238 165.992 225.742ZM170.274 223.366V227.242C170.274 227.562 170.342 227.79 170.478 227.926C170.614 228.054 170.85 228.118 171.186 228.118H171.99V229.042H171.006C170.398 229.042 169.942 228.902 169.638 228.622C169.334 228.342 169.182 227.882 169.182 227.242V223.366H168.33V222.466H169.182V220.81H170.274V222.466H171.99V223.366H170.274ZM173.877 221.398C173.669 221.398 173.493 221.326 173.349 221.182C173.205 221.038 173.133 220.862 173.133 220.654C173.133 220.446 173.205 220.27 173.349 220.126C173.493 219.982 173.669 219.91 173.877 219.91C174.077 219.91 174.245 219.982 174.381 220.126C174.525 220.27 174.597 220.446 174.597 220.654C174.597 220.862 174.525 221.038 174.381 221.182C174.245 221.326 174.077 221.398 173.877 221.398ZM174.405 222.466V229.042H173.313V222.466H174.405ZM179.134 229.15C178.518 229.15 177.958 229.01 177.454 228.73C176.958 228.45 176.566 228.054 176.278 227.542C175.998 227.022 175.858 226.422 175.858 225.742C175.858 225.07 176.002 224.478 176.29 223.966C176.586 223.446 176.986 223.05 177.49 222.778C177.994 222.498 178.558 222.358 179.182 222.358C179.806 222.358 180.37 222.498 180.874 222.778C181.378 223.05 181.774 223.442 182.062 223.954C182.358 224.466 182.506 225.062 182.506 225.742C182.506 226.422 182.354 227.022 182.05 227.542C181.754 228.054 181.35 228.45 180.838 228.73C180.326 229.01 179.758 229.15 179.134 229.15ZM179.134 228.19C179.526 228.19 179.894 228.098 180.238 227.914C180.582 227.73 180.858 227.454 181.066 227.086C181.282 226.718 181.39 226.27 181.39 225.742C181.39 225.214 181.286 224.766 181.078 224.398C180.87 224.03 180.598 223.758 180.262 223.582C179.926 223.398 179.562 223.306 179.17 223.306C178.77 223.306 178.402 223.398 178.066 223.582C177.738 223.758 177.474 224.03 177.274 224.398C177.074 224.766 176.974 225.214 176.974 225.742C176.974 226.278 177.07 226.73 177.262 227.098C177.462 227.466 177.726 227.742 178.054 227.926C178.382 228.102 178.742 228.19 179.134 228.19ZM187.146 222.346C187.946 222.346 188.594 222.59 189.09 223.078C189.586 223.558 189.834 224.254 189.834 225.166V229.042H188.754V225.322C188.754 224.666 188.59 224.166 188.262 223.822C187.934 223.47 187.486 223.294 186.918 223.294C186.342 223.294 185.882 223.474 185.538 223.834C185.202 224.194 185.034 224.718 185.034 225.406V229.042H183.942V222.466H185.034V223.402C185.25 223.066 185.542 222.806 185.91 222.622C186.286 222.438 186.698 222.346 187.146 222.346Z" fill="black"/>
<path d="M54 253.651L71.5 237.965H191" stroke="#FED9B2" stroke-linecap="round"/>
<path d="M69.9732 292.156C69.4798 297.507 70.3141 303.478 73.6777 306.142C77.0984 308.139 83.6659 301.963 85.9969 300.08C92.2617 295.018 87.557 287.854 79.9013 285.55C69.694 282.477 70.1024 290.756 69.9732 292.156Z" fill="white" fill-opacity="0.5"/>
<path d="M77.6225 287.056C73.2607 285.135 66.4395 286.614 64.2662 288.566C61.926 291.882 66.6908 300.005 68.2294 302.651C71.5754 308.403 77.284 308.67 80.0499 301.422C84.5117 289.731 79.0822 287.699 77.6225 287.056Z" fill="white" fill-opacity="0.3"/>
<path d="M71.4442 291.881V290.333H74.3362V299.081H72.6082V291.881H71.4442ZM76.5239 297.185C77.2919 296.545 77.9039 296.013 78.3599 295.589C78.8159 295.157 79.1959 294.709 79.4999 294.245C79.8039 293.781 79.9559 293.325 79.9559 292.877C79.9559 292.469 79.8599 292.149 79.6679 291.917C79.4759 291.685 79.1799 291.569 78.7799 291.569C78.3799 291.569 78.0719 291.705 77.8559 291.977C77.6399 292.241 77.5279 292.605 77.5199 293.069H75.8879C75.9199 292.109 76.2039 291.381 76.7399 290.885C77.2839 290.389 77.9719 290.141 78.8039 290.141C79.7159 290.141 80.4159 290.385 80.9039 290.873C81.3919 291.353 81.6359 291.989 81.6359 292.781C81.6359 293.405 81.4679 294.001 81.1319 294.569C80.7959 295.137 80.4119 295.633 79.9799 296.057C79.5479 296.473 78.9839 296.977 78.2879 297.569H81.8279V298.961H75.8999V297.713L76.5239 297.185ZM83.8225 299.165C83.5185 299.165 83.2665 299.073 83.0665 298.889C82.8745 298.697 82.7785 298.461 82.7785 298.181C82.7785 297.901 82.8745 297.669 83.0665 297.485C83.2665 297.293 83.5185 297.197 83.8225 297.197C84.1185 297.197 84.3625 297.293 84.5545 297.485C84.7465 297.669 84.8425 297.901 84.8425 298.181C84.8425 298.461 84.7465 298.697 84.5545 298.889C84.3625 299.073 84.1185 299.165 83.8225 299.165ZM91.8837 291.785H87.9957V293.837C88.1637 293.629 88.4037 293.461 88.7157 293.333C89.0277 293.197 89.3597 293.129 89.7117 293.129C90.3517 293.129 90.8757 293.269 91.2837 293.549C91.6917 293.829 91.9877 294.189 92.1717 294.629C92.3557 295.061 92.4477 295.525 92.4477 296.021C92.4477 296.941 92.1837 297.681 91.6557 298.241C91.1357 298.801 90.3917 299.081 89.4237 299.081C88.5117 299.081 87.7837 298.853 87.2397 298.397C86.6957 297.941 86.3877 297.345 86.3157 296.609H87.9477C88.0197 296.929 88.1797 297.185 88.4277 297.377C88.6837 297.569 89.0077 297.665 89.3997 297.665C89.8717 297.665 90.2277 297.517 90.4677 297.221C90.7077 296.925 90.8277 296.533 90.8277 296.045C90.8277 295.549 90.7037 295.173 90.4557 294.917C90.2157 294.653 89.8597 294.521 89.3877 294.521C89.0517 294.521 88.7717 294.605 88.5477 294.773C88.3237 294.941 88.1637 295.165 88.0677 295.445H86.4597V290.309H91.8837V291.785ZM105.91 290.705V299.081H104.23V293.633L101.986 299.081H100.714L98.4577 293.633V299.081H96.7777V290.705H98.6857L101.35 296.933L104.014 290.705H105.91ZM116.703 290.705V299.081H115.023V293.633L112.779 299.081H111.507L109.251 293.633V299.081H107.571V290.705H109.479L112.143 296.933L114.807 290.705H116.703Z" fill="black"/>
<path d="M76.6642 309.423V310.311H73.0282V313.131H75.9802V314.019H73.0282V317.787H71.9362V309.423H76.6642ZM80.8511 317.895C80.2351 317.895 79.6751 317.755 79.1711 317.475C78.6751 317.195 78.2831 316.799 77.9951 316.287C77.7151 315.767 77.5751 315.167 77.5751 314.487C77.5751 313.815 77.7191 313.223 78.0071 312.711C78.3031 312.191 78.7031 311.795 79.2071 311.523C79.7111 311.243 80.2751 311.103 80.8991 311.103C81.5231 311.103 82.0871 311.243 82.5911 311.523C83.0951 311.795 83.4911 312.187 83.7791 312.699C84.0751 313.211 84.2231 313.807 84.2231 314.487C84.2231 315.167 84.0711 315.767 83.7671 316.287C83.4711 316.799 83.0671 317.195 82.5551 317.475C82.0431 317.755 81.4751 317.895 80.8511 317.895ZM80.8511 316.935C81.2431 316.935 81.6111 316.843 81.9551 316.659C82.2991 316.475 82.5751 316.199 82.7831 315.831C82.9991 315.463 83.1071 315.015 83.1071 314.487C83.1071 313.959 83.0031 313.511 82.7951 313.143C82.5871 312.775 82.3151 312.503 81.9791 312.327C81.6431 312.143 81.2791 312.051 80.8871 312.051C80.4871 312.051 80.1191 312.143 79.7831 312.327C79.4551 312.503 79.1911 312.775 78.9911 313.143C78.7911 313.511 78.6911 313.959 78.6911 314.487C78.6911 315.023 78.7871 315.475 78.9791 315.843C79.1791 316.211 79.4431 316.487 79.7711 316.671C80.0991 316.847 80.4591 316.935 80.8511 316.935ZM86.7509 312.279C86.9429 311.903 87.2149 311.611 87.5669 311.403C87.9269 311.195 88.3629 311.091 88.8749 311.091V312.219H88.5869C87.3629 312.219 86.7509 312.883 86.7509 314.211V317.787H85.6589V311.211H86.7509V312.279ZM91.2274 312.435C91.4514 312.043 91.7794 311.723 92.2114 311.475C92.6434 311.227 93.1354 311.103 93.6874 311.103C94.2794 311.103 94.8114 311.243 95.2834 311.523C95.7554 311.803 96.1274 312.199 96.3994 312.711C96.6714 313.215 96.8074 313.803 96.8074 314.475C96.8074 315.139 96.6714 315.731 96.3994 316.251C96.1274 316.771 95.7514 317.175 95.2714 317.463C94.7994 317.751 94.2714 317.895 93.6874 317.895C93.1194 317.895 92.6194 317.771 92.1874 317.523C91.7634 317.275 91.4434 316.959 91.2274 316.575V317.787H90.1354V308.907H91.2274V312.435ZM95.6914 314.475C95.6914 313.979 95.5914 313.547 95.3914 313.179C95.1914 312.811 94.9194 312.531 94.5754 312.339C94.2394 312.147 93.8674 312.051 93.4594 312.051C93.0594 312.051 92.6874 312.151 92.3434 312.351C92.0074 312.543 91.7354 312.827 91.5274 313.203C91.3274 313.571 91.2274 313.999 91.2274 314.487C91.2274 314.983 91.3274 315.419 91.5274 315.795C91.7354 316.163 92.0074 316.447 92.3434 316.647C92.6874 316.839 93.0594 316.935 93.4594 316.935C93.8674 316.935 94.2394 316.839 94.5754 316.647C94.9194 316.447 95.1914 316.163 95.3914 315.795C95.5914 315.419 95.6914 314.979 95.6914 314.475ZM101.113 317.895C100.497 317.895 99.9368 317.755 99.4328 317.475C98.9368 317.195 98.5448 316.799 98.2568 316.287C97.9768 315.767 97.8368 315.167 97.8368 314.487C97.8368 313.815 97.9808 313.223 98.2688 312.711C98.5648 312.191 98.9648 311.795 99.4688 311.523C99.9728 311.243 100.537 311.103 101.161 311.103C101.785 311.103 102.349 311.243 102.853 311.523C103.357 311.795 103.753 312.187 104.041 312.699C104.337 313.211 104.485 313.807 104.485 314.487C104.485 315.167 104.333 315.767 104.029 316.287C103.733 316.799 103.329 317.195 102.817 317.475C102.305 317.755 101.737 317.895 101.113 317.895ZM101.113 316.935C101.505 316.935 101.873 316.843 102.217 316.659C102.561 316.475 102.837 316.199 103.045 315.831C103.261 315.463 103.369 315.015 103.369 314.487C103.369 313.959 103.265 313.511 103.057 313.143C102.849 312.775 102.577 312.503 102.241 312.327C101.905 312.143 101.541 312.051 101.149 312.051C100.749 312.051 100.381 312.143 100.045 312.327C99.7168 312.503 99.4528 312.775 99.2528 313.143C99.0528 313.511 98.9528 313.959 98.9528 314.487C98.9528 315.023 99.0488 315.475 99.2408 315.843C99.4408 316.211 99.7048 316.487 100.033 316.671C100.361 316.847 100.721 316.935 101.113 316.935ZM107.013 308.907V317.787H105.921V308.907H107.013ZM114.874 314.247C114.874 314.455 114.862 314.675 114.838 314.907H109.582C109.622 315.555 109.842 316.063 110.242 316.431C110.65 316.791 111.142 316.971 111.718 316.971C112.19 316.971 112.582 316.863 112.894 316.647C113.214 316.423 113.438 316.127 113.566 315.759H114.742C114.566 316.391 114.214 316.907 113.686 317.307C113.158 317.699 112.502 317.895 111.718 317.895C111.094 317.895 110.534 317.755 110.038 317.475C109.55 317.195 109.166 316.799 108.886 316.287C108.606 315.767 108.466 315.167 108.466 314.487C108.466 313.807 108.602 313.211 108.874 312.699C109.146 312.187 109.526 311.795 110.014 311.523C110.51 311.243 111.078 311.103 111.718 311.103C112.342 311.103 112.894 311.239 113.374 311.511C113.854 311.783 114.222 312.159 114.478 312.639C114.742 313.111 114.874 313.647 114.874 314.247ZM113.746 314.019C113.746 313.603 113.654 313.247 113.47 312.951C113.286 312.647 113.034 312.419 112.714 312.267C112.402 312.107 112.054 312.027 111.67 312.027C111.118 312.027 110.646 312.203 110.254 312.555C109.87 312.907 109.65 313.395 109.594 314.019H113.746ZM126.426 309.423L123.27 317.787H122.01L118.854 309.423H120.018L122.646 316.635L125.274 309.423H126.426ZM133.624 314.247C133.624 314.455 133.612 314.675 133.588 314.907H128.332C128.372 315.555 128.592 316.063 128.992 316.431C129.4 316.791 129.892 316.971 130.468 316.971C130.94 316.971 131.332 316.863 131.644 316.647C131.964 316.423 132.188 316.127 132.316 315.759H133.492C133.316 316.391 132.964 316.907 132.436 317.307C131.908 317.699 131.252 317.895 130.468 317.895C129.844 317.895 129.284 317.755 128.788 317.475C128.3 317.195 127.916 316.799 127.636 316.287C127.356 315.767 127.216 315.167 127.216 314.487C127.216 313.807 127.352 313.211 127.624 312.699C127.896 312.187 128.276 311.795 128.764 311.523C129.26 311.243 129.828 311.103 130.468 311.103C131.092 311.103 131.644 311.239 132.124 311.511C132.604 311.783 132.972 312.159 133.228 312.639C133.492 313.111 133.624 313.647 133.624 314.247ZM132.496 314.019C132.496 313.603 132.404 313.247 132.22 312.951C132.036 312.647 131.784 312.419 131.464 312.267C131.152 312.107 130.804 312.027 130.42 312.027C129.868 312.027 129.396 312.203 129.004 312.555C128.62 312.907 128.4 313.395 128.344 314.019H132.496ZM138.269 311.091C139.069 311.091 139.717 311.335 140.213 311.823C140.709 312.303 140.957 312.999 140.957 313.911V317.787H139.877V314.067C139.877 313.411 139.713 312.911 139.385 312.567C139.057 312.215 138.609 312.039 138.041 312.039C137.465 312.039 137.005 312.219 136.661 312.579C136.325 312.939 136.157 313.463 136.157 314.151V317.787H135.065V311.211H136.157V312.147C136.373 311.811 136.665 311.551 137.033 311.367C137.409 311.183 137.821 311.091 138.269 311.091ZM144.073 312.111V315.987C144.073 316.307 144.141 316.535 144.277 316.671C144.413 316.799 144.649 316.863 144.985 316.863H145.789V317.787H144.805C144.197 317.787 143.741 317.647 143.437 317.367C143.133 317.087 142.981 316.627 142.981 315.987V312.111H142.129V311.211H142.981V309.555H144.073V311.211H145.789V312.111H144.073ZM152.944 311.211V317.787H151.852V316.815C151.644 317.151 151.352 317.415 150.976 317.607C150.608 317.791 150.2 317.883 149.752 317.883C149.24 317.883 148.78 317.779 148.372 317.571C147.964 317.355 147.64 317.035 147.4 316.611C147.168 316.187 147.052 315.671 147.052 315.063V311.211H148.132V314.919C148.132 315.567 148.296 316.067 148.624 316.419C148.952 316.763 149.4 316.935 149.968 316.935C150.552 316.935 151.012 316.755 151.348 316.395C151.684 316.035 151.852 315.511 151.852 314.823V311.211H152.944ZM155.88 312.279C156.072 311.903 156.344 311.611 156.696 311.403C157.056 311.195 157.492 311.091 158.004 311.091V312.219H157.716C156.492 312.219 155.88 312.883 155.88 314.211V317.787H154.788V311.211H155.88V312.279ZM165.264 314.247C165.264 314.455 165.252 314.675 165.228 314.907H159.972C160.012 315.555 160.232 316.063 160.632 316.431C161.04 316.791 161.532 316.971 162.108 316.971C162.58 316.971 162.972 316.863 163.284 316.647C163.604 316.423 163.828 316.127 163.956 315.759H165.132C164.956 316.391 164.604 316.907 164.076 317.307C163.548 317.699 162.892 317.895 162.108 317.895C161.484 317.895 160.924 317.755 160.428 317.475C159.94 317.195 159.556 316.799 159.276 316.287C158.996 315.767 158.856 315.167 158.856 314.487C158.856 313.807 158.992 313.211 159.264 312.699C159.536 312.187 159.916 311.795 160.404 311.523C160.9 311.243 161.468 311.103 162.108 311.103C162.732 311.103 163.284 311.239 163.764 311.511C164.244 311.783 164.612 312.159 164.868 312.639C165.132 313.111 165.264 313.647 165.264 314.247ZM164.136 314.019C164.136 313.603 164.044 313.247 163.86 312.951C163.676 312.647 163.424 312.419 163.104 312.267C162.792 312.107 162.444 312.027 162.06 312.027C161.508 312.027 161.036 312.203 160.644 312.555C160.26 312.907 160.04 313.395 159.984 314.019H164.136ZM169.034 317.895C168.53 317.895 168.078 317.811 167.678 317.643C167.278 317.467 166.962 317.227 166.73 316.923C166.498 316.611 166.37 316.255 166.346 315.855H167.474C167.506 316.183 167.658 316.451 167.93 316.659C168.21 316.867 168.574 316.971 169.022 316.971C169.438 316.971 169.766 316.879 170.006 316.695C170.246 316.511 170.366 316.279 170.366 315.999C170.366 315.711 170.238 315.499 169.982 315.363C169.726 315.219 169.33 315.079 168.794 314.943C168.306 314.815 167.906 314.687 167.594 314.559C167.29 314.423 167.026 314.227 166.802 313.971C166.586 313.707 166.478 313.363 166.478 312.939C166.478 312.603 166.578 312.295 166.778 312.015C166.978 311.735 167.262 311.515 167.63 311.355C167.998 311.187 168.418 311.103 168.89 311.103C169.618 311.103 170.206 311.287 170.654 311.655C171.102 312.023 171.342 312.527 171.374 313.167H170.282C170.258 312.823 170.118 312.547 169.862 312.339C169.614 312.131 169.278 312.027 168.854 312.027C168.462 312.027 168.15 312.111 167.918 312.279C167.686 312.447 167.57 312.667 167.57 312.939C167.57 313.155 167.638 313.335 167.774 313.479C167.918 313.615 168.094 313.727 168.302 313.815C168.518 313.895 168.814 313.987 169.19 314.091C169.662 314.219 170.046 314.347 170.342 314.475C170.638 314.595 170.89 314.779 171.098 315.027C171.314 315.275 171.426 315.599 171.434 315.999C171.434 316.359 171.334 316.683 171.134 316.971C170.934 317.259 170.65 317.487 170.282 317.655C169.922 317.815 169.506 317.895 169.034 317.895Z" fill="black"/>
<path d="M54 343.171L71 327.485H178.5" stroke="#FED9B2" stroke-linecap="round"/>
<path d="M54 64.9895L71 49.3033H200" stroke="#FED9B2" stroke-linecap="round"/>
<path d="M69.8445 12.4118C69.3585 17.6556 70.1801 23.5077 73.4924 26.1178C76.861 28.0753 83.3285 22.0226 85.6239 20.1771C91.7933 15.2168 87.1603 8.19611 79.6213 5.93785C69.5695 2.9269 69.9716 11.0396 69.8445 12.4118Z" fill="white" fill-opacity="0.5"/>
<path d="M77.3769 7.60965C73.0815 5.72703 66.3642 7.17671 64.2241 9.08989C61.9195 12.3396 66.6117 20.3001 68.1269 22.8925C71.4219 28.5302 77.0435 28.7914 79.7673 21.689C84.1611 10.2316 78.8143 8.23968 77.3769 7.60965Z" fill="white" fill-opacity="0.3"/>
<path d="M72.9525 20.1665C73.8485 19.4198 74.5625 18.7992 75.0945 18.3045C75.6265 17.8005 76.0698 17.2778 76.4245 16.7365C76.7791 16.1952 76.9565 15.6632 76.9565 15.1405C76.9565 14.6645 76.8445 14.2912 76.6205 14.0205C76.3965 13.7498 76.0511 13.6145 75.5845 13.6145C75.1178 13.6145 74.7585 13.7732 74.5065 14.0905C74.2545 14.3985 74.1238 14.8232 74.1145 15.3645H72.2105C72.2478 14.2445 72.5791 13.3952 73.2045 12.8165C73.8391 12.2378 74.6418 11.9485 75.6125 11.9485C76.6765 11.9485 77.4931 12.2332 78.0625 12.8025C78.6318 13.3625 78.9165 14.1045 78.9165 15.0285C78.9165 15.7565 78.7205 16.4518 78.3285 17.1145C77.9365 17.7772 77.4885 18.3558 76.9845 18.8505C76.4805 19.3358 75.8225 19.9238 75.0105 20.6145H79.1405V22.2385H72.2245V20.7825L72.9525 20.1665ZM81.4675 22.4765C81.1129 22.4765 80.8189 22.3692 80.5855 22.1545C80.3615 21.9305 80.2495 21.6552 80.2495 21.3285C80.2495 21.0018 80.3615 20.7312 80.5855 20.5165C80.8189 20.2925 81.1129 20.1805 81.4675 20.1805C81.8129 20.1805 82.0975 20.2925 82.3215 20.5165C82.5455 20.7312 82.6575 21.0018 82.6575 21.3285C82.6575 21.6552 82.5455 21.9305 82.3215 22.1545C82.0975 22.3692 81.8129 22.4765 81.4675 22.4765ZM84.0403 14.8605C84.0869 13.9272 84.4136 13.2085 85.0203 12.7045C85.6363 12.1912 86.4436 11.9345 87.4423 11.9345C88.1236 11.9345 88.7069 12.0558 89.1923 12.2985C89.6776 12.5318 90.0416 12.8538 90.2843 13.2645C90.5363 13.6658 90.6623 14.1232 90.6623 14.6365C90.6623 15.2245 90.5083 15.7238 90.2003 16.1345C89.9016 16.5358 89.5423 16.8065 89.1223 16.9465V17.0025C89.6636 17.1705 90.0836 17.4692 90.3823 17.8985C90.6903 18.3278 90.8443 18.8785 90.8443 19.5505C90.8443 20.1105 90.7136 20.6098 90.4523 21.0485C90.2003 21.4872 89.8223 21.8325 89.3183 22.0845C88.8236 22.3272 88.2263 22.4485 87.5263 22.4485C86.4716 22.4485 85.6129 22.1825 84.9503 21.6505C84.2876 21.1185 83.9376 20.3345 83.9003 19.2985H85.8043C85.8229 19.7558 85.9769 20.1245 86.2663 20.4045C86.5649 20.6752 86.9709 20.8105 87.4843 20.8105C87.9603 20.8105 88.3243 20.6798 88.5763 20.4185C88.8376 20.1478 88.9683 19.8025 88.9683 19.3825C88.9683 18.8225 88.7909 18.4212 88.4363 18.1785C88.0816 17.9358 87.5309 17.8145 86.7843 17.8145H86.3783V16.2045H86.7843C88.1096 16.2045 88.7723 15.7612 88.7723 14.8745C88.7723 14.4732 88.6509 14.1605 88.4083 13.9365C88.1749 13.7125 87.8343 13.6005 87.3863 13.6005C86.9476 13.6005 86.6069 13.7218 86.3643 13.9645C86.1309 14.1978 85.9956 14.4965 85.9583 14.8605H84.0403ZM106.607 12.6065V22.3785H104.647V16.0225L102.029 22.3785H100.545L97.9131 16.0225V22.3785H95.9531V12.6065H98.1791L101.287 19.8725L104.395 12.6065H106.607ZM119.199 12.6065V22.3785H117.239V16.0225L114.621 22.3785H113.137L110.505 16.0225V22.3785H108.545V12.6065H110.771L113.879 19.8725L116.987 12.6065H119.199Z" fill="black"/>
<path d="M78.016 34.4267C78.016 35.1227 77.776 35.7027 77.296 36.1667C76.824 36.6227 76.1 36.8507 75.124 36.8507H73.516V40.3427H72.424V31.9787H75.124C76.068 31.9787 76.784 32.2067 77.272 32.6627C77.768 33.1187 78.016 33.7067 78.016 34.4267ZM75.124 35.9507C75.732 35.9507 76.18 35.8187 76.468 35.5547C76.756 35.2907 76.9 34.9147 76.9 34.4267C76.9 33.3947 76.308 32.8787 75.124 32.8787H73.516V35.9507H75.124ZM80.4652 34.8347C80.6572 34.4587 80.9292 34.1667 81.2812 33.9587C81.6412 33.7507 82.0772 33.6467 82.5892 33.6467V34.7747H82.3012C81.0772 34.7747 80.4652 35.4387 80.4652 36.7667V40.3427H79.3732V33.7667H80.4652V34.8347ZM89.8498 36.8027C89.8498 37.0107 89.8378 37.2307 89.8138 37.4627H84.5578C84.5978 38.1107 84.8178 38.6187 85.2178 38.9867C85.6258 39.3467 86.1178 39.5267 86.6938 39.5267C87.1658 39.5267 87.5578 39.4187 87.8698 39.2027C88.1898 38.9787 88.4138 38.6827 88.5418 38.3147H89.7178C89.5418 38.9467 89.1898 39.4627 88.6618 39.8627C88.1338 40.2547 87.4778 40.4507 86.6938 40.4507C86.0698 40.4507 85.5098 40.3107 85.0138 40.0307C84.5258 39.7507 84.1418 39.3547 83.8618 38.8427C83.5818 38.3227 83.4418 37.7227 83.4418 37.0427C83.4418 36.3627 83.5778 35.7667 83.8498 35.2547C84.1218 34.7427 84.5018 34.3507 84.9898 34.0787C85.4858 33.7987 86.0538 33.6587 86.6938 33.6587C87.3178 33.6587 87.8698 33.7947 88.3498 34.0667C88.8298 34.3387 89.1978 34.7147 89.4538 35.1947C89.7178 35.6667 89.8498 36.2027 89.8498 36.8027ZM88.7218 36.5747C88.7218 36.1587 88.6298 35.8027 88.4458 35.5067C88.2618 35.2027 88.0098 34.9747 87.6898 34.8227C87.3778 34.6627 87.0298 34.5827 86.6458 34.5827C86.0938 34.5827 85.6218 34.7587 85.2298 35.1107C84.8458 35.4627 84.6258 35.9507 84.5698 36.5747H88.7218ZM95.8512 35.4827V36.4067H91.0632V35.4827H95.8512ZM105.809 33.6467C106.321 33.6467 106.777 33.7547 107.177 33.9707C107.577 34.1787 107.893 34.4947 108.125 34.9187C108.357 35.3427 108.473 35.8587 108.473 36.4667V40.3427H107.393V36.6227C107.393 35.9667 107.229 35.4667 106.901 35.1227C106.581 34.7707 106.145 34.5947 105.593 34.5947C105.025 34.5947 104.573 34.7787 104.237 35.1467C103.901 35.5067 103.733 36.0307 103.733 36.7187V40.3427H102.653V36.6227C102.653 35.9667 102.489 35.4667 102.161 35.1227C101.841 34.7707 101.405 34.5947 100.853 34.5947C100.285 34.5947 99.8326 34.7787 99.4966 35.1467C99.1606 35.5067 98.9926 36.0307 98.9926 36.7187V40.3427H97.9006V33.7667H98.9926V34.7147C99.2086 34.3707 99.4966 34.1067 99.8566 33.9227C100.225 33.7387 100.629 33.6467 101.069 33.6467C101.621 33.6467 102.109 33.7707 102.533 34.0187C102.957 34.2667 103.273 34.6307 103.481 35.1107C103.665 34.6467 103.969 34.2867 104.393 34.0307C104.817 33.7747 105.289 33.6467 105.809 33.6467ZM109.856 37.0307C109.856 36.3587 109.992 35.7707 110.264 35.2667C110.536 34.7547 110.908 34.3587 111.38 34.0787C111.86 33.7987 112.392 33.6587 112.976 33.6587C113.552 33.6587 114.052 33.7827 114.476 34.0307C114.9 34.2787 115.216 34.5907 115.424 34.9667V33.7667H116.528V40.3427H115.424V39.1187C115.208 39.5027 114.884 39.8227 114.452 40.0787C114.028 40.3267 113.532 40.4507 112.964 40.4507C112.38 40.4507 111.852 40.3067 111.38 40.0187C110.908 39.7307 110.536 39.3267 110.264 38.8067C109.992 38.2867 109.856 37.6947 109.856 37.0307ZM115.424 37.0427C115.424 36.5467 115.324 36.1147 115.124 35.7467C114.924 35.3787 114.652 35.0987 114.308 34.9067C113.972 34.7067 113.6 34.6067 113.192 34.6067C112.784 34.6067 112.412 34.7027 112.076 34.8947C111.74 35.0867 111.472 35.3667 111.272 35.7347C111.072 36.1027 110.972 36.5347 110.972 37.0307C110.972 37.5347 111.072 37.9747 111.272 38.3507C111.472 38.7187 111.74 39.0027 112.076 39.2027C112.412 39.3947 112.784 39.4907 113.192 39.4907C113.6 39.4907 113.972 39.3947 114.308 39.2027C114.652 39.0027 114.924 38.7187 115.124 38.3507C115.324 37.9747 115.424 37.5387 115.424 37.0427ZM118.937 32.6987C118.729 32.6987 118.553 32.6267 118.409 32.4827C118.265 32.3387 118.193 32.1627 118.193 31.9547C118.193 31.7467 118.265 31.5707 118.409 31.4267C118.553 31.2827 118.729 31.2107 118.937 31.2107C119.137 31.2107 119.305 31.2827 119.441 31.4267C119.585 31.5707 119.657 31.7467 119.657 31.9547C119.657 32.1627 119.585 32.3387 119.441 32.4827C119.305 32.6267 119.137 32.6987 118.937 32.6987ZM119.465 33.7667V40.3427H118.373V33.7667H119.465ZM124.53 33.6467C125.33 33.6467 125.978 33.8907 126.474 34.3787C126.97 34.8587 127.218 35.5547 127.218 36.4667V40.3427H126.138V36.6227C126.138 35.9667 125.974 35.4667 125.646 35.1227C125.318 34.7707 124.87 34.5947 124.302 34.5947C123.726 34.5947 123.266 34.7747 122.922 35.1347C122.586 35.4947 122.418 36.0187 122.418 36.7067V40.3427H121.326V33.7667H122.418V34.7027C122.634 34.3667 122.926 34.1067 123.294 33.9227C123.67 33.7387 124.082 33.6467 124.53 33.6467ZM132.206 33.6467C133.006 33.6467 133.654 33.8907 134.15 34.3787C134.646 34.8587 134.894 35.5547 134.894 36.4667V40.3427H133.814V36.6227C133.814 35.9667 133.65 35.4667 133.322 35.1227C132.994 34.7707 132.546 34.5947 131.978 34.5947C131.402 34.5947 130.942 34.7747 130.598 35.1347C130.262 35.4947 130.094 36.0187 130.094 36.7067V40.3427H129.002V33.7667H130.094V34.7027C130.31 34.3667 130.602 34.1067 130.97 33.9227C131.346 33.7387 131.758 33.6467 132.206 33.6467ZM142.678 36.8027C142.678 37.0107 142.666 37.2307 142.642 37.4627H137.386C137.426 38.1107 137.646 38.6187 138.046 38.9867C138.454 39.3467 138.946 39.5267 139.522 39.5267C139.994 39.5267 140.386 39.4187 140.698 39.2027C141.018 38.9787 141.242 38.6827 141.37 38.3147H142.546C142.37 38.9467 142.018 39.4627 141.49 39.8627C140.962 40.2547 140.306 40.4507 139.522 40.4507C138.898 40.4507 138.338 40.3107 137.842 40.0307C137.354 39.7507 136.97 39.3547 136.69 38.8427C136.41 38.3227 136.27 37.7227 136.27 37.0427C136.27 36.3627 136.406 35.7667 136.678 35.2547C136.95 34.7427 137.33 34.3507 137.818 34.0787C138.314 33.7987 138.882 33.6587 139.522 33.6587C140.146 33.6587 140.698 33.7947 141.178 34.0667C141.658 34.3387 142.026 34.7147 142.282 35.1947C142.546 35.6667 142.678 36.2027 142.678 36.8027ZM141.55 36.5747C141.55 36.1587 141.458 35.8027 141.274 35.5067C141.09 35.2027 140.838 34.9747 140.518 34.8227C140.206 34.6627 139.858 34.5827 139.474 34.5827C138.922 34.5827 138.45 34.7587 138.058 35.1107C137.674 35.4627 137.454 35.9507 137.398 36.5747H141.55ZM145.451 34.6667V38.5427C145.451 38.8627 145.519 39.0907 145.655 39.2267C145.791 39.3547 146.027 39.4187 146.363 39.4187H147.167V40.3427H146.183C145.575 40.3427 145.119 40.2027 144.815 39.9227C144.511 39.6427 144.359 39.1827 144.359 38.5427V34.6667H143.507V33.7667H144.359V32.1107H145.451V33.7667H147.167V34.6667H145.451ZM152.782 34.8347C152.974 34.4587 153.246 34.1667 153.598 33.9587C153.958 33.7507 154.394 33.6467 154.906 33.6467V34.7747H154.618C153.394 34.7747 152.782 35.4387 152.782 36.7667V40.3427H151.69V33.7667H152.782V34.8347ZM162.166 36.8027C162.166 37.0107 162.154 37.2307 162.13 37.4627H156.874C156.914 38.1107 157.134 38.6187 157.534 38.9867C157.942 39.3467 158.434 39.5267 159.01 39.5267C159.482 39.5267 159.874 39.4187 160.186 39.2027C160.506 38.9787 160.73 38.6827 160.858 38.3147H162.034C161.858 38.9467 161.506 39.4627 160.978 39.8627C160.45 40.2547 159.794 40.4507 159.01 40.4507C158.386 40.4507 157.826 40.3107 157.33 40.0307C156.842 39.7507 156.458 39.3547 156.178 38.8427C155.898 38.3227 155.758 37.7227 155.758 37.0427C155.758 36.3627 155.894 35.7667 156.166 35.2547C156.438 34.7427 156.818 34.3507 157.306 34.0787C157.802 33.7987 158.37 33.6587 159.01 33.6587C159.634 33.6587 160.186 33.7947 160.666 34.0667C161.146 34.3387 161.514 34.7147 161.77 35.1947C162.034 35.6667 162.166 36.2027 162.166 36.8027ZM161.038 36.5747C161.038 36.1587 160.946 35.8027 160.762 35.5067C160.578 35.2027 160.326 34.9747 160.006 34.8227C159.694 34.6627 159.346 34.5827 158.962 34.5827C158.41 34.5827 157.938 34.7587 157.546 35.1107C157.162 35.4627 156.942 35.9507 156.886 36.5747H161.038ZM172.368 33.7667L170.316 40.3427H169.188L167.604 35.1227L166.02 40.3427H164.892L162.828 33.7667H163.944L165.456 39.2867L167.088 33.7667H168.204L169.8 39.2987L171.288 33.7667H172.368ZM173.043 37.0307C173.043 36.3587 173.179 35.7707 173.451 35.2667C173.723 34.7547 174.095 34.3587 174.567 34.0787C175.047 33.7987 175.579 33.6587 176.163 33.6587C176.739 33.6587 177.239 33.7827 177.663 34.0307C178.087 34.2787 178.403 34.5907 178.611 34.9667V33.7667H179.715V40.3427H178.611V39.1187C178.395 39.5027 178.071 39.8227 177.639 40.0787C177.215 40.3267 176.719 40.4507 176.151 40.4507C175.567 40.4507 175.039 40.3067 174.567 40.0187C174.095 39.7307 173.723 39.3267 173.451 38.8067C173.179 38.2867 173.043 37.6947 173.043 37.0307ZM178.611 37.0427C178.611 36.5467 178.511 36.1147 178.311 35.7467C178.111 35.3787 177.839 35.0987 177.495 34.9067C177.159 34.7067 176.787 34.6067 176.379 34.6067C175.971 34.6067 175.599 34.7027 175.263 34.8947C174.927 35.0867 174.659 35.3667 174.459 35.7347C174.259 36.1027 174.159 36.5347 174.159 37.0307C174.159 37.5347 174.259 37.9747 174.459 38.3507C174.659 38.7187 174.927 39.0027 175.263 39.2027C175.599 39.3947 175.971 39.4907 176.379 39.4907C176.787 39.4907 177.159 39.3947 177.495 39.2027C177.839 39.0027 178.111 38.7187 178.311 38.3507C178.511 37.9747 178.611 37.5387 178.611 37.0427ZM182.653 34.8347C182.845 34.4587 183.117 34.1667 183.469 33.9587C183.829 33.7507 184.265 33.6467 184.777 33.6467V34.7747H184.489C183.265 34.7747 182.653 35.4387 182.653 36.7667V40.3427H181.561V33.7667H182.653V34.8347ZM185.629 37.0307C185.629 36.3587 185.765 35.7707 186.037 35.2667C186.309 34.7547 186.681 34.3587 187.153 34.0787C187.633 33.7987 188.169 33.6587 188.761 33.6587C189.273 33.6587 189.749 33.7787 190.189 34.0187C190.629 34.2507 190.965 34.5587 191.197 34.9427V31.4627H192.301V40.3427H191.197V39.1067C190.981 39.4987 190.661 39.8227 190.237 40.0787C189.813 40.3267 189.317 40.4507 188.749 40.4507C188.165 40.4507 187.633 40.3067 187.153 40.0187C186.681 39.7307 186.309 39.3267 186.037 38.8067C185.765 38.2867 185.629 37.6947 185.629 37.0307ZM191.197 37.0427C191.197 36.5467 191.097 36.1147 190.897 35.7467C190.697 35.3787 190.425 35.0987 190.081 34.9067C189.745 34.7067 189.373 34.6067 188.965 34.6067C188.557 34.6067 188.185 34.7027 187.849 34.8947C187.513 35.0867 187.245 35.3667 187.045 35.7347C186.845 36.1027 186.745 36.5347 186.745 37.0307C186.745 37.5347 186.845 37.9747 187.045 38.3507C187.245 38.7187 187.513 39.0027 187.849 39.2027C188.185 39.3947 188.557 39.4907 188.965 39.4907C189.373 39.4907 189.745 39.3947 190.081 39.2027C190.425 39.0027 190.697 38.7187 190.897 38.3507C191.097 37.9747 191.197 37.5387 191.197 37.0427ZM196.475 40.4507C195.971 40.4507 195.519 40.3667 195.119 40.1987C194.719 40.0227 194.403 39.7827 194.171 39.4787C193.939 39.1667 193.811 38.8107 193.787 38.4107H194.915C194.947 38.7387 195.099 39.0067 195.371 39.2147C195.651 39.4227 196.015 39.5267 196.463 39.5267C196.879 39.5267 197.207 39.4347 197.447 39.2507C197.687 39.0667 197.807 38.8347 197.807 38.5547C197.807 38.2667 197.679 38.0547 197.423 37.9187C197.167 37.7747 196.771 37.6347 196.235 37.4987C195.747 37.3707 195.347 37.2427 195.035 37.1147C194.731 36.9787 194.467 36.7827 194.243 36.5267C194.027 36.2627 193.919 35.9187 193.919 35.4947C193.919 35.1587 194.019 34.8507 194.219 34.5707C194.419 34.2907 194.703 34.0707 195.071 33.9107C195.439 33.7427 195.859 33.6587 196.331 33.6587C197.059 33.6587 197.647 33.8427 198.095 34.2107C198.543 34.5787 198.783 35.0827 198.815 35.7227H197.723C197.699 35.3787 197.559 35.1027 197.303 34.8947C197.055 34.6867 196.719 34.5827 196.295 34.5827C195.903 34.5827 195.591 34.6667 195.359 34.8347C195.127 35.0027 195.011 35.2227 195.011 35.4947C195.011 35.7107 195.079 35.8907 195.215 36.0347C195.359 36.1707 195.535 36.2827 195.743 36.3707C195.959 36.4507 196.255 36.5427 196.631 36.6467C197.103 36.7747 197.487 36.9027 197.783 37.0307C198.079 37.1507 198.331 37.3347 198.539 37.5827C198.755 37.8307 198.867 38.1547 198.875 38.5547C198.875 38.9147 198.775 39.2387 198.575 39.5267C198.375 39.8147 198.091 40.0427 197.723 40.2107C197.363 40.3707 196.947 40.4507 196.475 40.4507Z" fill="black"/>
<path d="M0.00012207 65.2522C0.00012207 60.834 3.58184 57.2522 8.00012 57.2522H47C51.4183 57.2522 55 60.834 55 65.2522V74.1864H0.00012207V65.2522Z" fill="url(#paint0_linear_1003:16798)"/>
<rect y="74.1864" width="54.9999" height="110.44" fill="url(#paint1_linear_1003:16798)"/>
<rect y="184.627" width="54.9999" height="92.0335" fill="url(#paint2_linear_1003:16798)"/>
<rect y="276.66" width="54.9999" height="92.0335" fill="url(#paint3_linear_1003:16798)"/>
<defs>
<linearGradient id="paint0_linear_1003:16798" x1="27.5001" y1="57.2522" x2="27.4366" y2="82.9679" gradientUnits="userSpaceOnUse">
<stop stop-color="#1BACC7"/>
<stop offset="1" stop-color="#2886CB"/>
</linearGradient>
<linearGradient id="paint1_linear_1003:16798" x1="27.4999" y1="74.1864" x2="27.7464" y2="275.438" gradientUnits="userSpaceOnUse">
<stop stop-color="#7FD0DF"/>
<stop offset="1" stop-color="#A5BDFC"/>
</linearGradient>
<linearGradient id="paint2_linear_1003:16798" x1="27.4999" y1="184.627" x2="27.4999" y2="276.66" gradientUnits="userSpaceOnUse">
<stop stop-color="#C2F5FF"/>
<stop offset="1" stop-color="#D8E7FE"/>
</linearGradient>
<linearGradient id="paint3_linear_1003:16798" x1="27.4999" y1="276.66" x2="27.4999" y2="368.694" gradientUnits="userSpaceOnUse">
<stop stop-color="#E6F8FB"/>
<stop offset="1" stop-color="#E6F6FF"/>
</linearGradient>
</defs>
</svg>
