<svg viewBox="0 0 99 66" fill="none" xmlns="http://www.w3.org/2000/svg">
<path fill-rule="evenodd" clip-rule="evenodd" d="M47.7564 38.9594C48.3393 39.569 48.9216 40.1779 49.5184 40.7605C49.8593 41.0927 49.9615 41.2107 50.1222 41.3963C50.2127 41.5008 50.3219 41.6269 50.5029 41.8249C52.8916 39.4805 58.3604 34.0787 60.1467 31.9277C63.1102 28.3575 65.6519 24.6137 65.8061 19.7237C65.8973 16.8198 65.1721 13.9488 63.7137 11.4392C63.6877 11.7416 63.6684 12.0041 63.651 12.2403C63.6191 12.674 63.5937 13.0193 63.5452 13.3614C63.0848 16.1424 61.8852 18.7471 60.0729 20.9009C56.3202 25.8302 53.8632 28.3296 48.9319 33.346C47.9285 34.3667 46.8226 35.4917 45.5825 36.7625C46.3266 37.4643 47.042 38.2123 47.7564 38.9594ZM40.1274 30.9323C40.3976 31.2254 40.7669 31.626 40.9627 31.8216L40.9594 31.8205C41.4494 32.3102 41.8868 32.7627 42.3139 33.2046C42.9926 33.9068 43.6453 34.5822 44.4416 35.3366C47.5786 31.9768 49.7231 29.7202 51.3216 28.0382C54.282 24.923 55.3702 23.778 57.4233 21.2435C59.136 19.1903 60.6695 16.9929 62.0067 14.6756C62.6752 13.6356 63.0098 12.4147 62.9653 11.1778C62.9208 9.94085 62.4994 8.74739 61.7578 7.75843C58.4276 3.41556 53.1724 0.617946 49.0328 1.56743C48.8192 1.64302 48.6241 1.7636 48.4608 1.92108C48.2974 2.07855 48.1695 2.26927 48.0857 2.48044C46.6485 0.846751 45.4735 -0.279589 43.0705 0.0608555L43.8172 1.45027L39.8295 1.06671C40.0874 1.42948 40.3192 1.75915 40.5347 2.0655C40.9815 2.70099 41.3578 3.23614 41.7501 3.75821C41.9204 3.96831 42.1111 4.16085 42.3195 4.33299C42.0254 4.69169 41.7306 5.04995 41.4358 5.40818C40.4117 6.65277 39.388 7.89695 38.3935 9.15779C38.1094 9.51702 37.7327 10.0929 37.8429 10.4013C38.5224 12.2363 37.7801 13.7135 37.0197 15.2264C36.9287 15.4076 36.8374 15.5892 36.7482 15.7721C35.9899 17.3291 35.2938 18.9158 34.5972 20.5039C34.3175 21.1414 34.0378 21.7791 33.7539 22.4152C33.6336 22.5999 33.5614 22.8118 33.5439 23.0317C33.5263 23.2517 33.5641 23.4725 33.6536 23.674C33.7431 23.8754 33.8816 24.0512 34.0563 24.185C34.231 24.3189 34.4364 24.4066 34.6536 24.4402C35.9306 24.8793 37.2342 25.2364 38.5565 25.509C40.2568 25.8141 41.248 24.7806 41.303 23.0364C41.3253 22.267 41.506 21.5105 41.8338 20.8147C42.2789 19.8654 43.0422 19.1034 43.9904 18.6619C44.9386 18.2204 46.0113 18.1275 47.0208 18.3995C47.7489 18.5409 48.502 18.4748 49.1947 18.2087C49.8874 17.9426 50.492 17.4872 50.9401 16.894C51.1405 16.6566 51.3457 16.4232 51.5507 16.19C51.9193 15.7707 52.2876 15.3517 52.6273 14.91C54.6239 12.3235 56.605 9.72703 56.5687 6.11921C56.7551 6.67181 56.9023 7.23694 57.0092 7.81038C57.3451 10.5859 55.9806 12.8131 54.3882 14.8027C49.9634 20.4557 45.1269 25.7714 39.9187 30.7063C39.9745 30.7664 40.0465 30.8445 40.1274 30.9323Z" fill="#007FFF"/>
<path d="M0 65.5027V52.7597H8.45346V55.0211H2.49476V58.4133H7.46632V60.6747H2.49476V65.5027H0Z" fill="#007FFF"/>
<path d="M16.0548 65.6463C14.1404 65.6463 12.5789 65.036 11.3704 63.8156C10.1619 62.5832 9.55767 61.0217 9.55767 59.1312C9.55767 57.2287 10.1619 55.6672 11.3704 54.4468C12.5789 53.2144 14.1404 52.5981 16.0548 52.5981C17.9453 52.5981 19.4948 53.2024 20.7033 54.4109C21.9238 55.6194 22.534 57.1928 22.534 59.1312C22.534 61.0695 21.9238 62.643 20.7033 63.8515C19.4948 65.048 17.9453 65.6463 16.0548 65.6463ZM16.0728 63.2951C17.1736 63.2951 18.0889 62.9002 18.8188 62.1105C19.5487 61.3208 19.9136 60.3277 19.9136 59.1312C19.9136 57.9347 19.5487 56.9415 18.8188 56.1518C18.0889 55.3621 17.1736 54.9673 16.0728 54.9673C14.9361 54.9673 14.0028 55.3681 13.2729 56.1698C12.543 56.9714 12.1781 57.9586 12.1781 59.1312C12.1781 60.3038 12.543 61.2909 13.2729 62.0926C14.0028 62.8942 14.9361 63.2951 16.0728 63.2951Z" fill="#007FFF"/>
<path d="M34.6181 65.5027H31.6388L28.785 61.1413H27.3133V65.5027H24.8186V52.7597H29.6465C31.1183 52.7597 32.2251 53.1485 32.9669 53.9263C33.7088 54.6921 34.0797 55.7151 34.0797 56.9954C34.0797 58.9816 33.2062 60.2619 31.4593 60.8362L34.6181 65.5027ZM27.3133 55.0032V58.9158H29.0722C29.838 58.9158 30.4303 58.7423 30.8491 58.3953C31.2678 58.0364 31.4772 57.5518 31.4772 56.9415C31.4772 56.3433 31.2738 55.8706 30.867 55.5236C30.4721 55.1767 29.9098 55.0032 29.1799 55.0032H27.3133Z" fill="#007FFF"/>
<path d="M43.3824 58.7363C44.208 58.9397 44.8422 59.3226 45.2849 59.885C45.7396 60.4474 45.9669 61.1473 45.9669 61.9849C45.9669 63.0378 45.608 63.8874 44.8901 64.5335C44.1841 65.1796 43.1611 65.5027 41.821 65.5027H36.5443V52.7597H41.1389C42.491 52.7597 43.52 53.0229 44.226 53.5494C44.9439 54.0759 45.3029 54.8476 45.3029 55.8647C45.3029 56.4869 45.1473 57.0552 44.8362 57.5697C44.5251 58.0842 44.0405 58.4671 43.3824 58.7184V58.7363ZM39.0211 54.9852V57.9825H40.8338C41.3723 57.9825 41.8269 57.8569 42.1979 57.6056C42.5688 57.3424 42.7543 56.9655 42.7543 56.4749C42.7543 55.4818 42.0603 54.9852 40.6723 54.9852H39.0211ZM41.0672 63.2771C41.7611 63.2771 42.3115 63.1395 42.7184 62.8643C43.1252 62.5891 43.3286 62.1883 43.3286 61.6618C43.3286 61.1473 43.1371 60.7465 42.7543 60.4593C42.3833 60.1602 41.8269 60.0106 41.0851 60.0106H39.0211V63.2771H41.0672Z" fill="#007FFF"/>
<path d="M53.861 65.6463C51.9466 65.6463 50.3851 65.036 49.1767 63.8156C47.9682 62.5832 47.3639 61.0217 47.3639 59.1312C47.3639 57.2287 47.9682 55.6672 49.1767 54.4468C50.3851 53.2144 51.9466 52.5981 53.861 52.5981C55.7516 52.5981 57.3011 53.2024 58.5096 54.4109C59.73 55.6194 60.3402 57.1928 60.3402 59.1312C60.3402 61.0695 59.73 62.643 58.5096 63.8515C57.3011 65.048 55.7516 65.6463 53.861 65.6463ZM53.879 63.2951C54.9798 63.2951 55.8951 62.9002 56.625 62.1105C57.3549 61.3208 57.7199 60.3277 57.7199 59.1312C57.7199 57.9347 57.3549 56.9415 56.625 56.1518C55.8951 55.3621 54.9798 54.9673 53.879 54.9673C52.7423 54.9673 51.809 55.3681 51.0791 56.1698C50.3493 56.9714 49.9843 57.9586 49.9843 59.1312C49.9843 60.3038 50.3493 61.2909 51.0791 62.0926C51.809 62.8942 52.7423 63.2951 53.879 63.2951Z" fill="#007FFF"/>
<path d="M62.6248 65.5027V52.7597H65.1555V63.2592H70.827V65.5027H62.6248Z" fill="#007FFF"/>
<path d="M72.7906 65.5027V52.7597H80.9389V55.0211H75.2674V58.0723H79.8082V60.2978H75.2674V63.2592H81.3158V65.5027H72.7906Z" fill="#007FFF"/>
<path d="M96.0565 65.5027L93.1849 61.0337H93.149L90.2773 65.5027H87.3339L91.4978 59.0953L87.4595 52.7597H90.3491L93.149 57.1569H93.1849L95.9848 52.7597H98.8744L94.8361 59.0953L99 65.5027H96.0565Z" fill="#007FFF"/>
</svg>
