<svg viewBox="0 0 83 80" fill="none" xmlns="http://www.w3.org/2000/svg">
<path fill-rule="evenodd" clip-rule="evenodd" d="M32.0173 31.007L32.0177 31.0075C32.2851 31.2969 32.633 31.6735 32.821 31.861C33.3107 32.3497 33.7481 32.8013 34.1752 33.2423C34.8567 33.946 35.512 34.6227 36.3115 35.3794C39.4851 31.9823 41.6451 29.7118 43.252 28.0228L43.2523 28.0224L43.2525 28.0223L43.2527 28.022C46.1852 24.9396 47.2753 23.7938 49.3224 21.2693C51.0393 19.2134 52.5765 17.0132 53.917 14.6929C54.5871 13.6517 54.9224 12.4294 54.8779 11.191C54.8333 9.9527 54.4109 8.75784 53.6677 7.76767C50.3332 3.42018 45.0606 0.619084 40.9116 1.56953C40.6974 1.64517 40.5019 1.76589 40.3381 1.92357C40.1743 2.08124 40.0461 2.27223 39.9621 2.4837C38.521 0.847982 37.3432 -0.279713 34.9345 0.0608286L35.6822 1.45649L31.6849 1.07268C31.9463 1.43973 32.1808 1.77314 32.3987 2.08284L32.3998 2.0844L32.4 2.08474C32.8443 2.71628 33.2192 3.24921 33.6104 3.7677C33.7814 3.97644 33.9726 4.16765 34.1813 4.33852C33.8825 4.70218 33.5831 5.0654 33.2836 5.4286L33.2836 5.42868C32.2604 6.66986 31.2374 7.91075 30.2411 9.16751C29.9599 9.52201 29.5784 10.104 29.6926 10.4124C30.3737 12.2489 29.6301 13.7273 28.8684 15.2417C28.7769 15.4237 28.685 15.6062 28.5954 15.7899C27.8033 17.4153 27.0759 19.0723 26.3485 20.7294L26.3484 20.7296L26.3484 20.7298L26.3483 20.73L26.3482 20.7302C26.0976 21.3011 25.8469 21.872 25.5937 22.4417C25.473 22.6265 25.4005 22.8388 25.3829 23.0591C25.3653 23.2794 25.4031 23.5005 25.4929 23.7023C25.5827 23.9041 25.7215 24.0801 25.8968 24.2141C26.072 24.3482 26.278 24.436 26.4959 24.4696C27.776 24.9093 29.0827 25.2669 30.4082 25.54C32.111 25.8457 33.1106 24.8115 33.1593 23.0655C33.1815 22.2951 33.3626 21.5376 33.6912 20.8408C34.1372 19.8902 34.9025 19.127 35.8531 18.6848C36.8038 18.2427 37.8792 18.1497 38.8914 18.4221C39.6214 18.5637 40.3763 18.4975 41.0707 18.2311C41.7651 17.9647 42.3712 17.5087 42.8204 16.9148C43.0187 16.6807 43.2215 16.4503 43.4242 16.22L43.4242 16.22C43.7965 15.797 44.1686 15.3743 44.5121 14.9288C46.5142 12.3399 48.4995 9.73974 48.4634 6.12777C48.6511 6.68086 48.7995 7.24658 48.9075 7.8207C49.2444 10.5995 47.8772 12.8269 46.2803 14.8213C41.8442 20.4813 36.9955 25.8035 31.774 30.7444C31.8378 30.8127 31.9224 30.9044 32.0173 31.007ZM37.4518 36.8072C38.1987 37.5106 38.9169 38.2606 39.6341 39.0096L39.6342 39.0097C40.2177 39.6191 40.8004 40.2277 41.3975 40.81C41.7364 41.1399 41.8403 41.2591 41.9997 41.4417C42.0918 41.5473 42.2024 41.674 42.3874 41.8748C44.7822 39.5273 50.265 34.1191 52.0555 31.9656C55.0266 28.3914 57.5745 24.6426 57.729 19.7466C57.8195 16.8389 57.0914 13.9644 55.6281 11.4522C55.602 11.7555 55.5827 12.0187 55.5653 12.2557L55.5653 12.2559V12.2559C55.5335 12.6894 55.5082 13.0349 55.4596 13.3768C54.9981 16.1613 53.7956 18.7694 51.9789 20.926C48.2175 25.8606 45.7542 28.3631 40.8126 33.3834L40.8118 33.3843C39.8052 34.4068 38.6959 35.5339 37.4518 36.8072ZM11.5333 63.2485C12.7591 64.4694 14.3429 65.0799 16.2848 65.0799C18.2024 65.0799 19.7741 64.4814 20.9999 63.2844C22.2378 62.0754 22.8568 60.5013 22.8568 58.5621C22.8568 56.6229 22.2378 55.0488 20.9999 53.8398C19.7741 52.6308 18.2024 52.0263 16.2848 52.0263C14.3429 52.0263 12.7591 52.6428 11.5333 53.8757C10.3075 55.0967 9.69459 56.6588 9.69459 58.5621C9.69459 60.4534 10.3075 62.0155 11.5333 63.2485ZM19.0884 61.5427C18.348 62.3327 17.4196 62.7278 16.303 62.7278C15.15 62.7278 14.2034 62.3268 13.463 61.5247C12.7227 60.7227 12.3525 59.7352 12.3525 58.5621C12.3525 57.389 12.7227 56.4015 13.463 55.5995C14.2034 54.7974 15.15 54.3964 16.303 54.3964C17.4196 54.3964 18.348 54.7915 19.0884 55.5815C19.8287 56.3715 20.1989 57.3651 20.1989 58.5621C20.1989 59.7591 19.8287 60.7527 19.0884 61.5427ZM0 52.1879V64.9363H2.5305V60.1063H7.57328V57.8439H2.5305V54.4503H8.57456V52.1879H0ZM35.114 64.9363H32.092L29.1974 60.5731H27.7046V64.9363H25.1741V52.1879H30.0713C31.5641 52.1879 32.6867 52.577 33.4392 53.355C34.1917 54.1211 34.5679 55.1446 34.5679 56.4254C34.5679 58.4125 33.6819 59.6933 31.91 60.2679L35.114 64.9363ZM27.7046 54.4324V58.3466H29.4887C30.2654 58.3466 30.8662 58.1731 31.291 57.8259C31.7158 57.4668 31.9282 56.982 31.9282 56.3715C31.9282 55.773 31.7218 55.3002 31.3092 54.9531C30.9087 54.6059 30.3383 54.4324 29.5979 54.4324H27.7046ZM45.9336 59.3162C45.4846 58.7536 44.8413 58.3706 44.0039 58.1671V58.1491C44.6714 57.8978 45.163 57.5147 45.4785 57C45.7941 56.4853 45.9519 55.9167 45.9519 55.2942C45.9519 54.2767 45.5878 53.5047 44.8596 52.978C44.1435 52.4513 43.0997 52.1879 41.7283 52.1879H37.0678V64.9363H42.4201C43.7794 64.9363 44.8171 64.6131 45.5331 63.9667C46.2613 63.3203 46.6254 62.4704 46.6254 61.417C46.6254 60.5791 46.3948 59.8788 45.9336 59.3162ZM39.5801 57.413V54.4144H41.255C42.6628 54.4144 43.3667 54.9112 43.3667 55.9047C43.3667 56.3955 43.1786 56.7725 42.8024 57.0359C42.4262 57.2873 41.965 57.413 41.4188 57.413H39.5801ZM43.3303 62.2968C42.9177 62.5721 42.3594 62.7098 41.6555 62.7098H39.5801V59.4419H41.6737C42.4262 59.4419 42.9905 59.5915 43.3667 59.8908C43.7551 60.1781 43.9493 60.5791 43.9493 61.0938C43.9493 61.6205 43.743 62.0215 43.3303 62.2968ZM54.6326 65.0799C52.6908 65.0799 51.1069 64.4694 49.8811 63.2485C48.6553 62.0155 48.0424 60.4534 48.0424 58.5621C48.0424 56.6588 48.6553 55.0967 49.8811 53.8757C51.1069 52.6428 52.6908 52.0263 54.6326 52.0263C56.5502 52.0263 58.1219 52.6308 59.3477 53.8398C60.5857 55.0488 61.2047 56.6229 61.2047 58.5621C61.2047 60.5013 60.5857 62.0754 59.3477 63.2844C58.1219 64.4814 56.5502 65.0799 54.6326 65.0799ZM54.6509 62.7278C55.7674 62.7278 56.6959 62.3327 57.4362 61.5427C58.1766 60.7527 58.5467 59.7591 58.5467 58.5621C58.5467 57.3651 58.1766 56.3715 57.4362 55.5815C56.6959 54.7915 55.7674 54.3964 54.6509 54.3964C53.4979 54.3964 52.5512 54.7974 51.8109 55.5995C51.0705 56.4015 50.7004 57.389 50.7004 58.5621C50.7004 59.7352 51.0705 60.7227 51.8109 61.5247C52.5512 62.3268 53.4979 62.7278 54.6509 62.7278ZM63.522 52.1879V64.9363H71.8416V62.6918H66.0889V52.1879H63.522ZM73.8334 64.9363V52.1879H82.0985V54.4503H76.3457V57.5027H80.9515V59.7292H76.3457V62.6918H82.4808V64.9363H73.8334ZM77.6413 78.8935C78.3123 79.6312 79.1494 80 80.1525 80C80.8168 80 81.3692 79.8241 81.8097 79.4722C82.2571 79.1202 82.4808 78.6533 82.4808 78.0713C82.4808 77.4283 82.2063 76.9309 81.6572 76.579C81.4471 76.4436 80.9794 76.2305 80.2542 75.9394C80.2135 75.9259 80.122 75.8921 79.9797 75.8379C79.8441 75.7838 79.756 75.7499 79.7153 75.7364C79.6747 75.7161 79.5933 75.6823 79.4713 75.6349C79.3561 75.5808 79.2782 75.5402 79.2375 75.5131C79.2036 75.486 79.1426 75.4454 79.0545 75.3913C78.9664 75.3371 78.9054 75.2931 78.8715 75.2593C78.8376 75.2187 78.7935 75.1679 78.7393 75.107C78.6851 75.0393 78.6478 74.9784 78.6275 74.9243C78.6071 74.8634 78.5868 74.7957 78.5665 74.7213C78.5529 74.6401 78.5462 74.5555 78.5462 74.4675C78.5462 74.0885 78.6953 73.7907 78.9935 73.5742C79.2917 73.3576 79.6476 73.2493 80.061 73.2493C80.7049 73.2493 81.3149 73.4862 81.8911 73.9599L82.2571 73.4929C81.5861 72.9583 80.854 72.691 80.061 72.691C79.4578 72.691 78.9494 72.8669 78.536 73.2188C78.1293 73.564 77.926 73.9937 77.926 74.5081C77.926 74.6773 77.9497 74.8363 77.9971 74.9852C78.0514 75.1273 78.1056 75.2525 78.1598 75.3608C78.2208 75.4623 78.3191 75.5672 78.4546 75.6755C78.597 75.7838 78.7054 75.865 78.78 75.9191C78.8613 75.9733 79.0037 76.0477 79.207 76.1425C79.4103 76.2305 79.5459 76.288 79.6137 76.315C79.6882 76.3421 79.8373 76.3996 80.061 76.4876C80.0814 76.4944 80.1017 76.5045 80.122 76.5181C80.1491 76.5248 80.1695 76.5316 80.183 76.5384C80.2034 76.5452 80.2271 76.5519 80.2542 76.5587C80.5118 76.6602 80.7253 76.7516 80.8947 76.8328C81.0709 76.914 81.237 77.0121 81.3929 77.1272C81.5556 77.2422 81.6742 77.3843 81.7487 77.5535C81.8301 77.716 81.8707 77.9088 81.8707 78.1322C81.8707 78.5247 81.7081 78.8428 81.3827 79.0864C81.0642 79.3233 80.6541 79.4417 80.1525 79.4417C79.7526 79.4417 79.3629 79.3571 78.9833 79.1879C78.6038 79.0187 78.2818 78.7751 78.0175 78.457L77.6413 78.8935ZM6.029 72.7417H5.40882L3.01959 79.0966H2.99925L0.630351 72.7417H0L2.74508 79.9493H3.28393L6.029 72.7417ZM11.8669 72.7417V79.9493H16.3912V79.4011H12.4362V76.6297H15.5473V76.0816H12.4362V73.2798H16.1777V72.7417H11.8669ZM27.5437 72.7417H28.1131V79.9493H27.5335L22.9889 73.7467H22.9686V79.9493H22.3992V72.7417H22.9584L27.5234 78.9747H27.5437V72.7417ZM36.1866 73.2798V79.9493H36.7661V73.2798H39.0536V72.7417H33.9295V73.2798H36.1866ZM47.5068 80C46.6934 80 46.0359 79.7361 45.5344 79.2082C45.0396 78.6803 44.7922 77.9596 44.7922 77.046V72.7417H45.3615V76.9952C45.3615 77.7396 45.5547 78.3318 45.941 78.7717C46.3342 79.2116 46.8561 79.4316 47.5068 79.4316C48.1574 79.4316 48.6793 79.215 49.0725 78.7819C49.4724 78.3487 49.6723 77.7532 49.6723 76.9952V72.7417H50.2417V77.046C50.2417 77.9596 49.9909 78.6803 49.4893 79.2082C48.9945 79.7361 48.3337 80 47.5068 80ZM60.7865 79.9493H61.5084L59.4648 77.0053C60.0545 76.9241 60.5188 76.7076 60.8577 76.3557C61.1966 75.997 61.3661 75.5029 61.3661 74.8735C61.3661 74.2306 61.1729 73.7163 60.7865 73.3305C60.407 72.938 59.8275 72.7417 59.048 72.7417H56.5876V79.9493H57.1569V77.0358H58.7837L60.7865 79.9493ZM57.1569 76.4876V73.2798H59.0277C59.5767 73.2798 60.0003 73.4151 60.2985 73.6858C60.6035 73.9565 60.756 74.3524 60.756 74.8735C60.756 75.3676 60.6035 75.7601 60.2985 76.0511C59.9935 76.3421 59.5123 76.4876 58.8548 76.4876H57.1569ZM67.5766 79.9493V72.7417H71.8874V73.2798H68.146V76.0816H71.2571V76.6297H68.146V79.4011H72.1009V79.9493H67.5766Z" fill="#282828"/>
</svg>
