<svg viewBox="0 0 157 127" fill="none" xmlns="http://www.w3.org/2000/svg">
<path d="M72.0287 73.062C74.1638 75.074 76.1498 77.3281 78.2477 79.3754C79.0903 80.1964 79.0113 80.1898 79.8079 81.055C83.5823 77.3524 92.2239 68.8223 95.0459 65.4257C99.7288 59.7881 103.745 53.8754 103.988 46.1532C104.131 41.567 102.983 37.0332 100.677 33.0708C100.56 34.4246 100.53 35.2721 100.411 36.1064C99.684 40.4983 97.7887 44.6119 94.9252 48.0133C87.789 57.3821 83.6174 61.1925 72.0287 73.062Z" fill="#BD081C"/>
<path d="M63.0798 63.4995C63.4639 63.9112 64.3285 64.8599 64.73 65.2606C66.7335 67.2616 68.1819 68.8685 70.2314 70.8101C84.3635 55.6717 85.7438 54.7185 90.7383 48.5548C93.4444 45.3122 95.8672 41.8419 97.9799 38.1823C99.036 36.5399 99.5647 34.6121 99.4944 32.6589C99.4242 30.7057 98.7585 28.8211 97.5871 27.2594C92.3314 20.4023 84.0212 15.9843 77.4818 17.4834C77.1442 17.6027 76.836 17.7931 76.5779 18.0418C76.3198 18.2905 76.1177 18.5917 75.9852 18.9252C73.714 16.3453 71.8575 14.5666 68.0612 15.1038L69.2396 17.3051L62.9394 16.6997C64.1924 18.4607 65.0548 19.7309 65.9743 20.9504C66.2437 21.2797 66.5451 21.5812 66.874 21.8508C64.7937 24.3845 62.6936 26.905 60.6638 29.4673C60.2205 30.0264 59.6193 30.9444 59.7992 31.4309C61.0017 34.6756 59.3866 37.2115 58.07 39.9125C56.3912 43.3597 54.8969 46.8972 53.3388 50.4039C53.1486 50.6956 53.0344 51.0304 53.0066 51.3778C52.9789 51.7252 53.0385 52.074 53.18 52.3923C53.3215 52.7106 53.5404 52.9882 53.8165 53.1996C54.0927 53.411 54.4174 53.5495 54.7608 53.6024C56.7784 54.2961 58.838 54.86 60.9271 55.2908C63.6109 55.7729 65.1865 54.1418 65.2633 51.3879C65.2982 50.1728 65.5837 48.9781 66.1015 47.879C66.8045 46.3796 68.0107 45.1759 69.509 44.4785C71.0073 43.7811 72.7024 43.6344 74.2977 44.0642C75.4482 44.2874 76.6381 44.183 77.7325 43.7628C78.827 43.3426 79.7823 42.6235 80.4904 41.6867C81.3769 40.6389 82.3205 39.6395 83.1566 38.5543C86.3121 34.4709 89.4414 30.3698 89.3843 24.6728C89.6802 25.5452 89.9142 26.4375 90.0843 27.343C90.6154 31.7258 88.4605 35.2391 85.9435 38.3848C78.9517 47.3119 71.3095 55.7065 63.0798 63.4995Z" fill="#BD081C"/>
<path d="M13 114.429V94.3213H26.5146V97.8896H16.9884V103.242H24.9364V106.81H16.9884V114.429H13Z" fill="#BD081C"/>
<path d="M38.6669 114.655C35.6063 114.655 33.1099 113.692 31.1779 111.767C29.2459 109.822 28.2799 107.358 28.2799 104.375C28.2799 101.373 29.2459 98.9092 31.1779 96.9834C33.1099 95.0387 35.6063 94.0664 38.6669 94.0664C41.6893 94.0664 44.1664 95.0199 46.0985 96.9267C48.0496 98.8336 49.0252 101.316 49.0252 104.375C49.0252 107.434 48.0496 109.916 46.0985 111.823C44.1664 113.711 41.6893 114.655 38.6669 114.655ZM38.6956 110.945C40.4554 110.945 41.9188 110.322 43.0857 109.076C44.2525 107.83 44.836 106.263 44.836 104.375C44.836 102.487 44.2525 100.92 43.0857 99.6738C41.9188 98.4277 40.4554 97.8047 38.6956 97.8047C36.8783 97.8047 35.3863 98.4372 34.2194 99.7021C33.0526 100.967 32.4691 102.525 32.4691 104.375C32.4691 106.225 33.0526 107.783 34.2194 109.048C35.3863 110.313 36.8783 110.945 38.6956 110.945Z" fill="#BD081C"/>
<path d="M68.3441 114.429H63.581L59.0188 107.547H56.6659V114.429H52.6775V94.3213H60.3961C62.7489 94.3213 64.5183 94.9349 65.7043 96.1621C66.8903 97.3704 67.4833 98.9847 67.4833 101.005C67.4833 104.139 66.0869 106.159 63.2941 107.065L68.3441 114.429ZM56.6659 97.8613V104.035H59.4779C60.7021 104.035 61.649 103.761 62.3185 103.214C62.988 102.647 63.3228 101.883 63.3228 100.92C63.3228 99.9759 62.9976 99.2301 62.3472 98.6826C61.716 98.1351 60.8169 97.8613 59.65 97.8613H56.6659Z" fill="#BD081C"/>
<path d="M82.3557 103.752C83.6756 104.073 84.6894 104.677 85.3972 105.564C86.1241 106.452 86.4875 107.556 86.4875 108.878C86.4875 110.539 85.9137 111.88 84.7659 112.899C83.6373 113.919 82.0018 114.429 79.8594 114.429H71.4235V94.3213H78.769C80.9306 94.3213 82.5757 94.7367 83.7043 95.5674C84.852 96.3981 85.4259 97.6159 85.4259 99.2207C85.4259 100.202 85.1772 101.099 84.6798 101.911C84.1825 102.723 83.4078 103.327 82.3557 103.724V103.752ZM75.3832 97.833V102.562H78.2812C79.142 102.562 79.8689 102.364 80.4619 101.968C81.0549 101.552 81.3514 100.958 81.3514 100.184C81.3514 98.6165 80.2419 97.833 78.023 97.833H75.3832ZM78.6542 110.917C79.7637 110.917 80.6436 110.7 81.294 110.266C81.9444 109.831 82.2696 109.199 82.2696 108.368C82.2696 107.556 81.9635 106.924 81.3514 106.471C80.7584 105.999 79.8689 105.763 78.6829 105.763H75.3832V110.917H78.6542Z" fill="#BD081C"/>
<path d="M99.1079 114.655C96.0473 114.655 93.5509 113.692 91.6189 111.767C89.6869 109.822 88.7209 107.358 88.7209 104.375C88.7209 101.373 89.6869 98.9092 91.6189 96.9834C93.5509 95.0387 96.0473 94.0664 99.1079 94.0664C102.13 94.0664 104.607 95.0199 106.539 96.9267C108.491 98.8336 109.466 101.316 109.466 104.375C109.466 107.434 108.491 109.916 106.539 111.823C104.607 113.711 102.13 114.655 99.1079 114.655ZM99.1366 110.945C100.896 110.945 102.36 110.322 103.527 109.076C104.694 107.83 105.277 106.263 105.277 104.375C105.277 102.487 104.694 100.92 103.527 99.6738C102.36 98.4277 100.896 97.8047 99.1366 97.8047C97.3193 97.8047 95.8273 98.4372 94.6604 99.7021C93.4936 100.967 92.9101 102.525 92.9101 104.375C92.9101 106.225 93.4936 107.783 94.6604 109.048C95.8273 110.313 97.3193 110.945 99.1366 110.945Z" fill="#BD081C"/>
<path d="M113.119 114.429V94.3213H117.164V110.889H126.231V114.429H113.119Z" fill="#BD081C"/>
<path d="M129.371 114.429V94.3213H142.397V97.8896H133.33V102.704H140.59V106.216H133.33V110.889H143V114.429H129.371Z" fill="#BD081C"/>
</svg>
