<svg viewBox="0 0 282 159" fill="none" xmlns="http://www.w3.org/2000/svg">
<path d="M67.9503 91.2882C67.4582 96.6486 68.2902 102.631 71.6446 105.299C75.0561 107.3 81.6057 101.113 83.9304 99.2262C90.1782 94.1556 85.4863 86.9787 77.8514 84.6702C67.6718 81.5923 68.0791 89.8854 67.9503 91.2882Z" fill="white" fill-opacity="0.5"/>
<path d="M75.5788 86.3458C71.2288 84.4213 64.4261 85.9032 62.2587 87.8589C59.9249 91.181 64.6767 99.3186 66.2111 101.969C69.5481 107.732 75.2411 107.999 77.9995 100.738C82.4492 89.0261 77.0345 86.9898 75.5788 86.3458Z" fill="white" fill-opacity="0.3"/>
<path d="M75.0557 95.342C74.9624 94.95 74.7991 94.656 74.5657 94.46C74.3417 94.264 74.0151 94.166 73.5857 94.166C72.9417 94.166 72.4657 94.4273 72.1577 94.95C71.8591 95.4633 71.7051 96.3033 71.6957 97.47C71.9197 97.0967 72.2464 96.8073 72.6757 96.602C73.1051 96.3873 73.5717 96.28 74.0757 96.28C74.6824 96.28 75.2191 96.4107 75.6857 96.672C76.1524 96.9333 76.5164 97.316 76.7777 97.82C77.0391 98.3147 77.1697 98.912 77.1697 99.612C77.1697 100.275 77.0344 100.867 76.7637 101.39C76.5024 101.903 76.1151 102.305 75.6017 102.594C75.0884 102.883 74.4771 103.028 73.7677 103.028C72.7971 103.028 72.0317 102.813 71.4717 102.384C70.9211 101.955 70.5337 101.357 70.3097 100.592C70.0951 99.8173 69.9877 98.8653 69.9877 97.736C69.9877 96.028 70.2817 94.74 70.8697 93.872C71.4577 92.9947 72.3864 92.556 73.6557 92.556C74.6357 92.556 75.3964 92.822 75.9377 93.354C76.4791 93.886 76.7917 94.5487 76.8757 95.342H75.0557ZM73.6277 97.89C73.1331 97.89 72.7177 98.0347 72.3817 98.324C72.0457 98.6133 71.8777 99.0333 71.8777 99.584C71.8777 100.135 72.0317 100.569 72.3397 100.886C72.6571 101.203 73.1004 101.362 73.6697 101.362C74.1737 101.362 74.5704 101.208 74.8597 100.9C75.1584 100.592 75.3077 100.177 75.3077 99.654C75.3077 99.1127 75.1631 98.6833 74.8737 98.366C74.5937 98.0487 74.1784 97.89 73.6277 97.89ZM92.9327 93.228V103H90.9727V96.644L88.3547 103H86.8707L84.2387 96.644V103H82.2787V93.228H84.5047L87.6127 100.494L90.7207 93.228H92.9327ZM105.525 93.228V103H103.565V96.644L100.947 103H99.4625L96.8305 96.644V103H94.8705V93.228H97.0965L100.205 100.494L103.313 93.228H105.525Z" fill="black"/>
<path d="M76.6237 120.098C76.6237 120.91 76.3437 121.587 75.7837 122.128C75.2331 122.66 74.3884 122.926 73.2497 122.926H71.3737V127H70.0997V117.242H73.2497C74.3511 117.242 75.1864 117.508 75.7557 118.04C76.3344 118.572 76.6237 119.258 76.6237 120.098ZM73.2497 121.876C73.9591 121.876 74.4817 121.722 74.8177 121.414C75.1537 121.106 75.3217 120.667 75.3217 120.098C75.3217 118.894 74.6311 118.292 73.2497 118.292H71.3737V121.876H73.2497ZM79.4812 120.574C79.7052 120.135 80.0225 119.795 80.4332 119.552C80.8532 119.309 81.3618 119.188 81.9592 119.188V120.504H81.6232C80.1952 120.504 79.4812 121.279 79.4812 122.828V127H78.2072V119.328H79.4812V120.574ZM86.7758 127.126C86.0571 127.126 85.4038 126.963 84.8158 126.636C84.2371 126.309 83.7798 125.847 83.4438 125.25C83.1171 124.643 82.9538 123.943 82.9538 123.15C82.9538 122.366 83.1218 121.675 83.4578 121.078C83.8031 120.471 84.2698 120.009 84.8578 119.692C85.4458 119.365 86.1038 119.202 86.8318 119.202C87.5598 119.202 88.2178 119.365 88.8058 119.692C89.3938 120.009 89.8558 120.467 90.1918 121.064C90.5371 121.661 90.7098 122.357 90.7098 123.15C90.7098 123.943 90.5325 124.643 90.1778 125.25C89.8325 125.847 89.3611 126.309 88.7638 126.636C88.1665 126.963 87.5038 127.126 86.7758 127.126ZM86.7758 126.006C87.2331 126.006 87.6625 125.899 88.0638 125.684C88.4651 125.469 88.7871 125.147 89.0298 124.718C89.2818 124.289 89.4078 123.766 89.4078 123.15C89.4078 122.534 89.2865 122.011 89.0438 121.582C88.8011 121.153 88.4838 120.835 88.0918 120.63C87.6998 120.415 87.2751 120.308 86.8178 120.308C86.3511 120.308 85.9218 120.415 85.5298 120.63C85.1471 120.835 84.8391 121.153 84.6058 121.582C84.3725 122.011 84.2558 122.534 84.2558 123.15C84.2558 123.775 84.3678 124.303 84.5918 124.732C84.8251 125.161 85.1331 125.483 85.5158 125.698C85.8985 125.903 86.3185 126.006 86.7758 126.006ZM95.2409 125.824L97.6209 119.328H98.9789L95.9689 127H94.4849L91.4749 119.328H92.8469L95.2409 125.824ZM100.891 118.082C100.648 118.082 100.443 117.998 100.275 117.83C100.107 117.662 100.023 117.457 100.023 117.214C100.023 116.971 100.107 116.766 100.275 116.598C100.443 116.43 100.648 116.346 100.891 116.346C101.124 116.346 101.32 116.43 101.479 116.598C101.647 116.766 101.731 116.971 101.731 117.214C101.731 117.457 101.647 117.662 101.479 117.83C101.32 117.998 101.124 118.082 100.891 118.082ZM101.507 119.328V127H100.233V119.328H101.507ZM103.202 123.136C103.202 122.352 103.361 121.666 103.678 121.078C103.995 120.481 104.429 120.019 104.98 119.692C105.54 119.365 106.165 119.202 106.856 119.202C107.453 119.202 108.009 119.342 108.522 119.622C109.035 119.893 109.427 120.252 109.698 120.7V116.64H110.986V127H109.698V125.558C109.446 126.015 109.073 126.393 108.578 126.692C108.083 126.981 107.505 127.126 106.842 127.126C106.161 127.126 105.54 126.958 104.98 126.622C104.429 126.286 103.995 125.815 103.678 125.208C103.361 124.601 103.202 123.911 103.202 123.136ZM109.698 123.15C109.698 122.571 109.581 122.067 109.348 121.638C109.115 121.209 108.797 120.882 108.396 120.658C108.004 120.425 107.57 120.308 107.094 120.308C106.618 120.308 106.184 120.42 105.792 120.644C105.4 120.868 105.087 121.195 104.854 121.624C104.621 122.053 104.504 122.557 104.504 123.136C104.504 123.724 104.621 124.237 104.854 124.676C105.087 125.105 105.4 125.437 105.792 125.67C106.184 125.894 106.618 126.006 107.094 126.006C107.57 126.006 108.004 125.894 108.396 125.67C108.797 125.437 109.115 125.105 109.348 124.676C109.581 124.237 109.698 123.729 109.698 123.15ZM120.139 122.87C120.139 123.113 120.125 123.369 120.097 123.64H113.965C114.011 124.396 114.268 124.989 114.735 125.418C115.211 125.838 115.785 126.048 116.457 126.048C117.007 126.048 117.465 125.922 117.829 125.67C118.202 125.409 118.463 125.063 118.613 124.634H119.985C119.779 125.371 119.369 125.973 118.753 126.44C118.137 126.897 117.371 127.126 116.457 127.126C115.729 127.126 115.075 126.963 114.497 126.636C113.927 126.309 113.479 125.847 113.153 125.25C112.826 124.643 112.663 123.943 112.663 123.15C112.663 122.357 112.821 121.661 113.139 121.064C113.456 120.467 113.899 120.009 114.469 119.692C115.047 119.365 115.71 119.202 116.457 119.202C117.185 119.202 117.829 119.361 118.389 119.678C118.949 119.995 119.378 120.434 119.677 120.994C119.985 121.545 120.139 122.17 120.139 122.87ZM118.823 122.604C118.823 122.119 118.715 121.703 118.501 121.358C118.286 121.003 117.992 120.737 117.619 120.56C117.255 120.373 116.849 120.28 116.401 120.28C115.757 120.28 115.206 120.485 114.749 120.896C114.301 121.307 114.044 121.876 113.979 122.604H118.823ZM132.553 122.87C132.553 123.113 132.539 123.369 132.511 123.64H126.379C126.426 124.396 126.682 124.989 127.149 125.418C127.625 125.838 128.199 126.048 128.871 126.048C129.422 126.048 129.879 125.922 130.243 125.67C130.616 125.409 130.878 125.063 131.027 124.634H132.399C132.194 125.371 131.783 125.973 131.167 126.44C130.551 126.897 129.786 127.126 128.871 127.126C128.143 127.126 127.49 126.963 126.911 126.636C126.342 126.309 125.894 125.847 125.567 125.25C125.24 124.643 125.077 123.943 125.077 123.15C125.077 122.357 125.236 121.661 125.553 121.064C125.87 120.467 126.314 120.009 126.883 119.692C127.462 119.365 128.124 119.202 128.871 119.202C129.599 119.202 130.243 119.361 130.803 119.678C131.363 119.995 131.792 120.434 132.091 120.994C132.399 121.545 132.553 122.17 132.553 122.87ZM131.237 122.604C131.237 122.119 131.13 121.703 130.915 121.358C130.7 121.003 130.406 120.737 130.033 120.56C129.669 120.373 129.263 120.28 128.815 120.28C128.171 120.28 127.62 120.485 127.163 120.896C126.715 121.307 126.458 121.876 126.393 122.604H131.237ZM138.238 127L136.418 124.144L134.668 127H133.338L135.816 123.192L133.338 119.328H134.78L136.6 122.17L138.336 119.328H139.666L137.202 123.122L139.68 127H138.238ZM142.488 120.378V124.9C142.488 125.273 142.567 125.539 142.726 125.698C142.884 125.847 143.16 125.922 143.552 125.922H144.49V127H143.342C142.632 127 142.1 126.837 141.746 126.51C141.391 126.183 141.214 125.647 141.214 124.9V120.378H140.22V119.328H141.214V117.396H142.488V119.328H144.49V120.378H142.488ZM147.307 120.574C147.531 120.135 147.849 119.795 148.259 119.552C148.679 119.309 149.188 119.188 149.785 119.188V120.504H149.449C148.021 120.504 147.307 121.279 147.307 122.828V127H146.033V119.328H147.307V120.574ZM150.78 123.136C150.78 122.352 150.939 121.666 151.256 121.078C151.573 120.481 152.007 120.019 152.558 119.692C153.118 119.365 153.739 119.202 154.42 119.202C155.092 119.202 155.675 119.347 156.17 119.636C156.665 119.925 157.033 120.289 157.276 120.728V119.328H158.564V127H157.276V125.572C157.024 126.02 156.646 126.393 156.142 126.692C155.647 126.981 155.069 127.126 154.406 127.126C153.725 127.126 153.109 126.958 152.558 126.622C152.007 126.286 151.573 125.815 151.256 125.208C150.939 124.601 150.78 123.911 150.78 123.136ZM157.276 123.15C157.276 122.571 157.159 122.067 156.926 121.638C156.693 121.209 156.375 120.882 155.974 120.658C155.582 120.425 155.148 120.308 154.672 120.308C154.196 120.308 153.762 120.42 153.37 120.644C152.978 120.868 152.665 121.195 152.432 121.624C152.199 122.053 152.082 122.557 152.082 123.136C152.082 123.724 152.199 124.237 152.432 124.676C152.665 125.105 152.978 125.437 153.37 125.67C153.762 125.894 154.196 126.006 154.672 126.006C155.148 126.006 155.582 125.894 155.974 125.67C156.375 125.437 156.693 125.105 156.926 124.676C157.159 124.237 157.276 123.729 157.276 123.15ZM167.571 120.378H165.961V127H164.687V120.378H163.693V119.328H164.687V118.782C164.687 117.923 164.907 117.298 165.345 116.906C165.793 116.505 166.507 116.304 167.487 116.304V117.368C166.927 117.368 166.531 117.48 166.297 117.704C166.073 117.919 165.961 118.278 165.961 118.782V119.328H167.571V120.378ZM168.581 123.136C168.581 122.352 168.739 121.666 169.057 121.078C169.374 120.481 169.808 120.019 170.359 119.692C170.919 119.365 171.539 119.202 172.221 119.202C172.893 119.202 173.476 119.347 173.971 119.636C174.465 119.925 174.834 120.289 175.077 120.728V119.328H176.365V127H175.077V125.572C174.825 126.02 174.447 126.393 173.943 126.692C173.448 126.981 172.869 127.126 172.207 127.126C171.525 127.126 170.909 126.958 170.359 126.622C169.808 126.286 169.374 125.815 169.057 125.208C168.739 124.601 168.581 123.911 168.581 123.136ZM175.077 123.15C175.077 122.571 174.96 122.067 174.727 121.638C174.493 121.209 174.176 120.882 173.775 120.658C173.383 120.425 172.949 120.308 172.473 120.308C171.997 120.308 171.563 120.42 171.171 120.644C170.779 120.868 170.466 121.195 170.233 121.624C169.999 122.053 169.883 122.557 169.883 123.136C169.883 123.724 169.999 124.237 170.233 124.676C170.466 125.105 170.779 125.437 171.171 125.67C171.563 125.894 171.997 126.006 172.473 126.006C172.949 126.006 173.383 125.894 173.775 125.67C174.176 125.437 174.493 125.105 174.727 124.676C174.96 124.237 175.077 123.729 175.077 123.15ZM179.792 120.574C180.016 120.135 180.333 119.795 180.744 119.552C181.164 119.309 181.672 119.188 182.27 119.188V120.504H181.934C180.506 120.504 179.792 121.279 179.792 122.828V127H178.518V119.328H179.792V120.574ZM192.966 119.188C193.564 119.188 194.096 119.314 194.562 119.566C195.029 119.809 195.398 120.177 195.668 120.672C195.939 121.167 196.074 121.769 196.074 122.478V127H194.814V122.66C194.814 121.895 194.623 121.311 194.24 120.91C193.867 120.499 193.358 120.294 192.714 120.294C192.052 120.294 191.524 120.509 191.132 120.938C190.74 121.358 190.544 121.969 190.544 122.772V127H189.284V122.66C189.284 121.895 189.093 121.311 188.71 120.91C188.337 120.499 187.828 120.294 187.184 120.294C186.522 120.294 185.994 120.509 185.602 120.938C185.21 121.358 185.014 121.969 185.014 122.772V127H183.74V119.328H185.014V120.434C185.266 120.033 185.602 119.725 186.022 119.51C186.452 119.295 186.923 119.188 187.436 119.188C188.08 119.188 188.65 119.333 189.144 119.622C189.639 119.911 190.008 120.336 190.25 120.896C190.465 120.355 190.82 119.935 191.314 119.636C191.809 119.337 192.36 119.188 192.966 119.188ZM198.822 118.082C198.58 118.082 198.374 117.998 198.206 117.83C198.038 117.662 197.954 117.457 197.954 117.214C197.954 116.971 198.038 116.766 198.206 116.598C198.374 116.43 198.58 116.346 198.822 116.346C199.056 116.346 199.252 116.43 199.41 116.598C199.578 116.766 199.662 116.971 199.662 117.214C199.662 117.457 199.578 117.662 199.41 117.83C199.252 117.998 199.056 118.082 198.822 118.082ZM199.438 119.328V127H198.164V119.328H199.438ZM205.347 119.188C206.281 119.188 207.037 119.473 207.615 120.042C208.194 120.602 208.483 121.414 208.483 122.478V127H207.223V122.66C207.223 121.895 207.032 121.311 206.649 120.91C206.267 120.499 205.744 120.294 205.081 120.294C204.409 120.294 203.873 120.504 203.471 120.924C203.079 121.344 202.883 121.955 202.883 122.758V127H201.609V119.328H202.883V120.42C203.135 120.028 203.476 119.725 203.905 119.51C204.344 119.295 204.825 119.188 205.347 119.188ZM213.729 119.202C214.391 119.202 214.97 119.347 215.465 119.636C215.969 119.925 216.342 120.289 216.585 120.728V119.328H217.873V127.168C217.873 127.868 217.723 128.489 217.425 129.03C217.126 129.581 216.697 130.01 216.137 130.318C215.586 130.626 214.942 130.78 214.205 130.78C213.197 130.78 212.357 130.542 211.685 130.066C211.013 129.59 210.616 128.941 210.495 128.12H211.755C211.895 128.587 212.184 128.96 212.623 129.24C213.061 129.529 213.589 129.674 214.205 129.674C214.905 129.674 215.474 129.455 215.913 129.016C216.361 128.577 216.585 127.961 216.585 127.168V125.558C216.333 126.006 215.959 126.379 215.465 126.678C214.97 126.977 214.391 127.126 213.729 127.126C213.047 127.126 212.427 126.958 211.867 126.622C211.316 126.286 210.882 125.815 210.565 125.208C210.247 124.601 210.089 123.911 210.089 123.136C210.089 122.352 210.247 121.666 210.565 121.078C210.882 120.481 211.316 120.019 211.867 119.692C212.427 119.365 213.047 119.202 213.729 119.202ZM216.585 123.15C216.585 122.571 216.468 122.067 216.235 121.638C216.001 121.209 215.684 120.882 215.283 120.658C214.891 120.425 214.457 120.308 213.981 120.308C213.505 120.308 213.071 120.42 212.679 120.644C212.287 120.868 211.974 121.195 211.741 121.624C211.507 122.053 211.391 122.557 211.391 123.136C211.391 123.724 211.507 124.237 211.741 124.676C211.974 125.105 212.287 125.437 212.679 125.67C213.071 125.894 213.505 126.006 213.981 126.006C214.457 126.006 214.891 125.894 215.283 125.67C215.684 125.437 216.001 125.105 216.235 124.676C216.468 124.237 216.585 123.729 216.585 123.15ZM230.366 119.328L225.746 130.612H224.43L225.942 126.916L222.848 119.328H224.262L226.67 125.544L229.05 119.328H230.366ZM232.305 118.082C232.062 118.082 231.857 117.998 231.689 117.83C231.521 117.662 231.437 117.457 231.437 117.214C231.437 116.971 231.521 116.766 231.689 116.598C231.857 116.43 232.062 116.346 232.305 116.346C232.538 116.346 232.734 116.43 232.893 116.598C233.061 116.766 233.145 116.971 233.145 117.214C233.145 117.457 233.061 117.662 232.893 117.83C232.734 117.998 232.538 118.082 232.305 118.082ZM232.921 119.328V127H231.647V119.328H232.921ZM242.092 122.87C242.092 123.113 242.078 123.369 242.05 123.64H235.918C235.965 124.396 236.221 124.989 236.688 125.418C237.164 125.838 237.738 126.048 238.41 126.048C238.961 126.048 239.418 125.922 239.782 125.67C240.155 125.409 240.417 125.063 240.566 124.634H241.938C241.733 125.371 241.322 125.973 240.706 126.44C240.09 126.897 239.325 127.126 238.41 127.126C237.682 127.126 237.029 126.963 236.45 126.636C235.881 126.309 235.433 125.847 235.106 125.25C234.779 124.643 234.616 123.943 234.616 123.15C234.616 122.357 234.775 121.661 235.092 121.064C235.409 120.467 235.853 120.009 236.422 119.692C237.001 119.365 237.663 119.202 238.41 119.202C239.138 119.202 239.782 119.361 240.342 119.678C240.902 119.995 241.331 120.434 241.63 120.994C241.938 121.545 242.092 122.17 242.092 122.87ZM240.776 122.604C240.776 122.119 240.669 121.703 240.454 121.358C240.239 121.003 239.945 120.737 239.572 120.56C239.208 120.373 238.802 120.28 238.354 120.28C237.71 120.28 237.159 120.485 236.702 120.896C236.254 121.307 235.997 121.876 235.932 122.604H240.776ZM245.048 116.64V127H243.774V116.64H245.048ZM246.743 123.136C246.743 122.352 246.902 121.666 247.219 121.078C247.536 120.481 247.97 120.019 248.521 119.692C249.081 119.365 249.706 119.202 250.397 119.202C250.994 119.202 251.55 119.342 252.063 119.622C252.576 119.893 252.968 120.252 253.239 120.7V116.64H254.527V127H253.239V125.558C252.987 126.015 252.614 126.393 252.119 126.692C251.624 126.981 251.046 127.126 250.383 127.126C249.702 127.126 249.081 126.958 248.521 126.622C247.97 126.286 247.536 125.815 247.219 125.208C246.902 124.601 246.743 123.911 246.743 123.136ZM253.239 123.15C253.239 122.571 253.122 122.067 252.889 121.638C252.656 121.209 252.338 120.882 251.937 120.658C251.545 120.425 251.111 120.308 250.635 120.308C250.159 120.308 249.725 120.42 249.333 120.644C248.941 120.868 248.628 121.195 248.395 121.624C248.162 122.053 248.045 122.557 248.045 123.136C248.045 123.724 248.162 124.237 248.395 124.676C248.628 125.105 248.941 125.437 249.333 125.67C249.725 125.894 250.159 126.006 250.635 126.006C251.111 126.006 251.545 125.894 251.937 125.67C252.338 125.437 252.656 125.105 252.889 124.676C253.122 124.237 253.239 123.729 253.239 123.15ZM73.2217 141.378H71.6117V148H70.3377V141.378H69.3437V140.328H70.3377V139.782C70.3377 138.923 70.5571 138.298 70.9957 137.906C71.4437 137.505 72.1577 137.304 73.1377 137.304V138.368C72.5777 138.368 72.1811 138.48 71.9477 138.704C71.7237 138.919 71.6117 139.278 71.6117 139.782V140.328H73.2217V141.378ZM78.0532 148.126C77.3345 148.126 76.6812 147.963 76.0932 147.636C75.5145 147.309 75.0572 146.847 74.7212 146.25C74.3945 145.643 74.2312 144.943 74.2312 144.15C74.2312 143.366 74.3992 142.675 74.7352 142.078C75.0805 141.471 75.5472 141.009 76.1352 140.692C76.7232 140.365 77.3812 140.202 78.1092 140.202C78.8372 140.202 79.4952 140.365 80.0832 140.692C80.6712 141.009 81.1332 141.467 81.4692 142.064C81.8145 142.661 81.9872 143.357 81.9872 144.15C81.9872 144.943 81.8098 145.643 81.4552 146.25C81.1098 146.847 80.6385 147.309 80.0412 147.636C79.4438 147.963 78.7812 148.126 78.0532 148.126ZM78.0532 147.006C78.5105 147.006 78.9398 146.899 79.3412 146.684C79.7425 146.469 80.0645 146.147 80.3072 145.718C80.5592 145.289 80.6852 144.766 80.6852 144.15C80.6852 143.534 80.5638 143.011 80.3212 142.582C80.0785 142.153 79.7612 141.835 79.3692 141.63C78.9772 141.415 78.5525 141.308 78.0952 141.308C77.6285 141.308 77.1992 141.415 76.8072 141.63C76.4245 141.835 76.1165 142.153 75.8832 142.582C75.6498 143.011 75.5332 143.534 75.5332 144.15C75.5332 144.775 75.6452 145.303 75.8692 145.732C76.1025 146.161 76.4105 146.483 76.7932 146.698C77.1758 146.903 77.5958 147.006 78.0532 147.006ZM84.9362 141.574C85.1602 141.135 85.4776 140.795 85.8882 140.552C86.3082 140.309 86.8169 140.188 87.4142 140.188V141.504H87.0782C85.6502 141.504 84.9362 142.279 84.9362 143.828V148H83.6622V140.328H84.9362V141.574ZM93.8913 141.756C94.1526 141.299 94.5353 140.925 95.0393 140.636C95.5433 140.347 96.1173 140.202 96.7613 140.202C97.452 140.202 98.0726 140.365 98.6233 140.692C99.174 141.019 99.608 141.481 99.9253 142.078C100.243 142.666 100.401 143.352 100.401 144.136C100.401 144.911 100.243 145.601 99.9253 146.208C99.608 146.815 99.1693 147.286 98.6093 147.622C98.0586 147.958 97.4426 148.126 96.7613 148.126C96.0986 148.126 95.5153 147.981 95.0113 147.692C94.5166 147.403 94.1433 147.034 93.8913 146.586V148H92.6173V137.64H93.8913V141.756ZM99.0993 144.136C99.0993 143.557 98.9826 143.053 98.7493 142.624C98.516 142.195 98.1986 141.868 97.7973 141.644C97.4053 141.42 96.9713 141.308 96.4953 141.308C96.0286 141.308 95.5946 141.425 95.1933 141.658C94.8013 141.882 94.484 142.213 94.2413 142.652C94.008 143.081 93.8913 143.581 93.8913 144.15C93.8913 144.729 94.008 145.237 94.2413 145.676C94.484 146.105 94.8013 146.437 95.1933 146.67C95.5946 146.894 96.0286 147.006 96.4953 147.006C96.9713 147.006 97.4053 146.894 97.7973 146.67C98.1986 146.437 98.516 146.105 98.7493 145.676C98.9826 145.237 99.0993 144.724 99.0993 144.136ZM105.424 148.126C104.706 148.126 104.052 147.963 103.464 147.636C102.886 147.309 102.428 146.847 102.092 146.25C101.766 145.643 101.602 144.943 101.602 144.15C101.602 143.366 101.77 142.675 102.106 142.078C102.452 141.471 102.918 141.009 103.506 140.692C104.094 140.365 104.752 140.202 105.48 140.202C106.208 140.202 106.866 140.365 107.454 140.692C108.042 141.009 108.504 141.467 108.84 142.064C109.186 142.661 109.358 143.357 109.358 144.15C109.358 144.943 109.181 145.643 108.826 146.25C108.481 146.847 108.01 147.309 107.412 147.636C106.815 147.963 106.152 148.126 105.424 148.126ZM105.424 147.006C105.882 147.006 106.311 146.899 106.712 146.684C107.114 146.469 107.436 146.147 107.678 145.718C107.93 145.289 108.056 144.766 108.056 144.15C108.056 143.534 107.935 143.011 107.692 142.582C107.45 142.153 107.132 141.835 106.74 141.63C106.348 141.415 105.924 141.308 105.466 141.308C105 141.308 104.57 141.415 104.178 141.63C103.796 141.835 103.488 142.153 103.254 142.582C103.021 143.011 102.904 143.534 102.904 144.15C102.904 144.775 103.016 145.303 103.24 145.732C103.474 146.161 103.782 146.483 104.164 146.698C104.547 146.903 104.967 147.006 105.424 147.006ZM114.771 140.188C115.705 140.188 116.461 140.473 117.039 141.042C117.618 141.602 117.907 142.414 117.907 143.478V148H116.647V143.66C116.647 142.895 116.456 142.311 116.073 141.91C115.691 141.499 115.168 141.294 114.505 141.294C113.833 141.294 113.297 141.504 112.895 141.924C112.503 142.344 112.307 142.955 112.307 143.758V148H111.033V140.328H112.307V141.42C112.559 141.028 112.9 140.725 113.329 140.51C113.768 140.295 114.249 140.188 114.771 140.188ZM119.512 144.136C119.512 143.352 119.671 142.666 119.988 142.078C120.306 141.481 120.74 141.019 121.29 140.692C121.85 140.365 122.476 140.202 123.166 140.202C123.764 140.202 124.319 140.342 124.832 140.622C125.346 140.893 125.738 141.252 126.008 141.7V137.64H127.296V148H126.008V146.558C125.756 147.015 125.383 147.393 124.888 147.692C124.394 147.981 123.815 148.126 123.152 148.126C122.471 148.126 121.85 147.958 121.29 147.622C120.74 147.286 120.306 146.815 119.988 146.208C119.671 145.601 119.512 144.911 119.512 144.136ZM126.008 144.15C126.008 143.571 125.892 143.067 125.658 142.638C125.425 142.209 125.108 141.882 124.706 141.658C124.314 141.425 123.88 141.308 123.404 141.308C122.928 141.308 122.494 141.42 122.102 141.644C121.71 141.868 121.398 142.195 121.164 142.624C120.931 143.053 120.814 143.557 120.814 144.136C120.814 144.724 120.931 145.237 121.164 145.676C121.398 146.105 121.71 146.437 122.102 146.67C122.494 146.894 122.928 147.006 123.404 147.006C123.88 147.006 124.314 146.894 124.706 146.67C125.108 146.437 125.425 146.105 125.658 145.676C125.892 145.237 126.008 144.729 126.008 144.15ZM136.449 143.87C136.449 144.113 136.435 144.369 136.407 144.64H130.275C130.322 145.396 130.579 145.989 131.045 146.418C131.521 146.838 132.095 147.048 132.767 147.048C133.318 147.048 133.775 146.922 134.139 146.67C134.513 146.409 134.774 146.063 134.923 145.634H136.295C136.09 146.371 135.679 146.973 135.063 147.44C134.447 147.897 133.682 148.126 132.767 148.126C132.039 148.126 131.386 147.963 130.807 147.636C130.238 147.309 129.79 146.847 129.463 146.25C129.137 145.643 128.973 144.943 128.973 144.15C128.973 143.357 129.132 142.661 129.449 142.064C129.767 141.467 130.21 141.009 130.779 140.692C131.358 140.365 132.021 140.202 132.767 140.202C133.495 140.202 134.139 140.361 134.699 140.678C135.259 140.995 135.689 141.434 135.987 141.994C136.295 142.545 136.449 143.17 136.449 143.87ZM135.133 143.604C135.133 143.119 135.026 142.703 134.811 142.358C134.597 142.003 134.303 141.737 133.929 141.56C133.565 141.373 133.159 141.28 132.711 141.28C132.067 141.28 131.517 141.485 131.059 141.896C130.611 142.307 130.355 142.876 130.289 143.604H135.133ZM137.655 144.136C137.655 143.352 137.814 142.666 138.131 142.078C138.448 141.481 138.882 141.019 139.433 140.692C139.993 140.365 140.618 140.202 141.309 140.202C141.906 140.202 142.462 140.342 142.975 140.622C143.488 140.893 143.88 141.252 144.151 141.7V137.64H145.439V148H144.151V146.558C143.899 147.015 143.526 147.393 143.031 147.692C142.536 147.981 141.958 148.126 141.295 148.126C140.614 148.126 139.993 147.958 139.433 147.622C138.882 147.286 138.448 146.815 138.131 146.208C137.814 145.601 137.655 144.911 137.655 144.136ZM144.151 144.15C144.151 143.571 144.034 143.067 143.801 142.638C143.568 142.209 143.25 141.882 142.849 141.658C142.457 141.425 142.023 141.308 141.547 141.308C141.071 141.308 140.637 141.42 140.245 141.644C139.853 141.868 139.54 142.195 139.307 142.624C139.074 143.053 138.957 143.557 138.957 144.136C138.957 144.724 139.074 145.237 139.307 145.676C139.54 146.105 139.853 146.437 140.245 146.67C140.637 146.894 141.071 147.006 141.547 147.006C142.023 147.006 142.457 146.894 142.849 146.67C143.25 146.437 143.568 146.105 143.801 145.676C144.034 145.237 144.151 144.729 144.151 144.15ZM152.598 146.964H156.014V148H151.324V138.242H152.598V146.964ZM163.891 141.098C163.891 141.91 163.611 142.587 163.051 143.128C162.501 143.66 161.656 143.926 160.517 143.926H158.641V148H157.367V138.242H160.517C161.619 138.242 162.454 138.508 163.023 139.04C163.602 139.572 163.891 140.258 163.891 141.098ZM160.517 142.876C161.227 142.876 161.749 142.722 162.085 142.414C162.421 142.106 162.589 141.667 162.589 141.098C162.589 139.894 161.899 139.292 160.517 139.292H158.641V142.876H160.517ZM172.553 148.126C171.834 148.126 171.181 147.963 170.593 147.636C170.014 147.309 169.557 146.847 169.221 146.25C168.894 145.643 168.731 144.943 168.731 144.15C168.731 143.366 168.899 142.675 169.235 142.078C169.58 141.471 170.047 141.009 170.635 140.692C171.223 140.365 171.881 140.202 172.609 140.202C173.337 140.202 173.995 140.365 174.583 140.692C175.171 141.009 175.633 141.467 175.969 142.064C176.314 142.661 176.487 143.357 176.487 144.15C176.487 144.943 176.31 145.643 175.955 146.25C175.61 146.847 175.138 147.309 174.541 147.636C173.944 147.963 173.281 148.126 172.553 148.126ZM172.553 147.006C173.01 147.006 173.44 146.899 173.841 146.684C174.242 146.469 174.564 146.147 174.807 145.718C175.059 145.289 175.185 144.766 175.185 144.15C175.185 143.534 175.064 143.011 174.821 142.582C174.578 142.153 174.261 141.835 173.869 141.63C173.477 141.415 173.052 141.308 172.595 141.308C172.128 141.308 171.699 141.415 171.307 141.63C170.924 141.835 170.616 142.153 170.383 142.582C170.15 143.011 170.033 143.534 170.033 144.15C170.033 144.775 170.145 145.303 170.369 145.732C170.602 146.161 170.91 146.483 171.293 146.698C171.676 146.903 172.096 147.006 172.553 147.006ZM181.9 140.188C182.834 140.188 183.59 140.473 184.168 141.042C184.747 141.602 185.036 142.414 185.036 143.478V148H183.776V143.66C183.776 142.895 183.585 142.311 183.202 141.91C182.82 141.499 182.297 141.294 181.634 141.294C180.962 141.294 180.426 141.504 180.024 141.924C179.632 142.344 179.436 142.955 179.436 143.758V148H178.162V140.328H179.436V141.42C179.688 141.028 180.029 140.725 180.458 140.51C180.897 140.295 181.378 140.188 181.9 140.188ZM193.888 138.242C194.952 138.242 195.871 138.443 196.646 138.844C197.43 139.236 198.027 139.801 198.438 140.538C198.858 141.275 199.068 142.143 199.068 143.142C199.068 144.141 198.858 145.009 198.438 145.746C198.027 146.474 197.43 147.034 196.646 147.426C195.871 147.809 194.952 148 193.888 148H190.85V138.242H193.888ZM193.888 146.95C195.148 146.95 196.109 146.619 196.772 145.956C197.434 145.284 197.766 144.346 197.766 143.142C197.766 141.929 197.43 140.981 196.758 140.3C196.095 139.619 195.138 139.278 193.888 139.278H192.124V146.95H193.888ZM202.022 139.278V142.54H205.578V143.59H202.022V146.95H205.998V148H200.748V138.228H205.998V139.278H202.022ZM211.916 143.128L214.912 148H213.47L211.132 144.192L208.906 148H207.492L210.474 143.128L207.478 138.242H208.906L211.258 142.064L213.498 138.242H214.926L211.916 143.128Z" fill="black"/>
<path d="M51 143L68.5 158H281" stroke="#FED9B2" stroke-linecap="round"/>
<path d="M40 100L68 73H275" stroke="#FED9B2" stroke-linecap="round"/>
<path d="M71.3445 12.0424C70.8585 17.2955 71.6801 23.1582 74.9924 25.7729C78.361 27.7339 84.8285 21.6704 87.1239 19.8215C93.2933 14.8524 88.6603 7.81906 81.1213 5.55674C71.0695 2.54039 71.4716 10.6676 71.3445 12.0424Z" fill="white" fill-opacity="0.5"/>
<path d="M78.8769 7.23149C74.5815 5.34549 67.8642 6.79777 65.7241 8.71438C63.4195 11.9699 68.1117 19.9447 69.6269 22.5417C72.9219 28.1896 78.5435 28.4512 81.2673 21.336C85.6611 9.85818 80.3143 7.86265 78.8769 7.23149Z" fill="white" fill-opacity="0.3"/>
<path d="M69.77 14.4819C69.8167 13.5486 70.1433 12.8299 70.75 12.3259C71.366 11.8126 72.1733 11.5559 73.172 11.5559C73.8533 11.5559 74.4367 11.6773 74.922 11.9199C75.4073 12.1533 75.7713 12.4753 76.014 12.8859C76.266 13.2873 76.392 13.7446 76.392 14.2579C76.392 14.8459 76.238 15.3453 75.93 15.7559C75.6313 16.1573 75.272 16.4279 74.852 16.5679V16.6239C75.3933 16.7919 75.8133 17.0906 76.112 17.5199C76.42 17.9493 76.574 18.4999 76.574 19.1719C76.574 19.7319 76.4433 20.2313 76.182 20.6699C75.93 21.1086 75.552 21.4539 75.048 21.7059C74.5533 21.9486 73.956 22.0699 73.256 22.0699C72.2013 22.0699 71.3427 21.8039 70.68 21.2719C70.0173 20.7399 69.6673 19.9559 69.63 18.9199H71.534C71.5527 19.3773 71.7067 19.7459 71.996 20.0259C72.2947 20.2966 72.7007 20.4319 73.214 20.4319C73.69 20.4319 74.054 20.3013 74.306 20.0399C74.5673 19.7693 74.698 19.4239 74.698 19.0039C74.698 18.4439 74.5207 18.0426 74.166 17.7999C73.8113 17.5573 73.2607 17.4359 72.514 17.4359H72.108V15.8259H72.514C73.8393 15.8259 74.502 15.3826 74.502 14.4959C74.502 14.0946 74.3807 13.7819 74.138 13.5579C73.9047 13.3339 73.564 13.2219 73.116 13.2219C72.6773 13.2219 72.3367 13.3433 72.094 13.5859C71.8607 13.8193 71.7253 14.1179 71.688 14.4819H69.77ZM92.3368 12.2279V21.9999H90.3768V15.6439L87.7588 21.9999H86.2748L83.6428 15.6439V21.9999H81.6828V12.2279H83.9088L87.0168 19.4939L90.1248 12.2279H92.3368ZM104.929 12.2279V21.9999H102.969V15.6439L100.351 21.9999H98.8666L96.2346 15.6439V21.9999H94.2746V12.2279H96.5006L99.6086 19.4939L102.717 12.2279H104.929Z" fill="black"/>
<path d="M71.7575 40.964H75.1735V42H70.4835V32.242H71.7575V40.964ZM77.1845 33.082C76.9418 33.082 76.7365 32.998 76.5685 32.83C76.4005 32.662 76.3165 32.4567 76.3165 32.214C76.3165 31.9713 76.4005 31.766 76.5685 31.598C76.7365 31.43 76.9418 31.346 77.1845 31.346C77.4178 31.346 77.6138 31.43 77.7725 31.598C77.9405 31.766 78.0245 31.9713 78.0245 32.214C78.0245 32.4567 77.9405 32.662 77.7725 32.83C77.6138 32.998 77.4178 33.082 77.1845 33.082ZM77.8005 34.328V42H76.5265V34.328H77.8005ZM79.4958 38.136C79.4958 37.352 79.6545 36.666 79.9718 36.078C80.2891 35.4807 80.7231 35.0187 81.2738 34.692C81.8338 34.3653 82.4591 34.202 83.1498 34.202C83.8125 34.202 84.3911 34.3513 84.8858 34.65C85.3898 34.9393 85.7585 35.2987 85.9918 35.728V34.328H87.2798V45.64H85.9918V40.586C85.7491 41.0153 85.3758 41.3793 84.8718 41.678C84.3678 41.9767 83.7798 42.126 83.1078 42.126C82.4358 42.126 81.8245 41.958 81.2738 41.622C80.7231 41.286 80.2891 40.8147 79.9718 40.208C79.6545 39.6013 79.4958 38.9107 79.4958 38.136ZM85.9918 38.15C85.9918 37.5713 85.8751 37.0673 85.6418 36.638C85.4085 36.2087 85.0911 35.882 84.6898 35.658C84.2978 35.4247 83.8638 35.308 83.3878 35.308C82.9118 35.308 82.4778 35.42 82.0858 35.644C81.6938 35.868 81.3811 36.1947 81.1478 36.624C80.9145 37.0533 80.7978 37.5573 80.7978 38.136C80.7978 38.724 80.9145 39.2373 81.1478 39.676C81.3811 40.1053 81.6938 40.4367 82.0858 40.67C82.4778 40.894 82.9118 41.006 83.3878 41.006C83.8638 41.006 84.2978 40.894 84.6898 40.67C85.0911 40.4367 85.4085 40.1053 85.6418 39.676C85.8751 39.2373 85.9918 38.7287 85.9918 38.15ZM96.2367 34.328V42H94.9627V40.866C94.7201 41.258 94.3794 41.566 93.9407 41.79C93.5114 42.0047 93.0354 42.112 92.5127 42.112C91.9154 42.112 91.3787 41.9907 90.9027 41.748C90.4267 41.496 90.0487 41.1227 89.7687 40.628C89.4981 40.1333 89.3627 39.5313 89.3627 38.822V34.328H90.6227V38.654C90.6227 39.41 90.8141 39.9933 91.1967 40.404C91.5794 40.8053 92.1021 41.006 92.7647 41.006C93.4461 41.006 93.9827 40.796 94.3747 40.376C94.7667 39.956 94.9627 39.3447 94.9627 38.542V34.328H96.2367ZM99.0458 33.082C98.8031 33.082 98.5978 32.998 98.4298 32.83C98.2618 32.662 98.1778 32.4567 98.1778 32.214C98.1778 31.9713 98.2618 31.766 98.4298 31.598C98.5978 31.43 98.8031 31.346 99.0458 31.346C99.2791 31.346 99.4751 31.43 99.6338 31.598C99.8018 31.766 99.8858 31.9713 99.8858 32.214C99.8858 32.4567 99.8018 32.662 99.6338 32.83C99.4751 32.998 99.2791 33.082 99.0458 33.082ZM99.6618 34.328V42H98.3878V34.328H99.6618ZM101.357 38.136C101.357 37.352 101.516 36.666 101.833 36.078C102.15 35.4807 102.584 35.0187 103.135 34.692C103.695 34.3653 104.32 34.202 105.011 34.202C105.608 34.202 106.164 34.342 106.677 34.622C107.19 34.8927 107.582 35.252 107.853 35.7V31.64H109.141V42H107.853V40.558C107.601 41.0153 107.228 41.3933 106.733 41.692C106.238 41.9813 105.66 42.126 104.997 42.126C104.316 42.126 103.695 41.958 103.135 41.622C102.584 41.286 102.15 40.8147 101.833 40.208C101.516 39.6013 101.357 38.9107 101.357 38.136ZM107.853 38.15C107.853 37.5713 107.736 37.0673 107.503 36.638C107.27 36.2087 106.952 35.882 106.551 35.658C106.159 35.4247 105.725 35.308 105.249 35.308C104.773 35.308 104.339 35.42 103.947 35.644C103.555 35.868 103.242 36.1947 103.009 36.624C102.776 37.0533 102.659 37.5573 102.659 38.136C102.659 38.724 102.776 39.2373 103.009 39.676C103.242 40.1053 103.555 40.4367 103.947 40.67C104.339 40.894 104.773 41.006 105.249 41.006C105.725 41.006 106.159 40.894 106.551 40.67C106.952 40.4367 107.27 40.1053 107.503 39.676C107.736 39.2373 107.853 38.7287 107.853 38.15ZM111.952 33.082C111.709 33.082 111.504 32.998 111.336 32.83C111.168 32.662 111.084 32.4567 111.084 32.214C111.084 31.9713 111.168 31.766 111.336 31.598C111.504 31.43 111.709 31.346 111.952 31.346C112.185 31.346 112.381 31.43 112.54 31.598C112.708 31.766 112.792 31.9713 112.792 32.214C112.792 32.4567 112.708 32.662 112.54 32.83C112.381 32.998 112.185 33.082 111.952 33.082ZM112.568 34.328V42H111.294V34.328H112.568ZM116.293 35.378V39.9C116.293 40.2733 116.373 40.5393 116.531 40.698C116.69 40.8473 116.965 40.922 117.357 40.922H118.295V42H117.147C116.438 42 115.906 41.8367 115.551 41.51C115.197 41.1833 115.019 40.6467 115.019 39.9V35.378H114.025V34.328H115.019V32.396H116.293V34.328H118.295V35.378H116.293ZM126.447 34.328L121.827 45.612H120.511L122.023 41.916L118.929 34.328H120.343L122.751 40.544L125.131 34.328H126.447ZM132.734 35.742C132.986 35.3033 133.359 34.9393 133.854 34.65C134.358 34.3513 134.941 34.202 135.604 34.202C136.285 34.202 136.901 34.3653 137.452 34.692C138.012 35.0187 138.451 35.4807 138.768 36.078C139.085 36.666 139.244 37.352 139.244 38.136C139.244 38.9107 139.085 39.6013 138.768 40.208C138.451 40.8147 138.012 41.286 137.452 41.622C136.901 41.958 136.285 42.126 135.604 42.126C134.951 42.126 134.372 41.9813 133.868 41.692C133.373 41.3933 132.995 41.0247 132.734 40.586V45.64H131.46V34.328H132.734V35.742ZM137.942 38.136C137.942 37.5573 137.825 37.0533 137.592 36.624C137.359 36.1947 137.041 35.868 136.64 35.644C136.248 35.42 135.814 35.308 135.338 35.308C134.871 35.308 134.437 35.4247 134.036 35.658C133.644 35.882 133.327 36.2133 133.084 36.652C132.851 37.0813 132.734 37.5807 132.734 38.15C132.734 38.7287 132.851 39.2373 133.084 39.676C133.327 40.1053 133.644 40.4367 134.036 40.67C134.437 40.894 134.871 41.006 135.338 41.006C135.814 41.006 136.248 40.894 136.64 40.67C137.041 40.4367 137.359 40.1053 137.592 39.676C137.825 39.2373 137.942 38.724 137.942 38.136ZM142.195 35.574C142.419 35.1353 142.736 34.7947 143.147 34.552C143.567 34.3093 144.076 34.188 144.673 34.188V35.504H144.337C142.909 35.504 142.195 36.2787 142.195 37.828V42H140.921V34.328H142.195V35.574ZM149.49 42.126C148.771 42.126 148.118 41.9627 147.53 41.636C146.951 41.3093 146.494 40.8473 146.158 40.25C145.831 39.6433 145.668 38.9433 145.668 38.15C145.668 37.366 145.836 36.6753 146.172 36.078C146.517 35.4713 146.984 35.0093 147.572 34.692C148.16 34.3653 148.818 34.202 149.546 34.202C150.274 34.202 150.932 34.3653 151.52 34.692C152.108 35.0093 152.57 35.4667 152.906 36.064C153.251 36.6613 153.424 37.3567 153.424 38.15C153.424 38.9433 153.246 39.6433 152.892 40.25C152.546 40.8473 152.075 41.3093 151.478 41.636C150.88 41.9627 150.218 42.126 149.49 42.126ZM149.49 41.006C149.947 41.006 150.376 40.8987 150.778 40.684C151.179 40.4693 151.501 40.1473 151.744 39.718C151.996 39.2887 152.122 38.766 152.122 38.15C152.122 37.534 152 37.0113 151.758 36.582C151.515 36.1527 151.198 35.8353 150.806 35.63C150.414 35.4153 149.989 35.308 149.532 35.308C149.065 35.308 148.636 35.4153 148.244 35.63C147.861 35.8353 147.553 36.1527 147.32 36.582C147.086 37.0113 146.97 37.534 146.97 38.15C146.97 38.7753 147.082 39.3027 147.306 39.732C147.539 40.1613 147.847 40.4833 148.23 40.698C148.612 40.9033 149.032 41.006 149.49 41.006ZM157.955 40.824L160.335 34.328H161.693L158.683 42H157.199L154.189 34.328H155.561L157.955 40.824ZM163.604 33.082C163.362 33.082 163.156 32.998 162.988 32.83C162.82 32.662 162.736 32.4567 162.736 32.214C162.736 31.9713 162.82 31.766 162.988 31.598C163.156 31.43 163.362 31.346 163.604 31.346C163.838 31.346 164.034 31.43 164.192 31.598C164.36 31.766 164.444 31.9713 164.444 32.214C164.444 32.4567 164.36 32.662 164.192 32.83C164.034 32.998 163.838 33.082 163.604 33.082ZM164.22 34.328V42H162.946V34.328H164.22ZM169.108 42.126C168.52 42.126 167.992 42.028 167.526 41.832C167.059 41.6267 166.69 41.3467 166.42 40.992C166.149 40.628 166 40.2127 165.972 39.746H167.288C167.325 40.1287 167.502 40.4413 167.82 40.684C168.146 40.9267 168.571 41.048 169.094 41.048C169.579 41.048 169.962 40.9407 170.242 40.726C170.522 40.5113 170.662 40.2407 170.662 39.914C170.662 39.578 170.512 39.3307 170.214 39.172C169.915 39.004 169.453 38.8407 168.828 38.682C168.258 38.5327 167.792 38.3833 167.428 38.234C167.073 38.0753 166.765 37.8467 166.504 37.548C166.252 37.24 166.126 36.8387 166.126 36.344C166.126 35.952 166.242 35.5927 166.476 35.266C166.709 34.9393 167.04 34.6827 167.47 34.496C167.899 34.3 168.389 34.202 168.94 34.202C169.789 34.202 170.475 34.4167 170.998 34.846C171.52 35.2753 171.8 35.8633 171.838 36.61H170.564C170.536 36.2087 170.372 35.8867 170.074 35.644C169.784 35.4013 169.392 35.28 168.898 35.28C168.44 35.28 168.076 35.378 167.806 35.574C167.535 35.77 167.4 36.0267 167.4 36.344C167.4 36.596 167.479 36.806 167.638 36.974C167.806 37.1327 168.011 37.2633 168.254 37.366C168.506 37.4593 168.851 37.5667 169.29 37.688C169.84 37.8373 170.288 37.9867 170.634 38.136C170.979 38.276 171.273 38.4907 171.516 38.78C171.768 39.0693 171.898 39.4473 171.908 39.914C171.908 40.334 171.791 40.712 171.558 41.048C171.324 41.384 170.993 41.65 170.564 41.846C170.144 42.0327 169.658 42.126 169.108 42.126ZM174.364 33.082C174.122 33.082 173.916 32.998 173.748 32.83C173.58 32.662 173.496 32.4567 173.496 32.214C173.496 31.9713 173.58 31.766 173.748 31.598C173.916 31.43 174.122 31.346 174.364 31.346C174.598 31.346 174.794 31.43 174.952 31.598C175.12 31.766 175.204 31.9713 175.204 32.214C175.204 32.4567 175.12 32.662 174.952 32.83C174.794 32.998 174.598 33.082 174.364 33.082ZM174.98 34.328V42H173.706V34.328H174.98ZM180.497 42.126C179.779 42.126 179.125 41.9627 178.537 41.636C177.959 41.3093 177.501 40.8473 177.165 40.25C176.839 39.6433 176.675 38.9433 176.675 38.15C176.675 37.366 176.843 36.6753 177.179 36.078C177.525 35.4713 177.991 35.0093 178.579 34.692C179.167 34.3653 179.825 34.202 180.553 34.202C181.281 34.202 181.939 34.3653 182.527 34.692C183.115 35.0093 183.577 35.4667 183.913 36.064C184.259 36.6613 184.431 37.3567 184.431 38.15C184.431 38.9433 184.254 39.6433 183.899 40.25C183.554 40.8473 183.083 41.3093 182.485 41.636C181.888 41.9627 181.225 42.126 180.497 42.126ZM180.497 41.006C180.955 41.006 181.384 40.8987 181.785 40.684C182.187 40.4693 182.509 40.1473 182.751 39.718C183.003 39.2887 183.129 38.766 183.129 38.15C183.129 37.534 183.008 37.0113 182.765 36.582C182.523 36.1527 182.205 35.8353 181.813 35.63C181.421 35.4153 180.997 35.308 180.539 35.308C180.073 35.308 179.643 35.4153 179.251 35.63C178.869 35.8353 178.561 36.1527 178.327 36.582C178.094 37.0113 177.977 37.534 177.977 38.15C177.977 38.7753 178.089 39.3027 178.313 39.732C178.547 40.1613 178.855 40.4833 179.237 40.698C179.62 40.9033 180.04 41.006 180.497 41.006ZM189.845 34.188C190.778 34.188 191.534 34.4727 192.113 35.042C192.691 35.602 192.981 36.414 192.981 37.478V42H191.721V37.66C191.721 36.8947 191.529 36.3113 191.147 35.91C190.764 35.4993 190.241 35.294 189.579 35.294C188.907 35.294 188.37 35.504 187.969 35.924C187.577 36.344 187.381 36.9553 187.381 37.758V42H186.107V34.328H187.381V35.42C187.633 35.028 187.973 34.7247 188.403 34.51C188.841 34.2953 189.322 34.188 189.845 34.188ZM195.72 33.082C195.477 33.082 195.272 32.998 195.104 32.83C194.936 32.662 194.852 32.4567 194.852 32.214C194.852 31.9713 194.936 31.766 195.104 31.598C195.272 31.43 195.477 31.346 195.72 31.346C195.953 31.346 196.149 31.43 196.308 31.598C196.476 31.766 196.56 31.9713 196.56 32.214C196.56 32.4567 196.476 32.662 196.308 32.83C196.149 32.998 195.953 33.082 195.72 33.082ZM196.336 34.328V42H195.062V34.328H196.336ZM202.245 34.188C203.178 34.188 203.934 34.4727 204.513 35.042C205.092 35.602 205.381 36.414 205.381 37.478V42H204.121V37.66C204.121 36.8947 203.93 36.3113 203.547 35.91C203.164 35.4993 202.642 35.294 201.979 35.294C201.307 35.294 200.77 35.504 200.369 35.924C199.977 36.344 199.781 36.9553 199.781 37.758V42H198.507V34.328H199.781V35.42C200.033 35.028 200.374 34.7247 200.803 34.51C201.242 34.2953 201.722 34.188 202.245 34.188ZM210.626 34.202C211.289 34.202 211.867 34.3467 212.362 34.636C212.866 34.9253 213.239 35.2893 213.482 35.728V34.328H214.77V42.168C214.77 42.868 214.621 43.4887 214.322 44.03C214.023 44.5807 213.594 45.01 213.034 45.318C212.483 45.626 211.839 45.78 211.102 45.78C210.094 45.78 209.254 45.542 208.582 45.066C207.91 44.59 207.513 43.9413 207.392 43.12H208.652C208.792 43.5867 209.081 43.96 209.52 44.24C209.959 44.5293 210.486 44.674 211.102 44.674C211.802 44.674 212.371 44.4547 212.81 44.016C213.258 43.5773 213.482 42.9613 213.482 42.168V40.558C213.23 41.006 212.857 41.3793 212.362 41.678C211.867 41.9767 211.289 42.126 210.626 42.126C209.945 42.126 209.324 41.958 208.764 41.622C208.213 41.286 207.779 40.8147 207.462 40.208C207.145 39.6013 206.986 38.9107 206.986 38.136C206.986 37.352 207.145 36.666 207.462 36.078C207.779 35.4807 208.213 35.0187 208.764 34.692C209.324 34.3653 209.945 34.202 210.626 34.202ZM213.482 38.15C213.482 37.5713 213.365 37.0673 213.132 36.638C212.899 36.2087 212.581 35.882 212.18 35.658C211.788 35.4247 211.354 35.308 210.878 35.308C210.402 35.308 209.968 35.42 209.576 35.644C209.184 35.868 208.871 36.1947 208.638 36.624C208.405 37.0533 208.288 37.5573 208.288 38.136C208.288 38.724 208.405 39.2373 208.638 39.676C208.871 40.1053 209.184 40.4367 209.576 40.67C209.968 40.894 210.402 41.006 210.878 41.006C211.354 41.006 211.788 40.894 212.18 40.67C212.581 40.4367 212.899 40.1053 213.132 39.676C213.365 39.2373 213.482 38.7287 213.482 38.15ZM224.001 42.126C223.283 42.126 222.629 41.9627 222.041 41.636C221.463 41.3093 221.005 40.8473 220.669 40.25C220.343 39.6433 220.179 38.9433 220.179 38.15C220.179 37.366 220.347 36.6753 220.683 36.078C221.029 35.4713 221.495 35.0093 222.083 34.692C222.671 34.3653 223.329 34.202 224.057 34.202C224.785 34.202 225.443 34.3653 226.031 34.692C226.619 35.0093 227.081 35.4667 227.417 36.064C227.763 36.6613 227.935 37.3567 227.935 38.15C227.935 38.9433 227.758 39.6433 227.403 40.25C227.058 40.8473 226.587 41.3093 225.989 41.636C225.392 41.9627 224.729 42.126 224.001 42.126ZM224.001 41.006C224.459 41.006 224.888 40.8987 225.289 40.684C225.691 40.4693 226.013 40.1473 226.255 39.718C226.507 39.2887 226.633 38.766 226.633 38.15C226.633 37.534 226.512 37.0113 226.269 36.582C226.027 36.1527 225.709 35.8353 225.317 35.63C224.925 35.4153 224.501 35.308 224.043 35.308C223.577 35.308 223.147 35.4153 222.755 35.63C222.373 35.8353 222.065 36.1527 221.831 36.582C221.598 37.0113 221.481 37.534 221.481 38.15C221.481 38.7753 221.593 39.3027 221.817 39.732C222.051 40.1613 222.359 40.4833 222.741 40.698C223.124 40.9033 223.544 41.006 224.001 41.006ZM233.348 34.188C234.282 34.188 235.038 34.4727 235.616 35.042C236.195 35.602 236.484 36.414 236.484 37.478V42H235.224V37.66C235.224 36.8947 235.033 36.3113 234.65 35.91C234.268 35.4993 233.745 35.294 233.082 35.294C232.41 35.294 231.874 35.504 231.472 35.924C231.08 36.344 230.884 36.9553 230.884 37.758V42H229.61V34.328H230.884V35.42C231.136 35.028 231.477 34.7247 231.906 34.51C232.345 34.2953 232.826 34.188 233.348 34.188ZM245.336 32.242C246.4 32.242 247.319 32.4427 248.094 32.844C248.878 33.236 249.475 33.8007 249.886 34.538C250.306 35.2753 250.516 36.1433 250.516 37.142C250.516 38.1407 250.306 39.0087 249.886 39.746C249.475 40.474 248.878 41.034 248.094 41.426C247.319 41.8087 246.4 42 245.336 42H242.298V32.242H245.336ZM245.336 40.95C246.596 40.95 247.557 40.6187 248.22 39.956C248.883 39.284 249.214 38.346 249.214 37.142C249.214 35.9287 248.878 34.9813 248.206 34.3C247.543 33.6187 246.587 33.278 245.336 33.278H243.572V40.95H245.336ZM253.47 33.278V36.54H257.026V37.59H253.47V40.95H257.446V42H252.196V32.228H257.446V33.278H253.47ZM263.364 37.128L266.36 42H264.918L262.58 38.192L260.354 42H258.94L261.922 37.128L258.926 32.242H260.354L262.706 36.064L264.946 32.242H266.374L263.364 37.128ZM73.7595 65.604C72.8635 64.7267 72.1635 63.6113 71.6595 62.258C71.1649 60.9047 70.9175 59.444 70.9175 57.876C70.9175 56.2707 71.1789 54.7727 71.7015 53.382C72.2335 51.982 72.9895 50.8293 73.9695 49.924H75.2995V50.05C74.2542 51.03 73.4655 52.2107 72.9335 53.592C72.4109 54.964 72.1495 56.392 72.1495 57.876C72.1495 59.3227 72.3969 60.704 72.8915 62.02C73.3955 63.336 74.1282 64.4887 75.0895 65.478V65.604H73.7595ZM81.2649 63.098C80.3596 63.098 79.5336 62.888 78.7869 62.468C78.0403 62.0387 77.4476 61.446 77.0089 60.69C76.5796 59.9247 76.3649 59.066 76.3649 58.114C76.3649 57.162 76.5796 56.308 77.0089 55.552C77.4476 54.7867 78.0403 54.194 78.7869 53.774C79.5336 53.3447 80.3596 53.13 81.2649 53.13C82.1796 53.13 83.0103 53.3447 83.7569 53.774C84.5036 54.194 85.0916 54.782 85.5209 55.538C85.9503 56.294 86.1649 57.1527 86.1649 58.114C86.1649 59.0753 85.9503 59.934 85.5209 60.69C85.0916 61.446 84.5036 62.0387 83.7569 62.468C83.0103 62.888 82.1796 63.098 81.2649 63.098ZM81.2649 61.992C81.9463 61.992 82.5576 61.8333 83.0989 61.516C83.6496 61.1987 84.0789 60.746 84.3869 60.158C84.7043 59.57 84.8629 58.8887 84.8629 58.114C84.8629 57.33 84.7043 56.6487 84.3869 56.07C84.0789 55.482 83.6543 55.0293 83.1129 54.712C82.5716 54.3947 81.9556 54.236 81.2649 54.236C80.5743 54.236 79.9583 54.3947 79.4169 54.712C78.8756 55.0293 78.4463 55.482 78.1289 56.07C77.8209 56.6487 77.6669 57.33 77.6669 58.114C77.6669 58.8887 77.8209 59.57 78.1289 60.158C78.4463 60.746 78.8756 61.1987 79.4169 61.516C79.9676 61.8333 80.5836 61.992 81.2649 61.992ZM90.5628 63.126C89.9748 63.126 89.4475 63.028 88.9808 62.832C88.5141 62.6267 88.1455 62.3467 87.8748 61.992C87.6041 61.628 87.4548 61.2127 87.4268 60.746H88.7428C88.7801 61.1287 88.9575 61.4413 89.2748 61.684C89.6015 61.9267 90.0261 62.048 90.5488 62.048C91.0341 62.048 91.4168 61.9407 91.6968 61.726C91.9768 61.5113 92.1168 61.2407 92.1168 60.914C92.1168 60.578 91.9675 60.3307 91.6688 60.172C91.3701 60.004 90.9081 59.8407 90.2828 59.682C89.7135 59.5327 89.2468 59.3833 88.8828 59.234C88.5281 59.0753 88.2201 58.8467 87.9588 58.548C87.7068 58.24 87.5808 57.8387 87.5808 57.344C87.5808 56.952 87.6975 56.5927 87.9308 56.266C88.1641 55.9393 88.4955 55.6827 88.9248 55.496C89.3541 55.3 89.8441 55.202 90.3948 55.202C91.2441 55.202 91.9301 55.4167 92.4528 55.846C92.9755 56.2753 93.2555 56.8633 93.2928 57.61H92.0188C91.9908 57.2087 91.8275 56.8867 91.5288 56.644C91.2395 56.4013 90.8475 56.28 90.3528 56.28C89.8955 56.28 89.5315 56.378 89.2608 56.574C88.9901 56.77 88.8548 57.0267 88.8548 57.344C88.8548 57.596 88.9341 57.806 89.0928 57.974C89.2608 58.1327 89.4661 58.2633 89.7088 58.366C89.9608 58.4593 90.3061 58.5667 90.7448 58.688C91.2955 58.8373 91.7435 58.9867 92.0888 59.136C92.4341 59.276 92.7281 59.4907 92.9708 59.78C93.2228 60.0693 93.3535 60.4473 93.3628 60.914C93.3628 61.334 93.2461 61.712 93.0128 62.048C92.7795 62.384 92.4481 62.65 92.0188 62.846C91.5988 63.0327 91.1135 63.126 90.5628 63.126ZM104.387 55.188C104.985 55.188 105.517 55.314 105.983 55.566C106.45 55.8087 106.819 56.1773 107.089 56.672C107.36 57.1667 107.495 57.7687 107.495 58.478V63H106.235V58.66C106.235 57.8947 106.044 57.3113 105.661 56.91C105.288 56.4993 104.779 56.294 104.135 56.294C103.473 56.294 102.945 56.5087 102.553 56.938C102.161 57.358 101.965 57.9693 101.965 58.772V63H100.705V58.66C100.705 57.8947 100.514 57.3113 100.131 56.91C99.7579 56.4993 99.2493 56.294 98.6053 56.294C97.9426 56.294 97.4153 56.5087 97.0233 56.938C96.6313 57.358 96.4353 57.9693 96.4353 58.772V63H95.1613V55.328H96.4353V56.434C96.6873 56.0327 97.0233 55.7247 97.4433 55.51C97.8726 55.2953 98.3439 55.188 98.8573 55.188C99.5013 55.188 100.071 55.3327 100.565 55.622C101.06 55.9113 101.429 56.336 101.671 56.896C101.886 56.3547 102.241 55.9347 102.735 55.636C103.23 55.3373 103.781 55.188 104.387 55.188ZM112.931 63.126C112.212 63.126 111.559 62.9627 110.971 62.636C110.392 62.3093 109.935 61.8473 109.599 61.25C109.272 60.6433 109.109 59.9433 109.109 59.15C109.109 58.366 109.277 57.6753 109.613 57.078C109.958 56.4713 110.425 56.0093 111.013 55.692C111.601 55.3653 112.259 55.202 112.987 55.202C113.715 55.202 114.373 55.3653 114.961 55.692C115.549 56.0093 116.011 56.4667 116.347 57.064C116.692 57.6613 116.865 58.3567 116.865 59.15C116.865 59.9433 116.688 60.6433 116.333 61.25C115.988 61.8473 115.516 62.3093 114.919 62.636C114.322 62.9627 113.659 63.126 112.931 63.126ZM112.931 62.006C113.388 62.006 113.818 61.8987 114.219 61.684C114.62 61.4693 114.942 61.1473 115.185 60.718C115.437 60.2887 115.563 59.766 115.563 59.15C115.563 58.534 115.442 58.0113 115.199 57.582C114.956 57.1527 114.639 56.8353 114.247 56.63C113.855 56.4153 113.43 56.308 112.973 56.308C112.506 56.308 112.077 56.4153 111.685 56.63C111.302 56.8353 110.994 57.1527 110.761 57.582C110.528 58.0113 110.411 58.534 110.411 59.15C110.411 59.7753 110.523 60.3027 110.747 60.732C110.98 61.1613 111.288 61.4833 111.671 61.698C112.054 61.9033 112.474 62.006 112.931 62.006ZM121.256 63.126C120.668 63.126 120.141 63.028 119.674 62.832C119.207 62.6267 118.839 62.3467 118.568 61.992C118.297 61.628 118.148 61.2127 118.12 60.746H119.436C119.473 61.1287 119.651 61.4413 119.968 61.684C120.295 61.9267 120.719 62.048 121.242 62.048C121.727 62.048 122.11 61.9407 122.39 61.726C122.67 61.5113 122.81 61.2407 122.81 60.914C122.81 60.578 122.661 60.3307 122.362 60.172C122.063 60.004 121.601 59.8407 120.976 59.682C120.407 59.5327 119.94 59.3833 119.576 59.234C119.221 59.0753 118.913 58.8467 118.652 58.548C118.4 58.24 118.274 57.8387 118.274 57.344C118.274 56.952 118.391 56.5927 118.624 56.266C118.857 55.9393 119.189 55.6827 119.618 55.496C120.047 55.3 120.537 55.202 121.088 55.202C121.937 55.202 122.623 55.4167 123.146 55.846C123.669 56.2753 123.949 56.8633 123.986 57.61H122.712C122.684 57.2087 122.521 56.8867 122.222 56.644C121.933 56.4013 121.541 56.28 121.046 56.28C120.589 56.28 120.225 56.378 119.954 56.574C119.683 56.77 119.548 57.0267 119.548 57.344C119.548 57.596 119.627 57.806 119.786 57.974C119.954 58.1327 120.159 58.2633 120.402 58.366C120.654 58.4593 120.999 58.5667 121.438 58.688C121.989 58.8373 122.437 58.9867 122.782 59.136C123.127 59.276 123.421 59.4907 123.664 59.78C123.916 60.0693 124.047 60.4473 124.056 60.914C124.056 61.334 123.939 61.712 123.706 62.048C123.473 62.384 123.141 62.65 122.712 62.846C122.292 63.0327 121.807 63.126 121.256 63.126ZM126.513 54.082C126.27 54.082 126.065 53.998 125.897 53.83C125.729 53.662 125.645 53.4567 125.645 53.214C125.645 52.9713 125.729 52.766 125.897 52.598C126.065 52.43 126.27 52.346 126.513 52.346C126.746 52.346 126.942 52.43 127.101 52.598C127.269 52.766 127.353 52.9713 127.353 53.214C127.353 53.4567 127.269 53.662 127.101 53.83C126.942 53.998 126.746 54.082 126.513 54.082ZM127.129 55.328V63H125.855V55.328H127.129ZM132.016 63.126C131.428 63.126 130.901 63.028 130.434 62.832C129.967 62.6267 129.599 62.3467 129.328 61.992C129.057 61.628 128.908 61.2127 128.88 60.746H130.196C130.233 61.1287 130.411 61.4413 130.728 61.684C131.055 61.9267 131.479 62.048 132.002 62.048C132.487 62.048 132.87 61.9407 133.15 61.726C133.43 61.5113 133.57 61.2407 133.57 60.914C133.57 60.578 133.421 60.3307 133.122 60.172C132.823 60.004 132.361 59.8407 131.736 59.682C131.167 59.5327 130.7 59.3833 130.336 59.234C129.981 59.0753 129.673 58.8467 129.412 58.548C129.16 58.24 129.034 57.8387 129.034 57.344C129.034 56.952 129.151 56.5927 129.384 56.266C129.617 55.9393 129.949 55.6827 130.378 55.496C130.807 55.3 131.297 55.202 131.848 55.202C132.697 55.202 133.383 55.4167 133.906 55.846C134.429 56.2753 134.709 56.8633 134.746 57.61H133.472C133.444 57.2087 133.281 56.8867 132.982 56.644C132.693 56.4013 132.301 56.28 131.806 56.28C131.349 56.28 130.985 56.378 130.714 56.574C130.443 56.77 130.308 57.0267 130.308 57.344C130.308 57.596 130.387 57.806 130.546 57.974C130.714 58.1327 130.919 58.2633 131.162 58.366C131.414 58.4593 131.759 58.5667 132.198 58.688C132.749 58.8373 133.197 58.9867 133.542 59.136C133.887 59.276 134.181 59.4907 134.424 59.78C134.676 60.0693 134.807 60.4473 134.816 60.914C134.816 61.334 134.699 61.712 134.466 62.048C134.233 62.384 133.901 62.65 133.472 62.846C133.052 63.0327 132.567 63.126 132.016 63.126ZM137.93 61.236L136.362 65.002H135.508L136.53 61.236H137.93ZM150.514 56.07C150.244 55.5007 149.852 55.062 149.338 54.754C148.825 54.4367 148.228 54.278 147.546 54.278C146.865 54.278 146.249 54.4367 145.698 54.754C145.157 55.062 144.728 55.51 144.41 56.098C144.102 56.6767 143.948 57.3487 143.948 58.114C143.948 58.8793 144.102 59.5513 144.41 60.13C144.728 60.7087 145.157 61.1567 145.698 61.474C146.249 61.782 146.865 61.936 147.546 61.936C148.498 61.936 149.282 61.6513 149.898 61.082C150.514 60.5127 150.874 59.7427 150.976 58.772H147.084V57.736H152.334V58.716C152.26 59.5187 152.008 60.256 151.578 60.928C151.149 61.5907 150.584 62.118 149.884 62.51C149.184 62.8927 148.405 63.084 147.546 63.084C146.641 63.084 145.815 62.874 145.068 62.454C144.322 62.0247 143.729 61.432 143.29 60.676C142.861 59.92 142.646 59.066 142.646 58.114C142.646 57.162 142.861 56.308 143.29 55.552C143.729 54.7867 144.322 54.194 145.068 53.774C145.815 53.3447 146.641 53.13 147.546 53.13C148.582 53.13 149.497 53.3867 150.29 53.9C151.093 54.4133 151.676 55.1367 152.04 56.07H150.514ZM155.293 56.574C155.517 56.1353 155.834 55.7947 156.245 55.552C156.665 55.3093 157.173 55.188 157.771 55.188V56.504H157.435C156.007 56.504 155.293 57.2787 155.293 58.828V63H154.019V55.328H155.293V56.574ZM158.765 59.136C158.765 58.352 158.924 57.666 159.241 57.078C159.559 56.4807 159.993 56.0187 160.543 55.692C161.103 55.3653 161.724 55.202 162.405 55.202C163.077 55.202 163.661 55.3467 164.155 55.636C164.65 55.9253 165.019 56.2893 165.261 56.728V55.328H166.549V63H165.261V61.572C165.009 62.02 164.631 62.3933 164.127 62.692C163.633 62.9813 163.054 63.126 162.391 63.126C161.71 63.126 161.094 62.958 160.543 62.622C159.993 62.286 159.559 61.8147 159.241 61.208C158.924 60.6013 158.765 59.9107 158.765 59.136ZM165.261 59.15C165.261 58.5713 165.145 58.0673 164.911 57.638C164.678 57.2087 164.361 56.882 163.959 56.658C163.567 56.4247 163.133 56.308 162.657 56.308C162.181 56.308 161.747 56.42 161.355 56.644C160.963 56.868 160.651 57.1947 160.417 57.624C160.184 58.0533 160.067 58.5573 160.067 59.136C160.067 59.724 160.184 60.2373 160.417 60.676C160.651 61.1053 160.963 61.4367 161.355 61.67C161.747 61.894 162.181 62.006 162.657 62.006C163.133 62.006 163.567 61.894 163.959 61.67C164.361 61.4367 164.678 61.1053 164.911 60.676C165.145 60.2373 165.261 59.7287 165.261 59.15ZM171.558 61.824L173.938 55.328H175.296L172.286 63H170.802L167.792 55.328H169.164L171.558 61.824ZM177.208 54.082C176.965 54.082 176.76 53.998 176.592 53.83C176.424 53.662 176.34 53.4567 176.34 53.214C176.34 52.9713 176.424 52.766 176.592 52.598C176.76 52.43 176.965 52.346 177.208 52.346C177.441 52.346 177.637 52.43 177.796 52.598C177.964 52.766 178.048 52.9713 178.048 53.214C178.048 53.4567 177.964 53.662 177.796 53.83C177.637 53.998 177.441 54.082 177.208 54.082ZM177.824 55.328V63H176.55V55.328H177.824ZM181.549 56.378V60.9C181.549 61.2733 181.629 61.5393 181.787 61.698C181.946 61.8473 182.221 61.922 182.613 61.922H183.551V63H182.403C181.694 63 181.162 62.8367 180.807 62.51C180.453 62.1833 180.275 61.6467 180.275 60.9V56.378H179.281V55.328H180.275V53.396H181.549V55.328H183.551V56.378H181.549ZM191.703 55.328L187.083 66.612H185.767L187.279 62.916L184.185 55.328H185.599L188.007 61.544L190.387 55.328H191.703ZM199.754 53.242C200.818 53.242 201.737 53.4427 202.512 53.844C203.296 54.236 203.893 54.8007 204.304 55.538C204.724 56.2753 204.934 57.1433 204.934 58.142C204.934 59.1407 204.724 60.0087 204.304 60.746C203.893 61.474 203.296 62.034 202.512 62.426C201.737 62.8087 200.818 63 199.754 63H196.716V53.242H199.754ZM199.754 61.95C201.014 61.95 201.975 61.6187 202.638 60.956C203.301 60.284 203.632 59.346 203.632 58.142C203.632 56.9287 203.296 55.9813 202.624 55.3C201.961 54.6187 201.005 54.278 199.754 54.278H197.99V61.95H199.754ZM213.614 58.87C213.614 59.1127 213.6 59.3693 213.572 59.64H207.44C207.487 60.396 207.744 60.9887 208.21 61.418C208.686 61.838 209.26 62.048 209.932 62.048C210.483 62.048 210.94 61.922 211.304 61.67C211.678 61.4087 211.939 61.0633 212.088 60.634H213.46C213.255 61.3713 212.844 61.9733 212.228 62.44C211.612 62.8973 210.847 63.126 209.932 63.126C209.204 63.126 208.551 62.9627 207.972 62.636C207.403 62.3093 206.955 61.8473 206.628 61.25C206.302 60.6433 206.138 59.9433 206.138 59.15C206.138 58.3567 206.297 57.6613 206.614 57.064C206.932 56.4667 207.375 56.0093 207.944 55.692C208.523 55.3653 209.186 55.202 209.932 55.202C210.66 55.202 211.304 55.3607 211.864 55.678C212.424 55.9953 212.854 56.434 213.152 56.994C213.46 57.5447 213.614 58.17 213.614 58.87ZM212.298 58.604C212.298 58.1187 212.191 57.7033 211.976 57.358C211.762 57.0033 211.468 56.7373 211.094 56.56C210.73 56.3733 210.324 56.28 209.876 56.28C209.232 56.28 208.682 56.4853 208.224 56.896C207.776 57.3067 207.52 57.876 207.454 58.604H212.298ZM219.3 63L217.48 60.144L215.73 63H214.4L216.878 59.192L214.4 55.328H215.842L217.662 58.17L219.398 55.328H220.728L218.264 59.122L220.742 63H219.3ZM221.589 65.604V65.478C222.551 64.4887 223.279 63.336 223.773 62.02C224.277 60.704 224.529 59.3227 224.529 57.876C224.529 56.392 224.263 54.964 223.731 53.592C223.209 52.2107 222.425 51.03 221.379 50.05V49.924H222.709C223.689 50.8293 224.441 51.982 224.963 53.382C225.495 54.7727 225.761 56.2707 225.761 57.876C225.761 59.444 225.509 60.9047 225.005 62.258C224.511 63.6113 223.815 64.7267 222.919 65.604H221.589Z" fill="black"/>
<path d="M0 107C0 102.582 3.58172 99 8 99H47C51.4183 99 55 102.582 55 107V117.403H0V107Z" fill="url(#paint0_linear)"/>
<rect y="117.391" width="55" height="37.6383" fill="url(#paint1_linear)"/>
<defs>
<linearGradient id="paint0_linear" x1="27.5" y1="99" x2="27.5" y2="117.403" gradientUnits="userSpaceOnUse">
<stop stop-color="#FF7790"/>
<stop offset="1" stop-color="#FF77D9"/>
</linearGradient>
<linearGradient id="paint1_linear" x1="27.5" y1="117.391" x2="27.5083" y2="214.975" gradientUnits="userSpaceOnUse">
<stop stop-color="#FFD7DE"/>
<stop offset="0.869792" stop-color="#FFD3F3"/>
</linearGradient>
</defs>
</svg>
