<svg width="106" height="94" viewBox="0 0 106 94" fill="none" xmlns="http://www.w3.org/2000/svg">
<path d="M5.22266 11.3091H101.73V85.4924C101.73 87.7015 99.9393 89.4924 97.7301 89.4924H9.22265C7.01351 89.4924 5.22266 87.7015 5.22266 85.4924V11.3091Z" fill="white"/>
<path d="M78.5169 32.0768C78.5169 35.4502 75.7822 38.1849 72.4088 38.1849C69.0355 38.1849 66.3008 35.4502 66.3008 32.0768C66.3008 28.7034 69.0355 25.9688 72.4088 25.9688C75.7822 25.9688 78.5169 28.7034 78.5169 32.0768Z" fill="white"/>
<path d="M56.5299 41.8494C56.5299 48.5962 51.0606 54.0656 44.3138 54.0656C37.567 54.0656 32.0977 48.5962 32.0977 41.8494C32.0977 35.1027 37.567 29.6333 44.3138 29.6333C51.0606 29.6333 56.5299 35.1027 56.5299 41.8494Z" fill="white"/>
<path d="M46.5824 56.8125L29.7719 60.5525L13.9451 25.1873L84.7593 25.187L61.1174 59.7835L46.5824 56.8125Z" fill="url(#paint0_linear_3148_21344)"/>
<path opacity="0.5" fill-rule="evenodd" clip-rule="evenodd" d="M64.7831 59.8959C64.8121 59.7945 64.8269 59.6922 64.8269 59.5891C64.8269 57.0304 55.7518 54.9561 44.5571 54.9561C33.3624 54.9561 24.2874 57.0304 24.2874 59.5891C24.2874 62.1479 33.3624 64.2222 44.5571 64.2222C51.202 64.2222 57.1 63.4914 60.7967 62.3622C57.1001 63.4916 51.2015 64.2226 44.556 64.2226C33.8054 64.2226 25.0096 62.3096 24.3287 59.8916L21.3906 73.1126C22.0167 74.6147 29.5299 78.1208 44.5555 78.1208C59.5809 78.1208 67.0937 74.615 67.7208 73.2367L64.7831 59.8959Z" fill="url(#paint1_linear_3148_21344)"/>
<path opacity="0.8" d="M64.8286 59.5891C64.8286 62.1479 55.7535 64.2222 44.5588 64.2222C33.3641 64.2222 24.2891 62.1479 24.2891 59.5891C24.2891 57.0304 33.3641 54.9561 44.5588 54.9561C55.7535 54.9561 64.8286 57.0304 64.8286 59.5891Z" fill="url(#paint2_linear_3148_21344)"/>
<path opacity="0.1" fill-rule="evenodd" clip-rule="evenodd" d="M21.391 73.1287L22.1336 69.787C14.8693 71.1728 10.2734 73.2201 10.2734 75.5041C10.2734 79.678 25.6231 83.0617 44.5578 83.0617C63.4925 83.0617 78.8421 79.678 78.8421 75.5041C78.8421 73.2175 74.2357 71.1681 66.957 69.7822L67.7212 73.2528C67.0941 74.631 59.5813 78.1368 44.5559 78.1368C29.5302 78.1368 22.0171 74.6308 21.391 73.1287Z" fill="url(#paint3_linear_3148_21344)"/>
<path opacity="0.1" fill-rule="evenodd" clip-rule="evenodd" d="M10.2734 75.1956C10.2734 72.9044 14.8987 70.8513 22.2032 69.4653L21.9419 70.3373C21.4439 70.4349 20.9594 70.5356 20.4888 70.6394C17.4162 71.3167 14.9845 72.1124 13.3405 72.9692C12.5176 73.3981 11.9319 73.8221 11.5612 74.2213C11.1945 74.6164 11.0802 74.9391 11.0802 75.1956C11.0802 75.4521 11.1945 75.7747 11.5612 76.1699C11.9319 76.5691 12.5176 76.9931 13.3405 77.4219C14.9845 78.2787 17.4162 79.0745 20.4888 79.7518C26.6208 81.1035 35.1308 81.9465 44.5578 81.9465C53.9847 81.9465 62.4948 81.1035 68.6268 79.7518C71.6994 79.0745 74.1311 78.2787 75.7751 77.4219C76.5979 76.9931 77.1837 76.5691 77.5543 76.1699C77.9211 75.7747 78.0354 75.4521 78.0354 75.1956C78.0354 74.9391 77.9211 74.6164 77.5543 74.2213C77.1837 73.8221 76.5979 73.3981 75.7751 72.9692C74.1311 72.1124 71.6994 71.3167 68.6268 70.6394C68.149 70.534 67.6568 70.4318 67.1508 70.3328L66.892 69.4614C74.2083 70.8475 78.8421 72.9022 78.8421 75.1956C78.8421 79.3696 63.4925 82.7532 44.5578 82.7532C25.6231 82.7532 10.2734 79.3696 10.2734 75.1956Z" fill="url(#paint4_linear_3148_21344)"/>
<path fill-rule="evenodd" clip-rule="evenodd" d="M50.1622 26.4799C47.8597 25.4539 45.2873 25.1998 42.8286 25.7553C40.3699 26.3108 38.1566 27.6462 36.5189 29.5624C34.8811 31.4786 33.9066 33.8728 33.7408 36.388C33.5749 38.9032 34.2266 41.4047 35.5985 43.5193C36.9705 45.6339 38.9893 47.2484 41.3537 48.122C43.7182 48.9955 46.3018 49.0814 48.719 48.3667C51.1362 47.652 53.2577 46.175 54.767 44.1561C56.2763 42.1372 57.0925 39.6845 57.0939 37.1638V35.9895C57.0939 35.3917 57.5785 34.9071 58.1763 34.9071C58.774 34.9071 59.2586 35.3917 59.2586 35.9895V37.1651C59.2569 40.1525 58.2895 43.0594 56.5007 45.4522C54.712 47.845 52.1976 49.5954 49.3328 50.4425C46.4679 51.2896 43.4059 51.1878 40.6036 50.1525C37.8012 49.1172 35.4086 47.2037 33.7826 44.6975C32.1566 42.1913 31.3842 39.2266 31.5808 36.2456C31.7774 33.2646 32.9323 30.427 34.8733 28.156C36.8144 25.885 39.4375 24.3022 42.3515 23.6438C45.2656 22.9855 48.3144 23.2867 51.0432 24.5026C51.5892 24.7459 51.8346 25.3857 51.5914 25.9317C51.3481 26.4777 50.7082 26.7231 50.1622 26.4799Z" fill="url(#paint5_linear_3148_21344)"/>
<path fill-rule="evenodd" clip-rule="evenodd" d="M58.9413 26.1817C59.3642 26.6042 59.3645 27.2895 58.9421 27.7124L46.1705 40.4967C45.9676 40.6998 45.6922 40.814 45.4051 40.8141C45.1179 40.8142 44.8425 40.7001 44.6395 40.4971L40.808 36.6656C40.3853 36.2429 40.3853 35.5576 40.808 35.135C41.2307 34.7123 41.916 34.7123 42.3387 35.135L45.4044 38.2007L57.4107 26.1825C57.8331 25.7596 58.5184 25.7592 58.9413 26.1817Z" fill="url(#paint6_linear_3148_21344)"/>
<path opacity="0.7" fill-rule="evenodd" clip-rule="evenodd" d="M100.582 14.0255H6.42969V37.0538V37.2237V85.0671C6.42969 87.2223 8.1946 88.9872 10.3498 88.9872H96.6615C98.8167 88.9872 100.582 87.2223 100.582 85.0671V65.2711V63.4377V14.0255ZM5.42969 13.5255V9.13853V9.01044C5.42969 6.30295 7.64231 4.09033 10.3498 4.09033H10.4779H96.5357H96.6615C99.36 4.09033 101.567 6.28828 101.582 8.98349C101.583 9.03499 101.584 9.08667 101.584 9.13853V13.5255C101.584 13.5417 101.583 13.5578 101.582 13.5736V63.4377V65.2711V85.0671C101.582 87.7746 99.369 89.9872 96.6615 89.9872H10.3498C7.64231 89.9872 5.42969 87.7746 5.42969 85.0671V37.2237V37.0538V13.5255ZM12.7332 8.8954C12.7332 9.45122 12.2826 9.90179 11.7268 9.90179C11.171 9.90179 10.7204 9.45122 10.7204 8.8954C10.7204 8.33959 11.171 7.88901 11.7268 7.88901C12.2826 7.88901 12.7332 8.33959 12.7332 8.8954ZM15.7478 9.90179C16.3036 9.90179 16.7541 9.45122 16.7541 8.8954C16.7541 8.33959 16.3036 7.88901 15.7478 7.88901C15.1919 7.88901 14.7414 8.33959 14.7414 8.8954C14.7414 9.45122 15.1919 9.90179 15.7478 9.90179ZM20.7761 8.8954C20.7761 9.45122 20.3255 9.90179 19.7697 9.90179C19.2139 9.90179 18.7633 9.45122 18.7633 8.8954C18.7633 8.33959 19.2139 7.88901 19.7697 7.88901C20.3255 7.88901 20.7761 8.33959 20.7761 8.8954Z" fill="url(#paint7_linear_3148_21344)"/>
<path d="M76.692 42.6743L66.5494 44.9308L57.0003 23.5933L99.726 23.5931L85.4617 44.4668L76.692 42.6743Z" fill="url(#paint8_linear_3148_21344)"/>
<path opacity="0.5" fill-rule="evenodd" clip-rule="evenodd" d="M86.4153 44.0801C86.4294 44.0302 86.4366 43.9797 86.4366 43.929C86.4366 42.656 81.9218 41.624 76.3525 41.624C70.7832 41.624 66.2684 42.656 66.2684 43.929C66.2684 43.9797 66.2756 44.03 66.2897 44.0799L64.8281 50.6571C65.1396 51.4044 68.8773 53.1486 76.3525 53.1486C83.8276 53.1486 87.5651 51.4045 87.8771 50.7188L86.4153 44.0801Z" fill="url(#paint9_linear_3148_21344)"/>
<path opacity="0.6" d="M86.4377 43.929C86.4377 45.2019 81.9229 46.2339 76.3536 46.2339C70.7843 46.2339 66.2695 45.2019 66.2695 43.929C66.2695 42.656 70.7843 41.624 76.3536 41.624C81.9229 41.624 86.4377 42.656 86.4377 43.929Z" fill="url(#paint10_linear_3148_21344)"/>
<path opacity="0.1" fill-rule="evenodd" clip-rule="evenodd" d="M64.8297 50.6558L65.1993 48.9928C61.5842 49.6823 59.2969 50.7009 59.2969 51.8374C59.2969 53.9139 66.9332 55.5973 76.3531 55.5973C85.7731 55.5973 93.4094 53.9139 93.4094 51.8374C93.4094 50.7001 91.1186 49.6807 87.4986 48.9912L87.8787 50.7175C87.5667 51.4032 83.8292 53.1473 76.3541 53.1473C68.8789 53.1473 65.1412 51.4031 64.8297 50.6558Z" fill="url(#paint11_linear_3148_21344)"/>
<path opacity="0.1" fill-rule="evenodd" clip-rule="evenodd" d="M59.2969 51.6922C59.2969 50.5522 61.5984 49.5307 65.2331 48.8411L65.0997 49.2861C64.8535 49.3344 64.6139 49.3843 64.3812 49.4356C62.853 49.7724 61.6442 50.1681 60.8275 50.5937C60.4187 50.8068 60.1284 51.0171 59.9451 51.2145C59.7638 51.4098 59.7086 51.5679 59.7086 51.6922C59.7086 51.8164 59.7638 51.9745 59.9451 52.1698C60.1284 52.3673 60.4187 52.5775 60.8275 52.7906C61.6442 53.2162 62.853 53.6119 64.3812 53.9488C67.4309 54.621 71.6638 55.0403 76.3531 55.0403C81.0425 55.0403 85.2754 54.621 88.3251 53.9488C89.8533 53.6119 91.0621 53.2162 91.8788 52.7906C92.2876 52.5775 92.5779 52.3673 92.7611 52.1698C92.9425 51.9745 92.9977 51.8164 92.9977 51.6922C92.9977 51.5679 92.9425 51.4098 92.7611 51.2145C92.5779 51.0171 92.2876 50.8068 91.8788 50.5937C91.0621 50.1681 89.8533 49.7724 88.3251 49.4356C88.0898 49.3837 87.8475 49.3333 87.5985 49.2846L87.4664 48.8398C91.105 49.5294 93.4094 50.5514 93.4094 51.6922C93.4094 53.7687 85.7731 55.452 76.3531 55.452C66.9332 55.452 59.2969 53.7687 59.2969 51.6922Z" fill="url(#paint12_linear_3148_21344)"/>
<path opacity="0.9" fill-rule="evenodd" clip-rule="evenodd" d="M68.6598 29.9915C68.6598 26.0653 71.8426 22.8824 75.7688 22.8824C79.695 22.8824 82.8778 26.0653 82.8778 29.9915C82.8778 33.9177 79.695 37.1005 75.7688 37.1005C71.8426 37.1005 68.6598 33.9177 68.6598 29.9915ZM75.7688 21.6172C71.1438 21.6172 67.3945 25.3665 67.3945 29.9915C67.3945 34.6164 71.1438 38.3657 75.7688 38.3657C80.3938 38.3657 84.1431 34.6164 84.1431 29.9915C84.1431 25.3665 80.3938 21.6172 75.7688 21.6172ZM74.9897 31.6378V32.0497H76.425V31.6503C76.425 31.3757 76.4707 31.1407 76.5623 30.9451C76.658 30.7496 76.7828 30.5769 76.9367 30.4272C77.0906 30.2732 77.2529 30.1235 77.4234 29.9779C77.6065 29.8239 77.7812 29.6596 77.9476 29.4849C78.114 29.306 78.2513 29.0938 78.3595 28.8484C78.4677 28.5987 78.5217 28.293 78.5217 27.931C78.5217 27.4692 78.4177 27.0511 78.2097 26.6767C78.0059 26.3023 77.7022 26.0069 77.2986 25.7906C76.8993 25.5701 76.4083 25.4598 75.8259 25.4598C75.256 25.4598 74.7546 25.5763 74.322 25.8093C73.8935 26.0381 73.5586 26.3689 73.3173 26.8015C73.076 27.2342 72.9553 27.7521 72.9553 28.3554H74.3781C74.3781 27.8853 74.5029 27.515 74.7526 27.2446C75.0022 26.97 75.36 26.8327 75.8259 26.8327C76.2336 26.8327 76.5435 26.9388 76.7557 27.151C76.9679 27.359 77.074 27.619 77.074 27.931C77.074 28.243 76.9866 28.4989 76.8119 28.6986C76.6372 28.8983 76.4333 29.0959 76.2003 29.2914C76.009 29.4537 75.8197 29.6346 75.6325 29.8343C75.4494 30.034 75.2955 30.2774 75.1707 30.5645C75.05 30.8515 74.9897 31.2093 74.9897 31.6378ZM75.0084 34.2213C75.1998 34.4127 75.4348 34.5084 75.7136 34.5084C75.9965 34.5084 76.2315 34.4127 76.4187 34.2213C76.606 34.0299 76.6996 33.8011 76.6996 33.5349C76.6996 33.2728 76.606 33.046 76.4187 32.8547C76.2315 32.6591 75.9965 32.5614 75.7136 32.5614C75.4348 32.5614 75.1998 32.6591 75.0084 32.8547C74.8212 33.046 74.7276 33.2728 74.7276 33.5349C74.7276 33.8011 74.8212 34.0299 75.0084 34.2213Z" fill="url(#paint13_linear_3148_21344)"/>
<defs>
<linearGradient id="paint0_linear_3148_21344" x1="41.6343" y1="64.6098" x2="43.0244" y2="22.4267" gradientUnits="userSpaceOnUse">
<stop stop-color="#EFB797" stop-opacity="0.2"/>
<stop offset="1" stop-color="#FFE3D3" stop-opacity="0"/>
</linearGradient>
<linearGradient id="paint1_linear_3148_21344" x1="21.3906" y1="45.63" x2="37.0188" y2="100.107" gradientUnits="userSpaceOnUse">
<stop stop-color="#DD1C84"/>
<stop offset="0.5087" stop-color="#EA8855"/>
<stop offset="0.678731" stop-color="#F1A839"/>
<stop offset="0.771199" stop-color="#FF932F"/>
</linearGradient>
<linearGradient id="paint2_linear_3148_21344" x1="24.2891" y1="51.2255" x2="27.3298" y2="74.4116" gradientUnits="userSpaceOnUse">
<stop stop-color="#DD1C84"/>
<stop offset="0.5087" stop-color="#EA8855"/>
<stop offset="0.678731" stop-color="#F1A839"/>
<stop offset="0.771199" stop-color="#FF932F"/>
</linearGradient>
<linearGradient id="paint3_linear_3148_21344" x1="10.2734" y1="64.4359" x2="13.9834" y2="97.8235" gradientUnits="userSpaceOnUse">
<stop stop-color="#DD1C84"/>
<stop offset="0.5087" stop-color="#EA8855"/>
<stop offset="0.678731" stop-color="#F1A839"/>
<stop offset="0.771199" stop-color="#FF932F"/>
</linearGradient>
<linearGradient id="paint4_linear_3148_21344" x1="10.2734" y1="64.1102" x2="13.9902" y2="97.528" gradientUnits="userSpaceOnUse">
<stop stop-color="#DD1C84"/>
<stop offset="0.5087" stop-color="#EA8855"/>
<stop offset="0.678731" stop-color="#F1A839"/>
<stop offset="0.771199" stop-color="#FF932F"/>
</linearGradient>
<linearGradient id="paint5_linear_3148_21344" x1="31.5508" y1="12.1481" x2="61.993" y2="65.2053" gradientUnits="userSpaceOnUse">
<stop stop-color="#DD1C84"/>
<stop offset="0.5087" stop-color="#EA8855"/>
<stop offset="0.678731" stop-color="#F1A839"/>
<stop offset="0.771199" stop-color="#FF932F"/>
</linearGradient>
<linearGradient id="paint6_linear_3148_21344" x1="31.5508" y1="12.1481" x2="61.993" y2="65.2053" gradientUnits="userSpaceOnUse">
<stop stop-color="#DD1C84"/>
<stop offset="0.5087" stop-color="#EA8855"/>
<stop offset="0.678731" stop-color="#F1A839"/>
<stop offset="0.771199" stop-color="#FF932F"/>
</linearGradient>
<linearGradient id="paint7_linear_3148_21344" x1="5.42969" y1="-30.4915" x2="94.1755" y2="142.652" gradientUnits="userSpaceOnUse">
<stop stop-color="#DD1C84"/>
<stop offset="0.5087" stop-color="#EA8855"/>
<stop offset="0.678731" stop-color="#F1A839"/>
<stop offset="0.771199" stop-color="#FF932F"/>
</linearGradient>
<linearGradient id="paint8_linear_3148_21344" x1="73.7066" y1="47.3787" x2="74.5453" y2="21.9276" gradientUnits="userSpaceOnUse">
<stop stop-color="#EFB797" stop-opacity="0.2"/>
<stop offset="1" stop-color="#FFE3D3" stop-opacity="0"/>
</linearGradient>
<linearGradient id="paint9_linear_3148_21344" x1="64.8281" y1="36.9842" x2="72.6035" y2="64.0868" gradientUnits="userSpaceOnUse">
<stop stop-color="#DD1C84"/>
<stop offset="0.5087" stop-color="#EA8855"/>
<stop offset="0.678731" stop-color="#F1A839"/>
<stop offset="0.771199" stop-color="#FF932F"/>
</linearGradient>
<linearGradient id="paint10_linear_3148_21344" x1="66.2695" y1="39.7681" x2="67.7823" y2="51.303" gradientUnits="userSpaceOnUse">
<stop stop-color="#DD1C84"/>
<stop offset="0.5087" stop-color="#EA8855"/>
<stop offset="0.678731" stop-color="#F1A839"/>
<stop offset="0.771199" stop-color="#FF932F"/>
</linearGradient>
<linearGradient id="paint11_linear_3148_21344" x1="59.2969" y1="46.3316" x2="61.1424" y2="62.9408" gradientUnits="userSpaceOnUse">
<stop stop-color="#DD1C84"/>
<stop offset="0.5087" stop-color="#EA8855"/>
<stop offset="0.678731" stop-color="#F1A839"/>
<stop offset="0.771199" stop-color="#FF932F"/>
</linearGradient>
<linearGradient id="paint12_linear_3148_21344" x1="59.2969" y1="46.1778" x2="61.1457" y2="62.802" gradientUnits="userSpaceOnUse">
<stop stop-color="#DD1C84"/>
<stop offset="0.5087" stop-color="#EA8855"/>
<stop offset="0.678731" stop-color="#F1A839"/>
<stop offset="0.771199" stop-color="#FF932F"/>
</linearGradient>
<linearGradient id="paint13_linear_3148_21344" x1="67.3945" y1="14.8743" x2="85.796" y2="46.9457" gradientUnits="userSpaceOnUse">
<stop stop-color="#DD1C84"/>
<stop offset="0.5087" stop-color="#EA8855"/>
<stop offset="0.678731" stop-color="#F1A839"/>
<stop offset="0.771199" stop-color="#FF932F"/>
</linearGradient>
</defs>
</svg>
