<svg viewBox="0 0 573 187" fill="none" xmlns="http://www.w3.org/2000/svg">
<g filter="url(#filter0_d)">
<mask id="mask0" mask-type="alpha" maskUnits="userSpaceOnUse" x="10" y="25" width="551" height="146">
<path d="M29.775 26.175C34.585 26.175 38.7883 27.15 42.385 29.1C46.025 31.0067 48.82 33.6933 50.77 37.16C52.72 40.6267 53.695 44.5917 53.695 49.055C53.695 53.475 52.6983 57.4183 50.705 60.885C48.755 64.3517 45.96 67.0817 42.32 69.075C38.7233 71.025 34.5417 72 29.775 72H11.64V26.175H29.775ZM28.8 60.755C32.5267 60.755 35.4517 59.7367 37.575 57.7C39.6983 55.6633 40.76 52.7817 40.76 49.055C40.76 45.285 39.6983 42.3817 37.575 40.345C35.4517 38.265 32.5267 37.225 28.8 37.225H24.38V60.755H28.8ZM72.1779 36.38V43.855H86.8029V53.54H72.1779V61.795H88.7529V72H59.4379V26.175H88.7529V36.38H72.1779ZM148.543 26.175V72H135.803V46.715L127.158 72H116.498L107.788 46.52V72H95.0482V26.175H110.453L121.958 55.945L133.203 26.175H148.543ZM177.765 72.455C173.475 72.455 169.532 71.4583 165.935 69.465C162.339 67.4283 159.479 64.6333 157.355 61.08C155.275 57.4833 154.235 53.4317 154.235 48.925C154.235 44.4183 155.275 40.3883 157.355 36.835C159.479 33.2383 162.339 30.4433 165.935 28.45C169.532 26.4567 173.475 25.46 177.765 25.46C182.099 25.46 186.042 26.4567 189.595 28.45C193.192 30.4433 196.03 33.2383 198.11 36.835C200.19 40.3883 201.23 44.4183 201.23 48.925C201.23 53.4317 200.19 57.4833 198.11 61.08C196.03 64.6333 193.192 67.4283 189.595 69.465C185.999 71.4583 182.055 72.455 177.765 72.455ZM177.765 60.625C181.015 60.625 183.572 59.5633 185.435 57.44C187.342 55.3167 188.295 52.4783 188.295 48.925C188.295 45.285 187.342 42.425 185.435 40.345C183.572 38.2217 181.015 37.16 177.765 37.16C174.472 37.16 171.894 38.2217 170.03 40.345C168.167 42.425 167.235 45.285 167.235 48.925C167.235 52.5217 168.167 55.3817 170.03 57.505C171.894 59.585 174.472 60.625 177.765 60.625ZM205.397 48.99C205.397 44.4833 206.329 40.475 208.192 36.965C210.099 33.4117 212.786 30.66 216.252 28.71C219.719 26.7167 223.706 25.72 228.212 25.72C233.932 25.72 238.742 27.2583 242.642 30.335C246.542 33.3683 249.056 37.5067 250.182 42.75H236.467C235.644 41.0167 234.496 39.695 233.022 38.785C231.592 37.875 229.924 37.42 228.017 37.42C225.071 37.42 222.709 38.4817 220.932 40.605C219.199 42.685 218.332 45.48 218.332 48.99C218.332 52.5433 219.199 55.3817 220.932 57.505C222.709 59.585 225.071 60.625 228.017 60.625C229.924 60.625 231.592 60.17 233.022 59.26C234.496 58.35 235.644 57.0283 236.467 55.295H250.182C249.056 60.5383 246.542 64.6983 242.642 67.775C238.742 70.8083 233.932 72.325 228.212 72.325C223.706 72.325 219.719 71.35 216.252 69.4C212.786 67.4067 210.099 64.655 208.192 61.145C206.329 57.5917 205.397 53.54 205.397 48.99ZM279.42 72L270.32 55.1H268.955V72H256.215V26.175H276.3C279.984 26.175 283.104 26.825 285.66 28.125C288.217 29.3817 290.145 31.1367 291.445 33.39C292.745 35.6 293.395 38.0917 293.395 40.865C293.395 43.985 292.529 46.7367 290.795 49.12C289.105 51.46 286.614 53.1283 283.32 54.125L293.655 72H279.42ZM268.955 46.39H275.26C276.994 46.39 278.294 45.9783 279.16 45.155C280.027 44.3317 280.46 43.14 280.46 41.58C280.46 40.1067 280.005 38.9583 279.095 38.135C278.229 37.2683 276.95 36.835 275.26 36.835H268.955V46.39ZM328.179 64.525H311.929L309.459 72H296.069L312.774 26.175H327.464L344.104 72H330.649L328.179 64.525ZM324.994 54.775L320.054 39.955L315.179 54.775H324.994ZM382.771 26.175V36.315H370.551V72H357.811V36.315H345.721V26.175H382.771ZM400.225 26.175V72H387.485V26.175H400.225ZM421.39 61.665H440.435V72H407.09V62.315L425.94 36.445H407.09V26.175H440.435V35.86L421.39 61.665ZM460.083 26.175V72H447.343V26.175H460.083ZM509.783 72H497.043L480.078 46.39V72H467.338V26.175H480.078L497.043 52.11V26.175H509.783V72ZM546.29 41.255C545.554 40.0417 544.535 39.11 543.235 38.46C541.979 37.81 540.484 37.485 538.75 37.485C535.544 37.485 533.009 38.525 531.145 40.605C529.325 42.685 528.415 45.48 528.415 48.99C528.415 52.9333 529.39 55.945 531.34 58.025C533.334 60.0617 536.215 61.08 539.985 61.08C544.449 61.08 547.634 59.065 549.54 55.035H536.735V45.87H560.525V58.22C559.529 60.6467 558.055 62.9217 556.105 65.045C554.199 67.1683 551.772 68.9233 548.825 70.31C545.879 71.6533 542.52 72.325 538.75 72.325C534.157 72.325 530.084 71.35 526.53 69.4C523.02 67.4067 520.29 64.655 518.34 61.145C516.434 57.5917 515.48 53.54 515.48 48.99C515.48 44.4833 516.434 40.475 518.34 36.965C520.29 33.4117 523.02 30.66 526.53 28.71C530.04 26.7167 534.092 25.72 538.685 25.72C544.449 25.72 549.215 27.1067 552.985 29.88C556.755 32.6533 559.095 36.445 560.005 41.255H546.29ZM28.93 170.455C23.6 170.455 19.2233 169.198 15.8 166.685C12.3767 164.128 10.535 160.488 10.275 155.765H23.86C23.99 157.368 24.4667 158.538 25.29 159.275C26.1133 160.012 27.175 160.38 28.475 160.38C29.645 160.38 30.5983 160.098 31.335 159.535C32.115 158.928 32.505 158.105 32.505 157.065C32.505 155.722 31.8767 154.682 30.62 153.945C29.3633 153.208 27.3267 152.385 24.51 151.475C21.52 150.478 19.0933 149.525 17.23 148.615C15.41 147.662 13.8067 146.297 12.42 144.52C11.0767 142.7 10.405 140.338 10.405 137.435C10.405 134.488 11.1417 131.975 12.615 129.895C14.0883 127.772 16.125 126.168 18.725 125.085C21.325 124.002 24.2717 123.46 27.565 123.46C32.895 123.46 37.1417 124.717 40.305 127.23C43.5117 129.7 45.2233 133.188 45.44 137.695H31.595C31.5517 136.308 31.1183 135.268 30.295 134.575C29.515 133.882 28.4967 133.535 27.24 133.535C26.2867 133.535 25.5067 133.817 24.9 134.38C24.2933 134.943 23.99 135.745 23.99 136.785C23.99 137.652 24.315 138.41 24.965 139.06C25.6583 139.667 26.5033 140.208 27.5 140.685C28.4967 141.118 29.97 141.682 31.92 142.375C34.8233 143.372 37.2067 144.368 39.07 145.365C40.9767 146.318 42.6017 147.683 43.945 149.46C45.3317 151.193 46.025 153.403 46.025 156.09C46.025 158.82 45.3317 161.268 43.945 163.435C42.6017 165.602 40.63 167.313 38.03 168.57C35.4733 169.827 32.44 170.455 28.93 170.455ZM73.9176 170.455C69.6276 170.455 65.6843 169.458 62.0876 167.465C58.491 165.428 55.631 162.633 53.5076 159.08C51.4276 155.483 50.3876 151.432 50.3876 146.925C50.3876 142.418 51.4276 138.388 53.5076 134.835C55.631 131.238 58.491 128.443 62.0876 126.45C65.6843 124.457 69.6276 123.46 73.9176 123.46C78.251 123.46 82.1943 124.457 85.7476 126.45C89.3443 128.443 92.1826 131.238 94.2626 134.835C96.3426 138.388 97.3826 142.418 97.3826 146.925C97.3826 151.432 96.3426 155.483 94.2626 159.08C92.1826 162.633 89.3443 165.428 85.7476 167.465C82.151 169.458 78.2076 170.455 73.9176 170.455ZM73.9176 158.625C77.1676 158.625 79.7243 157.563 81.5876 155.44C83.4943 153.317 84.4476 150.478 84.4476 146.925C84.4476 143.285 83.4943 140.425 81.5876 138.345C79.7243 136.222 77.1676 135.16 73.9176 135.16C70.6243 135.16 68.046 136.222 66.1826 138.345C64.3193 140.425 63.3876 143.285 63.3876 146.925C63.3876 150.522 64.3193 153.382 66.1826 155.505C68.046 157.585 70.6243 158.625 73.9176 158.625ZM101.55 146.99C101.55 142.483 102.481 138.475 104.345 134.965C106.251 131.412 108.938 128.66 112.405 126.71C115.871 124.717 119.858 123.72 124.365 123.72C130.085 123.72 134.895 125.258 138.795 128.335C142.695 131.368 145.208 135.507 146.335 140.75H132.62C131.796 139.017 130.648 137.695 129.175 136.785C127.745 135.875 126.076 135.42 124.17 135.42C121.223 135.42 118.861 136.482 117.085 138.605C115.351 140.685 114.485 143.48 114.485 146.99C114.485 150.543 115.351 153.382 117.085 155.505C118.861 157.585 121.223 158.625 124.17 158.625C126.076 158.625 127.745 158.17 129.175 157.26C130.648 156.35 131.796 155.028 132.62 153.295H146.335C145.208 158.538 142.695 162.698 138.795 165.775C134.895 168.808 130.085 170.325 124.365 170.325C119.858 170.325 115.871 169.35 112.405 167.4C108.938 165.407 106.251 162.655 104.345 159.145C102.481 155.592 101.55 151.54 101.55 146.99ZM165.108 124.175V170H152.368V124.175H165.108ZM201.353 162.525H185.103L182.633 170H169.243L185.948 124.175H200.638L217.278 170H203.823L201.353 162.525ZM198.168 152.775L193.228 137.955L188.353 152.775H198.168ZM234.17 160.25H248.405V170H221.43V124.175H234.17V160.25ZM319.295 124.175V170H306.555V144.715L297.91 170H287.25L278.54 144.52V170H265.8V124.175H281.205L292.71 153.945L303.955 124.175H319.295ZM339.287 134.38V141.855H353.912V151.54H339.287V159.795H355.862V170H326.547V124.175H355.862V134.38H339.287ZM380.293 124.175C385.103 124.175 389.306 125.15 392.903 127.1C396.543 129.007 399.338 131.693 401.288 135.16C403.238 138.627 404.213 142.592 404.213 147.055C404.213 151.475 403.216 155.418 401.223 158.885C399.273 162.352 396.478 165.082 392.838 167.075C389.241 169.025 385.059 170 380.293 170H362.158V124.175H380.293ZM379.318 158.755C383.044 158.755 385.969 157.737 388.093 155.7C390.216 153.663 391.278 150.782 391.278 147.055C391.278 143.285 390.216 140.382 388.093 138.345C385.969 136.265 383.044 135.225 379.318 135.225H374.898V158.755H379.318ZM422.695 124.175V170H409.955V124.175H422.695ZM458.941 162.525H442.691L440.221 170H426.831L443.536 124.175H458.226L474.866 170H461.411L458.941 162.525ZM455.756 152.775L450.816 137.955L445.941 152.775H455.756Z" fill="white"/>
</mask>
<g mask="url(#mask0)">
<g filter="url(#filter1_f)">
<path d="M-9 9H584V191H-9V9Z" fill="url(#paint0_angular)"/>
</g>
</g>
</g>
<defs>
<filter id="filter0_d" x="0.273438" y="19.46" width="570.25" height="164.995" filterUnits="userSpaceOnUse" color-interpolation-filters="sRGB">
<feFlood flood-opacity="0" result="BackgroundImageFix"/>
<feColorMatrix in="SourceAlpha" type="matrix" values="0 0 0 0 0 0 0 0 0 0 0 0 0 0 0 0 0 0 127 0" result="hardAlpha"/>
<feOffset dy="4"/>
<feGaussianBlur stdDeviation="5"/>
<feColorMatrix type="matrix" values="0 0 0 0 0 0 0 0 0 0 0 0 0 0 0 0 0 0 0.07 0"/>
<feBlend mode="normal" in2="BackgroundImageFix" result="effect1_dropShadow"/>
<feBlend mode="normal" in="SourceGraphic" in2="effect1_dropShadow" result="shape"/>
</filter>
<filter id="filter1_f" x="-39" y="-21" width="653" height="242" filterUnits="userSpaceOnUse" color-interpolation-filters="sRGB">
<feFlood flood-opacity="0" result="BackgroundImageFix"/>
<feBlend mode="normal" in="SourceGraphic" in2="BackgroundImageFix" result="shape"/>
<feGaussianBlur stdDeviation="15" result="effect1_foregroundBlur"/>
</filter>
<radialGradient id="paint0_angular" cx="0" cy="0" r="1" gradientUnits="userSpaceOnUse" gradientTransform="translate(275 82) rotate(-90.5562) scale(103.005 335.615)">
<stop offset="0.113234" stop-color="#FF9E75"/>
<stop offset="0.348958" stop-color="#FF4E02"/>
<stop offset="0.505208" stop-color="#FFB800"/>
<stop offset="0.875" stop-color="#FF3E9A"/>
</radialGradient>
</defs>
</svg>
