<svg width="14" height="15" viewBox="0 0 14 15"  xmlns="http://www.w3.org/2000/svg">
<path d="M1.94841 1.10766C2.31506 1.11683 2.6028 0.829163 2.67836 0.470259C2.75556 0.103605 2.87923 0.005703 3.13228 0.00121038C3.38122 0.00121038 3.57485 0.12891 3.63349 0.377845C3.72647 0.769555 3.99822 1.09126 4.40081 1.09126H9.46281C9.74198 1.09126 9.96196 0.864887 9.9683 0.585782C9.97771 0.234344 10.1951 -0.00404804 10.4955 5.20726e-05C10.7832 5.20726e-05 10.9995 0.234341 11.0161 0.568207C11.0311 0.868073 11.2595 1.11177 11.5597 1.11177C11.5996 1.11177 11.6397 1.11177 11.6799 1.11177C12.8317 1.11587 13.6328 1.95169 13.6339 3.16826C13.6372 6.42921 13.6372 9.68977 13.6339 12.9499C13.6339 14.1624 12.8273 15 11.6755 15C8.43996 15 5.20424 15 1.96833 15C0.800498 15 0.00331926 14.1607 0.00221284 12.9259C-0.000737614 9.67435 -0.000737614 6.42297 0.00221284 3.17177C0.00221284 1.95111 0.800495 1.11235 1.94841 1.10766ZM1.36327 5.85261C1.19116 5.85264 1.05165 5.99217 1.05165 6.16427C1.05165 8.4002 1.05165 10.6361 1.05165 12.8721C1.05165 13.5656 1.36145 13.893 2.01479 13.893H11.6108C12.2796 13.893 12.5828 13.5685 12.5828 12.8515C12.5828 10.6258 12.5828 8.4 12.5828 6.17423C12.5828 5.99567 12.438 5.85092 12.2594 5.85095L1.36327 5.85261ZMnan nanL9.95336 2.25101H5.04167C4.27598 2.25101 3.91194 3.40075 3.14943 3.33109C2.62715 3.2827 2.61644 2.91528 2.61299 2.53429C2.61142 2.36001 2.46901 2.22757 2.29472 2.22757C2.11024 2.22076 1.92555 2.22488 1.74151 2.23988C1.40958 2.28323 1.08983 2.57902 1.07268 2.92342C1.02478 3.90548 1.86199 4.70345 2.84522 4.70345H10.8856C11.8198 4.70345 12.6017 3.94571 12.5728 3.01187C12.5636 2.81922 12.4903 2.63625 12.3658 2.49537C12.2414 2.35449 12.0739 2.2648 11.8929 2.24221C11.8461 2.23722 11.7991 2.23373 11.752 2.23138C11.3502 2.21138 11.0684 2.55412 10.9785 2.94626C10.9176 3.21336 10.7168 3.34398 10.459 3.33402C10.1094 3.32114 10.0126 3.10793 9.95336 2.25101Lnan nanZ" fill="#FB7542"/>
</svg>
