<svg width="12" height="12" viewBox="0 0 12 12" fill="none" xmlns="http://www.w3.org/2000/svg">
<path d="M7.12173 6.15222L11.1017 2.17222C11.1673 2.10894 11.2196 2.03325 11.2555 1.94955C11.2915 1.86585 11.3104 1.77582 11.3112 1.68472C11.3121 1.59362 11.2947 1.50327 11.2602 1.41895C11.2257 1.33463 11.1748 1.25802 11.1104 1.1936C11.0459 1.12918 10.9693 1.07824 10.885 1.04374C10.8007 1.00925 10.7103 0.9919 10.6192 0.992702C10.5281 0.993505 10.4381 1.01244 10.3544 1.04842C10.2707 1.08439 10.195 1.13667 10.1317 1.20222L6.15173 5.18222L2.17173 1.20222C2.04234 1.07731 1.86907 1.00821 1.68923 1.00979C1.50939 1.01137 1.33737 1.08352 1.2102 1.21069C1.08303 1.33786 1.01089 1.50988 1.0093 1.68972C1.00772 1.86956 1.07682 2.04283 1.20173 2.17222L5.18173 6.15222L1.20173 10.1322C1.13619 10.1955 1.0839 10.2712 1.04793 10.3549C1.01196 10.4386 0.993016 10.5286 0.992214 10.6197C0.991412 10.7108 1.00876 10.8012 1.04326 10.8855C1.07775 10.9698 1.12869 11.0464 1.19311 11.1108C1.25753 11.1753 1.33414 11.2262 1.41846 11.2607C1.50278 11.2952 1.59313 11.3125 1.68423 11.3117C1.77533 11.3109 1.86536 11.292 1.94906 11.256C2.03276 11.22 2.10846 11.1678 2.17173 11.1022L6.15173 7.12222L10.1317 11.1022C10.195 11.1678 10.2707 11.22 10.3544 11.256C10.4381 11.292 10.5281 11.3109 10.6192 11.3117C10.7103 11.3125 10.8007 11.2952 10.885 11.2607C10.9693 11.2262 11.0459 11.1753 11.1104 11.1108C11.1748 11.0464 11.2257 10.9698 11.2602 10.8855C11.2947 10.8012 11.3121 10.7108 11.3112 10.6197C11.3104 10.5286 11.2915 10.4386 11.2555 10.3549C11.2196 10.2712 11.1673 10.1955 11.1017 10.1322L7.12173 6.15222Z" fill="#ED6C53"/>
</svg>
