<svg height="300" viewBox="0 0 346 300" fill="none" xmlns="http://www.w3.org/2000/svg">
<mask id="mask0" mask-type="alpha" maskUnits="userSpaceOnUse" x="0" y="0" height="300">
<rect width="500" height="300" rx="24" fill="white"/>
</mask>
<g mask="url(#mask0)">
<g opacity="0.1">
<g style="mix-blend-mode:multiply">
<path d="M263.612 64.312C262.725 58.6437 260.57 52.8953 256.182 51.1928C251.908 50.1944 245.729 57.7828 243.682 60.4466C238.181 67.606 243.655 71.13 252.399 73.2069C266.353 76.5215 263.845 65.7954 263.612 64.312Z" fill="#FA7A42"/>
</g>
<path d="M418.18 110.279L309.408 142.56L199.934 110.279L152.214 9.04986L453.969 30.8042L418.18 110.279Z" fill="url(#paint0_linear)"/>
<path d="M148 -0.202393H468L418.183 110.675L308 142.254L200.394 110.675L148 -0.202393Z" fill="url(#paint1_linear)"/>
<g style="mix-blend-mode:multiply">
<path d="M334.865 111.454C335.254 109.066 335.146 106.479 333.611 105.22C332.029 104.259 328.556 106.488 327.386 107.287C324.241 109.433 325.972 111.564 329.203 113.545C334.36 116.706 334.763 112.078 334.865 111.454Z" fill="#FA7A42" fill-opacity="0.05"/>
</g>
<g style="mix-blend-mode:multiply">
<path d="M269.495 46.1819C271.851 46.7295 274.439 46.794 275.798 45.3464C276.863 43.8327 274.87 40.2188 274.151 38.9979C272.22 35.7166 269.978 37.3014 267.786 40.393C264.287 45.3271 268.878 46.0386 269.495 46.1819Z" fill="#FA7A42" fill-opacity="0.05"/>
</g>
<g style="mix-blend-mode:multiply">
<path d="M209.955 25.8397C210.344 23.4517 210.236 20.8651 208.701 19.6064C207.119 18.645 203.646 20.8742 202.476 21.6727C199.331 23.8191 201.062 25.9504 204.293 27.9312C209.449 31.0925 209.853 26.4647 209.955 25.8397Z" fill="#FA7A42" fill-opacity="0.05"/>
</g>
<path opacity="0.8" d="M414.627 103.947L310.289 72.8396L201.538 103.946C199.701 104.496 198.527 105.672 198.527 106.967C198.527 108.263 199.701 109.439 201.538 109.989L305.875 141.099C307.316 141.517 308.847 141.517 310.289 141.099L414.627 109.988C416.46 109.439 417.635 108.264 417.635 106.967C417.635 105.67 416.46 104.496 414.627 103.947Z" stroke="#FFD6C4" stroke-opacity="0.2" stroke-width="5"/>
<path opacity="0.5" d="M413.107 199.417L310.182 168.219L202.903 199.415C201.091 199.967 199.934 201.147 199.934 202.446C199.934 203.745 201.091 204.924 202.903 205.476L305.827 236.677C307.249 237.096 308.759 237.096 310.182 236.677L413.107 205.475C414.915 204.924 416.074 203.746 416.074 202.446C416.074 201.145 414.915 199.967 413.107 199.417Z" fill="url(#paint2_linear)"/>
<path d="M308.004 237.693V142.254L416.776 109.271V204.71L308.004 237.693Z" fill="url(#paint3_linear)" fill-opacity="0.5"/>
<path d="M308.004 236.991V142.074L199.934 109.271V204.189L308.004 236.991Z" fill="url(#paint4_linear)" fill-opacity="0.5"/>
<path d="M291.158 165.412L181.684 126.815L199.947 108.571L308.021 142.254L291.158 165.412Z" fill="url(#paint5_linear)" fill-opacity="0.5"/>
<path d="M325.278 165.232L434.752 126.635L416.774 109.272L308.003 142.254L325.278 165.232Z" fill="url(#paint6_linear)" fill-opacity="0.5"/>
<path opacity="0.05" d="M258.762 56.285C253.834 37.2523 233.02 -2.39395 189.188 -8.71692" stroke="#FA7A42" stroke-width="3" stroke-linecap="round" stroke-linejoin="round"/>
<g style="mix-blend-mode:multiply" opacity="0.4">
<path d="M340.015 93.6165C334.853 94.9759 329.737 97.5159 328.578 101.739C328.06 105.79 335.67 110.788 338.329 112.43C345.478 116.842 348.22 111.44 349.312 103.15C351.055 89.9202 341.366 93.2608 340.015 93.6165Z" fill="#FA7A42"/>
</g>
<path opacity="0.5" fill-rule="evenodd" clip-rule="evenodd" d="M341.846 64.984L336.496 59.0516L334.788 57.158L341.914 50.5699C345.196 47.6092 345.456 42.5698 342.496 39.2871C339.535 36.0045 334.496 35.7445 331.213 38.7049L307.243 60.3325C303.96 63.2928 303.7 68.3326 306.66 71.6153C309.621 74.8979 314.661 75.1578 317.943 72.1975C319.051 71.1987 320.705 71.2841 321.704 72.3915C322.703 73.499 322.617 75.1536 321.51 76.1524L311.86 84.8554C307.43 84.7794 302.3 82.6846 298.751 78.7489C291.686 70.9162 292.699 59.1053 300.109 52.4227L324.079 30.7951C331.712 23.9112 343.522 24.5206 350.406 32.1536C357.289 39.7865 356.68 51.5958 349.047 58.4797L341.846 64.984ZM320.47 55.585C327.017 55.8056 331.372 59.2444 333.579 61.6916C342.676 71.7788 336.85 83.8433 332.22 88.0177L307.769 110.051C300.136 116.935 288.327 116.326 281.443 108.693C274.559 101.06 275.169 89.2504 282.802 82.3665L290.147 75.7421L295.522 81.7027L297.289 83.6621L289.935 90.2763C286.653 93.2366 286.393 98.2764 289.353 101.559C292.314 104.842 297.353 105.102 300.636 102.141L325.087 80.1079C328.37 77.1473 328.63 72.1078 325.669 68.8252C322.709 65.5425 317.669 65.2825 314.386 68.243C313.279 69.2416 311.624 69.1564 310.626 68.0489C309.627 66.9415 309.712 65.2867 310.82 64.2881L320.47 55.585Z" fill="#ED6C53"/>
</g>
</g>
<g style="mix-blend-mode:multiply">
<path d="M220.683 131.733C219.522 130.566 218.052 129.592 216.744 129.935C215.581 130.421 215.421 133.223 215.393 134.186C215.319 136.774 217.186 136.673 219.571 135.685C223.378 134.109 220.987 132.039 220.683 131.733Z" fill="#FA7A42"/>
</g>
<g style="mix-blend-mode:multiply">
<path d="M152.421 157.207C151.85 153.565 150.463 149.871 147.637 148.777C144.886 148.136 140.909 153.011 139.591 154.723C136.049 159.323 139.573 161.588 145.202 162.922C154.185 165.052 152.57 158.16 152.421 157.207Z" fill="#FA7A42"/>
</g>
<g style="mix-blend-mode:multiply">
<path d="M159.461 117.505C159.193 115.792 158.541 114.055 157.215 113.54C155.923 113.238 154.056 115.531 153.438 116.336C151.775 118.499 153.43 119.564 156.073 120.193C160.291 121.195 159.532 117.954 159.461 117.505Z" fill="#FA7A42"/>
</g>
<path d="M251.926 186.742L181.904 207.484L111.43 186.742L80.7105 121.698L274.965 135.676L251.926 186.742Z" fill="url(#paint7_linear)"/>
<path d="M78 115.753H284L251.93 186.997L181 207.287L111.728 186.997L78 115.753Z" fill="url(#paint8_linear)"/>
<g style="mix-blend-mode:multiply">
<path d="M233.906 138.36C234.732 139.686 235.884 140.899 237.167 140.86C238.346 140.657 239.092 138.099 239.323 137.214C239.944 134.836 238.194 134.533 235.777 134.94C231.92 135.59 233.69 138.012 233.906 138.36Z" fill="#FA7A42" fill-opacity="0.05"/>
</g>
<g style="mix-blend-mode:multiply">
<path d="M195.009 124.826C196.535 125.168 198.209 125.197 199.081 124.256C199.762 123.274 198.457 120.951 197.986 120.166C196.721 118.057 195.279 119.091 193.876 121.097C191.637 124.299 194.609 124.736 195.009 124.826Z" fill="#FA7A42" fill-opacity="0.05"/>
</g>
<g style="mix-blend-mode:multiply">
<path d="M223.451 162.009C223.702 160.475 223.632 158.813 222.644 158.004C221.626 157.386 219.39 158.819 218.637 159.332C216.612 160.711 217.727 162.08 219.807 163.353C223.126 165.384 223.386 162.411 223.451 162.009Z" fill="#FA7A42" fill-opacity="0.05"/>
</g>
<g style="mix-blend-mode:multiply">
<path d="M156.212 145.557C157.729 145.909 159.395 145.95 160.269 145.02C160.955 144.048 159.672 141.726 159.21 140.941C157.966 138.833 156.523 139.851 155.112 141.838C152.86 145.008 155.815 145.465 156.212 145.557Z" fill="#FA7A42" fill-opacity="0.05"/>
</g>
<g style="mix-blend-mode:multiply">
<path d="M117.885 132.487C118.135 130.952 118.066 129.29 117.078 128.481C116.06 127.864 113.824 129.296 113.071 129.809C111.046 131.188 112.16 132.558 114.24 133.83C117.56 135.862 117.819 132.888 117.885 132.487Z" fill="#FA7A42" fill-opacity="0.05"/>
</g>
<path opacity="0.8" d="M249.641 182.673L182.474 162.686L112.465 182.672C111.283 183.026 110.527 183.782 110.527 184.614C110.527 185.446 111.283 186.202 112.465 186.556L179.632 206.545C180.56 206.814 181.546 206.814 182.474 206.545L249.641 186.555C250.821 186.202 251.578 185.447 251.578 184.614C251.578 183.781 250.821 183.026 249.641 182.673Z" stroke="#FFD6C4" stroke-opacity="0.2" stroke-width="5"/>
<path opacity="0.8" d="M248.66 244.017L182.402 223.971L113.341 244.016C112.175 244.37 111.43 245.128 111.43 245.963C111.43 246.798 112.175 247.556 113.341 247.91L179.599 267.958C180.514 268.227 181.486 268.227 182.402 267.958L248.66 247.909C249.824 247.556 250.57 246.799 250.57 245.963C250.57 245.127 249.824 244.37 248.66 244.017Z" fill="url(#paint9_linear)"/>
<path d="M181 268.611V207.288L251.022 186.095V247.418L181 268.611Z" fill="url(#paint10_linear)" fill-opacity="0.6"/>
<path d="M181 268.16V207.172L111.43 186.095V247.083L181 268.16Z" fill="url(#paint11_linear)" fill-opacity="0.6"/>
<path d="M170.158 222.167L99.6842 197.367L111.441 185.644L181.013 207.287L170.158 222.167Z" fill="url(#paint12_linear)" fill-opacity="0.5"/>
<path d="M192.121 222.052L262.595 197.252L251.022 186.095L181 207.288L192.121 222.052Z" fill="url(#paint13_linear)" fill-opacity="0.5"/>
<path opacity="0.05" d="M219.855 146.927C220.63 140.505 225.689 126.666 239.731 122.684" stroke="#FA7A42" stroke-width="3" stroke-linecap="round" stroke-linejoin="round"/>
<path opacity="0.05" d="M149.303 152.049C146.131 139.82 132.732 114.345 104.515 110.283" stroke="#FA7A42" stroke-width="3" stroke-linecap="round" stroke-linejoin="round"/>
<g style="mix-blend-mode:multiply" opacity="0.4">
<path d="M201.607 176.036C198.284 176.909 194.991 178.542 194.245 181.255C193.911 183.858 198.81 187.069 200.522 188.124C205.124 190.959 206.889 187.488 207.592 182.162C208.714 173.661 202.477 175.807 201.607 176.036Z" fill="#FA7A42"/>
</g>
<path opacity="0.5" fill-rule="evenodd" clip-rule="evenodd" d="M202.787 157.64L199.343 153.828L198.244 152.611L202.831 148.378C204.944 146.476 205.112 143.238 203.206 141.128C201.3 139.019 198.056 138.852 195.943 140.754L180.512 154.651C178.399 156.553 178.231 159.791 180.137 161.9C182.043 164.01 185.287 164.177 187.4 162.275C188.113 161.633 189.178 161.688 189.821 162.399C190.464 163.111 190.409 164.174 189.696 164.816L183.484 170.408C180.632 170.359 177.33 169.013 175.045 166.484C170.497 161.451 171.149 153.862 175.919 149.568L191.35 135.672C196.264 131.249 203.866 131.64 208.298 136.545C212.729 141.449 212.337 149.037 207.423 153.46L202.787 157.64ZM189.028 151.6C193.243 151.742 196.046 153.951 197.467 155.524C203.323 162.005 199.572 169.757 196.592 172.439L180.852 186.597C175.938 191.02 168.336 190.628 163.904 185.724C159.473 180.819 159.865 173.231 164.779 168.808L169.507 164.552L172.968 168.382L174.105 169.641L169.371 173.891C167.258 175.793 167.091 179.031 168.996 181.14C170.902 183.249 174.147 183.416 176.26 181.514L192 167.357C194.113 165.455 194.281 162.216 192.375 160.107C190.469 157.998 187.225 157.831 185.112 159.733C184.399 160.375 183.334 160.32 182.691 159.608C182.048 158.897 182.103 157.834 182.816 157.192L189.028 151.6Z" fill="#FA7A42"/>
<path opacity="0.1" d="M243.087 255.634L181.832 237.063L117.986 255.633C116.908 255.961 116.219 256.664 116.219 257.437C116.219 258.21 116.908 258.912 117.986 259.24L179.241 277.813C179.651 277.937 180.094 278 180.536 278C180.979 278 181.421 277.937 181.832 277.813L243.087 259.24C244.163 258.913 244.852 258.212 244.852 257.438C244.852 256.664 244.163 255.961 243.087 255.634Z" fill="url(#paint14_linear)"/>
<defs>
<linearGradient id="paint0_linear" x1="311.513" y1="142.383" x2="311.513" y2="-30.2485" gradientUnits="userSpaceOnUse">
<stop stop-color="#FFCE84" stop-opacity="0.74"/>
<stop offset="0.432292" stop-color="#FFC876" stop-opacity="0"/>
</linearGradient>
<linearGradient id="paint1_linear" x1="308" y1="-0.202393" x2="308" y2="110.675" gradientUnits="userSpaceOnUse">
<stop stop-color="white" stop-opacity="0"/>
<stop offset="1" stop-color="#F5DEDE" stop-opacity="0.569"/>
</linearGradient>
<linearGradient id="paint2_linear" x1="199.934" y1="140.532" x2="230.859" y2="309.929" gradientUnits="userSpaceOnUse">
<stop stop-color="#DD1C84"/>
<stop offset="0.5087" stop-color="#EA8855"/>
<stop offset="0.678731" stop-color="#F1A839"/>
<stop offset="0.771199" stop-color="#FF932F"/>
</linearGradient>
<linearGradient id="paint3_linear" x1="308.004" y1="57.5695" x2="459.779" y2="281.621" gradientUnits="userSpaceOnUse">
<stop stop-color="#DD1C84"/>
<stop offset="0.5087" stop-color="#EA8855"/>
<stop offset="0.678731" stop-color="#F1A839"/>
<stop offset="0.771199" stop-color="#FF932F"/>
</linearGradient>
<linearGradient id="paint4_linear" x1="308.004" y1="57.852" x2="157.003" y2="280.54" gradientUnits="userSpaceOnUse">
<stop stop-color="#DD1C84"/>
<stop offset="0.5087" stop-color="#EA8855"/>
<stop offset="0.678731" stop-color="#F1A839"/>
<stop offset="0.771199" stop-color="#FF932F"/>
</linearGradient>
<linearGradient id="paint5_linear" x1="155.723" y1="118.562" x2="214.447" y2="158.682" gradientUnits="userSpaceOnUse">
<stop stop-color="#DD1C84"/>
<stop offset="0.5087" stop-color="#EA8855"/>
<stop offset="0.678731" stop-color="#F1A839"/>
<stop offset="0.771199" stop-color="#FF932F"/>
</linearGradient>
<linearGradient id="paint6_linear" x1="460.713" y1="118.382" x2="401.988" y2="158.502" gradientUnits="userSpaceOnUse">
<stop stop-color="#DD1C84"/>
<stop offset="0.5087" stop-color="#EA8855"/>
<stop offset="0.678731" stop-color="#F1A839"/>
<stop offset="0.771199" stop-color="#FF932F"/>
</linearGradient>
<linearGradient id="paint7_linear" x1="183.259" y1="207.37" x2="183.259" y2="96.4475" gradientUnits="userSpaceOnUse">
<stop stop-color="#FFCE84" stop-opacity="0.74"/>
<stop offset="0.432292" stop-color="#FFC876" stop-opacity="0"/>
</linearGradient>
<linearGradient id="paint8_linear" x1="181" y1="115.753" x2="181" y2="186.997" gradientUnits="userSpaceOnUse">
<stop stop-color="white" stop-opacity="0"/>
<stop offset="1" stop-color="#F5DEDE" stop-opacity="0.569"/>
</linearGradient>
<linearGradient id="paint9_linear" x1="111.43" y1="206.181" x2="131.266" y2="315.038" gradientUnits="userSpaceOnUse">
<stop stop-color="#DD1C84"/>
<stop offset="0.5087" stop-color="#EA8855"/>
<stop offset="0.678731" stop-color="#F1A839"/>
<stop offset="0.771199" stop-color="#FF932F"/>
</linearGradient>
<linearGradient id="paint10_linear" x1="181" y1="152.874" x2="278.454" y2="297.007" gradientUnits="userSpaceOnUse">
<stop stop-color="#DD1C84"/>
<stop offset="0.5087" stop-color="#EA8855"/>
<stop offset="0.678731" stop-color="#F1A839"/>
<stop offset="0.771199" stop-color="#FF932F"/>
</linearGradient>
<linearGradient id="paint11_linear" x1="181" y1="153.056" x2="84.043" y2="296.311" gradientUnits="userSpaceOnUse">
<stop stop-color="#DD1C84"/>
<stop offset="0.5087" stop-color="#EA8855"/>
<stop offset="0.678731" stop-color="#F1A839"/>
<stop offset="0.771199" stop-color="#FF932F"/>
</linearGradient>
<linearGradient id="paint12_linear" x1="82.9715" y1="192.064" x2="120.73" y2="217.909" gradientUnits="userSpaceOnUse">
<stop stop-color="#DD1C84"/>
<stop offset="0.5087" stop-color="#EA8855"/>
<stop offset="0.678731" stop-color="#F1A839"/>
<stop offset="0.771199" stop-color="#FF932F"/>
</linearGradient>
<linearGradient id="paint13_linear" x1="279.307" y1="191.949" x2="241.549" y2="217.794" gradientUnits="userSpaceOnUse">
<stop stop-color="#DD1C84"/>
<stop offset="0.5087" stop-color="#EA8855"/>
<stop offset="0.678731" stop-color="#F1A839"/>
<stop offset="0.771199" stop-color="#FF932F"/>
</linearGradient>
<linearGradient id="paint14_linear" x1="107.324" y1="246.571" x2="257.631" y2="374.383" gradientUnits="userSpaceOnUse">
<stop stop-color="#FF613E"/>
<stop offset="1" stop-color="#FCA104"/>
</linearGradient>
</defs>
</svg>
