<svg width="390" height="301" viewBox="0 0 390 301" fill="none" xmlns="http://www.w3.org/2000/svg">
<g opacity="0.1">
<g style="mix-blend-mode:multiply">
<path d="M328.76 78.4134C324.992 74.6171 320.222 71.4531 315.977 72.5661C312.204 74.1479 311.684 83.2567 311.594 86.3875C311.353 94.8021 317.414 94.4714 325.153 91.2608C337.504 86.1368 329.746 79.4068 328.76 78.4134Z" fill="#FA7A42"/>
</g>
<g style="mix-blend-mode:multiply">
<path d="M291.636 47.0918C289.832 45.2745 287.549 43.7599 285.517 44.2927C283.711 45.0499 283.462 49.4104 283.419 50.9092C283.303 54.9374 286.205 54.7791 289.91 53.2421C295.822 50.7892 292.109 47.5674 291.636 47.0918Z" fill="#FA7A42"/>
</g>
<g style="mix-blend-mode:multiply">
<path d="M185.612 86.7361C184.725 81.0678 182.57 75.3193 178.182 73.6169C173.908 72.6185 167.729 80.2068 165.682 82.8706C160.181 90.0301 165.655 93.554 174.399 95.6309C188.353 98.9456 185.845 88.2195 185.612 86.7361Z" fill="#FA7A42"/>
</g>
<path d="M340.18 132.703L231.408 164.984L121.934 132.703L74.2144 31.4739L375.969 53.2283L340.18 132.703Z" fill="url(#paint0_linear)"/>
<path d="M70 22.2217H390L340.183 133.099L230 164.678L122.394 133.099L70 22.2217Z" fill="url(#paint1_linear)"/>
<g style="mix-blend-mode:multiply">
<path d="M312.183 57.4044C313.465 59.4694 315.254 61.3565 317.248 61.2961C319.08 60.98 320.238 56.9991 320.597 55.6219C321.561 51.9202 318.843 51.4492 315.089 52.0825C309.097 53.0933 311.847 56.864 312.183 57.4044Z" fill="#FA7A42" fill-opacity="0.05"/>
</g>
<g style="mix-blend-mode:multiply">
<path d="M256.865 133.878C257.254 131.49 257.146 128.903 255.611 127.644C254.029 126.683 250.556 128.912 249.386 129.711C246.241 131.857 247.972 133.988 251.203 135.969C256.36 139.13 256.763 134.503 256.865 133.878Z" fill="#FA7A42" fill-opacity="0.05"/>
</g>
<g style="mix-blend-mode:multiply">
<path d="M191.495 68.606C193.851 69.1535 196.439 69.2181 197.798 67.7705C198.863 66.2568 196.87 62.6429 196.151 61.422C194.22 58.1407 191.978 59.7255 189.786 62.817C186.287 67.7512 190.878 68.4627 191.495 68.606Z" fill="#FA7A42" fill-opacity="0.05"/>
</g>
<g style="mix-blend-mode:multiply">
<path d="M131.955 48.2638C132.344 45.8758 132.236 43.2892 130.701 42.0305C129.119 41.069 125.646 43.2982 124.476 44.0968C121.331 46.2431 123.062 48.3744 126.293 50.3552C131.449 53.5166 131.853 48.8888 131.955 48.2638Z" fill="#FA7A42" fill-opacity="0.05"/>
</g>
<path opacity="0.8" d="M336.627 126.371L232.289 95.2637L123.538 126.37C121.701 126.92 120.527 128.096 120.527 129.391C120.527 130.687 121.701 131.863 123.538 132.413L227.875 163.523C229.316 163.941 230.847 163.941 232.289 163.523L336.627 132.412C338.46 131.863 339.635 130.688 339.635 129.391C339.635 128.095 338.46 126.92 336.627 126.371Z" stroke="#FFD6C4" stroke-opacity="0.2" stroke-width="5"/>
<path opacity="0.5" d="M335.107 221.841L232.182 190.643L124.903 221.839C123.091 222.391 121.934 223.571 121.934 224.87C121.934 226.169 123.091 227.349 124.903 227.9L227.827 259.101C229.249 259.52 230.759 259.52 232.182 259.101L335.107 227.899C336.915 227.349 338.074 226.17 338.074 224.87C338.074 223.569 336.915 222.391 335.107 221.841Z" fill="url(#paint2_linear)"/>
<path d="M230.004 260.117V164.678L338.776 131.696V227.134L230.004 260.117Z" fill="url(#paint3_linear)" fill-opacity="0.5"/>
<path d="M230.004 259.415V164.498L121.934 131.696V226.613L230.004 259.415Z" fill="url(#paint4_linear)" fill-opacity="0.5"/>
<path d="M213.158 187.836L103.684 149.239L121.947 130.995L230.021 164.678L213.158 187.836Z" fill="url(#paint5_linear)" fill-opacity="0.5"/>
<path d="M247.278 187.656L356.752 149.059L338.774 131.696L230.003 164.678L247.278 187.656Z" fill="url(#paint6_linear)" fill-opacity="0.5"/>
<path opacity="0.05" d="M290.353 70.7378C291.556 60.7433 299.416 39.2052 321.228 33.0085" stroke="#FA7A42" stroke-width="3" stroke-linecap="round" stroke-linejoin="round"/>
<path opacity="0.05" d="M180.762 78.7091C175.834 59.6763 155.02 20.0301 111.188 13.7072" stroke="#FA7A42" stroke-width="3" stroke-linecap="round" stroke-linejoin="round"/>
<g style="mix-blend-mode:multiply" opacity="0.4">
<path d="M262.015 116.041C256.853 117.4 251.737 119.94 250.578 124.163C250.06 128.214 257.67 133.212 260.329 134.854C267.478 139.266 270.22 133.864 271.312 125.575C273.055 112.344 263.366 115.685 262.015 116.041Z" fill="#FA7A42"/>
</g>
<path opacity="0.5" fill-rule="evenodd" clip-rule="evenodd" d="M263.846 87.408L258.496 81.4757L256.788 79.582L263.914 72.994C267.196 70.0333 267.456 64.9938 264.496 61.7112C261.535 58.4286 256.496 58.1685 253.213 61.129L229.243 82.7566C225.96 85.7169 225.7 90.7567 228.66 94.0394C231.621 97.322 236.661 97.5819 239.943 94.6215C241.051 93.6228 242.705 93.7082 243.704 94.8156C244.703 95.9231 244.617 97.5777 243.51 98.5765L233.86 107.279C229.43 107.203 224.3 105.109 220.751 101.173C213.686 93.3403 214.699 81.5294 222.109 74.8468L246.079 53.2192C253.712 46.3353 265.522 46.9446 272.406 54.5776C279.289 62.2106 278.68 74.0199 271.047 80.9038L263.846 87.408ZM242.47 78.0091C249.017 78.2296 253.372 81.6685 255.579 84.1157C264.676 94.2029 258.85 106.267 254.22 110.442L229.769 132.475C222.136 139.359 210.327 138.75 203.443 131.117C196.559 123.484 197.169 111.674 204.802 104.791L212.147 98.1662L217.522 104.127L219.289 106.086L211.935 112.7C208.653 115.661 208.393 120.701 211.353 123.983C214.314 127.266 219.353 127.526 222.636 124.565L247.087 102.532C250.37 99.5713 250.63 94.5319 247.669 91.2492C244.709 87.9666 239.669 87.7066 236.386 90.667C235.279 91.6656 233.624 91.5804 232.626 90.473C231.627 89.3655 231.712 87.7107 232.82 86.7121L242.47 78.0091Z" fill="#ED6C53"/>
</g>
<g style="mix-blend-mode:multiply">
<path d="M142.683 154.158C141.522 152.99 140.052 152.017 138.744 152.359C137.581 152.846 137.421 155.648 137.393 156.611C137.319 159.199 139.186 159.097 141.571 158.11C145.378 156.533 142.987 154.463 142.683 154.158Z" fill="#FA7A42"/>
</g>
<g style="mix-blend-mode:multiply">
<path d="M74.4207 179.631C73.8496 175.989 72.4625 172.295 69.6374 171.201C66.8862 170.56 62.9085 175.436 61.5908 177.147C58.0492 181.748 61.5734 184.012 67.2021 185.346C76.1853 187.476 74.5702 180.584 74.4207 179.631Z" fill="#FA7A42"/>
</g>
<g style="mix-blend-mode:multiply">
<path d="M81.4614 139.93C81.1928 138.217 80.5412 136.479 79.2147 135.965C77.923 135.663 76.056 137.955 75.4375 138.76C73.7753 140.923 75.4301 141.989 78.0729 142.617C82.2907 143.62 81.5317 140.378 81.4614 139.93Z" fill="#FA7A42"/>
</g>
<path d="M173.926 209.166L103.904 229.908L33.4298 209.166L2.71046 144.123L196.965 158.101L173.926 209.166Z" fill="url(#paint7_linear)"/>
<path d="M0 138.178H206L173.93 209.421L103 229.712L33.7283 209.421L0 138.178Z" fill="url(#paint8_linear)"/>
<g style="mix-blend-mode:multiply">
<path d="M155.906 160.784C156.732 162.111 157.884 163.323 159.167 163.285C160.346 163.081 161.092 160.524 161.323 159.639C161.944 157.26 160.194 156.957 157.777 157.364C153.92 158.014 155.69 160.437 155.906 160.784Z" fill="#FA7A42" fill-opacity="0.05"/>
</g>
<g style="mix-blend-mode:multiply">
<path d="M117.009 147.25C118.535 147.592 120.209 147.621 121.081 146.681C121.762 145.698 120.457 143.375 119.986 142.591C118.721 140.482 117.279 141.515 115.876 143.521C113.637 146.723 116.609 147.16 117.009 147.25Z" fill="#FA7A42" fill-opacity="0.05"/>
</g>
<g style="mix-blend-mode:multiply">
<path d="M145.451 184.434C145.702 182.899 145.632 181.237 144.644 180.428C143.626 179.811 141.39 181.243 140.637 181.756C138.612 183.135 139.727 184.505 141.807 185.777C145.126 187.809 145.386 184.835 145.451 184.434Z" fill="#FA7A42" fill-opacity="0.05"/>
</g>
<g style="mix-blend-mode:multiply">
<path d="M78.2118 167.981C79.7289 168.333 81.395 168.375 82.2694 167.445C82.9549 166.472 81.6723 164.15 81.2096 163.365C79.9661 161.257 78.5228 162.275 77.1117 164.262C74.8595 167.432 77.8147 167.889 78.2118 167.981Z" fill="#FA7A42" fill-opacity="0.05"/>
</g>
<g style="mix-blend-mode:multiply">
<path d="M39.885 154.911C40.1355 153.376 40.0658 151.715 39.0776 150.906C38.0595 150.288 35.8239 151.72 35.0706 152.233C33.0459 153.613 34.1602 154.982 36.2401 156.255C39.5597 158.286 39.8195 155.312 39.885 154.911Z" fill="#FA7A42" fill-opacity="0.05"/>
</g>
<path opacity="0.8" d="M171.641 205.098L104.474 185.11L34.4654 205.097C33.2827 205.45 32.5273 206.206 32.5273 207.038C32.5273 207.871 33.2827 208.626 34.4654 208.98L101.632 228.969C102.56 229.238 103.546 229.238 104.474 228.969L171.641 208.979C172.821 208.626 173.578 207.872 173.578 207.038C173.578 206.205 172.821 205.45 171.641 205.098Z" stroke="#FFD6C4" stroke-opacity="0.2" stroke-width="5"/>
<path opacity="0.8" d="M170.66 266.441L104.402 246.395L35.3415 266.44C34.1748 266.795 33.4297 267.553 33.4297 268.387C33.4297 269.222 34.1748 269.98 35.3415 270.335L101.599 290.382C102.514 290.651 103.486 290.651 104.402 290.382L170.66 270.334C171.824 269.98 172.57 269.223 172.57 268.387C172.57 267.552 171.824 266.795 170.66 266.441Z" fill="url(#paint9_linear)"/>
<path d="M103 291.035V229.712L173.022 208.519V269.842L103 291.035Z" fill="url(#paint10_linear)" fill-opacity="0.6"/>
<path d="M103 290.584V229.596L33.4298 208.519V269.507L103 290.584Z" fill="url(#paint11_linear)" fill-opacity="0.6"/>
<path d="M92.1581 244.591L21.6842 219.792L33.441 208.069L103.013 229.712L92.1581 244.591Z" fill="url(#paint12_linear)" fill-opacity="0.5"/>
<path d="M114.121 244.476L184.595 219.676L173.022 208.519L103 229.712L114.121 244.476Z" fill="url(#paint13_linear)" fill-opacity="0.5"/>
<path opacity="0.05" d="M141.855 169.351C142.63 162.929 147.689 149.09 161.731 145.108" stroke="#FA7A42" stroke-width="3" stroke-linecap="round" stroke-linejoin="round"/>
<path opacity="0.05" d="M71.3029 174.473C68.1306 162.244 54.7318 136.77 26.5147 132.707" stroke="#FA7A42" stroke-width="3" stroke-linecap="round" stroke-linejoin="round"/>
<g style="mix-blend-mode:multiply" opacity="0.4">
<path d="M123.607 198.46C120.284 199.334 116.991 200.966 116.245 203.68C115.911 206.282 120.81 209.494 122.522 210.549C127.124 213.383 128.889 209.913 129.592 204.586C130.714 196.085 124.477 198.232 123.607 198.46Z" fill="#FA7A42"/>
</g>
<path opacity="0.5" fill-rule="evenodd" clip-rule="evenodd" d="M124.787 180.064L121.343 176.252L120.244 175.035L124.831 170.802C126.944 168.9 127.112 165.662 125.206 163.553C123.3 161.443 120.056 161.276 117.943 163.179L102.512 177.075C100.399 178.977 100.231 182.216 102.137 184.325C104.043 186.434 107.287 186.601 109.4 184.699C110.113 184.057 111.178 184.112 111.821 184.824C112.464 185.535 112.409 186.598 111.696 187.24L105.484 192.832C102.632 192.783 99.3299 191.437 97.0449 188.908C92.4974 183.876 93.1494 176.287 97.9195 171.993L113.35 158.096C118.264 153.673 125.866 154.065 130.298 158.969C134.729 163.874 134.337 171.461 129.423 175.885L124.787 180.064ZM111.028 174.024C115.243 174.166 118.046 176.376 119.467 177.948C125.323 184.429 121.572 192.181 118.592 194.864L102.852 209.021C97.9382 213.444 90.3359 213.053 85.9044 208.148C81.4729 203.244 81.8652 195.656 86.7789 191.232L91.5074 186.976L94.9679 190.806L96.1055 192.065L91.3713 196.315C89.2582 198.217 89.0907 201.455 90.9965 203.564C92.9024 205.674 96.1467 205.841 98.2597 203.939L114 189.781C116.113 187.879 116.281 184.641 114.375 182.532C112.469 180.422 109.225 180.255 107.112 182.158C106.399 182.799 105.334 182.744 104.691 182.033C104.048 181.321 104.103 180.258 104.816 179.616L111.028 174.024Z" fill="#FA7A42"/>
<path opacity="0.1" d="M165.087 278.058L103.832 259.488L39.986 278.057C38.9079 278.386 38.2188 279.088 38.2188 279.861C38.2188 280.634 38.9079 281.336 39.986 281.665L101.241 300.237C101.651 300.362 102.094 300.424 102.536 300.424C102.979 300.424 103.421 300.362 103.832 300.237L165.087 281.665C166.163 281.337 166.852 280.636 166.852 279.862C166.852 279.088 166.163 278.386 165.087 278.058Z" fill="url(#paint14_linear)"/>
<defs>
<linearGradient id="paint0_linear" x1="233.513" y1="164.807" x2="233.513" y2="-7.82441" gradientUnits="userSpaceOnUse">
<stop stop-color="#FFCE84" stop-opacity="0.74"/>
<stop offset="0.432292" stop-color="#FFC876" stop-opacity="0"/>
</linearGradient>
<linearGradient id="paint1_linear" x1="230" y1="22.2217" x2="230" y2="133.099" gradientUnits="userSpaceOnUse">
<stop stop-color="white" stop-opacity="0"/>
<stop offset="1" stop-color="#F5DEDE" stop-opacity="0.569"/>
</linearGradient>
<linearGradient id="paint2_linear" x1="121.934" y1="162.956" x2="152.859" y2="332.353" gradientUnits="userSpaceOnUse">
<stop stop-color="#DD1C84"/>
<stop offset="0.5087" stop-color="#EA8855"/>
<stop offset="0.678731" stop-color="#F1A839"/>
<stop offset="0.771199" stop-color="#FF932F"/>
</linearGradient>
<linearGradient id="paint3_linear" x1="230.004" y1="79.9936" x2="381.779" y2="304.045" gradientUnits="userSpaceOnUse">
<stop stop-color="#DD1C84"/>
<stop offset="0.5087" stop-color="#EA8855"/>
<stop offset="0.678731" stop-color="#F1A839"/>
<stop offset="0.771199" stop-color="#FF932F"/>
</linearGradient>
<linearGradient id="paint4_linear" x1="230.004" y1="80.2761" x2="79.0025" y2="302.964" gradientUnits="userSpaceOnUse">
<stop stop-color="#DD1C84"/>
<stop offset="0.5087" stop-color="#EA8855"/>
<stop offset="0.678731" stop-color="#F1A839"/>
<stop offset="0.771199" stop-color="#FF932F"/>
</linearGradient>
<linearGradient id="paint5_linear" x1="77.7226" y1="140.986" x2="136.447" y2="181.106" gradientUnits="userSpaceOnUse">
<stop stop-color="#DD1C84"/>
<stop offset="0.5087" stop-color="#EA8855"/>
<stop offset="0.678731" stop-color="#F1A839"/>
<stop offset="0.771199" stop-color="#FF932F"/>
</linearGradient>
<linearGradient id="paint6_linear" x1="382.713" y1="140.806" x2="323.988" y2="180.926" gradientUnits="userSpaceOnUse">
<stop stop-color="#DD1C84"/>
<stop offset="0.5087" stop-color="#EA8855"/>
<stop offset="0.678731" stop-color="#F1A839"/>
<stop offset="0.771199" stop-color="#FF932F"/>
</linearGradient>
<linearGradient id="paint7_linear" x1="105.259" y1="229.795" x2="105.259" y2="118.872" gradientUnits="userSpaceOnUse">
<stop stop-color="#FFCE84" stop-opacity="0.74"/>
<stop offset="0.432292" stop-color="#FFC876" stop-opacity="0"/>
</linearGradient>
<linearGradient id="paint8_linear" x1="103" y1="138.178" x2="103" y2="209.421" gradientUnits="userSpaceOnUse">
<stop stop-color="white" stop-opacity="0"/>
<stop offset="1" stop-color="#F5DEDE" stop-opacity="0.569"/>
</linearGradient>
<linearGradient id="paint9_linear" x1="33.4297" y1="228.605" x2="53.2656" y2="337.463" gradientUnits="userSpaceOnUse">
<stop stop-color="#DD1C84"/>
<stop offset="0.5087" stop-color="#EA8855"/>
<stop offset="0.678731" stop-color="#F1A839"/>
<stop offset="0.771199" stop-color="#FF932F"/>
</linearGradient>
<linearGradient id="paint10_linear" x1="103" y1="175.299" x2="200.454" y2="319.431" gradientUnits="userSpaceOnUse">
<stop stop-color="#DD1C84"/>
<stop offset="0.5087" stop-color="#EA8855"/>
<stop offset="0.678731" stop-color="#F1A839"/>
<stop offset="0.771199" stop-color="#FF932F"/>
</linearGradient>
<linearGradient id="paint11_linear" x1="103" y1="175.48" x2="6.04305" y2="318.736" gradientUnits="userSpaceOnUse">
<stop stop-color="#DD1C84"/>
<stop offset="0.5087" stop-color="#EA8855"/>
<stop offset="0.678731" stop-color="#F1A839"/>
<stop offset="0.771199" stop-color="#FF932F"/>
</linearGradient>
<linearGradient id="paint12_linear" x1="4.97149" y1="214.489" x2="42.73" y2="240.333" gradientUnits="userSpaceOnUse">
<stop stop-color="#DD1C84"/>
<stop offset="0.5087" stop-color="#EA8855"/>
<stop offset="0.678731" stop-color="#F1A839"/>
<stop offset="0.771199" stop-color="#FF932F"/>
</linearGradient>
<linearGradient id="paint13_linear" x1="201.307" y1="214.373" x2="163.549" y2="240.218" gradientUnits="userSpaceOnUse">
<stop stop-color="#DD1C84"/>
<stop offset="0.5087" stop-color="#EA8855"/>
<stop offset="0.678731" stop-color="#F1A839"/>
<stop offset="0.771199" stop-color="#FF932F"/>
</linearGradient>
<linearGradient id="paint14_linear" x1="29.3239" y1="268.996" x2="179.631" y2="396.807" gradientUnits="userSpaceOnUse">
<stop stop-color="#FF613E"/>
<stop offset="1" stop-color="#FCA104"/>
</linearGradient>
</defs>
</svg>
