<svg viewBox="0 0 180 57" fill="none" xmlns="http://www.w3.org/2000/svg">
<path d="M6.18 37.5057V51.5057H2.94V40.1057H0.14V37.5057H6.18ZM14.612 51.7457C13.452 51.7457 12.4187 51.459 11.512 50.8857C10.6054 50.3123 9.89203 49.4857 9.37203 48.4057C8.86536 47.3123 8.61203 46.0123 8.61203 44.5057C8.61203 42.999 8.86536 41.7057 9.37203 40.6257C9.89203 39.5323 10.6054 38.699 11.512 38.1257C12.4187 37.5523 13.452 37.2657 14.612 37.2657C15.772 37.2657 16.8054 37.5523 17.712 38.1257C18.6187 38.699 19.3254 39.5323 19.832 40.6257C20.352 41.7057 20.612 42.999 20.612 44.5057C20.612 46.0123 20.352 47.3123 19.832 48.4057C19.3254 49.4857 18.6187 50.3123 17.712 50.8857C16.8054 51.459 15.772 51.7457 14.612 51.7457ZM14.612 49.0057C15.4654 49.0057 16.132 48.639 16.612 47.9057C17.1054 47.1723 17.352 46.039 17.352 44.5057C17.352 42.9723 17.1054 41.839 16.612 41.1057C16.132 40.3723 15.4654 40.0057 14.612 40.0057C13.772 40.0057 13.1054 40.3723 12.612 41.1057C12.132 41.839 11.892 42.9723 11.892 44.5057C11.892 46.039 12.132 47.1723 12.612 47.9057C13.1054 48.639 13.772 49.0057 14.612 49.0057ZM28.1863 51.7457C27.0263 51.7457 25.9929 51.459 25.0863 50.8857C24.1796 50.3123 23.4663 49.4857 22.9463 48.4057C22.4396 47.3123 22.1863 46.0123 22.1863 44.5057C22.1863 42.999 22.4396 41.7057 22.9463 40.6257C23.4663 39.5323 24.1796 38.699 25.0863 38.1257C25.9929 37.5523 27.0263 37.2657 28.1863 37.2657C29.3463 37.2657 30.3796 37.5523 31.2863 38.1257C32.1929 38.699 32.8996 39.5323 33.4063 40.6257C33.9263 41.7057 34.1863 42.999 34.1863 44.5057C34.1863 46.0123 33.9263 47.3123 33.4063 48.4057C32.8996 49.4857 32.1929 50.3123 31.2863 50.8857C30.3796 51.459 29.3463 51.7457 28.1863 51.7457ZM28.1863 49.0057C29.0396 49.0057 29.7063 48.639 30.1863 47.9057C30.6796 47.1723 30.9263 46.039 30.9263 44.5057C30.9263 42.9723 30.6796 41.839 30.1863 41.1057C29.7063 40.3723 29.0396 40.0057 28.1863 40.0057C27.3463 40.0057 26.6796 40.3723 26.1863 41.1057C25.7063 41.839 25.4663 42.9723 25.4663 44.5057C25.4663 46.039 25.7063 47.1723 26.1863 47.9057C26.6796 48.639 27.3463 49.0057 28.1863 49.0057ZM37.3666 47.7857C37.9266 47.7857 38.3866 47.9657 38.7466 48.3257C39.1066 48.6723 39.2866 49.1323 39.2866 49.7057C39.2866 49.9723 39.2532 50.239 39.1866 50.5057C39.1199 50.7723 38.9732 51.1723 38.7466 51.7057L37.6066 54.5857H35.6266L36.5066 51.4057C36.1732 51.2723 35.9066 51.059 35.7066 50.7657C35.5199 50.459 35.4266 50.1057 35.4266 49.7057C35.4266 49.1323 35.6066 48.6723 35.9666 48.3257C36.3399 47.9657 36.8066 47.7857 37.3666 47.7857ZM46.487 51.7457C45.327 51.7457 44.2937 51.459 43.387 50.8857C42.4804 50.3123 41.767 49.4857 41.247 48.4057C40.7404 47.3123 40.487 46.0123 40.487 44.5057C40.487 42.999 40.7404 41.7057 41.247 40.6257C41.767 39.5323 42.4804 38.699 43.387 38.1257C44.2937 37.5523 45.327 37.2657 46.487 37.2657C47.647 37.2657 48.6804 37.5523 49.587 38.1257C50.4937 38.699 51.2004 39.5323 51.707 40.6257C52.227 41.7057 52.487 42.999 52.487 44.5057C52.487 46.0123 52.227 47.3123 51.707 48.4057C51.2004 49.4857 50.4937 50.3123 49.587 50.8857C48.6804 51.459 47.647 51.7457 46.487 51.7457ZM46.487 49.0057C47.3404 49.0057 48.007 48.639 48.487 47.9057C48.9804 47.1723 49.227 46.039 49.227 44.5057C49.227 42.9723 48.9804 41.839 48.487 41.1057C48.007 40.3723 47.3404 40.0057 46.487 40.0057C45.647 40.0057 44.9804 40.3723 44.487 41.1057C44.007 41.839 43.767 42.9723 43.767 44.5057C43.767 46.039 44.007 47.1723 44.487 47.9057C44.9804 48.639 45.647 49.0057 46.487 49.0057ZM60.0613 51.7457C58.9013 51.7457 57.8679 51.459 56.9613 50.8857C56.0546 50.3123 55.3413 49.4857 54.8213 48.4057C54.3146 47.3123 54.0613 46.0123 54.0613 44.5057C54.0613 42.999 54.3146 41.7057 54.8213 40.6257C55.3413 39.5323 56.0546 38.699 56.9613 38.1257C57.8679 37.5523 58.9013 37.2657 60.0613 37.2657C61.2213 37.2657 62.2546 37.5523 63.1613 38.1257C64.0679 38.699 64.7746 39.5323 65.2813 40.6257C65.8013 41.7057 66.0613 42.999 66.0613 44.5057C66.0613 46.0123 65.8013 47.3123 65.2813 48.4057C64.7746 49.4857 64.0679 50.3123 63.1613 50.8857C62.2546 51.459 61.2213 51.7457 60.0613 51.7457ZM60.0613 49.0057C60.9146 49.0057 61.5813 48.639 62.0613 47.9057C62.5546 47.1723 62.8013 46.039 62.8013 44.5057C62.8013 42.9723 62.5546 41.839 62.0613 41.1057C61.5813 40.3723 60.9146 40.0057 60.0613 40.0057C59.2213 40.0057 58.5546 40.3723 58.0613 41.1057C57.5813 41.839 57.3413 42.9723 57.3413 44.5057C57.3413 46.039 57.5813 47.1723 58.0613 47.9057C58.5546 48.639 59.2213 49.0057 60.0613 49.0057ZM73.6355 51.7457C72.4755 51.7457 71.4421 51.459 70.5355 50.8857C69.6288 50.3123 68.9155 49.4857 68.3955 48.4057C67.8888 47.3123 67.6355 46.0123 67.6355 44.5057C67.6355 42.999 67.8888 41.7057 68.3955 40.6257C68.9155 39.5323 69.6288 38.699 70.5355 38.1257C71.4421 37.5523 72.4755 37.2657 73.6355 37.2657C74.7955 37.2657 75.8288 37.5523 76.7355 38.1257C77.6421 38.699 78.3488 39.5323 78.8555 40.6257C79.3755 41.7057 79.6355 42.999 79.6355 44.5057C79.6355 46.0123 79.3755 47.3123 78.8555 48.4057C78.3488 49.4857 77.6421 50.3123 76.7355 50.8857C75.8288 51.459 74.7955 51.7457 73.6355 51.7457ZM73.6355 49.0057C74.4888 49.0057 75.1555 48.639 75.6355 47.9057C76.1288 47.1723 76.3755 46.039 76.3755 44.5057C76.3755 42.9723 76.1288 41.839 75.6355 41.1057C75.1555 40.3723 74.4888 40.0057 73.6355 40.0057C72.7955 40.0057 72.1288 40.3723 71.6355 41.1057C71.1555 41.839 70.9155 42.9723 70.9155 44.5057C70.9155 46.039 71.1555 47.1723 71.6355 47.9057C72.1288 48.639 72.7955 49.0057 73.6355 49.0057ZM82.8158 47.7857C83.3758 47.7857 83.8358 47.9657 84.1958 48.3257C84.5558 48.6723 84.7358 49.1323 84.7358 49.7057C84.7358 49.9723 84.7024 50.239 84.6358 50.5057C84.5691 50.7723 84.4224 51.1723 84.1958 51.7057L83.0558 54.5857H81.0758L81.9558 51.4057C81.6224 51.2723 81.3558 51.059 81.1558 50.7657C80.9691 50.459 80.8758 50.1057 80.8758 49.7057C80.8758 49.1323 81.0558 48.6723 81.4158 48.3257C81.7891 47.9657 82.2558 47.7857 82.8158 47.7857ZM91.9363 51.7457C90.7763 51.7457 89.7429 51.459 88.8363 50.8857C87.9296 50.3123 87.2163 49.4857 86.6963 48.4057C86.1896 47.3123 85.9363 46.0123 85.9363 44.5057C85.9363 42.999 86.1896 41.7057 86.6963 40.6257C87.2163 39.5323 87.9296 38.699 88.8363 38.1257C89.7429 37.5523 90.7763 37.2657 91.9363 37.2657C93.0963 37.2657 94.1296 37.5523 95.0363 38.1257C95.9429 38.699 96.6496 39.5323 97.1563 40.6257C97.6763 41.7057 97.9363 42.999 97.9363 44.5057C97.9363 46.0123 97.6763 47.3123 97.1563 48.4057C96.6496 49.4857 95.9429 50.3123 95.0363 50.8857C94.1296 51.459 93.0963 51.7457 91.9363 51.7457ZM91.9363 49.0057C92.7896 49.0057 93.4563 48.639 93.9363 47.9057C94.4296 47.1723 94.6763 46.039 94.6763 44.5057C94.6763 42.9723 94.4296 41.839 93.9363 41.1057C93.4563 40.3723 92.7896 40.0057 91.9363 40.0057C91.0963 40.0057 90.4296 40.3723 89.9363 41.1057C89.4563 41.839 89.2163 42.9723 89.2163 44.5057C89.2163 46.039 89.4563 47.1723 89.9363 47.9057C90.4296 48.639 91.0963 49.0057 91.9363 49.0057ZM105.51 51.7457C104.35 51.7457 103.317 51.459 102.41 50.8857C101.504 50.3123 100.79 49.4857 100.27 48.4057C99.7638 47.3123 99.5105 46.0123 99.5105 44.5057C99.5105 42.999 99.7638 41.7057 100.27 40.6257C100.79 39.5323 101.504 38.699 102.41 38.1257C103.317 37.5523 104.35 37.2657 105.51 37.2657C106.67 37.2657 107.704 37.5523 108.61 38.1257C109.517 38.699 110.224 39.5323 110.73 40.6257C111.25 41.7057 111.51 42.999 111.51 44.5057C111.51 46.0123 111.25 47.3123 110.73 48.4057C110.224 49.4857 109.517 50.3123 108.61 50.8857C107.704 51.459 106.67 51.7457 105.51 51.7457ZM105.51 49.0057C106.364 49.0057 107.03 48.639 107.51 47.9057C108.004 47.1723 108.25 46.039 108.25 44.5057C108.25 42.9723 108.004 41.839 107.51 41.1057C107.03 40.3723 106.364 40.0057 105.51 40.0057C104.67 40.0057 104.004 40.3723 103.51 41.1057C103.03 41.839 102.79 42.9723 102.79 44.5057C102.79 46.039 103.03 47.1723 103.51 47.9057C104.004 48.639 104.67 49.0057 105.51 49.0057ZM119.085 51.7457C117.925 51.7457 116.891 51.459 115.985 50.8857C115.078 50.3123 114.365 49.4857 113.845 48.4057C113.338 47.3123 113.085 46.0123 113.085 44.5057C113.085 42.999 113.338 41.7057 113.845 40.6257C114.365 39.5323 115.078 38.699 115.985 38.1257C116.891 37.5523 117.925 37.2657 119.085 37.2657C120.245 37.2657 121.278 37.5523 122.185 38.1257C123.091 38.699 123.798 39.5323 124.305 40.6257C124.825 41.7057 125.085 42.999 125.085 44.5057C125.085 46.0123 124.825 47.3123 124.305 48.4057C123.798 49.4857 123.091 50.3123 122.185 50.8857C121.278 51.459 120.245 51.7457 119.085 51.7457ZM119.085 49.0057C119.938 49.0057 120.605 48.639 121.085 47.9057C121.578 47.1723 121.825 46.039 121.825 44.5057C121.825 42.9723 121.578 41.839 121.085 41.1057C120.605 40.3723 119.938 40.0057 119.085 40.0057C118.245 40.0057 117.578 40.3723 117.085 41.1057C116.605 41.839 116.365 42.9723 116.365 44.5057C116.365 46.039 116.605 47.1723 117.085 47.9057C117.578 48.639 118.245 49.0057 119.085 49.0057ZM133.203 37.5057H139.563C141.083 37.5057 142.423 37.799 143.583 38.3857C144.756 38.959 145.663 39.7723 146.303 40.8257C146.956 41.879 147.283 43.1057 147.283 44.5057C147.283 45.9057 146.956 47.1323 146.303 48.1857C145.663 49.239 144.756 50.059 143.583 50.6457C142.423 51.219 141.083 51.5057 139.563 51.5057H133.203V37.5057ZM139.403 48.8457C140.803 48.8457 141.916 48.459 142.743 47.6857C143.583 46.899 144.003 45.839 144.003 44.5057C144.003 43.1723 143.583 42.119 142.743 41.3457C141.916 40.559 140.803 40.1657 139.403 40.1657H136.443V48.8457H139.403ZM154.326 51.7457C153.22 51.7457 152.146 51.599 151.106 51.3057C150.08 50.999 149.253 50.6057 148.626 50.1257L149.726 47.6857C150.326 48.1257 151.04 48.479 151.866 48.7457C152.693 49.0123 153.52 49.1457 154.346 49.1457C155.266 49.1457 155.946 49.0123 156.386 48.7457C156.826 48.4657 157.046 48.099 157.046 47.6457C157.046 47.3123 156.913 47.039 156.646 46.8257C156.393 46.599 156.06 46.419 155.646 46.2857C155.246 46.1523 154.7 46.0057 154.006 45.8457C152.94 45.5923 152.066 45.339 151.386 45.0857C150.706 44.8323 150.12 44.4257 149.626 43.8657C149.146 43.3057 148.906 42.559 148.906 41.6257C148.906 40.8123 149.126 40.079 149.566 39.4257C150.006 38.759 150.666 38.2323 151.546 37.8457C152.44 37.459 153.526 37.2657 154.806 37.2657C155.7 37.2657 156.573 37.3723 157.426 37.5857C158.28 37.799 159.026 38.1057 159.666 38.5057L158.666 40.9657C157.373 40.2323 156.08 39.8657 154.786 39.8657C153.88 39.8657 153.206 40.0123 152.766 40.3057C152.34 40.599 152.126 40.9857 152.126 41.4657C152.126 41.9457 152.373 42.3057 152.866 42.5457C153.373 42.7723 154.14 42.999 155.166 43.2257C156.233 43.479 157.106 43.7323 157.786 43.9857C158.466 44.239 159.046 44.639 159.526 45.1857C160.02 45.7323 160.266 46.4723 160.266 47.4057C160.266 48.2057 160.04 48.939 159.586 49.6057C159.146 50.259 158.48 50.779 157.586 51.1657C156.693 51.5523 155.606 51.7457 154.326 51.7457ZM175.22 51.5057L175.2 43.1057L171.08 50.0257H169.62L165.52 43.2857V51.5057H162.48V37.5057H165.16L170.4 46.2057L175.56 37.5057H178.22L178.26 51.5057H175.22Z" fill="#ED6C53"/>
<path d="M41.688 7.41099V18.563H40.232V7.41099H41.688ZM48.4415 9.63499C49.5082 9.63499 50.3722 9.96032 51.0335 10.611C51.6948 11.251 52.0255 12.179 52.0255 13.395V18.563H50.5855V13.603C50.5855 12.7283 50.3668 12.0617 49.9295 11.603C49.4922 11.1337 48.8948 10.899 48.1375 10.899C47.3695 10.899 46.7562 11.139 46.2975 11.619C45.8495 12.099 45.6255 12.7977 45.6255 13.715V18.563H44.1695V9.79499H45.6255V11.043C45.9135 10.595 46.3028 10.2483 46.7935 10.003C47.2948 9.75765 47.8442 9.63499 48.4415 9.63499ZM55.1559 8.37099C54.8785 8.37099 54.6439 8.27499 54.4519 8.08299C54.2599 7.89099 54.1639 7.65632 54.1639 7.37899C54.1639 7.10165 54.2599 6.86699 54.4519 6.67499C54.6439 6.48299 54.8785 6.38699 55.1559 6.38699C55.4225 6.38699 55.6465 6.48299 55.8279 6.67499C56.0199 6.86699 56.1159 7.10165 56.1159 7.37899C56.1159 7.65632 56.0199 7.89099 55.8279 8.08299C55.6465 8.27499 55.4225 8.37099 55.1559 8.37099ZM55.8599 9.79499V18.563H54.4039V9.79499H55.8599ZM60.1174 10.995V16.163C60.1174 16.5897 60.208 16.8937 60.3894 17.075C60.5707 17.2457 60.8854 17.331 61.3334 17.331H62.4054V18.563H61.0934C60.2827 18.563 59.6747 18.3763 59.2694 18.003C58.864 17.6297 58.6614 17.0163 58.6614 16.163V10.995H57.5254V9.79499H58.6614V7.58699H60.1174V9.79499H62.4054V10.995H60.1174ZM64.9215 8.37099C64.6442 8.37099 64.4095 8.27499 64.2175 8.08299C64.0255 7.89099 63.9295 7.65632 63.9295 7.37899C63.9295 7.10165 64.0255 6.86699 64.2175 6.67499C64.4095 6.48299 64.6442 6.38699 64.9215 6.38699C65.1882 6.38699 65.4122 6.48299 65.5935 6.67499C65.7855 6.86699 65.8815 7.10165 65.8815 7.37899C65.8815 7.65632 65.7855 7.89099 65.5935 8.08299C65.4122 8.27499 65.1882 8.37099 64.9215 8.37099ZM65.6255 9.79499V18.563H64.1695V9.79499H65.6255ZM67.563 14.147C67.563 13.251 67.7443 12.467 68.107 11.795C68.4697 11.1123 68.9657 10.5843 69.595 10.211C70.235 9.83765 70.9443 9.65099 71.723 9.65099C72.491 9.65099 73.1577 9.81632 73.723 10.147C74.2883 10.4777 74.7097 10.8937 74.987 11.395V9.79499H76.459V18.563H74.987V16.931C74.699 17.443 74.267 17.8697 73.691 18.211C73.1257 18.5417 72.4643 18.707 71.707 18.707C70.9283 18.707 70.2243 18.515 69.595 18.131C68.9657 17.747 68.4697 17.2083 68.107 16.515C67.7443 15.8217 67.563 15.0323 67.563 14.147ZM74.987 14.163C74.987 13.5017 74.8537 12.9257 74.587 12.435C74.3203 11.9443 73.9577 11.571 73.499 11.315C73.051 11.0483 72.555 10.915 72.011 10.915C71.467 10.915 70.971 11.043 70.523 11.299C70.075 11.555 69.7177 11.9283 69.451 12.419C69.1843 12.9097 69.051 13.4857 69.051 14.147C69.051 14.819 69.1843 15.4057 69.451 15.907C69.7177 16.3977 70.075 16.7763 70.523 17.043C70.971 17.299 71.467 17.427 72.011 17.427C72.555 17.427 73.051 17.299 73.499 17.043C73.9577 16.7763 74.3203 16.3977 74.587 15.907C74.8537 15.4057 74.987 14.8243 74.987 14.163ZM80.3755 6.72299V18.563H78.9195V6.72299H80.3755ZM90.6586 18.675C89.9226 18.675 89.2613 18.547 88.6746 18.291C88.0986 18.0243 87.6453 17.6617 87.3146 17.203C86.984 16.7337 86.8133 16.195 86.8026 15.587H88.3546C88.408 16.1097 88.6213 16.5523 88.9946 16.915C89.3786 17.267 89.9333 17.443 90.6586 17.443C91.352 17.443 91.896 17.2723 92.2906 16.931C92.696 16.579 92.8986 16.131 92.8986 15.587C92.8986 15.1603 92.7813 14.8137 92.5466 14.547C92.312 14.2803 92.0186 14.0777 91.6666 13.939C91.3146 13.8003 90.84 13.651 90.2426 13.491C89.5066 13.299 88.9146 13.107 88.4666 12.915C88.0293 12.723 87.6506 12.4243 87.3306 12.019C87.0213 11.603 86.8666 11.0483 86.8666 10.355C86.8666 9.74699 87.0213 9.20832 87.3306 8.73899C87.64 8.26965 88.072 7.90699 88.6266 7.65099C89.192 7.39499 89.8373 7.26699 90.5626 7.26699C91.608 7.26699 92.4613 7.52832 93.1226 8.05099C93.7946 8.57365 94.1733 9.26699 94.2586 10.131H92.6586C92.6053 9.70432 92.3813 9.33099 91.9866 9.01099C91.592 8.68032 91.0693 8.51499 90.4186 8.51499C89.8106 8.51499 89.3146 8.67499 88.9306 8.99499C88.5466 9.30432 88.3546 9.74165 88.3546 10.307C88.3546 10.7123 88.4666 11.043 88.6906 11.299C88.9253 11.555 89.208 11.7523 89.5386 11.891C89.88 12.019 90.3546 12.1683 90.9626 12.339C91.6986 12.5417 92.2906 12.7443 92.7386 12.947C93.1866 13.139 93.5706 13.443 93.8906 13.859C94.2106 14.2643 94.3706 14.819 94.3706 15.523C94.3706 16.067 94.2266 16.579 93.9386 17.059C93.6506 17.539 93.224 17.9283 92.6586 18.227C92.0933 18.5257 91.4266 18.675 90.6586 18.675ZM104.289 9.79499V18.563H102.833V17.267C102.556 17.715 102.167 18.067 101.665 18.323C101.175 18.5683 100.631 18.691 100.033 18.691C99.3506 18.691 98.7373 18.5523 98.1933 18.275C97.6493 17.987 97.2173 17.5603 96.8973 16.995C96.5879 16.4297 96.4333 15.7417 96.4333 14.931V9.79499H97.8733V14.739C97.8733 15.603 98.0919 16.2697 98.5293 16.739C98.9666 17.1977 99.5639 17.427 100.321 17.427C101.1 17.427 101.713 17.187 102.161 16.707C102.609 16.227 102.833 15.5283 102.833 14.611V9.79499H104.289ZM108.204 11.411C108.492 10.9097 108.918 10.4937 109.484 10.163C110.06 9.82165 110.726 9.65099 111.484 9.65099C112.262 9.65099 112.966 9.83765 113.596 10.211C114.236 10.5843 114.737 11.1123 115.1 11.795C115.462 12.467 115.644 13.251 115.644 14.147C115.644 15.0323 115.462 15.8217 115.1 16.515C114.737 17.2083 114.236 17.747 113.596 18.131C112.966 18.515 112.262 18.707 111.484 18.707C110.737 18.707 110.076 18.5417 109.5 18.211C108.934 17.8697 108.502 17.4483 108.204 16.947V22.723H106.748V9.79499H108.204V11.411ZM114.156 14.147C114.156 13.4857 114.022 12.9097 113.756 12.419C113.489 11.9283 113.126 11.555 112.668 11.299C112.22 11.043 111.724 10.915 111.18 10.915C110.646 10.915 110.15 11.0483 109.692 11.315C109.244 11.571 108.881 11.9497 108.604 12.451C108.337 12.9417 108.204 13.5123 108.204 14.163C108.204 14.8243 108.337 15.4057 108.604 15.907C108.881 16.3977 109.244 16.7763 109.692 17.043C110.15 17.299 110.646 17.427 111.18 17.427C111.724 17.427 112.22 17.299 112.668 17.043C113.126 16.7763 113.489 16.3977 113.756 15.907C114.022 15.4057 114.156 14.819 114.156 14.147ZM119.016 11.411C119.304 10.9097 119.731 10.4937 120.296 10.163C120.872 9.82165 121.539 9.65099 122.296 9.65099C123.075 9.65099 123.779 9.83765 124.408 10.211C125.048 10.5843 125.549 11.1123 125.912 11.795C126.275 12.467 126.456 13.251 126.456 14.147C126.456 15.0323 126.275 15.8217 125.912 16.515C125.549 17.2083 125.048 17.747 124.408 18.131C123.779 18.515 123.075 18.707 122.296 18.707C121.549 18.707 120.888 18.5417 120.312 18.211C119.747 17.8697 119.315 17.4483 119.016 16.947V22.723H117.56V9.79499H119.016V11.411ZM124.968 14.147C124.968 13.4857 124.835 12.9097 124.568 12.419C124.301 11.9283 123.939 11.555 123.48 11.299C123.032 11.043 122.536 10.915 121.992 10.915C121.459 10.915 120.963 11.0483 120.504 11.315C120.056 11.571 119.693 11.9497 119.416 12.451C119.149 12.9417 119.016 13.5123 119.016 14.163C119.016 14.8243 119.149 15.4057 119.416 15.907C119.693 16.3977 120.056 16.7763 120.504 17.043C120.963 17.299 121.459 17.427 121.992 17.427C122.536 17.427 123.032 17.299 123.48 17.043C123.939 16.7763 124.301 16.3977 124.568 15.907C124.835 15.4057 124.968 14.819 124.968 14.147ZM129.829 6.72299V18.563H128.373V6.72299H129.829ZM139.862 9.79499L134.582 22.691H133.078L134.806 18.467L131.27 9.79499H132.886L135.638 16.899L138.358 9.79499H139.862Z" fill="black"/>
</svg>
