<svg width="740" height="64" viewBox="0 0 740 64" fill="none" xmlns="http://www.w3.org/2000/svg">
<mask id="mask0" mask-type="alpha" maskUnits="userSpaceOnUse" x="1" y="9" width="685" height="50">
<path d="M36.855 12.37V21.275H24.765V58H13.65V21.275H1.56V12.37H36.855ZM64.7283 21.34C68.8883 21.34 72.225 22.7267 74.7383 25.5C77.2517 28.23 78.5083 32 78.5083 36.81V58H67.4583V38.305C67.4583 35.8783 66.83 33.9933 65.5733 32.65C64.3167 31.3067 62.6267 30.635 60.5033 30.635C58.38 30.635 56.69 31.3067 55.4333 32.65C54.1767 33.9933 53.5483 35.8783 53.5483 38.305V58H42.4333V9.9H53.5483V26.605C54.675 25.0017 56.2133 23.7233 58.1633 22.77C60.1133 21.8167 62.3017 21.34 64.7283 21.34ZM120.422 39.28C120.422 40.32 120.357 41.4033 120.227 42.53H95.0721C95.2455 44.7833 95.9605 46.5167 97.2171 47.73C98.5171 48.9 100.099 49.485 101.962 49.485C104.735 49.485 106.664 48.315 107.747 45.975H119.577C118.97 48.3583 117.865 50.5033 116.262 52.41C114.702 54.3167 112.73 55.8117 110.347 56.895C107.964 57.9783 105.299 58.52 102.352 58.52C98.7988 58.52 95.6355 57.7617 92.8621 56.245C90.0888 54.7283 87.9221 52.5617 86.3621 49.745C84.8021 46.9283 84.0221 43.635 84.0221 39.865C84.0221 36.095 84.7805 32.8017 86.2971 29.985C87.8571 27.1683 90.0238 25.0017 92.7971 23.485C95.5705 21.9683 98.7555 21.21 102.352 21.21C105.862 21.21 108.982 21.9467 111.712 23.42C114.442 24.8933 116.565 26.995 118.082 29.725C119.642 32.455 120.422 35.64 120.422 39.28ZM109.047 36.355C109.047 34.4483 108.397 32.9317 107.097 31.805C105.797 30.6783 104.172 30.115 102.222 30.115C100.359 30.115 98.7771 30.6567 97.4771 31.74C96.2205 32.8233 95.4405 34.3617 95.1371 36.355H109.047ZM202.85 12.37L190.955 58H177.5L170.22 27.97L162.68 58H149.225L137.655 12.37H149.55L156.115 45.585L164.24 12.37H176.46L184.26 45.585L190.89 12.37H202.85ZM224.935 58.52C221.381 58.52 218.175 57.7617 215.315 56.245C212.498 54.7283 210.266 52.5617 208.62 49.745C207.016 46.9283 206.215 43.635 206.215 39.865C206.215 36.1383 207.038 32.8667 208.685 30.05C210.331 27.19 212.585 25.0017 215.445 23.485C218.305 21.9683 221.511 21.21 225.065 21.21C228.618 21.21 231.825 21.9683 234.685 23.485C237.545 25.0017 239.798 27.19 241.445 30.05C243.091 32.8667 243.915 36.1383 243.915 39.865C243.915 43.5917 243.07 46.885 241.38 49.745C239.733 52.5617 237.458 54.7283 234.555 56.245C231.695 57.7617 228.488 58.52 224.935 58.52ZM224.935 48.9C227.058 48.9 228.856 48.12 230.33 46.56C231.846 45 232.605 42.7683 232.605 39.865C232.605 36.9617 231.868 34.73 230.395 33.17C228.965 31.61 227.188 30.83 225.065 30.83C222.898 30.83 221.1 31.61 219.67 33.17C218.24 34.6867 217.525 36.9183 217.525 39.865C217.525 42.7683 218.218 45 219.605 46.56C221.035 48.12 222.811 48.9 224.935 48.9ZM260.926 27.775C262.226 25.7817 263.851 24.2217 265.801 23.095C267.751 21.925 269.918 21.34 272.301 21.34V33.105H269.246C266.473 33.105 264.393 33.7117 263.006 34.925C261.62 36.095 260.926 38.175 260.926 41.165V58H249.811V21.73H260.926V27.775ZM288.729 9.9V58H277.614V9.9H288.729ZM294.574 39.8C294.574 36.0733 295.267 32.8017 296.654 29.985C298.084 27.1683 300.012 25.0017 302.439 23.485C304.866 21.9683 307.574 21.21 310.564 21.21C312.947 21.21 315.114 21.7083 317.064 22.705C319.057 23.7017 320.617 25.045 321.744 26.735V9.9H332.859V58H321.744V52.8C320.704 54.5333 319.209 55.92 317.259 56.96C315.352 58 313.121 58.52 310.564 58.52C307.574 58.52 304.866 57.7617 302.439 56.245C300.012 54.685 298.084 52.4967 296.654 49.68C295.267 46.82 294.574 43.5267 294.574 39.8ZM321.744 39.865C321.744 37.0917 320.964 34.9033 319.404 33.3C317.887 31.6967 316.024 30.895 313.814 30.895C311.604 30.895 309.719 31.6967 308.159 33.3C306.642 34.86 305.884 37.0267 305.884 39.8C305.884 42.5733 306.642 44.7833 308.159 46.43C309.719 48.0333 311.604 48.835 313.814 48.835C316.024 48.835 317.887 48.0333 319.404 46.43C320.964 44.8267 321.744 42.6383 321.744 39.865ZM343.435 12.37H354.81L347.53 29.79H340.055L343.435 12.37ZM376.095 58.52C372.931 58.52 370.115 57.9783 367.645 56.895C365.175 55.8117 363.225 54.3383 361.795 52.475C360.365 50.5683 359.563 48.445 359.39 46.105H370.375C370.505 47.3617 371.09 48.38 372.13 49.16C373.17 49.94 374.448 50.33 375.965 50.33C377.351 50.33 378.413 50.07 379.15 49.55C379.93 48.9867 380.32 48.2717 380.32 47.405C380.32 46.365 379.778 45.6067 378.695 45.13C377.611 44.61 375.856 44.0467 373.43 43.44C370.83 42.8333 368.663 42.205 366.93 41.555C365.196 40.8617 363.701 39.8 362.445 38.37C361.188 36.8967 360.56 34.925 360.56 32.455C360.56 30.375 361.123 28.49 362.25 26.8C363.42 25.0667 365.11 23.7017 367.32 22.705C369.573 21.7083 372.238 21.21 375.315 21.21C379.865 21.21 383.44 22.3367 386.04 24.59C388.683 26.8433 390.2 29.8333 390.59 33.56H380.32C380.146 32.3033 379.583 31.3067 378.63 30.57C377.72 29.8333 376.506 29.465 374.99 29.465C373.69 29.465 372.693 29.725 372 30.245C371.306 30.7217 370.96 31.3933 370.96 32.26C370.96 33.3 371.501 34.08 372.585 34.6C373.711 35.12 375.445 35.64 377.785 36.16C380.471 36.8533 382.66 37.5467 384.35 38.24C386.04 38.89 387.513 39.9733 388.77 41.49C390.07 42.9633 390.741 44.9567 390.785 47.47C390.785 49.5933 390.178 51.5 388.965 53.19C387.795 54.8367 386.083 56.1367 383.83 57.09C381.62 58.0433 379.041 58.52 376.095 58.52ZM446.134 27.06C446.134 29.7033 445.527 32.13 444.314 34.34C443.101 36.5067 441.237 38.2617 438.724 39.605C436.211 40.9483 433.091 41.62 429.364 41.62H422.474V58H411.359V12.37H429.364C433.004 12.37 436.081 12.9983 438.594 14.255C441.107 15.5117 442.992 17.245 444.249 19.455C445.506 21.665 446.134 24.2 446.134 27.06ZM428.519 32.78C430.642 32.78 432.224 32.2817 433.264 31.285C434.304 30.2883 434.824 28.88 434.824 27.06C434.824 25.24 434.304 23.8317 433.264 22.835C432.224 21.8383 430.642 21.34 428.519 21.34H422.474V32.78H428.519ZM463.036 27.775C464.336 25.7817 465.961 24.2217 467.911 23.095C469.861 21.925 472.027 21.34 474.411 21.34V33.105H471.356C468.582 33.105 466.502 33.7117 465.116 34.925C463.729 36.095 463.036 38.175 463.036 41.165V58H451.921V21.73H463.036V27.775ZM496.233 58.52C492.68 58.52 489.473 57.7617 486.613 56.245C483.797 54.7283 481.565 52.5617 479.918 49.745C478.315 46.9283 477.513 43.635 477.513 39.865C477.513 36.1383 478.337 32.8667 479.983 30.05C481.63 27.19 483.883 25.0017 486.743 23.485C489.603 21.9683 492.81 21.21 496.363 21.21C499.917 21.21 503.123 21.9683 505.983 23.485C508.843 25.0017 511.097 27.19 512.743 30.05C514.39 32.8667 515.213 36.1383 515.213 39.865C515.213 43.5917 514.368 46.885 512.678 49.745C511.032 52.5617 508.757 54.7283 505.853 56.245C502.993 57.7617 499.787 58.52 496.233 58.52ZM496.233 48.9C498.357 48.9 500.155 48.12 501.628 46.56C503.145 45 503.903 42.7683 503.903 39.865C503.903 36.9617 503.167 34.73 501.693 33.17C500.263 31.61 498.487 30.83 496.363 30.83C494.197 30.83 492.398 31.61 490.968 33.17C489.538 34.6867 488.823 36.9183 488.823 39.865C488.823 42.7683 489.517 45 490.903 46.56C492.333 48.12 494.11 48.9 496.233 48.9ZM532.225 26.865C533.265 25.175 534.76 23.81 536.71 22.77C538.66 21.73 540.892 21.21 543.405 21.21C546.395 21.21 549.103 21.9683 551.53 23.485C553.957 25.0017 555.863 27.1683 557.25 29.985C558.68 32.8017 559.395 36.0733 559.395 39.8C559.395 43.5267 558.68 46.82 557.25 49.68C555.863 52.4967 553.957 54.685 551.53 56.245C549.103 57.7617 546.395 58.52 543.405 58.52C540.848 58.52 538.617 58.0217 536.71 57.025C534.803 55.985 533.308 54.62 532.225 52.93V58H521.11V9.9H532.225V26.865ZM548.085 39.8C548.085 37.0267 547.305 34.86 545.745 33.3C544.228 31.6967 542.343 30.895 540.09 30.895C537.88 30.895 535.995 31.6967 534.435 33.3C532.918 34.9033 532.16 37.0917 532.16 39.865C532.16 42.6383 532.918 44.8267 534.435 46.43C535.995 48.0333 537.88 48.835 540.09 48.835C542.3 48.835 544.185 48.0333 545.745 46.43C547.305 44.7833 548.085 42.5733 548.085 39.8ZM576.341 9.9V58H565.226V9.9H576.341ZM618.586 39.28C618.586 40.32 618.521 41.4033 618.391 42.53H593.236C593.41 44.7833 594.125 46.5167 595.381 47.73C596.681 48.9 598.263 49.485 600.126 49.485C602.9 49.485 604.828 48.315 605.911 45.975H617.741C617.135 48.3583 616.03 50.5033 614.426 52.41C612.866 54.3167 610.895 55.8117 608.511 56.895C606.128 57.9783 603.463 58.52 600.516 58.52C596.963 58.52 593.8 57.7617 591.026 56.245C588.253 54.7283 586.086 52.5617 584.526 49.745C582.966 46.9283 582.186 43.635 582.186 39.865C582.186 36.095 582.945 32.8017 584.461 29.985C586.021 27.1683 588.188 25.0017 590.961 23.485C593.735 21.9683 596.92 21.21 600.516 21.21C604.026 21.21 607.146 21.9467 609.876 23.42C612.606 24.8933 614.73 26.995 616.246 29.725C617.806 32.455 618.586 35.64 618.586 39.28ZM607.211 36.355C607.211 34.4483 606.561 32.9317 605.261 31.805C603.961 30.6783 602.336 30.115 600.386 30.115C598.523 30.115 596.941 30.6567 595.641 31.74C594.385 32.8233 593.605 34.3617 593.301 36.355H607.211ZM670.73 21.34C675.237 21.34 678.812 22.705 681.455 25.435C684.142 28.165 685.485 31.9567 685.485 36.81V58H674.435V38.305C674.435 35.965 673.807 34.1667 672.55 32.91C671.337 31.61 669.647 30.96 667.48 30.96C665.313 30.96 663.602 31.61 662.345 32.91C661.132 34.1667 660.525 35.965 660.525 38.305V58H649.475V38.305C649.475 35.965 648.847 34.1667 647.59 32.91C646.377 31.61 644.687 30.96 642.52 30.96C640.353 30.96 638.642 31.61 637.385 32.91C636.172 34.1667 635.565 35.965 635.565 38.305V58H624.45V21.73H635.565V26.28C636.692 24.7633 638.165 23.5717 639.985 22.705C641.805 21.795 643.863 21.34 646.16 21.34C648.89 21.34 651.317 21.925 653.44 23.095C655.607 24.265 657.297 25.9333 658.51 28.1C659.767 26.1067 661.478 24.4817 663.645 23.225C665.812 21.9683 668.173 21.34 670.73 21.34Z" fill="#F90000"/>
</mask>
<g mask="url(#mask0)">
<g filter="url(#filter0_f)">
<path d="M-11 0H765V84H-11V0Z" fill="url(#paint0_angular)"/>
</g>
</g>
<defs>
<filter id="filter0_f" x="-41" y="-30" width="836" height="144" filterUnits="userSpaceOnUse" color-interpolation-filters="sRGB">
<feFlood flood-opacity="0" result="BackgroundImageFix"/>
<feBlend mode="normal" in="SourceGraphic" in2="BackgroundImageFix" result="shape"/>
<feGaussianBlur stdDeviation="15" result="effect1_foregroundBlur"/>
</filter>
<radialGradient id="paint0_angular" cx="0" cy="0" r="1" gradientUnits="userSpaceOnUse" gradientTransform="translate(377 42) rotate(75.1917) scale(89.9889 789.064)">
<stop offset="0.104167" stop-color="#FFA800"/>
<stop offset="0.4375" stop-color="#FF3E9A"/>
<stop offset="0.530448" stop-color="#F45511"/>
<stop offset="0.885417" stop-color="#FFB800"/>
</radialGradient>
</defs>
</svg>
