<svg width="254" height="80" viewBox="0 0 254 80" fill="none" xmlns="http://www.w3.org/2000/svg">
<mask id="mask0" mask-type="alpha" maskUnits="userSpaceOnUse" x="0" y="7" width="193" height="65">
<path d="M18.144 8.536V12.92H12.192V31H6.72V12.92H0.768V8.536H18.144ZM31.8663 12.952C33.9143 12.952 35.5569 13.6347 36.7943 15C38.0316 16.344 38.6503 18.2 38.6503 20.568V31H33.2103V21.304C33.2103 20.1093 32.9009 19.1813 32.2823 18.52C31.6636 17.8587 30.8316 17.528 29.7863 17.528C28.7409 17.528 27.9089 17.8587 27.2903 18.52C26.6716 19.1813 26.3623 20.1093 26.3623 21.304V31H20.8903V7.32H26.3623V15.544C26.9169 14.7547 27.6743 14.1253 28.6343 13.656C29.5943 13.1867 30.6716 12.952 31.8663 12.952ZM59.2847 21.784C59.2847 22.296 59.2528 22.8293 59.1888 23.384H46.8048C46.8901 24.4933 47.2421 25.3467 47.8608 25.944C48.5008 26.52 49.2794 26.808 50.1968 26.808C51.5621 26.808 52.5114 26.232 53.0448 25.08H58.8688C58.5701 26.2533 58.0261 27.3093 57.2368 28.248C56.4688 29.1867 55.4981 29.9227 54.3248 30.456C53.1514 30.9893 51.8394 31.256 50.3888 31.256C48.6394 31.256 47.0821 30.8827 45.7168 30.136C44.3514 29.3893 43.2848 28.3227 42.5168 26.936C41.7488 25.5493 41.3648 23.928 41.3648 22.072C41.3648 20.216 41.7381 18.5947 42.4848 17.208C43.2528 15.8213 44.3194 14.7547 45.6848 14.008C47.0501 13.2613 48.6181 12.888 50.3888 12.888C52.1168 12.888 53.6528 13.2507 54.9968 13.976C56.3408 14.7013 57.3861 15.736 58.1328 17.08C58.9008 18.424 59.2847 19.992 59.2847 21.784ZM53.6848 20.344C53.6848 19.4053 53.3648 18.6587 52.7248 18.104C52.0848 17.5493 51.2848 17.272 50.3248 17.272C49.4074 17.272 48.6288 17.5387 47.9888 18.072C47.3701 18.6053 46.9861 19.3627 46.8368 20.344H53.6848ZM99.8647 8.536L94.0088 31H87.3848L83.8008 16.216L80.0888 31H73.4648L67.7688 8.536H73.6248L76.8568 24.888L80.8568 8.536H86.8728L90.7128 24.888L93.9768 8.536H99.8647ZM110.737 31.256C108.988 31.256 107.409 30.8827 106.001 30.136C104.614 29.3893 103.516 28.3227 102.705 26.936C101.916 25.5493 101.521 23.928 101.521 22.072C101.521 20.2373 101.926 18.6267 102.737 17.24C103.548 15.832 104.657 14.7547 106.065 14.008C107.473 13.2613 109.052 12.888 110.801 12.888C112.55 12.888 114.129 13.2613 115.537 14.008C116.945 14.7547 118.054 15.832 118.865 17.24C119.676 18.6267 120.081 20.2373 120.081 22.072C120.081 23.9067 119.665 25.528 118.833 26.936C118.022 28.3227 116.902 29.3893 115.473 30.136C114.065 30.8827 112.486 31.256 110.737 31.256ZM110.737 26.52C111.782 26.52 112.668 26.136 113.393 25.368C114.14 24.6 114.513 23.5013 114.513 22.072C114.513 20.6427 114.15 19.544 113.425 18.776C112.721 18.008 111.846 17.624 110.801 17.624C109.734 17.624 108.849 18.008 108.145 18.776C107.441 19.5227 107.089 20.6213 107.089 22.072C107.089 23.5013 107.43 24.6 108.113 25.368C108.817 26.136 109.692 26.52 110.737 26.52ZM128.456 16.12C129.096 15.1387 129.896 14.3707 130.856 13.816C131.816 13.24 132.883 12.952 134.056 12.952V18.744H132.552C131.187 18.744 130.163 19.0427 129.48 19.64C128.797 20.216 128.456 21.24 128.456 22.712V31H122.984V13.144H128.456V16.12ZM142.144 7.32V31H136.672V7.32H142.144ZM145.021 22.04C145.021 20.2053 145.362 18.5947 146.045 17.208C146.749 15.8213 147.698 14.7547 148.893 14.008C150.088 13.2613 151.421 12.888 152.893 12.888C154.066 12.888 155.133 13.1333 156.093 13.624C157.074 14.1147 157.842 14.776 158.397 15.608V7.32H163.869V31H158.397V28.44C157.885 29.2933 157.149 29.976 156.189 30.488C155.25 31 154.152 31.256 152.893 31.256C151.421 31.256 150.088 30.8827 148.893 30.136C147.698 29.368 146.749 28.2907 146.045 26.904C145.362 25.496 145.021 23.8747 145.021 22.04ZM158.397 22.072C158.397 20.7067 158.013 19.6293 157.245 18.84C156.498 18.0507 155.581 17.656 154.493 17.656C153.405 17.656 152.477 18.0507 151.709 18.84C150.962 19.608 150.589 20.6747 150.589 22.04C150.589 23.4053 150.962 24.4933 151.709 25.304C152.477 26.0933 153.405 26.488 154.493 26.488C155.581 26.488 156.498 26.0933 157.245 25.304C158.013 24.5147 158.397 23.4373 158.397 22.072ZM169.076 8.536H174.676L171.092 17.112H167.412L169.076 8.536ZM185.154 31.256C183.597 31.256 182.21 30.9893 180.994 30.456C179.778 29.9227 178.818 29.1973 178.114 28.28C177.41 27.3413 177.016 26.296 176.93 25.144H182.338C182.402 25.7627 182.69 26.264 183.202 26.648C183.714 27.032 184.344 27.224 185.09 27.224C185.773 27.224 186.296 27.096 186.658 26.84C187.042 26.5627 187.234 26.2107 187.234 25.784C187.234 25.272 186.968 24.8987 186.434 24.664C185.901 24.408 185.037 24.1307 183.842 23.832C182.562 23.5333 181.496 23.224 180.642 22.904C179.789 22.5627 179.053 22.04 178.434 21.336C177.816 20.6107 177.506 19.64 177.506 18.424C177.506 17.4 177.784 16.472 178.338 15.64C178.914 14.7867 179.746 14.1147 180.834 13.624C181.944 13.1333 183.256 12.888 184.77 12.888C187.01 12.888 188.77 13.4427 190.05 14.552C191.352 15.6613 192.098 17.1333 192.29 18.968H187.234C187.149 18.3493 186.872 17.8587 186.402 17.496C185.954 17.1333 185.357 16.952 184.61 16.952C183.97 16.952 183.48 17.08 183.138 17.336C182.797 17.5707 182.626 17.9013 182.626 18.328C182.626 18.84 182.893 19.224 183.426 19.48C183.981 19.736 184.834 19.992 185.986 20.248C187.309 20.5893 188.386 20.9307 189.218 21.272C190.05 21.592 190.776 22.1253 191.394 22.872C192.034 23.5973 192.365 24.5787 192.386 25.816C192.386 26.8613 192.088 27.8 191.49 28.632C190.914 29.4427 190.072 30.0827 188.962 30.552C187.874 31.0213 186.605 31.256 185.154 31.256ZM19.104 55.768C19.104 57.0693 18.8053 58.264 18.208 59.352C17.6107 60.4187 16.6933 61.2827 15.456 61.944C14.2187 62.6053 12.6827 62.936 10.848 62.936H7.456V71H1.984V48.536H10.848C12.64 48.536 14.1547 48.8453 15.392 49.464C16.6293 50.0827 17.5573 50.936 18.176 52.024C18.7947 53.112 19.104 54.36 19.104 55.768ZM10.432 58.584C11.4773 58.584 12.256 58.3387 12.768 57.848C13.28 57.3573 13.536 56.664 13.536 55.768C13.536 54.872 13.28 54.1787 12.768 53.688C12.256 53.1973 11.4773 52.952 10.432 52.952H7.456V58.584H10.432ZM27.4248 56.12C28.0648 55.1387 28.8648 54.3707 29.8248 53.816C30.7848 53.24 31.8514 52.952 33.0248 52.952V58.744H31.5208C30.1554 58.744 29.1314 59.0427 28.4488 59.64C27.7661 60.216 27.4248 61.24 27.4248 62.712V71H21.9528V53.144H27.4248V56.12ZM43.7683 71.256C42.0189 71.256 40.4403 70.8827 39.0323 70.136C37.6456 69.3893 36.5469 68.3227 35.7363 66.936C34.9469 65.5493 34.5523 63.928 34.5523 62.072C34.5523 60.2373 34.9576 58.6267 35.7682 57.24C36.5789 55.832 37.6883 54.7547 39.0963 54.008C40.5043 53.2613 42.0829 52.888 43.8323 52.888C45.5816 52.888 47.1603 53.2613 48.5683 54.008C49.9763 54.7547 51.0856 55.832 51.8963 57.24C52.7069 58.6267 53.1123 60.2373 53.1123 62.072C53.1123 63.9067 52.6963 65.528 51.8643 66.936C51.0536 68.3227 49.9336 69.3893 48.5043 70.136C47.0963 70.8827 45.5176 71.256 43.7683 71.256ZM43.7683 66.52C44.8136 66.52 45.6989 66.136 46.4243 65.368C47.1709 64.6 47.5443 63.5013 47.5443 62.072C47.5443 60.6427 47.1816 59.544 46.4563 58.776C45.7523 58.008 44.8776 57.624 43.8323 57.624C42.7656 57.624 41.8803 58.008 41.1763 58.776C40.4723 59.5227 40.1203 60.6213 40.1203 62.072C40.1203 63.5013 40.4616 64.6 41.1443 65.368C41.8483 66.136 42.7229 66.52 43.7683 66.52ZM61.4873 55.672C61.9993 54.84 62.7353 54.168 63.6953 53.656C64.6553 53.144 65.7539 52.888 66.9913 52.888C68.4633 52.888 69.7966 53.2613 70.9913 54.008C72.1859 54.7547 73.1246 55.8213 73.8073 57.208C74.5113 58.5947 74.8633 60.2053 74.8633 62.04C74.8633 63.8747 74.5113 65.496 73.8073 66.904C73.1246 68.2907 72.1859 69.368 70.9913 70.136C69.7966 70.8827 68.4633 71.256 66.9913 71.256C65.7326 71.256 64.6339 71.0107 63.6953 70.52C62.7566 70.008 62.0206 69.336 61.4873 68.504V71H56.0153V47.32H61.4873V55.672ZM69.2953 62.04C69.2953 60.6747 68.9113 59.608 68.1433 58.84C67.3966 58.0507 66.4686 57.656 65.3593 57.656C64.2713 57.656 63.3433 58.0507 62.5753 58.84C61.8286 59.6293 61.4553 60.7067 61.4553 62.072C61.4553 63.4373 61.8286 64.5147 62.5753 65.304C63.3433 66.0933 64.2713 66.488 65.3593 66.488C66.4473 66.488 67.3753 66.0933 68.1433 65.304C68.9113 64.4933 69.2953 63.4053 69.2953 62.04ZM83.206 47.32V71H77.734V47.32H83.206ZM104.003 61.784C104.003 62.296 103.972 62.8293 103.908 63.384H91.5235C91.6088 64.4933 91.9608 65.3467 92.5795 65.944C93.2195 66.52 93.9982 66.808 94.9155 66.808C96.2808 66.808 97.2302 66.232 97.7635 65.08H103.588C103.289 66.2533 102.745 67.3093 101.956 68.248C101.188 69.1867 100.217 69.9227 99.0435 70.456C97.8702 70.9893 96.5582 71.256 95.1075 71.256C93.3582 71.256 91.8008 70.8827 90.4355 70.136C89.0702 69.3893 88.0035 68.3227 87.2355 66.936C86.4675 65.5493 86.0835 63.928 86.0835 62.072C86.0835 60.216 86.4568 58.5947 87.2035 57.208C87.9715 55.8213 89.0382 54.7547 90.4035 54.008C91.7688 53.2613 93.3368 52.888 95.1075 52.888C96.8355 52.888 98.3715 53.2507 99.7155 53.976C101.06 54.7013 102.105 55.736 102.852 57.08C103.62 58.424 104.003 59.992 104.003 61.784ZM98.4035 60.344C98.4035 59.4053 98.0835 58.6587 97.4435 58.104C96.8035 57.5493 96.0035 57.272 95.0435 57.272C94.1262 57.272 93.3475 57.5387 92.7075 58.072C92.0888 58.6053 91.7048 59.3627 91.5555 60.344H98.4035ZM129.674 52.952C131.893 52.952 133.653 53.624 134.954 54.968C136.277 56.312 136.938 58.1787 136.938 60.568V71H131.498V61.304C131.498 60.152 131.189 59.2667 130.57 58.648C129.973 58.008 129.141 57.688 128.074 57.688C127.008 57.688 126.165 58.008 125.546 58.648C124.949 59.2667 124.65 60.152 124.65 61.304V71H119.21V61.304C119.21 60.152 118.901 59.2667 118.282 58.648C117.685 58.008 116.853 57.688 115.786 57.688C114.72 57.688 113.877 58.008 113.258 58.648C112.661 59.2667 112.362 60.152 112.362 61.304V71H106.89V53.144H112.362V55.384C112.917 54.6373 113.642 54.0507 114.538 53.624C115.434 53.176 116.448 52.952 117.578 52.952C118.922 52.952 120.117 53.24 121.162 53.816C122.229 54.392 123.061 55.2133 123.658 56.28C124.277 55.2987 125.12 54.4987 126.186 53.88C127.253 53.2613 128.416 52.952 129.674 52.952Z" fill="#F90000"/>
</mask>
<g mask="url(#mask0)">
<g filter="url(#filter0_f)">
<path d="M-11 -13H251V96H-11V-13Z" fill="url(#paint0_angular)"/>
</g>
</g>
<defs>
<filter id="filter0_f" x="-41" y="-43" width="322" height="169" filterUnits="userSpaceOnUse" color-interpolation-filters="sRGB">
<feFlood flood-opacity="0" result="BackgroundImageFix"/>
<feBlend mode="normal" in="SourceGraphic" in2="BackgroundImageFix" result="shape"/>
<feGaussianBlur stdDeviation="15" result="effect1_foregroundBlur"/>
</filter>
<radialGradient id="paint0_angular" cx="0" cy="0" r="1" gradientUnits="userSpaceOnUse" gradientTransform="translate(120 41.5) rotate(86.0651) scale(113.16 274.914)">
<stop offset="0.104167" stop-color="#FFA800"/>
<stop offset="0.4375" stop-color="#FF3E9A"/>
<stop offset="0.530448" stop-color="#F45511"/>
<stop offset="0.885417" stop-color="#FFB800"/>
</radialGradient>
</defs>
</svg>
