<svg width="28" height="28" viewBox="0 0 28 28" fill="none" xmlns="http://www.w3.org/2000/svg">
<circle cx="14" cy="14" r="14" fill="#1D1141"/>
<path d="M22.5359 8.31741C22.3545 7.63058 21.7714 6.94376 20.7217 6.17918C19.8793 5.57011 18.9852 5.22021 18.2724 5.22021C18.1299 5.22021 18.0003 5.23317 17.8707 5.25909C17.5467 5.32389 17.2616 5.55715 17.0802 5.90704C16.8599 6.32173 16.8081 6.87896 16.9506 7.2159C17.0025 7.31957 17.0673 7.44916 17.145 7.56579C16.4582 7.98047 16.0694 8.0971 16.0176 8.11006C17.8059 8.70618 19.2962 9.95024 20.2292 11.5701L20.2422 11.4146C20.2811 10.987 20.4107 10.4945 20.5921 9.98911C20.7735 10.0409 20.9549 10.0669 21.1364 10.0669C21.6159 10.0669 22.0305 9.87248 22.2897 9.52259C22.5489 9.1727 22.6526 8.70618 22.5359 8.31741Z" fill="#5E12A0"/>
<path d="M20.6698 9.61351C21.8491 9.93748 22.3285 9.03036 22.173 8.42129C22.0046 7.81222 21.4603 7.19018 20.5013 6.4904C19.5424 5.79062 18.5704 5.50552 17.9484 5.63511C17.3264 5.7647 17.145 6.7107 17.3005 7.07355C17.3653 7.2161 17.5078 7.42345 17.7022 7.65671C17.456 7.82517 17.2227 7.95476 17.0283 8.07139C18.2205 8.60271 19.2573 9.43208 20.0348 10.4688C20.1255 10.1189 20.2551 9.80789 20.3717 9.53576C20.4624 9.54872 20.5661 9.57463 20.6698 9.61351Z" fill="url(#paint0_radial_1962_26470)"/>
<path d="M13.9179 22.3133C17.9187 22.3133 21.1619 19.07 21.1619 15.0693C21.1619 11.0685 17.9187 7.8252 13.9179 7.8252C9.9171 7.8252 6.67383 11.0685 6.67383 15.0693C6.67383 19.07 9.9171 22.3133 13.9179 22.3133Z" fill="url(#paint1_radial_1962_26470)"/>
<path opacity="0.6" d="M21.5765 7.82503C20.5916 6.78832 19.7623 6.51618 18.7644 6.29588C17.9869 6.11445 18.1942 5.67385 19.1402 5.76456C18.6867 5.60905 18.259 5.57017 17.948 5.63497C17.326 5.76456 17.1446 6.71056 17.3001 7.07341C17.3649 7.21596 17.5074 7.42331 17.7018 7.65657C17.3519 7.88983 17.0538 8.0583 16.8076 8.18788C16.9242 8.23972 17.0668 8.30451 17.2353 8.39523C17.6759 8.62849 18.1553 9.01726 18.1553 9.01726C17.4296 8.39523 17.5852 8.11013 18.583 7.41035C18.894 7.19004 19.4642 7.21596 19.9955 7.4881C20.5268 7.76024 21.1489 8.44706 21.1489 8.44706L20.5528 9.58745C20.5916 9.60041 20.6305 9.61337 20.6694 9.62633C21.0452 9.73 21.3433 9.70408 21.5765 9.61337C21.8487 9.4449 22.5614 8.87471 21.5765 7.82503Z" fill="#A98698"/>
<path d="M18.7518 6.91784C19.011 7.02151 19.3479 7.20294 19.7626 7.47508C20.255 7.79905 20.6827 8.1619 20.9548 8.447C20.5012 9.04311 20.2032 9.85953 20.0218 10.4297C20.1125 10.5593 20.2161 10.6889 20.3068 10.8185C20.3976 10.4945 20.5531 10.015 20.7604 9.53555C20.8122 9.54851 20.877 9.54851 20.9418 9.54851C21.0973 9.54851 21.2788 9.52259 21.4213 9.40596C21.525 9.32821 21.6416 9.18566 21.6287 8.92648C21.6287 8.68026 21.4343 8.36925 21.0326 7.99344C20.7475 7.7213 20.3587 7.42324 19.9699 7.1511C18.8554 6.41244 18.0779 6.2051 17.728 6.55499C17.4948 6.78825 17.5207 7.07335 17.5984 7.28069C17.1837 7.55283 16.8338 7.74721 16.6006 7.8768C16.7561 7.92864 16.8986 7.99344 17.0541 8.05823C17.4688 7.83793 18.0649 7.46212 18.7518 6.91784ZM21.201 8.77097C21.2399 8.83577 21.2529 8.90056 21.2529 8.93944C21.2529 9.05607 21.214 9.09495 21.1881 9.12086C21.1362 9.15974 21.0326 9.18566 20.9418 9.18566C21.0196 9.03015 21.1103 8.90056 21.201 8.77097ZM18.0002 6.84009C18.039 6.80121 18.1427 6.77529 18.3112 6.80121C18.1816 6.90488 18.052 6.9956 17.9224 7.08631C17.9094 6.9956 17.9224 6.90488 18.0002 6.84009Z" fill="#5E12A0"/>
<path d="M13.9178 7.39746C9.68022 7.39746 6.24609 10.8316 6.24609 15.0692C6.24609 19.3067 9.68022 22.7409 13.9178 22.7409C18.1554 22.7409 21.5895 19.3067 21.5895 15.0692C21.5895 10.8316 18.1424 7.39746 13.9178 7.39746ZM13.9178 22.3132C9.91348 22.3132 6.67374 19.0735 6.67374 15.0692C6.67374 11.0648 9.91348 7.82511 13.9178 7.82511C17.9221 7.82511 21.1619 11.0648 21.1619 15.0692C21.1619 19.0735 17.9092 22.3132 13.9178 22.3132Z" fill="#5E12A0"/>
<path opacity="0.6" d="M13.9179 22.3133C17.9187 22.3133 21.1619 19.07 21.1619 15.0693C21.1619 11.0685 17.9187 7.8252 13.9179 7.8252C9.9171 7.8252 6.67383 11.0685 6.67383 15.0693C6.67383 19.07 9.9171 22.3133 13.9179 22.3133Z" fill="url(#paint2_linear_1962_26470)"/>
<path opacity="0.6" d="M13.8664 21.4318C9.91395 20.7969 7.23144 17.0776 7.87939 13.1251C8.16449 11.3757 9.0457 9.88541 10.2898 8.80981C8.4755 9.85949 7.12777 11.6867 6.76492 13.9156C6.12993 17.8681 8.81244 21.5874 12.752 22.2223C14.955 22.5852 17.0803 21.8984 18.6483 20.5506C17.2617 21.3541 15.577 21.704 13.8664 21.4318Z" fill="#A98698"/>
<path opacity="0.6" d="M15.0713 7.92872C13.2441 7.63066 11.4687 8.04535 10.0173 8.96544C9.99136 8.99136 9.96545 9.01727 9.96545 9.01727C10.5227 8.68034 11.3391 8.38228 11.3391 8.38228C9.23974 9.60043 8.5918 10.987 8.5918 10.987C9.40821 9.40604 11.8056 8.29157 13.6847 8.21382C15.5637 8.13606 16.7948 8.6933 18.2981 9.89848C19.8013 11.1166 20.7084 13.6047 20.6177 15.5745C20.54 17.5443 19.5032 19.1382 19.5032 19.1382C20.216 18.2181 20.6436 17.5443 20.9158 16.8574C20.9676 16.6501 21.0194 16.4428 21.0454 16.2225C21.6933 12.2829 19.0238 8.56371 15.0713 7.92872Z" fill="url(#paint3_linear_1962_26470)"/>
<path d="M20.7988 15.0042C20.7988 18.8011 17.7146 21.8854 13.9176 21.8854C10.1206 21.8854 7.02344 18.8011 7.02344 15.0042H20.7988Z" fill="url(#paint4_linear_1962_26470)"/>
<g opacity="0.6">
<path opacity="0.6" d="M20.2546 15.0042C20.2546 18.7104 17.3259 21.7428 13.6455 21.8854C13.7362 21.8854 13.8269 21.8854 13.9176 21.8854C17.7146 21.8854 20.7989 18.8011 20.7989 15.0042H20.2546Z" fill="url(#paint5_linear_1962_26470)"/>
</g>
<g opacity="0.7">
<path opacity="0.7" d="M7.99536 15.0042H7.02344C7.02344 18.8011 10.1077 21.8854 13.9046 21.8854C14.0731 21.8854 14.2286 21.8854 14.3841 21.8724C10.8204 21.6132 7.99536 18.6327 7.99536 15.0042Z" fill="url(#paint6_linear_1962_26470)"/>
</g>
<path d="M20.7859 15.069C20.7859 14.2786 19.4122 13.825 17.585 13.6695C16.2632 13.5658 14.9284 13.6954 13.3992 14.1619C12.0774 14.5507 10.8852 14.4859 10.017 14.3822C8.08607 14.1619 7.02344 14.136 7.02344 15.069C7.02344 16.4168 9.77074 18.1014 13.8917 17.5183C15.9781 17.2202 17.0537 16.6112 18.2848 16.1965C19.6195 15.7559 20.7859 15.7688 20.7859 15.069Z" fill="url(#paint7_linear_1962_26470)"/>
<path d="M16.1731 11.8036C16.8173 11.8036 17.3394 11.2814 17.3394 10.6373C17.3394 9.99312 16.8173 9.47095 16.1731 9.47095C15.529 9.47095 15.0068 9.99312 15.0068 10.6373C15.0068 11.2814 15.529 11.8036 16.1731 11.8036Z" fill="white"/>
<path d="M18.0774 12.6716C18.3494 12.6716 18.5698 12.4512 18.5698 12.1792C18.5698 11.9072 18.3494 11.6868 18.0774 11.6868C17.8054 11.6868 17.585 11.9072 17.585 12.1792C17.585 12.4512 17.8054 12.6716 18.0774 12.6716Z" fill="white"/>
<g opacity="0.6">
<path opacity="0.6" d="M19.8398 9.70403C19.8269 9.70403 19.8139 9.70403 19.8139 9.70403C19.7362 9.69107 19.6843 9.61332 19.6973 9.52261C19.8139 8.92649 20.3064 8.3563 20.3323 8.33038C20.3841 8.26559 20.4878 8.26559 20.5396 8.31742C20.6044 8.36926 20.6044 8.47293 20.5526 8.52476C20.5396 8.53772 20.0861 9.06904 19.9824 9.5874C19.9694 9.66515 19.9046 9.70403 19.8398 9.70403Z" fill="url(#paint8_linear_1962_26470)"/>
</g>
<path d="M18.2721 5.2203C18.9978 5.2203 19.892 5.5702 20.7214 6.17927C21.7711 6.94385 22.3542 7.61771 22.5356 8.3175C22.6393 8.71922 22.5486 9.17279 22.2894 9.50972C22.0173 9.85961 21.6156 10.054 21.1361 10.054C20.9676 10.054 20.7862 10.0281 20.5918 9.97624C20.4752 10.2743 20.3844 10.5724 20.3197 10.8575C21.1102 12.0626 21.5767 13.514 21.5767 15.0691C21.5767 19.3067 18.1425 22.7408 13.905 22.7408C9.66739 22.7408 6.24622 19.3067 6.24622 15.0691C6.24622 10.8315 9.68035 7.39741 13.9179 7.39741C14.851 7.39741 15.7451 7.56587 16.5745 7.87689C16.73 7.79914 16.9244 7.69546 17.1447 7.56587C17.067 7.44924 16.9892 7.33261 16.9503 7.21598C16.8078 6.86609 16.8596 6.32181 17.0799 5.90713C17.2613 5.57019 17.5335 5.33693 17.8704 5.25918C17.987 5.23326 18.1296 5.2203 18.2721 5.2203ZM18.2721 5C18.1166 5 17.9611 5.01296 17.8186 5.05184C17.4298 5.14255 17.0929 5.40173 16.8726 5.81642C16.6264 6.2959 16.5616 6.91793 16.73 7.31966C16.7559 7.37149 16.7819 7.43629 16.8207 7.50108C16.73 7.55292 16.6393 7.60475 16.5486 7.64363C15.6933 7.34557 14.8121 7.19006 13.905 7.19006C12.8423 7.19006 11.8056 7.39741 10.8337 7.81209C9.88769 8.21382 9.04536 8.78402 8.31965 9.50972C7.59395 10.2354 7.02376 11.0778 6.62203 12.0238C6.20734 12.9957 6 14.0324 6 15.095C6 16.1577 6.20734 17.1944 6.62203 18.1663C7.02376 19.1123 7.59395 19.9546 8.31965 20.6803C9.04536 21.406 9.88769 21.9762 10.8337 22.378C11.8056 22.7927 12.8423 23 13.905 23C14.9676 23 16.0043 22.7927 16.9762 22.378C17.9222 21.9762 18.7646 21.406 19.4903 20.6803C20.216 19.9546 20.7862 19.1123 21.1879 18.1663C21.6026 17.1944 21.8099 16.1577 21.8099 15.095C21.8099 13.5788 21.3823 12.1145 20.5659 10.8445C20.6048 10.6501 20.6695 10.4557 20.7343 10.2613C20.8639 10.2873 21.0065 10.3002 21.1361 10.3002C21.6803 10.3002 22.1598 10.0799 22.4708 9.66523C22.7689 9.27646 22.8855 8.73218 22.7559 8.27862C22.5486 7.527 21.9525 6.81425 20.851 6.02376C19.9827 5.36285 19.0367 5 18.2721 5Z" fill="white"/>
<path opacity="0.2" d="M13.439 20.473C13.6394 20.473 13.8019 20.3106 13.8019 20.1102C13.8019 19.9098 13.6394 19.7473 13.439 19.7473C13.2386 19.7473 13.0762 19.9098 13.0762 20.1102C13.0762 20.3106 13.2386 20.473 13.439 20.473Z" fill="white"/>
<g opacity="0.4">
<path opacity="0.6" d="M13.231 20.3434C13.0885 20.2009 13.0885 19.9676 13.231 19.825C13.2569 19.7991 13.2828 19.7862 13.3088 19.7603C13.2569 19.7732 13.2181 19.7991 13.1792 19.838C13.0366 19.9806 13.0366 20.2138 13.1792 20.3564C13.2958 20.473 13.4772 20.4989 13.6198 20.4212C13.4902 20.473 13.3347 20.4471 13.231 20.3434Z" fill="url(#paint9_linear_1962_26470)"/>
</g>
<path opacity="0.3" d="M13.568 20.0066C13.6109 20.0066 13.6457 19.9718 13.6457 19.9288C13.6457 19.8859 13.6109 19.8511 13.568 19.8511C13.525 19.8511 13.4902 19.8859 13.4902 19.9288C13.4902 19.9718 13.525 20.0066 13.568 20.0066Z" fill="white"/>
<path opacity="0.2" d="M15.3306 20.2916C15.531 20.2916 15.6935 20.1292 15.6935 19.9288C15.6935 19.7284 15.531 19.5659 15.3306 19.5659C15.1302 19.5659 14.9678 19.7284 14.9678 19.9288C14.9678 20.1292 15.1302 20.2916 15.3306 20.2916Z" fill="white"/>
<g opacity="0.4">
<path opacity="0.6" d="M15.1226 20.162C14.9801 20.0195 14.9801 19.7862 15.1226 19.6437C15.1485 19.6177 15.1745 19.6048 15.2004 19.5789C15.1485 19.5918 15.1097 19.6177 15.0708 19.6566C14.9282 19.7992 14.9282 20.0324 15.0708 20.175C15.1874 20.2916 15.3688 20.3175 15.5114 20.2398C15.3818 20.2916 15.2263 20.2657 15.1226 20.162Z" fill="url(#paint10_linear_1962_26470)"/>
</g>
<path opacity="0.3" d="M15.4596 19.8249C15.5025 19.8249 15.5373 19.7901 15.5373 19.7472C15.5373 19.7042 15.5025 19.6694 15.4596 19.6694C15.4166 19.6694 15.3818 19.7042 15.3818 19.7472C15.3818 19.7901 15.4166 19.8249 15.4596 19.8249Z" fill="white"/>
<path opacity="0.2" d="M14.3971 21.1339C14.5474 21.1339 14.6693 21.012 14.6693 20.8617C14.6693 20.7114 14.5474 20.5896 14.3971 20.5896C14.2468 20.5896 14.125 20.7114 14.125 20.8617C14.125 21.012 14.2468 21.1339 14.3971 21.1339Z" fill="white"/>
<g opacity="0.4">
<path opacity="0.6" d="M14.2416 21.0302C14.138 20.9265 14.138 20.7451 14.2416 20.6414C14.2546 20.6285 14.2805 20.6155 14.2935 20.6025C14.2546 20.6155 14.2287 20.6414 14.2028 20.6673C14.0991 20.771 14.0991 20.9524 14.2028 21.0561C14.2935 21.1468 14.4231 21.1598 14.5397 21.095C14.436 21.1339 14.3194 21.1079 14.2416 21.0302Z" fill="url(#paint11_linear_1962_26470)"/>
</g>
<path opacity="0.3" d="M14.4874 20.7712C14.516 20.7712 14.5392 20.7479 14.5392 20.7193C14.5392 20.6907 14.516 20.6675 14.4874 20.6675C14.4588 20.6675 14.4355 20.6907 14.4355 20.7193C14.4355 20.7479 14.4588 20.7712 14.4874 20.7712Z" fill="white"/>
<path opacity="0.2" d="M16.069 20.9395C16.2193 20.9395 16.3412 20.8177 16.3412 20.6674C16.3412 20.5171 16.2193 20.3953 16.069 20.3953C15.9187 20.3953 15.7969 20.5171 15.7969 20.6674C15.7969 20.8177 15.9187 20.9395 16.069 20.9395Z" fill="white"/>
<g opacity="0.4">
<path opacity="0.6" d="M15.9135 20.8358C15.8098 20.7322 15.8098 20.5508 15.9135 20.4471C15.9265 20.4341 15.9524 20.4212 15.9653 20.4082C15.9265 20.4212 15.9005 20.4471 15.8746 20.473C15.771 20.5767 15.771 20.7581 15.8746 20.8618C15.9653 20.9525 16.0949 20.9654 16.2116 20.9006C16.1079 20.9395 15.9913 20.9136 15.9135 20.8358Z" fill="url(#paint12_linear_1962_26470)"/>
</g>
<path opacity="0.3" d="M16.1593 20.5766C16.1879 20.5766 16.2111 20.5534 16.2111 20.5247C16.2111 20.4961 16.1879 20.4729 16.1593 20.4729C16.1306 20.4729 16.1074 20.4961 16.1074 20.5247C16.1074 20.5534 16.1306 20.5766 16.1593 20.5766Z" fill="white"/>
<path opacity="0.2" d="M11.8959 20.3433C12.2251 20.3433 12.492 20.0765 12.492 19.7472C12.492 19.418 12.2251 19.1511 11.8959 19.1511C11.5667 19.1511 11.2998 19.418 11.2998 19.7472C11.2998 20.0765 11.5667 20.3433 11.8959 20.3433Z" fill="white"/>
<g opacity="0.4">
<path opacity="0.6" d="M11.5593 20.123C11.3261 19.8897 11.3261 19.5139 11.5593 19.2807C11.5982 19.2418 11.6371 19.2159 11.6889 19.1899C11.6112 19.2159 11.5464 19.2677 11.4816 19.3195C11.2483 19.5528 11.2483 19.9286 11.4816 20.1619C11.676 20.3562 11.974 20.3951 12.2073 20.2526C11.987 20.3433 11.7278 20.3044 11.5593 20.123Z" fill="url(#paint13_linear_1962_26470)"/>
</g>
<path opacity="0.3" d="M12.1032 19.5658C12.1748 19.5658 12.2328 19.5078 12.2328 19.4362C12.2328 19.3647 12.1748 19.3066 12.1032 19.3066C12.0317 19.3066 11.9736 19.3647 11.9736 19.4362C11.9736 19.5078 12.0317 19.5658 12.1032 19.5658Z" fill="white"/>
<path opacity="0.2" d="M17.2231 18.879C17.5523 18.879 17.8192 18.6121 17.8192 18.2829C17.8192 17.9537 17.5523 17.6868 17.2231 17.6868C16.8938 17.6868 16.627 17.9537 16.627 18.2829C16.627 18.6121 16.8938 18.879 17.2231 18.879Z" fill="white"/>
<g opacity="0.4">
<path opacity="0.6" d="M16.8728 18.6586C16.6396 18.4254 16.6396 18.0496 16.8728 17.8163C16.9117 17.7774 16.9506 17.7515 17.0024 17.7256C16.9247 17.7515 16.8599 17.8033 16.7951 17.8552C16.5618 18.0884 16.5618 18.4642 16.7951 18.6975C16.9894 18.8919 17.2875 18.9308 17.5208 18.7882C17.3005 18.8789 17.0542 18.8401 16.8728 18.6586Z" fill="url(#paint14_linear_1962_26470)"/>
</g>
<path opacity="0.3" d="M17.4304 18.1015C17.5019 18.1015 17.56 18.0434 17.56 17.9719C17.56 17.9003 17.5019 17.8423 17.4304 17.8423C17.3588 17.8423 17.3008 17.9003 17.3008 17.9719C17.3008 18.0434 17.3588 18.1015 17.4304 18.1015Z" fill="white"/>
<defs>
<radialGradient id="paint0_radial_1962_26470" cx="0" cy="0" r="1" gradientUnits="userSpaceOnUse" gradientTransform="translate(21.9367 7.60486) scale(5.79193)">
<stop stop-color="#FFEAFF" stop-opacity="0.6"/>
<stop offset="0.6807" stop-color="#A087C9"/>
<stop offset="1" stop-color="#10002F"/>
</radialGradient>
<radialGradient id="paint1_radial_1962_26470" cx="0" cy="0" r="1" gradientUnits="userSpaceOnUse" gradientTransform="translate(18.7141 10.0751) scale(14.1708)">
<stop stop-color="#FFEAFF" stop-opacity="0.6"/>
<stop offset="0.6807" stop-color="#A087C9"/>
<stop offset="1" stop-color="#10002F"/>
</radialGradient>
<linearGradient id="paint2_linear_1962_26470" x1="12.7559" y1="22.2106" x2="15.0729" y2="7.91595" gradientUnits="userSpaceOnUse">
<stop stop-color="#81FFFF"/>
<stop offset="0.6202" stop-color="white" stop-opacity="0"/>
</linearGradient>
<linearGradient id="paint3_linear_1962_26470" x1="19.0231" y1="10.1494" x2="13.033" y2="15.6456" gradientUnits="userSpaceOnUse">
<stop offset="0.2888" stop-color="white"/>
<stop offset="0.7796" stop-color="white" stop-opacity="0"/>
</linearGradient>
<linearGradient id="paint4_linear_1962_26470" x1="7.02927" y1="18.4407" x2="20.7955" y2="18.4407" gradientUnits="userSpaceOnUse">
<stop stop-color="#0002E9"/>
<stop offset="0.9952" stop-color="#FF00C7"/>
</linearGradient>
<linearGradient id="paint5_linear_1962_26470" x1="21.4472" y1="15.608" x2="13.9543" y2="22.6892" gradientUnits="userSpaceOnUse">
<stop offset="0.2888" stop-color="white"/>
<stop offset="0.7796" stop-color="white" stop-opacity="0"/>
</linearGradient>
<linearGradient id="paint6_linear_1962_26470" x1="7.02927" y1="18.4407" x2="14.3941" y2="18.4407" gradientUnits="userSpaceOnUse">
<stop stop-color="#000292"/>
<stop offset="0.9952" stop-color="#7D00C7"/>
</linearGradient>
<linearGradient id="paint7_linear_1962_26470" x1="7.03851" y1="15.6407" x2="20.7862" y2="15.6407" gradientUnits="userSpaceOnUse">
<stop stop-color="#000292"/>
<stop offset="0.9952" stop-color="#BE00C7"/>
</linearGradient>
<linearGradient id="paint8_linear_1962_26470" x1="20.5607" y1="8.26727" x2="19.5726" y2="9.87289" gradientUnits="userSpaceOnUse">
<stop offset="0.2888" stop-color="white"/>
<stop offset="0.7796" stop-color="white" stop-opacity="0"/>
</linearGradient>
<linearGradient id="paint9_linear_1962_26470" x1="13.0719" y1="20.1213" x2="13.6202" y2="20.1213" gradientUnits="userSpaceOnUse">
<stop offset="0.2888" stop-color="white"/>
<stop offset="0.7796" stop-color="white" stop-opacity="0"/>
</linearGradient>
<linearGradient id="paint10_linear_1962_26470" x1="14.9622" y1="19.9374" x2="15.5105" y2="19.9374" gradientUnits="userSpaceOnUse">
<stop offset="0.2888" stop-color="white"/>
<stop offset="0.7796" stop-color="white" stop-opacity="0"/>
</linearGradient>
<linearGradient id="paint11_linear_1962_26470" x1="14.1233" y1="20.8648" x2="14.5349" y2="20.8648" gradientUnits="userSpaceOnUse">
<stop offset="0.2888" stop-color="white"/>
<stop offset="0.7796" stop-color="white" stop-opacity="0"/>
</linearGradient>
<linearGradient id="paint12_linear_1962_26470" x1="15.7896" y1="20.67" x2="16.2012" y2="20.67" gradientUnits="userSpaceOnUse">
<stop offset="0.2888" stop-color="white"/>
<stop offset="0.7796" stop-color="white" stop-opacity="0"/>
</linearGradient>
<linearGradient id="paint13_linear_1962_26470" x1="11.3007" y1="19.7624" x2="12.1961" y2="19.7624" gradientUnits="userSpaceOnUse">
<stop offset="0.2888" stop-color="white"/>
<stop offset="0.7796" stop-color="white" stop-opacity="0"/>
</linearGradient>
<linearGradient id="paint14_linear_1962_26470" x1="16.6191" y1="18.2976" x2="17.5145" y2="18.2976" gradientUnits="userSpaceOnUse">
<stop offset="0.2888" stop-color="white"/>
<stop offset="0.7796" stop-color="white" stop-opacity="0"/>
</linearGradient>
</defs>
</svg>
