<svg viewBox="0 0 200 268" fill="none" xmlns="http://www.w3.org/2000/svg">
<path d="M69.9503 159.288C69.4582 164.649 70.2902 170.631 73.6446 173.299C77.0561 175.3 83.6057 169.113 85.9304 167.226C92.1782 162.156 87.4863 154.979 79.8514 152.67C69.6718 149.592 70.0791 157.885 69.9503 159.288Z" fill="white" fill-opacity="0.5"/>
<path d="M77.5788 154.346C73.2288 152.421 66.4261 153.903 64.2587 155.859C61.9249 159.181 66.6767 167.319 68.2111 169.969C71.5481 175.732 77.2411 175.999 79.9995 168.738C84.4492 157.026 79.0345 154.99 77.5788 154.346Z" fill="white" fill-opacity="0.3"/>
<path d="M71.5257 162.6V160.794H74.8997V171H72.8837V162.6H71.5257ZM76.752 169.012V167.472L81.33 160.92H83.612V167.304H84.844V169.012H83.612V171H81.652V169.012H76.752ZM81.778 163.02L78.908 167.304H81.778V163.02ZM87.1839 171.098C86.8292 171.098 86.5352 170.991 86.3019 170.776C86.0779 170.552 85.9659 170.277 85.9659 169.95C85.9659 169.623 86.0779 169.353 86.3019 169.138C86.5352 168.914 86.8292 168.802 87.1839 168.802C87.5292 168.802 87.8139 168.914 88.0379 169.138C88.2619 169.353 88.3739 169.623 88.3739 169.95C88.3739 170.277 88.2619 170.552 88.0379 170.776C87.8139 170.991 87.5292 171.098 87.1839 171.098ZM90.3446 168.788C91.2406 168.041 91.9546 167.421 92.4866 166.926C93.0186 166.422 93.4619 165.899 93.8166 165.358C94.1712 164.817 94.3486 164.285 94.3486 163.762C94.3486 163.286 94.2366 162.913 94.0126 162.642C93.7886 162.371 93.4432 162.236 92.9766 162.236C92.5099 162.236 92.1506 162.395 91.8986 162.712C91.6466 163.02 91.5159 163.445 91.5066 163.986H89.6026C89.6399 162.866 89.9712 162.017 90.5966 161.438C91.2312 160.859 92.0339 160.57 93.0046 160.57C94.0686 160.57 94.8852 160.855 95.4546 161.424C96.0239 161.984 96.3086 162.726 96.3086 163.65C96.3086 164.378 96.1126 165.073 95.7206 165.736C95.3286 166.399 94.8806 166.977 94.3766 167.472C93.8726 167.957 93.2146 168.545 92.4026 169.236H96.5326V170.86H89.6166V169.404L90.3446 168.788ZM111.982 161.228V171H110.022V164.644L107.404 171H105.92L103.288 164.644V171H101.328V161.228H103.554L106.662 168.494L109.77 161.228H111.982ZM124.573 161.228V171H122.613V164.644L119.995 171H118.511L115.879 164.644V171H113.919V161.228H116.145L119.253 168.494L122.361 161.228H124.573Z" fill="black"/>
<path d="M77.8677 192.83H73.6117L72.8277 195H71.4837L75.0117 185.298H76.4817L79.9957 195H78.6517L77.8677 192.83ZM77.5037 191.794L75.7397 186.866L73.9757 191.794H77.5037ZM85.2713 187.188C86.2047 187.188 86.9607 187.473 87.5393 188.042C88.118 188.602 88.4073 189.414 88.4073 190.478V195H87.1473V190.66C87.1473 189.895 86.956 189.311 86.5733 188.91C86.1907 188.499 85.668 188.294 85.0053 188.294C84.3333 188.294 83.7967 188.504 83.3953 188.924C83.0033 189.344 82.8073 189.955 82.8073 190.758V195H81.5333V187.328H82.8073V188.42C83.0593 188.028 83.4 187.725 83.8293 187.51C84.268 187.295 84.7487 187.188 85.2713 187.188ZM93.6524 187.202C94.3151 187.202 94.8937 187.347 95.3884 187.636C95.8924 187.925 96.2657 188.289 96.5084 188.728V187.328H97.7964V195.168C97.7964 195.868 97.6471 196.489 97.3484 197.03C97.0497 197.581 96.6204 198.01 96.0604 198.318C95.5097 198.626 94.8657 198.78 94.1284 198.78C93.1204 198.78 92.2804 198.542 91.6084 198.066C90.9364 197.59 90.5397 196.941 90.4184 196.12H91.6784C91.8184 196.587 92.1077 196.96 92.5464 197.24C92.9851 197.529 93.5124 197.674 94.1284 197.674C94.8284 197.674 95.3977 197.455 95.8364 197.016C96.2844 196.577 96.5084 195.961 96.5084 195.168V193.558C96.2564 194.006 95.8831 194.379 95.3884 194.678C94.8937 194.977 94.3151 195.126 93.6524 195.126C92.9711 195.126 92.3504 194.958 91.7904 194.622C91.2397 194.286 90.8057 193.815 90.4884 193.208C90.1711 192.601 90.0124 191.911 90.0124 191.136C90.0124 190.352 90.1711 189.666 90.4884 189.078C90.8057 188.481 91.2397 188.019 91.7904 187.692C92.3504 187.365 92.9711 187.202 93.6524 187.202ZM96.5084 191.15C96.5084 190.571 96.3917 190.067 96.1584 189.638C95.9251 189.209 95.6077 188.882 95.2064 188.658C94.8144 188.425 94.3804 188.308 93.9044 188.308C93.4284 188.308 92.9944 188.42 92.6024 188.644C92.2104 188.868 91.8977 189.195 91.6644 189.624C91.4311 190.053 91.3144 190.557 91.3144 191.136C91.3144 191.724 91.4311 192.237 91.6644 192.676C91.8977 193.105 92.2104 193.437 92.6024 193.67C92.9944 193.894 93.4284 194.006 93.9044 194.006C94.3804 194.006 94.8144 193.894 95.2064 193.67C95.6077 193.437 95.9251 193.105 96.1584 192.676C96.3917 192.237 96.5084 191.729 96.5084 191.15ZM106.949 190.87C106.949 191.113 106.935 191.369 106.907 191.64H100.775C100.822 192.396 101.079 192.989 101.545 193.418C102.021 193.838 102.595 194.048 103.267 194.048C103.818 194.048 104.275 193.922 104.639 193.67C105.013 193.409 105.274 193.063 105.423 192.634H106.795C106.59 193.371 106.179 193.973 105.563 194.44C104.947 194.897 104.182 195.126 103.267 195.126C102.539 195.126 101.886 194.963 101.307 194.636C100.738 194.309 100.29 193.847 99.9633 193.25C99.6367 192.643 99.4733 191.943 99.4733 191.15C99.4733 190.357 99.632 189.661 99.9493 189.064C100.267 188.467 100.71 188.009 101.279 187.692C101.858 187.365 102.521 187.202 103.267 187.202C103.995 187.202 104.639 187.361 105.199 187.678C105.759 187.995 106.189 188.434 106.487 188.994C106.795 189.545 106.949 190.17 106.949 190.87ZM105.633 190.604C105.633 190.119 105.526 189.703 105.311 189.358C105.097 189.003 104.803 188.737 104.429 188.56C104.065 188.373 103.659 188.28 103.211 188.28C102.567 188.28 102.017 188.485 101.559 188.896C101.111 189.307 100.855 189.876 100.789 190.604H105.633ZM109.905 184.64V195H108.631V184.64H109.905ZM123.299 195L122.025 193.712C121.549 194.207 121.04 194.575 120.499 194.818C119.957 195.051 119.346 195.168 118.665 195.168C117.993 195.168 117.395 195.047 116.873 194.804C116.359 194.561 115.958 194.216 115.669 193.768C115.389 193.32 115.249 192.797 115.249 192.2C115.249 191.519 115.44 190.921 115.823 190.408C116.215 189.885 116.789 189.475 117.545 189.176C117.246 188.821 117.031 188.495 116.901 188.196C116.77 187.897 116.705 187.571 116.705 187.216C116.705 186.805 116.807 186.437 117.013 186.11C117.227 185.774 117.531 185.513 117.923 185.326C118.315 185.139 118.767 185.046 119.281 185.046C119.785 185.046 120.223 185.144 120.597 185.34C120.97 185.536 121.25 185.811 121.437 186.166C121.623 186.511 121.707 186.899 121.689 187.328H120.415C120.424 186.945 120.317 186.647 120.093 186.432C119.869 186.208 119.579 186.096 119.225 186.096C118.851 186.096 118.548 186.203 118.315 186.418C118.091 186.623 117.979 186.889 117.979 187.216C117.979 187.496 118.053 187.767 118.203 188.028C118.361 188.289 118.623 188.611 118.987 188.994L121.899 191.92L122.151 191.528L123.103 189.932H124.475L123.327 191.92C123.168 192.2 122.981 192.494 122.767 192.802L124.965 195H123.299ZM118.665 194.076C119.169 194.076 119.621 193.978 120.023 193.782C120.433 193.586 120.821 193.283 121.185 192.872L118.315 189.988C117.12 190.445 116.523 191.169 116.523 192.158C116.523 192.709 116.719 193.166 117.111 193.53C117.512 193.894 118.03 194.076 118.665 194.076ZM132.985 195.098C132.341 195.098 131.762 194.986 131.249 194.762C130.745 194.529 130.348 194.211 130.059 193.81C129.769 193.399 129.62 192.928 129.611 192.396H130.969C131.015 192.853 131.202 193.241 131.529 193.558C131.865 193.866 132.35 194.02 132.985 194.02C133.591 194.02 134.067 193.871 134.413 193.572C134.767 193.264 134.945 192.872 134.945 192.396C134.945 192.023 134.842 191.719 134.637 191.486C134.431 191.253 134.175 191.075 133.867 190.954C133.559 190.833 133.143 190.702 132.621 190.562C131.977 190.394 131.459 190.226 131.067 190.058C130.684 189.89 130.353 189.629 130.073 189.274C129.802 188.91 129.667 188.425 129.667 187.818C129.667 187.286 129.802 186.815 130.073 186.404C130.343 185.993 130.721 185.676 131.207 185.452C131.701 185.228 132.266 185.116 132.901 185.116C133.815 185.116 134.562 185.345 135.141 185.802C135.729 186.259 136.06 186.866 136.135 187.622H134.735C134.688 187.249 134.492 186.922 134.147 186.642C133.801 186.353 133.344 186.208 132.775 186.208C132.243 186.208 131.809 186.348 131.473 186.628C131.137 186.899 130.969 187.281 130.969 187.776C130.969 188.131 131.067 188.42 131.263 188.644C131.468 188.868 131.715 189.041 132.005 189.162C132.303 189.274 132.719 189.405 133.251 189.554C133.895 189.731 134.413 189.909 134.805 190.086C135.197 190.254 135.533 190.52 135.813 190.884C136.093 191.239 136.233 191.724 136.233 192.34C136.233 192.816 136.107 193.264 135.855 193.684C135.603 194.104 135.229 194.445 134.735 194.706C134.24 194.967 133.657 195.098 132.985 195.098ZM145.108 190.87C145.108 191.113 145.094 191.369 145.066 191.64H138.934C138.98 192.396 139.237 192.989 139.704 193.418C140.18 193.838 140.754 194.048 141.426 194.048C141.976 194.048 142.434 193.922 142.798 193.67C143.171 193.409 143.432 193.063 143.582 192.634H144.954C144.748 193.371 144.338 193.973 143.722 194.44C143.106 194.897 142.34 195.126 141.426 195.126C140.698 195.126 140.044 194.963 139.466 194.636C138.896 194.309 138.448 193.847 138.122 193.25C137.795 192.643 137.632 191.943 137.632 191.15C137.632 190.357 137.79 189.661 138.108 189.064C138.425 188.467 138.868 188.009 139.438 187.692C140.016 187.365 140.679 187.202 141.426 187.202C142.154 187.202 142.798 187.361 143.358 187.678C143.918 187.995 144.347 188.434 144.646 188.994C144.954 189.545 145.108 190.17 145.108 190.87ZM143.792 190.604C143.792 190.119 143.684 189.703 143.47 189.358C143.255 189.003 142.961 188.737 142.588 188.56C142.224 188.373 141.818 188.28 141.37 188.28C140.726 188.28 140.175 188.485 139.718 188.896C139.27 189.307 139.013 189.876 138.948 190.604H143.792ZM153.789 190.87C153.789 191.113 153.775 191.369 153.747 191.64H147.615C147.662 192.396 147.919 192.989 148.385 193.418C148.861 193.838 149.435 194.048 150.107 194.048C150.658 194.048 151.115 193.922 151.479 193.67C151.853 193.409 152.114 193.063 152.263 192.634H153.635C153.43 193.371 153.019 193.973 152.403 194.44C151.787 194.897 151.022 195.126 150.107 195.126C149.379 195.126 148.726 194.963 148.147 194.636C147.578 194.309 147.13 193.847 146.803 193.25C146.477 192.643 146.313 191.943 146.313 191.15C146.313 190.357 146.472 189.661 146.789 189.064C147.107 188.467 147.55 188.009 148.119 187.692C148.698 187.365 149.361 187.202 150.107 187.202C150.835 187.202 151.479 187.361 152.039 187.678C152.599 187.995 153.029 188.434 153.327 188.994C153.635 189.545 153.789 190.17 153.789 190.87ZM152.473 190.604C152.473 190.119 152.366 189.703 152.151 189.358C151.937 189.003 151.643 188.737 151.269 188.56C150.905 188.373 150.499 188.28 150.051 188.28C149.407 188.28 148.857 188.485 148.399 188.896C147.951 189.307 147.695 189.876 147.629 190.604H152.473ZM154.995 191.136C154.995 190.352 155.153 189.666 155.471 189.078C155.788 188.481 156.222 188.019 156.773 187.692C157.333 187.365 157.958 187.202 158.649 187.202C159.246 187.202 159.801 187.342 160.315 187.622C160.828 187.893 161.22 188.252 161.491 188.7V184.64H162.779V195H161.491V193.558C161.239 194.015 160.865 194.393 160.371 194.692C159.876 194.981 159.297 195.126 158.635 195.126C157.953 195.126 157.333 194.958 156.773 194.622C156.222 194.286 155.788 193.815 155.471 193.208C155.153 192.601 154.995 191.911 154.995 191.136ZM161.491 191.15C161.491 190.571 161.374 190.067 161.141 189.638C160.907 189.209 160.59 188.882 160.189 188.658C159.797 188.425 159.363 188.308 158.887 188.308C158.411 188.308 157.977 188.42 157.585 188.644C157.193 188.868 156.88 189.195 156.647 189.624C156.413 190.053 156.297 190.557 156.297 191.136C156.297 191.724 156.413 192.237 156.647 192.676C156.88 193.105 157.193 193.437 157.585 193.67C157.977 193.894 158.411 194.006 158.887 194.006C159.363 194.006 159.797 193.894 160.189 193.67C160.59 193.437 160.907 193.105 161.141 192.676C161.374 192.237 161.491 191.729 161.491 191.15Z" fill="black"/>
<path d="M54 220.714L71.5 205H164.5" stroke="#FED9B2" stroke-linecap="round"/>
<path d="M54 95.7143L71 80H179.5" stroke="#FED9B2" stroke-linecap="round"/>
<path d="M69.8445 25.0424C69.3585 30.2955 70.1801 36.1582 73.4924 38.7729C76.861 40.7339 83.3285 34.6704 85.6239 32.8215C91.7933 27.8524 87.1603 20.8191 79.6213 18.5567C69.5695 15.5404 69.9716 23.6676 69.8445 25.0424Z" fill="white" fill-opacity="0.5"/>
<path d="M77.3769 20.2315C73.0815 18.3455 66.3642 19.7978 64.2241 21.7144C61.9195 24.9699 66.6117 32.9447 68.1269 35.5418C71.4219 41.1896 77.0435 41.4512 79.7673 34.336C84.1611 22.8582 78.8143 20.8627 77.3769 20.2315Z" fill="white" fill-opacity="0.3"/>
<path d="M72.9525 32.7879C73.8485 32.0413 74.5625 31.4206 75.0945 30.9259C75.6265 30.4219 76.0698 29.8993 76.4245 29.3579C76.7791 28.8166 76.9565 28.2846 76.9565 27.7619C76.9565 27.2859 76.8445 26.9126 76.6205 26.6419C76.3965 26.3713 76.0511 26.2359 75.5845 26.2359C75.1178 26.2359 74.7585 26.3946 74.5065 26.7119C74.2545 27.0199 74.1238 27.4446 74.1145 27.9859H72.2105C72.2478 26.8659 72.5791 26.0166 73.2045 25.4379C73.8391 24.8593 74.6418 24.5699 75.6125 24.5699C76.6765 24.5699 77.4931 24.8546 78.0625 25.4239C78.6318 25.9839 78.9165 26.7259 78.9165 27.6499C78.9165 28.3779 78.7205 29.0733 78.3285 29.7359C77.9365 30.3986 77.4885 30.9773 76.9845 31.4719C76.4805 31.9573 75.8225 32.5453 75.0105 33.2359H79.1405V34.8599H72.2245V33.4039L72.9525 32.7879ZM80.9915 32.7879C81.8875 32.0413 82.6015 31.4206 83.1335 30.9259C83.6655 30.4219 84.1089 29.8993 84.4635 29.3579C84.8182 28.8166 84.9955 28.2846 84.9955 27.7619C84.9955 27.2859 84.8835 26.9126 84.6595 26.6419C84.4355 26.3713 84.0902 26.2359 83.6235 26.2359C83.1569 26.2359 82.7975 26.3946 82.5455 26.7119C82.2935 27.0199 82.1629 27.4446 82.1535 27.9859H80.2495C80.2869 26.8659 80.6182 26.0166 81.2435 25.4379C81.8782 24.8593 82.6809 24.5699 83.6515 24.5699C84.7155 24.5699 85.5322 24.8546 86.1015 25.4239C86.6709 25.9839 86.9555 26.7259 86.9555 27.6499C86.9555 28.3779 86.7595 29.0733 86.3675 29.7359C85.9755 30.3986 85.5275 30.9773 85.0235 31.4719C84.5195 31.9573 83.8615 32.5453 83.0495 33.2359H87.1795V34.8599H80.2635V33.4039L80.9915 32.7879ZM102.629 25.2279V34.9999H100.669V28.6439L98.0505 34.9999H96.5665L93.9345 28.6439V34.9999H91.9745V25.2279H94.2005L97.3085 32.4939L100.417 25.2279H102.629ZM115.22 25.2279V34.9999H113.26V28.6439L110.642 34.9999H109.158L106.526 28.6439V34.9999H104.566V25.2279H106.792L109.9 32.4939L113.008 25.2279H115.22Z" fill="black"/>
<path d="M77.652 44.636V45.524H74.016V48.344H76.968V49.232H74.016V53H72.924V44.636H77.652ZM84.8029 46.424V53H83.7109V52.028C83.5029 52.364 83.2109 52.628 82.8349 52.82C82.4669 53.004 82.0589 53.096 81.6109 53.096C81.0989 53.096 80.6389 52.992 80.2309 52.784C79.8229 52.568 79.4989 52.248 79.2589 51.824C79.0269 51.4 78.9109 50.884 78.9109 50.276V46.424H79.9909V50.132C79.9909 50.78 80.1549 51.28 80.4829 51.632C80.8109 51.976 81.2589 52.148 81.8269 52.148C82.4109 52.148 82.8709 51.968 83.2069 51.608C83.5429 51.248 83.7109 50.724 83.7109 50.036V46.424H84.8029ZM87.9787 47.324V51.2C87.9787 51.52 88.0467 51.748 88.1827 51.884C88.3187 52.012 88.5547 52.076 88.8907 52.076H89.6947V53H88.7107C88.1027 53 87.6467 52.86 87.3427 52.58C87.0387 52.3 86.8867 51.84 86.8867 51.2V47.324H86.0347V46.424H86.8867V44.768H87.9787V46.424H89.6947V47.324H87.9787ZM96.8498 46.424V53H95.7578V52.028C95.5498 52.364 95.2578 52.628 94.8818 52.82C94.5138 53.004 94.1058 53.096 93.6578 53.096C93.1458 53.096 92.6858 52.992 92.2778 52.784C91.8698 52.568 91.5458 52.248 91.3058 51.824C91.0738 51.4 90.9578 50.884 90.9578 50.276V46.424H92.0378V50.132C92.0378 50.78 92.2018 51.28 92.5298 51.632C92.8578 51.976 93.3058 52.148 93.8738 52.148C94.4578 52.148 94.9178 51.968 95.2538 51.608C95.5898 51.248 95.7578 50.724 95.7578 50.036V46.424H96.8498ZM99.7855 47.492C99.9775 47.116 100.25 46.824 100.602 46.616C100.962 46.408 101.398 46.304 101.91 46.304V47.432H101.622C100.398 47.432 99.7855 48.096 99.7855 49.424V53H98.6935V46.424H99.7855V47.492ZM109.17 49.46C109.17 49.668 109.158 49.888 109.134 50.12H103.878C103.918 50.768 104.138 51.276 104.538 51.644C104.946 52.004 105.438 52.184 106.014 52.184C106.486 52.184 106.878 52.076 107.19 51.86C107.51 51.636 107.734 51.34 107.862 50.972H109.038C108.862 51.604 108.51 52.12 107.982 52.52C107.454 52.912 106.798 53.108 106.014 53.108C105.39 53.108 104.83 52.968 104.334 52.688C103.846 52.408 103.462 52.012 103.182 51.5C102.902 50.98 102.762 50.38 102.762 49.7C102.762 49.02 102.898 48.424 103.17 47.912C103.442 47.4 103.822 47.008 104.31 46.736C104.806 46.456 105.374 46.316 106.014 46.316C106.638 46.316 107.19 46.452 107.67 46.724C108.15 46.996 108.518 47.372 108.774 47.852C109.038 48.324 109.17 48.86 109.17 49.46ZM108.042 49.232C108.042 48.816 107.95 48.46 107.766 48.164C107.582 47.86 107.33 47.632 107.01 47.48C106.698 47.32 106.35 47.24 105.966 47.24C105.414 47.24 104.942 47.416 104.55 47.768C104.166 48.12 103.946 48.608 103.89 49.232H108.042ZM115.143 47.324V51.2C115.143 51.52 115.211 51.748 115.347 51.884C115.483 52.012 115.719 52.076 116.055 52.076H116.859V53H115.875C115.267 53 114.811 52.86 114.507 52.58C114.203 52.3 114.051 51.84 114.051 51.2V47.324H113.199V46.424H114.051V44.768H115.143V46.424H116.859V47.324H115.143ZM121.05 53.108C120.434 53.108 119.874 52.968 119.37 52.688C118.874 52.408 118.482 52.012 118.194 51.5C117.914 50.98 117.774 50.38 117.774 49.7C117.774 49.028 117.918 48.436 118.206 47.924C118.502 47.404 118.902 47.008 119.406 46.736C119.91 46.456 120.474 46.316 121.098 46.316C121.722 46.316 122.286 46.456 122.79 46.736C123.294 47.008 123.69 47.4 123.978 47.912C124.274 48.424 124.422 49.02 124.422 49.7C124.422 50.38 124.27 50.98 123.966 51.5C123.67 52.012 123.266 52.408 122.754 52.688C122.242 52.968 121.674 53.108 121.05 53.108ZM121.05 52.148C121.442 52.148 121.81 52.056 122.154 51.872C122.498 51.688 122.774 51.412 122.982 51.044C123.198 50.676 123.306 50.228 123.306 49.7C123.306 49.172 123.202 48.724 122.994 48.356C122.786 47.988 122.514 47.716 122.178 47.54C121.842 47.356 121.478 47.264 121.086 47.264C120.686 47.264 120.318 47.356 119.982 47.54C119.654 47.716 119.39 47.988 119.19 48.356C118.99 48.724 118.89 49.172 118.89 49.7C118.89 50.236 118.986 50.688 119.178 51.056C119.378 51.424 119.642 51.7 119.97 51.884C120.298 52.06 120.658 52.148 121.05 52.148ZM129.53 53L126.95 50.096V53H125.858V44.12H126.95V49.34L129.482 46.424H131.006L127.91 49.7L131.018 53H129.53ZM138.033 49.46C138.033 49.668 138.021 49.888 137.997 50.12H132.741C132.781 50.768 133.001 51.276 133.401 51.644C133.809 52.004 134.301 52.184 134.877 52.184C135.349 52.184 135.741 52.076 136.053 51.86C136.373 51.636 136.597 51.34 136.725 50.972H137.901C137.725 51.604 137.373 52.12 136.845 52.52C136.317 52.912 135.661 53.108 134.877 53.108C134.253 53.108 133.693 52.968 133.197 52.688C132.709 52.408 132.325 52.012 132.045 51.5C131.765 50.98 131.625 50.38 131.625 49.7C131.625 49.02 131.761 48.424 132.033 47.912C132.305 47.4 132.685 47.008 133.173 46.736C133.669 46.456 134.237 46.316 134.877 46.316C135.501 46.316 136.053 46.452 136.533 46.724C137.013 46.996 137.381 47.372 137.637 47.852C137.901 48.324 138.033 48.86 138.033 49.46ZM136.905 49.232C136.905 48.816 136.813 48.46 136.629 48.164C136.445 47.86 136.193 47.632 135.873 47.48C135.561 47.32 135.213 47.24 134.829 47.24C134.277 47.24 133.805 47.416 133.413 47.768C133.029 48.12 132.809 48.608 132.753 49.232H136.905ZM142.679 46.304C143.479 46.304 144.127 46.548 144.623 47.036C145.119 47.516 145.367 48.212 145.367 49.124V53H144.287V49.28C144.287 48.624 144.123 48.124 143.795 47.78C143.467 47.428 143.019 47.252 142.451 47.252C141.875 47.252 141.415 47.432 141.071 47.792C140.735 48.152 140.567 48.676 140.567 49.364V53H139.475V46.424H140.567V47.36C140.783 47.024 141.075 46.764 141.443 46.58C141.819 46.396 142.231 46.304 142.679 46.304ZM152.678 53.108C152.174 53.108 151.722 53.024 151.322 52.856C150.922 52.68 150.606 52.44 150.374 52.136C150.142 51.824 150.014 51.468 149.99 51.068H151.118C151.15 51.396 151.302 51.664 151.574 51.872C151.854 52.08 152.218 52.184 152.666 52.184C153.082 52.184 153.41 52.092 153.65 51.908C153.89 51.724 154.01 51.492 154.01 51.212C154.01 50.924 153.882 50.712 153.626 50.576C153.37 50.432 152.974 50.292 152.438 50.156C151.95 50.028 151.55 49.9 151.238 49.772C150.934 49.636 150.67 49.44 150.446 49.184C150.23 48.92 150.122 48.576 150.122 48.152C150.122 47.816 150.222 47.508 150.422 47.228C150.622 46.948 150.906 46.728 151.274 46.568C151.642 46.4 152.062 46.316 152.534 46.316C153.262 46.316 153.85 46.5 154.298 46.868C154.746 47.236 154.986 47.74 155.018 48.38H153.926C153.902 48.036 153.762 47.76 153.506 47.552C153.258 47.344 152.922 47.24 152.498 47.24C152.106 47.24 151.794 47.324 151.562 47.492C151.33 47.66 151.214 47.88 151.214 48.152C151.214 48.368 151.282 48.548 151.418 48.692C151.562 48.828 151.738 48.94 151.946 49.028C152.162 49.108 152.458 49.2 152.834 49.304C153.306 49.432 153.69 49.56 153.986 49.688C154.282 49.808 154.534 49.992 154.742 50.24C154.958 50.488 155.07 50.812 155.078 51.212C155.078 51.572 154.978 51.896 154.778 52.184C154.578 52.472 154.294 52.7 153.926 52.868C153.566 53.028 153.15 53.108 152.678 53.108ZM156.211 49.688C156.211 49.016 156.347 48.428 156.619 47.924C156.891 47.412 157.263 47.016 157.735 46.736C158.215 46.456 158.747 46.316 159.331 46.316C159.907 46.316 160.407 46.44 160.831 46.688C161.255 46.936 161.571 47.248 161.779 47.624V46.424H162.883V53H161.779V51.776C161.563 52.16 161.239 52.48 160.807 52.736C160.383 52.984 159.887 53.108 159.319 53.108C158.735 53.108 158.207 52.964 157.735 52.676C157.263 52.388 156.891 51.984 156.619 51.464C156.347 50.944 156.211 50.352 156.211 49.688ZM161.779 49.7C161.779 49.204 161.679 48.772 161.479 48.404C161.279 48.036 161.007 47.756 160.663 47.564C160.327 47.364 159.955 47.264 159.547 47.264C159.139 47.264 158.767 47.36 158.431 47.552C158.095 47.744 157.827 48.024 157.627 48.392C157.427 48.76 157.327 49.192 157.327 49.688C157.327 50.192 157.427 50.632 157.627 51.008C157.827 51.376 158.095 51.66 158.431 51.86C158.767 52.052 159.139 52.148 159.547 52.148C159.955 52.148 160.327 52.052 160.663 51.86C161.007 51.66 161.279 51.376 161.479 51.008C161.679 50.632 161.779 50.196 161.779 49.7ZM165.821 44.12V53H164.729V44.12H165.821ZM173.682 49.46C173.682 49.668 173.67 49.888 173.646 50.12H168.39C168.43 50.768 168.65 51.276 169.05 51.644C169.458 52.004 169.95 52.184 170.526 52.184C170.998 52.184 171.39 52.076 171.702 51.86C172.022 51.636 172.246 51.34 172.374 50.972H173.55C173.374 51.604 173.022 52.12 172.494 52.52C171.966 52.912 171.31 53.108 170.526 53.108C169.902 53.108 169.342 52.968 168.846 52.688C168.358 52.408 167.974 52.012 167.694 51.5C167.414 50.98 167.274 50.38 167.274 49.7C167.274 49.02 167.41 48.424 167.682 47.912C167.954 47.4 168.334 47.008 168.822 46.736C169.318 46.456 169.886 46.316 170.526 46.316C171.15 46.316 171.702 46.452 172.182 46.724C172.662 46.996 173.03 47.372 173.286 47.852C173.55 48.324 173.682 48.86 173.682 49.46ZM172.554 49.232C172.554 48.816 172.462 48.46 172.278 48.164C172.094 47.86 171.842 47.632 171.522 47.48C171.21 47.32 170.862 47.24 170.478 47.24C169.926 47.24 169.454 47.416 169.062 47.768C168.678 48.12 168.458 48.608 168.402 49.232H172.554ZM176.251 51.488L174.907 54.716H174.175L175.051 51.488H176.251ZM75.252 71.108C74.748 71.108 74.296 71.024 73.896 70.856C73.496 70.68 73.18 70.44 72.948 70.136C72.716 69.824 72.588 69.468 72.564 69.068H73.692C73.724 69.396 73.876 69.664 74.148 69.872C74.428 70.08 74.792 70.184 75.24 70.184C75.656 70.184 75.984 70.092 76.224 69.908C76.464 69.724 76.584 69.492 76.584 69.212C76.584 68.924 76.456 68.712 76.2 68.576C75.944 68.432 75.548 68.292 75.012 68.156C74.524 68.028 74.124 67.9 73.812 67.772C73.508 67.636 73.244 67.44 73.02 67.184C72.804 66.92 72.696 66.576 72.696 66.152C72.696 65.816 72.796 65.508 72.996 65.228C73.196 64.948 73.48 64.728 73.848 64.568C74.216 64.4 74.636 64.316 75.108 64.316C75.836 64.316 76.424 64.5 76.872 64.868C77.32 65.236 77.56 65.74 77.592 66.38H76.5C76.476 66.036 76.336 65.76 76.08 65.552C75.832 65.344 75.496 65.24 75.072 65.24C74.68 65.24 74.368 65.324 74.136 65.492C73.904 65.66 73.788 65.88 73.788 66.152C73.788 66.368 73.856 66.548 73.992 66.692C74.136 66.828 74.312 66.94 74.52 67.028C74.736 67.108 75.032 67.2 75.408 67.304C75.88 67.432 76.264 67.56 76.56 67.688C76.856 67.808 77.108 67.992 77.316 68.24C77.532 68.488 77.644 68.812 77.652 69.212C77.652 69.572 77.552 69.896 77.352 70.184C77.152 70.472 76.868 70.7 76.5 70.868C76.14 71.028 75.724 71.108 75.252 71.108ZM87.9535 64.424L85.9015 71H84.7735L83.1895 65.78L81.6055 71H80.4775L78.4135 64.424H79.5295L81.0415 69.944L82.6735 64.424H83.7895L85.3855 69.956L86.8735 64.424H87.9535ZM88.6293 67.688C88.6293 67.016 88.7653 66.428 89.0373 65.924C89.3093 65.412 89.6813 65.016 90.1533 64.736C90.6333 64.456 91.1653 64.316 91.7493 64.316C92.3253 64.316 92.8253 64.44 93.2493 64.688C93.6733 64.936 93.9893 65.248 94.1973 65.624V64.424H95.3013V71H94.1973V69.776C93.9813 70.16 93.6573 70.48 93.2253 70.736C92.8013 70.984 92.3053 71.108 91.7373 71.108C91.1533 71.108 90.6253 70.964 90.1533 70.676C89.6813 70.388 89.3093 69.984 89.0373 69.464C88.7653 68.944 88.6293 68.352 88.6293 67.688ZM94.1973 67.7C94.1973 67.204 94.0973 66.772 93.8973 66.404C93.6973 66.036 93.4253 65.756 93.0813 65.564C92.7453 65.364 92.3733 65.264 91.9653 65.264C91.5573 65.264 91.1853 65.36 90.8493 65.552C90.5133 65.744 90.2453 66.024 90.0453 66.392C89.8453 66.76 89.7453 67.192 89.7453 67.688C89.7453 68.192 89.8453 68.632 90.0453 69.008C90.2453 69.376 90.5133 69.66 90.8493 69.86C91.1853 70.052 91.5573 70.148 91.9653 70.148C92.3733 70.148 92.7453 70.052 93.0813 69.86C93.4253 69.66 93.6973 69.376 93.8973 69.008C94.0973 68.632 94.1973 68.196 94.1973 67.7ZM98.2387 65.636C98.4547 65.26 98.7747 64.948 99.1987 64.7C99.6307 64.444 100.131 64.316 100.699 64.316C101.283 64.316 101.811 64.456 102.283 64.736C102.763 65.016 103.139 65.412 103.411 65.924C103.683 66.428 103.819 67.016 103.819 67.688C103.819 68.352 103.683 68.944 103.411 69.464C103.139 69.984 102.763 70.388 102.283 70.676C101.811 70.964 101.283 71.108 100.699 71.108C100.139 71.108 99.6427 70.984 99.2107 70.736C98.7867 70.48 98.4627 70.164 98.2387 69.788V74.12H97.1467V64.424H98.2387V65.636ZM102.703 67.688C102.703 67.192 102.603 66.76 102.403 66.392C102.203 66.024 101.931 65.744 101.587 65.552C101.251 65.36 100.879 65.264 100.471 65.264C100.071 65.264 99.6987 65.364 99.3547 65.564C99.0187 65.756 98.7467 66.04 98.5387 66.416C98.3387 66.784 98.2387 67.212 98.2387 67.7C98.2387 68.196 98.3387 68.632 98.5387 69.008C98.7467 69.376 99.0187 69.66 99.3547 69.86C99.6987 70.052 100.071 70.148 100.471 70.148C100.879 70.148 101.251 70.052 101.587 69.86C101.931 69.66 102.203 69.376 102.403 69.008C102.603 68.632 102.703 68.192 102.703 67.688ZM111.323 71.108C110.707 71.108 110.147 70.968 109.643 70.688C109.147 70.408 108.755 70.012 108.467 69.5C108.187 68.98 108.047 68.38 108.047 67.7C108.047 67.028 108.191 66.436 108.479 65.924C108.775 65.404 109.175 65.008 109.679 64.736C110.183 64.456 110.747 64.316 111.371 64.316C111.995 64.316 112.559 64.456 113.063 64.736C113.567 65.008 113.963 65.4 114.251 65.912C114.547 66.424 114.695 67.02 114.695 67.7C114.695 68.38 114.543 68.98 114.239 69.5C113.943 70.012 113.539 70.408 113.027 70.688C112.515 70.968 111.947 71.108 111.323 71.108ZM111.323 70.148C111.715 70.148 112.083 70.056 112.427 69.872C112.771 69.688 113.047 69.412 113.255 69.044C113.471 68.676 113.579 68.228 113.579 67.7C113.579 67.172 113.475 66.724 113.267 66.356C113.059 65.988 112.787 65.716 112.451 65.54C112.115 65.356 111.751 65.264 111.359 65.264C110.959 65.264 110.591 65.356 110.255 65.54C109.927 65.716 109.663 65.988 109.463 66.356C109.263 66.724 109.163 67.172 109.163 67.7C109.163 68.236 109.259 68.688 109.451 69.056C109.651 69.424 109.915 69.7 110.243 69.884C110.571 70.06 110.931 70.148 111.323 70.148ZM117.223 65.492C117.415 65.116 117.687 64.824 118.039 64.616C118.399 64.408 118.835 64.304 119.347 64.304V65.432H119.059C117.835 65.432 117.223 66.096 117.223 67.424V71H116.131V64.424H117.223V65.492ZM124.899 65.648C125.123 65.256 125.451 64.936 125.883 64.688C126.315 64.44 126.807 64.316 127.359 64.316C127.951 64.316 128.483 64.456 128.955 64.736C129.427 65.016 129.799 65.412 130.071 65.924C130.343 66.428 130.479 67.016 130.479 67.688C130.479 68.352 130.343 68.944 130.071 69.464C129.799 69.984 129.423 70.388 128.943 70.676C128.471 70.964 127.943 71.108 127.359 71.108C126.791 71.108 126.291 70.984 125.859 70.736C125.435 70.488 125.115 70.172 124.899 69.788V71H123.807V62.12H124.899V65.648ZM129.363 67.688C129.363 67.192 129.263 66.76 129.063 66.392C128.863 66.024 128.591 65.744 128.247 65.552C127.911 65.36 127.539 65.264 127.131 65.264C126.731 65.264 126.359 65.364 126.015 65.564C125.679 65.756 125.407 66.04 125.199 66.416C124.999 66.784 124.899 67.212 124.899 67.7C124.899 68.196 124.999 68.632 125.199 69.008C125.407 69.376 125.679 69.66 126.015 69.86C126.359 70.052 126.731 70.148 127.131 70.148C127.539 70.148 127.911 70.052 128.247 69.86C128.591 69.66 128.863 69.376 129.063 69.008C129.263 68.632 129.363 68.192 129.363 67.688ZM137.748 64.424V71H136.656V70.028C136.448 70.364 136.156 70.628 135.78 70.82C135.412 71.004 135.004 71.096 134.556 71.096C134.044 71.096 133.584 70.992 133.176 70.784C132.768 70.568 132.444 70.248 132.204 69.824C131.972 69.4 131.856 68.884 131.856 68.276V64.424H132.936V68.132C132.936 68.78 133.1 69.28 133.428 69.632C133.756 69.976 134.204 70.148 134.772 70.148C135.356 70.148 135.816 69.968 136.152 69.608C136.488 69.248 136.656 68.724 136.656 68.036V64.424H137.748ZM140.684 65.492C140.876 65.116 141.148 64.824 141.5 64.616C141.86 64.408 142.296 64.304 142.808 64.304V65.432H142.52C141.296 65.432 140.684 66.096 140.684 67.424V71H139.592V64.424H140.684V65.492ZM147.273 64.304C148.073 64.304 148.721 64.548 149.217 65.036C149.713 65.516 149.961 66.212 149.961 67.124V71H148.881V67.28C148.881 66.624 148.717 66.124 148.389 65.78C148.061 65.428 147.613 65.252 147.045 65.252C146.469 65.252 146.009 65.432 145.665 65.792C145.329 66.152 145.161 66.676 145.161 67.364V71H144.069V64.424H145.161V65.36C145.377 65.024 145.669 64.764 146.037 64.58C146.413 64.396 146.825 64.304 147.273 64.304Z" fill="black"/>
<path d="M0 7.99999C0 3.58172 3.58172 0 8 0H47C51.4183 0 55 3.58172 55 8V162.269H0V7.99999Z" fill="url(#paint0_linear)"/>
<rect y="162.269" width="55" height="105.475" fill="url(#paint1_linear)"/>
<defs>
<linearGradient id="paint0_linear" x1="27.5" y1="2.83016e-08" x2="30.3026" y2="257.097" gradientUnits="userSpaceOnUse">
<stop stop-color="#FB8C4E"/>
<stop offset="1" stop-color="#FFB800"/>
</linearGradient>
<linearGradient id="paint1_linear" x1="27.5" y1="162.269" x2="28.6842" y2="329.394" gradientUnits="userSpaceOnUse">
<stop stop-color="#FFD6BF"/>
<stop offset="1" stop-color="#FFDA79"/>
</linearGradient>
</defs>
</svg>
