<svg width="340" height="74" viewBox="0 0 340 74" fill="none" xmlns="http://www.w3.org/2000/svg">
<mask id="mask0" mask-type="alpha" maskUnits="userSpaceOnUse" x="0" y="9" width="308" height="63">
<path d="M10.4 9.2296C12.768 9.2296 14.8373 9.69894 16.608 10.6376C18.3787 11.5763 19.744 12.8989 20.704 14.6056C21.6853 16.2909 22.176 18.2429 22.176 20.4616C22.176 22.6589 21.6853 24.6109 20.704 26.3176C19.744 28.0243 18.368 29.3469 16.576 30.2856C14.8053 31.2243 12.7467 31.6936 10.4 31.6936H1.984V9.2296H10.4ZM10.048 26.9576C12.1173 26.9576 13.728 26.3923 14.88 25.2616C16.032 24.1309 16.608 22.5309 16.608 20.4616C16.608 18.3923 16.032 16.7816 14.88 15.6296C13.728 14.4776 12.1173 13.9016 10.048 13.9016H7.456V26.9576H10.048ZM42.066 22.4776C42.066 22.9896 42.034 23.5229 41.97 24.0776H29.586C29.6713 25.1869 30.0233 26.0403 30.642 26.6376C31.282 27.2136 32.0607 27.5016 32.978 27.5016C34.3433 27.5016 35.2927 26.9256 35.826 25.7736H41.65C41.3513 26.9469 40.8073 28.0029 40.018 28.9416C39.25 29.8803 38.2793 30.6163 37.106 31.1496C35.9327 31.6829 34.6207 31.9496 33.17 31.9496C31.4207 31.9496 29.8633 31.5763 28.498 30.8296C27.1327 30.0829 26.066 29.0163 25.298 27.6296C24.53 26.2429 24.146 24.6216 24.146 22.7656C24.146 20.9096 24.5193 19.2883 25.266 17.9016C26.034 16.5149 27.1007 15.4483 28.466 14.7016C29.8313 13.9549 31.3993 13.5816 33.17 13.5816C34.898 13.5816 36.434 13.9443 37.778 14.6696C39.122 15.3949 40.1673 16.4296 40.914 17.7736C41.682 19.1176 42.066 20.6856 42.066 22.4776ZM36.466 21.0376C36.466 20.0989 36.146 19.3523 35.506 18.7976C34.866 18.2429 34.066 17.9656 33.106 17.9656C32.1887 17.9656 31.41 18.2323 30.77 18.7656C30.1513 19.2989 29.7673 20.0563 29.618 21.0376H36.466ZM52.2168 31.9496C50.6594 31.9496 49.2728 31.6829 48.0568 31.1496C46.8408 30.6163 45.8808 29.8909 45.1768 28.9736C44.4728 28.0349 44.0781 26.9896 43.9928 25.8376H49.4008C49.4648 26.4563 49.7528 26.9576 50.2648 27.3416C50.7768 27.7256 51.4061 27.9176 52.1528 27.9176C52.8354 27.9176 53.3581 27.7896 53.7208 27.5336C54.1048 27.2563 54.2968 26.9043 54.2968 26.4776C54.2968 25.9656 54.0301 25.5923 53.4968 25.3576C52.9634 25.1016 52.0994 24.8243 50.9048 24.5256C49.6248 24.2269 48.5581 23.9176 47.7048 23.5976C46.8514 23.2563 46.1154 22.7336 45.4968 22.0296C44.8781 21.3043 44.5688 20.3336 44.5688 19.1176C44.5688 18.0936 44.8461 17.1656 45.4008 16.3336C45.9768 15.4803 46.8088 14.8083 47.8968 14.3176C49.0061 13.8269 50.3181 13.5816 51.8328 13.5816C54.0728 13.5816 55.8328 14.1363 57.1128 15.2456C58.4141 16.3549 59.1608 17.8269 59.3528 19.6616H54.2968C54.2114 19.0429 53.9341 18.5523 53.4648 18.1896C53.0168 17.8269 52.4194 17.6456 51.6728 17.6456C51.0328 17.6456 50.5421 17.7736 50.2008 18.0296C49.8594 18.2643 49.6888 18.5949 49.6888 19.0216C49.6888 19.5336 49.9554 19.9176 50.4888 20.1736C51.0434 20.4296 51.8968 20.6856 53.0488 20.9416C54.3714 21.2829 55.4488 21.6243 56.2808 21.9656C57.1128 22.2856 57.8381 22.8189 58.4568 23.5656C59.0968 24.2909 59.4274 25.2723 59.4488 26.5096C59.4488 27.5549 59.1501 28.4936 58.5528 29.3256C57.9768 30.1363 57.1341 30.7763 56.0248 31.2456C54.9368 31.7149 53.6674 31.9496 52.2168 31.9496ZM85.5805 13.6456C87.7992 13.6456 89.5592 14.3176 90.8605 15.6616C92.1832 17.0056 92.8445 18.8723 92.8445 21.2616V31.6936H87.4045V21.9976C87.4045 20.8456 87.0952 19.9603 86.4765 19.3416C85.8792 18.7016 85.0472 18.3816 83.9805 18.3816C82.9138 18.3816 82.0712 18.7016 81.4525 19.3416C80.8552 19.9603 80.5565 20.8456 80.5565 21.9976V31.6936H75.1165V21.9976C75.1165 20.8456 74.8072 19.9603 74.1885 19.3416C73.5912 18.7016 72.7592 18.3816 71.6925 18.3816C70.6258 18.3816 69.7832 18.7016 69.1645 19.3416C68.5672 19.9603 68.2685 20.8456 68.2685 21.9976V31.6936H62.7965V13.8376H68.2685V16.0776C68.8232 15.3309 69.5485 14.7443 70.4445 14.3176C71.3405 13.8696 72.3538 13.6456 73.4845 13.6456C74.8285 13.6456 76.0232 13.9336 77.0685 14.5096C78.1352 15.0856 78.9672 15.9069 79.5645 16.9736C80.1832 15.9923 81.0258 15.1923 82.0925 14.5736C83.1592 13.9549 84.3218 13.6456 85.5805 13.6456ZM104.8 31.9496C103.05 31.9496 101.472 31.5763 100.064 30.8296C98.6768 30.0829 97.5782 29.0163 96.7675 27.6296C95.9782 26.2429 95.5835 24.6216 95.5835 22.7656C95.5835 20.9309 95.9888 19.3203 96.7995 17.9336C97.6102 16.5256 98.7195 15.4483 100.128 14.7016C101.536 13.9549 103.114 13.5816 104.864 13.5816C106.613 13.5816 108.192 13.9549 109.6 14.7016C111.008 15.4483 112.117 16.5256 112.928 17.9336C113.738 19.3203 114.144 20.9309 114.144 22.7656C114.144 24.6003 113.728 26.2216 112.896 27.6296C112.085 29.0163 110.965 30.0829 109.536 30.8296C108.128 31.5763 106.549 31.9496 104.8 31.9496ZM104.8 27.2136C105.845 27.2136 106.73 26.8296 107.456 26.0616C108.202 25.2936 108.576 24.1949 108.576 22.7656C108.576 21.3363 108.213 20.2376 107.488 19.4696C106.784 18.7016 105.909 18.3176 104.864 18.3176C103.797 18.3176 102.912 18.7016 102.208 19.4696C101.504 20.2163 101.152 21.3149 101.152 22.7656C101.152 24.1949 101.493 25.2936 102.176 26.0616C102.88 26.8296 103.754 27.2136 104.8 27.2136ZM124.311 31.9496C122.753 31.9496 121.367 31.6829 120.151 31.1496C118.935 30.6163 117.975 29.8909 117.271 28.9736C116.567 28.0349 116.172 26.9896 116.087 25.8376H121.495C121.559 26.4563 121.847 26.9576 122.359 27.3416C122.871 27.7256 123.5 27.9176 124.247 27.9176C124.929 27.9176 125.452 27.7896 125.815 27.5336C126.199 27.2563 126.391 26.9043 126.391 26.4776C126.391 25.9656 126.124 25.5923 125.591 25.3576C125.057 25.1016 124.193 24.8243 122.999 24.5256C121.719 24.2269 120.652 23.9176 119.799 23.5976C118.945 23.2563 118.209 22.7336 117.591 22.0296C116.972 21.3043 116.663 20.3336 116.663 19.1176C116.663 18.0936 116.94 17.1656 117.495 16.3336C118.071 15.4803 118.903 14.8083 119.991 14.3176C121.1 13.8269 122.412 13.5816 123.927 13.5816C126.167 13.5816 127.927 14.1363 129.207 15.2456C130.508 16.3549 131.255 17.8269 131.447 19.6616H126.391C126.305 19.0429 126.028 18.5523 125.559 18.1896C125.111 17.8269 124.513 17.6456 123.767 17.6456C123.127 17.6456 122.636 17.7736 122.295 18.0296C121.953 18.2643 121.783 18.5949 121.783 19.0216C121.783 19.5336 122.049 19.9176 122.583 20.1736C123.137 20.4296 123.991 20.6856 125.143 20.9416C126.465 21.2829 127.543 21.6243 128.375 21.9656C129.207 22.2856 129.932 22.8189 130.551 23.5656C131.191 24.2909 131.521 25.2723 131.543 26.5096C131.543 27.5549 131.244 28.4936 130.647 29.3256C130.071 30.1363 129.228 30.7763 128.119 31.2456C127.031 31.7149 125.761 31.9496 124.311 31.9496ZM137.45 31.9496C136.49 31.9496 135.701 31.6723 135.082 31.1176C134.485 30.5416 134.186 29.8376 134.186 29.0056C134.186 28.1523 134.485 27.4376 135.082 26.8616C135.701 26.2856 136.49 25.9976 137.45 25.9976C138.389 25.9976 139.157 26.2856 139.754 26.8616C140.373 27.4376 140.682 28.1523 140.682 29.0056C140.682 29.8376 140.373 30.5416 139.754 31.1176C139.157 31.6723 138.389 31.9496 137.45 31.9496ZM18.144 49.2296V53.6136H12.192V71.6936H6.72V53.6136H0.768V49.2296H18.144ZM31.8663 53.6456C33.9143 53.6456 35.5569 54.3283 36.7943 55.6936C38.0316 57.0376 38.6503 58.8936 38.6503 61.2616V71.6936H33.2103V61.9976C33.2103 60.8029 32.9009 59.8749 32.2823 59.2136C31.6636 58.5523 30.8316 58.2216 29.7863 58.2216C28.7409 58.2216 27.9089 58.5523 27.2903 59.2136C26.6716 59.8749 26.3623 60.8029 26.3623 61.9976V71.6936H20.8903V48.0136H26.3623V56.2376C26.9169 55.4483 27.6743 54.8189 28.6343 54.3496C29.5943 53.8803 30.6716 53.6456 31.8663 53.6456ZM59.2847 62.4776C59.2847 62.9896 59.2528 63.5229 59.1888 64.0776H46.8048C46.8901 65.1869 47.2421 66.0403 47.8608 66.6376C48.5008 67.2136 49.2794 67.5016 50.1968 67.5016C51.5621 67.5016 52.5114 66.9256 53.0448 65.7736H58.8688C58.5701 66.9469 58.0261 68.0029 57.2368 68.9416C56.4688 69.8803 55.4981 70.6163 54.3248 71.1496C53.1514 71.6829 51.8394 71.9496 50.3888 71.9496C48.6394 71.9496 47.0821 71.5763 45.7168 70.8296C44.3514 70.0829 43.2848 69.0163 42.5168 67.6296C41.7488 66.2429 41.3648 64.6216 41.3648 62.7656C41.3648 60.9096 41.7381 59.2883 42.4848 57.9016C43.2528 56.5149 44.3194 55.4483 45.6848 54.7016C47.0501 53.9549 48.6181 53.5816 50.3888 53.5816C52.1168 53.5816 53.6528 53.9443 54.9968 54.6696C56.3408 55.3949 57.3861 56.4296 58.1328 57.7736C58.9008 59.1176 59.2847 60.6856 59.2847 62.4776ZM53.6848 61.0376C53.6848 60.0989 53.3648 59.3523 52.7248 58.7976C52.0848 58.2429 51.2848 57.9656 50.3248 57.9656C49.4074 57.9656 48.6288 58.2323 47.9888 58.7656C47.3701 59.2989 46.9861 60.0563 46.8368 61.0376H53.6848ZM82.5528 60.1736C83.8541 60.4509 84.8994 61.1016 85.6888 62.1256C86.4781 63.1283 86.8728 64.2803 86.8728 65.5816C86.8728 67.4589 86.2114 68.9523 84.8888 70.0616C83.5874 71.1496 81.7634 71.6936 79.4168 71.6936H68.9528V49.2296H79.0648C81.3474 49.2296 83.1288 49.7523 84.4088 50.7976C85.7101 51.8429 86.3608 53.2616 86.3608 55.0536C86.3608 56.3763 86.0088 57.4749 85.3048 58.3496C84.6221 59.2243 83.7048 59.8323 82.5528 60.1736ZM74.4248 58.3176H78.0088C78.9048 58.3176 79.5874 58.1256 80.0568 57.7416C80.5474 57.3363 80.7928 56.7496 80.7928 55.9816C80.7928 55.2136 80.5474 54.6269 80.0568 54.2216C79.5874 53.8163 78.9048 53.6136 78.0088 53.6136H74.4248V58.3176ZM78.4568 67.2776C79.3741 67.2776 80.0781 67.0749 80.5688 66.6696C81.0808 66.2429 81.3368 65.6349 81.3368 64.8456C81.3368 64.0563 81.0701 63.4376 80.5368 62.9896C80.0248 62.5416 79.3101 62.3176 78.3928 62.3176H74.4248V67.2776H78.4568ZM106.878 62.4776C106.878 62.9896 106.847 63.5229 106.783 64.0776H94.3985C94.4838 65.1869 94.8358 66.0403 95.4545 66.6376C96.0945 67.2136 96.8732 67.5016 97.7905 67.5016C99.1558 67.5016 100.105 66.9256 100.639 65.7736H106.463C106.164 66.9469 105.62 68.0029 104.831 68.9416C104.063 69.8803 103.092 70.6163 101.919 71.1496C100.745 71.6829 99.4332 71.9496 97.9825 71.9496C96.2332 71.9496 94.6758 71.5763 93.3105 70.8296C91.9452 70.0829 90.8785 69.0163 90.1105 67.6296C89.3425 66.2429 88.9585 64.6216 88.9585 62.7656C88.9585 60.9096 89.3318 59.2883 90.0785 57.9016C90.8465 56.5149 91.9132 55.4483 93.2785 54.7016C94.6438 53.9549 96.2118 53.5816 97.9825 53.5816C99.7105 53.5816 101.247 53.9443 102.591 54.6696C103.935 55.3949 104.98 56.4296 105.727 57.7736C106.495 59.1176 106.878 60.6856 106.878 62.4776ZM101.279 61.0376C101.279 60.0989 100.959 59.3523 100.319 58.7976C99.6785 58.2429 98.8785 57.9656 97.9185 57.9656C97.0012 57.9656 96.2225 58.2323 95.5825 58.7656C94.9638 59.2989 94.5798 60.0563 94.4305 61.0376H101.279ZM119.717 67.0536V71.6936H116.933C114.949 71.6936 113.403 71.2136 112.293 70.2536C111.184 69.2723 110.629 67.6829 110.629 65.4856V58.3816H108.453V53.8376H110.629V49.4856H116.101V53.8376H119.685V58.3816H116.101V65.5496C116.101 66.0829 116.229 66.4669 116.485 66.7016C116.741 66.9363 117.168 67.0536 117.765 67.0536H119.717ZM132.717 67.0536V71.6936H129.933C127.949 71.6936 126.403 71.2136 125.293 70.2536C124.184 69.2723 123.629 67.6829 123.629 65.4856V58.3816H121.453V53.8376H123.629V49.4856H129.101V53.8376H132.685V58.3816H129.101V65.5496C129.101 66.0829 129.229 66.4669 129.485 66.7016C129.741 66.9363 130.168 67.0536 130.765 67.0536H132.717ZM152.597 62.4776C152.597 62.9896 152.565 63.5229 152.501 64.0776H140.117C140.203 65.1869 140.555 66.0403 141.173 66.6376C141.813 67.2136 142.592 67.5016 143.509 67.5016C144.875 67.5016 145.824 66.9256 146.357 65.7736H152.181C151.883 66.9469 151.339 68.0029 150.549 68.9416C149.781 69.8803 148.811 70.6163 147.637 71.1496C146.464 71.6829 145.152 71.9496 143.701 71.9496C141.952 71.9496 140.395 71.5763 139.029 70.8296C137.664 70.0829 136.597 69.0163 135.829 67.6296C135.061 66.2429 134.677 64.6216 134.677 62.7656C134.677 60.9096 135.051 59.2883 135.797 57.9016C136.565 56.5149 137.632 55.4483 138.997 54.7016C140.363 53.9549 141.931 53.5816 143.701 53.5816C145.429 53.5816 146.965 53.9443 148.309 54.6696C149.653 55.3949 150.699 56.4296 151.445 57.7736C152.213 59.1176 152.597 60.6856 152.597 62.4776ZM146.997 61.0376C146.997 60.0989 146.677 59.3523 146.037 58.7976C145.397 58.2429 144.597 57.9656 143.637 57.9656C142.72 57.9656 141.941 58.2323 141.301 58.7656C140.683 59.2989 140.299 60.0563 140.149 61.0376H146.997ZM160.956 56.8136C161.596 55.8323 162.396 55.0643 163.356 54.5096C164.316 53.9336 165.383 53.6456 166.556 53.6456V59.4376H165.052C163.687 59.4376 162.663 59.7363 161.98 60.3336C161.297 60.9096 160.956 61.9336 160.956 63.4056V71.6936H155.484V53.8376H160.956V56.8136ZM184.081 71.9176C182.438 71.9176 180.966 71.6509 179.665 71.1176C178.363 70.5843 177.318 69.7949 176.529 68.7496C175.761 67.7043 175.355 66.4456 175.313 64.9736H181.137C181.222 65.8056 181.51 66.4456 182.001 66.8936C182.491 67.3203 183.131 67.5336 183.921 67.5336C184.731 67.5336 185.371 67.3523 185.841 66.9896C186.31 66.6056 186.545 66.0829 186.545 65.4216C186.545 64.8669 186.353 64.4083 185.969 64.0456C185.606 63.6829 185.147 63.3843 184.593 63.1496C184.059 62.9149 183.291 62.6483 182.289 62.3496C180.838 61.9016 179.654 61.4536 178.737 61.0056C177.819 60.5576 177.03 59.8963 176.369 59.0216C175.707 58.1469 175.377 57.0056 175.377 55.5976C175.377 53.5069 176.134 51.8749 177.649 50.7016C179.163 49.5069 181.137 48.9096 183.569 48.9096C186.043 48.9096 188.038 49.5069 189.553 50.7016C191.067 51.8749 191.878 53.5176 191.985 55.6296H186.065C186.022 54.9043 185.755 54.3389 185.265 53.9336C184.774 53.5069 184.145 53.2936 183.377 53.2936C182.715 53.2936 182.182 53.4749 181.777 53.8376C181.371 54.1789 181.169 54.6803 181.169 55.3416C181.169 56.0669 181.51 56.6323 182.193 57.0376C182.875 57.4429 183.942 57.8803 185.393 58.3496C186.843 58.8403 188.017 59.3096 188.913 59.7576C189.83 60.2056 190.619 60.8563 191.281 61.7096C191.942 62.5629 192.273 63.6616 192.273 65.0056C192.273 66.2856 191.942 67.4483 191.281 68.4936C190.641 69.5389 189.702 70.3709 188.465 70.9896C187.227 71.6083 185.766 71.9176 184.081 71.9176ZM203.768 71.9496C202.019 71.9496 200.44 71.5763 199.032 70.8296C197.646 70.0829 196.547 69.0163 195.736 67.6296C194.947 66.2429 194.552 64.6216 194.552 62.7656C194.552 60.9309 194.958 59.3203 195.768 57.9336C196.579 56.5256 197.688 55.4483 199.096 54.7016C200.504 53.9549 202.083 53.5816 203.832 53.5816C205.582 53.5816 207.16 53.9549 208.568 54.7016C209.976 55.4483 211.086 56.5256 211.896 57.9336C212.707 59.3203 213.112 60.9309 213.112 62.7656C213.112 64.6003 212.696 66.2216 211.864 67.6296C211.054 69.0163 209.934 70.0829 208.504 70.8296C207.096 71.5763 205.518 71.9496 203.768 71.9496ZM203.768 67.2136C204.814 67.2136 205.699 66.8296 206.424 66.0616C207.171 65.2936 207.544 64.1949 207.544 62.7656C207.544 61.3363 207.182 60.2376 206.456 59.4696C205.752 58.7016 204.878 58.3176 203.832 58.3176C202.766 58.3176 201.88 58.7016 201.176 59.4696C200.472 60.2163 200.12 61.3149 200.12 62.7656C200.12 64.1949 200.462 65.2936 201.144 66.0616C201.848 66.8296 202.723 67.2136 203.768 67.2136ZM221.487 48.0136V71.6936H216.015V48.0136H221.487ZM243.085 53.8376V71.6936H237.613V69.2616C237.058 70.0509 236.301 70.6909 235.341 71.1816C234.402 71.6509 233.357 71.8856 232.205 71.8856C230.839 71.8856 229.634 71.5869 228.589 70.9896C227.543 70.3709 226.733 69.4856 226.157 68.3336C225.581 67.1816 225.293 65.8269 225.293 64.2696V53.8376H230.733V63.5336C230.733 64.7283 231.042 65.6563 231.661 66.3176C232.279 66.9789 233.111 67.3096 234.157 67.3096C235.223 67.3096 236.066 66.9789 236.685 66.3176C237.303 65.6563 237.613 64.7283 237.613 63.5336V53.8376H243.085ZM256.967 67.0536V71.6936H254.183C252.199 71.6936 250.653 71.2136 249.543 70.2536C248.434 69.2723 247.879 67.6829 247.879 65.4856V58.3816H245.703V53.8376H247.879V49.4856H253.351V53.8376H256.935V58.3816H253.351V65.5496C253.351 66.0829 253.479 66.4669 253.735 66.7016C253.991 66.9363 254.418 67.0536 255.015 67.0536H256.967ZM262.767 51.9816C261.807 51.9816 261.018 51.7043 260.399 51.1496C259.802 50.5736 259.503 49.8696 259.503 49.0376C259.503 48.1843 259.802 47.4803 260.399 46.9256C261.018 46.3496 261.807 46.0616 262.767 46.0616C263.706 46.0616 264.474 46.3496 265.071 46.9256C265.69 47.4803 265.999 48.1843 265.999 49.0376C265.999 49.8696 265.69 50.5736 265.071 51.1496C264.474 51.7043 263.706 51.9816 262.767 51.9816ZM265.487 53.8376V71.6936H260.015V53.8376H265.487ZM277.581 71.9496C275.831 71.9496 274.253 71.5763 272.845 70.8296C271.458 70.0829 270.359 69.0163 269.549 67.6296C268.759 66.2429 268.365 64.6216 268.365 62.7656C268.365 60.9309 268.77 59.3203 269.581 57.9336C270.391 56.5256 271.501 55.4483 272.909 54.7016C274.317 53.9549 275.895 53.5816 277.645 53.5816C279.394 53.5816 280.973 53.9549 282.381 54.7016C283.789 55.4483 284.898 56.5256 285.709 57.9336C286.519 59.3203 286.925 60.9309 286.925 62.7656C286.925 64.6003 286.509 66.2216 285.677 67.6296C284.866 69.0163 283.746 70.0829 282.317 70.8296C280.909 71.5763 279.33 71.9496 277.581 71.9496ZM277.581 67.2136C278.626 67.2136 279.511 66.8296 280.237 66.0616C280.983 65.2936 281.357 64.1949 281.357 62.7656C281.357 61.3363 280.994 60.2376 280.269 59.4696C279.565 58.7016 278.69 58.3176 277.645 58.3176C276.578 58.3176 275.693 58.7016 274.989 59.4696C274.285 60.2163 273.933 61.3149 273.933 62.7656C273.933 64.1949 274.274 65.2936 274.957 66.0616C275.661 66.8296 276.535 67.2136 277.581 67.2136ZM300.708 53.6456C302.798 53.6456 304.462 54.3283 305.7 55.6936C306.958 57.0376 307.588 58.8936 307.588 61.2616V71.6936H302.148V61.9976C302.148 60.8029 301.838 59.8749 301.22 59.2136C300.601 58.5523 299.769 58.2216 298.724 58.2216C297.678 58.2216 296.846 58.5523 296.228 59.2136C295.609 59.8749 295.3 60.8029 295.3 61.9976V71.6936H289.828V53.8376H295.3V56.2056C295.854 55.4163 296.601 54.7976 297.54 54.3496C298.478 53.8803 299.534 53.6456 300.708 53.6456Z" fill="#F90000"/>
</mask>
<g mask="url(#mask0)">
<g filter="url(#filter0_f)">
<path d="M-11.6471 0.693604H360V88.2936H-11.6471V0.693604Z" fill="url(#paint0_angular)"/>
</g>
</g>
<defs>
<filter id="filter0_f" x="-41.6471" y="-29.3064" width="431.647" height="147.6" filterUnits="userSpaceOnUse" color-interpolation-filters="sRGB">
<feFlood flood-opacity="0" result="BackgroundImageFix"/>
<feBlend mode="normal" in="SourceGraphic" in2="BackgroundImageFix" result="shape"/>
<feGaussianBlur stdDeviation="15" result="effect1_foregroundBlur"/>
</filter>
<radialGradient id="paint0_angular" cx="0" cy="0" r="1" gradientUnits="userSpaceOnUse" gradientTransform="translate(174.177 44.4936) rotate(83.0777) scale(91.3948 388.037)">
<stop offset="0.104167" stop-color="#FFA800"/>
<stop offset="0.4375" stop-color="#FF3E9A"/>
<stop offset="0.530448" stop-color="#F45511"/>
<stop offset="0.885417" stop-color="#FFB800"/>
</radialGradient>
</defs>
</svg>
