<svg viewBox="0 0 14 11" fill="none" xmlns="http://www.w3.org/2000/svg">
<path d="M14 5.50341C14 5.22415 13.8713 4.93127 13.6711 4.74737L9.03064 0.326935C8.80184 0.108978 8.53013 0 8.27273 0C7.63636 0 7.2145 0.41548 7.2145 0.967183C7.2145 1.2805 7.35036 1.51889 7.55056 1.70279L9.1808 3.25573L10.6537 4.55666L9.11645 4.47492H1.12257C0.45046 4.47492 0 4.8904 0 5.50341C0 6.11641 0.45046 6.52508 1.12257 6.52508H9.11645L10.6609 6.45015L9.1808 7.74427L7.55056 9.2904C7.35751 9.48112 7.2145 9.71951 7.2145 10.026C7.2145 10.5777 7.63636 11 8.27273 11C8.53013 11 8.79469 10.891 9.02349 10.6799L13.6711 6.25263C13.8713 6.06873 14 5.77585 14 5.50341Z" fill="#ED6C53"/>
</svg>
