<svg viewBox="0 0 778 421" fill="none" xmlns="http://www.w3.org/2000/svg">
<g filter="url(#filter0_d)">
<rect x="103" y="19.6311" width="576" height="223.603" rx="24" fill="white"/>
</g>
<rect x="135" y="51.5745" width="129" height="10.9805" rx="4" fill="#EFEFEF"/>
<rect x="288" y="51.5745" width="334" height="11.9787" rx="4" fill="#EFEFEF"/>
<g filter="url(#filter1_d)">
<rect x="70" y="84.5159" width="576" height="223.603" rx="24" fill="white"/>
</g>
<rect x="158" y="116.459" width="293" height="11.9787" rx="3.27138" fill="#EFEFEF"/>
<g filter="url(#filter2_d)">
<rect x="33" y="151.397" width="576" height="223.603" rx="24" fill="white"/>
</g>
<path d="M72.132 339.51L71.802 341.05H73.072V342.3H71.532L71.172 344H69.842L70.202 342.3H68.382L68.022 344H66.702L67.062 342.3H65.552V341.05H67.332L67.662 339.51H66.162V338.26H67.932L68.282 336.6H69.602L69.252 338.26H71.072L71.422 336.6H72.752L72.402 338.26H73.682V339.51H72.132ZM70.802 339.51H68.982L68.652 341.05H70.472L70.802 339.51ZM77.2592 344.07C76.7725 344.07 76.3325 343.986 75.9392 343.82C75.5525 343.653 75.2458 343.413 75.0192 343.1C74.7925 342.786 74.6758 342.416 74.6692 341.99H76.1692C76.1892 342.276 76.2892 342.503 76.4692 342.67C76.6558 342.836 76.9092 342.92 77.2292 342.92C77.5558 342.92 77.8125 342.843 77.9992 342.69C78.1858 342.53 78.2792 342.323 78.2792 342.07C78.2792 341.863 78.2158 341.693 78.0892 341.56C77.9625 341.426 77.8025 341.323 77.6092 341.25C77.4225 341.17 77.1625 341.083 76.8292 340.99C76.3758 340.856 76.0058 340.726 75.7192 340.6C75.4392 340.466 75.1958 340.27 74.9892 340.01C74.7892 339.743 74.6892 339.39 74.6892 338.95C74.6892 338.536 74.7925 338.176 74.9992 337.87C75.2058 337.563 75.4958 337.33 75.8692 337.17C76.2425 337.003 76.6692 336.92 77.1492 336.92C77.8692 336.92 78.4525 337.096 78.8992 337.45C79.3525 337.796 79.6025 338.283 79.6492 338.91H78.1092C78.0958 338.67 77.9925 338.473 77.7992 338.32C77.6125 338.16 77.3625 338.08 77.0492 338.08C76.7758 338.08 76.5558 338.15 76.3892 338.29C76.2292 338.43 76.1492 338.633 76.1492 338.9C76.1492 339.086 76.2092 339.243 76.3292 339.37C76.4558 339.49 76.6092 339.59 76.7892 339.67C76.9758 339.743 77.2358 339.83 77.5692 339.93C78.0225 340.063 78.3925 340.196 78.6792 340.33C78.9658 340.463 79.2125 340.663 79.4192 340.93C79.6258 341.196 79.7292 341.546 79.7292 341.98C79.7292 342.353 79.6325 342.7 79.4392 343.02C79.2458 343.34 78.9625 343.596 78.5892 343.79C78.2158 343.976 77.7725 344.07 77.2592 344.07ZM83.4029 344.09C82.8696 344.09 82.3896 343.973 81.9629 343.74C81.5363 343.5 81.1996 343.163 80.9529 342.73C80.7129 342.296 80.5929 341.796 80.5929 341.23C80.5929 340.663 80.7163 340.163 80.9629 339.73C81.2163 339.296 81.5596 338.963 81.9929 338.73C82.4263 338.49 82.9096 338.37 83.4429 338.37C83.9763 338.37 84.4596 338.49 84.8929 338.73C85.3263 338.963 85.6663 339.296 85.9129 339.73C86.1663 340.163 86.2929 340.663 86.2929 341.23C86.2929 341.796 86.1629 342.296 85.9029 342.73C85.6496 343.163 85.3029 343.5 84.8629 343.74C84.4296 343.973 83.9429 344.09 83.4029 344.09ZM83.4029 342.87C83.6563 342.87 83.8929 342.81 84.1129 342.69C84.3396 342.563 84.5196 342.376 84.6529 342.13C84.7863 341.883 84.8529 341.583 84.8529 341.23C84.8529 340.703 84.7129 340.3 84.4329 340.02C84.1596 339.733 83.8229 339.59 83.4229 339.59C83.0229 339.59 82.6863 339.733 82.4129 340.02C82.1463 340.3 82.0129 340.703 82.0129 341.23C82.0129 341.756 82.1429 342.163 82.4029 342.45C82.6696 342.73 83.0029 342.87 83.4029 342.87ZM89.8599 339.61H88.8899V344H87.4699V339.61H86.8399V338.46H87.4699V338.18C87.4699 337.5 87.6632 337 88.0499 336.68C88.4365 336.36 89.0199 336.21 89.7999 336.23V337.41C89.4599 337.403 89.2232 337.46 89.0899 337.58C88.9565 337.7 88.8899 337.916 88.8899 338.23V338.46H89.8599V339.61ZM92.3971 339.61V342.29C92.3971 342.476 92.4405 342.613 92.5271 342.7C92.6205 342.78 92.7738 342.82 92.9871 342.82H93.6371V344H92.7571C91.5771 344 90.9871 343.426 90.9871 342.28V339.61H90.3271V338.46H90.9871V337.09H92.3971V338.46H93.6371V339.61H92.3971ZM102.324 338.46L100.704 344H99.1941L98.1841 340.13L97.1741 344H95.6541L94.0241 338.46H95.4441L96.4241 342.68L97.4841 338.46H98.9641L100.004 342.67L100.984 338.46H102.324ZM102.722 341.21C102.722 340.65 102.832 340.153 103.052 339.72C103.278 339.286 103.582 338.953 103.962 338.72C104.348 338.486 104.778 338.37 105.252 338.37C105.665 338.37 106.025 338.453 106.332 338.62C106.645 338.786 106.895 338.996 107.082 339.25V338.46H108.492V344H107.082V343.19C106.902 343.45 106.652 343.666 106.332 343.84C106.018 344.006 105.655 344.09 105.242 344.09C104.775 344.09 104.348 343.97 103.962 343.73C103.582 343.49 103.278 343.153 103.052 342.72C102.832 342.28 102.722 341.776 102.722 341.21ZM107.082 341.23C107.082 340.89 107.015 340.6 106.882 340.36C106.748 340.113 106.568 339.926 106.342 339.8C106.115 339.666 105.872 339.6 105.612 339.6C105.352 339.6 105.112 339.663 104.892 339.79C104.672 339.916 104.492 340.103 104.352 340.35C104.218 340.59 104.152 340.876 104.152 341.21C104.152 341.543 104.218 341.836 104.352 342.09C104.492 342.336 104.672 342.526 104.892 342.66C105.118 342.793 105.358 342.86 105.612 342.86C105.872 342.86 106.115 342.796 106.342 342.67C106.568 342.536 106.748 342.35 106.882 342.11C107.015 341.863 107.082 341.57 107.082 341.23ZM111.259 339.32C111.439 339.026 111.672 338.796 111.959 338.63C112.252 338.463 112.586 338.38 112.959 338.38V339.85H112.589C112.149 339.85 111.816 339.953 111.589 340.16C111.369 340.366 111.259 340.726 111.259 341.24V344H109.859V338.46H111.259V339.32ZM119.052 341.11C119.052 341.31 119.039 341.49 119.012 341.65H114.962C114.995 342.05 115.135 342.363 115.382 342.59C115.629 342.816 115.932 342.93 116.292 342.93C116.812 342.93 117.182 342.706 117.402 342.26H118.912C118.752 342.793 118.445 343.233 117.992 343.58C117.539 343.92 116.982 344.09 116.322 344.09C115.789 344.09 115.309 343.973 114.882 343.74C114.462 343.5 114.132 343.163 113.892 342.73C113.659 342.296 113.542 341.796 113.542 341.23C113.542 340.656 113.659 340.153 113.892 339.72C114.125 339.286 114.452 338.953 114.872 338.72C115.292 338.486 115.775 338.37 116.322 338.37C116.849 338.37 117.319 338.483 117.732 338.71C118.152 338.936 118.475 339.26 118.702 339.68C118.935 340.093 119.052 340.57 119.052 341.11ZM117.602 340.71C117.595 340.35 117.465 340.063 117.212 339.85C116.959 339.63 116.649 339.52 116.282 339.52C115.935 339.52 115.642 339.626 115.402 339.84C115.169 340.046 115.025 340.336 114.972 340.71H117.602ZM123.857 338.15V339.9H126.207V341.01H123.857V342.86H126.507V344H122.457V337.01H126.507V338.15H123.857ZM130.849 338.38C131.509 338.38 132.042 338.59 132.449 339.01C132.856 339.423 133.059 340.003 133.059 340.75V344H131.659V340.94C131.659 340.5 131.549 340.163 131.329 339.93C131.109 339.69 130.809 339.57 130.429 339.57C130.042 339.57 129.736 339.69 129.509 339.93C129.289 340.163 129.179 340.5 129.179 340.94V344H127.779V338.46H129.179V339.15C129.366 338.91 129.602 338.723 129.889 338.59C130.182 338.45 130.502 338.38 130.849 338.38ZM136.56 338.37C136.974 338.37 137.337 338.453 137.65 338.62C137.964 338.78 138.21 338.99 138.39 339.25V338.46H139.8V344.04C139.8 344.553 139.697 345.01 139.49 345.41C139.284 345.816 138.974 346.136 138.56 346.37C138.147 346.61 137.647 346.73 137.06 346.73C136.274 346.73 135.627 346.546 135.12 346.18C134.62 345.813 134.337 345.313 134.27 344.68H135.66C135.734 344.933 135.89 345.133 136.13 345.28C136.377 345.433 136.674 345.51 137.02 345.51C137.427 345.51 137.757 345.386 138.01 345.14C138.264 344.9 138.39 344.533 138.39 344.04V343.18C138.21 343.44 137.96 343.656 137.64 343.83C137.327 344.003 136.967 344.09 136.56 344.09C136.094 344.09 135.667 343.97 135.28 343.73C134.894 343.49 134.587 343.153 134.36 342.72C134.14 342.28 134.03 341.776 134.03 341.21C134.03 340.65 134.14 340.153 134.36 339.72C134.587 339.286 134.89 338.953 135.27 338.72C135.657 338.486 136.087 338.37 136.56 338.37ZM138.39 341.23C138.39 340.89 138.324 340.6 138.19 340.36C138.057 340.113 137.877 339.926 137.65 339.8C137.424 339.666 137.18 339.6 136.92 339.6C136.66 339.6 136.42 339.663 136.2 339.79C135.98 339.916 135.8 340.103 135.66 340.35C135.527 340.59 135.46 340.876 135.46 341.21C135.46 341.543 135.527 341.836 135.66 342.09C135.8 342.336 135.98 342.526 136.2 342.66C136.427 342.793 136.667 342.86 136.92 342.86C137.18 342.86 137.424 342.796 137.65 342.67C137.877 342.536 138.057 342.35 138.19 342.11C138.324 341.863 138.39 341.57 138.39 341.23ZM141.878 337.8C141.631 337.8 141.424 337.723 141.258 337.57C141.098 337.41 141.018 337.213 141.018 336.98C141.018 336.746 141.098 336.553 141.258 336.4C141.424 336.24 141.631 336.16 141.878 336.16C142.124 336.16 142.328 336.24 142.488 336.4C142.654 336.553 142.738 336.746 142.738 336.98C142.738 337.213 142.654 337.41 142.488 337.57C142.328 337.723 142.124 337.8 141.878 337.8ZM142.568 338.46V344H141.168V338.46H142.568ZM147.021 338.38C147.681 338.38 148.214 338.59 148.621 339.01C149.027 339.423 149.231 340.003 149.231 340.75V344H147.831V340.94C147.831 340.5 147.721 340.163 147.501 339.93C147.281 339.69 146.981 339.57 146.601 339.57C146.214 339.57 145.907 339.69 145.681 339.93C145.461 340.163 145.351 340.5 145.351 340.94V344H143.951V338.46H145.351V339.15C145.537 338.91 145.774 338.723 146.061 338.59C146.354 338.45 146.674 338.38 147.021 338.38ZM155.712 341.11C155.712 341.31 155.699 341.49 155.672 341.65H151.622C151.655 342.05 151.795 342.363 152.042 342.59C152.289 342.816 152.592 342.93 152.952 342.93C153.472 342.93 153.842 342.706 154.062 342.26H155.572C155.412 342.793 155.105 343.233 154.652 343.58C154.199 343.92 153.642 344.09 152.982 344.09C152.449 344.09 151.969 343.973 151.542 343.74C151.122 343.5 150.792 343.163 150.552 342.73C150.319 342.296 150.202 341.796 150.202 341.23C150.202 340.656 150.319 340.153 150.552 339.72C150.785 339.286 151.112 338.953 151.532 338.72C151.952 338.486 152.435 338.37 152.982 338.37C153.509 338.37 153.979 338.483 154.392 338.71C154.812 338.936 155.135 339.26 155.362 339.68C155.595 340.093 155.712 340.57 155.712 341.11ZM154.262 340.71C154.255 340.35 154.125 340.063 153.872 339.85C153.619 339.63 153.309 339.52 152.942 339.52C152.595 339.52 152.302 339.626 152.062 339.84C151.829 340.046 151.685 340.336 151.632 340.71H154.262ZM161.884 341.11C161.884 341.31 161.871 341.49 161.844 341.65H157.794C157.827 342.05 157.967 342.363 158.214 342.59C158.461 342.816 158.764 342.93 159.124 342.93C159.644 342.93 160.014 342.706 160.234 342.26H161.744C161.584 342.793 161.277 343.233 160.824 343.58C160.371 343.92 159.814 344.09 159.154 344.09C158.621 344.09 158.141 343.973 157.714 343.74C157.294 343.5 156.964 343.163 156.724 342.73C156.491 342.296 156.374 341.796 156.374 341.23C156.374 340.656 156.491 340.153 156.724 339.72C156.957 339.286 157.284 338.953 157.704 338.72C158.124 338.486 158.607 338.37 159.154 338.37C159.681 338.37 160.151 338.483 160.564 338.71C160.984 338.936 161.307 339.26 161.534 339.68C161.767 340.093 161.884 340.57 161.884 341.11ZM160.434 340.71C160.427 340.35 160.297 340.063 160.044 339.85C159.791 339.63 159.481 339.52 159.114 339.52C158.767 339.52 158.474 339.626 158.234 339.84C158.001 340.046 157.857 340.336 157.804 340.71H160.434ZM164.306 339.32C164.486 339.026 164.719 338.796 165.006 338.63C165.299 338.463 165.632 338.38 166.006 338.38V339.85H165.636C165.196 339.85 164.862 339.953 164.636 340.16C164.416 340.366 164.306 340.726 164.306 341.24V344H162.906V338.46H164.306V339.32ZM169.069 344.09C168.615 344.09 168.209 344.01 167.849 343.85C167.489 343.683 167.202 343.46 166.989 343.18C166.782 342.9 166.669 342.59 166.649 342.25H168.059C168.085 342.463 168.189 342.64 168.369 342.78C168.555 342.92 168.785 342.99 169.059 342.99C169.325 342.99 169.532 342.936 169.679 342.83C169.832 342.723 169.909 342.586 169.909 342.42C169.909 342.24 169.815 342.106 169.629 342.02C169.449 341.926 169.159 341.826 168.759 341.72C168.345 341.62 168.005 341.516 167.739 341.41C167.479 341.303 167.252 341.14 167.059 340.92C166.872 340.7 166.779 340.403 166.779 340.03C166.779 339.723 166.865 339.443 167.039 339.19C167.219 338.936 167.472 338.736 167.799 338.59C168.132 338.443 168.522 338.37 168.969 338.37C169.629 338.37 170.155 338.536 170.549 338.87C170.942 339.196 171.159 339.64 171.199 340.2H169.859C169.839 339.98 169.745 339.806 169.579 339.68C169.419 339.546 169.202 339.48 168.929 339.48C168.675 339.48 168.479 339.526 168.339 339.62C168.205 339.713 168.139 339.843 168.139 340.01C168.139 340.196 168.232 340.34 168.419 340.44C168.605 340.533 168.895 340.63 169.289 340.73C169.689 340.83 170.019 340.933 170.279 341.04C170.539 341.146 170.762 341.313 170.949 341.54C171.142 341.76 171.242 342.053 171.249 342.42C171.249 342.74 171.159 343.026 170.979 343.28C170.805 343.533 170.552 343.733 170.219 343.88C169.892 344.02 169.509 344.09 169.069 344.09Z" fill="#B1B1B1"/>
<path d="M190.972 339.51L190.642 341.05H191.912V342.3H190.372L190.012 344H188.682L189.042 342.3H187.222L186.862 344H185.542L185.902 342.3H184.392V341.05H186.172L186.502 339.51H185.002V338.26H186.772L187.122 336.6H188.442L188.092 338.26H189.912L190.262 336.6H191.592L191.242 338.26H192.522V339.51H190.972ZM189.642 339.51H187.822L187.492 341.05H189.312L189.642 339.51ZM197.999 337.02V338.15H195.089V339.94H197.319V341.05H195.089V344H193.689V337.02H197.999ZM199.702 337.8C199.455 337.8 199.248 337.723 199.082 337.57C198.922 337.41 198.842 337.213 198.842 336.98C198.842 336.746 198.922 336.553 199.082 336.4C199.248 336.24 199.455 336.16 199.702 336.16C199.948 336.16 200.152 336.24 200.312 336.4C200.478 336.553 200.562 336.746 200.562 336.98C200.562 337.213 200.478 337.41 200.312 337.57C200.152 337.723 199.948 337.8 199.702 337.8ZM200.392 338.46V344H198.992V338.46H200.392ZM204.845 338.38C205.505 338.38 206.038 338.59 206.445 339.01C206.852 339.423 207.055 340.003 207.055 340.75V344H205.655V340.94C205.655 340.5 205.545 340.163 205.325 339.93C205.105 339.69 204.805 339.57 204.425 339.57C204.038 339.57 203.732 339.69 203.505 339.93C203.285 340.163 203.175 340.5 203.175 340.94V344H201.775V338.46H203.175V339.15C203.362 338.91 203.598 338.723 203.885 338.59C204.178 338.45 204.498 338.38 204.845 338.38ZM208.026 341.21C208.026 340.65 208.136 340.153 208.356 339.72C208.583 339.286 208.886 338.953 209.266 338.72C209.653 338.486 210.083 338.37 210.556 338.37C210.97 338.37 211.33 338.453 211.636 338.62C211.95 338.786 212.2 338.996 212.386 339.25V338.46H213.796V344H212.386V343.19C212.206 343.45 211.956 343.666 211.636 343.84C211.323 344.006 210.96 344.09 210.546 344.09C210.08 344.09 209.653 343.97 209.266 343.73C208.886 343.49 208.583 343.153 208.356 342.72C208.136 342.28 208.026 341.776 208.026 341.21ZM212.386 341.23C212.386 340.89 212.32 340.6 212.186 340.36C212.053 340.113 211.873 339.926 211.646 339.8C211.42 339.666 211.176 339.6 210.916 339.6C210.656 339.6 210.416 339.663 210.196 339.79C209.976 339.916 209.796 340.103 209.656 340.35C209.523 340.59 209.456 340.876 209.456 341.21C209.456 341.543 209.523 341.836 209.656 342.09C209.796 342.336 209.976 342.526 210.196 342.66C210.423 342.793 210.663 342.86 210.916 342.86C211.176 342.86 211.42 342.796 211.646 342.67C211.873 342.536 212.053 342.35 212.186 342.11C212.32 341.863 212.386 341.57 212.386 341.23ZM218.234 338.38C218.894 338.38 219.427 338.59 219.834 339.01C220.24 339.423 220.444 340.003 220.444 340.75V344H219.044V340.94C219.044 340.5 218.934 340.163 218.714 339.93C218.494 339.69 218.194 339.57 217.814 339.57C217.427 339.57 217.12 339.69 216.894 339.93C216.674 340.163 216.564 340.5 216.564 340.94V344H215.164V338.46H216.564V339.15C216.75 338.91 216.987 338.723 217.274 338.59C217.567 338.45 217.887 338.38 218.234 338.38ZM221.415 341.23C221.415 340.656 221.532 340.156 221.765 339.73C221.998 339.296 222.322 338.963 222.735 338.73C223.148 338.49 223.622 338.37 224.155 338.37C224.842 338.37 225.408 338.543 225.855 338.89C226.308 339.23 226.612 339.71 226.765 340.33H225.255C225.175 340.09 225.038 339.903 224.845 339.77C224.658 339.63 224.425 339.56 224.145 339.56C223.745 339.56 223.428 339.706 223.195 340C222.962 340.286 222.845 340.696 222.845 341.23C222.845 341.756 222.962 342.166 223.195 342.46C223.428 342.746 223.745 342.89 224.145 342.89C224.712 342.89 225.082 342.636 225.255 342.13H226.765C226.612 342.73 226.308 343.206 225.855 343.56C225.402 343.913 224.835 344.09 224.155 344.09C223.622 344.09 223.148 343.973 222.735 343.74C222.322 343.5 221.998 343.166 221.765 342.74C221.532 342.306 221.415 341.803 221.415 341.23ZM228.501 337.8C228.254 337.8 228.047 337.723 227.881 337.57C227.721 337.41 227.641 337.213 227.641 336.98C227.641 336.746 227.721 336.553 227.881 336.4C228.047 336.24 228.254 336.16 228.501 336.16C228.747 336.16 228.951 336.24 229.111 336.4C229.277 336.553 229.361 336.746 229.361 336.98C229.361 337.213 229.277 337.41 229.111 337.57C228.951 337.723 228.747 337.8 228.501 337.8ZM229.191 338.46V344H227.791V338.46H229.191ZM230.214 341.21C230.214 340.65 230.324 340.153 230.544 339.72C230.77 339.286 231.074 338.953 231.454 338.72C231.84 338.486 232.27 338.37 232.744 338.37C233.157 338.37 233.517 338.453 233.824 338.62C234.137 338.786 234.387 338.996 234.574 339.25V338.46H235.984V344H234.574V343.19C234.394 343.45 234.144 343.666 233.824 343.84C233.51 344.006 233.147 344.09 232.734 344.09C232.267 344.09 231.84 343.97 231.454 343.73C231.074 343.49 230.77 343.153 230.544 342.72C230.324 342.28 230.214 341.776 230.214 341.21ZM234.574 341.23C234.574 340.89 234.507 340.6 234.374 340.36C234.24 340.113 234.06 339.926 233.834 339.8C233.607 339.666 233.364 339.6 233.104 339.6C232.844 339.6 232.604 339.663 232.384 339.79C232.164 339.916 231.984 340.103 231.844 340.35C231.71 340.59 231.644 340.876 231.644 341.21C231.644 341.543 231.71 341.836 231.844 342.09C231.984 342.336 232.164 342.526 232.384 342.66C232.61 342.793 232.85 342.86 233.104 342.86C233.364 342.86 233.607 342.796 233.834 342.67C234.06 342.536 234.24 342.35 234.374 342.11C234.507 341.863 234.574 341.57 234.574 341.23ZM238.751 336.6V344H237.351V336.6H238.751ZM243.917 338.15V339.9H246.267V341.01H243.917V342.86H246.567V344H242.517V337.01H246.567V338.15H243.917ZM250.899 344L249.759 342.28L248.749 344H247.249L249.059 341.22L247.229 338.46H248.809L249.939 340.17L250.959 338.46H252.459L250.639 341.22L252.479 344H250.899ZM254.64 339.26C254.82 339.006 255.066 338.796 255.38 338.63C255.7 338.456 256.063 338.37 256.47 338.37C256.943 338.37 257.37 338.486 257.75 338.72C258.136 338.953 258.44 339.286 258.66 339.72C258.886 340.146 259 340.643 259 341.21C259 341.776 258.886 342.28 258.66 342.72C258.44 343.153 258.136 343.49 257.75 343.73C257.37 343.97 256.943 344.09 256.47 344.09C256.063 344.09 255.703 344.006 255.39 343.84C255.083 343.673 254.833 343.463 254.64 343.21V346.64H253.24V338.46H254.64V339.26ZM257.57 341.21C257.57 340.876 257.5 340.59 257.36 340.35C257.226 340.103 257.046 339.916 256.82 339.79C256.6 339.663 256.36 339.6 256.1 339.6C255.846 339.6 255.606 339.666 255.38 339.8C255.16 339.926 254.98 340.113 254.84 340.36C254.706 340.606 254.64 340.896 254.64 341.23C254.64 341.563 254.706 341.853 254.84 342.1C254.98 342.346 255.16 342.536 255.38 342.67C255.606 342.796 255.846 342.86 256.1 342.86C256.36 342.86 256.6 342.793 256.82 342.66C257.046 342.526 257.226 342.336 257.36 342.09C257.5 341.843 257.57 341.55 257.57 341.21ZM265.167 341.11C265.167 341.31 265.154 341.49 265.127 341.65H261.077C261.11 342.05 261.25 342.363 261.497 342.59C261.744 342.816 262.047 342.93 262.407 342.93C262.927 342.93 263.297 342.706 263.517 342.26H265.027C264.867 342.793 264.56 343.233 264.107 343.58C263.654 343.92 263.097 344.09 262.437 344.09C261.904 344.09 261.424 343.973 260.997 343.74C260.577 343.5 260.247 343.163 260.007 342.73C259.774 342.296 259.657 341.796 259.657 341.23C259.657 340.656 259.774 340.153 260.007 339.72C260.24 339.286 260.567 338.953 260.987 338.72C261.407 338.486 261.89 338.37 262.437 338.37C262.964 338.37 263.434 338.483 263.847 338.71C264.267 338.936 264.59 339.26 264.817 339.68C265.05 340.093 265.167 340.57 265.167 341.11ZM263.717 340.71C263.71 340.35 263.58 340.063 263.327 339.85C263.074 339.63 262.764 339.52 262.397 339.52C262.05 339.52 261.757 339.626 261.517 339.84C261.284 340.046 261.14 340.336 261.087 340.71H263.717ZM267.589 339.32C267.769 339.026 268.002 338.796 268.289 338.63C268.582 338.463 268.916 338.38 269.289 338.38V339.85H268.919C268.479 339.85 268.146 339.953 267.919 340.16C267.699 340.366 267.589 340.726 267.589 341.24V344H266.189V338.46H267.589V339.32ZM271.862 339.61V342.29C271.862 342.476 271.905 342.613 271.992 342.7C272.085 342.78 272.239 342.82 272.452 342.82H273.102V344H272.222C271.042 344 270.452 343.426 270.452 342.28V339.61H269.792V338.46H270.452V337.09H271.862V338.46H273.102V339.61H271.862ZM276.229 344.09C275.776 344.09 275.369 344.01 275.009 343.85C274.649 343.683 274.362 343.46 274.149 343.18C273.942 342.9 273.829 342.59 273.809 342.25H275.219C275.246 342.463 275.349 342.64 275.529 342.78C275.716 342.92 275.946 342.99 276.219 342.99C276.486 342.99 276.692 342.936 276.839 342.83C276.992 342.723 277.069 342.586 277.069 342.42C277.069 342.24 276.976 342.106 276.789 342.02C276.609 341.926 276.319 341.826 275.919 341.72C275.506 341.62 275.166 341.516 274.899 341.41C274.639 341.303 274.412 341.14 274.219 340.92C274.032 340.7 273.939 340.403 273.939 340.03C273.939 339.723 274.026 339.443 274.199 339.19C274.379 338.936 274.632 338.736 274.959 338.59C275.292 338.443 275.682 338.37 276.129 338.37C276.789 338.37 277.316 338.536 277.709 338.87C278.102 339.196 278.319 339.64 278.359 340.2H277.019C276.999 339.98 276.906 339.806 276.739 339.68C276.579 339.546 276.362 339.48 276.089 339.48C275.836 339.48 275.639 339.526 275.499 339.62C275.366 339.713 275.299 339.843 275.299 340.01C275.299 340.196 275.392 340.34 275.579 340.44C275.766 340.533 276.056 340.63 276.449 340.73C276.849 340.83 277.179 340.933 277.439 341.04C277.699 341.146 277.922 341.313 278.109 341.54C278.302 341.76 278.402 342.053 278.409 342.42C278.409 342.74 278.319 343.026 278.139 343.28C277.966 343.533 277.712 343.733 277.379 343.88C277.052 344.02 276.669 344.09 276.229 344.09Z" fill="#B1B1B1"/>
<path d="M298.288 339.51L297.958 341.05H299.228V342.3H297.688L297.328 344H295.998L296.358 342.3H294.538L294.178 344H292.858L293.218 342.3H291.708V341.05H293.488L293.818 339.51H292.318V338.26H294.088L294.438 336.6H295.758L295.408 338.26H297.228L297.578 336.6H298.908L298.558 338.26H299.838V339.51H298.288ZM296.958 339.51H295.138L294.808 341.05H296.628L296.958 339.51ZM300.665 340.5C300.665 339.813 300.819 339.2 301.125 338.66C301.439 338.113 301.862 337.69 302.395 337.39C302.935 337.083 303.539 336.93 304.205 336.93C304.985 336.93 305.669 337.13 306.255 337.53C306.842 337.93 307.252 338.483 307.485 339.19H305.875C305.715 338.856 305.489 338.606 305.195 338.44C304.909 338.273 304.575 338.19 304.195 338.19C303.789 338.19 303.425 338.286 303.105 338.48C302.792 338.666 302.545 338.933 302.365 339.28C302.192 339.626 302.105 340.033 302.105 340.5C302.105 340.96 302.192 341.366 302.365 341.72C302.545 342.066 302.792 342.336 303.105 342.53C303.425 342.716 303.789 342.81 304.195 342.81C304.575 342.81 304.909 342.726 305.195 342.56C305.489 342.386 305.715 342.133 305.875 341.8H307.485C307.252 342.513 306.842 343.07 306.255 343.47C305.675 343.863 304.992 344.06 304.205 344.06C303.539 344.06 302.935 343.91 302.395 343.61C301.862 343.303 301.439 342.88 301.125 342.34C300.819 341.8 300.665 341.186 300.665 340.5ZM310.081 339.32C310.261 339.026 310.495 338.796 310.781 338.63C311.075 338.463 311.408 338.38 311.781 338.38V339.85H311.411C310.971 339.85 310.638 339.953 310.411 340.16C310.191 340.366 310.081 340.726 310.081 341.24V344H308.681V338.46H310.081V339.32ZM317.874 341.11C317.874 341.31 317.861 341.49 317.834 341.65H313.784C313.818 342.05 313.958 342.363 314.204 342.59C314.451 342.816 314.754 342.93 315.114 342.93C315.634 342.93 316.004 342.706 316.224 342.26H317.734C317.574 342.793 317.268 343.233 316.814 343.58C316.361 343.92 315.804 344.09 315.144 344.09C314.611 344.09 314.131 343.973 313.704 343.74C313.284 343.5 312.954 343.163 312.714 342.73C312.481 342.296 312.364 341.796 312.364 341.23C312.364 340.656 312.481 340.153 312.714 339.72C312.948 339.286 313.274 338.953 313.694 338.72C314.114 338.486 314.598 338.37 315.144 338.37C315.671 338.37 316.141 338.483 316.554 338.71C316.974 338.936 317.298 339.26 317.524 339.68C317.758 340.093 317.874 340.57 317.874 341.11ZM316.424 340.71C316.418 340.35 316.288 340.063 316.034 339.85C315.781 339.63 315.471 339.52 315.104 339.52C314.758 339.52 314.464 339.626 314.224 339.84C313.991 340.046 313.848 340.336 313.794 340.71H316.424ZM318.536 341.21C318.536 340.65 318.646 340.153 318.866 339.72C319.093 339.286 319.396 338.953 319.776 338.72C320.163 338.486 320.593 338.37 321.066 338.37C321.479 338.37 321.839 338.453 322.146 338.62C322.459 338.786 322.709 338.996 322.896 339.25V338.46H324.306V344H322.896V343.19C322.716 343.45 322.466 343.666 322.146 343.84C321.833 344.006 321.469 344.09 321.056 344.09C320.589 344.09 320.163 343.97 319.776 343.73C319.396 343.49 319.093 343.153 318.866 342.72C318.646 342.28 318.536 341.776 318.536 341.21ZM322.896 341.23C322.896 340.89 322.829 340.6 322.696 340.36C322.563 340.113 322.383 339.926 322.156 339.8C321.929 339.666 321.686 339.6 321.426 339.6C321.166 339.6 320.926 339.663 320.706 339.79C320.486 339.916 320.306 340.103 320.166 340.35C320.033 340.59 319.966 340.876 319.966 341.21C319.966 341.543 320.033 341.836 320.166 342.09C320.306 342.336 320.486 342.526 320.706 342.66C320.933 342.793 321.173 342.86 321.426 342.86C321.686 342.86 321.929 342.796 322.156 342.67C322.383 342.536 322.563 342.35 322.696 342.11C322.829 341.863 322.896 341.57 322.896 341.23ZM327.303 339.61V342.29C327.303 342.476 327.347 342.613 327.433 342.7C327.527 342.78 327.68 342.82 327.893 342.82H328.543V344H327.663C326.483 344 325.893 343.426 325.893 342.28V339.61H325.233V338.46H325.893V337.09H327.303V338.46H328.543V339.61H327.303ZM330.26 337.8C330.014 337.8 329.807 337.723 329.64 337.57C329.48 337.41 329.4 337.213 329.4 336.98C329.4 336.746 329.48 336.553 329.64 336.4C329.807 336.24 330.014 336.16 330.26 336.16C330.507 336.16 330.71 336.24 330.87 336.4C331.037 336.553 331.12 336.746 331.12 336.98C331.12 337.213 331.037 337.41 330.87 337.57C330.71 337.723 330.507 337.8 330.26 337.8ZM330.95 338.46V344H329.55V338.46H330.95ZM334.644 342.71L336.044 338.46H337.534L335.484 344H333.784L331.744 338.46H333.244L334.644 342.71ZM343.47 341.11C343.47 341.31 343.457 341.49 343.43 341.65H339.38C339.413 342.05 339.553 342.363 339.8 342.59C340.047 342.816 340.35 342.93 340.71 342.93C341.23 342.93 341.6 342.706 341.82 342.26H343.33C343.17 342.793 342.863 343.233 342.41 343.58C341.957 343.92 341.4 344.09 340.74 344.09C340.207 344.09 339.727 343.973 339.3 343.74C338.88 343.5 338.55 343.163 338.31 342.73C338.077 342.296 337.96 341.796 337.96 341.23C337.96 340.656 338.077 340.153 338.31 339.72C338.543 339.286 338.87 338.953 339.29 338.72C339.71 338.486 340.193 338.37 340.74 338.37C341.267 338.37 341.737 338.483 342.15 338.71C342.57 338.936 342.893 339.26 343.12 339.68C343.353 340.093 343.47 340.57 343.47 341.11ZM342.02 340.71C342.013 340.35 341.883 340.063 341.63 339.85C341.377 339.63 341.067 339.52 340.7 339.52C340.353 339.52 340.06 339.626 339.82 339.84C339.587 340.046 339.443 340.336 339.39 340.71H342.02ZM354.485 337.02V344H353.085V339.46L351.215 344H350.155L348.275 339.46V344H346.875V337.02H348.465L350.685 342.21L352.905 337.02H354.485ZM355.509 341.21C355.509 340.65 355.619 340.153 355.839 339.72C356.065 339.286 356.369 338.953 356.749 338.72C357.135 338.486 357.565 338.37 358.039 338.37C358.452 338.37 358.812 338.453 359.119 338.62C359.432 338.786 359.682 338.996 359.869 339.25V338.46H361.279V344H359.869V343.19C359.689 343.45 359.439 343.666 359.119 343.84C358.805 344.006 358.442 344.09 358.029 344.09C357.562 344.09 357.135 343.97 356.749 343.73C356.369 343.49 356.065 343.153 355.839 342.72C355.619 342.28 355.509 341.776 355.509 341.21ZM359.869 341.23C359.869 340.89 359.802 340.6 359.669 340.36C359.535 340.113 359.355 339.926 359.129 339.8C358.902 339.666 358.659 339.6 358.399 339.6C358.139 339.6 357.899 339.663 357.679 339.79C357.459 339.916 357.279 340.103 357.139 340.35C357.005 340.59 356.939 340.876 356.939 341.21C356.939 341.543 357.005 341.836 357.139 342.09C357.279 342.336 357.459 342.526 357.679 342.66C357.905 342.793 358.145 342.86 358.399 342.86C358.659 342.86 358.902 342.796 359.129 342.67C359.355 342.536 359.535 342.35 359.669 342.11C359.802 341.863 359.869 341.57 359.869 341.23ZM364.046 339.32C364.226 339.026 364.459 338.796 364.746 338.63C365.039 338.463 365.373 338.38 365.746 338.38V339.85H365.376C364.936 339.85 364.603 339.953 364.376 340.16C364.156 340.366 364.046 340.726 364.046 341.24V344H362.646V338.46H364.046V339.32ZM369.969 344L368.089 341.64V344H366.689V336.6H368.089V340.81L369.949 338.46H371.769L369.329 341.24L371.789 344H369.969ZM377.679 341.11C377.679 341.31 377.666 341.49 377.639 341.65H373.589C373.622 342.05 373.762 342.363 374.009 342.59C374.256 342.816 374.559 342.93 374.919 342.93C375.439 342.93 375.809 342.706 376.029 342.26H377.539C377.379 342.793 377.072 343.233 376.619 343.58C376.166 343.92 375.609 344.09 374.949 344.09C374.416 344.09 373.936 343.973 373.509 343.74C373.089 343.5 372.759 343.163 372.519 342.73C372.286 342.296 372.169 341.796 372.169 341.23C372.169 340.656 372.286 340.153 372.519 339.72C372.752 339.286 373.079 338.953 373.499 338.72C373.919 338.486 374.402 338.37 374.949 338.37C375.476 338.37 375.946 338.483 376.359 338.71C376.779 338.936 377.102 339.26 377.329 339.68C377.562 340.093 377.679 340.57 377.679 341.11ZM376.229 340.71C376.222 340.35 376.092 340.063 375.839 339.85C375.586 339.63 375.276 339.52 374.909 339.52C374.562 339.52 374.269 339.626 374.029 339.84C373.796 340.046 373.652 340.336 373.599 340.71H376.229ZM380.331 339.61V342.29C380.331 342.476 380.374 342.613 380.461 342.7C380.554 342.78 380.707 342.82 380.921 342.82H381.571V344H380.691C379.511 344 378.921 343.426 378.921 342.28V339.61H378.261V338.46H378.921V337.09H380.331V338.46H381.571V339.61H380.331ZM387.728 341.11C387.728 341.31 387.714 341.49 387.688 341.65H383.638C383.671 342.05 383.811 342.363 384.058 342.59C384.304 342.816 384.608 342.93 384.968 342.93C385.488 342.93 385.858 342.706 386.078 342.26H387.588C387.428 342.793 387.121 343.233 386.668 343.58C386.214 343.92 385.658 344.09 384.998 344.09C384.464 344.09 383.984 343.973 383.558 343.74C383.138 343.5 382.808 343.163 382.568 342.73C382.334 342.296 382.218 341.796 382.218 341.23C382.218 340.656 382.334 340.153 382.568 339.72C382.801 339.286 383.128 338.953 383.548 338.72C383.968 338.486 384.451 338.37 384.998 338.37C385.524 338.37 385.994 338.483 386.408 338.71C386.828 338.936 387.151 339.26 387.378 339.68C387.611 340.093 387.728 340.57 387.728 341.11ZM386.278 340.71C386.271 340.35 386.141 340.063 385.888 339.85C385.634 339.63 385.324 339.52 384.958 339.52C384.611 339.52 384.318 339.626 384.078 339.84C383.844 340.046 383.701 340.336 383.648 340.71H386.278ZM390.15 339.32C390.33 339.026 390.563 338.796 390.85 338.63C391.143 338.463 391.476 338.38 391.85 338.38V339.85H391.48C391.04 339.85 390.706 339.953 390.48 340.16C390.26 340.366 390.15 340.726 390.15 341.24V344H388.75V338.46H390.15V339.32ZM394.913 344.09C394.459 344.09 394.053 344.01 393.693 343.85C393.333 343.683 393.046 343.46 392.833 343.18C392.626 342.9 392.513 342.59 392.493 342.25H393.903C393.929 342.463 394.033 342.64 394.213 342.78C394.399 342.92 394.629 342.99 394.903 342.99C395.169 342.99 395.376 342.936 395.523 342.83C395.676 342.723 395.753 342.586 395.753 342.42C395.753 342.24 395.659 342.106 395.473 342.02C395.293 341.926 395.003 341.826 394.603 341.72C394.189 341.62 393.849 341.516 393.583 341.41C393.323 341.303 393.096 341.14 392.903 340.92C392.716 340.7 392.623 340.403 392.623 340.03C392.623 339.723 392.709 339.443 392.883 339.19C393.063 338.936 393.316 338.736 393.643 338.59C393.976 338.443 394.366 338.37 394.813 338.37C395.473 338.37 395.999 338.536 396.393 338.87C396.786 339.196 397.003 339.64 397.043 340.2H395.703C395.683 339.98 395.589 339.806 395.423 339.68C395.263 339.546 395.046 339.48 394.773 339.48C394.519 339.48 394.323 339.526 394.183 339.62C394.049 339.713 393.983 339.843 393.983 340.01C393.983 340.196 394.076 340.34 394.263 340.44C394.449 340.533 394.739 340.63 395.133 340.73C395.533 340.83 395.863 340.933 396.123 341.04C396.383 341.146 396.606 341.313 396.793 341.54C396.986 341.76 397.086 342.053 397.093 342.42C397.093 342.74 397.003 343.026 396.823 343.28C396.649 343.533 396.396 343.733 396.063 343.88C395.736 344.02 395.353 344.09 394.913 344.09Z" fill="#B1B1B1"/>
<path d="M74.98 194.874H69.74L68.9 197.354H65.32L70.4 183.314H74.36L79.44 197.354H75.82L74.98 194.874ZM74.1 192.234L72.36 187.094L70.64 192.234H74.1ZM90.8244 189.034H88.9844V197.354H85.5644V189.034H84.3244V186.194H85.5644V185.874C85.5644 184.501 85.9577 183.461 86.7444 182.754C87.531 182.034 88.6844 181.674 90.2044 181.674C90.4577 181.674 90.6444 181.681 90.7644 181.694V184.594C90.111 184.554 89.651 184.648 89.3844 184.874C89.1177 185.101 88.9844 185.508 88.9844 186.094V186.194H90.8244V189.034ZM91.7514 191.754C91.7514 190.608 91.9647 189.601 92.3914 188.734C92.8314 187.868 93.4247 187.201 94.1714 186.734C94.9181 186.268 95.7514 186.034 96.6714 186.034C97.4581 186.034 98.1447 186.194 98.7314 186.514C99.3314 186.834 99.7914 187.254 100.111 187.774V186.194H103.531V197.354H100.111V195.774C99.7781 196.294 99.3114 196.714 98.7114 197.034C98.1247 197.354 97.4381 197.514 96.6514 197.514C95.7447 197.514 94.9181 197.281 94.1714 196.814C93.4247 196.334 92.8314 195.661 92.3914 194.794C91.9647 193.914 91.7514 192.901 91.7514 191.754ZM100.111 191.774C100.111 190.921 99.8714 190.248 99.3914 189.754C98.9247 189.261 98.3514 189.014 97.6714 189.014C96.9914 189.014 96.4114 189.261 95.9314 189.754C95.4647 190.234 95.2314 190.901 95.2314 191.754C95.2314 192.608 95.4647 193.288 95.9314 193.794C96.4114 194.288 96.9914 194.534 97.6714 194.534C98.3514 194.534 98.9247 194.288 99.3914 193.794C99.8714 193.301 100.111 192.628 100.111 191.774ZM110.546 197.514C109.572 197.514 108.706 197.348 107.946 197.014C107.186 196.681 106.586 196.228 106.146 195.654C105.706 195.068 105.459 194.414 105.406 193.694H108.786C108.826 194.081 109.006 194.394 109.326 194.634C109.646 194.874 110.039 194.994 110.506 194.994C110.932 194.994 111.259 194.914 111.486 194.754C111.726 194.581 111.846 194.361 111.846 194.094C111.846 193.774 111.679 193.541 111.346 193.394C111.012 193.234 110.472 193.061 109.726 192.874C108.926 192.688 108.259 192.494 107.726 192.294C107.192 192.081 106.732 191.754 106.346 191.314C105.959 190.861 105.766 190.254 105.766 189.494C105.766 188.854 105.939 188.274 106.286 187.754C106.646 187.221 107.166 186.801 107.846 186.494C108.539 186.188 109.359 186.034 110.306 186.034C111.706 186.034 112.806 186.381 113.606 187.074C114.419 187.768 114.886 188.688 115.006 189.834H111.846C111.792 189.448 111.619 189.141 111.326 188.914C111.046 188.688 110.672 188.574 110.206 188.574C109.806 188.574 109.499 188.654 109.286 188.814C109.072 188.961 108.966 189.168 108.966 189.434C108.966 189.754 109.132 189.994 109.466 190.154C109.812 190.314 110.346 190.474 111.066 190.634C111.892 190.848 112.566 191.061 113.086 191.274C113.606 191.474 114.059 191.808 114.446 192.274C114.846 192.728 115.052 193.341 115.066 194.114C115.066 194.768 114.879 195.354 114.506 195.874C114.146 196.381 113.619 196.781 112.926 197.074C112.246 197.368 111.452 197.514 110.546 197.514ZM123.378 194.454V197.354H121.638C120.398 197.354 119.431 197.054 118.738 196.454C118.045 195.841 117.698 194.848 117.698 193.474V189.034H116.338V186.194H117.698V183.474H121.118V186.194H123.358V189.034H121.118V193.514C121.118 193.848 121.198 194.088 121.358 194.234C121.518 194.381 121.785 194.454 122.158 194.454H123.378ZM133.883 188.914V191.754H125.083V188.914H133.883ZM140.305 187.774C140.638 187.254 141.098 186.834 141.685 186.514C142.271 186.194 142.958 186.034 143.745 186.034C144.665 186.034 145.498 186.268 146.245 186.734C146.991 187.201 147.578 187.868 148.005 188.734C148.445 189.601 148.665 190.608 148.665 191.754C148.665 192.901 148.445 193.914 148.005 194.794C147.578 195.661 146.991 196.334 146.245 196.814C145.498 197.281 144.665 197.514 143.745 197.514C142.971 197.514 142.285 197.354 141.685 197.034C141.098 196.714 140.638 196.301 140.305 195.794V202.674H136.885V186.194H140.305V187.774ZM145.185 191.754C145.185 190.901 144.945 190.234 144.465 189.754C143.998 189.261 143.418 189.014 142.725 189.014C142.045 189.014 141.465 189.261 140.985 189.754C140.518 190.248 140.285 190.921 140.285 191.774C140.285 192.628 140.518 193.301 140.985 193.794C141.465 194.288 142.045 194.534 142.725 194.534C143.405 194.534 143.985 194.288 144.465 193.794C144.945 193.288 145.185 192.608 145.185 191.754ZM149.779 191.754C149.779 190.608 149.992 189.601 150.419 188.734C150.859 187.868 151.452 187.201 152.199 186.734C152.945 186.268 153.779 186.034 154.699 186.034C155.485 186.034 156.172 186.194 156.759 186.514C157.359 186.834 157.819 187.254 158.139 187.774V186.194H161.559V197.354H158.139V195.774C157.805 196.294 157.339 196.714 156.739 197.034C156.152 197.354 155.465 197.514 154.679 197.514C153.772 197.514 152.945 197.281 152.199 196.814C151.452 196.334 150.859 195.661 150.419 194.794C149.992 193.914 149.779 192.901 149.779 191.754ZM158.139 191.774C158.139 190.921 157.899 190.248 157.419 189.754C156.952 189.261 156.379 189.014 155.699 189.014C155.019 189.014 154.439 189.261 153.959 189.754C153.492 190.234 153.259 190.901 153.259 191.754C153.259 192.608 153.492 193.288 153.959 193.794C154.439 194.288 155.019 194.534 155.699 194.534C156.379 194.534 156.952 194.288 157.419 193.794C157.899 193.301 158.139 192.628 158.139 191.774ZM163.353 191.774C163.353 190.614 163.586 189.601 164.053 188.734C164.533 187.868 165.193 187.201 166.033 186.734C166.886 186.268 167.86 186.034 168.953 186.034C170.353 186.034 171.52 186.401 172.453 187.134C173.4 187.868 174.02 188.901 174.313 190.234H170.673C170.366 189.381 169.773 188.954 168.893 188.954C168.266 188.954 167.766 189.201 167.393 189.694C167.02 190.174 166.833 190.868 166.833 191.774C166.833 192.681 167.02 193.381 167.393 193.874C167.766 194.354 168.266 194.594 168.893 194.594C169.773 194.594 170.366 194.168 170.673 193.314H174.313C174.02 194.621 173.4 195.648 172.453 196.394C171.506 197.141 170.34 197.514 168.953 197.514C167.86 197.514 166.886 197.281 166.033 196.814C165.193 196.348 164.533 195.681 164.053 194.814C163.586 193.948 163.353 192.934 163.353 191.774ZM186.662 191.594C186.662 191.914 186.642 192.248 186.602 192.594H178.862C178.916 193.288 179.136 193.821 179.522 194.194C179.922 194.554 180.409 194.734 180.982 194.734C181.836 194.734 182.429 194.374 182.762 193.654H186.402C186.216 194.388 185.876 195.048 185.382 195.634C184.902 196.221 184.296 196.681 183.562 197.014C182.829 197.348 182.009 197.514 181.102 197.514C180.009 197.514 179.036 197.281 178.182 196.814C177.329 196.348 176.662 195.681 176.182 194.814C175.702 193.948 175.462 192.934 175.462 191.774C175.462 190.614 175.696 189.601 176.162 188.734C176.642 187.868 177.309 187.201 178.162 186.734C179.016 186.268 179.996 186.034 181.102 186.034C182.182 186.034 183.142 186.261 183.982 186.714C184.822 187.168 185.476 187.814 185.942 188.654C186.422 189.494 186.662 190.474 186.662 191.594ZM183.162 190.694C183.162 190.108 182.962 189.641 182.562 189.294C182.162 188.948 181.662 188.774 181.062 188.774C180.489 188.774 180.002 188.941 179.602 189.274C179.216 189.608 178.976 190.081 178.882 190.694H183.162ZM187.787 191.754C187.787 190.608 188 189.601 188.427 188.734C188.867 187.868 189.46 187.201 190.207 186.734C190.953 186.268 191.787 186.034 192.707 186.034C193.44 186.034 194.107 186.188 194.707 186.494C195.32 186.801 195.8 187.214 196.147 187.734V182.554H199.567V197.354H196.147V195.754C195.827 196.288 195.367 196.714 194.767 197.034C194.18 197.354 193.493 197.514 192.707 197.514C191.787 197.514 190.953 197.281 190.207 196.814C189.46 196.334 188.867 195.661 188.427 194.794C188 193.914 187.787 192.901 187.787 191.754ZM196.147 191.774C196.147 190.921 195.907 190.248 195.427 189.754C194.96 189.261 194.387 189.014 193.707 189.014C193.027 189.014 192.447 189.261 191.967 189.754C191.5 190.234 191.267 190.901 191.267 191.754C191.267 192.608 191.5 193.288 191.967 193.794C192.447 194.288 193.027 194.534 193.707 194.534C194.387 194.534 194.96 194.288 195.427 193.794C195.907 193.301 196.147 192.628 196.147 191.774ZM210.519 186.034C211.306 186.034 211.992 186.194 212.579 186.514C213.179 186.834 213.639 187.254 213.959 187.774V186.194H217.379V197.334C217.379 198.361 217.172 199.288 216.759 200.114C216.359 200.954 215.739 201.621 214.899 202.114C214.072 202.608 213.039 202.854 211.799 202.854C210.146 202.854 208.806 202.461 207.779 201.674C206.752 200.901 206.166 199.848 206.019 198.514H209.399C209.506 198.941 209.759 199.274 210.159 199.514C210.559 199.768 211.052 199.894 211.639 199.894C212.346 199.894 212.906 199.688 213.319 199.274C213.746 198.874 213.959 198.228 213.959 197.334V195.754C213.626 196.274 213.166 196.701 212.579 197.034C211.992 197.354 211.306 197.514 210.519 197.514C209.599 197.514 208.766 197.281 208.019 196.814C207.272 196.334 206.679 195.661 206.239 194.794C205.812 193.914 205.599 192.901 205.599 191.754C205.599 190.608 205.812 189.601 206.239 188.734C206.679 187.868 207.272 187.201 208.019 186.734C208.766 186.268 209.599 186.034 210.519 186.034ZM213.959 191.774C213.959 190.921 213.719 190.248 213.239 189.754C212.772 189.261 212.199 189.014 211.519 189.014C210.839 189.014 210.259 189.261 209.779 189.754C209.312 190.234 209.079 190.901 209.079 191.754C209.079 192.608 209.312 193.288 209.779 193.794C210.259 194.288 210.839 194.534 211.519 194.534C212.199 194.534 212.772 194.288 213.239 193.794C213.719 193.301 213.959 192.628 213.959 191.774ZM223.273 182.554V197.354H219.853V182.554H223.273ZM230.832 197.514C229.738 197.514 228.752 197.281 227.872 196.814C227.005 196.348 226.318 195.681 225.812 194.814C225.318 193.948 225.072 192.934 225.072 191.774C225.072 190.628 225.325 189.621 225.832 188.754C226.338 187.874 227.032 187.201 227.912 186.734C228.792 186.268 229.778 186.034 230.872 186.034C231.965 186.034 232.952 186.268 233.832 186.734C234.712 187.201 235.405 187.874 235.912 188.754C236.418 189.621 236.672 190.628 236.672 191.774C236.672 192.921 236.412 193.934 235.892 194.814C235.385 195.681 234.685 196.348 233.792 196.814C232.912 197.281 231.925 197.514 230.832 197.514ZM230.832 194.554C231.485 194.554 232.038 194.314 232.492 193.834C232.958 193.354 233.192 192.668 233.192 191.774C233.192 190.881 232.965 190.194 232.512 189.714C232.072 189.234 231.525 188.994 230.872 188.994C230.205 188.994 229.652 189.234 229.212 189.714C228.772 190.181 228.552 190.868 228.552 191.774C228.552 192.668 228.765 193.354 229.192 193.834C229.632 194.314 230.178 194.554 230.832 194.554ZM241.906 187.774C242.226 187.254 242.686 186.834 243.286 186.514C243.886 186.194 244.573 186.034 245.346 186.034C246.266 186.034 247.099 186.268 247.846 186.734C248.593 187.201 249.179 187.868 249.606 188.734C250.046 189.601 250.266 190.608 250.266 191.754C250.266 192.901 250.046 193.914 249.606 194.794C249.179 195.661 248.593 196.334 247.846 196.814C247.099 197.281 246.266 197.514 245.346 197.514C244.559 197.514 243.873 197.361 243.286 197.054C242.699 196.734 242.239 196.314 241.906 195.794V197.354H238.486V182.554H241.906V187.774ZM246.786 191.754C246.786 190.901 246.546 190.234 246.066 189.754C245.599 189.261 245.019 189.014 244.326 189.014C243.646 189.014 243.066 189.261 242.586 189.754C242.119 190.248 241.886 190.921 241.886 191.774C241.886 192.628 242.119 193.301 242.586 193.794C243.066 194.288 243.646 194.534 244.326 194.534C245.006 194.534 245.586 194.288 246.066 193.794C246.546 193.288 246.786 192.608 246.786 191.754ZM251.38 191.754C251.38 190.608 251.594 189.601 252.02 188.734C252.46 187.868 253.054 187.201 253.8 186.734C254.547 186.268 255.38 186.034 256.3 186.034C257.087 186.034 257.774 186.194 258.36 186.514C258.96 186.834 259.42 187.254 259.74 187.774V186.194H263.16V197.354H259.74V195.774C259.407 196.294 258.94 196.714 258.34 197.034C257.754 197.354 257.067 197.514 256.28 197.514C255.374 197.514 254.547 197.281 253.8 196.814C253.054 196.334 252.46 195.661 252.02 194.794C251.594 193.914 251.38 192.901 251.38 191.754ZM259.74 191.774C259.74 190.921 259.5 190.248 259.02 189.754C258.554 189.261 257.98 189.014 257.3 189.014C256.62 189.014 256.04 189.261 255.56 189.754C255.094 190.234 254.86 190.901 254.86 191.754C254.86 192.608 255.094 193.288 255.56 193.794C256.04 194.288 256.62 194.534 257.3 194.534C257.98 194.534 258.554 194.288 259.02 193.794C259.5 193.301 259.74 192.628 259.74 191.774ZM269.055 182.554V197.354H265.635V182.554H269.055ZM281.991 194.454V197.354H280.251C279.011 197.354 278.045 197.054 277.351 196.454C276.658 195.841 276.311 194.848 276.311 193.474V189.034H274.951V186.194H276.311V183.474H279.731V186.194H281.971V189.034H279.731V193.514C279.731 193.848 279.811 194.088 279.971 194.234C280.131 194.381 280.398 194.454 280.771 194.454H281.991ZM294.416 191.594C294.416 191.914 294.396 192.248 294.356 192.594H286.616C286.67 193.288 286.89 193.821 287.276 194.194C287.676 194.554 288.163 194.734 288.736 194.734C289.59 194.734 290.183 194.374 290.516 193.654H294.156C293.97 194.388 293.63 195.048 293.136 195.634C292.656 196.221 292.05 196.681 291.316 197.014C290.583 197.348 289.763 197.514 288.856 197.514C287.763 197.514 286.79 197.281 285.936 196.814C285.083 196.348 284.416 195.681 283.936 194.814C283.456 193.948 283.216 192.934 283.216 191.774C283.216 190.614 283.45 189.601 283.916 188.734C284.396 187.868 285.063 187.201 285.916 186.734C286.77 186.268 287.75 186.034 288.856 186.034C289.936 186.034 290.896 186.261 291.736 186.714C292.576 187.168 293.23 187.814 293.696 188.654C294.176 189.494 294.416 190.474 294.416 191.594ZM290.916 190.694C290.916 190.108 290.716 189.641 290.316 189.294C289.916 188.948 289.416 188.774 288.816 188.774C288.243 188.774 287.756 188.941 287.356 189.274C286.97 189.608 286.73 190.081 286.636 190.694H290.916ZM295.54 191.754C295.54 190.608 295.754 189.601 296.18 188.734C296.62 187.868 297.214 187.201 297.96 186.734C298.707 186.268 299.54 186.034 300.46 186.034C301.247 186.034 301.934 186.194 302.52 186.514C303.12 186.834 303.58 187.254 303.9 187.774V186.194H307.32V197.354H303.9V195.774C303.567 196.294 303.1 196.714 302.5 197.034C301.914 197.354 301.227 197.514 300.44 197.514C299.534 197.514 298.707 197.281 297.96 196.814C297.214 196.334 296.62 195.661 296.18 194.794C295.754 193.914 295.54 192.901 295.54 191.754ZM303.9 191.774C303.9 190.921 303.66 190.248 303.18 189.754C302.714 189.261 302.14 189.014 301.46 189.014C300.78 189.014 300.2 189.261 299.72 189.754C299.254 190.234 299.02 190.901 299.02 191.754C299.02 192.608 299.254 193.288 299.72 193.794C300.2 194.288 300.78 194.534 301.46 194.534C302.14 194.534 302.714 194.288 303.18 193.794C303.66 193.301 303.9 192.628 303.9 191.774ZM324.035 186.074C325.421 186.074 326.521 186.494 327.335 187.334C328.161 188.174 328.575 189.341 328.575 190.834V197.354H325.175V191.294C325.175 190.574 324.981 190.021 324.595 189.634C324.221 189.234 323.701 189.034 323.035 189.034C322.368 189.034 321.841 189.234 321.455 189.634C321.081 190.021 320.895 190.574 320.895 191.294V197.354H317.495V191.294C317.495 190.574 317.301 190.021 316.915 189.634C316.541 189.234 316.021 189.034 315.355 189.034C314.688 189.034 314.161 189.234 313.775 189.634C313.401 190.021 313.215 190.574 313.215 191.294V197.354H309.795V186.194H313.215V187.594C313.561 187.128 314.015 186.761 314.575 186.494C315.135 186.214 315.768 186.074 316.475 186.074C317.315 186.074 318.061 186.254 318.715 186.614C319.381 186.974 319.901 187.488 320.275 188.154C320.661 187.541 321.188 187.041 321.855 186.654C322.521 186.268 323.248 186.074 324.035 186.074ZM336.925 185.034C336.325 185.034 335.832 184.861 335.445 184.514C335.072 184.154 334.885 183.714 334.885 183.194C334.885 182.661 335.072 182.221 335.445 181.874C335.832 181.514 336.325 181.334 336.925 181.334C337.512 181.334 337.992 181.514 338.365 181.874C338.752 182.221 338.945 182.661 338.945 183.194C338.945 183.714 338.752 184.154 338.365 184.514C337.992 184.861 337.512 185.034 336.925 185.034ZM338.625 186.194V197.354H335.205V186.194H338.625ZM347.903 186.074C349.21 186.074 350.25 186.501 351.023 187.354C351.81 188.194 352.203 189.354 352.203 190.834V197.354H348.803V191.294C348.803 190.548 348.61 189.968 348.223 189.554C347.837 189.141 347.317 188.934 346.663 188.934C346.01 188.934 345.49 189.141 345.103 189.554C344.717 189.968 344.523 190.548 344.523 191.294V197.354H341.103V186.194H344.523V187.674C344.87 187.181 345.337 186.794 345.923 186.514C346.51 186.221 347.17 186.074 347.903 186.074ZM365.038 194.454V197.354H363.298C362.058 197.354 361.091 197.054 360.398 196.454C359.705 195.841 359.358 194.848 359.358 193.474V189.034H357.998V186.194H359.358V183.474H362.778V186.194H365.018V189.034H362.778V193.514C362.778 193.848 362.858 194.088 363.018 194.234C363.178 194.381 363.445 194.454 363.818 194.454H365.038ZM373.803 186.074C375.083 186.074 376.11 186.501 376.883 187.354C377.656 188.194 378.043 189.354 378.043 190.834V197.354H374.643V191.294C374.643 190.548 374.45 189.968 374.063 189.554C373.676 189.141 373.156 188.934 372.503 188.934C371.85 188.934 371.33 189.141 370.943 189.554C370.556 189.968 370.363 190.548 370.363 191.294V197.354H366.943V182.554H370.363V187.694C370.71 187.201 371.183 186.808 371.783 186.514C372.383 186.221 373.056 186.074 373.803 186.074ZM390.94 191.594C390.94 191.914 390.92 192.248 390.88 192.594H383.14C383.193 193.288 383.413 193.821 383.8 194.194C384.2 194.554 384.686 194.734 385.26 194.734C386.113 194.734 386.706 194.374 387.04 193.654H390.68C390.493 194.388 390.153 195.048 389.66 195.634C389.18 196.221 388.573 196.681 387.84 197.014C387.106 197.348 386.286 197.514 385.38 197.514C384.286 197.514 383.313 197.281 382.46 196.814C381.606 196.348 380.94 195.681 380.46 194.814C379.98 193.948 379.74 192.934 379.74 191.774C379.74 190.614 379.973 189.601 380.44 188.734C380.92 187.868 381.586 187.201 382.44 186.734C383.293 186.268 384.273 186.034 385.38 186.034C386.46 186.034 387.42 186.261 388.26 186.714C389.1 187.168 389.753 187.814 390.22 188.654C390.7 189.494 390.94 190.474 390.94 191.594ZM387.44 190.694C387.44 190.108 387.24 189.641 386.84 189.294C386.44 188.948 385.94 188.774 385.34 188.774C384.766 188.774 384.28 188.941 383.88 189.274C383.493 189.608 383.253 190.081 383.16 190.694H387.44ZM400.402 187.774C400.722 187.254 401.182 186.834 401.782 186.514C402.382 186.194 403.069 186.034 403.842 186.034C404.762 186.034 405.596 186.268 406.342 186.734C407.089 187.201 407.676 187.868 408.102 188.734C408.542 189.601 408.762 190.608 408.762 191.754C408.762 192.901 408.542 193.914 408.102 194.794C407.676 195.661 407.089 196.334 406.342 196.814C405.596 197.281 404.762 197.514 403.842 197.514C403.056 197.514 402.369 197.361 401.782 197.054C401.196 196.734 400.736 196.314 400.402 195.794V197.354H396.982V182.554H400.402V187.774ZM405.282 191.754C405.282 190.901 405.042 190.234 404.562 189.754C404.096 189.261 403.516 189.014 402.822 189.014C402.142 189.014 401.562 189.261 401.082 189.754C400.616 190.248 400.382 190.921 400.382 191.774C400.382 192.628 400.616 193.301 401.082 193.794C401.562 194.288 402.142 194.534 402.822 194.534C403.502 194.534 404.082 194.288 404.562 193.794C405.042 193.288 405.282 192.608 405.282 191.754ZM413.976 182.554V197.354H410.556V182.554H413.976ZM421.535 197.514C420.442 197.514 419.455 197.281 418.575 196.814C417.708 196.348 417.022 195.681 416.515 194.814C416.022 193.948 415.775 192.934 415.775 191.774C415.775 190.628 416.028 189.621 416.535 188.754C417.042 187.874 417.735 187.201 418.615 186.734C419.495 186.268 420.482 186.034 421.575 186.034C422.668 186.034 423.655 186.268 424.535 186.734C425.415 187.201 426.108 187.874 426.615 188.754C427.122 189.621 427.375 190.628 427.375 191.774C427.375 192.921 427.115 193.934 426.595 194.814C426.088 195.681 425.388 196.348 424.495 196.814C423.615 197.281 422.628 197.514 421.535 197.514ZM421.535 194.554C422.188 194.554 422.742 194.314 423.195 193.834C423.662 193.354 423.895 192.668 423.895 191.774C423.895 190.881 423.668 190.194 423.215 189.714C422.775 189.234 422.228 188.994 421.575 188.994C420.908 188.994 420.355 189.234 419.915 189.714C419.475 190.181 419.255 190.868 419.255 191.774C419.255 192.668 419.468 193.354 419.895 193.834C420.335 194.314 420.882 194.554 421.535 194.554ZM428.509 191.774C428.509 190.614 428.743 189.601 429.209 188.734C429.689 187.868 430.349 187.201 431.189 186.734C432.043 186.268 433.016 186.034 434.109 186.034C435.509 186.034 436.676 186.401 437.609 187.134C438.556 187.868 439.176 188.901 439.469 190.234H435.829C435.523 189.381 434.929 188.954 434.049 188.954C433.423 188.954 432.923 189.201 432.549 189.694C432.176 190.174 431.989 190.868 431.989 191.774C431.989 192.681 432.176 193.381 432.549 193.874C432.923 194.354 433.423 194.594 434.049 194.594C434.929 194.594 435.523 194.168 435.829 193.314H439.469C439.176 194.621 438.556 195.648 437.609 196.394C436.663 197.141 435.496 197.514 434.109 197.514C433.016 197.514 432.043 197.281 431.189 196.814C430.349 196.348 429.689 195.681 429.209 194.814C428.743 193.948 428.509 192.934 428.509 191.774ZM448.119 197.354L444.719 192.674V197.354H441.299V182.554H444.719V190.734L448.099 186.194H452.319L447.679 191.794L452.359 197.354H448.119ZM452.982 191.774C452.982 190.614 453.215 189.601 453.682 188.734C454.162 187.868 454.822 187.201 455.662 186.734C456.515 186.268 457.489 186.034 458.582 186.034C459.982 186.034 461.149 186.401 462.082 187.134C463.029 187.868 463.649 188.901 463.942 190.234H460.302C459.995 189.381 459.402 188.954 458.522 188.954C457.895 188.954 457.395 189.201 457.022 189.694C456.649 190.174 456.462 190.868 456.462 191.774C456.462 192.681 456.649 193.381 457.022 193.874C457.395 194.354 457.895 194.594 458.522 194.594C459.402 194.594 459.995 194.168 460.302 193.314H463.942C463.649 194.621 463.029 195.648 462.082 196.394C461.135 197.141 459.969 197.514 458.582 197.514C457.489 197.514 456.515 197.281 455.662 196.814C454.822 196.348 454.162 195.681 453.682 194.814C453.215 193.948 452.982 192.934 452.982 191.774ZM472.631 186.074C473.911 186.074 474.938 186.501 475.711 187.354C476.485 188.194 476.871 189.354 476.871 190.834V197.354H473.471V191.294C473.471 190.548 473.278 189.968 472.891 189.554C472.505 189.141 471.985 188.934 471.331 188.934C470.678 188.934 470.158 189.141 469.771 189.554C469.385 189.968 469.191 190.548 469.191 191.294V197.354H465.771V182.554H469.191V187.694C469.538 187.201 470.011 186.808 470.611 186.514C471.211 186.221 471.885 186.074 472.631 186.074ZM478.568 191.754C478.568 190.608 478.781 189.601 479.208 188.734C479.648 187.868 480.241 187.201 480.988 186.734C481.734 186.268 482.568 186.034 483.488 186.034C484.274 186.034 484.961 186.194 485.548 186.514C486.148 186.834 486.608 187.254 486.928 187.774V186.194H490.348V197.354H486.928V195.774C486.594 196.294 486.128 196.714 485.528 197.034C484.941 197.354 484.254 197.514 483.468 197.514C482.561 197.514 481.734 197.281 480.988 196.814C480.241 196.334 479.648 195.661 479.208 194.794C478.781 193.914 478.568 192.901 478.568 191.754ZM486.928 191.774C486.928 190.921 486.688 190.248 486.208 189.754C485.741 189.261 485.168 189.014 484.488 189.014C483.808 189.014 483.228 189.261 482.748 189.754C482.281 190.234 482.048 190.901 482.048 191.754C482.048 192.608 482.281 193.288 482.748 193.794C483.228 194.288 483.808 194.534 484.488 194.534C485.168 194.534 485.741 194.288 486.208 193.794C486.688 193.301 486.928 192.628 486.928 191.774ZM494.542 185.034C493.942 185.034 493.449 184.861 493.062 184.514C492.689 184.154 492.502 183.714 492.502 183.194C492.502 182.661 492.689 182.221 493.062 181.874C493.449 181.514 493.942 181.334 494.542 181.334C495.129 181.334 495.609 181.514 495.982 181.874C496.369 182.221 496.562 182.661 496.562 183.194C496.562 183.714 496.369 184.154 495.982 184.514C495.609 184.861 495.129 185.034 494.542 185.034ZM496.242 186.194V197.354H492.822V186.194H496.242ZM505.52 186.074C506.827 186.074 507.867 186.501 508.64 187.354C509.427 188.194 509.82 189.354 509.82 190.834V197.354H506.42V191.294C506.42 190.548 506.227 189.968 505.84 189.554C505.454 189.141 504.934 188.934 504.28 188.934C503.627 188.934 503.107 189.141 502.72 189.554C502.334 189.968 502.14 190.548 502.14 191.294V197.354H498.72V186.194H502.14V187.674C502.487 187.181 502.954 186.794 503.54 186.514C504.127 186.221 504.787 186.074 505.52 186.074ZM67.96 215.034C67.36 215.034 66.8667 214.861 66.48 214.514C66.1067 214.154 65.92 213.714 65.92 213.194C65.92 212.661 66.1067 212.221 66.48 211.874C66.8667 211.514 67.36 211.334 67.96 211.334C68.5467 211.334 69.0267 211.514 69.4 211.874C69.7867 212.221 69.98 212.661 69.98 213.194C69.98 213.714 69.7867 214.154 69.4 214.514C69.0267 214.861 68.5467 215.034 67.96 215.034ZM69.66 216.194V227.354H66.24V216.194H69.66ZM78.9384 216.074C80.2451 216.074 81.2851 216.501 82.0584 217.354C82.8451 218.194 83.2384 219.354 83.2384 220.834V227.354H79.8384V221.294C79.8384 220.548 79.6451 219.968 79.2584 219.554C78.8718 219.141 78.3518 218.934 77.6984 218.934C77.0451 218.934 76.5251 219.141 76.1384 219.554C75.7518 219.968 75.5584 220.548 75.5584 221.294V227.354H72.1384V216.194H75.5584V217.674C75.9051 217.181 76.3718 216.794 76.9584 216.514C77.5451 216.221 78.2051 216.074 78.9384 216.074ZM84.935 221.754C84.935 220.608 85.1483 219.601 85.575 218.734C86.015 217.868 86.6083 217.201 87.355 216.734C88.1017 216.268 88.935 216.034 89.855 216.034C90.5883 216.034 91.255 216.188 91.855 216.494C92.4683 216.801 92.9483 217.214 93.295 217.734V212.554H96.715V227.354H93.295V225.754C92.975 226.288 92.515 226.714 91.915 227.034C91.3283 227.354 90.6417 227.514 89.855 227.514C88.935 227.514 88.1017 227.281 87.355 226.814C86.6083 226.334 86.015 225.661 85.575 224.794C85.1483 223.914 84.935 222.901 84.935 221.754ZM93.295 221.774C93.295 220.921 93.055 220.248 92.575 219.754C92.1083 219.261 91.535 219.014 90.855 219.014C90.175 219.014 89.595 219.261 89.115 219.754C88.6483 220.234 88.415 220.901 88.415 221.754C88.415 222.608 88.6483 223.288 89.115 223.794C89.595 224.288 90.175 224.534 90.855 224.534C91.535 224.534 92.1083 224.288 92.575 223.794C93.055 223.301 93.295 222.628 93.295 221.774ZM110.209 216.194V227.354H106.789V225.834C106.443 226.328 105.969 226.728 105.369 227.034C104.783 227.328 104.129 227.474 103.409 227.474C102.556 227.474 101.803 227.288 101.149 226.914C100.496 226.528 99.9892 225.974 99.6292 225.254C99.2692 224.534 99.0892 223.688 99.0892 222.714V216.194H102.489V222.254C102.489 223.001 102.683 223.581 103.069 223.994C103.456 224.408 103.976 224.614 104.629 224.614C105.296 224.614 105.823 224.408 106.209 223.994C106.596 223.581 106.789 223.001 106.789 222.254V216.194H110.209ZM117.206 227.514C116.232 227.514 115.366 227.348 114.606 227.014C113.846 226.681 113.246 226.228 112.806 225.654C112.366 225.068 112.119 224.414 112.066 223.694H115.446C115.486 224.081 115.666 224.394 115.986 224.634C116.306 224.874 116.699 224.994 117.166 224.994C117.592 224.994 117.919 224.914 118.146 224.754C118.386 224.581 118.506 224.361 118.506 224.094C118.506 223.774 118.339 223.541 118.006 223.394C117.672 223.234 117.132 223.061 116.386 222.874C115.586 222.688 114.919 222.494 114.386 222.294C113.852 222.081 113.392 221.754 113.006 221.314C112.619 220.861 112.426 220.254 112.426 219.494C112.426 218.854 112.599 218.274 112.946 217.754C113.306 217.221 113.826 216.801 114.506 216.494C115.199 216.188 116.019 216.034 116.966 216.034C118.366 216.034 119.466 216.381 120.266 217.074C121.079 217.768 121.546 218.688 121.666 219.834H118.506C118.452 219.448 118.279 219.141 117.986 218.914C117.706 218.688 117.332 218.574 116.866 218.574C116.466 218.574 116.159 218.654 115.946 218.814C115.732 218.961 115.626 219.168 115.626 219.434C115.626 219.754 115.792 219.994 116.126 220.154C116.472 220.314 117.006 220.474 117.726 220.634C118.552 220.848 119.226 221.061 119.746 221.274C120.266 221.474 120.719 221.808 121.106 222.274C121.506 222.728 121.712 223.341 121.726 224.114C121.726 224.768 121.539 225.354 121.166 225.874C120.806 226.381 120.279 226.781 119.586 227.074C118.906 227.368 118.112 227.514 117.206 227.514ZM130.038 224.454V227.354H128.298C127.058 227.354 126.091 227.054 125.398 226.454C124.705 225.841 124.358 224.848 124.358 223.474V219.034H122.998V216.194H124.358V213.474H127.778V216.194H130.018V219.034H127.778V223.514C127.778 223.848 127.858 224.088 128.018 224.234C128.178 224.381 128.445 224.454 128.818 224.454H130.038ZM135.363 218.054C135.763 217.441 136.263 216.961 136.863 216.614C137.463 216.254 138.13 216.074 138.863 216.074V219.694H137.923C137.07 219.694 136.43 219.881 136.003 220.254C135.576 220.614 135.363 221.254 135.363 222.174V227.354H131.943V216.194H135.363V218.054ZM151.898 216.194L144.898 232.654H141.218L143.778 226.974L139.238 216.194H143.058L145.638 223.174L148.198 216.194H151.898Z" fill="#3B3C24"/>
<rect x="65" y="251.22" width="506" height="11.9787" rx="4" fill="#EFEFEF"/>
<rect x="65" y="287.156" width="223" height="11.9787" rx="4" fill="#EFEFEF"/>
<ellipse cx="58.5" cy="76.0309" rx="49.5" ry="49.4122" fill="url(#paint0_linear)" fill-opacity="0.7"/>
<g style="mix-blend-mode:hard-light">
<path d="M39.5013 83.0271H31.6413L30.3813 86.7471H25.0113L32.6313 65.6871H38.5713L46.1913 86.7471H40.7613L39.5013 83.0271ZM38.1813 79.0671L35.5713 71.3571L32.9913 79.0671H38.1813ZM55.3204 86.9871C53.8604 86.9871 52.5604 86.7371 51.4204 86.2371C50.2804 85.7371 49.3804 85.0571 48.7204 84.1971C48.0604 83.3171 47.6904 82.3371 47.6104 81.2571H52.6804C52.7404 81.8371 53.0104 82.3071 53.4904 82.6671C53.9704 83.0271 54.5604 83.2071 55.2604 83.2071C55.9004 83.2071 56.3904 83.0871 56.7304 82.8471C57.0904 82.5871 57.2704 82.2571 57.2704 81.8571C57.2704 81.3771 57.0204 81.0271 56.5204 80.8071C56.0204 80.5671 55.2104 80.3071 54.0904 80.0271C52.8904 79.7471 51.8904 79.4571 51.0904 79.1571C50.2904 78.8371 49.6004 78.3471 49.0204 77.6871C48.4404 77.0071 48.1504 76.0971 48.1504 74.9571C48.1504 73.9971 48.4104 73.1271 48.9304 72.3471C49.4704 71.5471 50.2504 70.9171 51.2704 70.4571C52.3104 69.9971 53.5404 69.7671 54.9604 69.7671C57.0604 69.7671 58.7104 70.2871 59.9104 71.3271C61.1304 72.3671 61.8304 73.7471 62.0104 75.4671H57.2704C57.1904 74.8871 56.9304 74.4271 56.4904 74.0871C56.0704 73.7471 55.5104 73.5771 54.8104 73.5771C54.2104 73.5771 53.7504 73.6971 53.4304 73.9371C53.1104 74.1571 52.9504 74.4671 52.9504 74.8671C52.9504 75.3471 53.2004 75.7071 53.7004 75.9471C54.2204 76.1871 55.0204 76.4271 56.1004 76.6671C57.3404 76.9871 58.3504 77.3071 59.1304 77.6271C59.9104 77.9271 60.5904 78.4271 61.1704 79.1271C61.7704 79.8071 62.0804 80.7271 62.1004 81.8871C62.1004 82.8671 61.8204 83.7471 61.2604 84.5271C60.7204 85.2871 59.9304 85.8871 58.8904 86.3271C57.8704 86.7671 56.6804 86.9871 55.3204 86.9871ZM67.8189 68.2671C66.9189 68.2671 66.1789 68.0071 65.5989 67.4871C65.0389 66.9471 64.7589 66.2871 64.7589 65.5071C64.7589 64.7071 65.0389 64.0471 65.5989 63.5271C66.1789 62.9871 66.9189 62.7171 67.8189 62.7171C68.6989 62.7171 69.4189 62.9871 69.9789 63.5271C70.5589 64.0471 70.8489 64.7071 70.8489 65.5071C70.8489 66.2871 70.5589 66.9471 69.9789 67.4871C69.4189 68.0071 68.6989 68.2671 67.8189 68.2671ZM70.3689 70.0071V86.7471H65.2389V70.0071H70.3689ZM73.0666 78.3471C73.0666 76.6271 73.3866 75.1171 74.0266 73.8171C74.6866 72.5171 75.5766 71.5171 76.6966 70.8171C77.8166 70.1171 79.0666 69.7671 80.4466 69.7671C81.6266 69.7671 82.6566 70.0071 83.5366 70.4871C84.4366 70.9671 85.1266 71.5971 85.6066 72.3771V70.0071H90.7366V86.7471H85.6066V84.3771C85.1066 85.1571 84.4066 85.7871 83.5066 86.2671C82.6266 86.7471 81.5966 86.9871 80.4166 86.9871C79.0566 86.9871 77.8166 86.6371 76.6966 85.9371C75.5766 85.2171 74.6866 84.2071 74.0266 82.9071C73.3866 81.5871 73.0666 80.0671 73.0666 78.3471ZM85.6066 78.3771C85.6066 77.0971 85.2466 76.0871 84.5266 75.3471C83.8266 74.6071 82.9666 74.2371 81.9466 74.2371C80.9266 74.2371 80.0566 74.6071 79.3366 75.3471C78.6366 76.0671 78.2866 77.0671 78.2866 78.3471C78.2866 79.6271 78.6366 80.6471 79.3366 81.4071C80.0566 82.1471 80.9266 82.5171 81.9466 82.5171C82.9666 82.5171 83.8266 82.1471 84.5266 81.4071C85.2466 80.6671 85.6066 79.6571 85.6066 78.3771Z" fill="black"/>
</g>
<ellipse opacity="0.8" cx="585" cy="350.044" rx="51" ry="50.9096" fill="url(#paint1_linear)" fill-opacity="0.9"/>
<g style="mix-blend-mode:hard-light">
<path d="M558.976 355.1H552.688L551.68 358.076H547.384L553.48 341.228H558.232L564.328 358.076H559.984L558.976 355.1ZM557.92 351.932L555.832 345.764L553.768 351.932H557.92ZM572.903 348.092H570.695V358.076H566.591V348.092H565.103V344.684H566.591V344.3C566.591 342.652 567.063 341.404 568.007 340.556C568.951 339.692 570.335 339.26 572.159 339.26C572.463 339.26 572.687 339.268 572.831 339.284V342.764C572.047 342.716 571.495 342.828 571.175 343.1C570.855 343.372 570.695 343.86 570.695 344.564V344.684H572.903V348.092ZM578.936 346.916C579.416 346.18 580.016 345.604 580.736 345.188C581.456 344.756 582.256 344.54 583.136 344.54V348.884H582.008C580.984 348.884 580.216 349.108 579.704 349.556C579.192 349.988 578.936 350.756 578.936 351.86V358.076H574.832V344.684H578.936V346.916ZM587.161 343.292C586.441 343.292 585.849 343.084 585.385 342.668C584.937 342.236 584.713 341.708 584.713 341.084C584.713 340.444 584.937 339.916 585.385 339.5C585.849 339.068 586.441 338.852 587.161 338.852C587.865 338.852 588.441 339.068 588.889 339.5C589.353 339.916 589.585 340.444 589.585 341.084C589.585 341.708 589.353 342.236 588.889 342.668C588.441 343.084 587.865 343.292 587.161 343.292ZM589.201 344.684V358.076H585.097V344.684H589.201ZM591.36 351.38C591.36 349.988 591.64 348.772 592.2 347.732C592.776 346.692 593.568 345.892 594.576 345.332C595.6 344.772 596.768 344.492 598.08 344.492C599.76 344.492 601.16 344.932 602.28 345.812C603.416 346.692 604.16 347.932 604.512 349.532H600.144C599.776 348.508 599.064 347.996 598.008 347.996C597.256 347.996 596.656 348.292 596.208 348.884C595.76 349.46 595.536 350.292 595.536 351.38C595.536 352.468 595.76 353.308 596.208 353.9C596.656 354.476 597.256 354.764 598.008 354.764C599.064 354.764 599.776 354.252 600.144 353.228H604.512C604.16 354.796 603.416 356.028 602.28 356.924C601.144 357.82 599.744 358.268 598.08 358.268C596.768 358.268 595.6 357.988 594.576 357.428C593.568 356.868 592.776 356.068 592.2 355.028C591.64 353.988 591.36 352.772 591.36 351.38ZM605.891 351.356C605.891 349.98 606.147 348.772 606.659 347.732C607.187 346.692 607.899 345.892 608.795 345.332C609.691 344.772 610.691 344.492 611.795 344.492C612.739 344.492 613.563 344.684 614.267 345.068C614.987 345.452 615.539 345.956 615.923 346.58V344.684H620.027V358.076H615.923V356.18C615.523 356.804 614.963 357.308 614.243 357.692C613.539 358.076 612.715 358.268 611.771 358.268C610.683 358.268 609.691 357.988 608.795 357.428C607.899 356.852 607.187 356.044 606.659 355.004C606.147 353.948 605.891 352.732 605.891 351.356ZM615.923 351.38C615.923 350.356 615.635 349.548 615.059 348.956C614.499 348.364 613.811 348.068 612.995 348.068C612.179 348.068 611.483 348.364 610.907 348.956C610.347 349.532 610.067 350.332 610.067 351.356C610.067 352.38 610.347 353.196 610.907 353.804C611.483 354.396 612.179 354.692 612.995 354.692C613.811 354.692 614.499 354.396 615.059 353.804C615.635 353.212 615.923 352.404 615.923 351.38Z" fill="black"/>
</g>
<ellipse cx="712" cy="150.399" rx="66" ry="65.883" fill="url(#paint2_linear)" fill-opacity="0.8"/>
<g style="mix-blend-mode:hard-light">
<path d="M668.302 144.3V148.26H674.689V151.941H668.302V156.236H675.525V160.056H663.534V140.479H675.525V144.3H668.302ZM693.987 144.495V160.056H689.218V157.937C688.735 158.625 688.075 159.183 687.238 159.61C686.42 160.019 685.509 160.224 684.505 160.224C683.316 160.224 682.265 159.963 681.354 159.443C680.443 158.904 679.737 158.132 679.235 157.128C678.733 156.124 678.482 154.944 678.482 153.587V144.495H683.223V152.945C683.223 153.986 683.492 154.795 684.031 155.371C684.57 155.948 685.296 156.236 686.207 156.236C687.136 156.236 687.87 155.948 688.41 155.371C688.949 154.795 689.218 153.986 689.218 152.945V144.495H693.987ZM702.181 147.089C702.739 146.234 703.436 145.564 704.273 145.081C705.109 144.579 706.039 144.328 707.061 144.328V149.376H705.751C704.561 149.376 703.669 149.636 703.074 150.156C702.479 150.658 702.181 151.551 702.181 152.834V160.056H697.412V144.495H702.181V147.089ZM716.424 160.279C714.9 160.279 713.524 159.954 712.297 159.303C711.088 158.653 710.131 157.723 709.424 156.515C708.737 155.306 708.393 153.893 708.393 152.276C708.393 150.677 708.746 149.273 709.452 148.065C710.159 146.838 711.126 145.899 712.353 145.248C713.58 144.598 714.955 144.272 716.48 144.272C718.004 144.272 719.38 144.598 720.607 145.248C721.834 145.899 722.801 146.838 723.508 148.065C724.214 149.273 724.567 150.677 724.567 152.276C724.567 153.875 724.205 155.288 723.48 156.515C722.773 157.723 721.797 158.653 720.552 159.303C719.324 159.954 717.949 160.279 716.424 160.279ZM716.424 156.152C717.335 156.152 718.107 155.818 718.739 155.148C719.39 154.479 719.715 153.521 719.715 152.276C719.715 151.03 719.399 150.073 718.767 149.403C718.153 148.734 717.391 148.399 716.48 148.399C715.55 148.399 714.779 148.734 714.165 149.403C713.552 150.054 713.245 151.012 713.245 152.276C713.245 153.521 713.542 154.479 714.137 155.148C714.751 155.818 715.513 156.152 716.424 156.152ZM731.866 146.698C732.331 145.973 732.972 145.388 733.79 144.941C734.608 144.495 735.566 144.272 736.663 144.272C737.945 144.272 739.107 144.598 740.148 145.248C741.19 145.899 742.008 146.829 742.603 148.037C743.216 149.245 743.523 150.649 743.523 152.248C743.523 153.847 743.216 155.26 742.603 156.487C742.008 157.695 741.19 158.634 740.148 159.303C739.107 159.954 737.945 160.279 736.663 160.279C735.584 160.279 734.627 160.056 733.79 159.61C732.972 159.164 732.331 158.588 731.866 157.881V167.474H727.097V144.495H731.866V146.698ZM738.67 152.248C738.67 151.058 738.336 150.129 737.666 149.459C737.016 148.771 736.207 148.427 735.24 148.427C734.292 148.427 733.483 148.771 732.814 149.459C732.163 150.147 731.838 151.086 731.838 152.276C731.838 153.466 732.163 154.405 732.814 155.092C733.483 155.78 734.292 156.124 735.24 156.124C736.188 156.124 736.997 155.78 737.666 155.092C738.336 154.386 738.67 153.438 738.67 152.248ZM760.693 152.025C760.693 152.471 760.665 152.936 760.61 153.419H749.817C749.892 154.386 750.198 155.13 750.738 155.65C751.295 156.152 751.974 156.403 752.773 156.403C753.963 156.403 754.791 155.901 755.255 154.897H760.331C760.071 155.92 759.596 156.84 758.909 157.658C758.239 158.476 757.393 159.118 756.371 159.582C755.348 160.047 754.205 160.279 752.941 160.279C751.416 160.279 750.059 159.954 748.869 159.303C747.679 158.653 746.75 157.723 746.08 156.515C745.411 155.306 745.076 153.893 745.076 152.276C745.076 150.658 745.402 149.245 746.053 148.037C746.722 146.829 747.651 145.899 748.841 145.248C750.031 144.598 751.398 144.272 752.941 144.272C754.447 144.272 755.785 144.588 756.956 145.22C758.128 145.852 759.039 146.754 759.689 147.925C760.359 149.097 760.693 150.463 760.693 152.025ZM755.813 150.77C755.813 149.952 755.534 149.301 754.976 148.818C754.419 148.334 753.722 148.093 752.885 148.093C752.085 148.093 751.407 148.325 750.849 148.79C750.31 149.255 749.975 149.915 749.845 150.77H755.813Z" fill="black"/>
</g>
<rect x="480" y="116.459" width="129" height="10.9805" rx="4" fill="#EFEFEF"/>
<defs>
<filter id="filter0_d" x="70.2862" y="0.00285053" width="641.428" height="289.03" filterUnits="userSpaceOnUse" color-interpolation-filters="sRGB">
<feFlood flood-opacity="0" result="BackgroundImageFix"/>
<feColorMatrix in="SourceAlpha" type="matrix" values="0 0 0 0 0 0 0 0 0 0 0 0 0 0 0 0 0 0 127 0" result="hardAlpha"/>
<feMorphology radius="8.17844" operator="dilate" in="SourceAlpha" result="effect1_dropShadow"/>
<feOffset dy="13.0855"/>
<feGaussianBlur stdDeviation="12.2677"/>
<feColorMatrix type="matrix" values="0 0 0 0 0.275 0 0 0 0 0.206067 0 0 0 0 0.167292 0 0 0 0.1 0"/>
<feBlend mode="normal" in2="BackgroundImageFix" result="effect1_dropShadow"/>
<feBlend mode="normal" in="SourceGraphic" in2="effect1_dropShadow" result="shape"/>
</filter>
<filter id="filter1_d" x="37.2862" y="64.8876" width="641.428" height="289.03" filterUnits="userSpaceOnUse" color-interpolation-filters="sRGB">
<feFlood flood-opacity="0" result="BackgroundImageFix"/>
<feColorMatrix in="SourceAlpha" type="matrix" values="0 0 0 0 0 0 0 0 0 0 0 0 0 0 0 0 0 0 127 0" result="hardAlpha"/>
<feMorphology radius="8.17844" operator="dilate" in="SourceAlpha" result="effect1_dropShadow"/>
<feOffset dy="13.0855"/>
<feGaussianBlur stdDeviation="12.2677"/>
<feColorMatrix type="matrix" values="0 0 0 0 0.275 0 0 0 0 0.206067 0 0 0 0 0.167292 0 0 0 0.1 0"/>
<feBlend mode="normal" in2="BackgroundImageFix" result="effect1_dropShadow"/>
<feBlend mode="normal" in="SourceGraphic" in2="effect1_dropShadow" result="shape"/>
</filter>
<filter id="filter2_d" x="0.286245" y="131.769" width="641.428" height="289.03" filterUnits="userSpaceOnUse" color-interpolation-filters="sRGB">
<feFlood flood-opacity="0" result="BackgroundImageFix"/>
<feColorMatrix in="SourceAlpha" type="matrix" values="0 0 0 0 0 0 0 0 0 0 0 0 0 0 0 0 0 0 127 0" result="hardAlpha"/>
<feMorphology radius="8.17844" operator="dilate" in="SourceAlpha" result="effect1_dropShadow"/>
<feOffset dy="13.0855"/>
<feGaussianBlur stdDeviation="12.2677"/>
<feColorMatrix type="matrix" values="0 0 0 0 0.275 0 0 0 0 0.206067 0 0 0 0 0.167292 0 0 0 0.1 0"/>
<feBlend mode="normal" in2="BackgroundImageFix" result="effect1_dropShadow"/>
<feBlend mode="normal" in="SourceGraphic" in2="effect1_dropShadow" result="shape"/>
</filter>
<linearGradient id="paint0_linear" x1="-135" y1="-209" x2="85.6263" y2="159.383" gradientUnits="userSpaceOnUse">
<stop stop-color="#DD1C84"/>
<stop offset="0.5087" stop-color="#EA8855"/>
<stop offset="0.678731" stop-color="#F1A839"/>
<stop offset="0.771199" stop-color="#FF932F"/>
</linearGradient>
<linearGradient id="paint1_linear" x1="491" y1="233" x2="642.805" y2="457.347" gradientUnits="userSpaceOnUse">
<stop stop-color="#DD1C84"/>
<stop offset="0.5087" stop-color="#EA8855"/>
<stop offset="0.678731" stop-color="#F1A839"/>
<stop offset="0.771199" stop-color="#FF932F"/>
</linearGradient>
<linearGradient id="paint2_linear" x1="615" y1="-2.99999" x2="786.863" y2="286.767" gradientUnits="userSpaceOnUse">
<stop stop-color="#DD1C84"/>
<stop offset="0.5087" stop-color="#EA8855"/>
<stop offset="0.678731" stop-color="#F1A839"/>
<stop offset="0.771199" stop-color="#FF932F"/>
</linearGradient>
</defs>
</svg>
