<svg width="162" height="51" viewBox="0 0 162 51" fill="none" xmlns="http://www.w3.org/2000/svg">
<mask id="mask0" mask-type="alpha" maskUnits="userSpaceOnUse" x="1" y="23" width="159" height="24">
<path d="M12.608 46.9174C10.496 46.9174 8.55467 46.4267 6.784 45.4454C5.03467 44.464 3.63733 43.0987 2.592 41.3494C1.568 39.5787 1.056 37.5947 1.056 35.3974C1.056 33.2 1.568 31.2267 2.592 29.4774C3.63733 27.728 5.03467 26.3627 6.784 25.3814C8.55467 24.4 10.496 23.9094 12.608 23.9094C14.72 23.9094 16.6507 24.4 18.4 25.3814C20.1707 26.3627 21.5573 27.728 22.56 29.4774C23.584 31.2267 24.096 33.2 24.096 35.3974C24.096 37.5947 23.584 39.5787 22.56 41.3494C21.536 43.0987 20.1493 44.464 18.4 45.4454C16.6507 46.4267 14.72 46.9174 12.608 46.9174ZM12.608 41.9254C14.4 41.9254 15.8293 41.328 16.896 40.1334C17.984 38.9387 18.528 37.36 18.528 35.3974C18.528 33.4134 17.984 31.8347 16.896 30.6614C15.8293 29.4667 14.4 28.8694 12.608 28.8694C10.7947 28.8694 9.344 29.456 8.256 30.6294C7.18933 31.8027 6.656 33.392 6.656 35.3974C6.656 37.3814 7.18933 38.9707 8.256 40.1654C9.344 41.3387 10.7947 41.9254 12.608 41.9254ZM44.7723 28.8374V46.6934H39.3003V44.2614C38.7456 45.0507 37.9883 45.6907 37.0283 46.1814C36.0896 46.6507 35.0443 46.8854 33.8923 46.8854C32.5269 46.8854 31.3216 46.5867 30.2763 45.9894C29.2309 45.3707 28.4203 44.4854 27.8443 43.3334C27.2683 42.1814 26.9803 40.8267 26.9803 39.2694V28.8374H32.4203V38.5334C32.4203 39.728 32.7296 40.656 33.3483 41.3174C33.9669 41.9787 34.7989 42.3094 35.8443 42.3094C36.9109 42.3094 37.7536 41.9787 38.3723 41.3174C38.9909 40.656 39.3003 39.728 39.3003 38.5334V28.8374H44.7723ZM54.1748 31.8134C54.8148 30.832 55.6148 30.064 56.5748 29.5094C57.5348 28.9334 58.6014 28.6454 59.7748 28.6454V34.4374H58.2708C56.9054 34.4374 55.8814 34.736 55.1988 35.3334C54.5161 35.9094 54.1748 36.9334 54.1748 38.4054V46.6934H48.7028V28.8374H54.1748V31.8134ZM85.3315 24.2294V28.6134H79.3795V46.6934H73.9075V28.6134H67.9555V24.2294H85.3315ZM104.91 37.4774C104.91 37.9894 104.878 38.5227 104.814 39.0774H92.4298C92.5151 40.1867 92.8671 41.04 93.4858 41.6374C94.1258 42.2134 94.9044 42.5014 95.8218 42.5014C97.1871 42.5014 98.1364 41.9254 98.6698 40.7734H104.494C104.195 41.9467 103.651 43.0027 102.862 43.9414C102.094 44.88 101.123 45.616 99.9498 46.1494C98.7764 46.6827 97.4644 46.9494 96.0138 46.9494C94.2644 46.9494 92.7071 46.576 91.3418 45.8294C89.9764 45.0827 88.9098 44.016 88.1418 42.6294C87.3738 41.2427 86.9898 39.6214 86.9898 37.7654C86.9898 35.9094 87.3631 34.288 88.1098 32.9014C88.8778 31.5147 89.9444 30.448 91.3098 29.7014C92.6751 28.9547 94.2431 28.5814 96.0138 28.5814C97.7418 28.5814 99.2778 28.944 100.622 29.6694C101.966 30.3947 103.011 31.4294 103.758 32.7734C104.526 34.1174 104.91 35.6854 104.91 37.4774ZM99.3098 36.0374C99.3098 35.0987 98.9898 34.352 98.3498 33.7974C97.7098 33.2427 96.9098 32.9654 95.9498 32.9654C95.0324 32.9654 94.2538 33.232 93.6138 33.7654C92.9951 34.2987 92.6111 35.056 92.4618 36.0374H99.3098ZM106.709 37.7334C106.709 35.8987 107.05 34.288 107.733 32.9014C108.437 31.5147 109.386 30.448 110.581 29.7014C111.775 28.9547 113.109 28.5814 114.581 28.5814C115.839 28.5814 116.938 28.8374 117.877 29.3494C118.837 29.8614 119.573 30.5334 120.085 31.3654V28.8374H125.557V46.6934H120.085V44.1654C119.551 44.9974 118.805 45.6694 117.845 46.1814C116.906 46.6934 115.807 46.9494 114.549 46.9494C113.098 46.9494 111.775 46.576 110.581 45.8294C109.386 45.0614 108.437 43.984 107.733 42.5974C107.05 41.1894 106.709 39.568 106.709 37.7334ZM120.085 37.7654C120.085 36.4 119.701 35.3227 118.933 34.5334C118.186 33.744 117.269 33.3494 116.181 33.3494C115.093 33.3494 114.165 33.744 113.397 34.5334C112.65 35.3014 112.277 36.368 112.277 37.7334C112.277 39.0987 112.65 40.1867 113.397 40.9974C114.165 41.7867 115.093 42.1814 116.181 42.1814C117.269 42.1814 118.186 41.7867 118.933 40.9974C119.701 40.208 120.085 39.1307 120.085 37.7654ZM152.299 28.6454C154.518 28.6454 156.278 29.3174 157.579 30.6614C158.902 32.0054 159.563 33.872 159.563 36.2614V46.6934H154.123V36.9974C154.123 35.8454 153.814 34.96 153.195 34.3414C152.598 33.7014 151.766 33.3814 150.699 33.3814C149.633 33.3814 148.79 33.7014 148.171 34.3414C147.574 34.96 147.275 35.8454 147.275 36.9974V46.6934H141.835V36.9974C141.835 35.8454 141.526 34.96 140.907 34.3414C140.31 33.7014 139.478 33.3814 138.411 33.3814C137.345 33.3814 136.502 33.7014 135.883 34.3414C135.286 34.96 134.987 35.8454 134.987 36.9974V46.6934H129.515V28.8374H134.987V31.0774C135.542 30.3307 136.267 29.744 137.163 29.3174C138.059 28.8694 139.073 28.6454 140.203 28.6454C141.547 28.6454 142.742 28.9334 143.787 29.5094C144.854 30.0854 145.686 30.9067 146.283 31.9734C146.902 30.992 147.745 30.192 148.811 29.5734C149.878 28.9547 151.041 28.6454 152.299 28.6454Z" fill="#3B3C24"/>
</mask>
<g mask="url(#mask0)">
<g filter="url(#filter0_f)">
<path d="M-14 6.69336H284V65.6934H-14V6.69336Z" fill="url(#paint0_angular)"/>
</g>
</g>
<defs>
<filter id="filter0_f" x="-46" y="-25.3066" width="362" height="123" filterUnits="userSpaceOnUse" color-interpolation-filters="sRGB">
<feFlood flood-opacity="0" result="BackgroundImageFix"/>
<feBlend mode="normal" in="SourceGraphic" in2="BackgroundImageFix" result="shape"/>
<feGaussianBlur stdDeviation="16" result="effect1_foregroundBlur"/>
</filter>
<radialGradient id="paint0_angular" cx="0" cy="0" r="1" gradientUnits="userSpaceOnUse" gradientTransform="translate(135 36.1934) rotate(82.4332) scale(57.952 289.125)">
<stop offset="0.104167" stop-color="#FFA800"/>
<stop offset="0.4375" stop-color="#FF3E9A"/>
<stop offset="0.530448" stop-color="#F45511"/>
<stop offset="0.885417" stop-color="#FFB800"/>
</radialGradient>
</defs>
</svg>
