<svg viewBox="0 0 207 163" fill="none" xmlns="http://www.w3.org/2000/svg">
<path d="M70.9503 91.2882C70.4582 96.6486 71.2902 102.631 74.6446 105.299C78.0561 107.3 84.6057 101.113 86.9304 99.2262C93.1782 94.1556 88.4863 86.9787 80.8514 84.6702C70.6718 81.5923 71.0791 89.8854 70.9503 91.2882Z" fill="white" fill-opacity="0.5"/>
<path d="M78.5788 86.3458C74.2288 84.4213 67.4261 85.9032 65.2587 87.8589C62.9249 91.181 67.6767 99.3186 69.2111 101.969C72.5481 107.732 78.2411 107.999 80.9995 100.738C85.4492 89.0261 80.0345 86.9898 78.5788 86.3458Z" fill="white" fill-opacity="0.3"/>
<path d="M75.0317 100.13C75.1064 100.541 75.2744 100.858 75.5357 101.082C75.8064 101.297 76.1657 101.404 76.6137 101.404C77.1924 101.404 77.6124 101.166 77.8737 100.69C78.1351 100.205 78.2657 99.3927 78.2657 98.254C78.0511 98.5527 77.7477 98.786 77.3557 98.954C76.9731 99.122 76.5577 99.206 76.1097 99.206C75.5124 99.206 74.9711 99.0847 74.4857 98.842C74.0097 98.59 73.6317 98.2213 73.3517 97.736C73.0717 97.2413 72.9317 96.644 72.9317 95.944C72.9317 94.908 73.2397 94.0867 73.8557 93.48C74.4717 92.864 75.3117 92.556 76.3757 92.556C77.7011 92.556 78.6344 92.9807 79.1757 93.83C79.7264 94.6793 80.0017 95.958 80.0017 97.666C80.0017 98.8793 79.8944 99.8733 79.6797 100.648C79.4744 101.423 79.1151 102.011 78.6017 102.412C78.0977 102.813 77.4071 103.014 76.5297 103.014C75.8391 103.014 75.2511 102.883 74.7657 102.622C74.2804 102.351 73.9071 102.001 73.6457 101.572C73.3937 101.133 73.2491 100.653 73.2117 100.13H75.0317ZM76.5157 97.61C77.0011 97.61 77.3837 97.4607 77.6637 97.162C77.9437 96.8633 78.0837 96.462 78.0837 95.958C78.0837 95.4073 77.9344 94.9827 77.6357 94.684C77.3464 94.376 76.9497 94.222 76.4457 94.222C75.9417 94.222 75.5404 94.3807 75.2417 94.698C74.9524 95.006 74.8077 95.4167 74.8077 95.93C74.8077 96.4247 74.9477 96.8307 75.2277 97.148C75.5171 97.456 75.9464 97.61 76.5157 97.61ZM95.7413 93.228V103H93.7813V96.644L91.1633 103H89.6793L87.0473 96.644V103H85.0873V93.228H87.3133L90.4213 100.494L93.5293 93.228H95.7413ZM108.333 93.228V103H106.373V96.644L103.755 103H102.271L99.6391 96.644V103H97.6791V93.228H99.9051L103.013 100.494L106.121 93.228H108.333Z" fill="black"/>
<path d="M79.1057 117.242V118.278H76.4457V127H75.1717V118.278H72.4977V117.242H79.1057ZM87.6739 122.87C87.6739 123.113 87.6599 123.369 87.6319 123.64H81.4999C81.5466 124.396 81.8033 124.989 82.2699 125.418C82.7459 125.838 83.3199 126.048 83.9919 126.048C84.5426 126.048 84.9999 125.922 85.3639 125.67C85.7373 125.409 85.9986 125.063 86.1479 124.634H87.5199C87.3146 125.371 86.9039 125.973 86.2879 126.44C85.6719 126.897 84.9066 127.126 83.9919 127.126C83.2639 127.126 82.6106 126.963 82.0319 126.636C81.4626 126.309 81.0146 125.847 80.6879 125.25C80.3613 124.643 80.1979 123.943 80.1979 123.15C80.1979 122.357 80.3566 121.661 80.6739 121.064C80.9913 120.467 81.4346 120.009 82.0039 119.692C82.5826 119.365 83.2453 119.202 83.9919 119.202C84.7199 119.202 85.3639 119.361 85.9239 119.678C86.4839 119.995 86.9133 120.434 87.2119 120.994C87.5199 121.545 87.6739 122.17 87.6739 122.87ZM86.3579 122.604C86.3579 122.119 86.2506 121.703 86.0359 121.358C85.8213 121.003 85.5273 120.737 85.1539 120.56C84.7899 120.373 84.3839 120.28 83.9359 120.28C83.2919 120.28 82.7413 120.485 82.2839 120.896C81.8359 121.307 81.5793 121.876 81.5139 122.604H86.3579ZM88.8796 123.136C88.8796 122.352 89.0383 121.666 89.3556 121.078C89.6729 120.481 90.1069 120.019 90.6576 119.692C91.2176 119.365 91.8383 119.202 92.5196 119.202C93.1916 119.202 93.7749 119.347 94.2696 119.636C94.7643 119.925 95.1329 120.289 95.3756 120.728V119.328H96.6636V127H95.3756V125.572C95.1236 126.02 94.7456 126.393 94.2416 126.692C93.7469 126.981 93.1683 127.126 92.5056 127.126C91.8243 127.126 91.2083 126.958 90.6576 126.622C90.1069 126.286 89.6729 125.815 89.3556 125.208C89.0383 124.601 88.8796 123.911 88.8796 123.136ZM95.3756 123.15C95.3756 122.571 95.2589 122.067 95.0256 121.638C94.7923 121.209 94.4749 120.882 94.0736 120.658C93.6816 120.425 93.2476 120.308 92.7716 120.308C92.2956 120.308 91.8616 120.42 91.4696 120.644C91.0776 120.868 90.7649 121.195 90.5316 121.624C90.2983 122.053 90.1816 122.557 90.1816 123.136C90.1816 123.724 90.2983 124.237 90.5316 124.676C90.7649 125.105 91.0776 125.437 91.4696 125.67C91.8616 125.894 92.2956 126.006 92.7716 126.006C93.2476 126.006 93.6816 125.894 94.0736 125.67C94.4749 125.437 94.7923 125.105 95.0256 124.676C95.2589 124.237 95.3756 123.729 95.3756 123.15ZM108.043 119.188C108.64 119.188 109.172 119.314 109.639 119.566C110.105 119.809 110.474 120.177 110.745 120.672C111.015 121.167 111.151 121.769 111.151 122.478V127H109.891V122.66C109.891 121.895 109.699 121.311 109.317 120.91C108.943 120.499 108.435 120.294 107.791 120.294C107.128 120.294 106.601 120.509 106.209 120.938C105.817 121.358 105.621 121.969 105.621 122.772V127H104.361V122.66C104.361 121.895 104.169 121.311 103.787 120.91C103.413 120.499 102.905 120.294 102.261 120.294C101.598 120.294 101.071 120.509 100.679 120.938C100.287 121.358 100.091 121.969 100.091 122.772V127H98.8165V119.328H100.091V120.434C100.343 120.033 100.679 119.725 101.099 119.51C101.528 119.295 101.999 119.188 102.513 119.188C103.157 119.188 103.726 119.333 104.221 119.622C104.715 119.911 105.084 120.336 105.327 120.896C105.541 120.355 105.896 119.935 106.391 119.636C106.885 119.337 107.436 119.188 108.043 119.188ZM124.463 127L123.189 125.712C122.713 126.207 122.204 126.575 121.663 126.818C121.121 127.051 120.51 127.168 119.829 127.168C119.157 127.168 118.559 127.047 118.037 126.804C117.523 126.561 117.122 126.216 116.833 125.768C116.553 125.32 116.413 124.797 116.413 124.2C116.413 123.519 116.604 122.921 116.987 122.408C117.379 121.885 117.953 121.475 118.709 121.176C118.41 120.821 118.195 120.495 118.065 120.196C117.934 119.897 117.869 119.571 117.869 119.216C117.869 118.805 117.971 118.437 118.177 118.11C118.391 117.774 118.695 117.513 119.087 117.326C119.479 117.139 119.931 117.046 120.445 117.046C120.949 117.046 121.387 117.144 121.761 117.34C122.134 117.536 122.414 117.811 122.601 118.166C122.787 118.511 122.871 118.899 122.853 119.328H121.579C121.588 118.945 121.481 118.647 121.257 118.432C121.033 118.208 120.743 118.096 120.389 118.096C120.015 118.096 119.712 118.203 119.479 118.418C119.255 118.623 119.143 118.889 119.143 119.216C119.143 119.496 119.217 119.767 119.367 120.028C119.525 120.289 119.787 120.611 120.151 120.994L123.063 123.92L123.315 123.528L124.267 121.932H125.639L124.491 123.92C124.332 124.2 124.145 124.494 123.931 124.802L126.129 127H124.463ZM119.829 126.076C120.333 126.076 120.785 125.978 121.187 125.782C121.597 125.586 121.985 125.283 122.349 124.872L119.479 121.988C118.284 122.445 117.687 123.169 117.687 124.158C117.687 124.709 117.883 125.166 118.275 125.53C118.676 125.894 119.194 126.076 119.829 126.076ZM136.823 124.83H132.567L131.783 127H130.439L133.967 117.298H135.437L138.951 127H137.607L136.823 124.83ZM136.459 123.794L134.695 118.866L132.931 123.794H136.459ZM140.012 123.136C140.012 122.352 140.171 121.666 140.488 121.078C140.806 120.481 141.24 120.019 141.79 119.692C142.35 119.365 142.976 119.202 143.666 119.202C144.264 119.202 144.819 119.342 145.332 119.622C145.846 119.893 146.238 120.252 146.508 120.7V116.64H147.796V127H146.508V125.558C146.256 126.015 145.883 126.393 145.388 126.692C144.894 126.981 144.315 127.126 143.652 127.126C142.971 127.126 142.35 126.958 141.79 126.622C141.24 126.286 140.806 125.815 140.488 125.208C140.171 124.601 140.012 123.911 140.012 123.136ZM146.508 123.15C146.508 122.571 146.392 122.067 146.158 121.638C145.925 121.209 145.608 120.882 145.206 120.658C144.814 120.425 144.38 120.308 143.904 120.308C143.428 120.308 142.994 120.42 142.602 120.644C142.21 120.868 141.898 121.195 141.664 121.624C141.431 122.053 141.314 122.557 141.314 123.136C141.314 123.724 141.431 124.237 141.664 124.676C141.898 125.105 142.21 125.437 142.602 125.67C142.994 125.894 143.428 126.006 143.904 126.006C144.38 126.006 144.814 125.894 145.206 125.67C145.608 125.437 145.925 125.105 146.158 124.676C146.392 124.237 146.508 123.729 146.508 123.15ZM152.805 125.824L155.185 119.328H156.543L153.533 127H152.049L149.039 119.328H150.411L152.805 125.824ZM158.455 118.082C158.212 118.082 158.007 117.998 157.839 117.83C157.671 117.662 157.587 117.457 157.587 117.214C157.587 116.971 157.671 116.766 157.839 116.598C158.007 116.43 158.212 116.346 158.455 116.346C158.688 116.346 158.884 116.43 159.043 116.598C159.211 116.766 159.295 116.971 159.295 117.214C159.295 117.457 159.211 117.662 159.043 117.83C158.884 117.998 158.688 118.082 158.455 118.082ZM159.071 119.328V127H157.797V119.328H159.071ZM163.958 127.126C163.37 127.126 162.843 127.028 162.376 126.832C161.91 126.627 161.541 126.347 161.27 125.992C161 125.628 160.85 125.213 160.822 124.746H162.138C162.176 125.129 162.353 125.441 162.67 125.684C162.997 125.927 163.422 126.048 163.944 126.048C164.43 126.048 164.812 125.941 165.092 125.726C165.372 125.511 165.512 125.241 165.512 124.914C165.512 124.578 165.363 124.331 165.064 124.172C164.766 124.004 164.304 123.841 163.678 123.682C163.109 123.533 162.642 123.383 162.278 123.234C161.924 123.075 161.616 122.847 161.354 122.548C161.102 122.24 160.976 121.839 160.976 121.344C160.976 120.952 161.093 120.593 161.326 120.266C161.56 119.939 161.891 119.683 162.32 119.496C162.75 119.3 163.24 119.202 163.79 119.202C164.64 119.202 165.326 119.417 165.848 119.846C166.371 120.275 166.651 120.863 166.688 121.61H165.414C165.386 121.209 165.223 120.887 164.924 120.644C164.635 120.401 164.243 120.28 163.748 120.28C163.291 120.28 162.927 120.378 162.656 120.574C162.386 120.77 162.25 121.027 162.25 121.344C162.25 121.596 162.33 121.806 162.488 121.974C162.656 122.133 162.862 122.263 163.104 122.366C163.356 122.459 163.702 122.567 164.14 122.688C164.691 122.837 165.139 122.987 165.484 123.136C165.83 123.276 166.124 123.491 166.366 123.78C166.618 124.069 166.749 124.447 166.758 124.914C166.758 125.334 166.642 125.712 166.408 126.048C166.175 126.384 165.844 126.65 165.414 126.846C164.994 127.033 164.509 127.126 163.958 127.126ZM171.903 127.126C171.184 127.126 170.531 126.963 169.943 126.636C169.364 126.309 168.907 125.847 168.571 125.25C168.244 124.643 168.081 123.943 168.081 123.15C168.081 122.366 168.249 121.675 168.585 121.078C168.93 120.471 169.397 120.009 169.985 119.692C170.573 119.365 171.231 119.202 171.959 119.202C172.687 119.202 173.345 119.365 173.933 119.692C174.521 120.009 174.983 120.467 175.319 121.064C175.664 121.661 175.837 122.357 175.837 123.15C175.837 123.943 175.659 124.643 175.305 125.25C174.959 125.847 174.488 126.309 173.891 126.636C173.293 126.963 172.631 127.126 171.903 127.126ZM171.903 126.006C172.36 126.006 172.789 125.899 173.191 125.684C173.592 125.469 173.914 125.147 174.157 124.718C174.409 124.289 174.535 123.766 174.535 123.15C174.535 122.534 174.413 122.011 174.171 121.582C173.928 121.153 173.611 120.835 173.219 120.63C172.827 120.415 172.402 120.308 171.945 120.308C171.478 120.308 171.049 120.415 170.657 120.63C170.274 120.835 169.966 121.153 169.733 121.582C169.499 122.011 169.383 122.534 169.383 123.15C169.383 123.775 169.495 124.303 169.719 124.732C169.952 125.161 170.26 125.483 170.643 125.698C171.025 125.903 171.445 126.006 171.903 126.006ZM178.786 120.574C179.01 120.135 179.327 119.795 179.738 119.552C180.158 119.309 180.667 119.188 181.264 119.188V120.504H180.928C179.5 120.504 178.786 121.279 178.786 122.828V127H177.512V119.328H178.786V120.574ZM185.45 127.126C184.862 127.126 184.335 127.028 183.868 126.832C183.402 126.627 183.033 126.347 182.762 125.992C182.492 125.628 182.342 125.213 182.314 124.746H183.63C183.668 125.129 183.845 125.441 184.162 125.684C184.489 125.927 184.914 126.048 185.436 126.048C185.922 126.048 186.304 125.941 186.584 125.726C186.864 125.511 187.004 125.241 187.004 124.914C187.004 124.578 186.855 124.331 186.556 124.172C186.258 124.004 185.796 123.841 185.17 123.682C184.601 123.533 184.134 123.383 183.77 123.234C183.416 123.075 183.108 122.847 182.846 122.548C182.594 122.24 182.468 121.839 182.468 121.344C182.468 120.952 182.585 120.593 182.818 120.266C183.052 119.939 183.383 119.683 183.812 119.496C184.242 119.3 184.732 119.202 185.282 119.202C186.132 119.202 186.818 119.417 187.34 119.846C187.863 120.275 188.143 120.863 188.18 121.61H186.906C186.878 121.209 186.715 120.887 186.416 120.644C186.127 120.401 185.735 120.28 185.24 120.28C184.783 120.28 184.419 120.378 184.148 120.574C183.878 120.77 183.742 121.027 183.742 121.344C183.742 121.596 183.822 121.806 183.98 121.974C184.148 122.133 184.354 122.263 184.596 122.366C184.848 122.459 185.194 122.567 185.632 122.688C186.183 122.837 186.631 122.987 186.976 123.136C187.322 123.276 187.616 123.491 187.858 123.78C188.11 124.069 188.241 124.447 188.25 124.914C188.25 125.334 188.134 125.712 187.9 126.048C187.667 126.384 187.336 126.65 186.906 126.846C186.486 127.033 186.001 127.126 185.45 127.126Z" fill="black"/>
<path d="M55 152.714L72.5 137H189.5" stroke="#FED9B2" stroke-linecap="round"/>
<path d="M49 92L72 73H205" stroke="#FED9B2" stroke-linecap="round"/>
<path d="M70.8445 12.0424C70.3585 17.2955 71.1801 23.1582 74.4924 25.7729C77.861 27.7339 84.3285 21.6704 86.6239 19.8215C92.7933 14.8524 88.1603 7.81906 80.6213 5.55674C70.5695 2.54039 70.9716 10.6676 70.8445 12.0424Z" fill="white" fill-opacity="0.5"/>
<path d="M78.3769 7.23149C74.0815 5.34549 67.3642 6.79777 65.2241 8.71438C62.9195 11.9699 67.6117 19.9447 69.1269 22.5417C72.4219 28.1896 78.0435 28.4512 80.7673 21.336C85.1611 9.85818 79.8143 7.86265 78.3769 7.23149Z" fill="white" fill-opacity="0.3"/>
<path d="M73.3645 14.4819C73.4111 13.5486 73.7378 12.8299 74.3445 12.3259C74.9605 11.8126 75.7678 11.5559 76.7665 11.5559C77.4478 11.5559 78.0311 11.6773 78.5165 11.9199C79.0018 12.1533 79.3658 12.4753 79.6085 12.8859C79.8605 13.2873 79.9865 13.7446 79.9865 14.2579C79.9865 14.8459 79.8325 15.3453 79.5245 15.7559C79.2258 16.1573 78.8665 16.4279 78.4465 16.5679V16.6239C78.9878 16.7919 79.4078 17.0906 79.7065 17.5199C80.0145 17.9493 80.1685 18.4999 80.1685 19.1719C80.1685 19.7319 80.0378 20.2313 79.7765 20.6699C79.5245 21.1086 79.1465 21.4539 78.6425 21.7059C78.1478 21.9486 77.5505 22.0699 76.8505 22.0699C75.7958 22.0699 74.9371 21.8039 74.2745 21.2719C73.6118 20.7399 73.2618 19.9559 73.2245 18.9199H75.1285C75.1471 19.3773 75.3011 19.7459 75.5905 20.0259C75.8891 20.2966 76.2951 20.4319 76.8085 20.4319C77.2845 20.4319 77.6485 20.3013 77.9005 20.0399C78.1618 19.7693 78.2925 19.4239 78.2925 19.0039C78.2925 18.4439 78.1151 18.0426 77.7605 17.7999C77.4058 17.5573 76.8551 17.4359 76.1085 17.4359H75.7025V15.8259H76.1085C77.4338 15.8259 78.0965 15.3826 78.0965 14.4959C78.0965 14.0946 77.9751 13.7819 77.7325 13.5579C77.4991 13.3339 77.1585 13.2219 76.7105 13.2219C76.2718 13.2219 75.9311 13.3433 75.6885 13.5859C75.4551 13.8193 75.3198 14.1179 75.2825 14.4819H73.3645ZM82.8093 22.0979C82.4547 22.0979 82.1607 21.9906 81.9273 21.7759C81.7033 21.5519 81.5913 21.2766 81.5913 20.9499C81.5913 20.6233 81.7033 20.3526 81.9273 20.1379C82.1607 19.9139 82.4547 19.8019 82.8093 19.8019C83.1547 19.8019 83.4393 19.9139 83.6633 20.1379C83.8873 20.3526 83.9993 20.6233 83.9993 20.9499C83.9993 21.2766 83.8873 21.5519 83.6633 21.7759C83.4393 21.9906 83.1547 22.0979 82.8093 22.0979ZM92.2141 13.4879H87.6781V15.8819C87.8741 15.6393 88.1541 15.4433 88.5181 15.2939C88.8821 15.1353 89.2694 15.0559 89.6801 15.0559C90.4267 15.0559 91.0381 15.2193 91.5141 15.5459C91.9901 15.8726 92.3354 16.2926 92.5501 16.8059C92.7647 17.3099 92.8721 17.8513 92.8721 18.4299C92.8721 19.5033 92.5641 20.3666 91.9481 21.0199C91.3414 21.6733 90.4734 21.9999 89.3441 21.9999C88.2801 21.9999 87.4307 21.7339 86.7961 21.2019C86.1614 20.6699 85.8021 19.9746 85.7181 19.1159H87.6221C87.7061 19.4893 87.8927 19.7879 88.1821 20.0119C88.4807 20.2359 88.8587 20.3479 89.3161 20.3479C89.8667 20.3479 90.2821 20.1753 90.5621 19.8299C90.8421 19.4846 90.9821 19.0273 90.9821 18.4579C90.9821 17.8793 90.8374 17.4406 90.5481 17.1419C90.2681 16.8339 89.8527 16.6799 89.3021 16.6799C88.9101 16.6799 88.5834 16.7779 88.3221 16.9739C88.0607 17.1699 87.8741 17.4313 87.7621 17.7579H85.8861V11.7659H92.2141V13.4879ZM108.578 12.2279V21.9999H106.618V15.6439L104 21.9999H102.516L99.8838 15.6439V21.9999H97.9238V12.2279H100.15L103.258 19.4939L106.366 12.2279H108.578ZM121.17 12.2279V21.9999H119.21V15.6439L116.592 21.9999H115.108L112.476 15.6439V21.9999H110.516V12.2279H112.742L115.85 19.4939L118.958 12.2279H121.17Z" fill="black"/>
<path d="M75.352 33.278V36.54H78.908V37.59H75.352V40.95H79.328V42H74.078V32.228H79.328V33.278H75.352ZM80.7797 38.136C80.7797 37.352 80.9384 36.666 81.2557 36.078C81.5731 35.4807 82.0071 35.0187 82.5577 34.692C83.1177 34.3653 83.7384 34.202 84.4197 34.202C85.0917 34.202 85.6751 34.3467 86.1697 34.636C86.6644 34.9253 87.0331 35.2893 87.2757 35.728V34.328H88.5637V42H87.2757V40.572C87.0237 41.02 86.6457 41.3933 86.1417 41.692C85.6471 41.9813 85.0684 42.126 84.4057 42.126C83.7244 42.126 83.1084 41.958 82.5577 41.622C82.0071 41.286 81.5731 40.8147 81.2557 40.208C80.9384 39.6013 80.7797 38.9107 80.7797 38.136ZM87.2757 38.15C87.2757 37.5713 87.1591 37.0673 86.9257 36.638C86.6924 36.2087 86.3751 35.882 85.9737 35.658C85.5817 35.4247 85.1477 35.308 84.6717 35.308C84.1957 35.308 83.7617 35.42 83.3697 35.644C82.9777 35.868 82.6651 36.1947 82.4317 36.624C82.1984 37.0533 82.0817 37.5573 82.0817 38.136C82.0817 38.724 82.1984 39.2373 82.4317 39.676C82.6651 40.1053 82.9777 40.4367 83.3697 40.67C83.7617 40.894 84.1957 41.006 84.6717 41.006C85.1477 41.006 85.5817 40.894 85.9737 40.67C86.3751 40.4367 86.6924 40.1053 86.9257 39.676C87.1591 39.2373 87.2757 38.7287 87.2757 38.15ZM91.9907 35.574C92.2147 35.1353 92.532 34.7947 92.9427 34.552C93.3627 34.3093 93.8713 34.188 94.4687 34.188V35.504H94.1327C92.7047 35.504 91.9907 36.2787 91.9907 37.828V42H90.7167V34.328H91.9907V35.574ZM97.2133 31.64V42H95.9393V31.64H97.2133ZM105.993 34.328L101.373 45.612H100.057L101.569 41.916L98.4746 34.328H99.8886L102.297 40.544L104.677 34.328H105.993ZM113.722 42.126C113.134 42.126 112.606 42.028 112.14 41.832C111.673 41.6267 111.304 41.3467 111.034 40.992C110.763 40.628 110.614 40.2127 110.586 39.746H111.902C111.939 40.1287 112.116 40.4413 112.434 40.684C112.76 40.9267 113.185 41.048 113.708 41.048C114.193 41.048 114.576 40.9407 114.856 40.726C115.136 40.5113 115.276 40.2407 115.276 39.914C115.276 39.578 115.126 39.3307 114.828 39.172C114.529 39.004 114.067 38.8407 113.442 38.682C112.872 38.5327 112.406 38.3833 112.042 38.234C111.687 38.0753 111.379 37.8467 111.118 37.548C110.866 37.24 110.74 36.8387 110.74 36.344C110.74 35.952 110.856 35.5927 111.09 35.266C111.323 34.9393 111.654 34.6827 112.084 34.496C112.513 34.3 113.003 34.202 113.554 34.202C114.403 34.202 115.089 34.4167 115.612 34.846C116.134 35.2753 116.414 35.8633 116.452 36.61H115.178C115.15 36.2087 114.986 35.8867 114.688 35.644C114.398 35.4013 114.006 35.28 113.512 35.28C113.054 35.28 112.69 35.378 112.42 35.574C112.149 35.77 112.014 36.0267 112.014 36.344C112.014 36.596 112.093 36.806 112.252 36.974C112.42 37.1327 112.625 37.2633 112.868 37.366C113.12 37.4593 113.465 37.5667 113.904 37.688C114.454 37.8373 114.902 37.9867 115.248 38.136C115.593 38.276 115.887 38.4907 116.13 38.78C116.382 39.0693 116.512 39.4473 116.522 39.914C116.522 40.334 116.405 40.712 116.172 41.048C115.938 41.384 115.607 41.65 115.178 41.846C114.758 42.0327 114.272 42.126 113.722 42.126ZM125.124 34.328V42H123.85V40.866C123.608 41.258 123.267 41.566 122.828 41.79C122.399 42.0047 121.923 42.112 121.4 42.112C120.803 42.112 120.266 41.9907 119.79 41.748C119.314 41.496 118.936 41.1227 118.656 40.628C118.386 40.1333 118.25 39.5313 118.25 38.822V34.328H119.51V38.654C119.51 39.41 119.702 39.9933 120.084 40.404C120.467 40.8053 120.99 41.006 121.652 41.006C122.334 41.006 122.87 40.796 123.262 40.376C123.654 39.956 123.85 39.3447 123.85 38.542V34.328H125.124ZM128.549 35.742C128.801 35.3033 129.175 34.9393 129.669 34.65C130.173 34.3513 130.757 34.202 131.419 34.202C132.101 34.202 132.717 34.3653 133.267 34.692C133.827 35.0187 134.266 35.4807 134.583 36.078C134.901 36.666 135.059 37.352 135.059 38.136C135.059 38.9107 134.901 39.6013 134.583 40.208C134.266 40.8147 133.827 41.286 133.267 41.622C132.717 41.958 132.101 42.126 131.419 42.126C130.766 42.126 130.187 41.9813 129.683 41.692C129.189 41.3933 128.811 41.0247 128.549 40.586V45.64H127.275V34.328H128.549V35.742ZM133.757 38.136C133.757 37.5573 133.641 37.0533 133.407 36.624C133.174 36.1947 132.857 35.868 132.455 35.644C132.063 35.42 131.629 35.308 131.153 35.308C130.687 35.308 130.253 35.4247 129.851 35.658C129.459 35.882 129.142 36.2133 128.899 36.652C128.666 37.0813 128.549 37.5807 128.549 38.15C128.549 38.7287 128.666 39.2373 128.899 39.676C129.142 40.1053 129.459 40.4367 129.851 40.67C130.253 40.894 130.687 41.006 131.153 41.006C131.629 41.006 132.063 40.894 132.455 40.67C132.857 40.4367 133.174 40.1053 133.407 39.676C133.641 39.2373 133.757 38.724 133.757 38.136ZM138.01 35.742C138.262 35.3033 138.636 34.9393 139.13 34.65C139.634 34.3513 140.218 34.202 140.88 34.202C141.562 34.202 142.178 34.3653 142.728 34.692C143.288 35.0187 143.727 35.4807 144.044 36.078C144.362 36.666 144.52 37.352 144.52 38.136C144.52 38.9107 144.362 39.6013 144.044 40.208C143.727 40.8147 143.288 41.286 142.728 41.622C142.178 41.958 141.562 42.126 140.88 42.126C140.227 42.126 139.648 41.9813 139.144 41.692C138.65 41.3933 138.272 41.0247 138.01 40.586V45.64H136.736V34.328H138.01V35.742ZM143.218 38.136C143.218 37.5573 143.102 37.0533 142.868 36.624C142.635 36.1947 142.318 35.868 141.916 35.644C141.524 35.42 141.09 35.308 140.614 35.308C140.148 35.308 139.714 35.4247 139.312 35.658C138.92 35.882 138.603 36.2133 138.36 36.652C138.127 37.0813 138.01 37.5807 138.01 38.15C138.01 38.7287 138.127 39.2373 138.36 39.676C138.603 40.1053 138.92 40.4367 139.312 40.67C139.714 40.894 140.148 41.006 140.614 41.006C141.09 41.006 141.524 40.894 141.916 40.67C142.318 40.4367 142.635 40.1053 142.868 39.676C143.102 39.2373 143.218 38.724 143.218 38.136ZM149.543 42.126C148.824 42.126 148.171 41.9627 147.583 41.636C147.004 41.3093 146.547 40.8473 146.211 40.25C145.884 39.6433 145.721 38.9433 145.721 38.15C145.721 37.366 145.889 36.6753 146.225 36.078C146.57 35.4713 147.037 35.0093 147.625 34.692C148.213 34.3653 148.871 34.202 149.599 34.202C150.327 34.202 150.985 34.3653 151.573 34.692C152.161 35.0093 152.623 35.4667 152.959 36.064C153.304 36.6613 153.477 37.3567 153.477 38.15C153.477 38.9433 153.3 39.6433 152.945 40.25C152.6 40.8473 152.128 41.3093 151.531 41.636C150.934 41.9627 150.271 42.126 149.543 42.126ZM149.543 41.006C150 41.006 150.43 40.8987 150.831 40.684C151.232 40.4693 151.554 40.1473 151.797 39.718C152.049 39.2887 152.175 38.766 152.175 38.15C152.175 37.534 152.054 37.0113 151.811 36.582C151.568 36.1527 151.251 35.8353 150.859 35.63C150.467 35.4153 150.042 35.308 149.585 35.308C149.118 35.308 148.689 35.4153 148.297 35.63C147.914 35.8353 147.606 36.1527 147.373 36.582C147.14 37.0113 147.023 37.534 147.023 38.15C147.023 38.7753 147.135 39.3027 147.359 39.732C147.592 40.1613 147.9 40.4833 148.283 40.698C148.666 40.9033 149.086 41.006 149.543 41.006ZM156.426 35.574C156.65 35.1353 156.968 34.7947 157.378 34.552C157.798 34.3093 158.307 34.188 158.904 34.188V35.504H158.568C157.14 35.504 156.426 36.2787 156.426 37.828V42H155.152V34.328H156.426V35.574ZM161.929 35.378V39.9C161.929 40.2733 162.008 40.5393 162.167 40.698C162.326 40.8473 162.601 40.922 162.993 40.922H163.931V42H162.783C162.074 42 161.542 41.8367 161.187 41.51C160.832 41.1833 160.655 40.6467 160.655 39.9V35.378H159.661V34.328H160.655V32.396H161.929V34.328H163.931V35.378H161.929ZM172.474 37.87C172.474 38.1127 172.46 38.3693 172.432 38.64H166.3C166.347 39.396 166.604 39.9887 167.07 40.418C167.546 40.838 168.12 41.048 168.792 41.048C169.343 41.048 169.8 40.922 170.164 40.67C170.538 40.4087 170.799 40.0633 170.948 39.634H172.32C172.115 40.3713 171.704 40.9733 171.088 41.44C170.472 41.8973 169.707 42.126 168.792 42.126C168.064 42.126 167.411 41.9627 166.832 41.636C166.263 41.3093 165.815 40.8473 165.488 40.25C165.162 39.6433 164.998 38.9433 164.998 38.15C164.998 37.3567 165.157 36.6613 165.474 36.064C165.792 35.4667 166.235 35.0093 166.804 34.692C167.383 34.3653 168.046 34.202 168.792 34.202C169.52 34.202 170.164 34.3607 170.724 34.678C171.284 34.9953 171.714 35.434 172.012 35.994C172.32 36.5447 172.474 37.17 172.474 37.87ZM171.158 37.604C171.158 37.1187 171.051 36.7033 170.836 36.358C170.622 36.0033 170.328 35.7373 169.954 35.56C169.59 35.3733 169.184 35.28 168.736 35.28C168.092 35.28 167.542 35.4853 167.084 35.896C166.636 36.3067 166.38 36.876 166.314 37.604H171.158ZM175.43 35.574C175.654 35.1353 175.971 34.7947 176.382 34.552C176.802 34.3093 177.311 34.188 177.908 34.188V35.504H177.572C176.144 35.504 175.43 36.2787 175.43 37.828V42H174.156V34.328H175.43V35.574ZM182.095 42.126C181.507 42.126 180.979 42.028 180.513 41.832C180.046 41.6267 179.677 41.3467 179.407 40.992C179.136 40.628 178.987 40.2127 178.959 39.746H180.275C180.312 40.1287 180.489 40.4413 180.807 40.684C181.133 40.9267 181.558 41.048 182.081 41.048C182.566 41.048 182.949 40.9407 183.229 40.726C183.509 40.5113 183.649 40.2407 183.649 39.914C183.649 39.578 183.499 39.3307 183.201 39.172C182.902 39.004 182.44 38.8407 181.815 38.682C181.245 38.5327 180.779 38.3833 180.415 38.234C180.06 38.0753 179.752 37.8467 179.491 37.548C179.239 37.24 179.113 36.8387 179.113 36.344C179.113 35.952 179.229 35.5927 179.463 35.266C179.696 34.9393 180.027 34.6827 180.457 34.496C180.886 34.3 181.376 34.202 181.927 34.202C182.776 34.202 183.462 34.4167 183.985 34.846C184.507 35.2753 184.787 35.8633 184.825 36.61H183.551C183.523 36.2087 183.359 35.8867 183.061 35.644C182.771 35.4013 182.379 35.28 181.885 35.28C181.427 35.28 181.063 35.378 180.793 35.574C180.522 35.77 180.387 36.0267 180.387 36.344C180.387 36.596 180.466 36.806 180.625 36.974C180.793 37.1327 180.998 37.2633 181.241 37.366C181.493 37.4593 181.838 37.5667 182.277 37.688C182.827 37.8373 183.275 37.9867 183.621 38.136C183.966 38.276 184.26 38.4907 184.503 38.78C184.755 39.0693 184.885 39.4473 184.895 39.914C184.895 40.334 184.778 40.712 184.545 41.048C184.311 41.384 183.98 41.65 183.551 41.846C183.131 42.0327 182.645 42.126 182.095 42.126ZM74.736 54.082C74.4933 54.082 74.288 53.998 74.12 53.83C73.952 53.662 73.868 53.4567 73.868 53.214C73.868 52.9713 73.952 52.766 74.12 52.598C74.288 52.43 74.4933 52.346 74.736 52.346C74.9693 52.346 75.1653 52.43 75.324 52.598C75.492 52.766 75.576 52.9713 75.576 53.214C75.576 53.4567 75.492 53.662 75.324 53.83C75.1653 53.998 74.9693 54.082 74.736 54.082ZM75.352 55.328V63H74.078V55.328H75.352ZM81.2613 55.188C82.1946 55.188 82.9506 55.4727 83.5293 56.042C84.108 56.602 84.3973 57.414 84.3973 58.478V63H83.1373V58.66C83.1373 57.8947 82.946 57.3113 82.5633 56.91C82.1806 56.4993 81.658 56.294 80.9953 56.294C80.3233 56.294 79.7866 56.504 79.3853 56.924C78.9933 57.344 78.7973 57.9553 78.7973 58.758V63H77.5233V55.328H78.7973V56.42C79.0493 56.028 79.39 55.7247 79.8193 55.51C80.258 55.2953 80.7386 55.188 81.2613 55.188ZM89.3344 61.824L91.7144 55.328H93.0724L90.0624 63H88.5784L85.5684 55.328H86.9404L89.3344 61.824ZM101.326 58.87C101.326 59.1127 101.312 59.3693 101.284 59.64H95.152C95.1987 60.396 95.4554 60.9887 95.922 61.418C96.398 61.838 96.972 62.048 97.644 62.048C98.1947 62.048 98.652 61.922 99.016 61.67C99.3894 61.4087 99.6507 61.0633 99.8 60.634H101.172C100.967 61.3713 100.556 61.9733 99.94 62.44C99.324 62.8973 98.5587 63.126 97.644 63.126C96.916 63.126 96.2627 62.9627 95.684 62.636C95.1147 62.3093 94.6667 61.8473 94.34 61.25C94.0134 60.6433 93.85 59.9433 93.85 59.15C93.85 58.3567 94.0087 57.6613 94.326 57.064C94.6434 56.4667 95.0867 56.0093 95.656 55.692C96.2347 55.3653 96.8974 55.202 97.644 55.202C98.372 55.202 99.016 55.3607 99.576 55.678C100.136 55.9953 100.565 56.434 100.864 56.994C101.172 57.5447 101.326 58.17 101.326 58.87ZM100.01 58.604C100.01 58.1187 99.9027 57.7033 99.688 57.358C99.4734 57.0033 99.1794 56.7373 98.806 56.56C98.442 56.3733 98.036 56.28 97.588 56.28C96.944 56.28 96.3934 56.4853 95.936 56.896C95.488 57.3067 95.2314 57.876 95.166 58.604H100.01ZM105.724 63.126C105.136 63.126 104.608 63.028 104.142 62.832C103.675 62.6267 103.306 62.3467 103.036 61.992C102.765 61.628 102.616 61.2127 102.588 60.746H103.904C103.941 61.1287 104.118 61.4413 104.436 61.684C104.762 61.9267 105.187 62.048 105.71 62.048C106.195 62.048 106.578 61.9407 106.858 61.726C107.138 61.5113 107.278 61.2407 107.278 60.914C107.278 60.578 107.128 60.3307 106.83 60.172C106.531 60.004 106.069 59.8407 105.444 59.682C104.874 59.5327 104.408 59.3833 104.044 59.234C103.689 59.0753 103.381 58.8467 103.12 58.548C102.868 58.24 102.742 57.8387 102.742 57.344C102.742 56.952 102.858 56.5927 103.092 56.266C103.325 55.9393 103.656 55.6827 104.086 55.496C104.515 55.3 105.005 55.202 105.556 55.202C106.405 55.202 107.091 55.4167 107.614 55.846C108.136 56.2753 108.416 56.8633 108.454 57.61H107.18C107.152 57.2087 106.988 56.8867 106.69 56.644C106.4 56.4013 106.008 56.28 105.514 56.28C105.056 56.28 104.692 56.378 104.422 56.574C104.151 56.77 104.016 57.0267 104.016 57.344C104.016 57.596 104.095 57.806 104.254 57.974C104.422 58.1327 104.627 58.2633 104.87 58.366C105.122 58.4593 105.467 58.5667 105.906 58.688C106.456 58.8373 106.904 58.9867 107.25 59.136C107.595 59.276 107.889 59.4907 108.132 59.78C108.384 60.0693 108.514 60.4473 108.524 60.914C108.524 61.334 108.407 61.712 108.174 62.048C107.94 62.384 107.609 62.65 107.18 62.846C106.76 63.0327 106.274 63.126 105.724 63.126ZM111.876 56.378V60.9C111.876 61.2733 111.955 61.5393 112.114 61.698C112.273 61.8473 112.548 61.922 112.94 61.922H113.878V63H112.73C112.021 63 111.489 62.8367 111.134 62.51C110.779 62.1833 110.602 61.6467 110.602 60.9V56.378H109.608V55.328H110.602V53.396H111.876V55.328H113.878V56.378H111.876ZM122.422 58.87C122.422 59.1127 122.408 59.3693 122.38 59.64H116.248C116.294 60.396 116.551 60.9887 117.018 61.418C117.494 61.838 118.068 62.048 118.74 62.048C119.29 62.048 119.748 61.922 120.112 61.67C120.485 61.4087 120.746 61.0633 120.896 60.634H122.268C122.062 61.3713 121.652 61.9733 121.036 62.44C120.42 62.8973 119.654 63.126 118.74 63.126C118.012 63.126 117.358 62.9627 116.78 62.636C116.21 62.3093 115.762 61.8473 115.436 61.25C115.109 60.6433 114.946 59.9433 114.946 59.15C114.946 58.3567 115.104 57.6613 115.422 57.064C115.739 56.4667 116.182 56.0093 116.752 55.692C117.33 55.3653 117.993 55.202 118.74 55.202C119.468 55.202 120.112 55.3607 120.672 55.678C121.232 55.9953 121.661 56.434 121.96 56.994C122.268 57.5447 122.422 58.17 122.422 58.87ZM121.106 58.604C121.106 58.1187 120.998 57.7033 120.784 57.358C120.569 57.0033 120.275 56.7373 119.902 56.56C119.538 56.3733 119.132 56.28 118.684 56.28C118.04 56.28 117.489 56.4853 117.032 56.896C116.584 57.3067 116.327 57.876 116.262 58.604H121.106ZM123.627 59.136C123.627 58.352 123.786 57.666 124.103 57.078C124.421 56.4807 124.855 56.0187 125.405 55.692C125.965 55.3653 126.591 55.202 127.281 55.202C127.879 55.202 128.434 55.342 128.947 55.622C129.461 55.8927 129.853 56.252 130.123 56.7V52.64H131.411V63H130.123V61.558C129.871 62.0153 129.498 62.3933 129.003 62.692C128.509 62.9813 127.93 63.126 127.267 63.126C126.586 63.126 125.965 62.958 125.405 62.622C124.855 62.286 124.421 61.8147 124.103 61.208C123.786 60.6013 123.627 59.9107 123.627 59.136ZM130.123 59.15C130.123 58.5713 130.007 58.0673 129.773 57.638C129.54 57.2087 129.223 56.882 128.821 56.658C128.429 56.4247 127.995 56.308 127.519 56.308C127.043 56.308 126.609 56.42 126.217 56.644C125.825 56.868 125.513 57.1947 125.279 57.624C125.046 58.0533 124.929 58.5573 124.929 59.136C124.929 59.724 125.046 60.2373 125.279 60.676C125.513 61.1053 125.825 61.4367 126.217 61.67C126.609 61.894 127.043 62.006 127.519 62.006C127.995 62.006 128.429 61.894 128.821 61.67C129.223 61.4367 129.54 61.1053 129.773 60.676C130.007 60.2373 130.123 59.7287 130.123 59.15ZM137.955 54.082C137.712 54.082 137.507 53.998 137.339 53.83C137.171 53.662 137.087 53.4567 137.087 53.214C137.087 52.9713 137.171 52.766 137.339 52.598C137.507 52.43 137.712 52.346 137.955 52.346C138.188 52.346 138.384 52.43 138.543 52.598C138.711 52.766 138.795 52.9713 138.795 53.214C138.795 53.4567 138.711 53.662 138.543 53.83C138.384 53.998 138.188 54.082 137.955 54.082ZM138.571 55.328V63H137.297V55.328H138.571ZM144.48 55.188C145.413 55.188 146.169 55.4727 146.748 56.042C147.327 56.602 147.616 57.414 147.616 58.478V63H146.356V58.66C146.356 57.8947 146.165 57.3113 145.782 56.91C145.399 56.4993 144.877 56.294 144.214 56.294C143.542 56.294 143.005 56.504 142.604 56.924C142.212 57.344 142.016 57.9553 142.016 58.758V63H140.742V55.328H142.016V56.42C142.268 56.028 142.609 55.7247 143.038 55.51C143.477 55.2953 143.957 55.188 144.48 55.188ZM158.946 53.242V54.278H154.704V57.568H158.148V58.604H154.704V63H153.43V53.242H158.946ZM163.83 63.126C163.112 63.126 162.458 62.9627 161.87 62.636C161.292 62.3093 160.834 61.8473 160.498 61.25C160.172 60.6433 160.008 59.9433 160.008 59.15C160.008 58.366 160.176 57.6753 160.512 57.078C160.858 56.4713 161.324 56.0093 161.912 55.692C162.5 55.3653 163.158 55.202 163.886 55.202C164.614 55.202 165.272 55.3653 165.86 55.692C166.448 56.0093 166.91 56.4667 167.246 57.064C167.592 57.6613 167.764 58.3567 167.764 59.15C167.764 59.9433 167.587 60.6433 167.232 61.25C166.887 61.8473 166.416 62.3093 165.818 62.636C165.221 62.9627 164.558 63.126 163.83 63.126ZM163.83 62.006C164.288 62.006 164.717 61.8987 165.118 61.684C165.52 61.4693 165.842 61.1473 166.084 60.718C166.336 60.2887 166.462 59.766 166.462 59.15C166.462 58.534 166.341 58.0113 166.098 57.582C165.856 57.1527 165.538 56.8353 165.146 56.63C164.754 56.4153 164.33 56.308 163.872 56.308C163.406 56.308 162.976 56.4153 162.584 56.63C162.202 56.8353 161.894 57.1527 161.66 57.582C161.427 58.0113 161.31 58.534 161.31 59.15C161.31 59.7753 161.422 60.3027 161.646 60.732C161.88 61.1613 162.188 61.4833 162.57 61.698C162.953 61.9033 163.373 62.006 163.83 62.006ZM170.713 56.574C170.937 56.1353 171.255 55.7947 171.665 55.552C172.085 55.3093 172.594 55.188 173.191 55.188V56.504H172.855C171.427 56.504 170.713 57.2787 170.713 58.828V63H169.439V55.328H170.713V56.574ZM175.936 56.756C176.197 56.2987 176.58 55.9253 177.084 55.636C177.588 55.3467 178.162 55.202 178.806 55.202C179.497 55.202 180.117 55.3653 180.668 55.692C181.219 56.0187 181.653 56.4807 181.97 57.078C182.287 57.666 182.446 58.352 182.446 59.136C182.446 59.9107 182.287 60.6013 181.97 61.208C181.653 61.8147 181.214 62.286 180.654 62.622C180.103 62.958 179.487 63.126 178.806 63.126C178.143 63.126 177.56 62.9813 177.056 62.692C176.561 62.4027 176.188 62.034 175.936 61.586V63H174.662V52.64H175.936V56.756ZM181.144 59.136C181.144 58.5573 181.027 58.0533 180.794 57.624C180.561 57.1947 180.243 56.868 179.842 56.644C179.45 56.42 179.016 56.308 178.54 56.308C178.073 56.308 177.639 56.4247 177.238 56.658C176.846 56.882 176.529 57.2133 176.286 57.652C176.053 58.0813 175.936 58.5807 175.936 59.15C175.936 59.7287 176.053 60.2373 176.286 60.676C176.529 61.1053 176.846 61.4367 177.238 61.67C177.639 61.894 178.073 62.006 178.54 62.006C179.016 62.006 179.45 61.894 179.842 61.67C180.243 61.4367 180.561 61.1053 180.794 60.676C181.027 60.2373 181.144 59.724 181.144 59.136ZM187.469 63.126C186.75 63.126 186.097 62.9627 185.509 62.636C184.93 62.3093 184.473 61.8473 184.137 61.25C183.81 60.6433 183.647 59.9433 183.647 59.15C183.647 58.366 183.815 57.6753 184.151 57.078C184.496 56.4713 184.963 56.0093 185.551 55.692C186.139 55.3653 186.797 55.202 187.525 55.202C188.253 55.202 188.911 55.3653 189.499 55.692C190.087 56.0093 190.549 56.4667 190.885 57.064C191.23 57.6613 191.403 58.3567 191.403 59.15C191.403 59.9433 191.226 60.6433 190.871 61.25C190.526 61.8473 190.054 62.3093 189.457 62.636C188.86 62.9627 188.197 63.126 187.469 63.126ZM187.469 62.006C187.926 62.006 188.356 61.8987 188.757 61.684C189.158 61.4693 189.48 61.1473 189.723 60.718C189.975 60.2887 190.101 59.766 190.101 59.15C190.101 58.534 189.98 58.0113 189.737 57.582C189.494 57.1527 189.177 56.8353 188.785 56.63C188.393 56.4153 187.968 56.308 187.511 56.308C187.044 56.308 186.615 56.4153 186.223 56.63C185.84 56.8353 185.532 57.1527 185.299 57.582C185.066 58.0113 184.949 58.534 184.949 59.15C184.949 59.7753 185.061 60.3027 185.285 60.732C185.518 61.1613 185.826 61.4833 186.209 61.698C186.592 61.9033 187.012 62.006 187.469 62.006ZM194.352 52.64V63H193.078V52.64H194.352ZM203.523 58.87C203.523 59.1127 203.509 59.3693 203.481 59.64H197.349C197.396 60.396 197.653 60.9887 198.119 61.418C198.595 61.838 199.169 62.048 199.841 62.048C200.392 62.048 200.849 61.922 201.213 61.67C201.587 61.4087 201.848 61.0633 201.997 60.634H203.369C203.164 61.3713 202.753 61.9733 202.137 62.44C201.521 62.8973 200.756 63.126 199.841 63.126C199.113 63.126 198.46 62.9627 197.881 62.636C197.312 62.3093 196.864 61.8473 196.537 61.25C196.211 60.6433 196.047 59.9433 196.047 59.15C196.047 58.3567 196.206 57.6613 196.523 57.064C196.841 56.4667 197.284 56.0093 197.853 55.692C198.432 55.3653 199.095 55.202 199.841 55.202C200.569 55.202 201.213 55.3607 201.773 55.678C202.333 55.9953 202.763 56.434 203.061 56.994C203.369 57.5447 203.523 58.17 203.523 58.87ZM202.207 58.604C202.207 58.1187 202.1 57.7033 201.885 57.358C201.671 57.0033 201.377 56.7373 201.003 56.56C200.639 56.3733 200.233 56.28 199.785 56.28C199.141 56.28 198.591 56.4853 198.133 56.896C197.685 57.3067 197.429 57.876 197.363 58.604H202.207Z" fill="black"/>
<path d="M0 97C0 92.5817 3.58172 89 8 89H47C51.4183 89 55 92.5817 55 97V109.492H0V97Z" fill="url(#paint0_linear)"/>
<rect y="109.492" width="55" height="52.6934" fill="url(#paint1_linear)"/>
<defs>
<linearGradient id="paint0_linear" x1="27.5" y1="89" x2="27.4643" y2="125.368" gradientUnits="userSpaceOnUse">
<stop stop-color="#FBD13F"/>
<stop offset="1" stop-color="#FBFF28"/>
</linearGradient>
<linearGradient id="paint1_linear" x1="27.5" y1="109.492" x2="27.2642" y2="203.01" gradientUnits="userSpaceOnUse">
<stop stop-color="#FFF1BE"/>
<stop offset="1" stop-color="#FBFDB2"/>
</linearGradient>
</defs>
</svg>
