<svg width="24" height="24" viewBox="0 0 24 24" fill="none" xmlns="http://www.w3.org/2000/svg">
<g clip-path="url(#clip0_1716:25273)">
<path d="M22.0439 16.9585C22.0599 18.4226 21.4157 19.1918 20.2356 19.3733C19.6648 19.4608 19.0874 19.5228 18.511 19.5548C18.0784 19.5793 17.816 19.7711 17.6533 20.1595C17.4295 20.6936 17.2151 21.2334 16.9462 21.744C16.2926 22.9806 15.2366 23.3219 13.985 22.7004C13.4678 22.4436 12.9788 22.1277 12.486 21.8239C12.1579 21.6218 11.8532 21.6123 11.5212 21.8164C11.0285 22.1201 10.5367 22.4305 10.0166 22.6891C8.7321 23.3332 7.6977 23.0022 7.03192 21.7337C6.76392 21.2221 6.54293 20.6842 6.32571 20.1491C6.16114 19.7457 5.86963 19.5849 5.45493 19.5614C4.93954 19.5384 4.42589 19.486 3.91649 19.4044C2.26991 19.1025 1.64457 18.1471 1.98968 16.5005C2.07338 16.1037 2.158 15.704 2.27931 15.3176C2.43635 14.8173 2.30658 14.4458 1.90316 14.1214C1.49486 13.8039 1.10785 13.4599 0.744634 13.0917C-0.254033 12.0573 -0.250273 10.9289 0.760619 9.90198C1.1772 9.47882 1.67277 9.13276 2.07713 8.70019C2.25037 8.49618 2.33976 8.23405 2.32727 7.9667C2.28213 7.47301 2.13073 6.98968 2.02635 6.50069C1.6502 4.74032 2.4025 3.71813 4.20329 3.54416C4.59261 3.50655 4.98286 3.45012 5.37312 3.45012C5.88091 3.45012 6.18559 3.21881 6.36708 2.75521C6.55605 2.25776 6.77106 1.77061 7.01122 1.29576C7.6817 0.00933713 8.74338 -0.332944 10.0317 0.32061C10.4916 0.556097 10.9372 0.818591 11.3661 1.10674C11.7949 1.38885 12.1842 1.41049 12.6196 1.11804C13.0484 0.829582 13.494 0.56675 13.9539 0.330941C15.2488 -0.327314 16.3049 0.00463717 16.9735 1.29764C17.2145 1.77163 17.4292 2.25854 17.6167 2.75615C17.7982 3.22633 18.1104 3.43508 18.6125 3.45107C19.1128 3.46636 19.6113 3.51855 20.1039 3.60718C21.7026 3.90152 22.3223 4.85693 21.9847 6.45461C21.9158 6.83958 21.8266 7.22063 21.7176 7.5962C21.5352 8.16042 21.6725 8.58642 22.1511 8.94752C22.5519 9.249 22.9271 9.58301 23.273 9.94617C24.2359 10.9599 24.234 12.0545 23.273 13.0672C22.9395 13.4206 22.575 13.7435 22.184 14.0321C21.6706 14.4082 21.5314 14.8398 21.7138 15.452C21.8953 16.0341 21.9781 16.6416 22.0439 16.9585ZM8.92675 21.1506L10.5668 20.1708C11.5306 19.5962 12.4917 19.6066 13.4509 20.1811C13.827 20.4077 14.2031 20.64 14.5793 20.8619C15.1181 21.1779 15.1557 21.1657 15.4012 20.6108C15.6165 20.1247 15.8121 19.6291 16.0406 19.1495C16.4327 18.3267 17.075 17.8283 17.9947 17.7202C18.5693 17.6525 19.1448 17.5979 19.7203 17.5406C20.0814 17.5058 20.2704 17.3798 20.1331 16.9651C20.0099 16.5955 19.9525 16.2052 19.851 15.8282C19.5087 14.5464 19.8058 13.482 20.8854 12.6591C21.2089 12.4118 21.4976 12.1213 21.8116 11.8627C22.1257 11.604 22.0937 11.3925 21.8004 11.1404C21.3703 10.7756 20.9484 10.4016 20.5346 10.0186C19.8181 9.35187 19.5943 8.52717 19.7974 7.58022C19.9159 7.03011 20.0353 6.47999 20.1622 5.93176C20.2328 5.6299 20.119 5.48697 19.8162 5.46158C19.4259 5.43337 19.0366 5.38071 18.6464 5.36754C17.3092 5.32335 16.3444 4.75536 15.8591 3.4633C15.6946 3.02415 15.483 2.60099 15.2949 2.17218C15.1821 1.91734 15.0241 1.8675 14.7777 2.0236C14.316 2.31887 13.8458 2.60005 13.3672 2.87557C12.4644 3.39936 11.5541 3.40689 10.6495 2.88216C10.216 2.63109 9.79377 2.36024 9.36027 2.10916C8.87128 1.82705 8.82331 1.84304 8.59856 2.34614C8.36253 2.87462 8.15189 3.41534 7.89517 3.93349C7.50586 4.71963 6.86077 5.17383 5.98529 5.27915C5.44176 5.34498 4.89729 5.39669 4.35282 5.45311C3.77262 5.51329 3.75287 5.53681 3.88264 6.12454C3.96163 6.47561 4.04783 6.82447 4.14124 7.17116C4.48635 8.45005 4.20141 9.52207 3.12187 10.3421C2.8849 10.5217 2.66298 10.7182 2.44011 10.9185C1.78185 11.4978 1.78938 11.5081 2.42694 12.078C2.836 12.4428 3.25636 12.7974 3.63626 13.1895C4.20048 13.7716 4.36504 14.491 4.21929 15.2762C4.13089 15.752 4.00205 16.2165 3.89579 16.6924C3.72277 17.4635 3.72465 17.4635 4.48635 17.5669C4.6412 17.5987 4.79852 17.6169 4.95653 17.6214C6.71031 17.5566 7.84439 18.3521 8.35501 20.0372C8.43041 20.2603 8.52479 20.4764 8.63712 20.6833C8.70859 20.8356 8.81202 20.9748 8.92675 21.1506Z" fill="#ED6C53"/>
<path d="M8.92752 21.1505C8.81279 20.9709 8.71124 20.8355 8.63601 20.6869C8.52368 20.48 8.42929 20.2639 8.3539 20.0409C7.84328 18.3558 6.7092 17.5602 4.95542 17.6251C4.7974 17.6206 4.64008 17.6023 4.48523 17.5706C3.72354 17.4671 3.72167 17.4671 3.89469 16.696C4.00095 16.2258 4.12978 15.7556 4.21817 15.2798C4.36393 14.4946 4.19937 13.7752 3.63515 13.1931C3.25901 12.801 2.8349 12.4465 2.42584 12.0816C1.78828 11.5118 1.78544 11.5014 2.439 10.9222C2.66186 10.7247 2.88379 10.5253 3.12076 10.3457C4.2003 9.52384 4.48524 8.45371 4.14013 7.17481C4.04734 6.82813 3.96114 6.47927 3.88153 6.1282C3.74799 5.54047 3.76774 5.51695 4.35171 5.45676C4.89618 5.40034 5.44065 5.34861 5.98418 5.28278C6.85966 5.17746 7.50475 4.71858 7.89406 3.93714C8.15078 3.419 8.36425 2.87828 8.59746 2.34979C8.82221 1.8467 8.87016 1.82977 9.35915 2.11282C9.79266 2.36389 10.2149 2.63472 10.6484 2.88579C11.553 3.41052 12.4633 3.40301 13.366 2.87923C13.8362 2.6037 14.3064 2.32253 14.7766 2.02725C15.023 1.87115 15.181 1.921 15.2938 2.17584C15.4819 2.60464 15.6897 3.02781 15.858 3.46696C16.3432 4.75902 17.3081 5.327 18.6453 5.3712C19.0355 5.38436 19.4248 5.43702 19.8151 5.46523C20.1179 5.48686 20.2317 5.6298 20.1611 5.93542C20.0342 6.48365 19.9148 7.03377 19.7963 7.58388C19.5941 8.53083 19.817 9.35552 20.5335 10.0222C20.946 10.4059 21.3679 10.7799 21.7992 11.1441C22.0907 11.3914 22.119 11.6143 21.8105 11.8663C21.5021 12.1183 21.2078 12.4155 20.8843 12.6628C19.8085 13.4856 19.5113 14.5501 19.8499 15.8318C19.9514 16.208 20.0088 16.5991 20.132 16.9687C20.2693 17.3834 20.0802 17.5094 19.7192 17.5442C19.1436 17.6016 18.5681 17.6561 17.9936 17.7238C17.0758 17.832 16.4316 18.3304 16.0395 19.1532C15.811 19.6328 15.6154 20.1283 15.4001 20.6145C15.1546 21.1693 15.118 21.1787 14.5782 20.8656C14.202 20.6437 13.8259 20.4114 13.4497 20.1848C12.4906 19.6064 11.5295 19.5999 10.5656 20.1744L8.92752 21.1505ZM10.6023 13.2561C9.9544 12.5979 9.36949 11.9904 8.7686 11.3999C8.31158 10.9523 7.74831 10.9372 7.35148 11.3331C6.95464 11.729 6.96687 12.2876 7.42106 12.7493C8.24419 13.5862 9.07422 14.4169 9.91115 15.2413C10.449 15.7707 11.0039 15.7528 11.4853 15.1792C13.1491 13.2026 14.8067 11.2209 16.458 9.2342C16.8943 8.71042 16.8651 8.15843 16.4072 7.78322C15.9803 7.43341 15.4283 7.51052 15.0051 8.00045C14.5547 8.52142 14.1183 9.05461 13.6754 9.5831L10.6023 13.2561Z" fill="#ED6C53"/>
<path d="M10.6018 13.256L13.675 9.58298C14.1179 9.05449 14.5542 8.5213 15.0046 8.00034C15.4278 7.51041 15.9798 7.43611 16.4067 7.78311C16.8647 8.15925 16.8938 8.7103 16.4575 9.23408C14.8043 11.2195 13.1468 13.2012 11.4849 15.1791C11.0034 15.7527 10.4505 15.7706 9.91068 15.2411C9.07376 14.4174 8.24373 13.5867 7.4206 12.7492C6.9664 12.2875 6.95041 11.7336 7.35101 11.333C7.75161 10.9324 8.31112 10.9568 8.76814 11.3997C9.36715 11.9903 9.95394 12.5987 10.6018 13.256Z" fill="white"/>
</g>
<defs>
<clipPath id="clip0_1716:25273">
<rect width="24" height="23.0098" fill="white"/>
</clipPath>
</defs>
</svg>
