<svg height="300" viewBox="0 0 346 300" fill="none" xmlns="http://www.w3.org/2000/svg">
<mask id="mask0" width="500" mask-type="alpha" maskUnits="userSpaceOnUse" x="0" y="0" height="300">
<rect width="500" height="300" rx="24" fill="white"/>
</mask>
<g mask="url(#mask0)">
<g opacity="0.1">
<path d="M365.042 67.1169C366.091 68.7455 366.405 70.6859 366.258 72.5744V102.468V118.318C366.258 123.47 366.174 128.58 365.503 133.689C364.79 139.258 363.784 144.722 362.148 150.103C360.555 155.317 358.458 160.427 356.046 165.328C351.496 174.546 345.247 183.097 337.95 190.376C332.246 196.049 325.745 200.95 318.868 205.121C315.051 207.415 311.235 209.73 307.418 212.025C299.366 216.884 291.335 221.744 283.283 226.603C280.473 228.292 276.572 228.355 273.762 226.603C273.553 226.478 273.364 226.353 273.154 226.228C264.221 220.659 255.267 215.111 246.313 209.543C243.525 207.812 240.694 206.081 237.905 204.308C229.161 198.718 221.171 191.794 214.692 183.681C211.253 179.385 208.065 174.943 205.381 170.146C202.697 165.37 200.474 160.302 198.587 155.171C194.855 144.952 193.03 133.877 193.009 123.011C192.988 114.46 193.009 105.888 193.009 97.3164V71.8303C193.009 69.703 193.764 67.7843 195.043 66.1366C195.693 65.1147 196.595 64.3013 197.685 63.7173C198.419 63.4046 199.174 63.0919 199.928 62.7792L199.929 62.7788C212.776 60.091 225.37 56.4579 237.508 51.4899C243.396 48.9695 249.166 46.1611 254.764 43.0282C260.006 40.0875 265.081 36.8965 269.988 33.4135C271.267 32.5167 272.504 31.4948 273.804 30.6397C275.629 29.4509 277.851 29.3257 279.969 29.3675C282.15 29.3883 284.016 30.0348 285.757 31.2862C286.344 31.7242 286.952 32.1413 287.539 32.5584C288.735 33.4135 289.93 34.2269 291.146 35.0403C300.871 41.549 311.183 47.1232 321.95 51.7253C333.651 56.5084 345.719 59.9502 358.102 62.5321C358.446 62.5806 358.792 62.6526 359.136 62.7456C359.224 62.7636 359.313 62.7817 359.401 62.7997C361.792 63.3002 363.763 65.1356 365.042 67.1169Z" fill="url(#paint0_linear)"/>
<path d="M242.175 132.305C249.473 139.562 256.791 146.841 264.088 154.099C265.116 155.121 266.164 156.164 267.192 157.186C270.798 160.773 276.921 160.773 280.528 157.186C285.75 151.993 290.95 146.82 296.171 141.627C304.475 133.368 312.779 125.109 321.083 116.85C322.991 114.952 324.899 113.054 326.808 111.157C328.527 109.446 329.576 106.923 329.576 104.524C329.576 102.23 328.548 99.4771 326.808 97.8921C325.004 96.2444 322.656 95.0348 320.139 95.1391C317.644 95.2434 315.274 96.0985 313.471 97.8921C308.25 103.085 303.049 108.258 297.828 113.451C289.545 121.71 281.241 129.969 272.937 138.249C271.029 140.146 269.121 142.044 267.213 143.942C271.658 143.942 276.104 143.942 280.549 143.942C273.252 136.684 265.933 129.406 258.636 122.148C257.609 121.126 256.56 120.083 255.533 119.061C253.813 117.33 251.276 116.287 248.864 116.287C246.558 116.287 243.79 117.309 242.196 119.04C240.54 120.834 239.323 123.17 239.428 125.672C239.533 128.154 240.372 130.511 242.175 132.305Z" fill="white"/>
</g>
</g>
<path opacity="0.1" d="M252.288 252.998L180.467 220.615L105.607 252.997C104.343 253.569 103.535 254.794 103.535 256.142C103.535 257.49 104.343 258.715 105.607 259.287L177.429 291.674C177.91 291.891 178.429 292 178.948 292C179.467 292 179.986 291.891 180.467 291.674L252.288 259.287C253.551 258.717 254.359 257.494 254.359 256.144C254.359 254.794 253.551 253.569 252.288 252.998Z" fill="url(#paint1_linear)" fill-opacity="0.3"/>
<path opacity="0.3" d="M252.288 235.648L180.467 203.265L105.607 235.646C104.343 236.219 103.535 237.443 103.535 238.791C103.535 240.139 104.343 241.364 105.607 241.937L177.429 274.324C177.91 274.54 178.429 274.65 178.948 274.65C179.467 274.65 179.986 274.54 180.467 274.324L252.288 241.937C253.551 241.366 254.359 240.143 254.359 238.793C254.359 237.443 253.551 236.219 252.288 235.648Z" fill="url(#paint2_linear)" fill-opacity="0.3"/>
<path opacity="0.3" d="M252.288 220.641L180.467 188.258L105.607 220.639C104.343 221.212 103.535 222.437 103.535 223.785C103.535 225.133 104.343 226.357 105.607 226.93L177.429 259.317C177.91 259.534 178.429 259.643 178.948 259.643C179.467 259.643 179.986 259.534 180.467 259.317L252.288 226.93C253.551 226.359 254.359 225.136 254.359 223.786C254.359 222.437 253.551 221.212 252.288 220.641Z" fill="url(#paint3_linear)"/>
<g opacity="0.5">
<path opacity="0.2" d="M142.32 215.397L86.1579 189.35L27.6203 215.395C26.6318 215.856 26 216.841 26 217.925C26 219.009 26.6318 219.995 27.6203 220.455L83.7822 246.505C84.1585 246.679 84.5643 246.767 84.97 246.767C85.3758 246.767 85.7816 246.679 86.1579 246.505L142.32 220.455C143.307 219.996 143.939 219.012 143.939 217.926C143.939 216.841 143.307 215.856 142.32 215.397Z" fill="#FA7A42" fill-opacity="0.2"/>
<path opacity="0.3" d="M142.32 200.582L86.1579 173.832L27.6203 200.581C26.6318 201.054 26 202.066 26 203.179C26 204.293 26.6318 205.305 27.6203 205.778L83.7822 232.531C84.1585 232.711 84.5643 232.801 84.97 232.801C85.3758 232.801 85.7816 232.711 86.1579 232.531L142.32 205.778C143.307 205.306 143.939 204.296 143.939 203.181C143.939 202.066 143.307 201.054 142.32 200.582Z" fill="#FA7A42" fill-opacity="0.2"/>
<path opacity="0.5" d="M142.32 185.912L86.1579 159.865L27.6203 185.911C26.6318 186.371 26 187.356 26 188.44C26 189.525 26.6318 190.51 27.6203 190.97L83.7822 217.02C84.1585 217.195 84.5643 217.282 84.97 217.282C85.3758 217.282 85.7816 217.195 86.1579 217.02L142.32 190.97C143.307 190.511 143.939 189.528 143.939 188.442C143.939 187.356 143.307 186.371 142.32 185.912Z" fill="#FA7A42" fill-opacity="0.2"/>
</g>
<path fill-rule="evenodd" clip-rule="evenodd" d="M227.214 138.312C227.297 137.25 227.12 136.158 226.53 135.242C225.81 134.127 224.701 133.094 223.356 132.813L223.207 132.782C223.013 132.73 222.819 132.69 222.625 132.662C215.658 131.21 208.869 129.273 202.286 126.582C196.229 123.993 190.427 120.857 184.956 117.195C184.271 116.738 183.599 116.28 182.926 115.799C182.83 115.73 182.732 115.662 182.634 115.593C182.397 115.426 182.157 115.257 181.924 115.083C180.944 114.379 179.894 114.015 178.667 114.004C177.476 113.98 176.225 114.051 175.199 114.719C174.777 114.997 174.366 115.306 173.956 115.615C173.656 115.841 173.356 116.067 173.052 116.28C170.291 118.24 167.436 120.035 164.487 121.689C161.338 123.452 158.091 125.032 154.778 126.45C147.95 129.245 140.864 131.289 133.637 132.801C133.212 132.977 132.787 133.153 132.374 133.329C131.761 133.658 131.254 134.115 130.888 134.69C130.168 135.617 129.744 136.697 129.744 137.893V152.232C129.744 153.84 129.742 155.448 129.741 157.055C129.738 160.269 129.736 163.481 129.744 166.688C129.755 172.801 130.782 179.032 132.882 184.781C133.943 187.668 135.194 190.519 136.704 193.206C138.214 195.905 140.007 198.404 141.942 200.821C145.587 205.385 150.082 209.281 155.002 212.426C156.136 213.147 157.283 213.855 158.424 214.561C158.861 214.831 159.298 215.101 159.733 215.371C161.652 216.565 163.572 217.757 165.49 218.948C168.607 220.884 171.723 222.819 174.833 224.758C174.892 224.793 174.948 224.828 175.004 224.863C175.06 224.899 175.116 224.934 175.175 224.969C176.756 225.955 178.951 225.919 180.531 224.969C182.796 223.602 185.058 222.235 187.32 220.869C189.582 219.502 191.845 218.134 194.11 216.767C195.184 216.122 196.257 215.473 197.331 214.825C198.405 214.177 199.478 213.529 200.552 212.883C204.421 210.537 208.078 207.779 211.287 204.588C215.393 200.493 218.909 195.682 221.469 190.495C222.825 187.738 224.005 184.863 224.902 181.93C225.822 178.903 226.388 175.828 226.789 172.695C227.167 169.821 227.214 166.946 227.214 164.048V155.13V138.312ZM169.741 184.179L157.413 171.917C156.398 170.908 155.927 169.582 155.868 168.186C155.809 166.778 156.493 165.464 157.425 164.455C158.321 163.481 159.879 162.906 161.176 162.906C162.533 162.906 163.961 163.492 164.928 164.466L166.674 166.203L175.25 174.733C177.408 172.582 179.565 170.433 181.721 168.286C184.057 165.96 186.392 163.635 188.723 161.31L197.524 152.557C198.539 151.548 199.872 151.067 201.276 151.008C202.692 150.949 204.013 151.63 205.028 152.557C206.007 153.448 206.585 154.997 206.585 156.288C206.585 157.637 205.995 159.057 205.028 160.019L201.807 163.223L187.791 177.162L178.991 185.916C176.961 187.934 173.517 187.934 171.487 185.916L169.741 184.179Z" fill="url(#paint4_linear)"/>
<defs>
<linearGradient id="paint0_linear" x1="193" y1="-50.5679" x2="424.943" y2="302.287" gradientUnits="userSpaceOnUse">
<stop stop-color="#DD1C84"/>
<stop offset="0.5087" stop-color="#EA8855"/>
<stop offset="0.678731" stop-color="#F1A839"/>
<stop offset="0.771199" stop-color="#FF932F"/>
</linearGradient>
<linearGradient id="paint1_linear" x1="93.1059" y1="237.195" x2="321.96" y2="368.043" gradientUnits="userSpaceOnUse">
<stop stop-color="#FF613E"/>
<stop offset="1" stop-color="#FCA104"/>
</linearGradient>
<linearGradient id="paint2_linear" x1="93.1059" y1="219.844" x2="321.96" y2="350.693" gradientUnits="userSpaceOnUse">
<stop stop-color="#FF613E"/>
<stop offset="1" stop-color="#FCA104"/>
</linearGradient>
<linearGradient id="paint3_linear" x1="93.1059" y1="204.838" x2="321.96" y2="335.686" gradientUnits="userSpaceOnUse">
<stop stop-color="#FF613E"/>
<stop offset="1" stop-color="#FCA104"/>
</linearGradient>
<linearGradient id="paint4_linear" x1="129.738" y1="69.0319" x2="260.23" y2="267.549" gradientUnits="userSpaceOnUse">
<stop stop-color="#DD1C84"/>
<stop offset="0.5087" stop-color="#EA8855"/>
<stop offset="0.678731" stop-color="#F1A839"/>
<stop offset="0.771199" stop-color="#FF932F"/>
</linearGradient>
</defs>
</svg>
