<svg width="341" height="263" viewBox="0 0 341 263" fill="none" xmlns="http://www.w3.org/2000/svg">
<g opacity="0.1">
<path d="M339.042 37.756C340.091 39.3847 340.405 41.325 340.258 43.2135V73.107V88.9576C340.258 94.109 340.174 99.2188 339.503 104.328C338.79 109.897 337.784 115.361 336.148 120.742C334.555 125.956 332.458 131.066 330.046 135.967C325.496 145.185 319.247 153.736 311.95 161.015C306.246 166.688 299.745 171.589 292.868 175.76C289.051 178.055 285.235 180.37 281.418 182.664C273.366 187.523 265.335 192.383 257.283 197.242C254.473 198.931 250.572 198.994 247.762 197.242C247.553 197.117 247.364 196.992 247.154 196.867C238.221 191.298 229.267 185.75 220.313 180.182C217.525 178.451 214.694 176.72 211.905 174.947C203.161 169.358 195.171 162.433 188.692 154.32C185.253 150.024 182.065 145.582 179.381 140.785C176.697 136.009 174.474 130.941 172.587 125.81C168.855 115.591 167.03 104.516 167.009 93.6502C166.988 85.0992 167.009 76.5274 167.009 67.9556V42.4695C167.009 40.3422 167.764 38.4234 169.043 36.7758C169.693 35.7539 170.595 34.9405 171.685 34.3565C172.419 34.0438 173.174 33.7311 173.928 33.4184L173.929 33.418C186.776 30.7302 199.37 27.0971 211.508 22.1291C217.396 19.6087 223.166 16.8003 228.764 13.6673C234.006 10.7266 239.081 7.53564 243.988 4.05268C245.267 3.15587 246.504 2.13393 247.804 1.27883C249.629 0.0900372 251.851 -0.0350996 253.969 0.0066125C256.15 0.0274685 258.016 0.674006 259.757 1.92537C260.344 2.36334 260.952 2.78047 261.539 3.19759C262.735 4.05268 263.93 4.86607 265.146 5.67945C274.871 12.1882 285.183 17.7624 295.95 22.3644C307.651 27.1475 319.719 30.5894 332.102 33.1712C332.446 33.2198 332.792 33.2918 333.136 33.3847C333.224 33.4028 333.313 33.4208 333.401 33.4388C335.792 33.9394 337.763 35.7747 339.042 37.756Z" fill="url(#paint0_linear)"/>
<path d="M216.175 102.944C223.473 110.202 230.791 117.48 238.088 124.738C239.116 125.76 240.164 126.803 241.192 127.825C244.798 131.412 250.921 131.412 254.528 127.825C259.75 122.632 264.95 117.46 270.171 112.266C278.475 104.007 286.779 95.7484 295.083 87.4894C296.991 85.5915 298.899 83.6936 300.808 81.7957C302.527 80.0855 303.576 77.5619 303.576 75.1635C303.576 72.8693 302.548 70.1163 300.808 68.5312C299.004 66.8836 296.656 65.674 294.139 65.7782C291.644 65.8825 289.274 66.7376 287.471 68.5312C282.25 73.7244 277.049 78.8967 271.828 84.0899C263.545 92.3489 255.241 100.608 246.937 108.888C245.029 110.786 243.121 112.684 241.213 114.581C245.658 114.581 250.104 114.581 254.549 114.581C247.252 107.323 239.933 100.045 232.636 92.7868C231.609 91.7649 230.56 90.7221 229.533 89.7001C227.813 87.9691 225.276 86.9263 222.864 86.9263C220.558 86.9263 217.79 87.9482 216.196 89.6793C214.54 91.4729 213.323 93.8088 213.428 96.3115C213.533 98.7934 214.372 101.15 216.175 102.944Z" fill="white"/>
</g>
<path opacity="0.1" d="M226.288 223.638L154.467 191.254L79.6072 223.636C78.3431 224.208 77.5352 225.433 77.5352 226.781C77.5352 228.129 78.3431 229.354 79.6072 229.927L151.429 262.313C151.91 262.53 152.429 262.639 152.948 262.639C153.467 262.639 153.986 262.53 154.467 262.313L226.288 229.927C227.551 229.356 228.359 228.133 228.359 226.783C228.359 225.433 227.551 224.208 226.288 223.638Z" fill="url(#paint1_linear)" fill-opacity="0.3"/>
<path opacity="0.3" d="M226.288 206.287L154.467 173.904L79.6072 206.285C78.3431 206.858 77.5352 208.083 77.5352 209.431C77.5352 210.779 78.3431 212.003 79.6072 212.576L151.429 244.963C151.91 245.18 152.429 245.289 152.948 245.289C153.467 245.289 153.986 245.18 154.467 244.963L226.288 212.576C227.551 212.005 228.359 210.782 228.359 209.432C228.359 208.083 227.551 206.858 226.288 206.287Z" fill="url(#paint2_linear)" fill-opacity="0.3"/>
<path opacity="0.3" d="M226.288 191.28L154.467 158.897L79.6072 191.278C78.3431 191.851 77.5352 193.076 77.5352 194.424C77.5352 195.772 78.3431 196.997 79.6072 197.569L151.429 229.956C151.91 230.173 152.429 230.282 152.948 230.282C153.467 230.282 153.986 230.173 154.467 229.956L226.288 197.569C227.551 196.998 228.359 195.775 228.359 194.426C228.359 193.076 227.551 191.851 226.288 191.28Z" fill="url(#paint3_linear)"/>
<g opacity="0.5">
<path opacity="0.2" d="M116.32 186.036L60.1579 159.989L1.62027 186.034C0.631822 186.495 0 187.48 0 188.564C0 189.649 0.631822 190.634 1.62027 191.094L57.7822 217.144C58.1585 217.318 58.5643 217.406 58.97 217.406C59.3758 217.406 59.7816 217.318 60.1579 217.144L116.32 191.094C117.307 190.635 117.939 189.651 117.939 188.566C117.939 187.48 117.307 186.495 116.32 186.036Z" fill="#FA7A42" fill-opacity="0.2"/>
<path opacity="0.3" d="M116.32 171.222L60.1579 144.471L1.62027 171.22C0.631822 171.693 0 172.705 0 173.819C0 174.932 0.631822 175.944 1.62027 176.417L57.7822 203.171C58.1585 203.35 58.5643 203.44 58.97 203.44C59.3758 203.44 59.7816 203.35 60.1579 203.171L116.32 176.417C117.307 175.945 117.939 174.935 117.939 173.82C117.939 172.705 117.307 171.693 116.32 171.222Z" fill="#FA7A42" fill-opacity="0.2"/>
<path opacity="0.5" d="M116.32 156.551L60.1579 130.504L1.62027 156.55C0.631822 157.01 0 157.995 0 159.08C0 160.164 0.631822 161.149 1.62027 161.61L57.7822 187.659C58.1585 187.834 58.5643 187.922 58.97 187.922C59.3758 187.922 59.7816 187.834 60.1579 187.659L116.32 161.61C117.307 161.15 117.939 160.167 117.939 159.081C117.939 157.995 117.307 157.01 116.32 156.551Z" fill="#FA7A42" fill-opacity="0.2"/>
</g>
<path fill-rule="evenodd" clip-rule="evenodd" d="M201.214 108.951C201.297 107.889 201.12 106.797 200.53 105.881C199.81 104.766 198.701 103.734 197.356 103.452L197.207 103.421C197.013 103.369 196.819 103.329 196.625 103.301C189.658 101.849 182.869 99.9124 176.286 97.2215C170.229 94.6323 164.427 91.4963 158.956 87.8344C158.271 87.3768 157.599 86.9192 156.926 86.4381C156.83 86.3694 156.732 86.3007 156.634 86.2317C156.397 86.065 156.157 85.8966 155.924 85.7224C154.944 85.0184 153.894 84.6546 152.667 84.6429C151.476 84.6194 150.225 84.6898 149.199 85.3586C148.777 85.6365 148.366 85.9456 147.956 86.2544C147.656 86.4803 147.356 86.706 147.052 86.9192C144.291 88.8787 141.436 90.674 138.487 92.3284C135.338 94.0911 132.091 95.6711 128.778 97.089C121.95 99.884 114.864 101.928 107.637 103.44C107.212 103.616 106.787 103.792 106.374 103.968C105.761 104.297 105.254 104.754 104.888 105.329C104.168 106.256 103.744 107.336 103.744 108.533V122.871C103.744 124.479 103.742 126.087 103.741 127.695C103.738 130.908 103.736 134.12 103.744 137.327C103.755 143.44 104.782 149.671 106.882 155.42C107.943 158.307 109.194 161.158 110.704 163.845C112.214 166.544 114.007 169.043 115.942 171.46C119.587 176.025 124.082 179.92 129.002 183.065C130.136 183.786 131.283 184.495 132.424 185.2C132.861 185.47 133.298 185.74 133.733 186.01C135.652 187.204 137.572 188.396 139.49 189.587C142.607 191.523 145.723 193.458 148.833 195.397C148.892 195.432 148.948 195.467 149.004 195.503C149.06 195.538 149.116 195.573 149.175 195.608C150.756 196.594 152.951 196.559 154.531 195.608C156.796 194.241 159.058 192.875 161.32 191.508C163.582 190.141 165.845 188.773 168.11 187.406C169.184 186.761 170.257 186.113 171.331 185.464C172.405 184.816 173.478 184.168 174.552 183.522C178.421 181.176 182.078 178.418 185.287 175.227C189.393 171.132 192.909 166.321 195.469 161.135C196.825 158.377 198.005 155.502 198.902 152.569C199.822 149.542 200.388 146.468 200.789 143.335C201.167 140.46 201.214 137.585 201.214 134.687V125.769V108.951ZM143.741 154.818L131.413 142.556C130.398 141.547 129.927 140.221 129.868 138.825C129.809 137.417 130.493 136.103 131.425 135.094C132.321 134.12 133.879 133.545 135.176 133.545C136.533 133.545 137.961 134.132 138.928 135.106L140.674 136.842L149.25 145.372C151.408 143.221 153.565 141.072 155.721 138.925C158.057 136.599 160.392 134.274 162.723 131.949L171.524 123.196C172.539 122.187 173.872 121.706 175.276 121.647C176.692 121.588 178.013 122.269 179.028 123.196C180.007 124.088 180.585 125.636 180.585 126.927C180.585 128.277 179.995 129.696 179.028 130.658L175.807 133.862L161.791 147.801L152.991 156.555C150.961 158.573 147.517 158.573 145.487 156.555L143.741 154.818Z" fill="url(#paint4_linear)"/>
<defs>
<linearGradient id="paint0_linear" x1="167" y1="-79.9288" x2="398.943" y2="272.926" gradientUnits="userSpaceOnUse">
<stop stop-color="#DD1C84"/>
<stop offset="0.5087" stop-color="#EA8855"/>
<stop offset="0.678731" stop-color="#F1A839"/>
<stop offset="0.771199" stop-color="#FF932F"/>
</linearGradient>
<linearGradient id="paint1_linear" x1="67.1059" y1="207.834" x2="295.96" y2="338.683" gradientUnits="userSpaceOnUse">
<stop stop-color="#FF613E"/>
<stop offset="1" stop-color="#FCA104"/>
</linearGradient>
<linearGradient id="paint2_linear" x1="67.1059" y1="190.484" x2="295.96" y2="321.332" gradientUnits="userSpaceOnUse">
<stop stop-color="#FF613E"/>
<stop offset="1" stop-color="#FCA104"/>
</linearGradient>
<linearGradient id="paint3_linear" x1="67.1059" y1="175.477" x2="295.96" y2="306.325" gradientUnits="userSpaceOnUse">
<stop stop-color="#FF613E"/>
<stop offset="1" stop-color="#FCA104"/>
</linearGradient>
<linearGradient id="paint4_linear" x1="103.738" y1="39.671" x2="234.23" y2="238.188" gradientUnits="userSpaceOnUse">
<stop stop-color="#DD1C84"/>
<stop offset="0.5087" stop-color="#EA8855"/>
<stop offset="0.678731" stop-color="#F1A839"/>
<stop offset="0.771199" stop-color="#FF932F"/>
</linearGradient>
</defs>
</svg>
