<svg width="186" height="57" viewBox="0 0 186 57" fill="none" xmlns="http://www.w3.org/2000/svg">
<rect width="186" height="56.0154" rx="6.40865" fill="#007FFF"/>
<path d="M46.3174 35.8802V20.0822H56.7975V22.8858H49.4102V27.0912H55.5737V29.8948H49.4102V35.8802H46.3174Z" fill="white"/>
<path d="M66.2212 36.0582C63.8478 36.0582 61.9119 35.3017 60.4137 33.7887C58.9155 32.2608 58.1664 30.325 58.1664 27.9812C58.1664 25.6226 58.9155 23.6868 60.4137 22.1738C61.9119 20.6459 63.8478 19.882 66.2212 19.882C68.5649 19.882 70.4859 20.6311 71.9841 22.1293C73.4971 23.6275 74.2537 25.5781 74.2537 27.9812C74.2537 30.3843 73.4971 32.3349 71.9841 33.8332C70.4859 35.3165 68.5649 36.0582 66.2212 36.0582ZM66.2434 33.1434C67.6081 33.1434 68.7429 32.6539 69.6478 31.6748C70.5526 30.6958 71.0051 29.4646 71.0051 27.9812C71.0051 26.4978 70.5526 25.2666 69.6478 24.2876C68.7429 23.3086 67.6081 22.8191 66.2434 22.8191C64.8342 22.8191 63.6772 23.316 62.7723 24.3098C61.8674 25.3037 61.415 26.5275 61.415 27.9812C61.415 29.4349 61.8674 30.6587 62.7723 31.6526C63.6772 32.6464 64.8342 33.1434 66.2434 33.1434Z" fill="white"/>
<path d="M89.2348 35.8802H85.5412L82.0033 30.4733H80.1788V35.8802H77.0859V20.0822H83.0714C84.8959 20.0822 86.2681 20.5643 87.1878 21.5285C88.1075 22.4779 88.5673 23.7462 88.5673 25.3334C88.5673 27.7958 87.4844 29.383 85.3187 30.095L89.2348 35.8802ZM80.1788 22.8636V27.7142H82.3594C83.3087 27.7142 84.043 27.4991 84.5622 27.0689C85.0814 26.6239 85.341 26.0232 85.341 25.2666C85.341 24.5249 85.0888 23.939 84.5844 23.5088C84.0949 23.0786 83.3977 22.8636 82.4929 22.8636H80.1788Z" fill="white"/>
<path d="M100.1 27.4917C101.124 27.7439 101.91 28.2186 102.459 28.9157C103.023 29.6129 103.304 30.4807 103.304 31.5191C103.304 32.8245 102.859 33.8777 101.969 34.6787C101.094 35.4797 99.8259 35.8802 98.1645 35.8802H91.6228V20.0822H97.319C98.9952 20.0822 100.271 20.4086 101.146 21.0612C102.036 21.7139 102.481 22.6707 102.481 23.9316C102.481 24.7029 102.288 25.4076 101.903 26.0454C101.517 26.6833 100.916 27.1579 100.1 27.4695V27.4917ZM94.6934 22.8413V26.5572H96.9407C97.6082 26.5572 98.1719 26.4014 98.6318 26.0899C99.0916 25.7636 99.3215 25.2963 99.3215 24.6881C99.3215 23.4569 98.4612 22.8413 96.7404 22.8413H94.6934ZM97.23 33.1211C98.0903 33.1211 98.7727 32.9505 99.277 32.6094C99.7814 32.2682 100.034 31.7713 100.034 31.1186C100.034 30.4807 99.7962 29.9838 99.3215 29.6278C98.8617 29.2569 98.1719 29.0715 97.2522 29.0715H94.6934V33.1211H97.23Z" fill="white"/>
<path d="M113.091 36.0582C110.718 36.0582 108.782 35.3017 107.284 33.7887C105.785 32.2608 105.036 30.325 105.036 27.9812C105.036 25.6226 105.785 23.6868 107.284 22.1738C108.782 20.6459 110.718 19.882 113.091 19.882C115.435 19.882 117.356 20.6311 118.854 22.1293C120.367 23.6275 121.124 25.5781 121.124 27.9812C121.124 30.3843 120.367 32.3349 118.854 33.8332C117.356 35.3165 115.435 36.0582 113.091 36.0582ZM113.113 33.1434C114.478 33.1434 115.613 32.6539 116.518 31.6748C117.423 30.6958 117.875 29.4646 117.875 27.9812C117.875 26.4978 117.423 25.2666 116.518 24.2876C115.613 23.3086 114.478 22.8191 113.113 22.8191C111.704 22.8191 110.547 23.316 109.642 24.3098C108.737 25.3037 108.285 26.5275 108.285 27.9812C108.285 29.4349 108.737 30.6587 109.642 31.6526C110.547 32.6464 111.704 33.1434 113.113 33.1434Z" fill="white"/>
<path d="M123.956 35.8802V20.0822H127.093V33.0989H134.124V35.8802H123.956Z" fill="white"/>
<path d="M136.559 35.8802V20.0822H146.661V22.8858H139.629V26.6684H145.259V29.4275H139.629V33.0989H147.128V35.8802H136.559Z" fill="white"/>
<path d="M165.402 35.8802L161.842 30.3398H161.798L158.238 35.8802H154.589L159.751 27.9367L154.744 20.0822H158.327L161.798 25.5336H161.842L165.313 20.0822H168.896L163.889 27.9367L169.052 35.8802H165.402Z" fill="white"/>
<path fill-rule="evenodd" clip-rule="evenodd" d="M26.5523 39.8009C26.9343 40.199 27.3159 40.5965 27.707 40.9769C27.9304 41.1939 27.9974 41.2709 28.1027 41.392C28.1621 41.4603 28.2336 41.5426 28.3522 41.6719C29.9176 40.1412 33.5017 36.6142 34.6723 35.2097C36.6144 32.8786 38.2801 30.4342 38.3812 27.2413C38.4409 25.3453 37.9657 23.4707 37.0099 21.8321C36.9929 22.0295 36.9802 22.2009 36.9688 22.3551C36.9479 22.6383 36.9313 22.8638 36.8995 23.0871C36.5977 24.9029 35.8116 26.6037 34.6239 28.0099C32.1646 31.2285 30.5544 32.8604 27.3227 36.1357C26.6651 36.8022 25.9403 37.5367 25.1276 38.3665C25.6153 38.8247 26.0841 39.3132 26.5523 39.8009ZM21.5526 34.5597C21.7297 34.7511 21.9717 35.0127 22.1001 35.1404L22.0979 35.1397C22.419 35.4594 22.7056 35.7549 22.9855 36.0434C23.4303 36.5019 23.8581 36.9429 24.3799 37.4355C26.4358 35.2417 27.8411 33.7684 28.8887 32.6701C30.8289 30.6361 31.542 29.8885 32.8875 28.2337C34.0099 26.893 35.0149 25.4583 35.8913 23.9452C36.3294 23.2662 36.5486 22.469 36.5195 21.6614C36.4903 20.8537 36.2141 20.0745 35.7281 19.4288C33.5457 16.5932 30.1017 14.7665 27.3888 15.3865C27.2488 15.4358 27.121 15.5146 27.0139 15.6174C26.9069 15.7202 26.823 15.8447 26.7681 15.9826C25.8263 14.9159 25.0562 14.1805 23.4814 14.4028L23.9707 15.31L21.3574 15.0595C21.5264 15.2964 21.6783 15.5116 21.8195 15.7117C22.1124 16.1266 22.359 16.476 22.6161 16.8169C22.7277 16.9541 22.8527 17.0798 22.9892 17.1922C22.7965 17.4264 22.6033 17.6603 22.4101 17.8942C21.739 18.7069 21.0681 19.5192 20.4163 20.3425C20.2301 20.577 19.9833 20.953 20.0554 21.1544C20.5008 22.3526 20.0143 23.317 19.516 24.3048C19.4563 24.4231 19.3965 24.5418 19.3381 24.6612C18.8411 25.6778 18.3849 26.7138 17.9284 27.7508C17.7451 28.167 17.5618 28.5834 17.3757 28.9987C17.2969 29.1192 17.2496 29.2576 17.2381 29.4012C17.2266 29.5448 17.2513 29.689 17.31 29.8206C17.3687 29.9521 17.4594 30.0668 17.5739 30.1543C17.6884 30.2417 17.823 30.2989 17.9654 30.3209C18.8023 30.6076 19.6566 30.8407 20.5231 31.0187C21.6374 31.2179 22.287 30.5431 22.3231 29.4043C22.3377 28.9019 22.4561 28.408 22.6709 27.9536C22.9626 27.3338 23.4629 26.8363 24.0843 26.548C24.7056 26.2597 25.4086 26.1991 26.0702 26.3767C26.5474 26.469 27.0409 26.4258 27.4949 26.2521C27.9488 26.0784 28.3451 25.781 28.6388 25.3937C28.7701 25.2387 28.9045 25.0863 29.0389 24.934C29.2805 24.6602 29.5218 24.3867 29.7444 24.0983C31.0529 22.4094 32.3513 20.7141 32.3274 18.3585C32.4496 18.7193 32.546 19.0883 32.6161 19.4627C32.8362 21.2749 31.942 22.7292 30.8984 24.0282C27.9986 27.7192 24.8291 31.1901 21.4159 34.4122C21.4524 34.4515 21.4996 34.5025 21.5526 34.5597Z" fill="white"/>
</svg>
