<svg xmlns="http://www.w3.org/2000/svg" viewBox="0 0 86 86"><defs><style>.cls-1{fill:#fff;}.cls-2{fill:none;stroke:#fff;stroke-miterlimit:10;stroke-width:2px;}</style></defs><title>about-token</title><g id="Layer_2" data-name="Layer 2"><g id="Livello_1" data-name="Livello 1"><path class="cls-1" d="M60.32,29.65a39.42,39.42,0,0,0-8.57-7.36c-7.66-4.92-15.61-6.75-19.34-4.44-1.81,1.11-3.18,3.28-4.13,6.6-2.8,3.14-4.19,9.8-4.35,20.63-.16,11.23,1.52,18.31,5,21A10.93,10.93,0,0,0,35.71,68a29.81,29.81,0,0,0,11-2.44l.86-.37a35.19,35.19,0,0,0,5-1.65c10.93-4.49,15.5-11.61,16.15-16.78C69.56,40.42,65.5,34.3,60.32,29.65Zm-25.14,34a7.61,7.61,0,0,1-1.54-1.72,13.84,13.84,0,0,0,4.72.74,29.57,29.57,0,0,0,11-2.44A31.07,31.07,0,0,0,61.4,52c-1.76,4.31-6.08,9.21-14,12.7C42.17,65.91,37.67,65.59,35.18,63.64Zm14-4c-6.41,2.64-12.47,3.12-16,1.37-1.91-3.54-2.82-9.55-2.7-18C30.57,32.47,32,25.8,34.65,22.79c3.91.19,9.07,2.07,14.13,5.32,7.19,4.62,14.51,12.46,13.5,20.6a11,11,0,0,1-.32,1.6C59.48,53.71,55.37,57.12,49.14,59.68Zm-19.07-36a7.42,7.42,0,0,1,3.82-.91c-2.6,3.28-3.9,9.85-4.05,20.3-.12,7.89.68,13.73,2.37,17.45l-.29-.2c-3.31-2.61-4.91-9.53-4.76-20.56.1-6.45.65-11.44,1.67-15A5.71,5.71,0,0,1,30.07,23.68Zm19,3.94c-4.92-3.16-10-5-13.92-5.36a6.1,6.1,0,0,1,.79-.6,7.46,7.46,0,0,1,3.92-.91c4,0,9.44,1.91,14.8,5.35a41.59,41.59,0,0,1,5.22,4c3.38,4,5.61,8.57,5,13.3A14.6,14.6,0,0,1,62.83,49l0-.24C63.91,40.37,56.44,32.34,49.1,27.62ZM32.71,18.34a7.58,7.58,0,0,1,3.92-.91c4,0,9.44,1.91,14.8,5.35a41.74,41.74,0,0,1,5.07,3.84c-.49-.36-1-.69-1.5-1-7.65-4.91-15.6-6.74-19.34-4.44a6.81,6.81,0,0,0-1.27,1,8.34,8.34,0,0,0-4.63,1c-.2.13-.39.26-.58.41C30.06,21,31.24,19.26,32.71,18.34ZM29.28,65.66c-3.32-2.61-4.92-9.53-4.76-20.57.13-9.4,1.24-15.72,3.37-19.12a68,68,0,0,0-1.31,13.78c-.16,11.23,1.52,18.3,5,21a7,7,0,0,0,1.15.72,8.6,8.6,0,0,0,2.11,2.6A11,11,0,0,0,41.62,66a23.3,23.3,0,0,0,2.82-.19C38,68,32.23,68,29.28,65.66Zm38.91-19c-.63,5-5.1,11.92-15.79,16.31-.55.23-1.09.43-1.64.63,7-3.87,10.57-8.88,11.74-13.07a15.83,15.83,0,0,0,3-7.12,16.1,16.1,0,0,0-2.8-10.58C66.34,36.93,68.8,41.75,68.19,46.69Z"/><circle class="cls-2" cx="43" cy="43" r="42"/></g></g></svg>