<svg id="Livello_1" data-name="Livello 1" xmlns="http://www.w3.org/2000/svg" viewBox="0 0 84 698">
  <defs>
    <style>
      .cls-1 {
        fill: #ea544a;
      }

      .cls-2 {
        fill: #fdc73c;
      }

      .cls-3 {
        fill: #010101;
      }

      .cls-4 {
        fill: #2d8f9e;
      }

      .cls-5 {
        fill: #fff;
      }

      .cls-6 {
        fill: #ed6d54;
      }

      .cls-7 {
        fill: #d05d3c;
      }
    </style>
  </defs>
  <title>Senza titolo-1</title>
  <g>
    <circle class="cls-1" cx="42" cy="42" r="42"/>
    <circle class="cls-2" cx="42" cy="198" r="42"/>
    <circle class="cls-3" cx="42" cy="499" r="42"/>
    <circle class="cls-4" cx="42" cy="656" r="42"/>
    <path class="cls-5" d="M429.42051,57.41537a.39194.39194,0,0,0-.20365.06963h.00522c-7.39413,5.11226-11.79256,5.82209-14.73212,5.82209h-8.132A5.20146,5.20146,0,0,0,401.157,68.508V70.6768a5.19993,5.19993,0,0,0,5.20094,5.19915h4.32882l4.40195,10.663a.39248.39248,0,0,0,.35334.235.40672.40672,0,0,0,.15143-.02959.37158.37158,0,0,0,.20712-.50477L411.52047,75.876h2.96073c10.13184,0,14.41575,5.42908,14.65058,5.73877l.00174.00174v.00174a.37475.37475,0,0,0,.30809.16187.38849.38849,0,0,0,.11488-.0174.37527.37527,0,0,0,.26631-.36379V73.5365l.4926-.1114a3.91783,3.91783,0,0,0,3.04254-3.82406v-.00522a3.88935,3.88935,0,0,0-3.03038-3.81885l-.49781-.1114V57.79109a.35456.35456,0,0,0-.20365-.33419l-.00174-.00174h-.00174a.38089.38089,0,0,0-.20191-.04178Zm-.35857,1.12788V80.28853l-1.04259-.85465c-2.17747-1.79279-6.47131-4.32708-13.54016-4.32708h-3.15568V64.07664h3.15568c2.832,0,6.83892-.54829,13.59943-4.90149l.98168-.63185Zm-22.70418,5.53513h4.207V75.10853h-4.207a4.443,4.443,0,0,1-4.43154-4.43153V68.50822a4.443,4.443,0,0,1,4.43154-4.43153Zm33.40193.07485a.36113.36113,0,0,0-.14969.02785h-.00174l-3.87455,1.52129a.3809.3809,0,0,0-.20713.49086.39422.39422,0,0,0,.35334.24717.687.687,0,0,0,.17928-.03656l3.8328-1.50213a.36991.36991,0,0,0,.21583-.49781.38371.38371,0,0,0-.34812-.2489Zm-9.92821,2.1653.89466.39859a3.15957,3.15957,0,0,1,1.87112,2.87892v.00174a3.13072,3.13072,0,0,1-1.87112,2.87718l-.89466.3986Zm6.515,2.89286a.3899.3899,0,0,0,0,.77979h3.99641a.38072.38072,0,0,0,.38989-.38989.36908.36908,0,0,0-.38989-.3899Zm-.47518,3.53167a.38018.38018,0,0,0-.34812.24716.37377.37377,0,0,0,.21584.49955l3.87107,1.51778a.32049.32049,0,0,0,.13924.02262.389.389,0,0,0,.36031-.2489v-.00174l.00174-.00174a.36784.36784,0,0,0-.21932-.48213L436.021,72.77437a.39409.39409,0,0,0-.15143-.02785Z" transform="translate(-378.94488 -30.09316)"/>
    <path class="cls-5" d="M423.02605,533.8729a2.07882,2.07882,0,1,1-2.07687-2.08076A2.078,2.078,0,0,1,423.02605,533.8729Zm-6.83539-17.99733c2.32609-3.99158,7.05105-4.407,9.45358-.24922L435.77936,533.185c2.34946,4.11087.17264,8.31147-4.512,8.30748l-20.23636.00389c-4.51594,0-7.44051-3.79818-4.97784-8.0649l10.13912-17.5547Zm.95406.55557-10.13513,17.55471c-2.02755,3.50874.35826,6.4034,4.02149,6.4034h20.23636c3.84736.00649,5.47629-3.297,3.55527-6.65628l-10.13513-17.55471c-1.97432-3.419-5.6451-3.00368-7.54286.25312Zm3.25029,4.66515a.553.553,0,0,1,1.10592,0v6.69517a.553.553,0,0,1-1.10592,0Zm1.5213,12.77658a.969.969,0,1,0-.96706.967A.96453.96453,0,0,0,421.91631,533.87287Z" transform="translate(-378.94488 -30.09316)"/>
    <g>
      <path class="cls-6" d="M420.47873,132.7139h.93365v33.97237h-.93365Z" transform="translate(-378.94488 -30.09316)"/>
      <path class="cls-6" d="M420.93482,167.4724H420.933a1.1583,1.1583,0,0,1-.92638-.5051l-2.15543-2.9742a.46615.46615,0,0,1,.75494-.547l2.15543,2.9742a.18273.18273,0,0,0,.34283.00182l2.17914-2.97784a.46722.46722,0,1,1,.75493.55069l-2.17915,2.97784a1.15139,1.15139,0,0,1-.92454.49965Z" transform="translate(-378.94488 -30.09316)"/>
    </g>
    <g>
      <path class="cls-7" d="M420.47873,288.7139h.93365v33.97237h-.93365Z" transform="translate(-378.94488 -30.09316)"/>
      <path class="cls-7" d="M420.93482,323.4724H420.933a1.1583,1.1583,0,0,1-.92638-.5051l-2.15543-2.9742a.46615.46615,0,0,1,.75494-.54705l2.15543,2.9742a.18273.18273,0,0,0,.34283.00182l2.17914-2.97784a.46722.46722,0,1,1,.75493.55069l-2.17915,2.97784a1.15139,1.15139,0,0,1-.92454.49965Z" transform="translate(-378.94488 -30.09316)"/>
    </g>
    <g>
      <path class="cls-7" d="M420.47873,432.7139h.93365v33.97237h-.93365Z" transform="translate(-378.94488 -30.09316)"/>
      <path class="cls-7" d="M420.93482,467.4724H420.933a1.1583,1.1583,0,0,1-.92638-.5051l-2.15543-2.9742a.46615.46615,0,0,1,.75494-.54705l2.15543,2.9742a.18273.18273,0,0,0,.34283.00182l2.17914-2.97784a.46722.46722,0,1,1,.75493.55069l-2.17915,2.97784a1.15139,1.15139,0,0,1-.92454.49965Z" transform="translate(-378.94488 -30.09316)"/>
    </g>
    <g>
      <path class="cls-7" d="M420.47873,593.7139h.93365v33.97237h-.93365Z" transform="translate(-378.94488 -30.09316)"/>
      <path class="cls-7" d="M420.93482,628.4724H420.933a1.1583,1.1583,0,0,1-.92638-.5051l-2.15543-2.9742a.46615.46615,0,0,1,.75494-.54705l2.15543,2.9742a.18273.18273,0,0,0,.34283.00182l2.17914-2.97784a.46722.46722,0,0,1,.75493.55069l-2.17915,2.97784a1.15139,1.15139,0,0,1-.92454.49965Z" transform="translate(-378.94488 -30.09316)"/>
    </g>
    <g>
      <path class="cls-5" d="M413.62114,220.11978H413.467a3.27206,3.27206,0,1,1,3.28567-3.272.49949.49949,0,1,0,.999,0,4.2793,4.2793,0,0,0-3.78516-4.23979v-1.17264a.49949.49949,0,0,0-.999,0V212.608a4.26917,4.26917,0,0,0,.49949,8.51079h.15413a3.27206,3.27206,0,1,1-3.28566,3.272.49949.49949,0,0,0-.999,0,4.27805,4.27805,0,0,0,3.631,4.21635v1.196a.49949.49949,0,1,0,.999,0v-1.159a4.26859,4.26859,0,0,0-.34535-8.52443Z" transform="translate(-378.94488 -30.09316)"/>
      <path class="cls-5" d="M432.10612,228.43372l.47412-1.07309a.50012.50012,0,0,0-.91507-.40388l-.47412,1.0731a4.279,4.279,0,0,0-5.17218,2.353,4.27784,4.27784,0,0,0,2.197,5.6368l.14048.06244a3.272,3.272,0,1,1-4.32563,1.66818.49883.49883,0,0,0-.91312-.40193,4.279,4.279,0,0,0,1.62138,5.32252l-.48192,1.09457a.49883.49883,0,1,0,.91312.40193l.46827-1.05946a4.26757,4.26757,0,0,0,5.32072-2.30234,4.27782,4.27782,0,0,0-2.197-5.63679l-.14048-.06244a3.272,3.272,0,1,1,4.32563-1.66818.49883.49883,0,0,0,.91312.40192,4.28046,4.28046,0,0,0-1.75405-5.40643Z" transform="translate(-378.94488 -30.09316)"/>
      <path class="cls-5" d="M433.46971,224.10618a12.53029,12.53029,0,0,0-7.785-.75118,12.53821,12.53821,0,1,0-9.47836,9.48225,12.51606,12.51606,0,0,0,23.66714,7.78089,12.527,12.527,0,0,0-6.40361-16.5125Zm-31.526-3.48666a11.52314,11.52314,0,1,1,11.52313,11.52114A11.5364,11.5364,0,0,1,401.94367,220.61952Zm37.01639,19.59333a11.5223,11.5223,0,0,1-21.6612-7.6736,12.57574,12.57574,0,0,0,8.08718-8.08917,11.52072,11.52072,0,0,1,13.5738,15.76307Z" transform="translate(-378.94488 -30.09316)"/>
    </g>
    <path class="cls-6" d="M461.01094,369.15232v-.10515L447.03411,348.964l-22.05336-10.87086h-.10515l-26.089,7.65971-13.97269,16.36324v.10515l-3.935,26.81273v.10515L394.75,409.22229l22.05337,10.87087h.10515l26.089-7.65972,13.77081-16.35911ZM437.5102,412.22373c-.20625.10515-.41251.20626-.41251.41251l-19.35946-3.935v-.51766a2.10482,2.10482,0,0,0-.41251-1.34674l17.18839-10.35321a5.74144,5.74144,0,0,0,4.14129,2.69349Zm12.62988-40.06587-12.73549-5.07142a4.80049,4.80049,0,0,0,.41252-2.17583,5.39156,5.39156,0,0,0-1.553-3.82986l8.594-9.73035a1.17908,1.17908,0,0,0,.82907.3114.37821.37821,0,0,0,.3114-.10515l6.41816,18.42975a3.93293,3.93293,0,0,0-2.27688,2.17179ZM415.1452,405.70017H414.939l.3114-13.25313a7.41087,7.41087,0,0,0,6.72959-4.86518l11.80058,4.14128a7.94163,7.94163,0,0,0-.20625,1.65817,6.69428,6.69428,0,0,0,.72391,2.89972l-17.18839,10.35321a2.73017,2.73017,0,0,0-1.96545-.93422Zm-21.4301-19.25489,8.38775-20.39478a5.17289,5.17289,0,0,0,1.34675.20626,3.30589,3.30589,0,0,0,1.44779-.31141l6.41816,12.21782a7.62918,7.62918,0,0,0-4.03609,6.72958,5.40468,5.40468,0,0,0,.10514,1.34675l-12.01179,2.27688a3.04,3.04,0,0,0-1.65817-2.07065Zm33.0288-21.53571a5.30421,5.30421,0,0,0,1.96545,4.14128l-8.80022,10.147a7.396,7.396,0,0,0-5.07142-1.96546,8.14534,8.14534,0,0,0-3.21115.72392l-6.41816-12.21782A3.90489,3.90489,0,0,0,407.279,363.045Zm7.14206,26.50214-11.80059-4.14128a8.84546,8.84546,0,0,0,.41252-2.38207,7.35027,7.35027,0,0,0-2.27688-5.38284l8.80023-10.147a5.35167,5.35167,0,0,0,3.31219,1.14051,3.47037,3.47037,0,0,0,1.03532-.10514l4.24648,17.28881a6.05919,6.05919,0,0,0-3.72882,3.72881Zm10.55923-40.2719-8.594,9.73035a4.92754,4.92754,0,0,0-3.51843-1.44779,5.49919,5.49919,0,0,0-2.69349.72392l-6.93582-12.11222a3.07,3.07,0,0,0,1.24155-1.75921l20.18876,3.82986v.10514a1.45069,1.45069,0,0,0,.3114.93018Zm-25.57138-3.3122a3.02507,3.02507,0,0,0,3.41738.51766l6.93582,12.00765a5.57978,5.57978,0,0,0-2.38206,4.24647l-19.46507-1.75922c0-.20625.10515-.3114.10515-.51766a3.53076,3.53076,0,0,0-.93018-2.48311Zm-17.1884,18.11811-8.28256,20.39478a4.31691,4.31691,0,0,0-1.14051-.20625,1.73342,1.73342,0,0,0-.72392.10514l-6.6244-18.63577,14.70052-3.72881a4.4862,4.4862,0,0,0,2.07065,2.07064Zm-6.21192,22.98308,12.01179-2.27687a7.53125,7.53125,0,0,0,7.24724,5.79945l-.3114,13.35356a2.13157,2.13157,0,0,0-1.44779,1.03533l-17.91209-15.52982a3.573,3.573,0,0,0,.51766-1.8644.76951.76951,0,0,0-.10514-.51766Zm44.10673-1.553a9.29419,9.29419,0,0,0-1.65817.20626l-4.24647-17.28882a5.46146,5.46146,0,0,0,3.51843-2.89973l12.83591,5.07142a5.17274,5.17274,0,0,0-.20626,1.34674,4.03846,4.03846,0,0,0,1.4478,3.106l-8.28257,11.38852a6.76981,6.76981,0,0,0-3.40931-.93017Zm14.28846-17.706a5.37889,5.37889,0,0,0-1.34674.20626l-6.41816-18.42975a.103.103,0,0,0,.10515-.10515l14.18285,17.70606-3.21115,2.17583a4.39877,4.39877,0,0,0-3.3122-1.553Zm3.82987-4.65894-11.0769-13.87123a1.26627,1.26627,0,0,0,.31141-.93017,1.51422,1.51422,0,0,0-.20626-.72392l.20626-.10515ZM446.62165,349.069l-.10515.10515a1.3121,1.3121,0,0,0-.93017-.41251,1.27317,1.27317,0,0,0-1.03532.51766l-14.70052-8.4888Zm-21.74173-10.55924,19.35946,11.1825v.10515l-20.29436-3.8339v-.3114a3.05173,3.05173,0,0,0-1.44779-2.5883Zm-.41655,0-2.27688,4.34752a2.76531,2.76531,0,0,0-1.24156-.3114,2.97838,2.97838,0,0,0-3.00077,2.89973l-17.91208.3114Zm-6.51932,7.24725a2.93956,2.93956,0,0,0,.72392,1.75922l-12.32239,11.90618a4.15207,4.15207,0,0,0-2.89972-1.24155,3.13641,3.13641,0,0,0-1.03533.20625l-3.41738-12.31824Zm-19.3636.61877,3.3122,12.21782a4.03,4.03,0,0,0-2.5883,3.72881,4.55114,4.55114,0,0,0,.20626,1.14051l-14.49449,3.72881Zm-13.45917,15.946,11.70016-13.87123L384.91525,366.6701Zm-.61877,4.45271v.6228l-.41251,2.48311Zm.20626,1.3427,6.41816,18.22372a3.54792,3.54792,0,0,0-2.27688,2.69349l-7.55867-.10514Zm-3.3122,21.12262,7.45348.20625v.10515a3.33454,3.33454,0,0,0,3.3122,3.3122h.41251l2.07064,15.63541Zm11.59456,3.51843a3.47874,3.47874,0,0,0,1.75922-1.14051l18.0125,15.52981a2.09614,2.09614,0,0,0-.3114,1.14051l-17.39443.62281Zm2.69349,16.46367,16.87676-.62281a2.45072,2.45072,0,0,0,2.38207,2.17583l1.86441,8.80022Zm19.67109,1.65413a2.47663,2.47663,0,0,0,2.17583-1.65817l19.35946,3.935-19.77669,6.6244Zm10.76527,6.21193,11.07689-3.72882a.78752.78752,0,0,0,.51766.20626.65774.65774,0,0,0,.62281-.51766l2.38207-.31141Zm16.97718-4.97037-4.65894.62281v-.10515l16.67073-14.802Zm-4.96632.21029c-.10515,0-.10515-.10515-.20626-.10515l1.03532-12.83591h.62281a5.99814,5.99814,0,0,0,5.9005-4.86518l10.97647,1.44779Zm7.45348-18.11811c0-.3114.10515-.51766.10515-.82906a6.12609,6.12609,0,0,0-2.48311-4.86518l8.28256-11.38853a4.21025,4.21025,0,0,0,2.48312.82906h.20625l2.5883,17.80649Zm11.28293.41251-2.38206-16.77116a4.1177,4.1177,0,0,0,3.51843-4.03609,4.40462,4.40462,0,0,0-.62281-2.27688l3.21115-2.07064Z" transform="translate(-378.94488 -30.09316)"/>
    <path class="cls-5" d="M414.28758,665.37756a4.861,4.861,0,1,0,4.85907,4.86284A4.85742,4.85742,0,0,0,414.28758,665.37756Zm12.76,0a4.861,4.861,0,1,0,4.85907,4.86284A4.8542,4.8542,0,0,0,427.04759,665.37756Zm0,.81694a4.04324,4.04324,0,1,1-4.04416,4.04416A4.053,4.053,0,0,1,427.04759,666.1945Zm-12.76.00184a4.04324,4.04324,0,1,1-4.04415,4.04232A4.05265,4.05265,0,0,1,414.28758,666.19634ZM410.56726,677.58a4.83812,4.83812,0,0,0-4.82233,4.81338V689.446a4.82264,4.82264,0,0,0,2.53909,4.23186l.35511.19135v9.64325a3.693,3.693,0,0,0,3.69645,3.69645h4.99519a.41215.41215,0,1,0,0-.82429h-4.99519a2.88975,2.88975,0,0,1-2.87767-2.88135v-9.92256a.41831.41831,0,0,0-.27047-.38455,3.99932,3.99932,0,0,1-2.61823-3.74609V682.405a4.01068,4.01068,0,0,1,4-3.99819h4.72295a.414.414,0,0,0,0-.828h-4.72295Zm12.21738.01288a4.82,4.82,0,0,0-4.81856,4.81526v7.03614a4.82655,4.82655,0,0,0,2.54093,4.23186l.35511.19135v9.64325a3.693,3.693,0,0,0,3.69645,3.69644h4.99378a3.693,3.693,0,0,0,3.69645-3.69644v-9.64325l.3551-.18951a4.83446,4.83446,0,0,0,2.54094-4.23553v-7.03614a4.81441,4.81441,0,0,0-4.81857-4.81526h-8.54294Zm0,.81694h8.54294a4.00948,4.00948,0,0,1,4,3.99818v7.03614a4.001,4.001,0,0,1-2.61822,3.74609.40935.40935,0,0,0-.26679.38455v9.93952a2.89291,2.89291,0,0,1-2.88135,2.88134h-4.99519a2.88975,2.88975,0,0,1-2.87767-2.88134V693.5861a.42156.42156,0,0,0-.27047-.38638,3.99933,3.99933,0,0,1-2.61822-3.7461V683.0821h-.01288v-.67342a4.01066,4.01066,0,0,1,4-3.99818Z" transform="translate(-378.94488 -30.09316)"/>
  </g>
</svg>
