<svg xmlns="http://www.w3.org/2000/svg" viewBox="0 0 176.07 176.07"><defs><style>.cls-1{fill:#ed6c53;}</style></defs><title>mission-inflation</title><g id="Layer_2" data-name="Layer 2"><g id="Livello_1" data-name="Livello 1"><path class="cls-1" d="M55.75,111.84a6.09,6.09,0,0,0,6.12-6.09,6.36,6.36,0,0,0-1-3.42L71.38,91.77a6.11,6.11,0,0,0,9.86-3.59h.11v0H96a6.1,6.1,0,0,0,12-1.51,7.83,7.83,0,0,0-.21-1.55l11.23-10.57a6.25,6.25,0,0,0,2.71.64,6.06,6.06,0,1,0-6.12-6,6,6,0,0,0,1.54,4L106.77,83a6.15,6.15,0,0,0-4.82-2.4A6.07,6.07,0,0,0,95.89,86H81.35v0h-.11a6.11,6.11,0,0,0-12.11,1.13,6,6,0,0,0,.77,3L59.16,100.71a6,6,0,0,0-3.41-1,6.09,6.09,0,1,0,0,12.18Z"/><path class="cls-1" d="M37.93,138.11V35.25H35.21V140.82H140.86v-2.71Z"/><path class="cls-1" d="M88,176.07A88,88,0,0,1,25.78,25.78,88,88,0,0,1,150.3,150.3,87.49,87.49,0,0,1,88,176.07ZM88,5.63A82.41,82.41,0,1,0,170.44,88,82.52,82.52,0,0,0,88,5.63Z"/></g></g></svg>