<svg id="Livello_1" data-name="Livello 1" xmlns="http://www.w3.org/2000/svg" viewBox="0 0 179.08792 179.08792">
  <defs>
    <style>
      .cls-1 {
        fill: #dd735b;
      }

      .cls-2 {
        fill: none;
        stroke: #ed6d54;
        stroke-miterlimit: 10;
        stroke-width: 6px;
      }
    </style>
  </defs>
  <title>12_Equalizing</title>
  <path class="cls-1" d="M445.77082,276.95456a8.023,8.023,0,0,0,1.61791-3.47014h14.34471a2.31195,2.31195,0,1,0,0-4.62389H447.38873a9.943,9.943,0,0,0-3.7-5.55221,9.57113,9.57113,0,0,0-13.41638,2.08208,11.99205,11.99205,0,0,0-1.61792,3.47013H380.76656a2.31195,2.31195,0,0,0,0,4.62389h47.88788a9.943,9.943,0,0,0,3.7,5.55222A9.4017,9.4017,0,0,0,445.77082,276.95456Zm-10.64027-1.61792a4.49269,4.49269,0,0,1-2.08209-3.24027,4.34185,4.34185,0,0,1,.92393-3.7,4.91507,4.91507,0,0,1,6.94027-1.15819,4.49266,4.49266,0,0,1,2.08208,3.24027v.694a4.63914,4.63914,0,0,1-.92392,3.006A4.91137,4.91137,0,0,1,435.13055,275.33664Zm-23.59693,27.991a8.023,8.023,0,0,0,1.61792-3.47013h48.5819a2.31195,2.31195,0,1,0,0-4.62389h-48.5819a9.943,9.943,0,0,0-3.7-5.55222,9.57115,9.57115,0,0,0-13.41638,2.08208,11.99238,11.99238,0,0,0-1.61792,3.47014H380.76656a2.31195,2.31195,0,0,0,0,4.62389h13.65068a9.624,9.624,0,0,0,17.11638,3.47013Zm-10.64027-1.84789a4.49266,4.49266,0,0,1-2.08208-3.24027,4.34188,4.34188,0,0,1,.92392-3.7,4.91508,4.91508,0,0,1,6.94027-1.15819,4.49269,4.49269,0,0,1,2.08209,3.24027v.694a4.63915,4.63915,0,0,1-.92393,3.006A4.91564,4.91564,0,0,1,400.89335,301.4797Zm35.85511,27.991a8.02286,8.02286,0,0,0,1.61792-3.47013h23.36706a2.31194,2.31194,0,1,0,0-4.62389l-23.36262-.00434a9.85929,9.85929,0,0,0-10.87013-7.40443,9.51631,9.51631,0,0,0-6.24625,3.9343,15.83994,15.83994,0,0,0-1.61792,3.47013h-38.87a2.31194,2.31194,0,1,0,0,4.62389h39.09538a9.943,9.943,0,0,0,3.7,5.55222A9.53627,9.53627,0,0,0,436.74846,329.47065Zm-10.64027-1.61791a5.46821,5.46821,0,0,1-2.08208-3.47014v-.92826a4.12887,4.12887,0,0,1,.92392-2.31194,4.49269,4.49269,0,0,1,3.24028-2.08209,5.265,5.265,0,0,1,3.7.92393,4.49266,4.49266,0,0,1,2.08208,3.24027v.694a4.63915,4.63915,0,0,1-.92393,3.006,5.0507,5.0507,0,0,1-6.94027.92826Z" transform="translate(-331.70604 -207.78937)"/>
  <circle class="cls-2" cx="89.54396" cy="89.54396" r="86.54396"/>
</svg>
