<svg id="Livello_1" data-name="Livello 1" xmlns="http://www.w3.org/2000/svg" viewBox="0 0 450.03267 460.52291">
  <defs>
    <style>
      .cls-1 {
        fill: #ed6d54;
      }

      .cls-2 {
        fill: #ea544a;
      }

      .cls-3 {
        fill: #fff;
      }

      .cls-4 {
        fill: #fdc73c;
      }

      .cls-5 {
        fill: #2d8f9e;
      }
    </style>
  </defs>
  <title>Decentralized_Socialnetwork</title>
  <g>
    <path class="cls-1" d="M645.96122,323.2641v-.59051L567.46548,209.88394,443.61083,148.8317h-.59051l-146.51955,43.018L218.0283,283.74783v.59051L195.92855,434.92222v.59051l77.90264,112.78964,123.85463,61.05224h.59052l146.51956-43.018,77.33866-91.87491ZM513.97793,565.15888c-1.15836.59054-2.31672,1.15836-2.31672,2.31672l-108.7253-22.09973v-2.90725a11.821,11.821,0,0,0-2.31673-7.56348l96.53231-58.145c5.224,8.131,13.378,13.94549,23.258,15.127ZM584.909,340.14359l-71.52416-28.48174c1.74889-3.49776,2.31671-7.5635,2.31671-12.21975a30.27986,30.27986,0,0,0-8.72175-21.509l48.265-54.647a6.62166,6.62166,0,0,0,4.65615,1.74888,2.12414,2.12414,0,0,0,1.74889-.59053l36.04526,103.50391a22.0878,22.0878,0,0,0-12.78727,12.19709ZM388.37312,528.52171h-1.15836l1.74889-74.43139a41.62031,41.62031,0,0,0,37.79424-27.32349l66.27365,23.258a44.59921,44.59921,0,0,0-1.15835,9.3125,37.5961,37.5961,0,0,0,4.0656,16.28523l-96.53229,58.145c-2.88451-2.90725-6.38256-5.24668-11.03824-5.24668Zm-120.35431-108.138,47.10674-114.5398a29.05232,29.05232,0,0,0,7.5635,1.15836,18.56642,18.56642,0,0,0,8.131-1.74889l36.04524,68.61689A42.84649,42.84649,0,0,0,344.198,411.66447a30.35169,30.35169,0,0,0,.59051,7.5635l-67.45982,12.78725a17.07277,17.07277,0,0,0-9.3125-11.629Zm185.49413-120.9474a29.78909,29.78909,0,0,0,11.03824,23.258L415.12794,379.681a41.53681,41.53681,0,0,0-28.48173-11.03824,45.7451,45.7451,0,0,0-18.03426,4.06561l-36.04523-68.61689a21.9305,21.9305,0,0,0,11.629-15.127ZM493.62368,448.2758,427.35,425.01781a49.67847,49.67847,0,0,0,2.31673-13.378,41.28,41.28,0,0,0-12.78724-30.23074l49.42324-56.98675a30.0559,30.0559,0,0,0,18.60174,6.40526,19.48935,19.48935,0,0,0,5.8145-.59051l23.84875,97.0963a34.029,34.029,0,0,0-20.9415,20.9415Zm59.30205-226.17236-48.265,54.647a27.67374,27.67374,0,0,0-19.76-8.131,30.884,30.884,0,0,0-15.127,4.06561l-38.95249-68.02381a17.24161,17.24161,0,0,0,6.97275-9.88l113.38272,21.509v.59053a8.147,8.147,0,0,0,1.74889,5.224ZM409.31344,203.50169a16.98913,16.98913,0,0,0,19.1925,2.90725l38.95249,67.43656a31.33678,31.33678,0,0,0-13.378,23.84875l-109.31838-9.88c0-1.15835.59051-1.74889.59051-2.90724,0-5.224-1.74889-10.47076-5.224-13.94549Zm-96.5323,101.75373-46.516,114.5398a24.24239,24.24239,0,0,0-6.40525-1.15836,9.73462,9.73462,0,0,0-4.06562.59051l-37.20349-104.661,82.56008-20.94151a25.19476,25.19476,0,0,0,11.629,11.629Zm-34.887,129.076L345.354,421.54422c4.65614,18.60174,20.9415,32.5705,40.70149,32.5705l-1.74889,74.9954a11.97136,11.97136,0,0,0-8.131,5.8145L275.57892,447.70714a20.06685,20.06685,0,0,0,2.90725-10.47076c0-1.15835,0-2.31673-.59052-2.90724Zm247.70927-8.72174a52.19809,52.19809,0,0,0-9.31251,1.15835l-23.84875-97.0963a30.67242,30.67242,0,0,0,19.76-16.28525l72.08817,28.48174a29.05155,29.05155,0,0,0-1.15836,7.5635c0,6.97275,2.90725,12.78725,8.131,17.4435l-46.516,63.95948c-6.35992-3.47509-12.17442-5.224-19.14714-5.224Zm80.24591-99.43955a30.209,30.209,0,0,0-7.56348,1.15836L562.24059,223.82464a.57836.57836,0,0,0,.59053-.59053l79.65281,99.43957-18.03426,12.21975a24.704,24.704,0,0,0-18.60176-8.72175Zm21.509-26.16524L565.149,222.10228a7.11164,7.11164,0,0,0,1.74889-5.224,8.50424,8.50424,0,0,0-1.15836-4.06562l1.15836-.59052ZM565.149,210.47329l-.59054.59052a7.36907,7.36907,0,0,0-5.224-2.31673,7.15036,7.15036,0,0,0-5.8145,2.90725L470.96,163.9801ZM443.04456,151.17121l108.7253,62.8024v.59052L437.79407,193.03246v-1.74888a17.139,17.139,0,0,0-8.131-14.53624Zm-2.3394,0-12.78724,24.41625a15.52983,15.52983,0,0,0-6.97275-1.74889c-9.3125,0-16.28525,6.97275-16.85274,16.28525L303.49579,191.8727ZM404.09183,191.8727c0,3.49777,1.74889,6.97274,4.06561,9.88l-69.20417,66.86674a23.31854,23.31854,0,0,0-16.28525-6.97275,17.61443,17.61443,0,0,0-5.8145,1.15837L297.661,193.62414Zm-108.74856,3.47509L313.945,263.96468a22.633,22.633,0,0,0-14.53625,20.9415,25.55965,25.55965,0,0,0,1.15837,6.40526l-81.403,20.9415ZM219.75479,284.9027l65.70964-77.90264L218.59769,309.3236Zm-3.4751,25.007v3.49776L213.963,327.353Zm1.15836,7.54083L253.4833,419.79735a19.92549,19.92549,0,0,0-12.78725,15.127l-42.45049-.59051ZM198.83631,436.07794l41.85974,1.15836v.59051a18.72717,18.72717,0,0,0,18.60175,18.60174h2.31672l11.629,87.81057Zm65.11657,19.76a19.537,19.537,0,0,0,9.88-6.40526l101.16064,87.21746a11.7721,11.7721,0,0,0-1.74889,6.40526l-97.6894,3.49778Zm15.127,92.46214,94.78216-3.49779c1.15835,6.97277,6.40525,12.21976,13.378,12.21976l10.47075,49.42323Zm110.47547,9.28983c5.8145-.59053,10.47075-4.0656,12.21976-9.3125l108.72529,22.09972L399.43188,607.58061Zm60.45915,34.887,62.20933-20.9415a4.42276,4.42276,0,0,0,2.90725,1.15836c1.74889,0,2.90725-1.15836,3.49779-2.90725l13.378-1.74889Zm95.34615-27.91422-26.16525,3.49778v-.59053l93.625-83.12987Zm-27.89156,1.181c-.59053,0-.59053-.59053-1.15836-.59053l5.8145-72.08817H525.623a33.68637,33.68637,0,0,0,33.138-27.32351l61.6453,8.131ZM559.32886,463.99c0-1.74889.59053-2.90725.59053-4.65614a34.40493,34.40493,0,0,0-13.94549-27.32349l46.516-63.95949a23.64527,23.64527,0,0,0,13.94549,4.65614h1.15836L622.13,472.71056Zm63.36642,2.31671-13.378-94.189a23.12557,23.12557,0,0,0,19.76-22.66724,24.73652,24.73652,0,0,0-3.49778-12.78724l18.03425-11.629Z" transform="translate(-195.92855 -148.8317)"/>
    <circle class="cls-2" cx="395.03267" cy="202.52291" r="42"/>
    <path class="cls-3" d="M602.43684,336.67683a.392.392,0,0,0-.20365.06962h.00522c-7.39413,5.11226-11.79256,5.82209-14.73212,5.82209h-8.132a5.20146,5.20146,0,0,0-5.20094,5.20093v2.16878a5.2,5.2,0,0,0,5.20094,5.19916h4.32883l4.40194,10.663a.3925.3925,0,0,0,.35334.235.40672.40672,0,0,0,.15143-.02959.37157.37157,0,0,0,.20713-.50476l-4.28012-10.36355h2.96073c10.13184,0,14.41575,5.42908,14.65058,5.73876l.00174.00174v.00174a.37474.37474,0,0,0,.30808.16188.3881.3881,0,0,0,.11488-.01741.37525.37525,0,0,0,.26631-.36378V352.798l.4926-.1114a3.91781,3.91781,0,0,0,3.04254-3.82406v-.00522a3.88934,3.88934,0,0,0-3.03037-3.81885l-.49782-.1114v-7.87448a.35456.35456,0,0,0-.20365-.33419l-.00174-.00174H602.639a.38077.38077,0,0,0-.2019-.04177Zm-.35856,1.12788V359.55l-1.04259-.85464c-2.17747-1.79279-6.47132-4.32709-13.54017-4.32709h-3.15567V343.3381h3.15567c2.83195,0,6.83893-.5483,13.59943-4.9015l.98168-.63185Zm-22.70419,5.53513h4.207V354.37h-4.207a4.443,4.443,0,0,1-4.43153-4.43154v-2.16878a4.443,4.443,0,0,1,4.43153-4.43153Zm33.40193.07484a.36116.36116,0,0,0-.14969.02785h-.00174l-3.87454,1.52129a.38091.38091,0,0,0-.20713.49086.39421.39421,0,0,0,.35334.24717.687.687,0,0,0,.17928-.03655l3.83279-1.50213a.36992.36992,0,0,0,.21583-.49782.3837.3837,0,0,0-.34811-.2489Zm-9.9282,2.1653.89465.3986a3.15957,3.15957,0,0,1,1.87113,2.87892v.00174a3.13076,3.13076,0,0,1-1.87113,2.87718l-.89465.39859Zm6.515,2.89287a.38989.38989,0,0,0,0,.77978h3.99642a.38073.38073,0,0,0,.38989-.38989.36908.36908,0,0,0-.38989-.38989Zm-.47518,3.53166a.38016.38016,0,0,0-.34811.24717.37377.37377,0,0,0,.21583.49955l3.87107,1.51777a.32037.32037,0,0,0,.13925.02263.389.389,0,0,0,.3603-.2489V354.041l.00174-.00174a.36783.36783,0,0,0-.21931-.48213l-3.87107-1.52129a.39435.39435,0,0,0-.15143-.02785Z" transform="translate(-195.92855 -148.8317)"/>
    <circle class="cls-4" cx="63.03267" cy="287.52291" r="42"/>
    <g>
      <path class="cls-3" d="M251.63748,428.38124h-.15414a3.27206,3.27206,0,1,1,3.28567-3.272.49949.49949,0,1,0,.999,0,4.27928,4.27928,0,0,0-3.78515-4.23978v-1.17264a.49949.49949,0,1,0-.999,0v1.17264a4.26917,4.26917,0,0,0,.49948,8.51079h.15414a3.27206,3.27206,0,1,1-3.28567,3.272.49949.49949,0,1,0-.999,0,4.27806,4.27806,0,0,0,3.631,4.21636v1.196a.49949.49949,0,0,0,.999,0v-1.159a4.26858,4.26858,0,0,0-.34534-8.52442Z" transform="translate(-195.92855 -148.8317)"/>
      <path class="cls-3" d="M270.12245,436.69518l.47412-1.0731a.50011.50011,0,1,0-.91506-.40387l-.47412,1.07309a4.279,4.279,0,0,0-5.17218,2.353,4.27782,4.27782,0,0,0,2.197,5.63679l.14048.06244a3.272,3.272,0,1,1-4.32563,1.66818.49883.49883,0,1,0-.91312-.40192,4.279,4.279,0,0,0,1.62138,5.32252l-.48193,1.09457a.49883.49883,0,1,0,.91312.40192l.46827-1.05946a4.26753,4.26753,0,0,0,5.32072-2.30234,4.27782,4.27782,0,0,0-2.197-5.63679l-.14048-.06244a3.272,3.272,0,1,1,4.32564-1.66818.49883.49883,0,0,0,.91312.40193,4.28047,4.28047,0,0,0-1.75405-5.40644Z" transform="translate(-195.92855 -148.8317)"/>
      <path class="cls-3" d="M271.48605,432.36763a12.53025,12.53025,0,0,0-7.785-.75117,12.5382,12.5382,0,1,0-9.47835,9.48224,12.51605,12.51605,0,0,0,23.66713,7.78089,12.527,12.527,0,0,0-6.40361-16.5125ZM239.96,428.881a11.52314,11.52314,0,1,1,11.52314,11.52114A11.53641,11.53641,0,0,1,239.96,428.881Zm37.0164,19.59333a11.5223,11.5223,0,0,1-21.6612-7.6736,12.5757,12.5757,0,0,0,8.08717-8.08917,11.52073,11.52073,0,0,1,13.57381,15.76307Z" transform="translate(-195.92855 -148.8317)"/>
    </g>
    <circle class="cls-4" cx="191.03267" cy="262.52291" r="44"/>
    <g>
      <path class="cls-3" d="M380.63748,404.38124h-.15414a3.27206,3.27206,0,1,1,3.28567-3.272.49949.49949,0,1,0,.999,0,4.27928,4.27928,0,0,0-3.78515-4.23978v-1.17264a.49949.49949,0,1,0-.999,0v1.17264a4.26917,4.26917,0,0,0,.49948,8.51079h.15414a3.27206,3.27206,0,1,1-3.28567,3.272.49949.49949,0,1,0-.999,0,4.27806,4.27806,0,0,0,3.631,4.21636v1.196a.49949.49949,0,0,0,.999,0v-1.159a4.26858,4.26858,0,0,0-.34534-8.52442Z" transform="translate(-195.92855 -148.8317)"/>
      <path class="cls-3" d="M399.12245,412.69518l.47412-1.0731a.50011.50011,0,1,0-.91506-.40387l-.47412,1.07309a4.279,4.279,0,0,0-5.17218,2.353,4.27782,4.27782,0,0,0,2.197,5.63679l.14048.06244a3.272,3.272,0,1,1-4.32563,1.66818.49883.49883,0,1,0-.91312-.40192,4.279,4.279,0,0,0,1.62138,5.32252l-.48193,1.09457a.49883.49883,0,1,0,.91312.40192l.46827-1.05946a4.26753,4.26753,0,0,0,5.32072-2.30234,4.27782,4.27782,0,0,0-2.197-5.63679l-.14048-.06244a3.272,3.272,0,1,1,4.32564-1.66818.49883.49883,0,0,0,.91312.40193,4.28047,4.28047,0,0,0-1.75405-5.40644Z" transform="translate(-195.92855 -148.8317)"/>
      <path class="cls-3" d="M400.48605,408.36763a12.53025,12.53025,0,0,0-7.785-.75117,12.5382,12.5382,0,1,0-9.47835,9.48224,12.51605,12.51605,0,0,0,23.66713,7.78089,12.527,12.527,0,0,0-6.40361-16.5125ZM368.96,404.881a11.52314,11.52314,0,1,1,11.52314,11.52114A11.53641,11.53641,0,0,1,368.96,404.881Zm37.0164,19.59333a11.5223,11.5223,0,0,1-21.6612-7.6736,12.5757,12.5757,0,0,0,8.08717-8.08917,11.52073,11.52073,0,0,1,13.57381,15.76307Z" transform="translate(-195.92855 -148.8317)"/>
    </g>
    <circle class="cls-4" cx="210.03267" cy="61.52291" r="42"/>
    <g>
      <path class="cls-3" d="M399.63748,203.38124h-.15414a3.27206,3.27206,0,1,1,3.28567-3.272.49949.49949,0,1,0,.999,0,4.27928,4.27928,0,0,0-3.78515-4.23978v-1.17264a.49949.49949,0,1,0-.999,0v1.17264a4.26917,4.26917,0,0,0,.49948,8.51079h.15414a3.27206,3.27206,0,1,1-3.28567,3.272.49949.49949,0,1,0-.999,0,4.27806,4.27806,0,0,0,3.631,4.21636v1.196a.49949.49949,0,0,0,.999,0v-1.159a4.26858,4.26858,0,0,0-.34534-8.52442Z" transform="translate(-195.92855 -148.8317)"/>
      <path class="cls-3" d="M418.12245,211.69518l.47412-1.0731a.50011.50011,0,1,0-.91506-.40387l-.47412,1.07309a4.279,4.279,0,0,0-5.17218,2.353,4.27782,4.27782,0,0,0,2.197,5.63679l.14048.06244a3.272,3.272,0,1,1-4.32563,1.66818.49883.49883,0,0,0-.91312-.40192,4.279,4.279,0,0,0,1.62138,5.32252l-.48193,1.09457a.49883.49883,0,1,0,.91312.40192l.46827-1.05946a4.26753,4.26753,0,0,0,5.32072-2.30234,4.27782,4.27782,0,0,0-2.197-5.63679l-.14048-.06244a3.272,3.272,0,1,1,4.32564-1.66818.49883.49883,0,0,0,.91312.40193,4.28047,4.28047,0,0,0-1.75405-5.40644Z" transform="translate(-195.92855 -148.8317)"/>
      <path class="cls-3" d="M419.48605,207.36763a12.53025,12.53025,0,0,0-7.785-.75117,12.5382,12.5382,0,1,0-9.47835,9.48224,12.51605,12.51605,0,0,0,23.66713,7.78089,12.527,12.527,0,0,0-6.40361-16.5125ZM387.96,203.881a11.52314,11.52314,0,1,1,11.52314,11.52114A11.53641,11.53641,0,0,1,387.96,203.881Zm37.0164,19.59333a11.5223,11.5223,0,0,1-21.6612-7.6736,12.5757,12.5757,0,0,0,8.08717-8.08917,11.52073,11.52073,0,0,1,13.57381,15.76307Z" transform="translate(-195.92855 -148.8317)"/>
    </g>
    <circle class="cls-4" cx="331.03267" cy="311.52291" r="42"/>
    <g>
      <path class="cls-3" d="M521.63748,451.38124h-.15414a3.27206,3.27206,0,1,1,3.28567-3.272.49949.49949,0,1,0,.999,0,4.27928,4.27928,0,0,0-3.78515-4.23978v-1.17264a.49949.49949,0,1,0-.999,0v1.17264a4.26917,4.26917,0,0,0,.49948,8.51079h.15414a3.27206,3.27206,0,1,1-3.28567,3.272.49949.49949,0,1,0-.999,0,4.27806,4.27806,0,0,0,3.631,4.21636v1.196a.49949.49949,0,0,0,.999,0v-1.159a4.26858,4.26858,0,0,0-.34534-8.52442Z" transform="translate(-195.92855 -148.8317)"/>
      <path class="cls-3" d="M540.12245,459.69518l.47412-1.0731a.50011.50011,0,1,0-.91506-.40387l-.47412,1.07309a4.279,4.279,0,0,0-5.17218,2.353,4.27782,4.27782,0,0,0,2.197,5.63679l.14048.06244a3.272,3.272,0,1,1-4.32563,1.66818.49883.49883,0,0,0-.91312-.40192,4.279,4.279,0,0,0,1.62138,5.32252l-.48193,1.09457a.49883.49883,0,1,0,.91312.40192l.46827-1.05946a4.26753,4.26753,0,0,0,5.32072-2.30234,4.27782,4.27782,0,0,0-2.197-5.63679l-.14048-.06244a3.272,3.272,0,1,1,4.32564-1.66818.49883.49883,0,0,0,.91312.40193,4.28047,4.28047,0,0,0-1.75405-5.40644Z" transform="translate(-195.92855 -148.8317)"/>
      <path class="cls-3" d="M541.48605,455.36763a12.53025,12.53025,0,0,0-7.785-.75117,12.5382,12.5382,0,1,0-9.47835,9.48224,12.51605,12.51605,0,0,0,23.66713,7.78089,12.527,12.527,0,0,0-6.40361-16.5125ZM509.96,451.881a11.52314,11.52314,0,1,1,11.52314,11.52114A11.53641,11.53641,0,0,1,509.96,451.881Zm37.0164,19.59333a11.5223,11.5223,0,0,1-21.6612-7.6736,12.5757,12.5757,0,0,0,8.08717-8.08917,11.52073,11.52073,0,0,1,13.57381,15.76307Z" transform="translate(-195.92855 -148.8317)"/>
    </g>
    <circle class="cls-4" cx="289.03267" cy="148.52291" r="42"/>
    <g>
      <path class="cls-3" d="M479.63748,288.38124h-.15414a3.27206,3.27206,0,1,1,3.28567-3.272.49949.49949,0,1,0,.999,0,4.27928,4.27928,0,0,0-3.78515-4.23978v-1.17264a.49949.49949,0,1,0-.999,0v1.17264a4.26917,4.26917,0,0,0,.49948,8.51079h.15414a3.27206,3.27206,0,1,1-3.28567,3.272.49949.49949,0,1,0-.999,0,4.27806,4.27806,0,0,0,3.631,4.21636v1.196a.49949.49949,0,0,0,.999,0v-1.159a4.26858,4.26858,0,0,0-.34534-8.52442Z" transform="translate(-195.92855 -148.8317)"/>
      <path class="cls-3" d="M498.12245,296.69518l.47412-1.0731a.50011.50011,0,1,0-.91506-.40387l-.47412,1.07309a4.279,4.279,0,0,0-5.17218,2.353,4.27782,4.27782,0,0,0,2.197,5.63679l.14048.06244a3.272,3.272,0,1,1-4.32563,1.66818.49883.49883,0,0,0-.91312-.40192,4.279,4.279,0,0,0,1.62138,5.32252l-.48193,1.09457a.49883.49883,0,1,0,.91312.40192l.46827-1.05946a4.26753,4.26753,0,0,0,5.32072-2.30234,4.27782,4.27782,0,0,0-2.197-5.63679l-.14048-.06244a3.272,3.272,0,1,1,4.32564-1.66818.49883.49883,0,0,0,.91312.40193,4.28047,4.28047,0,0,0-1.75405-5.40644Z" transform="translate(-195.92855 -148.8317)"/>
      <path class="cls-3" d="M499.48605,292.36763a12.53025,12.53025,0,0,0-7.785-.75117,12.5382,12.5382,0,1,0-9.47835,9.48224,12.51605,12.51605,0,0,0,23.66713,7.78089,12.527,12.527,0,0,0-6.40361-16.5125ZM467.96,288.881a11.52314,11.52314,0,1,1,11.52314,11.52114A11.53641,11.53641,0,0,1,467.96,288.881Zm37.0164,19.59333a11.5223,11.5223,0,0,1-21.6612-7.6736,12.5757,12.5757,0,0,0,8.08717-8.08917,11.52073,11.52073,0,0,1,13.57381,15.76307Z" transform="translate(-195.92855 -148.8317)"/>
    </g>
    <circle class="cls-5" cx="192.03267" cy="393.52291" r="42"/>
    <path class="cls-3" d="M381.30392,521.639a4.861,4.861,0,1,0,4.85907,4.86283A4.85741,4.85741,0,0,0,381.30392,521.639Zm12.76,0a4.861,4.861,0,1,0,4.85907,4.86283A4.8542,4.8542,0,0,0,394.06392,521.639Zm0,.81694a4.04324,4.04324,0,1,1-4.04415,4.04415A4.053,4.053,0,0,1,394.06392,522.456Zm-12.76.00184a4.04324,4.04324,0,1,1-4.04415,4.04231A4.05265,4.05265,0,0,1,381.30392,522.4578Zm-3.72033,11.38367a4.83813,4.83813,0,0,0-4.82233,4.81338v7.05263a4.82264,4.82264,0,0,0,2.5391,4.23185l.35511.19136v9.64324a3.693,3.693,0,0,0,3.69644,3.69645h4.9952a.41215.41215,0,0,0,0-.82429h-4.9952a2.88975,2.88975,0,0,1-2.87766-2.88134v-9.92257a.4183.4183,0,0,0-.27047-.38454,3.99932,3.99932,0,0,1-2.61823-3.74609v-7.04509a4.01066,4.01066,0,0,1,4-3.99818h4.72294a.414.414,0,0,0,0-.828h-4.72294Zm12.21739.01288a4.82,4.82,0,0,0-4.81856,4.81527v7.03613a4.82653,4.82653,0,0,0,2.54093,4.23186l.35511.19135v9.64325a3.693,3.693,0,0,0,3.69644,3.69645h4.99379a3.693,3.693,0,0,0,3.69644-3.69645V550.129l.35511-.18951a4.83443,4.83443,0,0,0,2.54093-4.23553v-7.03613a4.81441,4.81441,0,0,0-4.81856-4.81527h-8.54294Zm0,.81694h8.54294a4.00948,4.00948,0,0,1,4,3.99819v7.03613a4.001,4.001,0,0,1-2.61823,3.74609.40936.40936,0,0,0-.26679.38455v9.93952a2.8929,2.8929,0,0,1-2.88134,2.88134h-4.9952a2.88974,2.88974,0,0,1-2.87766-2.88134v-9.92821a.42158.42158,0,0,0-.27047-.38639,3.99932,3.99932,0,0,1-2.61823-3.74609v-6.37153h-.01288v-.67342a4.01067,4.01067,0,0,1,4-3.99818Z" transform="translate(-195.92855 -148.8317)"/>
    <circle class="cls-5" cx="117.03267" cy="132.52291" r="42"/>
    <path class="cls-3" d="M306.30392,258.639a4.861,4.861,0,1,0,4.85907,4.86283A4.85741,4.85741,0,0,0,306.30392,258.639Zm12.76,0a4.861,4.861,0,1,0,4.85907,4.86283A4.8542,4.8542,0,0,0,319.06392,258.639Zm0,.81694a4.04324,4.04324,0,1,1-4.04415,4.04415A4.053,4.053,0,0,1,319.06392,259.456Zm-12.76.00184a4.04324,4.04324,0,1,1-4.04415,4.04231A4.05265,4.05265,0,0,1,306.30392,259.4578Zm-3.72033,11.38367a4.83813,4.83813,0,0,0-4.82233,4.81338v7.05263a4.82264,4.82264,0,0,0,2.5391,4.23185l.35511.19136v9.64324a3.693,3.693,0,0,0,3.69644,3.69645h4.9952a.41215.41215,0,0,0,0-.82429h-4.9952a2.88975,2.88975,0,0,1-2.87766-2.88134v-9.92257a.4183.4183,0,0,0-.27047-.38454,3.99932,3.99932,0,0,1-2.61823-3.74609v-7.04509a4.01066,4.01066,0,0,1,4-3.99818h4.72294a.414.414,0,0,0,0-.828h-4.72294Zm12.21739.01288a4.82,4.82,0,0,0-4.81856,4.81527v7.03613a4.82653,4.82653,0,0,0,2.54093,4.23186l.35511.19135v9.64325a3.693,3.693,0,0,0,3.69644,3.69645h4.99379a3.693,3.693,0,0,0,3.69644-3.69645V287.129l.35511-.18951a4.83443,4.83443,0,0,0,2.54093-4.23553v-7.03613a4.81441,4.81441,0,0,0-4.81856-4.81527h-8.54294Zm0,.81694h8.54294a4.00948,4.00948,0,0,1,4,3.99819v7.03613a4.001,4.001,0,0,1-2.61823,3.74609.40936.40936,0,0,0-.26679.38455v9.93952a2.8929,2.8929,0,0,1-2.88134,2.88134h-4.9952a2.88974,2.88974,0,0,1-2.87766-2.88134v-9.92821a.42158.42158,0,0,0-.27047-.38639,3.99932,3.99932,0,0,1-2.61823-3.74609v-6.37153h-.01288v-.67342a4.01067,4.01067,0,0,1,4-3.99818Z" transform="translate(-195.92855 -148.8317)"/>
  </g>
</svg>
