<svg id="Livello_1" data-name="Livello 1" xmlns="http://www.w3.org/2000/svg" viewBox="0 0 103.07168 100.42632">
  <defs>
    <style>
      .cls-1 {
        fill: #dd735b;
      }

      .cls-2 {
        fill: none;
        stroke: #dd735b;
        stroke-miterlimit: 10;
        stroke-width: 4px;
      }
    </style>
  </defs>
  <title>Community</title>
  <path class="cls-1" d="M347.13432,434.95538a7.82133,7.82133,0,0,0-9.73991-1.87164l-2.24407-2.7296h-.00472a6.26687,6.26687,0,0,0-8.14646-1.20689l-2.2063,1.46142-1.32951-1.57933a6.249,6.249,0,0,0-8.13233-1.20688l-14.9919,9.76343-16.65619-6.85473h.00471a15.67691,15.67691,0,0,0-15.68948,2.24408L246.75461,449.8716a2.04907,2.04907,0,0,0-.41957,2.9559,2.05274,2.05274,0,0,0,2.97943.24043L270.558,436.17157h-.00471a11.60189,11.60189,0,0,1,11.63507-1.65476l29.44554,12.06883h.00471a3.80438,3.80438,0,0,1-2.8381,7.05278l-19.92806-7.774a2.05144,2.05144,0,1,0-1.49453,3.814l19.86651,7.83061a7.9285,7.9285,0,0,0,10.80063-7.00086l.231-.12257,20.75718-13.54968a3.76566,3.76566,0,0,1,4.22414,6.22769l-28.12159,19.9377a14.55375,14.55375,0,0,1-12.46468,2.13558l-23.7418-6.685a13.91858,13.91858,0,0,0-12.57814,2.61652l-6.39744,5.25187h.00471a2.05206,2.05206,0,0,0,1.30113,3.62065,1.98645,1.98645,0,0,0,1.29172-.4573l6.45876-5.19055a9.78238,9.78238,0,0,1,8.85828-1.848l23.67542,6.67551a18.6482,18.6482,0,0,0,15.91155-2.77679l28.1783-19.93772a7.85628,7.85628,0,0,0,1.4992-11.45127Zm-29.65312-3.7055a2.14486,2.14486,0,0,1,2.78622.41959l1.01359,1.20688-12.44176,8.19836-3.89883-1.60287Zm-.45729,15.04862h-.00472a7.85536,7.85536,0,0,0-3.62065-3.33305l15.7981-10.39053a2.16715,2.16715,0,0,1,2.79091.41014l1.90459,2.343Z" transform="translate(-245.8854 -369.51463)"/>
  <circle class="cls-2" cx="48.78162" cy="25.64038" r="23.64038"/>
</svg>
