<svg xmlns="http://www.w3.org/2000/svg" viewBox="0 0 174.76 104.88"><defs><style>.cls-1,.cls-2{fill:#dd735b;}.cls-1{stroke:#dd735b;stroke-miterlimit:10;stroke-width:2px;}</style></defs><title>dt-contributor</title><g id="Layer_2" data-name="Layer 2"><g id="Livello_1" data-name="Livello 1"><path class="cls-1" d="M12.7,96a2.63,2.63,0,0,0-4.5-1.88A2.65,2.65,0,0,0,7.44,96a2.62,2.62,0,0,0,4.49,1.87A2.58,2.58,0,0,0,12.7,96Z"/><path class="cls-1" d="M167.31,96a2.63,2.63,0,1,0-2.62,2.62A2.62,2.62,0,0,0,167.31,96Z"/><path class="cls-1" d="M4.53,68.73A3.52,3.52,0,0,0,1,72.26v28.1a3.53,3.53,0,0,0,3.53,3.52h11.1a3.53,3.53,0,0,0,3.52-3.52V72.26a3.52,3.52,0,0,0-3.52-3.53Zm0,2h11.1a1.56,1.56,0,0,1,1.56,1.56v28.1a1.57,1.57,0,0,1-1.56,1.55H4.53A1.57,1.57,0,0,1,3,100.36V72.26a1.63,1.63,0,0,1,.45-1.11,1.56,1.56,0,0,1,1.12-.45Z"/><path class="cls-1" d="M54.5,1a5.94,5.94,0,0,0-4.73,2.09L32.17,23.52a14.14,14.14,0,0,0-3.44,9.2V60.23A12.3,12.3,0,0,1,23.25,70v30a1.77,1.77,0,0,0,2.4,1.65l20.08-7.82h0A21.15,21.15,0,0,0,59.21,74.11v-29h0a5.5,5.5,0,0,0-11,0V59a1.82,1.82,0,0,1-3.63,0V37a17.6,17.6,0,0,1,3.13-10L59.16,10.36A5.94,5.94,0,0,0,54.49,1ZM54,3a4,4,0,0,1,3.52,6.25L46.09,25.83h0A19.68,19.68,0,0,0,42.61,37V59a3.79,3.79,0,0,0,7.57,0V45.13a3.53,3.53,0,0,1,7.06,0v29h0A19.18,19.18,0,0,1,45,92L25.21,99.71V71A14.3,14.3,0,0,0,30.7,60.27V32.72a12.12,12.12,0,0,1,2.95-7.92L51.25,4.38A4,4,0,0,1,54,3Z"/><path class="cls-1" d="M87.51,11.33a19.41,19.41,0,0,0-14.13,6,30.36,30.36,0,0,0,0,42,19.39,19.39,0,0,0,28,0,30.36,30.36,0,0,0,0-42A19.44,19.44,0,0,0,87.51,11.33Zm0,2A17.42,17.42,0,0,1,100,18.67,28.39,28.39,0,0,1,100,58a17.43,17.43,0,0,1-25.17,0,28.39,28.39,0,0,1,0-39.28A17.45,17.45,0,0,1,87.51,13.3Z"/><path class="cls-2" d="M84.55,44.12H79a7.93,7.93,0,0,0,5.55,7.57V55h5.6V51.39a7.95,7.95,0,0,0,.53-14.29l-4.33-2.3a2.43,2.43,0,1,1,2.17-4.35,2.42,2.42,0,0,1,1.27,2.13h5.51a8,8,0,0,0-5.15-7.44V21.67h-5.6v3.47a7.95,7.95,0,0,0-.92,14.46L88.13,42h0a2.4,2.4,0,0,1,1.29,2.08,2.44,2.44,0,1,1-4.87.07Z"/><path class="cls-1" d="M159.14,68.73a3.52,3.52,0,0,0-3.53,3.53v28.1a3.53,3.53,0,0,0,3.53,3.52h11.1a3.53,3.53,0,0,0,3.52-3.52V72.26a3.49,3.49,0,0,0-1-2.5,3.53,3.53,0,0,0-2.49-1Zm0,2h11.1a1.52,1.52,0,0,1,1.1.45,1.54,1.54,0,0,1,.47,1.11v28.1a1.56,1.56,0,0,1-1.57,1.55h-11.1a1.55,1.55,0,0,1-1.57-1.55V72.26a1.57,1.57,0,0,1,.46-1.11,1.5,1.5,0,0,1,1.11-.45Z"/><path class="cls-1" d="M120.7,1.06a6,6,0,0,0-5.1,9.3l11.46,16.58a17.59,17.59,0,0,1,3.11,10V59a1.82,1.82,0,0,1-3.63,0V45.13a5.5,5.5,0,0,0-11,0v29h0A21.16,21.16,0,0,0,129,93.82l20.1,7.82h0a1.76,1.76,0,0,0,1.63-.2,1.74,1.74,0,0,0,.77-1.45V70a12.33,12.33,0,0,1-5.5-9.8V32.72a14.13,14.13,0,0,0-3.41-9.2L125,3.09a5.94,5.94,0,0,0-4.29-2ZM120.58,3h0a4,4,0,0,1,2.94,1.38l17.6,20.43a12.11,12.11,0,0,1,2.94,7.92V60.27A14.26,14.26,0,0,0,149.56,71V99.71L129.74,92h0a19.18,19.18,0,0,1-12.22-17.88v-29h0a3.53,3.53,0,0,1,7.06,0V59a3.78,3.78,0,0,0,7.56,0V37a19.64,19.64,0,0,0-3.46-11.13L117.21,9.25A4,4,0,0,1,120.58,3Z"/></g></g></svg>