<svg id="Livello_1" data-name="Livello 1" xmlns="http://www.w3.org/2000/svg" viewBox="0 0 113.39394 116.74761">
  <defs>
    <style>
      .cls-1 {
        fill: #dd735b;
      }
    </style>
  </defs>
  <title>17_ Foundation</title>
  <g>
    <path class="cls-1" d="M313.43714,231.7959a5.1939,5.1939,0,0,0-3.84574-1.52517,9.282,9.282,0,0,0-8.95322,9.54614l.27868,8.51245-1.439,5.81687a6.72287,6.72287,0,0,0-4.81354,1.971l-9.46506,9.47518-3.27825.5675a10.52175,10.52175,0,0,0-5.64461,2.91855l-6.52109,6.52109a10.44365,10.44365,0,0,0-3.07564,7.17991l-.24321,10.80773a7.72018,7.72018,0,0,0-5.29491,7.2305l-.152,14.15174a7.72485,7.72485,0,0,0,7.62573,7.79307l23.48074.24827h.08614a7.72435,7.72435,0,0,0,7.7068-7.62573l.152-14.14656a7.72555,7.72555,0,0,0-5.0517-7.31675l.0456-.32935a11.17145,11.17145,0,0,1,3.17189-6.29824l11.01553-11.01553a17.41493,17.41493,0,0,0,5.00111-10.46321l1.17046-11.08649a6.71575,6.71575,0,0,0,.13174-1.25153l.00507-.0304v-.05067c0-.07094.01013-.14188.01013-.21281l-.57256-17.87582a5.22971,5.22971,0,0,0-1.53024-3.51135Zm-17.28822,69.39674-.152,14.14656a3.78608,3.78608,0,0,1-1.1502,2.6804,4.07328,4.07328,0,0,1-2.71075,1.09952l-23.47555-.24828a3.83222,3.83222,0,0,1-3.77486-3.85589l.152-14.15175a3.81918,3.81918,0,0,1,3.8154-3.77492h.04053l23.47555.25334a3.841,3.841,0,0,1,3.77993,3.85083Zm10.31625-27.66011-11.01554,11.01554a15.02184,15.02184,0,0,0-4.26641,8.4821l-.0608.40028-20.784-.22293.23309-10.34168a6.60831,6.60831,0,0,1,1.93558-4.51974l6.52109-6.52109a6.64626,6.64626,0,0,1,3.55194-1.83428l3.89141-.6739a2.07641,2.07641,0,0,0,.39522-.11147c.01013-.00507.0152-.01014.02533-.0152a1.96678,1.96678,0,0,0,.61817-.41043c.00506-.00507.00506-.00507.01013-.00507l9.90077-9.91089a2.85735,2.85735,0,0,1,4.03837,4.04343l-11.37523,11.37523a1.945,1.945,0,0,0,0,2.75136,1.90239,1.90239,0,0,0,1.37315.57762,1.94466,1.94466,0,0,0,1.37821-.56749l11.37523-11.37523a6.76179,6.76179,0,0,0,0-9.54614,6.68109,6.68109,0,0,0-1.00832-.82084l1.55552-6.29318c.00507-.02027.00507-.04053.01014-.06587.0152-.06587.02027-.13173.0304-.1976.00507-.06587.0152-.13174.0152-.20268,0-.02027.00507-.04054.00507-.06587l-.28375-8.781a5.38331,5.38331,0,0,1,5.1683-5.53812,1.34828,1.34828,0,0,1,.988.39015,1.3098,1.3098,0,0,1,.39016.88671l.5675,17.73443-.13174,1.24647a1.25466,1.25466,0,0,0-.01521.13681l-1.14512,10.85339a13.57816,13.57816,0,0,1-3.89141,8.12733Z" transform="translate(-202.14681 -206.26831)"/>
    <path class="cls-1" d="M294.82066,302.9762c0,4.43867-6.65794,4.43867-6.65794,0s6.65794-4.43866,6.65794,0" transform="translate(-202.14681 -206.26831)"/>
    <path class="cls-1" d="M202.71938,235.31243l-.57257,17.89139c0,.076.01013.152.01013.228v.03546a6.56131,6.56131,0,0,0,.13681,1.27181l1.17046,11.08142a17.40114,17.40114,0,0,0,5.00111,10.46321l11.01553,11.01553a11.16559,11.16559,0,0,1,3.16682,6.29319l.05067.33441a7.72556,7.72556,0,0,0-5.05169,7.31676l.152,14.14655a7.72437,7.72437,0,0,0,7.7068,7.62574h.08614l23.47555-.24828a7.72483,7.72483,0,0,0,7.62573-7.79306l-.152-14.15176a7.71033,7.71033,0,0,0-5.29491-7.23049l-.24321-10.80773a10.44383,10.44383,0,0,0-3.07564-7.17991L241.406,269.0836a10.51716,10.51716,0,0,0-5.63956-2.91349l-3.28331-.5675-9.47013-9.47518a6.76515,6.76515,0,0,0-4.81353-1.971l-1.43905-5.82194.27868-8.51751a9.29174,9.29174,0,0,0-8.97358-9.54613,5.20628,5.20628,0,0,0-5.34563,5.04157ZM252.64352,300.858l.152,14.15175a3.83222,3.83222,0,0,1-3.77485,3.85589l-23.47556.25334a4.02078,4.02078,0,0,1-2.70569-1.09446,3.78608,3.78608,0,0,1-1.1502-2.68039l-.15707-14.15176a3.83222,3.83222,0,0,1,3.77486-3.85588l23.47556-.25335h.04053a3.82027,3.82027,0,0,1,3.82045,3.77493ZM206.996,234.54712a1.38651,1.38651,0,0,1,.96272-.39015,5.37889,5.37889,0,0,1,5.18854,5.53306l-.28375,8.781c0,.02027.00507.04054.00507.06587a1.41749,1.41749,0,0,0,.0152.20268,1.23721,1.23721,0,0,0,.0304.1976c.00507.02027.00507.04054.01013.06587l1.55553,6.29319a6.73526,6.73526,0,0,0-1.00832,10.372l11.37523,11.37523a1.94729,1.94729,0,0,0,2.75641-2.75135L216.228,262.91689a2.85735,2.85735,0,1,1,4.03838-4.04343l9.90583,9.91089c.00507.00506.00507.00506.01013.00506a1.9111,1.9111,0,0,0,.61817.41043c.01013.00507.0152.01013.02533.0152a1.976,1.976,0,0,0,.39522.11147l3.89647.67391a6.66012,6.66012,0,0,1,3.54689,1.82921l6.52109,6.52109a6.5519,6.5519,0,0,1,1.93558,4.51468l.23308,10.34167-20.784.22294-.0608-.41042a15.05468,15.05468,0,0,0-4.26641-8.47705L211.22739,273.527a13.51,13.51,0,0,1-3.88129-8.12227L206.201,254.55135a1.25711,1.25711,0,0,0-.0152-.13681l-.13174-1.24647.55737-17.72924a1.32244,1.32244,0,0,1,.38509-.89178Z" transform="translate(-202.14681 -206.26831)"/>
    <path class="cls-1" d="M229.519,302.9762c0,4.43867-6.65793,4.43867-6.65793,0s6.65793-4.43866,6.65793,0" transform="translate(-202.14681 -206.26831)"/>
    <path class="cls-1" d="M258.84072,250.70554a14.16213,14.16213,0,1,0-14.16212-14.16212A14.17925,14.17925,0,0,0,258.84072,250.70554Zm0-24.43284A10.27072,10.27072,0,1,1,248.57,236.54342,10.28359,10.28359,0,0,1,258.84072,226.2727Z" transform="translate(-202.14681 -206.26831)"/>
    <path class="cls-1" d="M255.76521,266.81855h6.14622a4.37462,4.37462,0,0,0,4.36771-4.36771v-4.10426a23.05353,23.05353,0,0,0,7.71692-4.45385l3.557,2.05207a4.328,4.328,0,0,0,2.1788.58776,4.40818,4.40818,0,0,0,1.14006-.152,4.33828,4.33828,0,0,0,2.65-2.0369l3.07564-5.32539a4.37715,4.37715,0,0,0-1.59613-5.96889l-3.557-2.05207a23.24436,23.24436,0,0,0,0-8.90769l3.55194-2.05207a4.37754,4.37754,0,0,0,1.60119-5.9689l-3.07564-5.32539a4.37151,4.37151,0,0,0-5.9689-1.59612l-3.557,2.05206a23.00455,23.00455,0,0,0-7.71691-4.45384V210.636a4.36706,4.36706,0,0,0-4.36266-4.36772h-6.15127a4.37463,4.37463,0,0,0-4.36772,4.36772v4.10426a22.95528,22.95528,0,0,0-7.71691,4.45384l-3.557-2.05206a4.37874,4.37874,0,0,0-5.96889,1.60118l-3.07564,5.32539a4.37311,4.37311,0,0,0,1.60118,5.9689l3.557,2.05207a23.11084,23.11084,0,0,0,.00507,8.90768l-3.557,2.05207a4.37151,4.37151,0,0,0-1.59612,5.9689l3.07564,5.32539a4.36786,4.36786,0,0,0,5.974,1.60114l3.557-2.05207a22.96846,22.96846,0,0,0,7.71692,4.45385v4.10427a4.35194,4.35194,0,0,0,4.35253,4.36771Zm-17.58267-14.24773a.48161.48161,0,0,1-.65364-.17734l-3.07563-5.32539a.48335.48335,0,0,1,.17227-.65364l4.37783-2.52838c.21281-.12667.42056-.26347.6131-.40535l.01521-.0152c.03546-.0304.06587-.06587.10133-.09121a1.93091,1.93091,0,0,0,.63844-1.17553v-.0304a1.98319,1.98319,0,0,0,.0152-.34455c0-.02533-.01013-.05066-.01013-.08107q-.0152-.152-.0456-.304a.01862.01862,0,0,0-.00507-.0152,19.19007,19.19007,0,0,1,0-9.7791,1.8959,1.8959,0,0,0,.05067-.69418,1.93088,1.93088,0,0,0-.80564-1.38326,6.10015,6.10015,0,0,0-.56749-.375l-4.37784-2.52838a.48493.48493,0,0,1-.17734-.65364l3.07564-5.32539a.48493.48493,0,0,1,.65364-.17734l4.37783,2.52837a6.8138,6.8138,0,0,0,.63844.31922,1.00671,1.00671,0,0,0,.13173.0456,1.92749,1.92749,0,0,0,.603.11654c.0152,0,.02534.01013.04054.01013s.02533-.01013.04053-.01013a1.89347,1.89347,0,0,0,.66883-.13174c.01014-.00507.02534-.01013.03547-.0152a1.99674,1.99674,0,0,0,.62831-.41549A19.07559,19.07559,0,0,1,253.814,218.06c.0456-.0152.08614-.03547.1368-.05067.03547-.0152.07094-.02533.10641-.04053a2.087,2.087,0,0,0,.51176-.30909.782.782,0,0,1,.06587-.0608,2.064,2.064,0,0,0,.38509-.48135l.0304-.06081a1.85462,1.85462,0,0,0,.19761-.6283c0-.00507.00507-.00507.00507-.01013a5.83785,5.83785,0,0,0,.0456-.73471l-.01013-5.04664a.479.479,0,0,1,.47629-.4763H261.911a.47575.47575,0,0,1,.4763.4763v5.05169a6.9617,6.9617,0,0,0,.0456.72964c0,.00507.00507.01013.00507.0152a1.80422,1.80422,0,0,0,.05066.23814,1.45247,1.45247,0,0,0,.03547.14188c.0152.05067.04561.09628.06587.14694.0304.06587.05574.13681.09121.19761a.13422.13422,0,0,0,.02533.0304,2.64633,2.64633,0,0,0,.19255.27362l.0152.0152a1.93783,1.93783,0,0,0,.25842.24321l.0456.0304a1.91048,1.91048,0,0,0,.27362.17228.38446.38446,0,0,0,.05573.02026,1.98524,1.98524,0,0,0,.304.11654c.00507,0,.00507.00507.01014.00507a19.029,19.029,0,0,1,8.47185,4.89461,2.01784,2.01784,0,0,0,.62323.41043c.0152.00506.02534.01013.04054.0152a1.86082,1.86082,0,0,0,.66377.12667c.0152,0,.02533.01014.04053.01014s.02534-.01014.04054-.01014a1.92755,1.92755,0,0,0,.603-.11654,1.35184,1.35184,0,0,0,.13173-.0456,5.77289,5.77289,0,0,0,.63844-.31921l4.37784-2.52838a.48.48,0,0,1,.65363.17228l3.07564,5.32539a.4804.4804,0,0,1-.17734.65364l-4.37277,2.52331a5.99859,5.99859,0,0,0-.54722.35975,1.961,1.961,0,0,0-.76005,2.18893,19.23321,19.23321,0,0,1-.02534,9.693.01863.01863,0,0,1-.00507.01521,1.57575,1.57575,0,0,0-.0456.304.39425.39425,0,0,0-.01013.08107,1.94008,1.94008,0,0,0,.0152.34454v.03041a1.91735,1.91735,0,0,0,.63843,1.17552c.03547.03041.06587.06587.10134.09121l.0152.0152a5.83675,5.83675,0,0,0,.6131.40536l4.37783,2.52331a.48493.48493,0,0,1,.17735.65364l-3.07564,5.32539a.47505.47505,0,0,1-.28882.22295.45346.45346,0,0,1-.35975-.0456l-4.37278-2.52332a5.11227,5.11227,0,0,0-.66883-.32936.01862.01862,0,0,0-.0152-.00506.03043.03043,0,0,0-.02026-.00507,1.93709,1.93709,0,0,0-2.09267.42056,19.13151,19.13151,0,0,1-8.46679,4.88955c-.00507,0-.01014.00507-.0152.00507-.05067.0152-.10134.04053-.152.0608a1.93733,1.93733,0,0,0-1.1654,1.19073.29259.29259,0,0,0-.0152.07094,2.1047,2.1047,0,0,0-.07093.30908.01766.01766,0,0,1-.00507.01013,5.83773,5.83773,0,0,0-.0456.73471v5.0517a.47575.47575,0,0,1-.4763.4763l-6.14622.01013a.47575.47575,0,0,1-.47629-.4763v-5.05169a6.78066,6.78066,0,0,0-.04561-.72457c0-.00507-.00506-.0152-.00506-.02027-.01014-.07093-.03041-.14188-.04561-.2128-.0152-.05574-.02026-.11148-.04053-.16722a.957.957,0,0,0-.05574-.12667,1.43148,1.43148,0,0,0-.10134-.21788c-.00506-.01013-.01013-.0152-.0152-.02533a2.75492,2.75492,0,0,0-.1976-.27868l-.0304-.0304a2.5338,2.5338,0,0,0-.23815-.228c-.02026-.0152-.0456-.03041-.07093-.04561a2.55364,2.55364,0,0,0-.24829-.15707l-.076-.0304a2.44109,2.44109,0,0,0-.28882-.11147c-.00507,0-.01014-.00507-.0152-.00507a19.13215,19.13215,0,0,1-8.4668-4.88955h-.00506a1.94774,1.94774,0,0,0-2.08762-.42056c-.01013.00507-.02026.00507-.02533.01014a.03046.03046,0,0,1-.02027.00507,6.60661,6.60661,0,0,0-.65869.32428Z" transform="translate(-202.14681 -206.26831)"/>
  </g>
</svg>
