<svg xmlns="http://www.w3.org/2000/svg" viewBox="0 0 912.4 484.18"><defs><style>.cls-1,.cls-11,.cls-12,.cls-2{isolation:isolate;}.cls-11,.cls-12,.cls-2{font-size:22px;fill:#9a9999;font-family:Roboto-Regular, Roboto;}.cls-3{fill:#e8583e;}.cls-4{fill:#fcc159;}.cls-5{fill:#f08219;}.cls-6{fill:#f3903e;}.cls-7{fill:#fcc662;}.cls-8{fill:#f4984e;}.cls-9{fill:#ed6d54;}.cls-10{fill:none;stroke:#4d4d4d;stroke-miterlimit:10;stroke-width:0.25px;}.cls-11{letter-spacing:0.02em;}.cls-12{letter-spacing:-0.01em;}</style></defs><title>Asset 31</title><g id="Layer_2" data-name="Layer 2"><g id="Livello_1" data-name="Livello 1"><g class="cls-1"><text class="cls-2" transform="translate(820.32 243.82)">Round - 2</text><text class="cls-2" transform="translate(820.32 270.22)">10.0%</text></g><path class="cls-3" d="M409.62,177.13l-46.77-27A180.31,180.31,0,0,0,349.76,178l51.08,17.63A126.93,126.93,0,0,1,409.62,177.13Z"/><path class="cls-4" d="M487.84,117.63,473.05,65.68a181.38,181.38,0,0,0-110.2,84.45l46.77,27A127.26,127.26,0,0,1,487.84,117.63Z"/><path class="cls-5" d="M641.62,205.19l51.81-15.27a181.44,181.44,0,0,0-112-119.48l-18.29,50.82A127.32,127.32,0,0,1,641.62,205.19Z"/><path class="cls-6" d="M519.64,113.61a127.11,127.11,0,0,1,43.51,7.65l18.29-50.82a181.83,181.83,0,0,0-108.39-4.76l14.79,51.95A127.28,127.28,0,0,1,519.64,113.61Z"/><path class="cls-7" d="M392.64,240.61q0-3.53.19-7h-54c-.09,2.33-.15,4.66-.15,7a180.47,180.47,0,0,0,57,131.88l36.48-39.81A126.65,126.65,0,0,1,392.64,240.61Z"/><path class="cls-7" d="M693.43,189.92l-51.81,15.27a127.52,127.52,0,0,1-2,77l51.06,17.62A181.76,181.76,0,0,0,693.43,189.92Z"/><path class="cls-8" d="M556.33,362.23l14.79,51.94A181.39,181.39,0,0,0,690.73,299.8l-51.06-17.62A127.29,127.29,0,0,1,556.33,362.23Z"/><path class="cls-8" d="M400.84,195.65,349.76,178a180,180,0,0,0-11,55.59h54A126.33,126.33,0,0,1,400.84,195.65Z"/><path class="cls-3" d="M519.64,367.61c-1.17,0-2.34,0-3.5-.05v54c1.16,0,2.33,0,3.5,0a180.53,180.53,0,0,0,51.48-7.44l-14.79-51.94A127,127,0,0,1,519.64,367.61Z"/><path class="cls-9" d="M432.16,332.68l-36.48,39.81a180.29,180.29,0,0,0,120.46,49.08v-54A126.54,126.54,0,0,1,432.16,332.68Z"/><line class="cls-10" x1="730.64" y1="244.61" x2="799.64" y2="244.61"/><g class="cls-1"><text class="cls-2" transform="translate(820.32 137.82)">Round - 1</text><text class="cls-2" transform="translate(820.32 164.22)">15.0%</text></g><g class="cls-1"><text class="cls-2" transform="translate(820.32 18.82)">Round - 0</text><text class="cls-2" transform="translate(820.32 45.22)">10.0%</text></g><polyline class="cls-10" points="799.64 138.61 712.64 138.61 698.64 144.61"/><g class="cls-1"><text class="cls-2" transform="translate(820.32 364.82)">Round - 3</text><text class="cls-2" transform="translate(820.32 391.22)">15.0%</text></g><polyline class="cls-10" points="799.64 365.61 712.64 365.61 696.64 358.61"/><g class="cls-1"><text class="cls-2" transform="translate(820.32 451.82)">Round - 4</text><text class="cls-2" transform="translate(820.32 478.22)">5.0%</text></g><polyline class="cls-10" points="799.64 452.61 586.64 449.61 570.64 435.61"/><polyline class="cls-10" points="799.79 35.69 586.78 34.09 570.48 47.74"/><g class="cls-1"><text class="cls-2" transform="translate(48.36 144.82)">Early suppo</text><text class="cls-11" transform="translate(160.72 144.82)">r</text><text class="cls-2" transform="translate(168.66 144.82)">ters</text><text class="cls-2" transform="translate(159.75 171.22)">2.5%</text></g><polyline class="cls-10" points="225.64 149.61 315.64 149.61 331.64 155.61"/><g class="cls-1"><text class="cls-2" transform="translate(93.41 65.82)">Community</text><text class="cls-2" transform="translate(147.55 92.22)">12.5%</text></g><polyline class="cls-10" points="225.64 70.61 385.64 70.61 395.64 82.61"/><g class="cls-1"><text class="cls-2" transform="translate(47.62 214.82)">Team incentives</text><text class="cls-2" transform="translate(159.75 241.22)">5.0%</text></g><line class="cls-10" x1="225.64" y1="219.61" x2="315.64" y2="219.61"/><g class="cls-1"><text class="cls-2" transform="translate(0 331.82)">foundation / </text><text class="cls-12" transform="translate(123.62 331.82)">F</text><text class="cls-2" transform="translate(135.77 331.82)">orbole*</text><text class="cls-2" transform="translate(147.55 358.22)">13.5%</text></g><polyline class="cls-10" points="225.64 336.61 315.64 336.61 331.64 327.61"/><g class="cls-1"><text class="cls-12" transform="translate(132.96 430.82)">F</text><text class="cls-2" transform="translate(145.11 430.82)">orbole</text><text class="cls-2" transform="translate(147.55 457.22)">11.5%</text></g><polyline class="cls-10" points="225.64 435.61 385.64 435.61 395.64 421.61"/></g></g></svg>