<svg id="Livello_1" data-name="Livello 1" xmlns="http://www.w3.org/2000/svg" viewBox="0 0 107.75937 76.5715">
  <defs>
    <style>
      .cls-1 {
        fill: #dd735b;
      }
    </style>
  </defs>
  <title>24_Code</title>
  <g>
    <path class="cls-1" d="M421.845,279.14975a20.10217,20.10217,0,1,0-20.10217,20.10216A20.12522,20.12522,0,0,0,421.845,279.14975Zm-37.32428,0a17.2209,17.2209,0,1,1,17.22089,17.22089A17.23916,17.23916,0,0,1,384.52072,279.14975Z" transform="translate(-367.37032 -259.04758)"/>
    <path class="cls-1" d="M459.59994,335.619l15.52974-32.75549-54.28918-.00474L418.06344,310.55a25.393,25.393,0,0,0-7.3928-1.10417H392.8092a25.4676,25.4676,0,0,0-25.43888,25.43888h2.88127a22.5842,22.5842,0,0,1,22.55761-22.55762h17.8663a22.52384,22.52384,0,0,1,6.407.93832l-4.56829,12.64847-22.14029.00473v2.88127h24.159L422.86394,305.74h47.70655l-14.16007,29.87907Z" transform="translate(-367.37032 -259.04758)"/>
  </g>
</svg>
