<svg id="Livello_1" data-name="Livello 1" xmlns="http://www.w3.org/2000/svg" viewBox="0 0 64.95993 111.73108">
  <defs>
    <style>
      .cls-1 {
        fill: #dd735b;
      }
    </style>
  </defs>
  <title>22_Smartphone</title>
  <path class="cls-1" d="M393.96683,241.46779a5.21342,5.21342,0,0,0-5.1968,5.1968V348.00208a5.21342,5.21342,0,0,0,5.1968,5.19679h54.56634a5.21342,5.21342,0,0,0,5.1968-5.19679V246.66459a5.21342,5.21342,0,0,0-5.1968-5.1968Zm0,2.5984h54.56634a2.56516,2.56516,0,0,1,2.5984,2.5984v7.79519H391.36843v-7.79519A2.56516,2.56516,0,0,1,393.96683,244.06619Zm-2.5984,12.992h59.76314V332.4117H391.36843Zm0,77.95191h59.76314v12.992a2.56516,2.56516,0,0,1-2.5984,2.5984H393.96683a2.56516,2.56516,0,0,1-2.5984-2.5984Z" transform="translate(-388.77003 -241.46779)"/>
</svg>
