<svg id="Livello_1" data-name="Livello 1" xmlns="http://www.w3.org/2000/svg" viewBox="0 0 101.0515 82.61048">
  <defs>
    <style>
      .cls-1 {
        fill: #dd735b;
      }
    </style>
  </defs>
  <title>23_Validator</title>
  <g>
    <path class="cls-1" d="M471.75532,266.81967a1.29,1.29,0,0,0-.036-.2826c-.01028-.0411-.03083-.07707-.04624-.12331a1.57113,1.57113,0,0,0-.0668-.16443c-.02569-.0411-.05652-.07707-.08735-.11818a1.14332,1.14332,0,0,0-.09763-.12331,1.08365,1.08365,0,0,0-.11817-.09763c-.036-.02569-.0668-.06166-.10791-.08735l-15.54255-9.58795a1.20611,1.20611,0,0,0-1.25887,0l-15.38339,9.516a1.04587,1.04587,0,0,0-.113.04624,1.19052,1.19052,0,0,0-.61144,1.04306V285.929a1.1898,1.1898,0,0,0,.57034,1.01737l15.54255,9.58795c.01028.00514.01542.00514.02569.01028.00514.00513.01542.01027.02056.01541a1.02162,1.02162,0,0,0,.1747.0668c.03082.01027.06679.03083.09762.0411a1.2792,1.2792,0,0,0,.31343.04111,1.31233,1.31233,0,0,0,.31343-.04111.55668.55668,0,0,0,.09763-.0411,1.216,1.216,0,0,0,.1747-.0668c.00514-.00514.01541-.01028.02055-.01541.01028-.00514.01542-.00514.02569-.01028l15.54256-9.58795a1.18977,1.18977,0,0,0,.57034-1.01737l-.01541-19.08356a.22262.22262,0,0,0-.00514-.0257Zm-17.93261,26.55888L441.73764,285.923l2.20945-1.372-1.264-2.02963-2.01938,1.25372.00514-14.78753,13.15382,8.11328Zm1.1972-34.71951,13.267,8.18523-13.267,8.18523-13.23142-8.18523Zm1.19207,34.71951V277.106l13.15382-8.11328v16.27259Z" transform="translate(-370.72425 -256.05764)"/>
    <path class="cls-1" d="M446.48157,280.16422l1.25886,2.02963-2.02963,1.25887-1.25886-2.02964Z" transform="translate(-370.72425 -256.05764)"/>
    <path class="cls-1" d="M437.412,285.79537l-.817.50868-14.7257-9.08429a1.20607,1.20607,0,0,0-1.25887,0l-15.38865,9.516a1.045,1.045,0,0,0-.113.04624,1.19051,1.19051,0,0,0-.61145,1.04306l.00514,19.08356a1.18977,1.18977,0,0,0,.57034,1.01737l15.54256,9.58795c.01027.00514.01541.00514.02569.01028.00513.00514.01541.01027.02055.01541a.96894.96894,0,0,0,.16957.0668.85736.85736,0,0,0,.10276.04111,1.06842,1.06842,0,0,0,.3083.04624,1.31233,1.31233,0,0,0,.31343-.04111.85562.85562,0,0,0,.10276-.0411,1.15957,1.15957,0,0,0,.16957-.0668.07071.07071,0,0,1,.02055-.01541c.01028-.00514.01542-.00514.02569-.01028l15.54255-9.58795a1.21182,1.21182,0,0,0,.56521-1.0225V288.25125l.69366-.43161Zm-17.36173,28.56352L408.18106,307.037l2.13237-1.32564-1.264-2.02964-2.158,1.341V289.96816l13.15382,8.11327v16.27786Zm1.19206-18.35352-13.23143-8.1801L421.24234,279.64l13.087,8.0721Zm14.35082-6.03735v16.27786l-13.15382,8.11327V298.0813Z" transform="translate(-370.72425 -256.05764)"/>
    <path class="cls-1" d="M412.84593,301.32872l1.25887,2.02963-2.02964,1.25886-1.25886-2.02963Z" transform="translate(-370.72425 -256.05764)"/>
    <path class="cls-1" d="M403.77769,306.95461l-.73476.4573L388.09624,298.194a1.206,1.206,0,0,0-1.25885,0l-15.38866,9.516a1.048,1.048,0,0,0-.113.04625,1.19052,1.19052,0,0,0-.61144,1.04306V327.8881a1.18977,1.18977,0,0,0,.57034,1.01737l15.54255,9.588c.01028.00514.01541.00514.02569.01027.00514.00514.01542.01028.02055.01542a.97.97,0,0,0,.16957.0668.85641.85641,0,0,0,.10277.0411,1.27906,1.27906,0,0,0,.31342.04111,1.31226,1.31226,0,0,0,.31343-.04111.85641.85641,0,0,0,.10277-.0411,1.16014,1.16014,0,0,0,.16956-.0668.071.071,0,0,1,.02056-.01542c.01027-.00513.01541-.00513.02569-.01027l15.54255-9.588a1.20274,1.20274,0,0,0,.57034-1.01737l-.00514-18.3851.83239-.51895Zm-16.31337-6.33541,13.26694,8.18523-13.26694,8.18011-13.23143-8.18523Zm-14.34556,10.32273,13.15382,8.11327v16.27786l-13.15382-8.11328Zm28.69638.05138v16.23182l-13.15382,8.11328v-16.2726Z" transform="translate(-370.72425 -256.05764)"/>
  </g>
</svg>
