<svg id="Livello_1" data-name="Livello 1" xmlns="http://www.w3.org/2000/svg" viewBox="0 0 84 84">
  <defs>
    <style>
      .cls-1 {
        fill: #010101;
      }

      .cls-2 {
        fill: #fff;
      }
    </style>
  </defs>
  <title>5_Spam</title>
  <circle class="cls-1" cx="42" cy="42" r="42"/>
  <path class="cls-2" d="M299.58117,425.39879a2.07882,2.07882,0,1,1-2.07687-2.08076A2.078,2.078,0,0,1,299.58117,425.39879Zm-6.8354-17.99733c2.3261-3.99157,7.05106-4.40695,9.45358-.24922l10.13513,17.55869c2.34946,4.11088.17264,8.31147-4.512,8.30748l-20.23636.0039c-4.51594,0-7.44051-3.79818-4.97784-8.06491l10.13912-17.5547Zm.95407.55558-10.13513,17.5547c-2.02755,3.50875.35825,6.40341,4.02149,6.40341h20.23636c3.84736.00649,5.47629-3.297,3.55527-6.65629l-10.13513-17.5547c-1.97432-3.419-5.6451-3.00369-7.54286.25312Zm3.25028,4.66514a.553.553,0,0,1,1.10593,0v6.69517a.553.553,0,0,1-1.10593,0Zm1.5213,12.77658a.969.969,0,1,0-.96705.96706A.96453.96453,0,0,0,298.47142,425.39876Z" transform="translate(-255.5 -378.61905)"/>
</svg>
