<svg id="Livello_1" data-name="Livello 1" xmlns="http://www.w3.org/2000/svg" viewBox="0 0 84 84">
  <defs>
    <style>
      .cls-1 {
        fill: #fdc73c;
      }

      .cls-2 {
        fill: #fff;
      }
    </style>
  </defs>
  <title>3_Finances</title>
  <circle class="cls-1" cx="42" cy="42" r="42"/>
  <g>
    <path class="cls-2" d="M290.17626,412.64567h-.15413a3.27206,3.27206,0,1,1,3.28567-3.272.49949.49949,0,1,0,.999,0,4.27928,4.27928,0,0,0-3.78516-4.23978v-1.17265a.49949.49949,0,0,0-.999,0v1.17265a4.26917,4.26917,0,0,0,.49949,8.51079h.15413a3.27206,3.27206,0,1,1-3.28567,3.272.49949.49949,0,1,0-.999,0,4.27807,4.27807,0,0,0,3.631,4.21636v1.196a.49949.49949,0,0,0,.999,0v-1.159a4.26859,4.26859,0,0,0-.34534-8.52443Z" transform="translate(-255.5 -378.61905)"/>
    <path class="cls-2" d="M308.66123,420.95961l.47413-1.07309a.50012.50012,0,0,0-.91507-.40388l-.47412,1.0731a4.279,4.279,0,0,0-5.17218,2.353,4.27782,4.27782,0,0,0,2.197,5.63679l.14048.06244a3.272,3.272,0,1,1-4.32563,1.66818.49883.49883,0,0,0-.91312-.40193,4.279,4.279,0,0,0,1.62138,5.32252l-.48192,1.09458a.49883.49883,0,1,0,.91312.40192l.46826-1.05946a4.26754,4.26754,0,0,0,5.32073-2.30234,4.27784,4.27784,0,0,0-2.197-5.63679l-.14048-.06244a3.272,3.272,0,1,1,4.32563-1.66818.49883.49883,0,0,0,.91312.40193,4.28047,4.28047,0,0,0-1.75405-5.40644Z" transform="translate(-255.5 -378.61905)"/>
    <path class="cls-2" d="M310.02483,416.63207a12.5303,12.5303,0,0,0-7.785-.75118,12.53821,12.53821,0,1,0-9.47836,9.48225,12.51606,12.51606,0,0,0,23.66714,7.78089,12.527,12.527,0,0,0-6.40362-16.5125Zm-31.526-3.48666a11.52314,11.52314,0,1,1,11.52314,11.52114A11.53641,11.53641,0,0,1,278.49878,413.14541Zm37.0164,19.59333a11.5223,11.5223,0,0,1-21.6612-7.6736,12.5757,12.5757,0,0,0,8.08717-8.08917A11.52072,11.52072,0,0,1,315.515,432.739Z" transform="translate(-255.5 -378.61905)"/>
  </g>
</svg>
