<svg id="Livello_1" data-name="Livello 1" xmlns="http://www.w3.org/2000/svg" viewBox="0 0 84 84">
  <defs>
    <style>
      .cls-1 {
        fill: #ea544a;
      }

      .cls-2 {
        fill: #fff;
      }
    </style>
  </defs>
  <title>Advertiser</title>
  <circle class="cls-1" cx="42" cy="42" r="42"/>
  <path class="cls-2" d="M432.72562,282.65555a.392.392,0,0,0-.20364.06962h.00522c-7.39414,5.11227-11.79256,5.82209-14.73213,5.82209h-8.132a5.20146,5.20146,0,0,0-5.20093,5.20094V295.917a5.19993,5.19993,0,0,0,5.20093,5.19915h4.32883l4.40195,10.663a.3925.3925,0,0,0,.35333.235.40688.40688,0,0,0,.15143-.02959.37158.37158,0,0,0,.20713-.50477l-4.28012-10.36355h2.96073c10.13184,0,14.41575,5.42908,14.65058,5.73877l.00174.00174v.00174a.37475.37475,0,0,0,.30809.16187.38842.38842,0,0,0,.11487-.0174.37526.37526,0,0,0,.26631-.36379v-7.86245l.4926-.11139a3.91782,3.91782,0,0,0,3.04254-3.82406V294.836a3.88933,3.88933,0,0,0-3.03037-3.81884l-.49781-.1114v-7.87448a.35458.35458,0,0,0-.20365-.33419l-.00174-.00175h-.00174a.38088.38088,0,0,0-.20191-.04177Zm-.35856,1.12788v21.74528l-1.04259-.85465c-2.17747-1.79279-6.47131-4.32708-13.54017-4.32708h-3.15567V289.31682h3.15567c2.832,0,6.83893-.5483,13.59944-4.9015l.98168-.63184Zm-22.70418,5.53513h4.207v11.03015h-4.207a4.443,4.443,0,0,1-4.43154-4.43153V293.7484a4.443,4.443,0,0,1,4.43154-4.43154Zm33.40193.07484a.36126.36126,0,0,0-.14969.02785h-.00174l-3.87455,1.5213a.3809.3809,0,0,0-.20713.49086.39421.39421,0,0,0,.35334.24716.687.687,0,0,0,.17928-.03655l3.8328-1.50213a.36991.36991,0,0,0,.21583-.49781.3837.3837,0,0,0-.34812-.24891Zm-9.92821,2.16531.89466.39859a3.15957,3.15957,0,0,1,1.87112,2.87892v.00174a3.13074,3.13074,0,0,1-1.87112,2.87718l-.89466.3986Zm6.515,2.89286a.3899.3899,0,0,0,0,.77979H443.648a.38072.38072,0,0,0,.38989-.3899.36908.36908,0,0,0-.38989-.38989Zm-.47517,3.53167a.38017.38017,0,0,0-.34812.24716.37377.37377,0,0,0,.21584.49955l3.87107,1.51777a.32032.32032,0,0,0,.13924.02263.389.389,0,0,0,.3603-.2489v-.00174l.00174-.00174a.36783.36783,0,0,0-.21931-.48213l-3.87107-1.52129a.39412.39412,0,0,0-.15143-.02785Z" transform="translate(-379.25 -255.33333)"/>
</svg>
