<svg id="Livello_1" data-name="Livello 1" xmlns="http://www.w3.org/2000/svg" viewBox="0 0 80.13212 82">
  <defs>
    <style>
      .cls-1 {
        fill: #ed6d54;
      }
    </style>
  </defs>
  <title>4_SocialNetwork</title>
  <path class="cls-1" d="M337.56606,410.67821v-.10514l-13.97683-20.08316-22.05337-10.87086h-.10514l-26.089,7.65971L261.369,403.642v.10514l-3.935,26.81274v.10514l13.87122,20.08315,22.05337,10.87087h.10514l26.08905-7.65972,13.7708-16.3591Zm-23.50074,43.07141c-.20625.10515-.41251.20626-.41251.41252l-19.35946-3.93505v-.51766a2.10482,2.10482,0,0,0-.41251-1.34674l17.18839-10.35321a5.74139,5.74139,0,0,0,4.14128,2.69349Zm12.62988-40.06587-12.73549-5.07142a4.80049,4.80049,0,0,0,.41251-2.17583,5.39157,5.39157,0,0,0-1.553-3.82985l8.594-9.73036a1.179,1.179,0,0,0,.82906.3114.37823.37823,0,0,0,.31141-.10515l6.41816,18.42975a3.93293,3.93293,0,0,0-2.27688,2.17179Zm-34.99488,33.54232h-.20625l.3114-13.25314a7.41086,7.41086,0,0,0,6.72959-4.86518l11.80058,4.14128a7.94094,7.94094,0,0,0-.20626,1.65817,6.69429,6.69429,0,0,0,.72392,2.89972l-17.18839,10.35321a2.73016,2.73016,0,0,0-1.96545-.93421Zm-21.4301-19.2549,8.38775-20.39478a5.17289,5.17289,0,0,0,1.34675.20626,3.30589,3.30589,0,0,0,1.44779-.31141l6.41816,12.21782a7.62918,7.62918,0,0,0-4.03609,6.72959,5.4046,5.4046,0,0,0,.10514,1.34674l-12.01179,2.27688a3.04,3.04,0,0,0-1.65817-2.07064Zm33.0288-21.53571a5.3042,5.3042,0,0,0,1.96545,4.14129l-8.80023,10.147a7.39594,7.39594,0,0,0-5.07141-1.96545,8.1453,8.1453,0,0,0-3.21115.72391l-6.41816-12.21782a3.90489,3.90489,0,0,0,2.07064-2.69349Zm7.14205,26.50214-11.80058-4.14128a8.84546,8.84546,0,0,0,.41251-2.38207,7.35022,7.35022,0,0,0-2.27687-5.38283l8.80022-10.147a5.35172,5.35172,0,0,0,3.3122,1.14051,3.47037,3.47037,0,0,0,1.03532-.10514l4.24647,17.28882a6.05915,6.05915,0,0,0-3.72881,3.72881Zm10.55924-40.2719-8.594,9.73036a4.9275,4.9275,0,0,0-3.51843-1.44779,5.49919,5.49919,0,0,0-2.69349.72391L299.25858,389.56a3.07,3.07,0,0,0,1.24155-1.75922l20.18876,3.82986v.10515a1.45066,1.45066,0,0,0,.3114.93017Zm-25.57139-3.3122a3.025,3.025,0,0,0,3.41739.51766l6.93582,12.00765a5.5798,5.5798,0,0,0-2.38207,4.24647L283.935,404.36607c0-.20626.10515-.31141.10515-.51766a3.53076,3.53076,0,0,0-.93018-2.48312Zm-17.18839,18.11811L269.958,427.86639a4.31691,4.31691,0,0,0-1.14051-.20625,1.73342,1.73342,0,0,0-.72392.10514l-6.6244-18.63577,14.70052-3.72881a4.48613,4.48613,0,0,0,2.07064,2.07064Zm-6.21192,22.98309,12.01179-2.27688a7.53124,7.53124,0,0,0,7.24724,5.79945l-.3114,13.35357a2.13163,2.13163,0,0,0-1.4478,1.03532l-17.91208-15.52981a3.5731,3.5731,0,0,0,.51766-1.86441.76948.76948,0,0,0-.10515-.51766Zm44.10673-1.553a9.29419,9.29419,0,0,0-1.65817.20626l-4.24647-17.28882a5.46147,5.46147,0,0,0,3.51843-2.89972l12.83591,5.07141a5.17282,5.17282,0,0,0-.20626,1.34675,4.03848,4.03848,0,0,0,1.44779,3.106L319.544,429.83208a6.76982,6.76982,0,0,0-3.40931-.93018Zm14.28846-17.70605a5.37889,5.37889,0,0,0-1.34674.20626l-6.41816-18.42975a.103.103,0,0,0,.10515-.10514l14.18285,17.70605-3.21115,2.17583a4.39879,4.39879,0,0,0-3.3122-1.553Zm3.82986-4.65894-11.07689-13.87123a1.26625,1.26625,0,0,0,.3114-.93017,1.51422,1.51422,0,0,0-.20625-.72392l.20625-.10514Zm-11.07689-15.94187-.10515.10515a1.31212,1.31212,0,0,0-.93017-.41251,1.27318,1.27318,0,0,0-1.03532.51766l-14.70052-8.4888ZM301.435,380.03562l19.35945,11.1825v.10514l-20.29435-3.83389V387.178a3.05176,3.05176,0,0,0-1.44779-2.5883Zm-.41656,0-2.27687,4.34752a2.7652,2.7652,0,0,0-1.24156-.31141,2.97838,2.97838,0,0,0-3.00077,2.89973l-17.91209.3114Zm-6.51931,7.24724a2.93954,2.93954,0,0,0,.72392,1.75922L282.9007,400.94827a4.15208,4.15208,0,0,0-2.89973-1.24156,3.13639,3.13639,0,0,0-1.03532.20626l-3.41738-12.31825Zm-19.3636.61877,3.3122,12.21782a4.03,4.03,0,0,0-2.5883,3.72881,4.551,4.551,0,0,0,.20625,1.14051l-14.49449,3.72881Zm-13.45917,15.946,11.70016-13.87122L261.47037,408.196Zm-.61877,4.45271v.6228l-.41251,2.48312Zm.20626,1.34271,6.41816,18.22371a3.54794,3.54794,0,0,0-2.27688,2.69349l-7.55867-.10514Zm-3.3122,21.12261,7.45348.20626v.10514a3.33453,3.33453,0,0,0,3.3122,3.3122h.41251l2.07064,15.63541Zm11.59456,3.51843a3.47865,3.47865,0,0,0,1.75921-1.14051L289.318,448.6734a2.09619,2.09619,0,0,0-.3114,1.14051l-17.39443.62281Zm2.69349,16.46367,16.87676-.62281a2.45072,2.45072,0,0,0,2.38207,2.17583l1.8644,8.80023Zm19.67109,1.65413a2.47663,2.47663,0,0,0,2.17583-1.65817l19.35946,3.935-19.77669,6.62439Zm10.76526,6.21193L313.753,454.885a.78752.78752,0,0,0,.51766.20625.65773.65773,0,0,0,.62281-.51766l2.38206-.3114Zm16.97719-4.97037-4.65894.62281v-.10515l16.67073-14.802Zm-4.96633.2103c-.10515,0-.10515-.10515-.20625-.10515L315.516,440.9127h.62281a5.99814,5.99814,0,0,0,5.9005-4.86519l10.97647,1.4478Zm7.45349-18.11812c0-.3114.10515-.51766.10515-.82906a6.1261,6.1261,0,0,0-2.48311-4.86518l8.28256-11.38853a4.21025,4.21025,0,0,0,2.48311.82907h.20626l2.5883,17.80648Zm11.28293.41251L331.0413,419.377a4.11771,4.11771,0,0,0,3.51844-4.0361,4.40456,4.40456,0,0,0-.62281-2.27687l3.21115-2.07065Z" transform="translate(-257.43394 -379.61905)"/>
</svg>
