<svg id="Livello_1" data-name="Livello 1" xmlns="http://www.w3.org/2000/svg" viewBox="0 0 84 84">
  <defs>
    <style>
      .cls-1 {
        fill: #2d8f9e;
      }

      .cls-2 {
        fill: #fff;
      }
    </style>
  </defs>
  <title>6_User</title>
  <circle class="cls-1" cx="42" cy="42" r="42"/>
  <path class="cls-2" d="M290.8427,399.90345a4.861,4.861,0,1,0,4.85907,4.86284A4.85742,4.85742,0,0,0,290.8427,399.90345Zm12.76,0a4.861,4.861,0,1,0,4.85907,4.86284A4.8542,4.8542,0,0,0,303.60271,399.90345Zm0,.81695a4.04324,4.04324,0,1,1-4.04416,4.04415A4.053,4.053,0,0,1,303.60271,400.7204Zm-12.76.00184a4.04324,4.04324,0,1,1-4.04415,4.04231A4.05265,4.05265,0,0,1,290.8427,400.72224Zm-3.72032,11.38367a4.83812,4.83812,0,0,0-4.82233,4.81338v7.05262a4.82264,4.82264,0,0,0,2.53909,4.23186l.35511.19135v9.64325a3.693,3.693,0,0,0,3.69645,3.69645h4.99519a.41215.41215,0,1,0,0-.82429H288.8907a2.88975,2.88975,0,0,1-2.87767-2.88134v-9.92257a.41829.41829,0,0,0-.27047-.38454,3.99934,3.99934,0,0,1-2.61823-3.7461V416.9309a4.01067,4.01067,0,0,1,4-3.99818h4.723a.414.414,0,0,0,0-.828h-4.723Zm12.21738.01288a4.82,4.82,0,0,0-4.81856,4.81527v7.03613a4.82653,4.82653,0,0,0,2.54093,4.23186l.35511.19135v9.64325a3.693,3.693,0,0,0,3.69645,3.69645h4.99378a3.693,3.693,0,0,0,3.69644-3.69645V428.3934l.35511-.18951A4.83443,4.83443,0,0,0,312.7,423.96836v-7.03614a4.8144,4.8144,0,0,0-4.81856-4.81526h-8.54294Zm0,.81694h8.54294a4.00948,4.00948,0,0,1,4,3.99818v7.03614a4.001,4.001,0,0,1-2.61823,3.74609.40936.40936,0,0,0-.26679.38455v9.93952a2.8929,2.8929,0,0,1-2.88134,2.88134h-4.99519a2.88975,2.88975,0,0,1-2.87767-2.88134V428.112a.42157.42157,0,0,0-.27047-.38638,3.99932,3.99932,0,0,1-2.61823-3.74609V417.608h-.01288v-.67342a4.01067,4.01067,0,0,1,4-3.99818Z" transform="translate(-255.5 -378.61905)"/>
</svg>
