<svg xmlns="http://www.w3.org/2000/svg" viewBox="0 0 319 320"><defs><style>.cls-1{fill:#ed6c53;}</style></defs><title>team-placeholder</title><g id="Layer_2" data-name="Layer 2"><g id="Livello_1" data-name="Livello 1"><path class="cls-1" d="M159.5,0A159.5,159.5,0,0,0,0,159.5v1a159.5,159.5,0,0,0,319,0v-1A159.5,159.5,0,0,0,159.5,0Zm0,116.25a25,25,0,1,1-25,25A25,25,0,0,1,159.5,116.25Zm45.83,87.5h-4.16V197.5a18.76,18.76,0,0,0-18.75-18.75H136.58a18.75,18.75,0,0,0-18.75,18.75v6.25h-4.16V197.5a22.92,22.92,0,0,1,22.91-22.92h45.84a22.92,22.92,0,0,1,22.91,22.92Z"/><circle class="cls-1" cx="159.5" cy="141.25" r="20.83"/></g></g></svg>